G04*
G04 #@! TF.GenerationSoftware,Altium Limited,Altium Designer,19.1.8 (144)*
G04*
G04 Layer_Color=12632256*
%FSLAX25Y25*%
%MOIN*%
G70*
G01*
G75*
%ADD40C,0.05906*%
%ADD41R,0.05906X0.05906*%
%ADD42R,0.05906X0.05906*%
D40*
X48000Y158500D02*
D03*
Y148500D02*
D03*
X38000Y158500D02*
D03*
X93000Y147500D02*
D03*
X83000D02*
D03*
X73000D02*
D03*
X84500Y44000D02*
D03*
X94500D02*
D03*
X104500D02*
D03*
X124000Y84000D02*
D03*
Y94000D02*
D03*
X134000Y84000D02*
D03*
Y94000D02*
D03*
X144000Y84000D02*
D03*
X144500Y106500D02*
D03*
X134500D02*
D03*
X124500D02*
D03*
X114500D02*
D03*
X104500D02*
D03*
X94500D02*
D03*
X84500D02*
D03*
X144500Y56500D02*
D03*
X134500D02*
D03*
X124500D02*
D03*
X114500D02*
D03*
X104500D02*
D03*
X94500D02*
D03*
X84500D02*
D03*
X104500Y120000D02*
D03*
X114500D02*
D03*
X124500D02*
D03*
X51500Y19000D02*
D03*
X61500D02*
D03*
X71500D02*
D03*
X81500D02*
D03*
X91500D02*
D03*
X52000Y32000D02*
D03*
X62000D02*
D03*
X72000D02*
D03*
X82000D02*
D03*
X92000D02*
D03*
X19000Y53500D02*
D03*
Y63500D02*
D03*
Y73500D02*
D03*
Y83500D02*
D03*
Y93500D02*
D03*
Y103500D02*
D03*
Y113500D02*
D03*
D41*
X38000Y148500D02*
D03*
X63000Y147500D02*
D03*
X114500Y44000D02*
D03*
X144000Y94000D02*
D03*
X154500Y106500D02*
D03*
Y56500D02*
D03*
X134500Y120000D02*
D03*
X41500Y19000D02*
D03*
X42000Y32000D02*
D03*
D42*
X19000Y43500D02*
D03*
M02*
