G04*
G04 #@! TF.GenerationSoftware,Altium Limited,Altium Designer,19.1.8 (144)*
G04*
G04 Layer_Color=8388736*
%FSLAX25Y25*%
%MOIN*%
G70*
G01*
G75*
%ADD25R,0.07099X0.06312*%
%ADD26R,0.04800X0.06800*%
%ADD27R,0.11036X0.06706*%
%ADD28R,0.06800X0.04800*%
%ADD29R,0.09068X0.04737*%
%ADD30R,0.23832X0.20091*%
%ADD31R,0.06706X0.03162*%
%ADD32R,0.03162X0.06706*%
%ADD33R,0.06706X0.06706*%
%ADD34C,0.06706*%
%ADD35R,0.06706X0.06706*%
%ADD36C,0.02769*%
%ADD37C,0.12611*%
G36*
X84017Y23214D02*
X83037D01*
Y24121D01*
X84017D01*
Y23214D01*
D02*
G37*
G36*
X73683D02*
X72702D01*
Y24121D01*
X73683D01*
Y23214D01*
D02*
G37*
G36*
X76795Y22789D02*
X76839Y22785D01*
X76894Y22778D01*
X76961Y22767D01*
X77031Y22752D01*
X77113Y22730D01*
X77198Y22704D01*
X77283Y22670D01*
X77376Y22630D01*
X77468Y22578D01*
X77561Y22522D01*
X77653Y22452D01*
X77745Y22374D01*
X77831Y22286D01*
X77834Y22278D01*
X77849Y22263D01*
X77871Y22234D01*
X77901Y22193D01*
X77934Y22141D01*
X77975Y22078D01*
X78016Y22004D01*
X78056Y21919D01*
X78097Y21823D01*
X78138Y21720D01*
X78178Y21601D01*
X78212Y21475D01*
X78241Y21338D01*
X78263Y21194D01*
X78278Y21039D01*
X78282Y20872D01*
Y20868D01*
Y20861D01*
Y20850D01*
Y20831D01*
Y20809D01*
X78278Y20783D01*
Y20754D01*
X78275Y20720D01*
X78267Y20643D01*
X78260Y20550D01*
X78245Y20450D01*
X78227Y20343D01*
X78201Y20228D01*
X78171Y20114D01*
X78134Y19992D01*
X78090Y19873D01*
X78038Y19755D01*
X77979Y19640D01*
X77908Y19529D01*
X77827Y19429D01*
X77823Y19422D01*
X77805Y19407D01*
X77782Y19381D01*
X77745Y19348D01*
X77701Y19311D01*
X77649Y19266D01*
X77586Y19218D01*
X77520Y19174D01*
X77442Y19126D01*
X77357Y19078D01*
X77268Y19033D01*
X77168Y18996D01*
X77068Y18963D01*
X76957Y18937D01*
X76843Y18922D01*
X76724Y18915D01*
X76695D01*
X76673Y18919D01*
X76643D01*
X76613Y18922D01*
X76576Y18926D01*
X76539Y18930D01*
X76451Y18945D01*
X76354Y18967D01*
X76258Y18996D01*
X76162Y19037D01*
X76158D01*
X76151Y19044D01*
X76136Y19052D01*
X76117Y19059D01*
X76095Y19074D01*
X76069Y19093D01*
X76040Y19111D01*
X76003Y19137D01*
X75925Y19192D01*
X75884Y19226D01*
X75836Y19266D01*
X75792Y19307D01*
X75740Y19352D01*
X75692Y19403D01*
X75640Y19455D01*
Y17590D01*
X74660D01*
Y22711D01*
X75574D01*
Y22163D01*
X75577Y22167D01*
X75581Y22175D01*
X75592Y22189D01*
X75607Y22212D01*
X75625Y22234D01*
X75648Y22263D01*
X75670Y22293D01*
X75699Y22326D01*
X75770Y22397D01*
X75851Y22474D01*
X75947Y22548D01*
X76055Y22619D01*
X76058Y22622D01*
X76069Y22626D01*
X76084Y22633D01*
X76106Y22645D01*
X76136Y22659D01*
X76169Y22674D01*
X76210Y22689D01*
X76254Y22707D01*
X76302Y22722D01*
X76354Y22737D01*
X76469Y22767D01*
X76595Y22785D01*
X76661Y22793D01*
X76761D01*
X76795Y22789D01*
D02*
G37*
G36*
X97048D02*
X97108Y22785D01*
X97174Y22778D01*
X97248Y22767D01*
X97326Y22756D01*
X97411Y22741D01*
X97496Y22722D01*
X97589Y22696D01*
X97677Y22667D01*
X97766Y22633D01*
X97855Y22593D01*
X97936Y22548D01*
X98014Y22497D01*
X98018Y22493D01*
X98033Y22482D01*
X98051Y22467D01*
X98081Y22441D01*
X98114Y22411D01*
X98151Y22374D01*
X98192Y22326D01*
X98236Y22275D01*
X98284Y22219D01*
X98332Y22152D01*
X98380Y22078D01*
X98425Y21997D01*
X98473Y21912D01*
X98517Y21819D01*
X98554Y21716D01*
X98591Y21609D01*
X97626Y21435D01*
Y21438D01*
X97622Y21446D01*
X97618Y21461D01*
X97615Y21483D01*
X97607Y21505D01*
X97600Y21534D01*
X97578Y21597D01*
X97548Y21668D01*
X97507Y21742D01*
X97459Y21808D01*
X97400Y21871D01*
X97396D01*
X97392Y21879D01*
X97381Y21886D01*
X97370Y21893D01*
X97330Y21919D01*
X97278Y21945D01*
X97215Y21971D01*
X97137Y21997D01*
X97048Y22012D01*
X96952Y22019D01*
X96915D01*
X96889Y22016D01*
X96860Y22012D01*
X96823Y22004D01*
X96782Y21997D01*
X96741Y21986D01*
X96693Y21975D01*
X96645Y21956D01*
X96597Y21938D01*
X96549Y21912D01*
X96501Y21882D01*
X96453Y21849D01*
X96408Y21808D01*
X96364Y21764D01*
X96360Y21760D01*
X96353Y21753D01*
X96345Y21738D01*
X96331Y21716D01*
X96312Y21686D01*
X96294Y21653D01*
X96275Y21612D01*
X96257Y21564D01*
X96234Y21509D01*
X96216Y21446D01*
X96197Y21375D01*
X96179Y21301D01*
X96164Y21216D01*
X96157Y21124D01*
X96149Y21024D01*
X96146Y20917D01*
Y20909D01*
Y20887D01*
Y20854D01*
X96149Y20809D01*
X96153Y20754D01*
X96157Y20695D01*
X96164Y20624D01*
X96175Y20554D01*
X96201Y20399D01*
X96220Y20321D01*
X96238Y20247D01*
X96264Y20173D01*
X96294Y20103D01*
X96327Y20040D01*
X96368Y19984D01*
X96371Y19981D01*
X96379Y19973D01*
X96390Y19958D01*
X96408Y19943D01*
X96430Y19921D01*
X96456Y19899D01*
X96490Y19873D01*
X96527Y19851D01*
X96567Y19825D01*
X96612Y19799D01*
X96660Y19777D01*
X96712Y19755D01*
X96771Y19740D01*
X96830Y19725D01*
X96897Y19718D01*
X96963Y19714D01*
X96989D01*
X97011Y19718D01*
X97034D01*
X97060Y19722D01*
X97126Y19733D01*
X97196Y19755D01*
X97274Y19781D01*
X97348Y19821D01*
X97385Y19844D01*
X97418Y19873D01*
X97422Y19877D01*
X97426Y19881D01*
X97437Y19892D01*
X97448Y19903D01*
X97463Y19921D01*
X97481Y19943D01*
X97500Y19969D01*
X97518Y20003D01*
X97540Y20036D01*
X97559Y20077D01*
X97581Y20121D01*
X97603Y20173D01*
X97622Y20225D01*
X97640Y20288D01*
X97659Y20350D01*
X97674Y20421D01*
X98639Y20258D01*
Y20251D01*
X98632Y20228D01*
X98621Y20195D01*
X98610Y20147D01*
X98591Y20091D01*
X98569Y20029D01*
X98543Y19958D01*
X98510Y19884D01*
X98473Y19803D01*
X98432Y19722D01*
X98384Y19636D01*
X98332Y19551D01*
X98273Y19470D01*
X98210Y19392D01*
X98140Y19318D01*
X98062Y19252D01*
X98058Y19248D01*
X98044Y19237D01*
X98018Y19222D01*
X97984Y19200D01*
X97940Y19174D01*
X97888Y19144D01*
X97829Y19115D01*
X97759Y19085D01*
X97681Y19052D01*
X97596Y19022D01*
X97504Y18993D01*
X97400Y18967D01*
X97293Y18945D01*
X97174Y18930D01*
X97048Y18919D01*
X96919Y18915D01*
X96882D01*
X96863Y18919D01*
X96841D01*
X96786Y18922D01*
X96715Y18930D01*
X96638Y18941D01*
X96549Y18959D01*
X96453Y18978D01*
X96349Y19007D01*
X96245Y19041D01*
X96135Y19081D01*
X96027Y19129D01*
X95920Y19189D01*
X95816Y19255D01*
X95716Y19337D01*
X95620Y19425D01*
X95617Y19433D01*
X95598Y19448D01*
X95576Y19477D01*
X95546Y19522D01*
X95509Y19573D01*
X95468Y19636D01*
X95424Y19710D01*
X95380Y19795D01*
X95335Y19892D01*
X95291Y19999D01*
X95250Y20117D01*
X95213Y20243D01*
X95184Y20380D01*
X95161Y20528D01*
X95143Y20684D01*
X95139Y20850D01*
Y20854D01*
Y20861D01*
Y20872D01*
Y20891D01*
X95143Y20913D01*
Y20939D01*
Y20968D01*
X95147Y21002D01*
X95154Y21079D01*
X95165Y21168D01*
X95180Y21264D01*
X95198Y21372D01*
X95224Y21486D01*
X95258Y21601D01*
X95298Y21720D01*
X95343Y21842D01*
X95398Y21956D01*
X95465Y22071D01*
X95539Y22178D01*
X95624Y22278D01*
X95631Y22286D01*
X95646Y22300D01*
X95676Y22326D01*
X95713Y22360D01*
X95761Y22397D01*
X95820Y22441D01*
X95890Y22489D01*
X95972Y22537D01*
X96061Y22582D01*
X96157Y22630D01*
X96264Y22674D01*
X96382Y22711D01*
X96508Y22744D01*
X96641Y22770D01*
X96786Y22785D01*
X96937Y22793D01*
X97004D01*
X97048Y22789D01*
D02*
G37*
G36*
X100312Y22234D02*
X100319Y22241D01*
X100334Y22260D01*
X100360Y22286D01*
X100397Y22323D01*
X100441Y22363D01*
X100497Y22411D01*
X100560Y22459D01*
X100630Y22515D01*
X100711Y22567D01*
X100796Y22615D01*
X100893Y22663D01*
X100993Y22704D01*
X101096Y22741D01*
X101207Y22770D01*
X101326Y22785D01*
X101448Y22793D01*
X101503D01*
X101533Y22789D01*
X101570Y22785D01*
X101607Y22781D01*
X101651Y22778D01*
X101744Y22763D01*
X101847Y22741D01*
X101951Y22707D01*
X102055Y22667D01*
X102058D01*
X102066Y22659D01*
X102080Y22656D01*
X102099Y22645D01*
X102121Y22633D01*
X102147Y22615D01*
X102210Y22578D01*
X102277Y22534D01*
X102343Y22478D01*
X102410Y22415D01*
X102465Y22345D01*
Y22341D01*
X102473Y22337D01*
X102480Y22326D01*
X102487Y22311D01*
X102498Y22293D01*
X102513Y22271D01*
X102543Y22215D01*
X102573Y22152D01*
X102606Y22078D01*
X102635Y21997D01*
X102658Y21908D01*
Y21904D01*
X102661Y21897D01*
Y21882D01*
X102665Y21864D01*
X102669Y21838D01*
X102672Y21808D01*
X102680Y21771D01*
X102683Y21727D01*
X102687Y21679D01*
X102695Y21627D01*
X102698Y21564D01*
X102702Y21501D01*
X102706Y21427D01*
Y21350D01*
X102709Y21264D01*
Y21176D01*
Y19000D01*
X101729D01*
Y20957D01*
Y20965D01*
Y20983D01*
Y21013D01*
Y21050D01*
Y21098D01*
X101725Y21150D01*
Y21209D01*
X101722Y21268D01*
X101714Y21394D01*
X101710Y21457D01*
X101703Y21516D01*
X101696Y21572D01*
X101688Y21620D01*
X101681Y21664D01*
X101670Y21697D01*
X101666Y21705D01*
X101659Y21723D01*
X101644Y21753D01*
X101625Y21786D01*
X101599Y21827D01*
X101562Y21868D01*
X101522Y21908D01*
X101474Y21945D01*
X101466Y21949D01*
X101448Y21960D01*
X101418Y21975D01*
X101377Y21993D01*
X101326Y22012D01*
X101266Y22027D01*
X101196Y22038D01*
X101118Y22041D01*
X101078D01*
X101056Y22038D01*
X101030Y22034D01*
X100974Y22027D01*
X100904Y22012D01*
X100830Y21990D01*
X100756Y21960D01*
X100682Y21919D01*
X100678D01*
X100674Y21916D01*
X100652Y21897D01*
X100615Y21868D01*
X100575Y21831D01*
X100530Y21779D01*
X100482Y21720D01*
X100438Y21645D01*
X100401Y21560D01*
Y21557D01*
X100397Y21549D01*
X100393Y21534D01*
X100386Y21516D01*
X100378Y21490D01*
X100371Y21461D01*
X100364Y21423D01*
X100356Y21383D01*
X100349Y21338D01*
X100341Y21287D01*
X100334Y21227D01*
X100327Y21165D01*
X100319Y21094D01*
X100315Y21020D01*
X100312Y20943D01*
Y20857D01*
Y19000D01*
X99331D01*
Y24121D01*
X100312D01*
Y22234D01*
D02*
G37*
G36*
X90725Y23255D02*
X89208D01*
Y19000D01*
X88176D01*
Y23255D01*
X86655D01*
Y24121D01*
X90725D01*
Y23255D01*
D02*
G37*
G36*
X84017Y19000D02*
X83037D01*
Y22711D01*
X84017D01*
Y19000D01*
D02*
G37*
G36*
X73683D02*
X72702D01*
Y22711D01*
X73683D01*
Y19000D01*
D02*
G37*
G36*
X70283Y22789D02*
X70338D01*
X70401Y22785D01*
X70471Y22781D01*
X70545Y22774D01*
X70623Y22767D01*
X70704Y22756D01*
X70867Y22726D01*
X70945Y22711D01*
X71023Y22689D01*
X71093Y22663D01*
X71156Y22637D01*
X71159D01*
X71171Y22630D01*
X71185Y22622D01*
X71208Y22607D01*
X71233Y22593D01*
X71263Y22574D01*
X71333Y22530D01*
X71407Y22471D01*
X71481Y22404D01*
X71552Y22326D01*
X71581Y22286D01*
X71607Y22241D01*
Y22238D01*
X71615Y22230D01*
X71618Y22215D01*
X71629Y22193D01*
X71637Y22167D01*
X71648Y22130D01*
X71663Y22090D01*
X71674Y22041D01*
X71685Y21986D01*
X71700Y21919D01*
X71711Y21849D01*
X71718Y21768D01*
X71729Y21679D01*
X71733Y21583D01*
X71740Y21475D01*
Y21361D01*
X71726Y20217D01*
Y20214D01*
Y20195D01*
Y20169D01*
Y20136D01*
Y20095D01*
X71729Y20051D01*
Y19999D01*
X71733Y19943D01*
X71737Y19825D01*
X71744Y19707D01*
X71748Y19647D01*
X71755Y19592D01*
X71763Y19544D01*
X71770Y19496D01*
Y19492D01*
X71774Y19485D01*
Y19474D01*
X71781Y19455D01*
X71785Y19433D01*
X71792Y19407D01*
X71811Y19348D01*
X71833Y19274D01*
X71866Y19189D01*
X71903Y19096D01*
X71948Y19000D01*
X70978D01*
Y19004D01*
X70971Y19018D01*
X70963Y19041D01*
X70952Y19074D01*
X70938Y19115D01*
X70919Y19163D01*
X70900Y19222D01*
X70882Y19289D01*
Y19292D01*
X70878Y19303D01*
X70875Y19318D01*
X70867Y19337D01*
X70856Y19374D01*
X70852Y19388D01*
X70849Y19403D01*
X70845Y19400D01*
X70838Y19392D01*
X70823Y19381D01*
X70804Y19363D01*
X70782Y19344D01*
X70753Y19318D01*
X70723Y19292D01*
X70686Y19266D01*
X70608Y19207D01*
X70516Y19144D01*
X70416Y19089D01*
X70309Y19037D01*
X70305D01*
X70297Y19033D01*
X70279Y19026D01*
X70260Y19018D01*
X70231Y19007D01*
X70201Y19000D01*
X70164Y18989D01*
X70127Y18978D01*
X70083Y18963D01*
X70035Y18952D01*
X69931Y18933D01*
X69816Y18919D01*
X69698Y18915D01*
X69672D01*
X69643Y18919D01*
X69602D01*
X69554Y18926D01*
X69498Y18930D01*
X69439Y18941D01*
X69369Y18956D01*
X69298Y18970D01*
X69224Y18993D01*
X69150Y19015D01*
X69076Y19044D01*
X69002Y19081D01*
X68928Y19122D01*
X68858Y19170D01*
X68795Y19226D01*
X68792Y19229D01*
X68780Y19241D01*
X68766Y19259D01*
X68743Y19281D01*
X68717Y19311D01*
X68692Y19348D01*
X68662Y19392D01*
X68632Y19440D01*
X68599Y19496D01*
X68569Y19555D01*
X68544Y19618D01*
X68518Y19688D01*
X68496Y19762D01*
X68481Y19840D01*
X68470Y19925D01*
X68466Y20010D01*
Y20014D01*
Y20025D01*
Y20040D01*
X68470Y20062D01*
Y20091D01*
X68473Y20121D01*
X68477Y20158D01*
X68484Y20199D01*
X68503Y20284D01*
X68529Y20380D01*
X68566Y20476D01*
X68614Y20569D01*
X68618Y20572D01*
X68621Y20580D01*
X68629Y20591D01*
X68643Y20609D01*
X68677Y20654D01*
X68725Y20709D01*
X68784Y20769D01*
X68854Y20831D01*
X68940Y20894D01*
X69036Y20946D01*
X69039D01*
X69047Y20954D01*
X69065Y20961D01*
X69087Y20968D01*
X69113Y20979D01*
X69147Y20994D01*
X69187Y21009D01*
X69235Y21024D01*
X69287Y21042D01*
X69346Y21061D01*
X69409Y21079D01*
X69480Y21098D01*
X69554Y21120D01*
X69635Y21139D01*
X69724Y21157D01*
X69816Y21176D01*
X69824D01*
X69846Y21183D01*
X69883Y21187D01*
X69927Y21198D01*
X69983Y21209D01*
X70050Y21224D01*
X70120Y21238D01*
X70194Y21253D01*
X70353Y21294D01*
X70508Y21335D01*
X70582Y21353D01*
X70653Y21375D01*
X70715Y21398D01*
X70771Y21420D01*
Y21516D01*
Y21520D01*
Y21527D01*
Y21542D01*
X70767Y21560D01*
Y21586D01*
X70764Y21612D01*
X70753Y21671D01*
X70738Y21738D01*
X70712Y21805D01*
X70679Y21868D01*
X70656Y21893D01*
X70630Y21919D01*
X70623Y21923D01*
X70616Y21930D01*
X70601Y21938D01*
X70586Y21949D01*
X70564Y21956D01*
X70542Y21967D01*
X70512Y21982D01*
X70479Y21993D01*
X70438Y22004D01*
X70397Y22012D01*
X70349Y22023D01*
X70294Y22030D01*
X70235Y22038D01*
X70172Y22041D01*
X70057D01*
X70035Y22038D01*
X70009D01*
X69953Y22030D01*
X69887Y22016D01*
X69816Y21997D01*
X69750Y21971D01*
X69691Y21938D01*
X69683Y21934D01*
X69668Y21919D01*
X69639Y21890D01*
X69609Y21853D01*
X69572Y21805D01*
X69532Y21742D01*
X69494Y21664D01*
X69458Y21575D01*
X68566Y21734D01*
X68569Y21742D01*
X68573Y21757D01*
X68581Y21786D01*
X68595Y21823D01*
X68610Y21868D01*
X68632Y21919D01*
X68658Y21975D01*
X68684Y22034D01*
X68717Y22101D01*
X68758Y22163D01*
X68799Y22230D01*
X68847Y22297D01*
X68895Y22360D01*
X68954Y22422D01*
X69014Y22478D01*
X69080Y22530D01*
X69084Y22534D01*
X69099Y22541D01*
X69121Y22556D01*
X69150Y22570D01*
X69187Y22589D01*
X69235Y22611D01*
X69291Y22637D01*
X69358Y22663D01*
X69428Y22685D01*
X69509Y22711D01*
X69602Y22733D01*
X69698Y22752D01*
X69805Y22767D01*
X69920Y22781D01*
X70042Y22789D01*
X70175Y22793D01*
X70238D01*
X70283Y22789D01*
D02*
G37*
G36*
X68070Y23255D02*
X66553D01*
Y19000D01*
X65521D01*
Y23255D01*
X64000D01*
Y24121D01*
X68070D01*
Y23255D01*
D02*
G37*
G36*
X92849Y22789D02*
X92871D01*
X92930Y22785D01*
X93001Y22778D01*
X93078Y22763D01*
X93171Y22748D01*
X93267Y22726D01*
X93367Y22696D01*
X93474Y22659D01*
X93581Y22615D01*
X93692Y22563D01*
X93800Y22500D01*
X93903Y22426D01*
X94003Y22341D01*
X94096Y22245D01*
X94099Y22238D01*
X94118Y22219D01*
X94140Y22186D01*
X94170Y22141D01*
X94207Y22082D01*
X94248Y22012D01*
X94288Y21927D01*
X94333Y21831D01*
X94377Y21720D01*
X94421Y21594D01*
X94458Y21457D01*
X94495Y21305D01*
X94521Y21142D01*
X94543Y20965D01*
X94555Y20772D01*
X94558Y20569D01*
X92098D01*
Y20565D01*
Y20550D01*
X92102Y20528D01*
Y20498D01*
X92105Y20461D01*
X92113Y20417D01*
X92120Y20373D01*
X92131Y20321D01*
X92157Y20210D01*
X92176Y20154D01*
X92198Y20099D01*
X92227Y20043D01*
X92257Y19988D01*
X92290Y19936D01*
X92331Y19888D01*
X92335Y19884D01*
X92342Y19877D01*
X92353Y19866D01*
X92372Y19851D01*
X92394Y19832D01*
X92423Y19810D01*
X92453Y19792D01*
X92490Y19770D01*
X92527Y19744D01*
X92571Y19725D01*
X92668Y19684D01*
X92723Y19670D01*
X92779Y19659D01*
X92838Y19651D01*
X92901Y19647D01*
X92923D01*
X92941Y19651D01*
X92982Y19655D01*
X93038Y19662D01*
X93097Y19677D01*
X93163Y19699D01*
X93226Y19729D01*
X93289Y19770D01*
X93293D01*
X93297Y19777D01*
X93315Y19795D01*
X93345Y19825D01*
X93378Y19870D01*
X93419Y19925D01*
X93459Y19995D01*
X93496Y20077D01*
X93530Y20177D01*
X94507Y20014D01*
X94503Y20006D01*
X94499Y19992D01*
X94488Y19962D01*
X94469Y19925D01*
X94451Y19881D01*
X94425Y19829D01*
X94396Y19770D01*
X94358Y19710D01*
X94322Y19644D01*
X94277Y19577D01*
X94225Y19507D01*
X94174Y19440D01*
X94114Y19374D01*
X94051Y19307D01*
X93981Y19248D01*
X93907Y19192D01*
X93903Y19189D01*
X93889Y19181D01*
X93866Y19166D01*
X93833Y19148D01*
X93792Y19129D01*
X93748Y19104D01*
X93689Y19081D01*
X93626Y19056D01*
X93556Y19030D01*
X93482Y19004D01*
X93397Y18978D01*
X93308Y18959D01*
X93212Y18941D01*
X93108Y18926D01*
X93001Y18919D01*
X92890Y18915D01*
X92849D01*
X92823Y18919D01*
X92797D01*
X92768Y18922D01*
X92730Y18926D01*
X92649Y18933D01*
X92560Y18948D01*
X92457Y18967D01*
X92346Y18993D01*
X92231Y19026D01*
X92113Y19070D01*
X91994Y19118D01*
X91876Y19181D01*
X91761Y19252D01*
X91654Y19337D01*
X91550Y19433D01*
X91458Y19544D01*
X91454Y19551D01*
X91443Y19566D01*
X91424Y19596D01*
X91402Y19636D01*
X91373Y19684D01*
X91343Y19744D01*
X91310Y19814D01*
X91276Y19895D01*
X91239Y19984D01*
X91206Y20080D01*
X91176Y20184D01*
X91151Y20299D01*
X91125Y20417D01*
X91106Y20547D01*
X91095Y20684D01*
X91091Y20824D01*
Y20828D01*
Y20835D01*
Y20846D01*
Y20865D01*
X91095Y20887D01*
Y20913D01*
Y20943D01*
X91099Y20976D01*
X91106Y21054D01*
X91117Y21142D01*
X91132Y21242D01*
X91151Y21350D01*
X91176Y21464D01*
X91210Y21583D01*
X91247Y21701D01*
X91295Y21823D01*
X91350Y21941D01*
X91413Y22056D01*
X91487Y22163D01*
X91572Y22267D01*
X91580Y22275D01*
X91595Y22289D01*
X91620Y22315D01*
X91658Y22348D01*
X91706Y22389D01*
X91765Y22434D01*
X91831Y22482D01*
X91905Y22530D01*
X91991Y22578D01*
X92083Y22626D01*
X92183Y22670D01*
X92290Y22711D01*
X92405Y22744D01*
X92527Y22770D01*
X92656Y22785D01*
X92793Y22793D01*
X92830D01*
X92849Y22789D01*
D02*
G37*
G36*
X80528D02*
X80550D01*
X80609Y22785D01*
X80680Y22778D01*
X80757Y22763D01*
X80850Y22748D01*
X80946Y22726D01*
X81046Y22696D01*
X81153Y22659D01*
X81261Y22615D01*
X81371Y22563D01*
X81479Y22500D01*
X81582Y22426D01*
X81682Y22341D01*
X81775Y22245D01*
X81779Y22238D01*
X81797Y22219D01*
X81819Y22186D01*
X81849Y22141D01*
X81886Y22082D01*
X81927Y22012D01*
X81967Y21927D01*
X82012Y21831D01*
X82056Y21720D01*
X82100Y21594D01*
X82137Y21457D01*
X82174Y21305D01*
X82200Y21142D01*
X82222Y20965D01*
X82234Y20772D01*
X82237Y20569D01*
X79777D01*
Y20565D01*
Y20550D01*
X79781Y20528D01*
Y20498D01*
X79784Y20461D01*
X79792Y20417D01*
X79799Y20373D01*
X79810Y20321D01*
X79836Y20210D01*
X79855Y20154D01*
X79877Y20099D01*
X79906Y20043D01*
X79936Y19988D01*
X79969Y19936D01*
X80010Y19888D01*
X80014Y19884D01*
X80021Y19877D01*
X80032Y19866D01*
X80051Y19851D01*
X80073Y19832D01*
X80102Y19810D01*
X80132Y19792D01*
X80169Y19770D01*
X80206Y19744D01*
X80250Y19725D01*
X80347Y19684D01*
X80402Y19670D01*
X80458Y19659D01*
X80517Y19651D01*
X80580Y19647D01*
X80602D01*
X80620Y19651D01*
X80661Y19655D01*
X80717Y19662D01*
X80776Y19677D01*
X80842Y19699D01*
X80905Y19729D01*
X80968Y19770D01*
X80972D01*
X80976Y19777D01*
X80994Y19795D01*
X81024Y19825D01*
X81057Y19870D01*
X81098Y19925D01*
X81138Y19995D01*
X81175Y20077D01*
X81209Y20177D01*
X82186Y20014D01*
X82182Y20006D01*
X82178Y19992D01*
X82167Y19962D01*
X82148Y19925D01*
X82130Y19881D01*
X82104Y19829D01*
X82074Y19770D01*
X82038Y19710D01*
X82000Y19644D01*
X81956Y19577D01*
X81904Y19507D01*
X81853Y19440D01*
X81793Y19374D01*
X81730Y19307D01*
X81660Y19248D01*
X81586Y19192D01*
X81582Y19189D01*
X81568Y19181D01*
X81545Y19166D01*
X81512Y19148D01*
X81471Y19129D01*
X81427Y19104D01*
X81368Y19081D01*
X81305Y19056D01*
X81235Y19030D01*
X81161Y19004D01*
X81076Y18978D01*
X80987Y18959D01*
X80891Y18941D01*
X80787Y18926D01*
X80680Y18919D01*
X80569Y18915D01*
X80528D01*
X80502Y18919D01*
X80476D01*
X80446Y18922D01*
X80409Y18926D01*
X80328Y18933D01*
X80239Y18948D01*
X80136Y18967D01*
X80025Y18993D01*
X79910Y19026D01*
X79792Y19070D01*
X79673Y19118D01*
X79555Y19181D01*
X79440Y19252D01*
X79333Y19337D01*
X79229Y19433D01*
X79137Y19544D01*
X79133Y19551D01*
X79122Y19566D01*
X79103Y19596D01*
X79081Y19636D01*
X79052Y19684D01*
X79022Y19744D01*
X78989Y19814D01*
X78955Y19895D01*
X78918Y19984D01*
X78885Y20080D01*
X78856Y20184D01*
X78830Y20299D01*
X78804Y20417D01*
X78785Y20547D01*
X78774Y20684D01*
X78770Y20824D01*
Y20828D01*
Y20835D01*
Y20846D01*
Y20865D01*
X78774Y20887D01*
Y20913D01*
Y20943D01*
X78778Y20976D01*
X78785Y21054D01*
X78796Y21142D01*
X78811Y21242D01*
X78830Y21350D01*
X78856Y21464D01*
X78889Y21583D01*
X78926Y21701D01*
X78974Y21823D01*
X79029Y21941D01*
X79092Y22056D01*
X79166Y22163D01*
X79251Y22267D01*
X79259Y22275D01*
X79274Y22289D01*
X79299Y22315D01*
X79337Y22348D01*
X79385Y22389D01*
X79444Y22434D01*
X79510Y22482D01*
X79584Y22530D01*
X79669Y22578D01*
X79762Y22626D01*
X79862Y22670D01*
X79969Y22711D01*
X80084Y22744D01*
X80206Y22770D01*
X80335Y22785D01*
X80472Y22793D01*
X80509D01*
X80528Y22789D01*
D02*
G37*
G36*
X66642Y17202D02*
X66672D01*
X66709Y17199D01*
X66790Y17195D01*
X66883Y17184D01*
X66983Y17169D01*
X67094Y17154D01*
X67208Y17132D01*
X67327Y17102D01*
X67449Y17069D01*
X67571Y17028D01*
X67686Y16976D01*
X67800Y16921D01*
X67904Y16854D01*
X68000Y16780D01*
X68008Y16777D01*
X68022Y16762D01*
X68045Y16736D01*
X68078Y16703D01*
X68115Y16662D01*
X68156Y16610D01*
X68200Y16551D01*
X68248Y16481D01*
X68296Y16407D01*
X68341Y16322D01*
X68385Y16229D01*
X68422Y16129D01*
X68459Y16022D01*
X68485Y15907D01*
X68503Y15785D01*
X68515Y15656D01*
X67482Y15611D01*
Y15615D01*
X67479Y15630D01*
X67475Y15648D01*
X67467Y15674D01*
X67460Y15707D01*
X67449Y15744D01*
X67438Y15785D01*
X67423Y15830D01*
X67382Y15922D01*
X67334Y16014D01*
X67271Y16103D01*
X67238Y16144D01*
X67197Y16177D01*
X67194Y16181D01*
X67186Y16185D01*
X67175Y16192D01*
X67157Y16203D01*
X67134Y16218D01*
X67105Y16233D01*
X67071Y16248D01*
X67035Y16266D01*
X66990Y16281D01*
X66942Y16296D01*
X66887Y16310D01*
X66827Y16325D01*
X66764Y16336D01*
X66698Y16344D01*
X66620Y16351D01*
X66498D01*
X66468Y16348D01*
X66431Y16344D01*
X66387Y16340D01*
X66339Y16336D01*
X66283Y16329D01*
X66172Y16307D01*
X66054Y16274D01*
X65995Y16251D01*
X65939Y16225D01*
X65887Y16196D01*
X65836Y16162D01*
X65828Y16159D01*
X65810Y16140D01*
X65784Y16114D01*
X65754Y16077D01*
X65725Y16033D01*
X65699Y15981D01*
X65680Y15918D01*
X65677Y15885D01*
X65673Y15848D01*
Y15844D01*
Y15841D01*
X65677Y15818D01*
X65680Y15785D01*
X65691Y15741D01*
X65710Y15693D01*
X65736Y15641D01*
X65773Y15589D01*
X65825Y15537D01*
X65828D01*
X65836Y15530D01*
X65847Y15522D01*
X65869Y15508D01*
X65895Y15493D01*
X65928Y15474D01*
X65969Y15456D01*
X66017Y15434D01*
X66076Y15408D01*
X66143Y15382D01*
X66220Y15352D01*
X66309Y15323D01*
X66409Y15289D01*
X66517Y15260D01*
X66642Y15226D01*
X66776Y15193D01*
X66779D01*
X66783Y15189D01*
X66794D01*
X66809Y15186D01*
X66846Y15175D01*
X66898Y15164D01*
X66961Y15145D01*
X67035Y15126D01*
X67112Y15104D01*
X67197Y15082D01*
X67286Y15053D01*
X67379Y15027D01*
X67564Y14964D01*
X67652Y14930D01*
X67738Y14893D01*
X67819Y14860D01*
X67889Y14823D01*
X67893Y14819D01*
X67904Y14816D01*
X67923Y14805D01*
X67948Y14790D01*
X67978Y14768D01*
X68015Y14745D01*
X68052Y14719D01*
X68096Y14686D01*
X68141Y14653D01*
X68185Y14612D01*
X68233Y14571D01*
X68281Y14523D01*
X68374Y14420D01*
X68415Y14361D01*
X68455Y14301D01*
X68459Y14298D01*
X68463Y14287D01*
X68474Y14268D01*
X68489Y14242D01*
X68503Y14209D01*
X68522Y14172D01*
X68540Y14128D01*
X68559Y14076D01*
X68577Y14020D01*
X68596Y13957D01*
X68614Y13891D01*
X68629Y13820D01*
X68644Y13743D01*
X68655Y13661D01*
X68659Y13576D01*
X68663Y13487D01*
Y13484D01*
Y13469D01*
Y13443D01*
X68659Y13413D01*
X68655Y13373D01*
X68648Y13328D01*
X68640Y13276D01*
X68633Y13221D01*
X68618Y13158D01*
X68603Y13092D01*
X68581Y13025D01*
X68559Y12955D01*
X68529Y12881D01*
X68496Y12807D01*
X68459Y12736D01*
X68415Y12662D01*
X68411Y12659D01*
X68404Y12648D01*
X68389Y12625D01*
X68370Y12599D01*
X68344Y12570D01*
X68315Y12533D01*
X68278Y12492D01*
X68237Y12448D01*
X68189Y12403D01*
X68137Y12355D01*
X68082Y12307D01*
X68019Y12263D01*
X67952Y12215D01*
X67882Y12170D01*
X67804Y12129D01*
X67723Y12093D01*
X67719Y12089D01*
X67704Y12085D01*
X67678Y12074D01*
X67641Y12063D01*
X67601Y12048D01*
X67549Y12033D01*
X67486Y12019D01*
X67419Y12000D01*
X67342Y11981D01*
X67256Y11967D01*
X67164Y11952D01*
X67068Y11937D01*
X66964Y11926D01*
X66853Y11915D01*
X66735Y11911D01*
X66613Y11908D01*
X66546D01*
X66520Y11911D01*
X66487D01*
X66454Y11915D01*
X66372Y11922D01*
X66276Y11930D01*
X66172Y11945D01*
X66061Y11963D01*
X65943Y11989D01*
X65821Y12019D01*
X65695Y12052D01*
X65573Y12096D01*
X65451Y12148D01*
X65333Y12207D01*
X65222Y12278D01*
X65118Y12355D01*
X65110Y12359D01*
X65096Y12377D01*
X65070Y12403D01*
X65036Y12440D01*
X64996Y12485D01*
X64948Y12544D01*
X64900Y12610D01*
X64848Y12688D01*
X64792Y12773D01*
X64741Y12873D01*
X64689Y12980D01*
X64641Y13095D01*
X64592Y13225D01*
X64556Y13362D01*
X64522Y13510D01*
X64500Y13665D01*
X65506Y13761D01*
Y13754D01*
X65510Y13739D01*
X65517Y13713D01*
X65525Y13680D01*
X65536Y13635D01*
X65551Y13587D01*
X65566Y13535D01*
X65584Y13480D01*
X65636Y13358D01*
X65666Y13295D01*
X65699Y13232D01*
X65736Y13173D01*
X65776Y13117D01*
X65825Y13066D01*
X65873Y13017D01*
X65876Y13014D01*
X65887Y13006D01*
X65902Y12995D01*
X65925Y12980D01*
X65950Y12962D01*
X65987Y12944D01*
X66024Y12921D01*
X66072Y12899D01*
X66121Y12877D01*
X66180Y12855D01*
X66239Y12836D01*
X66306Y12818D01*
X66380Y12803D01*
X66457Y12792D01*
X66539Y12784D01*
X66624Y12781D01*
X66672D01*
X66705Y12784D01*
X66746Y12788D01*
X66794Y12792D01*
X66849Y12799D01*
X66905Y12807D01*
X67027Y12833D01*
X67090Y12851D01*
X67153Y12869D01*
X67212Y12895D01*
X67271Y12921D01*
X67327Y12955D01*
X67375Y12992D01*
X67379Y12995D01*
X67386Y13003D01*
X67397Y13014D01*
X67416Y13029D01*
X67434Y13051D01*
X67456Y13073D01*
X67479Y13103D01*
X67504Y13132D01*
X67549Y13206D01*
X67589Y13288D01*
X67608Y13336D01*
X67619Y13380D01*
X67627Y13432D01*
X67630Y13484D01*
Y13487D01*
Y13491D01*
Y13513D01*
X67627Y13547D01*
X67615Y13591D01*
X67604Y13639D01*
X67586Y13691D01*
X67560Y13743D01*
X67523Y13791D01*
X67519Y13798D01*
X67501Y13813D01*
X67475Y13835D01*
X67438Y13869D01*
X67386Y13902D01*
X67319Y13942D01*
X67242Y13980D01*
X67197Y13998D01*
X67149Y14017D01*
X67146D01*
X67142Y14020D01*
X67127Y14024D01*
X67112Y14028D01*
X67086Y14035D01*
X67057Y14046D01*
X67020Y14057D01*
X66979Y14068D01*
X66927Y14083D01*
X66868Y14098D01*
X66801Y14116D01*
X66724Y14139D01*
X66639Y14161D01*
X66542Y14183D01*
X66435Y14209D01*
X66320Y14239D01*
X66317D01*
X66309Y14242D01*
X66298D01*
X66283Y14250D01*
X66265Y14253D01*
X66243Y14261D01*
X66187Y14276D01*
X66117Y14294D01*
X66039Y14320D01*
X65954Y14349D01*
X65865Y14379D01*
X65769Y14416D01*
X65673Y14453D01*
X65573Y14494D01*
X65481Y14538D01*
X65388Y14586D01*
X65303Y14638D01*
X65225Y14690D01*
X65155Y14745D01*
X65151Y14749D01*
X65136Y14764D01*
X65110Y14790D01*
X65081Y14819D01*
X65048Y14860D01*
X65007Y14912D01*
X64963Y14967D01*
X64922Y15034D01*
X64877Y15104D01*
X64833Y15182D01*
X64792Y15267D01*
X64759Y15356D01*
X64729Y15452D01*
X64704Y15556D01*
X64689Y15663D01*
X64685Y15774D01*
Y15778D01*
Y15792D01*
Y15811D01*
X64689Y15841D01*
X64692Y15874D01*
X64696Y15915D01*
X64704Y15963D01*
X64711Y16014D01*
X64726Y16066D01*
X64737Y16126D01*
X64755Y16185D01*
X64777Y16248D01*
X64803Y16314D01*
X64833Y16377D01*
X64866Y16444D01*
X64903Y16507D01*
X64907Y16510D01*
X64914Y16521D01*
X64925Y16540D01*
X64944Y16562D01*
X64966Y16592D01*
X64996Y16625D01*
X65029Y16658D01*
X65066Y16699D01*
X65110Y16740D01*
X65159Y16784D01*
X65210Y16825D01*
X65266Y16869D01*
X65329Y16910D01*
X65395Y16951D01*
X65466Y16991D01*
X65543Y17025D01*
X65547Y17028D01*
X65562Y17032D01*
X65588Y17043D01*
X65617Y17054D01*
X65658Y17065D01*
X65706Y17084D01*
X65762Y17099D01*
X65825Y17117D01*
X65895Y17132D01*
X65973Y17150D01*
X66054Y17165D01*
X66143Y17176D01*
X66239Y17191D01*
X66339Y17199D01*
X66443Y17202D01*
X66550Y17206D01*
X66616D01*
X66642Y17202D01*
D02*
G37*
G36*
X88964Y15789D02*
X89020D01*
X89083Y15785D01*
X89153Y15781D01*
X89227Y15774D01*
X89305Y15767D01*
X89386Y15755D01*
X89549Y15726D01*
X89627Y15711D01*
X89704Y15689D01*
X89775Y15663D01*
X89838Y15637D01*
X89841D01*
X89852Y15630D01*
X89867Y15622D01*
X89889Y15608D01*
X89915Y15593D01*
X89945Y15574D01*
X90015Y15530D01*
X90089Y15471D01*
X90163Y15404D01*
X90233Y15326D01*
X90263Y15286D01*
X90289Y15241D01*
Y15237D01*
X90296Y15230D01*
X90300Y15215D01*
X90311Y15193D01*
X90319Y15167D01*
X90330Y15130D01*
X90345Y15089D01*
X90356Y15041D01*
X90367Y14986D01*
X90381Y14919D01*
X90393Y14849D01*
X90400Y14768D01*
X90411Y14679D01*
X90415Y14583D01*
X90422Y14475D01*
Y14361D01*
X90407Y13217D01*
Y13214D01*
Y13195D01*
Y13169D01*
Y13136D01*
Y13095D01*
X90411Y13051D01*
Y12999D01*
X90415Y12944D01*
X90418Y12825D01*
X90426Y12707D01*
X90430Y12648D01*
X90437Y12592D01*
X90444Y12544D01*
X90452Y12496D01*
Y12492D01*
X90456Y12485D01*
Y12474D01*
X90463Y12455D01*
X90467Y12433D01*
X90474Y12407D01*
X90492Y12348D01*
X90515Y12274D01*
X90548Y12189D01*
X90585Y12096D01*
X90629Y12000D01*
X89660D01*
Y12004D01*
X89653Y12019D01*
X89645Y12041D01*
X89634Y12074D01*
X89619Y12115D01*
X89601Y12163D01*
X89582Y12222D01*
X89564Y12289D01*
Y12292D01*
X89560Y12303D01*
X89556Y12318D01*
X89549Y12337D01*
X89538Y12374D01*
X89534Y12388D01*
X89530Y12403D01*
X89527Y12400D01*
X89519Y12392D01*
X89505Y12381D01*
X89486Y12363D01*
X89464Y12344D01*
X89434Y12318D01*
X89405Y12292D01*
X89368Y12266D01*
X89290Y12207D01*
X89197Y12144D01*
X89098Y12089D01*
X88990Y12037D01*
X88987D01*
X88979Y12033D01*
X88961Y12026D01*
X88942Y12019D01*
X88913Y12007D01*
X88883Y12000D01*
X88846Y11989D01*
X88809Y11978D01*
X88765Y11963D01*
X88717Y11952D01*
X88613Y11933D01*
X88498Y11919D01*
X88380Y11915D01*
X88354D01*
X88324Y11919D01*
X88284D01*
X88235Y11926D01*
X88180Y11930D01*
X88121Y11941D01*
X88051Y11956D01*
X87980Y11970D01*
X87906Y11993D01*
X87832Y12015D01*
X87758Y12044D01*
X87684Y12081D01*
X87610Y12122D01*
X87540Y12170D01*
X87477Y12226D01*
X87473Y12229D01*
X87462Y12241D01*
X87447Y12259D01*
X87425Y12281D01*
X87399Y12311D01*
X87373Y12348D01*
X87344Y12392D01*
X87314Y12440D01*
X87281Y12496D01*
X87251Y12555D01*
X87225Y12618D01*
X87199Y12688D01*
X87177Y12762D01*
X87163Y12840D01*
X87151Y12925D01*
X87148Y13010D01*
Y13014D01*
Y13025D01*
Y13040D01*
X87151Y13062D01*
Y13092D01*
X87155Y13121D01*
X87159Y13158D01*
X87166Y13199D01*
X87185Y13284D01*
X87211Y13380D01*
X87248Y13476D01*
X87296Y13569D01*
X87299Y13573D01*
X87303Y13580D01*
X87310Y13591D01*
X87325Y13610D01*
X87359Y13654D01*
X87407Y13709D01*
X87466Y13769D01*
X87536Y13832D01*
X87621Y13894D01*
X87717Y13946D01*
X87721D01*
X87729Y13954D01*
X87747Y13961D01*
X87769Y13968D01*
X87795Y13980D01*
X87828Y13994D01*
X87869Y14009D01*
X87917Y14024D01*
X87969Y14042D01*
X88028Y14061D01*
X88091Y14079D01*
X88161Y14098D01*
X88235Y14120D01*
X88317Y14139D01*
X88406Y14157D01*
X88498Y14176D01*
X88506D01*
X88528Y14183D01*
X88565Y14187D01*
X88609Y14198D01*
X88665Y14209D01*
X88731Y14224D01*
X88802Y14239D01*
X88876Y14253D01*
X89035Y14294D01*
X89190Y14335D01*
X89264Y14353D01*
X89334Y14375D01*
X89397Y14398D01*
X89453Y14420D01*
Y14516D01*
Y14520D01*
Y14527D01*
Y14542D01*
X89449Y14560D01*
Y14586D01*
X89445Y14612D01*
X89434Y14671D01*
X89420Y14738D01*
X89394Y14805D01*
X89360Y14867D01*
X89338Y14893D01*
X89312Y14919D01*
X89305Y14923D01*
X89297Y14930D01*
X89283Y14938D01*
X89268Y14949D01*
X89246Y14956D01*
X89223Y14967D01*
X89194Y14982D01*
X89161Y14993D01*
X89120Y15004D01*
X89079Y15012D01*
X89031Y15023D01*
X88976Y15030D01*
X88916Y15038D01*
X88853Y15041D01*
X88739D01*
X88717Y15038D01*
X88691D01*
X88635Y15030D01*
X88569Y15015D01*
X88498Y14997D01*
X88432Y14971D01*
X88372Y14938D01*
X88365Y14934D01*
X88350Y14919D01*
X88321Y14890D01*
X88291Y14853D01*
X88254Y14805D01*
X88213Y14742D01*
X88176Y14664D01*
X88139Y14575D01*
X87248Y14734D01*
X87251Y14742D01*
X87255Y14757D01*
X87262Y14786D01*
X87277Y14823D01*
X87292Y14867D01*
X87314Y14919D01*
X87340Y14975D01*
X87366Y15034D01*
X87399Y15101D01*
X87440Y15164D01*
X87481Y15230D01*
X87529Y15297D01*
X87577Y15360D01*
X87636Y15423D01*
X87695Y15478D01*
X87762Y15530D01*
X87766Y15533D01*
X87780Y15541D01*
X87803Y15556D01*
X87832Y15571D01*
X87869Y15589D01*
X87917Y15611D01*
X87973Y15637D01*
X88039Y15663D01*
X88110Y15685D01*
X88191Y15711D01*
X88284Y15733D01*
X88380Y15752D01*
X88487Y15767D01*
X88602Y15781D01*
X88724Y15789D01*
X88857Y15792D01*
X88920D01*
X88964Y15789D01*
D02*
G37*
G36*
X84103Y12866D02*
X86674D01*
Y12000D01*
X83070D01*
Y17076D01*
X84103D01*
Y12866D01*
D02*
G37*
G36*
X80084Y16255D02*
X77320D01*
Y15119D01*
X79892D01*
Y14253D01*
X77320D01*
Y12866D01*
X80181D01*
Y12000D01*
X76288D01*
Y17121D01*
X80084D01*
Y16255D01*
D02*
G37*
G36*
X75300Y12000D02*
X74268D01*
Y17121D01*
X75300D01*
Y12000D01*
D02*
G37*
G36*
X71415Y17117D02*
X71500D01*
X71593Y17113D01*
X71693Y17110D01*
X71900Y17102D01*
X72004Y17095D01*
X72104Y17087D01*
X72196Y17080D01*
X72281Y17069D01*
X72355Y17058D01*
X72385Y17051D01*
X72414Y17043D01*
X72418D01*
X72433Y17036D01*
X72459Y17028D01*
X72488Y17021D01*
X72525Y17006D01*
X72570Y16988D01*
X72618Y16965D01*
X72673Y16936D01*
X72729Y16906D01*
X72788Y16869D01*
X72847Y16828D01*
X72910Y16784D01*
X72973Y16732D01*
X73036Y16673D01*
X73095Y16610D01*
X73151Y16540D01*
X73154Y16536D01*
X73165Y16521D01*
X73180Y16499D01*
X73199Y16470D01*
X73221Y16433D01*
X73247Y16385D01*
X73273Y16333D01*
X73302Y16270D01*
X73328Y16203D01*
X73354Y16129D01*
X73380Y16048D01*
X73402Y15959D01*
X73424Y15863D01*
X73439Y15763D01*
X73447Y15656D01*
X73450Y15545D01*
Y15541D01*
Y15522D01*
Y15500D01*
X73447Y15467D01*
Y15426D01*
X73443Y15378D01*
X73435Y15326D01*
X73428Y15267D01*
X73421Y15208D01*
X73410Y15141D01*
X73376Y15008D01*
X73336Y14875D01*
X73306Y14812D01*
X73276Y14749D01*
X73273Y14745D01*
X73269Y14734D01*
X73258Y14719D01*
X73247Y14697D01*
X73228Y14671D01*
X73210Y14638D01*
X73158Y14568D01*
X73095Y14486D01*
X73021Y14401D01*
X72936Y14320D01*
X72843Y14246D01*
X72840Y14242D01*
X72832Y14239D01*
X72818Y14227D01*
X72799Y14216D01*
X72773Y14201D01*
X72747Y14183D01*
X72714Y14164D01*
X72677Y14146D01*
X72596Y14105D01*
X72507Y14065D01*
X72411Y14028D01*
X72307Y14002D01*
X72303D01*
X72289Y13998D01*
X72270Y13994D01*
X72237Y13991D01*
X72200Y13987D01*
X72152Y13980D01*
X72100Y13972D01*
X72033Y13968D01*
X71963Y13961D01*
X71885Y13954D01*
X71796Y13946D01*
X71700Y13942D01*
X71597Y13939D01*
X71486Y13935D01*
X71364Y13931D01*
X70564D01*
Y12000D01*
X69532D01*
Y17121D01*
X71338D01*
X71415Y17117D01*
D02*
G37*
G36*
X92320Y15274D02*
X92324Y15282D01*
X92343Y15297D01*
X92365Y15323D01*
X92402Y15356D01*
X92442Y15397D01*
X92494Y15437D01*
X92557Y15485D01*
X92624Y15533D01*
X92698Y15582D01*
X92779Y15630D01*
X92868Y15674D01*
X92964Y15711D01*
X93064Y15744D01*
X93168Y15770D01*
X93279Y15785D01*
X93393Y15792D01*
X93423D01*
X93460Y15789D01*
X93508Y15785D01*
X93563Y15778D01*
X93634Y15767D01*
X93708Y15752D01*
X93789Y15730D01*
X93878Y15704D01*
X93967Y15674D01*
X94059Y15633D01*
X94156Y15585D01*
X94248Y15530D01*
X94344Y15463D01*
X94433Y15385D01*
X94518Y15300D01*
X94522Y15293D01*
X94537Y15278D01*
X94559Y15249D01*
X94588Y15208D01*
X94622Y15160D01*
X94659Y15097D01*
X94699Y15023D01*
X94740Y14942D01*
X94781Y14845D01*
X94822Y14742D01*
X94858Y14623D01*
X94892Y14498D01*
X94921Y14361D01*
X94944Y14216D01*
X94958Y14057D01*
X94962Y13891D01*
Y13887D01*
Y13880D01*
Y13869D01*
Y13850D01*
Y13828D01*
X94958Y13798D01*
Y13769D01*
X94955Y13735D01*
X94947Y13654D01*
X94940Y13561D01*
X94925Y13462D01*
X94907Y13351D01*
X94881Y13236D01*
X94851Y13114D01*
X94814Y12992D01*
X94770Y12873D01*
X94718Y12751D01*
X94659Y12636D01*
X94588Y12525D01*
X94507Y12426D01*
X94503Y12418D01*
X94485Y12403D01*
X94463Y12377D01*
X94426Y12344D01*
X94381Y12307D01*
X94329Y12263D01*
X94270Y12218D01*
X94200Y12170D01*
X94126Y12122D01*
X94041Y12078D01*
X93948Y12033D01*
X93852Y11996D01*
X93748Y11963D01*
X93641Y11937D01*
X93527Y11922D01*
X93408Y11915D01*
X93379D01*
X93353Y11919D01*
X93327D01*
X93290Y11922D01*
X93253Y11930D01*
X93212Y11933D01*
X93116Y11956D01*
X93009Y11981D01*
X92894Y12022D01*
X92838Y12044D01*
X92779Y12074D01*
X92775Y12078D01*
X92764Y12081D01*
X92750Y12093D01*
X92727Y12104D01*
X92701Y12122D01*
X92672Y12141D01*
X92635Y12167D01*
X92598Y12192D01*
X92516Y12259D01*
X92428Y12340D01*
X92335Y12433D01*
X92250Y12544D01*
Y12000D01*
X91340D01*
Y17121D01*
X92320D01*
Y15274D01*
D02*
G37*
%LPC*%
G36*
X76462Y22016D02*
X76428D01*
X76402Y22012D01*
X76373Y22008D01*
X76336Y22001D01*
X76295Y21993D01*
X76251Y21982D01*
X76206Y21967D01*
X76158Y21945D01*
X76106Y21923D01*
X76058Y21897D01*
X76007Y21864D01*
X75958Y21827D01*
X75910Y21782D01*
X75862Y21734D01*
X75858Y21731D01*
X75851Y21723D01*
X75840Y21705D01*
X75825Y21682D01*
X75807Y21653D01*
X75788Y21620D01*
X75766Y21575D01*
X75744Y21527D01*
X75722Y21472D01*
X75699Y21412D01*
X75681Y21346D01*
X75662Y21272D01*
X75648Y21190D01*
X75637Y21105D01*
X75629Y21013D01*
X75625Y20913D01*
Y20906D01*
Y20887D01*
Y20854D01*
X75629Y20809D01*
X75633Y20757D01*
X75640Y20698D01*
X75648Y20635D01*
X75655Y20561D01*
X75685Y20413D01*
X75707Y20336D01*
X75729Y20258D01*
X75759Y20184D01*
X75792Y20114D01*
X75829Y20047D01*
X75873Y19988D01*
X75877Y19984D01*
X75884Y19977D01*
X75899Y19962D01*
X75918Y19943D01*
X75944Y19918D01*
X75969Y19895D01*
X76003Y19866D01*
X76043Y19840D01*
X76084Y19814D01*
X76132Y19784D01*
X76180Y19762D01*
X76232Y19740D01*
X76291Y19718D01*
X76351Y19703D01*
X76414Y19696D01*
X76480Y19692D01*
X76495D01*
X76513Y19696D01*
X76539D01*
X76565Y19699D01*
X76602Y19707D01*
X76639Y19714D01*
X76680Y19725D01*
X76724Y19740D01*
X76772Y19759D01*
X76820Y19781D01*
X76869Y19807D01*
X76917Y19840D01*
X76965Y19877D01*
X77009Y19918D01*
X77054Y19966D01*
X77057Y19969D01*
X77065Y19981D01*
X77076Y19995D01*
X77091Y20018D01*
X77105Y20047D01*
X77128Y20084D01*
X77146Y20129D01*
X77168Y20180D01*
X77191Y20240D01*
X77209Y20306D01*
X77231Y20380D01*
X77246Y20461D01*
X77261Y20550D01*
X77272Y20647D01*
X77279Y20750D01*
X77283Y20865D01*
Y20872D01*
Y20891D01*
Y20920D01*
X77279Y20961D01*
X77276Y21009D01*
X77272Y21065D01*
X77264Y21127D01*
X77253Y21194D01*
X77224Y21335D01*
X77205Y21405D01*
X77183Y21475D01*
X77157Y21546D01*
X77124Y21612D01*
X77087Y21675D01*
X77046Y21731D01*
X77043Y21734D01*
X77035Y21742D01*
X77024Y21757D01*
X77005Y21775D01*
X76980Y21797D01*
X76954Y21819D01*
X76920Y21845D01*
X76883Y21875D01*
X76843Y21901D01*
X76798Y21927D01*
X76750Y21949D01*
X76698Y21971D01*
X76647Y21990D01*
X76587Y22004D01*
X76525Y22012D01*
X76462Y22016D01*
D02*
G37*
G36*
X70771Y20780D02*
X70767D01*
X70764Y20776D01*
X70753Y20772D01*
X70734Y20769D01*
X70715Y20761D01*
X70690Y20754D01*
X70660Y20746D01*
X70623Y20739D01*
X70582Y20728D01*
X70538Y20717D01*
X70490Y20702D01*
X70434Y20691D01*
X70375Y20676D01*
X70312Y20661D01*
X70242Y20643D01*
X70168Y20628D01*
X70164D01*
X70149Y20624D01*
X70131Y20621D01*
X70101Y20613D01*
X70068Y20606D01*
X70031Y20595D01*
X69950Y20572D01*
X69861Y20547D01*
X69772Y20521D01*
X69731Y20502D01*
X69694Y20487D01*
X69661Y20473D01*
X69635Y20458D01*
X69631D01*
X69628Y20450D01*
X69605Y20432D01*
X69576Y20402D01*
X69543Y20362D01*
X69506Y20313D01*
X69476Y20254D01*
X69454Y20184D01*
X69450Y20147D01*
X69446Y20110D01*
Y20106D01*
Y20103D01*
Y20091D01*
X69450Y20077D01*
X69454Y20036D01*
X69465Y19988D01*
X69483Y19932D01*
X69509Y19873D01*
X69546Y19814D01*
X69598Y19755D01*
X69605Y19747D01*
X69628Y19733D01*
X69661Y19707D01*
X69705Y19681D01*
X69761Y19655D01*
X69828Y19629D01*
X69905Y19614D01*
X69990Y19607D01*
X70016D01*
X70035Y19611D01*
X70061D01*
X70086Y19618D01*
X70153Y19629D01*
X70231Y19651D01*
X70316Y19681D01*
X70405Y19725D01*
X70453Y19751D01*
X70497Y19781D01*
X70501D01*
X70505Y19788D01*
X70527Y19803D01*
X70556Y19832D01*
X70593Y19870D01*
X70634Y19918D01*
X70671Y19973D01*
X70704Y20036D01*
X70730Y20103D01*
X70734Y20110D01*
X70738Y20129D01*
X70741Y20143D01*
X70745Y20162D01*
X70749Y20184D01*
X70753Y20210D01*
X70756Y20240D01*
X70760Y20277D01*
Y20313D01*
X70764Y20358D01*
X70767Y20406D01*
X70771Y20461D01*
Y20521D01*
Y20584D01*
Y20780D01*
D02*
G37*
G36*
X92853Y22041D02*
X92823D01*
X92801Y22038D01*
X92771Y22034D01*
X92738Y22030D01*
X92705Y22023D01*
X92664Y22012D01*
X92582Y21982D01*
X92538Y21964D01*
X92494Y21941D01*
X92446Y21916D01*
X92405Y21882D01*
X92361Y21845D01*
X92320Y21805D01*
X92316Y21801D01*
X92312Y21793D01*
X92301Y21779D01*
X92286Y21760D01*
X92272Y21738D01*
X92253Y21708D01*
X92235Y21675D01*
X92216Y21638D01*
X92194Y21594D01*
X92176Y21546D01*
X92161Y21494D01*
X92142Y21438D01*
X92131Y21375D01*
X92120Y21313D01*
X92113Y21242D01*
Y21168D01*
X93585D01*
Y21172D01*
Y21187D01*
X93581Y21209D01*
Y21238D01*
X93578Y21275D01*
X93570Y21316D01*
X93563Y21361D01*
X93552Y21409D01*
X93526Y21512D01*
X93485Y21620D01*
X93463Y21675D01*
X93433Y21723D01*
X93400Y21771D01*
X93363Y21816D01*
X93360Y21819D01*
X93352Y21827D01*
X93341Y21838D01*
X93326Y21853D01*
X93304Y21868D01*
X93282Y21886D01*
X93252Y21908D01*
X93219Y21930D01*
X93145Y21971D01*
X93060Y22008D01*
X93012Y22019D01*
X92960Y22030D01*
X92908Y22038D01*
X92853Y22041D01*
D02*
G37*
G36*
X80532D02*
X80502D01*
X80480Y22038D01*
X80450Y22034D01*
X80417Y22030D01*
X80384Y22023D01*
X80343Y22012D01*
X80261Y21982D01*
X80217Y21964D01*
X80173Y21941D01*
X80125Y21916D01*
X80084Y21882D01*
X80040Y21845D01*
X79999Y21805D01*
X79995Y21801D01*
X79991Y21793D01*
X79980Y21779D01*
X79966Y21760D01*
X79951Y21738D01*
X79932Y21708D01*
X79914Y21675D01*
X79895Y21638D01*
X79873Y21594D01*
X79855Y21546D01*
X79840Y21494D01*
X79821Y21438D01*
X79810Y21375D01*
X79799Y21313D01*
X79792Y21242D01*
Y21168D01*
X81264D01*
Y21172D01*
Y21187D01*
X81261Y21209D01*
Y21238D01*
X81257Y21275D01*
X81249Y21316D01*
X81242Y21361D01*
X81231Y21409D01*
X81205Y21512D01*
X81164Y21620D01*
X81142Y21675D01*
X81112Y21723D01*
X81079Y21771D01*
X81042Y21816D01*
X81038Y21819D01*
X81031Y21827D01*
X81020Y21838D01*
X81005Y21853D01*
X80983Y21868D01*
X80961Y21886D01*
X80931Y21908D01*
X80898Y21930D01*
X80824Y21971D01*
X80739Y22008D01*
X80691Y22019D01*
X80639Y22030D01*
X80587Y22038D01*
X80532Y22041D01*
D02*
G37*
G36*
X89453Y13780D02*
X89449D01*
X89445Y13776D01*
X89434Y13772D01*
X89416Y13769D01*
X89397Y13761D01*
X89371Y13754D01*
X89342Y13746D01*
X89305Y13739D01*
X89264Y13728D01*
X89220Y13717D01*
X89172Y13702D01*
X89116Y13691D01*
X89057Y13676D01*
X88994Y13661D01*
X88924Y13643D01*
X88850Y13628D01*
X88846D01*
X88831Y13624D01*
X88813Y13621D01*
X88783Y13613D01*
X88750Y13606D01*
X88713Y13595D01*
X88631Y13573D01*
X88543Y13547D01*
X88454Y13521D01*
X88413Y13502D01*
X88376Y13487D01*
X88343Y13473D01*
X88317Y13458D01*
X88313D01*
X88310Y13450D01*
X88287Y13432D01*
X88258Y13402D01*
X88224Y13362D01*
X88187Y13314D01*
X88158Y13254D01*
X88136Y13184D01*
X88132Y13147D01*
X88128Y13110D01*
Y13106D01*
Y13103D01*
Y13092D01*
X88132Y13077D01*
X88136Y13036D01*
X88147Y12988D01*
X88165Y12932D01*
X88191Y12873D01*
X88228Y12814D01*
X88280Y12755D01*
X88287Y12747D01*
X88310Y12733D01*
X88343Y12707D01*
X88387Y12681D01*
X88443Y12655D01*
X88509Y12629D01*
X88587Y12614D01*
X88672Y12607D01*
X88698D01*
X88717Y12610D01*
X88742D01*
X88768Y12618D01*
X88835Y12629D01*
X88913Y12651D01*
X88998Y12681D01*
X89087Y12725D01*
X89135Y12751D01*
X89179Y12781D01*
X89183D01*
X89186Y12788D01*
X89209Y12803D01*
X89238Y12833D01*
X89275Y12869D01*
X89316Y12918D01*
X89353Y12973D01*
X89386Y13036D01*
X89412Y13103D01*
X89416Y13110D01*
X89420Y13128D01*
X89423Y13143D01*
X89427Y13162D01*
X89431Y13184D01*
X89434Y13210D01*
X89438Y13239D01*
X89442Y13276D01*
Y13314D01*
X89445Y13358D01*
X89449Y13406D01*
X89453Y13462D01*
Y13521D01*
Y13584D01*
Y13780D01*
D02*
G37*
G36*
X71253Y16255D02*
X70564D01*
Y14797D01*
X71227D01*
X71275Y14801D01*
X71330D01*
X71393Y14805D01*
X71456Y14808D01*
X71593Y14816D01*
X71726Y14830D01*
X71789Y14838D01*
X71848Y14849D01*
X71896Y14860D01*
X71941Y14875D01*
X71944D01*
X71952Y14879D01*
X71959Y14882D01*
X71974Y14890D01*
X72011Y14908D01*
X72059Y14938D01*
X72111Y14971D01*
X72166Y15015D01*
X72218Y15067D01*
X72266Y15126D01*
Y15130D01*
X72270Y15134D01*
X72277Y15145D01*
X72285Y15156D01*
X72303Y15193D01*
X72325Y15241D01*
X72348Y15300D01*
X72366Y15367D01*
X72381Y15445D01*
X72385Y15526D01*
Y15530D01*
Y15537D01*
Y15552D01*
X72381Y15574D01*
Y15596D01*
X72377Y15626D01*
X72363Y15689D01*
X72344Y15763D01*
X72314Y15841D01*
X72274Y15918D01*
X72248Y15955D01*
X72218Y15989D01*
Y15992D01*
X72211Y15996D01*
X72189Y16018D01*
X72155Y16048D01*
X72107Y16089D01*
X72044Y16126D01*
X71974Y16162D01*
X71893Y16196D01*
X71804Y16218D01*
X71796D01*
X71782Y16222D01*
X71767Y16225D01*
X71745D01*
X71715Y16229D01*
X71682Y16233D01*
X71641Y16237D01*
X71593Y16240D01*
X71541Y16244D01*
X71482Y16248D01*
X71412D01*
X71338Y16251D01*
X71253Y16255D01*
D02*
G37*
G36*
X93134Y15041D02*
X93101D01*
X93075Y15038D01*
X93046Y15034D01*
X93009Y15027D01*
X92971Y15019D01*
X92927Y15008D01*
X92883Y14993D01*
X92835Y14975D01*
X92787Y14953D01*
X92735Y14923D01*
X92687Y14893D01*
X92638Y14856D01*
X92590Y14812D01*
X92546Y14764D01*
X92542Y14760D01*
X92535Y14753D01*
X92524Y14734D01*
X92509Y14712D01*
X92491Y14683D01*
X92472Y14649D01*
X92450Y14605D01*
X92431Y14557D01*
X92409Y14501D01*
X92387Y14442D01*
X92368Y14372D01*
X92350Y14298D01*
X92335Y14216D01*
X92324Y14128D01*
X92317Y14031D01*
X92313Y13931D01*
Y13924D01*
Y13905D01*
Y13876D01*
X92317Y13839D01*
X92320Y13791D01*
X92324Y13735D01*
X92328Y13676D01*
X92335Y13610D01*
X92357Y13473D01*
X92391Y13332D01*
X92409Y13262D01*
X92435Y13195D01*
X92461Y13136D01*
X92494Y13080D01*
X92498Y13077D01*
X92505Y13066D01*
X92520Y13043D01*
X92542Y13021D01*
X92568Y12992D01*
X92598Y12958D01*
X92635Y12921D01*
X92676Y12888D01*
X92720Y12851D01*
X92772Y12814D01*
X92827Y12781D01*
X92886Y12751D01*
X92953Y12729D01*
X93020Y12710D01*
X93094Y12696D01*
X93171Y12692D01*
X93186D01*
X93205Y12696D01*
X93227D01*
X93253Y12699D01*
X93286Y12707D01*
X93323Y12714D01*
X93364Y12725D01*
X93404Y12740D01*
X93449Y12758D01*
X93497Y12781D01*
X93541Y12810D01*
X93589Y12840D01*
X93638Y12877D01*
X93682Y12921D01*
X93726Y12969D01*
X93730Y12973D01*
X93737Y12984D01*
X93748Y12999D01*
X93763Y13021D01*
X93778Y13051D01*
X93800Y13088D01*
X93819Y13132D01*
X93841Y13184D01*
X93863Y13239D01*
X93882Y13306D01*
X93904Y13376D01*
X93919Y13454D01*
X93933Y13539D01*
X93945Y13635D01*
X93952Y13735D01*
X93956Y13843D01*
Y13846D01*
Y13850D01*
Y13872D01*
Y13902D01*
X93952Y13946D01*
X93948Y13998D01*
X93945Y14057D01*
X93937Y14124D01*
X93926Y14198D01*
X93900Y14346D01*
X93882Y14424D01*
X93856Y14498D01*
X93830Y14571D01*
X93800Y14642D01*
X93763Y14705D01*
X93723Y14760D01*
X93719Y14764D01*
X93712Y14771D01*
X93700Y14786D01*
X93682Y14805D01*
X93660Y14827D01*
X93630Y14849D01*
X93600Y14875D01*
X93563Y14901D01*
X93523Y14927D01*
X93478Y14953D01*
X93430Y14975D01*
X93379Y14997D01*
X93323Y15015D01*
X93264Y15030D01*
X93201Y15038D01*
X93134Y15041D01*
D02*
G37*
%LPD*%
D25*
X26079Y81331D02*
D03*
X35921D02*
D03*
Y72669D02*
D03*
X26079D02*
D03*
D26*
X104500Y31000D02*
D03*
X112500D02*
D03*
X52500Y81500D02*
D03*
X44500D02*
D03*
X14000Y123500D02*
D03*
X6000D02*
D03*
X112500Y96500D02*
D03*
X104500D02*
D03*
X48500Y108500D02*
D03*
X56500D02*
D03*
X104500Y88500D02*
D03*
X112500D02*
D03*
Y72500D02*
D03*
X104500D02*
D03*
X112500Y80500D02*
D03*
X104500D02*
D03*
X52500Y72500D02*
D03*
X44500D02*
D03*
X35000Y64000D02*
D03*
X27000D02*
D03*
D27*
X124500Y19000D02*
D03*
Y30811D02*
D03*
X112000Y123189D02*
D03*
Y135000D02*
D03*
D28*
X99000D02*
D03*
Y127000D02*
D03*
X41500Y90500D02*
D03*
Y98500D02*
D03*
X40000Y131500D02*
D03*
Y123500D02*
D03*
X50000Y98500D02*
D03*
Y90500D02*
D03*
D29*
X49874Y135976D02*
D03*
Y118024D02*
D03*
D30*
X76646Y127000D02*
D03*
D31*
X61945Y92701D02*
D03*
Y89551D02*
D03*
Y86402D02*
D03*
Y83252D02*
D03*
Y80102D02*
D03*
Y76953D02*
D03*
Y73803D02*
D03*
Y70653D02*
D03*
X95410D02*
D03*
Y73803D02*
D03*
Y76953D02*
D03*
Y80102D02*
D03*
Y83252D02*
D03*
Y86402D02*
D03*
Y89551D02*
D03*
Y92701D02*
D03*
D32*
X67654Y64945D02*
D03*
X70803D02*
D03*
X73953D02*
D03*
X77102D02*
D03*
X80252D02*
D03*
X83402D02*
D03*
X86551D02*
D03*
X89701D02*
D03*
Y98409D02*
D03*
X86551D02*
D03*
X83402D02*
D03*
X80252D02*
D03*
X77102D02*
D03*
X73953D02*
D03*
X70803D02*
D03*
X67654D02*
D03*
D33*
X68000Y148500D02*
D03*
X40000Y149000D02*
D03*
X93500Y44000D02*
D03*
X121500Y83000D02*
D03*
X141500Y57000D02*
D03*
Y107000D02*
D03*
X136000Y44000D02*
D03*
X43500Y31500D02*
D03*
D34*
X78000Y148500D02*
D03*
X88000D02*
D03*
X98000D02*
D03*
X108000D02*
D03*
X118000D02*
D03*
X50000Y159000D02*
D03*
Y149000D02*
D03*
X40000Y159000D02*
D03*
X63500Y44000D02*
D03*
X73500D02*
D03*
X83500D02*
D03*
X141500Y93000D02*
D03*
Y83000D02*
D03*
X131500Y93000D02*
D03*
Y83000D02*
D03*
X121500Y93000D02*
D03*
X131500Y57000D02*
D03*
X121500D02*
D03*
X111500D02*
D03*
X101500D02*
D03*
X91500D02*
D03*
X81500D02*
D03*
X71500D02*
D03*
X131500Y107000D02*
D03*
X121500D02*
D03*
X111500D02*
D03*
X101500D02*
D03*
X91500D02*
D03*
X81500D02*
D03*
X71500D02*
D03*
X106000Y44000D02*
D03*
X116000D02*
D03*
X126000D02*
D03*
X53500Y31500D02*
D03*
X63500D02*
D03*
X73500D02*
D03*
X83500D02*
D03*
X93500D02*
D03*
X153500Y96000D02*
D03*
Y86000D02*
D03*
Y76000D02*
D03*
Y66000D02*
D03*
Y56000D02*
D03*
X14000Y53500D02*
D03*
Y63500D02*
D03*
Y73500D02*
D03*
Y83500D02*
D03*
Y93500D02*
D03*
Y103500D02*
D03*
Y113500D02*
D03*
D35*
X153500Y106000D02*
D03*
X14000Y43500D02*
D03*
D36*
X41000Y64000D02*
D03*
X115500Y19000D02*
D03*
X99500Y115000D02*
D03*
X87000Y77000D02*
D03*
X85500Y85500D02*
D03*
X140500Y128000D02*
D03*
X83500Y71615D02*
D03*
X45750Y90500D02*
D03*
X100000Y63500D02*
D03*
X98000Y66500D02*
D03*
X86000Y73500D02*
D03*
X36000Y97500D02*
D03*
X55500Y98500D02*
D03*
X118000Y72500D02*
D03*
X100500Y86375D02*
D03*
X113000Y117500D02*
D03*
X14500Y129500D02*
D03*
X86000Y94000D02*
D03*
X80000Y92000D02*
D03*
X83500Y91500D02*
D03*
X3500Y130000D02*
D03*
X100500Y90000D02*
D03*
X106500Y142000D02*
D03*
X68000Y93500D02*
D03*
X64500Y107000D02*
D03*
X67447Y113947D02*
D03*
X68000Y70000D02*
D03*
X75500Y115500D02*
D03*
X100500Y77000D02*
D03*
X62000Y101000D02*
D03*
X74000Y70000D02*
D03*
D37*
X143110Y143110D02*
D03*
Y22244D02*
D03*
X22244D02*
D03*
Y143110D02*
D03*
M02*
