G04*
G04 #@! TF.GenerationSoftware,Altium Limited,Altium Designer,19.1.8 (144)*
G04*
G04 Layer_Physical_Order=1*
G04 Layer_Color=128*
%FSLAX25Y25*%
%MOIN*%
G70*
G01*
G75*
%ADD16C,0.01000*%
%ADD17R,0.06299X0.05512*%
%ADD18R,0.04000X0.06000*%
%ADD19R,0.10236X0.05906*%
%ADD20R,0.06000X0.04000*%
%ADD21R,0.08268X0.03937*%
%ADD22R,0.23032X0.19291*%
%ADD23R,0.05906X0.02362*%
%ADD24R,0.02362X0.05906*%
%ADD38C,0.03000*%
%ADD39C,0.01500*%
%ADD40C,0.02000*%
%ADD41R,0.05906X0.05906*%
%ADD42C,0.05906*%
%ADD43R,0.05906X0.05906*%
%ADD44C,0.01968*%
%ADD45C,0.11811*%
G36*
X59050Y155050D02*
X55142Y151141D01*
X54356D01*
X54339Y151149D01*
X53744Y151171D01*
X53507Y151195D01*
X53290Y151229D01*
X53101Y151271D01*
X52940Y151319D01*
X52808Y151371D01*
X52705Y151424D01*
X52628Y151475D01*
X52538Y151554D01*
X52483Y151573D01*
X51792Y152103D01*
X50927Y152461D01*
X50000Y152583D01*
X49073Y152461D01*
X48208Y152103D01*
X47466Y151534D01*
X46897Y150792D01*
X46539Y149927D01*
X46417Y149000D01*
X46539Y148073D01*
X46897Y147208D01*
X47427Y146517D01*
X47446Y146462D01*
X47525Y146372D01*
X47576Y146295D01*
X47629Y146192D01*
X47681Y146060D01*
X47729Y145899D01*
X47771Y145710D01*
X47804Y145501D01*
X47845Y144973D01*
X47851Y144673D01*
X47859Y144655D01*
Y140968D01*
X47851Y140950D01*
X47836Y140398D01*
X47795Y139930D01*
X47730Y139534D01*
X47643Y139213D01*
X47543Y138967D01*
X47439Y138796D01*
X47340Y138689D01*
X47246Y138626D01*
X47140Y138589D01*
X46932Y138567D01*
X46892Y138545D01*
X45140D01*
Y137149D01*
X44508D01*
X43688Y136986D01*
X42994Y136522D01*
X42557Y136085D01*
X42538Y136077D01*
X41604Y135180D01*
X40857Y134539D01*
X40568Y134323D01*
X40333Y134172D01*
X40190Y134100D01*
X40039D01*
X39948Y134137D01*
X39860Y134101D01*
X39764Y134111D01*
X39751Y134100D01*
X36400D01*
Y128900D01*
X43600D01*
Y130251D01*
X43611Y130264D01*
X43601Y130359D01*
X43637Y130448D01*
X43600Y130539D01*
Y130690D01*
X43672Y130833D01*
X43811Y131049D01*
X45102Y132554D01*
X45410Y132867D01*
X48906D01*
X49725Y133030D01*
X50291Y133408D01*
X51725D01*
X51773Y133378D01*
X51825Y133391D01*
X51875Y133370D01*
X51965Y133408D01*
X52432D01*
X52545Y133343D01*
X52741Y133207D01*
X53253Y132774D01*
X53545Y132492D01*
X53598Y132471D01*
X56624Y129446D01*
Y118070D01*
X55070Y116516D01*
X54608Y116708D01*
Y120592D01*
X49612D01*
X49406Y120633D01*
X47282D01*
X47144Y120713D01*
X46696Y121028D01*
X45597Y121963D01*
X45324Y122227D01*
X45187Y122371D01*
X44848Y122762D01*
X44553Y123143D01*
X44301Y123513D01*
X44092Y123872D01*
X43924Y124219D01*
X43797Y124554D01*
X43708Y124876D01*
X43656Y125187D01*
X43636Y125525D01*
X43600Y125600D01*
Y126100D01*
X43091D01*
X43009Y126137D01*
X42980Y126126D01*
X42951Y126136D01*
X42876Y126100D01*
X39707D01*
X39500Y126141D01*
X36318D01*
X35641Y126145D01*
X34641Y127144D01*
Y140613D01*
X37484Y143456D01*
X37501Y143462D01*
X38671Y144549D01*
X39166Y144945D01*
X39613Y145255D01*
X39949Y145447D01*
X41212D01*
X41302Y145410D01*
X41351Y145430D01*
X41403Y145418D01*
X41451Y145447D01*
X43553D01*
Y152553D01*
X36447D01*
Y150451D01*
X36418Y150403D01*
X36430Y150351D01*
X36410Y150302D01*
X36447Y150212D01*
Y148949D01*
X36255Y148613D01*
X35950Y148174D01*
X35050Y147110D01*
X34471Y146510D01*
X34463Y146491D01*
X30986Y143014D01*
X30522Y142319D01*
X30359Y141500D01*
Y126257D01*
X30522Y125438D01*
X30986Y124743D01*
X33243Y122486D01*
X33938Y122022D01*
X34685Y121873D01*
X34733Y121851D01*
X35525Y121822D01*
X35819Y121789D01*
X36064Y121745D01*
X36248Y121695D01*
X36365Y121647D01*
X36389Y121633D01*
X36400Y121614D01*
Y120900D01*
X38585D01*
X38625Y120874D01*
X38676Y120885D01*
X38724Y120863D01*
X38823Y120900D01*
X40086D01*
X40451Y120691D01*
X40889Y120388D01*
X41943Y119496D01*
X42295Y119157D01*
X44124Y117247D01*
X44736Y116528D01*
X44934Y116265D01*
X45061Y116071D01*
X45105Y115984D01*
X45119Y115921D01*
X45140Y115892D01*
Y115455D01*
X45717D01*
X45835Y115423D01*
X45865Y115440D01*
X45898Y115434D01*
X45927Y115455D01*
X53355D01*
X53547Y114993D01*
X52930Y114376D01*
X52000D01*
X52000Y114376D01*
X51473Y114272D01*
X51027Y113973D01*
X50097Y113043D01*
X50046Y113025D01*
X49470Y112489D01*
X49240Y112306D01*
X49038Y112165D01*
X48924Y112100D01*
X48457D01*
X48367Y112137D01*
X48317Y112117D01*
X48265Y112129D01*
X48217Y112100D01*
X45900D01*
Y104900D01*
X46891D01*
X46931Y104878D01*
X46968Y104874D01*
X46980Y104854D01*
X47013Y104773D01*
X47047Y104646D01*
X47075Y104475D01*
X47094Y104262D01*
X47101Y103995D01*
X47124Y103944D01*
Y102056D01*
X47101Y102005D01*
X47094Y101740D01*
X47076Y101529D01*
X47048Y101359D01*
X47014Y101233D01*
X46982Y101153D01*
X46972Y101137D01*
X46943Y101134D01*
X46881Y101100D01*
X46400D01*
Y100580D01*
X46363Y100491D01*
X46366Y100482D01*
X46351Y100385D01*
X46160Y99957D01*
X46146Y99953D01*
X45975Y99925D01*
X45762Y99906D01*
X45751Y99906D01*
X45740Y99906D01*
X45530Y99925D01*
X45361Y99953D01*
X45236Y99986D01*
X45157Y100019D01*
X45138Y100031D01*
X45134Y100068D01*
X45100Y100130D01*
Y101100D01*
X37900D01*
Y99200D01*
X37879Y99161D01*
X37874Y99123D01*
X37852Y99109D01*
X37771Y99077D01*
X37644Y99043D01*
X37474Y99014D01*
X37262Y98996D01*
X36995Y98989D01*
X36944Y98966D01*
X36657D01*
X36618Y98992D01*
X36000Y99115D01*
X35382Y98992D01*
X34858Y98642D01*
X34508Y98118D01*
X34385Y97500D01*
X34508Y96882D01*
X34858Y96358D01*
X35382Y96008D01*
X36000Y95885D01*
X36618Y96008D01*
X36926Y96213D01*
X36951D01*
X37005Y96190D01*
X37276Y96187D01*
X37721Y96163D01*
X37877Y96144D01*
X37900Y96140D01*
Y95900D01*
X38420D01*
X38509Y95863D01*
X38584Y95893D01*
X38664Y95881D01*
X38691Y95900D01*
X45100D01*
Y96870D01*
X45134Y96932D01*
X45138Y96969D01*
X45157Y96981D01*
X45236Y97013D01*
X45361Y97047D01*
X45530Y97075D01*
X45740Y97094D01*
X45751Y97094D01*
X45762Y97094D01*
X45975Y97075D01*
X46146Y97047D01*
X46273Y97013D01*
X46354Y96980D01*
X46374Y96968D01*
X46378Y96931D01*
X46400Y96891D01*
Y95900D01*
X53600D01*
Y96872D01*
X53937Y97013D01*
X54100Y97049D01*
X54726Y96631D01*
X55000Y96576D01*
Y98500D01*
X55500D01*
Y99000D01*
X57424D01*
X57369Y99274D01*
X56966Y99877D01*
Y103944D01*
X56989Y103995D01*
X56996Y104262D01*
X57014Y104474D01*
X57019Y104500D01*
X59500D01*
Y108000D01*
X56500D01*
X53500D01*
Y104500D01*
X54170D01*
X54187Y104270D01*
X54190Y104005D01*
X54213Y103951D01*
Y100435D01*
X54146Y100326D01*
X54100Y100300D01*
X53600Y100591D01*
Y101100D01*
X50110D01*
X50071Y101122D01*
X50033Y101126D01*
X50020Y101148D01*
X49987Y101229D01*
X49953Y101355D01*
X49925Y101526D01*
X49906Y101738D01*
X49899Y102005D01*
X49876Y102056D01*
Y103944D01*
X49899Y103995D01*
X49906Y104262D01*
X49925Y104475D01*
X49953Y104646D01*
X49987Y104773D01*
X50020Y104854D01*
X50032Y104874D01*
X50068Y104878D01*
X50109Y104900D01*
X51100D01*
Y109217D01*
X51130Y109265D01*
X51117Y109317D01*
X51137Y109367D01*
X51100Y109457D01*
Y109924D01*
X51165Y110038D01*
X51301Y110233D01*
X51734Y110745D01*
X52016Y111037D01*
X52037Y111090D01*
X52570Y111624D01*
X53500D01*
Y109000D01*
X56000D01*
Y112500D01*
X55600D01*
X55409Y112962D01*
X58973Y116527D01*
X59272Y116973D01*
X59376Y117500D01*
Y130016D01*
X59272Y130543D01*
X58973Y130989D01*
X58973Y130989D01*
X55551Y134411D01*
X55532Y134462D01*
X54997Y135038D01*
X54813Y135268D01*
X54673Y135470D01*
X54608Y135584D01*
Y136051D01*
X54645Y136141D01*
X54625Y136191D01*
X54637Y136242D01*
X54608Y136291D01*
Y138545D01*
X53108D01*
X53068Y138567D01*
X52860Y138589D01*
X52754Y138626D01*
X52660Y138689D01*
X52561Y138796D01*
X52457Y138967D01*
X52357Y139213D01*
X52271Y139534D01*
X52205Y139930D01*
X52164Y140398D01*
X52149Y140950D01*
X52141Y140968D01*
Y144644D01*
X52149Y144661D01*
X52171Y145256D01*
X52195Y145493D01*
X52229Y145710D01*
X52271Y145899D01*
X52319Y146060D01*
X52371Y146192D01*
X52424Y146295D01*
X52475Y146372D01*
X52547Y146453D01*
X52628Y146525D01*
X52705Y146576D01*
X52808Y146630D01*
X52940Y146681D01*
X53101Y146729D01*
X53290Y146771D01*
X53499Y146803D01*
X54027Y146845D01*
X54327Y146851D01*
X54345Y146859D01*
X56028D01*
X56848Y147022D01*
X57542Y147486D01*
X64415Y154359D01*
X71308D01*
X71318Y154353D01*
X71336Y154359D01*
X71338D01*
X71355Y154351D01*
X71922Y154331D01*
X72447Y154272D01*
X72952Y154176D01*
X73440Y154042D01*
X73910Y153869D01*
X74365Y153658D01*
X74805Y153409D01*
X75230Y153119D01*
X75642Y152790D01*
X75842Y152604D01*
X75829Y152244D01*
X75805Y152007D01*
X75771Y151790D01*
X75729Y151601D01*
X75681Y151440D01*
X75630Y151308D01*
X75577Y151205D01*
X75525Y151128D01*
X75446Y151038D01*
X75427Y150983D01*
X74897Y150292D01*
X74539Y149427D01*
X74417Y148500D01*
X74539Y147573D01*
X74897Y146708D01*
X75466Y145966D01*
X76208Y145397D01*
X77073Y145039D01*
X78000Y144917D01*
X78927Y145039D01*
X79792Y145397D01*
X80534Y145966D01*
X81103Y146708D01*
X81461Y147573D01*
X81583Y148500D01*
X81461Y149427D01*
X81103Y150292D01*
X80573Y150983D01*
X80554Y151038D01*
X80475Y151128D01*
X80423Y151205D01*
X80370Y151308D01*
X80319Y151440D01*
X80271Y151601D01*
X80229Y151790D01*
X80196Y151999D01*
X80155Y152527D01*
X80149Y152827D01*
X80141Y152845D01*
Y153500D01*
X80057Y153921D01*
X80361Y154318D01*
X80586Y154333D01*
X81632Y154351D01*
X81651Y154359D01*
X117113D01*
X119045Y152427D01*
X118785Y151980D01*
X118000Y152083D01*
X117073Y151961D01*
X116208Y151603D01*
X115466Y151034D01*
X114897Y150292D01*
X114539Y149427D01*
X114417Y148500D01*
X114539Y147573D01*
X114897Y146708D01*
X115466Y145966D01*
X116208Y145397D01*
X117073Y145039D01*
X118000Y144917D01*
X118927Y145039D01*
X119792Y145397D01*
X120534Y145966D01*
X121103Y146708D01*
X121461Y147573D01*
X121583Y148500D01*
X121480Y149285D01*
X121927Y149545D01*
X141048Y130424D01*
X141000Y130334D01*
Y128500D01*
X142834D01*
X142924Y128548D01*
X155512Y115960D01*
Y109553D01*
X152105D01*
X152077Y109570D01*
X152024Y109557D01*
X151973Y109578D01*
X151912Y109553D01*
X151675D01*
X151647Y109569D01*
X151532Y109650D01*
X151202Y109930D01*
X151011Y110115D01*
X150946Y110141D01*
X147377Y113709D01*
X147013Y113952D01*
X146584Y114037D01*
X146584Y114037D01*
X101799D01*
X101459Y114500D01*
X97541D01*
X97201Y114037D01*
X80916D01*
X80487Y113952D01*
X80123Y113709D01*
X80123Y113709D01*
X77136Y110722D01*
X76674Y110914D01*
Y114020D01*
X76702Y114084D01*
X76704Y114173D01*
X76714Y114324D01*
X76721Y114368D01*
X76728Y114407D01*
X76735Y114432D01*
X76739Y114441D01*
X76749Y114458D01*
X76750Y114466D01*
X76753Y114472D01*
X76753Y114488D01*
X76756Y114508D01*
X76766Y114544D01*
X76992Y114882D01*
X77115Y115500D01*
X77045Y115854D01*
X77390Y116354D01*
X89161D01*
Y125571D01*
X89186Y125575D01*
X89399Y125594D01*
X89666Y125601D01*
X89718Y125624D01*
X94444D01*
X94495Y125601D01*
X94760Y125594D01*
X94970Y125575D01*
X95000Y125570D01*
Y124000D01*
X98071D01*
X98075Y123975D01*
X98094Y123762D01*
X98101Y123495D01*
X98124Y123444D01*
Y116467D01*
X98069Y116431D01*
X97631Y115774D01*
X97576Y115500D01*
X101424D01*
X101369Y115774D01*
X100931Y116431D01*
X100876Y116467D01*
Y123444D01*
X100899Y123495D01*
X100906Y123762D01*
X100925Y123975D01*
X100929Y124000D01*
X103000D01*
Y126481D01*
X103026Y126486D01*
X103238Y126504D01*
X103505Y126511D01*
X103556Y126534D01*
X106282D01*
Y119636D01*
X110139D01*
X110177Y119615D01*
X110331Y119597D01*
X110385Y119576D01*
X110441Y119535D01*
X110513Y119449D01*
X110596Y119299D01*
X110678Y119076D01*
X110750Y118782D01*
X110804Y118419D01*
X110839Y117991D01*
X110851Y117484D01*
X110871Y117439D01*
X111022Y116681D01*
X111486Y115986D01*
X112181Y115522D01*
X113000Y115359D01*
X113819Y115522D01*
X114514Y115986D01*
X114978Y116681D01*
X115129Y117439D01*
X115149Y117484D01*
X115161Y117991D01*
X115196Y118419D01*
X115250Y118782D01*
X115322Y119076D01*
X115404Y119299D01*
X115487Y119449D01*
X115559Y119535D01*
X115615Y119576D01*
X115669Y119597D01*
X115823Y119615D01*
X115861Y119636D01*
X117718D01*
Y126534D01*
X139123D01*
X139726Y126131D01*
X140000Y126076D01*
Y128000D01*
Y129924D01*
X139726Y129869D01*
X139069Y129431D01*
X138973Y129287D01*
X103549D01*
X103496Y129310D01*
X103224Y129313D01*
X103000Y129325D01*
Y130000D01*
X99500D01*
Y127000D01*
X98500D01*
Y130000D01*
X95000D01*
Y128430D01*
X94970Y128425D01*
X94760Y128406D01*
X94495Y128399D01*
X94444Y128376D01*
X89718D01*
X89666Y128399D01*
X89399Y128406D01*
X89187Y128425D01*
X89161Y128429D01*
Y137646D01*
X77146D01*
Y127000D01*
X76646D01*
Y126500D01*
X64130D01*
Y119172D01*
X63861Y118850D01*
X63613Y118592D01*
X63596Y118549D01*
X63557Y118525D01*
X63550Y118497D01*
X58097Y113043D01*
X58046Y113025D01*
X57481Y112500D01*
X57000D01*
Y111420D01*
X57162Y111488D01*
X57385Y111615D01*
X57629Y111785D01*
X57894Y111997D01*
X58488Y112549D01*
X59549Y111488D01*
X59252Y111180D01*
X58785Y110629D01*
X58615Y110385D01*
X58488Y110162D01*
X58403Y109961D01*
X58361Y109780D01*
Y109621D01*
X58403Y109483D01*
X58488Y109367D01*
X57000Y110855D01*
Y109000D01*
X59500D01*
Y110468D01*
X59734Y110745D01*
X60016Y111037D01*
X60037Y111090D01*
X64759Y115812D01*
X64810Y115832D01*
X65369Y116354D01*
X73610D01*
X73955Y115854D01*
X73885Y115500D01*
X74008Y114882D01*
X74356Y114361D01*
X74356Y114357D01*
X74363Y114345D01*
X74365Y114337D01*
X74372Y114328D01*
X74376Y114314D01*
X74383Y114284D01*
X74390Y114247D01*
X74402Y114105D01*
X74403Y114020D01*
X74410Y114006D01*
X74405Y113992D01*
X74431Y113938D01*
Y109769D01*
X73931Y109613D01*
X73292Y110103D01*
X72427Y110461D01*
X71500Y110583D01*
X70573Y110461D01*
X69708Y110103D01*
X69069Y109613D01*
X68569Y109769D01*
Y112425D01*
X68596Y112485D01*
X68603Y112669D01*
X68608Y112723D01*
X68616Y112770D01*
X68624Y112805D01*
X68630Y112826D01*
X68631Y112829D01*
X68640Y112842D01*
X68642Y112851D01*
X68646Y112859D01*
X68648Y112882D01*
X68650Y112893D01*
X68652Y112899D01*
X68940Y113329D01*
X69063Y113947D01*
X68940Y114565D01*
X68589Y115089D01*
X68065Y115440D01*
X67447Y115562D01*
X66829Y115440D01*
X66305Y115089D01*
X65955Y114565D01*
X65832Y113947D01*
X65955Y113329D01*
X66242Y112899D01*
X66244Y112893D01*
X66246Y112882D01*
X66248Y112859D01*
X66253Y112851D01*
X66255Y112842D01*
X66264Y112829D01*
X66265Y112826D01*
X66271Y112805D01*
X66278Y112770D01*
X66285Y112730D01*
X66296Y112584D01*
X66298Y112497D01*
X66326Y112434D01*
Y108019D01*
X65826Y107868D01*
X65642Y108142D01*
X65118Y108492D01*
X64500Y108615D01*
X63882Y108492D01*
X63358Y108142D01*
X63008Y107618D01*
X62885Y107000D01*
X63008Y106382D01*
X63295Y105951D01*
X63297Y105946D01*
X63299Y105935D01*
X63301Y105912D01*
X63306Y105903D01*
X63307Y105895D01*
X63316Y105882D01*
X63317Y105879D01*
X63324Y105858D01*
X63331Y105823D01*
X63337Y105783D01*
X63349Y105637D01*
X63351Y105550D01*
X63378Y105486D01*
Y103335D01*
X63378Y103335D01*
X63464Y102905D01*
X63707Y102542D01*
X65279Y100970D01*
X65302Y100908D01*
X65656Y100527D01*
X65771Y100385D01*
X65857Y100262D01*
X65873Y100235D01*
Y99997D01*
X65847Y99936D01*
X65868Y99886D01*
X65855Y99832D01*
X65873Y99805D01*
Y94857D01*
X66400D01*
X66667Y94357D01*
X66508Y94118D01*
X66385Y93500D01*
X66508Y92882D01*
X66795Y92452D01*
X66797Y92446D01*
X66799Y92435D01*
X66801Y92412D01*
X66806Y92404D01*
X66807Y92395D01*
X66816Y92382D01*
X66817Y92379D01*
X66824Y92358D01*
X66831Y92323D01*
X66838Y92283D01*
X66849Y92137D01*
X66851Y92050D01*
X66878Y91986D01*
Y91230D01*
X66321Y90673D01*
X65965D01*
X65903Y90700D01*
X65730Y90705D01*
X65602Y90716D01*
X65506Y90732D01*
X65498Y90734D01*
Y94482D01*
X63183D01*
X63181Y94490D01*
X63165Y94587D01*
X63154Y94714D01*
X63149Y94887D01*
X63122Y94949D01*
Y99478D01*
X63149Y99538D01*
X63156Y99722D01*
X63161Y99775D01*
X63169Y99823D01*
X63176Y99858D01*
X63183Y99879D01*
X63184Y99882D01*
X63193Y99895D01*
X63194Y99904D01*
X63199Y99912D01*
X63201Y99935D01*
X63203Y99946D01*
X63205Y99951D01*
X63492Y100382D01*
X63615Y101000D01*
X63492Y101618D01*
X63142Y102142D01*
X62618Y102492D01*
X62000Y102615D01*
X61382Y102492D01*
X60858Y102142D01*
X60508Y101618D01*
X60385Y101000D01*
X60508Y100382D01*
X60795Y99951D01*
X60797Y99946D01*
X60799Y99935D01*
X60801Y99912D01*
X60806Y99904D01*
X60807Y99895D01*
X60816Y99882D01*
X60817Y99879D01*
X60824Y99858D01*
X60831Y99823D01*
X60838Y99783D01*
X60849Y99637D01*
X60851Y99550D01*
X60878Y99486D01*
Y94949D01*
X60851Y94887D01*
X60846Y94714D01*
X60835Y94587D01*
X60819Y94490D01*
X60817Y94482D01*
X58392D01*
Y90827D01*
X57892Y90750D01*
X53849Y94793D01*
X53485Y95036D01*
X53056Y95122D01*
X53056Y95122D01*
X25500D01*
X25500Y95122D01*
X25071Y95036D01*
X24707Y94793D01*
X24707Y94793D01*
X18036Y88122D01*
X17793Y87758D01*
X17707Y87329D01*
X17707Y87329D01*
Y85140D01*
X17207Y85041D01*
X17103Y85292D01*
X16534Y86034D01*
X15792Y86603D01*
X14927Y86961D01*
X14000Y87083D01*
X13073Y86961D01*
X12208Y86603D01*
X11466Y86034D01*
X10897Y85292D01*
X10539Y84427D01*
X10417Y83500D01*
X10539Y82573D01*
X10897Y81708D01*
X11466Y80966D01*
X12208Y80397D01*
X13073Y80039D01*
X14000Y79917D01*
X14927Y80039D01*
X15792Y80397D01*
X16534Y80966D01*
X17103Y81708D01*
X17207Y81959D01*
X17707Y81860D01*
Y78793D01*
X16588Y77674D01*
X16533Y77656D01*
X16405Y77545D01*
X16283Y77466D01*
X16126Y77388D01*
X15933Y77316D01*
X15704Y77251D01*
X15439Y77196D01*
X15146Y77154D01*
X14429Y77105D01*
X14025Y77102D01*
X13972Y77080D01*
X13073Y76961D01*
X12208Y76603D01*
X11466Y76034D01*
X10897Y75292D01*
X10539Y74427D01*
X10417Y73500D01*
X10539Y72573D01*
X10897Y71708D01*
X11466Y70966D01*
X12208Y70397D01*
X13073Y70039D01*
X14000Y69917D01*
X14927Y70039D01*
X15792Y70397D01*
X16534Y70966D01*
X17103Y71708D01*
X17461Y72573D01*
X17580Y73472D01*
X17602Y73525D01*
X17605Y73929D01*
X17654Y74646D01*
X17696Y74939D01*
X17751Y75204D01*
X17816Y75433D01*
X17888Y75626D01*
X17966Y75783D01*
X18045Y75905D01*
X18156Y76033D01*
X18174Y76088D01*
X19622Y77536D01*
X19865Y77899D01*
X19950Y78329D01*
X19950Y78329D01*
Y86864D01*
X25965Y92878D01*
X37500D01*
Y91929D01*
X37475Y91925D01*
X37262Y91906D01*
X36995Y91899D01*
X36944Y91876D01*
X28879D01*
X28352Y91772D01*
X27905Y91473D01*
X27905Y91473D01*
X25105Y88673D01*
X24807Y88227D01*
X24702Y87700D01*
Y85643D01*
X24679Y85592D01*
X24672Y85324D01*
X24654Y85112D01*
X24650Y85087D01*
X21929D01*
Y81831D01*
X30228D01*
Y85087D01*
X27508D01*
X27504Y85112D01*
X27485Y85324D01*
X27478Y85592D01*
X27455Y85643D01*
Y87130D01*
X29449Y89124D01*
X36944D01*
X36995Y89101D01*
X37262Y89094D01*
X37475Y89075D01*
X37500Y89071D01*
Y87500D01*
X41000D01*
Y90500D01*
X42000D01*
Y87500D01*
X45500D01*
Y87741D01*
X45750Y87888D01*
X46000Y87741D01*
Y87500D01*
X49500D01*
Y90500D01*
X50500D01*
Y87500D01*
X54000D01*
X54366Y87177D01*
Y85257D01*
X54237Y85100D01*
X49900D01*
Y77900D01*
X50891D01*
X50932Y77878D01*
X50968Y77874D01*
X50980Y77854D01*
X51013Y77773D01*
X51047Y77646D01*
X51075Y77475D01*
X51094Y77262D01*
X51101Y77000D01*
X51094Y76738D01*
X51075Y76525D01*
X51047Y76354D01*
X51013Y76227D01*
X50980Y76146D01*
X50968Y76126D01*
X50932Y76122D01*
X50891Y76100D01*
X49900D01*
Y68900D01*
X55100D01*
Y72195D01*
X55122Y72235D01*
X55126Y72271D01*
X55146Y72283D01*
X55227Y72316D01*
X55354Y72350D01*
X55525Y72378D01*
X55738Y72397D01*
X56005Y72404D01*
X56056Y72427D01*
X57434D01*
X57484Y72404D01*
X58004Y72388D01*
X58191Y72370D01*
X58343Y72347D01*
X58392Y72336D01*
Y68872D01*
X65498D01*
Y72022D01*
Y74772D01*
X65898D01*
Y75533D01*
X66128Y75550D01*
X66395Y75553D01*
X66448Y75576D01*
X80893D01*
X82890Y73580D01*
X82746Y73017D01*
X82358Y72758D01*
X82008Y72233D01*
X81885Y71615D01*
X82008Y70997D01*
X82295Y70567D01*
X82297Y70562D01*
X82299Y70550D01*
X82301Y70527D01*
X82306Y70519D01*
X82307Y70510D01*
X82316Y70497D01*
X82317Y70494D01*
X82324Y70473D01*
X82331Y70439D01*
X82337Y70398D01*
X82349Y70252D01*
X82351Y70165D01*
X82378Y70102D01*
Y68965D01*
X82351Y68902D01*
X82346Y68730D01*
X82335Y68602D01*
X82319Y68506D01*
X82317Y68498D01*
X75545D01*
X75542Y68500D01*
X75431Y68571D01*
X75423Y68577D01*
X75327Y68707D01*
X75236Y68998D01*
X75492Y69382D01*
X75615Y70000D01*
X75492Y70618D01*
X75142Y71142D01*
X74618Y71492D01*
X74000Y71615D01*
X73382Y71492D01*
X72858Y71142D01*
X72508Y70618D01*
X72385Y70000D01*
X72508Y69382D01*
X72766Y68995D01*
X72773Y68973D01*
X72768Y68933D01*
X72756Y68894D01*
X72694Y68759D01*
X72661Y68712D01*
X72605Y68643D01*
X72412Y68498D01*
X69457D01*
X69416Y68545D01*
X69236Y68998D01*
X69492Y69382D01*
X69615Y70000D01*
X69492Y70618D01*
X69142Y71142D01*
X68618Y71492D01*
X68000Y71615D01*
X67382Y71492D01*
X66858Y71142D01*
X66508Y70618D01*
X66385Y70000D01*
X66508Y69382D01*
X66626Y69204D01*
X66630Y69178D01*
X66632Y69143D01*
X66631Y69139D01*
X66632Y69136D01*
X66632Y69135D01*
X66632Y69127D01*
X66632Y69124D01*
X66633Y69117D01*
X66640Y69102D01*
X66656Y69033D01*
X66660Y69006D01*
X66661Y68990D01*
X66307Y68498D01*
X65873D01*
Y62600D01*
X65851Y62492D01*
X65851Y62492D01*
Y62049D01*
X65835Y62012D01*
X65823Y61012D01*
X65825Y61008D01*
X65823Y61004D01*
X65848Y60945D01*
X59124Y54222D01*
X26192D01*
X18605Y61809D01*
X18587Y61863D01*
X18512Y61950D01*
X18441Y62056D01*
X18364Y62191D01*
X17578Y64155D01*
X17425Y64615D01*
X17424Y64616D01*
X17425Y64617D01*
X17345Y64709D01*
X17103Y65292D01*
X16534Y66034D01*
X15792Y66603D01*
X14927Y66961D01*
X14000Y67083D01*
X13073Y66961D01*
X12208Y66603D01*
X11466Y66034D01*
X10897Y65292D01*
X10539Y64427D01*
X10417Y63500D01*
X10539Y62573D01*
X10897Y61708D01*
X11466Y60966D01*
X12208Y60397D01*
X13073Y60039D01*
X14000Y59917D01*
X14927Y60039D01*
X15071Y60098D01*
X15161Y60090D01*
X15494Y60195D01*
X15784Y60266D01*
X16046Y60309D01*
X16280Y60327D01*
X16485Y60322D01*
X16662Y60296D01*
X16814Y60254D01*
X16945Y60197D01*
X17061Y60124D01*
X17203Y60001D01*
X17258Y59983D01*
X24158Y53083D01*
X23967Y52622D01*
X17962D01*
X17533Y53119D01*
X17583Y53500D01*
X17461Y54427D01*
X17103Y55292D01*
X16534Y56034D01*
X15792Y56603D01*
X14927Y56961D01*
X14000Y57083D01*
X13073Y56961D01*
X12208Y56603D01*
X11466Y56034D01*
X10897Y55292D01*
X10539Y54427D01*
X10417Y53500D01*
X10539Y52573D01*
X10897Y51708D01*
X11466Y50966D01*
X12208Y50397D01*
X13073Y50039D01*
X14000Y49917D01*
X14927Y50039D01*
X15792Y50397D01*
X16180Y50694D01*
X16199Y50675D01*
X16328Y50626D01*
X16571Y50464D01*
X17000Y50378D01*
X17000Y50378D01*
X51139D01*
X51330Y49916D01*
X42707Y41293D01*
X42464Y40929D01*
X42378Y40500D01*
X42378Y40500D01*
Y35520D01*
X42351Y35458D01*
X42346Y35285D01*
X42335Y35157D01*
X42319Y35061D01*
X42317Y35053D01*
X39947D01*
Y27947D01*
X47053D01*
Y35053D01*
X44683D01*
X44681Y35061D01*
X44665Y35157D01*
X44654Y35285D01*
X44649Y35458D01*
X44622Y35520D01*
Y40035D01*
X53117Y48531D01*
X59792D01*
X59983Y48069D01*
X53207Y41293D01*
X52964Y40929D01*
X52878Y40500D01*
X52878Y40500D01*
Y36365D01*
X52860Y36336D01*
X52868Y36303D01*
X52852Y36272D01*
X52839Y36092D01*
X52808Y35953D01*
X52753Y35803D01*
X52670Y35641D01*
X52555Y35467D01*
X52406Y35281D01*
X52221Y35086D01*
X52000Y34884D01*
X51743Y34676D01*
X51438Y34453D01*
X51372Y34345D01*
X50966Y34034D01*
X50397Y33292D01*
X50039Y32427D01*
X49917Y31500D01*
X50039Y30573D01*
X50397Y29708D01*
X50966Y28966D01*
X51708Y28397D01*
X52573Y28039D01*
X53500Y27917D01*
X54427Y28039D01*
X55292Y28397D01*
X56034Y28966D01*
X56603Y29708D01*
X56961Y30573D01*
X57083Y31500D01*
X56961Y32427D01*
X56603Y33292D01*
X56452Y33489D01*
X56429Y33596D01*
X55936Y34315D01*
X55743Y34623D01*
X55428Y35193D01*
X55321Y35425D01*
X55240Y35634D01*
X55186Y35810D01*
X55159Y35949D01*
X55148Y36098D01*
X55122Y36150D01*
Y40035D01*
X59462Y44376D01*
X59935Y44142D01*
X59917Y44000D01*
X60039Y43073D01*
X60397Y42208D01*
X60966Y41466D01*
X61708Y40897D01*
X62573Y40539D01*
X63500Y40417D01*
X64427Y40539D01*
X65292Y40897D01*
X66034Y41466D01*
X66603Y42208D01*
X66961Y43073D01*
X67083Y44000D01*
X66961Y44927D01*
X66603Y45792D01*
X66113Y46431D01*
X66269Y46931D01*
X70547D01*
X70547Y46931D01*
X70703Y46962D01*
X70911Y46623D01*
X70940Y46499D01*
X70397Y45792D01*
X70039Y44927D01*
X69917Y44000D01*
X70039Y43073D01*
X70397Y42208D01*
X70949Y41489D01*
X70970Y41436D01*
X71254Y41147D01*
X71727Y40606D01*
X71904Y40369D01*
X72053Y40143D01*
X72169Y39935D01*
X72254Y39747D01*
X72310Y39582D01*
X72340Y39439D01*
X72352Y39270D01*
X72378Y39219D01*
Y36281D01*
X72352Y36230D01*
X72340Y36061D01*
X72310Y35918D01*
X72254Y35753D01*
X72169Y35565D01*
X72053Y35357D01*
X71904Y35131D01*
X71727Y34894D01*
X71254Y34353D01*
X70970Y34064D01*
X70949Y34011D01*
X70397Y33292D01*
X70039Y32427D01*
X69917Y31500D01*
X70039Y30573D01*
X70397Y29708D01*
X70966Y28966D01*
X71708Y28397D01*
X72573Y28039D01*
X73500Y27917D01*
X74427Y28039D01*
X75292Y28397D01*
X76034Y28966D01*
X76603Y29708D01*
X76961Y30573D01*
X77083Y31500D01*
X76961Y32427D01*
X76603Y33292D01*
X76051Y34011D01*
X76030Y34064D01*
X75746Y34353D01*
X75273Y34894D01*
X75096Y35131D01*
X74947Y35357D01*
X74831Y35565D01*
X74746Y35753D01*
X74690Y35918D01*
X74660Y36061D01*
X74648Y36230D01*
X74622Y36281D01*
Y39219D01*
X74648Y39270D01*
X74660Y39439D01*
X74690Y39582D01*
X74746Y39747D01*
X74831Y39935D01*
X74947Y40143D01*
X75096Y40369D01*
X75273Y40606D01*
X75746Y41147D01*
X76030Y41436D01*
X76051Y41489D01*
X76603Y42208D01*
X76850Y42804D01*
X76907Y42854D01*
X76910Y42898D01*
X76939Y42931D01*
X77015Y43150D01*
X77089Y43315D01*
X77165Y43448D01*
X77242Y43552D01*
X77317Y43630D01*
X77391Y43687D01*
X77467Y43730D01*
X77551Y43760D01*
X77649Y43780D01*
X77807Y43791D01*
X77926Y43849D01*
X78195Y43902D01*
X78559Y44146D01*
X79608Y45195D01*
X80020Y44939D01*
X80037Y44917D01*
X79917Y44000D01*
X80039Y43073D01*
X80397Y42208D01*
X80949Y41489D01*
X80970Y41436D01*
X81254Y41147D01*
X81727Y40606D01*
X81904Y40369D01*
X82053Y40143D01*
X82169Y39935D01*
X82254Y39747D01*
X82310Y39582D01*
X82340Y39439D01*
X82352Y39270D01*
X82378Y39219D01*
Y36281D01*
X82352Y36230D01*
X82340Y36061D01*
X82310Y35918D01*
X82254Y35753D01*
X82169Y35565D01*
X82053Y35357D01*
X81904Y35131D01*
X81727Y34894D01*
X81254Y34353D01*
X80970Y34064D01*
X80949Y34011D01*
X80397Y33292D01*
X80039Y32427D01*
X79917Y31500D01*
X80039Y30573D01*
X80397Y29708D01*
X80966Y28966D01*
X81708Y28397D01*
X82573Y28039D01*
X83500Y27917D01*
X84427Y28039D01*
X85292Y28397D01*
X86034Y28966D01*
X86603Y29708D01*
X86961Y30573D01*
X87083Y31500D01*
X86961Y32427D01*
X86603Y33292D01*
X86051Y34011D01*
X86030Y34064D01*
X85746Y34353D01*
X85273Y34894D01*
X85096Y35131D01*
X84947Y35357D01*
X84831Y35565D01*
X84746Y35753D01*
X84690Y35918D01*
X84660Y36061D01*
X84648Y36230D01*
X84622Y36281D01*
Y39219D01*
X84648Y39270D01*
X84660Y39439D01*
X84690Y39582D01*
X84746Y39747D01*
X84831Y39935D01*
X84947Y40143D01*
X85096Y40369D01*
X85273Y40606D01*
X85746Y41147D01*
X86030Y41436D01*
X86051Y41489D01*
X86603Y42208D01*
X86961Y43073D01*
X87080Y43972D01*
X87102Y44025D01*
X87105Y44429D01*
X87154Y45146D01*
X87196Y45439D01*
X87251Y45704D01*
X87316Y45933D01*
X87388Y46126D01*
X87466Y46283D01*
X87545Y46405D01*
X87656Y46533D01*
X87674Y46588D01*
X88240Y47154D01*
X88240Y47154D01*
X88483Y47518D01*
X88569Y47947D01*
X88569Y47947D01*
Y54230D01*
X89069Y54387D01*
X89708Y53897D01*
X90573Y53539D01*
X91500Y53417D01*
X92427Y53539D01*
X93292Y53897D01*
X94034Y54466D01*
X94181Y54658D01*
X94681Y54488D01*
Y48020D01*
X94653Y47958D01*
X94649Y47786D01*
X94638Y47659D01*
X94622Y47563D01*
X94619Y47553D01*
X89947D01*
Y40447D01*
X92315D01*
X92320Y40431D01*
X92335Y40337D01*
X92346Y40212D01*
X92351Y40042D01*
X92378Y39980D01*
Y36281D01*
X92352Y36230D01*
X92340Y36061D01*
X92310Y35918D01*
X92254Y35753D01*
X92169Y35565D01*
X92053Y35357D01*
X91904Y35131D01*
X91727Y34894D01*
X91254Y34353D01*
X90970Y34064D01*
X90949Y34011D01*
X90397Y33292D01*
X90039Y32427D01*
X89917Y31500D01*
X90039Y30573D01*
X90397Y29708D01*
X90966Y28966D01*
X91708Y28397D01*
X92573Y28039D01*
X93500Y27917D01*
X94427Y28039D01*
X95292Y28397D01*
X96007Y28946D01*
X96061Y28967D01*
X96307Y29206D01*
X96535Y29406D01*
X96758Y29578D01*
X96975Y29724D01*
X97184Y29844D01*
X97386Y29940D01*
X97581Y30011D01*
X97768Y30061D01*
X97950Y30090D01*
X98162Y30101D01*
X98208Y30124D01*
X100944D01*
X100995Y30101D01*
X101262Y30094D01*
X101475Y30075D01*
X101646Y30047D01*
X101773Y30013D01*
X101854Y29980D01*
X101874Y29968D01*
X101878Y29932D01*
X101900Y29891D01*
Y27400D01*
X107100D01*
Y34600D01*
X101900D01*
Y33109D01*
X101878Y33068D01*
X101874Y33032D01*
X101854Y33020D01*
X101773Y32987D01*
X101646Y32953D01*
X101475Y32925D01*
X101262Y32906D01*
X100995Y32899D01*
X100944Y32876D01*
X98208D01*
X98162Y32899D01*
X97950Y32910D01*
X97768Y32939D01*
X97581Y32989D01*
X97386Y33060D01*
X97184Y33156D01*
X96975Y33276D01*
X96758Y33422D01*
X96535Y33595D01*
X96306Y33795D01*
X96061Y34033D01*
X96039Y34042D01*
X96030Y34064D01*
X95746Y34353D01*
X95273Y34894D01*
X95096Y35131D01*
X94947Y35357D01*
X94831Y35565D01*
X94746Y35753D01*
X94690Y35918D01*
X94660Y36061D01*
X94648Y36230D01*
X94622Y36281D01*
Y39980D01*
X94649Y40042D01*
X94654Y40212D01*
X94665Y40337D01*
X94680Y40431D01*
X94685Y40447D01*
X97053D01*
Y46853D01*
X97090Y46946D01*
X97053Y47034D01*
Y47553D01*
X96970D01*
X96953Y47777D01*
X96952Y47945D01*
X96924Y48011D01*
Y64783D01*
X97302Y64985D01*
X97424Y64999D01*
X98000Y64885D01*
X98536Y64991D01*
X98610Y64911D01*
X98777Y64657D01*
X98813Y64575D01*
X98508Y64118D01*
X98385Y63500D01*
X98508Y62882D01*
X98858Y62358D01*
X99382Y62008D01*
X100000Y61885D01*
X100618Y62008D01*
X101049Y62295D01*
X101054Y62297D01*
X101065Y62299D01*
X101088Y62301D01*
X101096Y62306D01*
X101105Y62307D01*
X101118Y62316D01*
X101121Y62317D01*
X101142Y62324D01*
X101177Y62331D01*
X101217Y62337D01*
X101363Y62349D01*
X101450Y62351D01*
X101514Y62378D01*
X145535D01*
X149326Y58588D01*
X149344Y58533D01*
X149455Y58405D01*
X149534Y58283D01*
X149612Y58126D01*
X149684Y57933D01*
X149749Y57704D01*
X149804Y57439D01*
X149846Y57146D01*
X149895Y56429D01*
X149898Y56025D01*
X149920Y55972D01*
X150039Y55073D01*
X150397Y54208D01*
X150872Y53588D01*
X150697Y53088D01*
X145394D01*
X145053Y53447D01*
Y60553D01*
X137947D01*
Y54234D01*
X137485Y54043D01*
X136094Y55434D01*
X136088Y55452D01*
X135682Y55888D01*
X135532Y56073D01*
X135403Y56250D01*
X135298Y56413D01*
X135219Y56561D01*
X135162Y56691D01*
X135126Y56801D01*
X135108Y56892D01*
X135101Y57011D01*
X135075Y57064D01*
X134961Y57927D01*
X134603Y58792D01*
X134034Y59534D01*
X133292Y60103D01*
X132427Y60461D01*
X131500Y60583D01*
X130573Y60461D01*
X129708Y60103D01*
X128966Y59534D01*
X128397Y58792D01*
X128039Y57927D01*
X127917Y57000D01*
X128039Y56073D01*
X128397Y55208D01*
X128966Y54466D01*
X129708Y53897D01*
X130573Y53539D01*
X131436Y53425D01*
X131489Y53399D01*
X131608Y53392D01*
X131699Y53374D01*
X131809Y53338D01*
X131939Y53281D01*
X132087Y53202D01*
X132250Y53097D01*
X132421Y52973D01*
X132824Y52629D01*
X133039Y52421D01*
X133059Y52413D01*
X136039Y49433D01*
X136733Y48969D01*
X137553Y48806D01*
X155512D01*
Y21654D01*
X143701Y9843D01*
X21654D01*
X8000Y24000D01*
X9843Y143701D01*
X21654Y155512D01*
X39277D01*
X40000Y155417D01*
X40723Y155512D01*
X49277D01*
X50000Y155417D01*
X50723Y155512D01*
X58859D01*
X59050Y155050D01*
D02*
G37*
G36*
X81621Y155000D02*
X80559Y154982D01*
X79772Y154930D01*
X79481Y154890D01*
X79260Y154842D01*
X79107Y154785D01*
X79023Y154719D01*
X79007Y154644D01*
X79061Y154561D01*
X76500Y152879D01*
X76067Y153282D01*
X75616Y153642D01*
X75148Y153961D01*
X74662Y154236D01*
X74159Y154470D01*
X73638Y154661D01*
X73100Y154809D01*
X72544Y154915D01*
X71970Y154979D01*
X71379Y155000D01*
X75000Y158000D01*
X81621Y155000D01*
D02*
G37*
G36*
X79506Y152496D02*
X79551Y151923D01*
X79591Y151670D01*
X79642Y151438D01*
X79704Y151228D01*
X79778Y151041D01*
X79863Y150875D01*
X79959Y150731D01*
X80067Y150609D01*
X75933D01*
X76041Y150731D01*
X76137Y150875D01*
X76222Y151041D01*
X76296Y151228D01*
X76358Y151438D01*
X76409Y151670D01*
X76449Y151923D01*
X76477Y152199D01*
X76500Y152815D01*
X79500D01*
X79506Y152496D01*
D02*
G37*
G36*
X52231Y150959D02*
X52375Y150863D01*
X52541Y150778D01*
X52728Y150704D01*
X52938Y150642D01*
X53170Y150591D01*
X53423Y150551D01*
X53699Y150523D01*
X54315Y150500D01*
Y147500D01*
X53996Y147494D01*
X53423Y147449D01*
X53170Y147409D01*
X52938Y147358D01*
X52728Y147296D01*
X52541Y147222D01*
X52375Y147137D01*
X52231Y147041D01*
X52109Y146933D01*
Y151067D01*
X52231Y150959D01*
D02*
G37*
G36*
X41302Y146059D02*
X41069Y146229D01*
X40793Y146314D01*
X40475D01*
X40114Y146229D01*
X39711Y146059D01*
X39265Y145805D01*
X38778Y145465D01*
X38247Y145041D01*
X37059Y143938D01*
X34938Y146059D01*
X35532Y146674D01*
X36465Y147777D01*
X36805Y148265D01*
X37059Y148711D01*
X37229Y149114D01*
X37314Y149475D01*
Y149793D01*
X37229Y150069D01*
X37059Y150302D01*
X41302Y146059D01*
D02*
G37*
G36*
X51959Y146769D02*
X51863Y146625D01*
X51778Y146459D01*
X51704Y146272D01*
X51642Y146062D01*
X51591Y145830D01*
X51551Y145577D01*
X51523Y145301D01*
X51500Y144685D01*
X48500D01*
X48494Y145004D01*
X48449Y145577D01*
X48409Y145830D01*
X48358Y146062D01*
X48296Y146272D01*
X48222Y146459D01*
X48137Y146625D01*
X48041Y146769D01*
X47933Y146891D01*
X52067D01*
X51959Y146769D01*
D02*
G37*
G36*
X51515Y140361D02*
X51560Y139849D01*
X51635Y139397D01*
X51740Y139005D01*
X51875Y138674D01*
X52040Y138403D01*
X52235Y138192D01*
X52460Y138041D01*
X52715Y137951D01*
X53000Y137921D01*
X47000D01*
X47285Y137951D01*
X47540Y138041D01*
X47765Y138192D01*
X47960Y138403D01*
X48125Y138674D01*
X48260Y139005D01*
X48365Y139397D01*
X48440Y139849D01*
X48485Y140361D01*
X48500Y140933D01*
X51500D01*
X51515Y140361D01*
D02*
G37*
G36*
X50901Y137085D02*
X51020Y137010D01*
X51140Y136943D01*
X51263Y136886D01*
X51388Y136837D01*
X51514Y136797D01*
X51643Y136766D01*
X51773Y136744D01*
X51905Y136731D01*
X52039Y136726D01*
Y135226D01*
X51905Y135222D01*
X51773Y135209D01*
X51643Y135187D01*
X51514Y135155D01*
X51388Y135116D01*
X51263Y135067D01*
X51140Y135009D01*
X51020Y134943D01*
X50901Y134868D01*
X50783Y134783D01*
Y137169D01*
X50901Y137085D01*
D02*
G37*
G36*
X45109Y133488D02*
X44624Y132993D01*
X43289Y131438D01*
X43107Y131155D01*
X42986Y130915D01*
X42926Y130717D01*
X42927Y130561D01*
X42988Y130448D01*
X39948Y133488D01*
X40061Y133427D01*
X40217Y133426D01*
X40415Y133486D01*
X40655Y133607D01*
X40938Y133789D01*
X41263Y134031D01*
X42041Y134699D01*
X42988Y135609D01*
X45109Y133488D01*
D02*
G37*
G36*
X53911Y136024D02*
X53869Y135887D01*
Y135728D01*
X53911Y135547D01*
X53996Y135346D01*
X54123Y135123D01*
X54293Y134879D01*
X54505Y134614D01*
X55057Y134020D01*
X53996Y132959D01*
X53688Y133256D01*
X53137Y133723D01*
X52893Y133893D01*
X52670Y134020D01*
X52469Y134105D01*
X52288Y134147D01*
X52129D01*
X51991Y134105D01*
X51875Y134020D01*
X53996Y136141D01*
X53911Y136024D01*
D02*
G37*
G36*
X4488Y129936D02*
X4499Y129879D01*
X4518Y129820D01*
X4545Y129759D01*
X4580Y129694D01*
X4622Y129628D01*
X4672Y129559D01*
X4731Y129487D01*
X4871Y129337D01*
X4163Y128629D01*
X4087Y128703D01*
X3941Y128828D01*
X3872Y128878D01*
X3806Y128920D01*
X3741Y128955D01*
X3680Y128982D01*
X3621Y129001D01*
X3564Y129012D01*
X3510Y129016D01*
X4484Y129990D01*
X4488Y129936D01*
D02*
G37*
G36*
X6505Y127296D02*
X6520Y127124D01*
X6545Y126972D01*
X6580Y126840D01*
X6625Y126729D01*
X6680Y126638D01*
X6745Y126567D01*
X6820Y126516D01*
X6905Y126486D01*
X7000Y126476D01*
X5000D01*
X5095Y126486D01*
X5180Y126516D01*
X5255Y126567D01*
X5320Y126638D01*
X5375Y126729D01*
X5420Y126840D01*
X5455Y126972D01*
X5480Y127124D01*
X5495Y127296D01*
X5500Y127488D01*
X6500D01*
X6505Y127296D01*
D02*
G37*
G36*
X102003Y128926D02*
X102048Y128870D01*
X102123Y128821D01*
X102228Y128778D01*
X102363Y128742D01*
X102528Y128713D01*
X102723Y128690D01*
X103203Y128664D01*
X103488Y128660D01*
Y127160D01*
X103201Y127153D01*
X102945Y127130D01*
X102718Y127093D01*
X102522Y127040D01*
X102356Y126973D01*
X102220Y126890D01*
X102113Y126793D01*
X102038Y126680D01*
X101992Y126553D01*
X101976Y126410D01*
X101988Y128988D01*
X102003Y128926D01*
D02*
G37*
G36*
X96012Y125500D02*
X95997Y125643D01*
X95952Y125770D01*
X95877Y125882D01*
X95772Y125980D01*
X95637Y126063D01*
X95472Y126130D01*
X95277Y126182D01*
X95052Y126220D01*
X94797Y126242D01*
X94512Y126250D01*
Y127750D01*
X94797Y127758D01*
X95052Y127780D01*
X95277Y127817D01*
X95472Y127870D01*
X95637Y127937D01*
X95772Y128020D01*
X95877Y128118D01*
X95952Y128230D01*
X95997Y128358D01*
X96012Y128500D01*
Y125500D01*
D02*
G37*
G36*
X88152Y128358D02*
X88198Y128230D01*
X88274Y128118D01*
X88379Y128020D01*
X88515Y127937D01*
X88682Y127870D01*
X88878Y127817D01*
X89105Y127780D01*
X89362Y127758D01*
X89649Y127750D01*
Y126250D01*
X89362Y126242D01*
X89105Y126220D01*
X88878Y126182D01*
X88682Y126130D01*
X88515Y126063D01*
X88379Y125980D01*
X88274Y125882D01*
X88198Y125770D01*
X88152Y125643D01*
X88137Y125500D01*
Y128500D01*
X88152Y128358D01*
D02*
G37*
G36*
X100857Y125009D02*
X100730Y124963D01*
X100618Y124888D01*
X100520Y124782D01*
X100437Y124646D01*
X100370Y124480D01*
X100318Y124283D01*
X100280Y124056D01*
X100258Y123799D01*
X100250Y123512D01*
X98750D01*
X98743Y123799D01*
X98720Y124056D01*
X98682Y124283D01*
X98630Y124480D01*
X98563Y124646D01*
X98480Y124782D01*
X98383Y124888D01*
X98270Y124963D01*
X98142Y125009D01*
X98000Y125024D01*
X101000D01*
X100857Y125009D01*
D02*
G37*
G36*
X37012Y125488D02*
X37024Y121745D01*
X37001Y121889D01*
X36933Y122017D01*
X36819Y122130D01*
X36660Y122228D01*
X36456Y122311D01*
X36207Y122379D01*
X35912Y122432D01*
X35573Y122470D01*
X34757Y122500D01*
Y125500D01*
X37012Y125488D01*
D02*
G37*
G36*
X115511Y120233D02*
X115299Y120150D01*
X115112Y120012D01*
X114949Y119819D01*
X114812Y119570D01*
X114700Y119267D01*
X114612Y118908D01*
X114550Y118494D01*
X114513Y118024D01*
X114500Y117500D01*
X111500D01*
X111487Y118024D01*
X111450Y118494D01*
X111388Y118908D01*
X111300Y119267D01*
X111188Y119570D01*
X111051Y119819D01*
X110888Y120012D01*
X110701Y120150D01*
X110489Y120233D01*
X110252Y120260D01*
X115748D01*
X115511Y120233D01*
D02*
G37*
G36*
X66488Y117378D02*
X66407Y117497D01*
X66297Y117565D01*
X66158Y117583D01*
X65989Y117551D01*
X65791Y117469D01*
X65565Y117336D01*
X65309Y117154D01*
X65024Y116921D01*
X64366Y116306D01*
X64081Y118142D01*
X64345Y118416D01*
X64768Y118923D01*
X64927Y119155D01*
X65052Y119374D01*
X65141Y119580D01*
X65197Y119771D01*
X65217Y119949D01*
X65203Y120113D01*
X65154Y120263D01*
X66488Y117378D01*
D02*
G37*
G36*
X43009Y125114D02*
X43073Y124735D01*
X43179Y124351D01*
X43327Y123962D01*
X43518Y123567D01*
X43752Y123166D01*
X44027Y122761D01*
X44346Y122350D01*
X44706Y121934D01*
X44864Y121769D01*
X45161Y121482D01*
X46298Y120513D01*
X46794Y120165D01*
X47243Y119906D01*
X47643Y119738D01*
X47995Y119660D01*
X48299Y119673D01*
X48555Y119775D01*
X48763Y119968D01*
X45752Y116067D01*
X45720Y116205D01*
X45625Y116396D01*
X45466Y116639D01*
X45243Y116934D01*
X44607Y117683D01*
X42755Y119616D01*
X42379Y119978D01*
X41284Y120904D01*
X40798Y121241D01*
X40354Y121495D01*
X39950Y121665D01*
X39587Y121752D01*
X39265Y121756D01*
X38985Y121676D01*
X38745Y121512D01*
X42988Y125488D01*
X43009Y125114D01*
D02*
G37*
G36*
X76193Y114794D02*
X76163Y114745D01*
X76138Y114689D01*
X76115Y114626D01*
X76096Y114556D01*
X76080Y114478D01*
X76068Y114393D01*
X76055Y114202D01*
X76053Y114095D01*
X75053Y114033D01*
X75051Y114139D01*
X75034Y114329D01*
X75020Y114413D01*
X75002Y114490D01*
X74980Y114559D01*
X74953Y114621D01*
X74923Y114675D01*
X74888Y114722D01*
X74850Y114761D01*
X76226Y114835D01*
X76193Y114794D01*
D02*
G37*
G36*
X68100Y113204D02*
X68068Y113156D01*
X68040Y113100D01*
X68015Y113038D01*
X67994Y112968D01*
X67977Y112891D01*
X67964Y112806D01*
X67955Y112714D01*
X67947Y112509D01*
X66947D01*
X66945Y112615D01*
X66930Y112806D01*
X66917Y112891D01*
X66900Y112968D01*
X66879Y113038D01*
X66855Y113100D01*
X66826Y113156D01*
X66794Y113204D01*
X66758Y113244D01*
X68136D01*
X68100Y113204D01*
D02*
G37*
G36*
X51549Y111488D02*
X51252Y111180D01*
X50785Y110629D01*
X50615Y110385D01*
X50488Y110162D01*
X50403Y109961D01*
X50361Y109780D01*
Y109621D01*
X50403Y109483D01*
X50488Y109367D01*
X48367Y111488D01*
X48483Y111403D01*
X48621Y111361D01*
X48780D01*
X48961Y111403D01*
X49162Y111488D01*
X49385Y111615D01*
X49629Y111785D01*
X49894Y111997D01*
X50488Y112549D01*
X51549Y111488D01*
D02*
G37*
G36*
X150765Y109449D02*
X151135Y109135D01*
X151297Y109021D01*
X151446Y108935D01*
X151580Y108877D01*
X151700Y108847D01*
X151806Y108846D01*
X151897Y108873D01*
X151973Y108929D01*
X150571Y107527D01*
X150627Y107603D01*
X150654Y107694D01*
X150653Y107800D01*
X150623Y107920D01*
X150565Y108054D01*
X150479Y108203D01*
X150365Y108365D01*
X150222Y108543D01*
X149852Y108941D01*
X150559Y109648D01*
X150765Y109449D01*
D02*
G37*
G36*
X65153Y106256D02*
X65121Y106208D01*
X65093Y106153D01*
X65068Y106090D01*
X65047Y106021D01*
X65030Y105943D01*
X65017Y105859D01*
X65008Y105767D01*
X65000Y105562D01*
X64000D01*
X63998Y105668D01*
X63983Y105859D01*
X63970Y105943D01*
X63953Y106021D01*
X63932Y106090D01*
X63907Y106153D01*
X63879Y106208D01*
X63847Y106256D01*
X63811Y106297D01*
X65189D01*
X65153Y106256D01*
D02*
G37*
G36*
X99391Y104933D02*
X99134Y105183D01*
X98878Y105407D01*
X98623Y105605D01*
X98369Y105776D01*
X98116Y105921D01*
X97865Y106039D01*
X97615Y106131D01*
X97366Y106197D01*
X97119Y106237D01*
X96872Y106250D01*
Y107750D01*
X97119Y107763D01*
X97366Y107803D01*
X97615Y107869D01*
X97865Y107961D01*
X98116Y108079D01*
X98369Y108224D01*
X98623Y108395D01*
X98878Y108593D01*
X99134Y108817D01*
X99391Y109067D01*
Y104933D01*
D02*
G37*
G36*
X93866Y108817D02*
X94122Y108593D01*
X94377Y108395D01*
X94631Y108224D01*
X94884Y108079D01*
X95135Y107961D01*
X95385Y107869D01*
X95634Y107803D01*
X95881Y107763D01*
X96128Y107750D01*
Y106250D01*
X95881Y106237D01*
X95634Y106197D01*
X95385Y106131D01*
X95135Y106039D01*
X94884Y105921D01*
X94631Y105776D01*
X94377Y105605D01*
X94122Y105407D01*
X93866Y105183D01*
X93609Y104933D01*
Y109067D01*
X93866Y108817D01*
D02*
G37*
G36*
X56947Y105508D02*
X56820Y105462D01*
X56707Y105386D01*
X56610Y105280D01*
X56527Y105144D01*
X56460Y104978D01*
X56407Y104782D01*
X56370Y104555D01*
X56347Y104299D01*
X56340Y104012D01*
X54840D01*
X54836Y104297D01*
X54787Y104972D01*
X54758Y105137D01*
X54722Y105272D01*
X54679Y105377D01*
X54630Y105452D01*
X54574Y105497D01*
X54512Y105512D01*
X57090Y105524D01*
X56947Y105508D01*
D02*
G37*
G36*
X49858Y105509D02*
X49730Y105464D01*
X49617Y105388D01*
X49520Y105282D01*
X49437Y105146D01*
X49370Y104980D01*
X49317Y104783D01*
X49280Y104556D01*
X49257Y104299D01*
X49250Y104012D01*
X47750D01*
X47743Y104299D01*
X47720Y104556D01*
X47682Y104783D01*
X47630Y104980D01*
X47563Y105146D01*
X47480Y105282D01*
X47383Y105388D01*
X47270Y105464D01*
X47142Y105509D01*
X47000Y105524D01*
X50000D01*
X49858Y105509D01*
D02*
G37*
G36*
X83907Y102158D02*
X83922Y101986D01*
X83947Y101834D01*
X83982Y101702D01*
X84027Y101591D01*
X84082Y101500D01*
X84147Y101429D01*
X84222Y101379D01*
X84307Y101348D01*
X84402Y101338D01*
X82402D01*
X82497Y101348D01*
X82582Y101379D01*
X82657Y101429D01*
X82722Y101500D01*
X82777Y101591D01*
X82822Y101702D01*
X82857Y101834D01*
X82882Y101986D01*
X82897Y102158D01*
X82902Y102350D01*
X83902D01*
X83907Y102158D01*
D02*
G37*
G36*
X80143Y102159D02*
X80158Y101987D01*
X80183Y101836D01*
X80218Y101704D01*
X80263Y101593D01*
X80318Y101502D01*
X80383Y101431D01*
X80458Y101380D01*
X80543Y101349D01*
X80638Y101338D01*
X79083Y101350D01*
X79093Y101360D01*
X79103Y101390D01*
X79111Y101440D01*
X79118Y101510D01*
X79133Y101840D01*
X79138Y102350D01*
X80138D01*
X80143Y102159D01*
D02*
G37*
G36*
X74454Y101836D02*
X74478Y101492D01*
X74490Y101436D01*
X74503Y101393D01*
X74518Y101363D01*
X74536Y101344D01*
X74555Y101338D01*
X73350D01*
X73370Y101344D01*
X73387Y101363D01*
X73403Y101393D01*
X73416Y101436D01*
X73427Y101492D01*
X73436Y101559D01*
X73449Y101732D01*
X73453Y101953D01*
X74453D01*
X74454Y101836D01*
D02*
G37*
G36*
X70627Y102159D02*
X70642Y101987D01*
X70667Y101836D01*
X70702Y101705D01*
X70747Y101593D01*
X70802Y101502D01*
X70867Y101431D01*
X70942Y101380D01*
X71027Y101349D01*
X71122Y101338D01*
X69634Y101350D01*
X69632Y101360D01*
X69630Y101390D01*
X69623Y101840D01*
X69622Y102350D01*
X70622D01*
X70627Y102159D01*
D02*
G37*
G36*
X49257Y101701D02*
X49280Y101445D01*
X49317Y101218D01*
X49370Y101022D01*
X49437Y100856D01*
X49520Y100719D01*
X49617Y100613D01*
X49730Y100537D01*
X49858Y100492D01*
X50000Y100476D01*
X47012Y100488D01*
X47152Y100503D01*
X47278Y100548D01*
X47388Y100623D01*
X47484Y100728D01*
X47565Y100863D01*
X47632Y101028D01*
X47684Y101223D01*
X47721Y101448D01*
X47743Y101703D01*
X47750Y101988D01*
X49250D01*
X49257Y101701D01*
D02*
G37*
G36*
X66691Y101858D02*
X67060Y101545D01*
X67223Y101430D01*
X67371Y101344D01*
X67506Y101286D01*
X67625Y101257D01*
X67731Y101256D01*
X67822Y101283D01*
X67899Y101338D01*
X66496Y99936D01*
X66552Y100013D01*
X66579Y100104D01*
X66578Y100209D01*
X66548Y100329D01*
X66490Y100463D01*
X66404Y100612D01*
X66290Y100775D01*
X66147Y100952D01*
X65777Y101350D01*
X66484Y102057D01*
X66691Y101858D01*
D02*
G37*
G36*
X90880Y101303D02*
X90910Y101260D01*
X90960Y101223D01*
X91030Y101190D01*
X91120Y101163D01*
X91230Y101140D01*
X91360Y101122D01*
X91680Y101102D01*
X91870Y101100D01*
Y100100D01*
X91680Y100095D01*
X91510Y100080D01*
X91360Y100055D01*
X91230Y100020D01*
X91120Y99975D01*
X91030Y99920D01*
X90960Y99855D01*
X90910Y99780D01*
X90880Y99695D01*
X90870Y99600D01*
Y101350D01*
X90880Y101303D01*
D02*
G37*
G36*
X62653Y100256D02*
X62621Y100208D01*
X62593Y100153D01*
X62568Y100091D01*
X62547Y100021D01*
X62530Y99943D01*
X62517Y99859D01*
X62508Y99767D01*
X62500Y99562D01*
X61500D01*
X61498Y99668D01*
X61483Y99859D01*
X61470Y99943D01*
X61453Y100021D01*
X61432Y100091D01*
X61407Y100153D01*
X61379Y100208D01*
X61347Y100256D01*
X61311Y100297D01*
X62689D01*
X62653Y100256D01*
D02*
G37*
G36*
X47024Y97000D02*
X47009Y97142D01*
X46964Y97270D01*
X46888Y97382D01*
X46782Y97480D01*
X46646Y97562D01*
X46480Y97630D01*
X46283Y97682D01*
X46056Y97720D01*
X45799Y97742D01*
X45751Y97744D01*
X45703Y97742D01*
X45448Y97720D01*
X45223Y97682D01*
X45028Y97630D01*
X44863Y97562D01*
X44728Y97480D01*
X44623Y97382D01*
X44548Y97270D01*
X44503Y97142D01*
X44488Y97000D01*
Y100000D01*
X44503Y99857D01*
X44548Y99730D01*
X44623Y99617D01*
X44728Y99520D01*
X44863Y99437D01*
X45028Y99370D01*
X45223Y99318D01*
X45448Y99280D01*
X45703Y99257D01*
X45751Y99256D01*
X45799Y99257D01*
X46056Y99280D01*
X46283Y99318D01*
X46480Y99370D01*
X46646Y99437D01*
X46782Y99520D01*
X46888Y99617D01*
X46964Y99730D01*
X47009Y99857D01*
X47024Y100000D01*
Y97000D01*
D02*
G37*
G36*
X142451Y96962D02*
X142218Y96489D01*
X141500Y96583D01*
X140573Y96461D01*
X139708Y96103D01*
X138966Y95534D01*
X138397Y94792D01*
X138039Y93927D01*
X137917Y93000D01*
X138039Y92073D01*
X138397Y91208D01*
X138966Y90466D01*
X139708Y89897D01*
X140573Y89539D01*
X141500Y89417D01*
X142427Y89539D01*
X143292Y89897D01*
X144034Y90466D01*
X144603Y91208D01*
X144878Y91873D01*
X145378Y91773D01*
Y85221D01*
X145284Y85171D01*
X144878Y85090D01*
X144319Y85819D01*
X143493Y86453D01*
X142532Y86851D01*
X142000Y86921D01*
Y83000D01*
Y79079D01*
X142532Y79149D01*
X143493Y79547D01*
X144319Y80181D01*
X144953Y81007D01*
X145325Y81906D01*
X145341Y81918D01*
X145549Y81999D01*
X145866Y82048D01*
X149326Y78588D01*
X149344Y78533D01*
X149455Y78405D01*
X149534Y78283D01*
X149612Y78126D01*
X149684Y77933D01*
X149749Y77704D01*
X149804Y77439D01*
X149846Y77146D01*
X149895Y76429D01*
X149898Y76025D01*
X149920Y75972D01*
X150039Y75073D01*
X150397Y74208D01*
X150966Y73466D01*
X151708Y72897D01*
X152573Y72539D01*
X153500Y72417D01*
X154427Y72539D01*
X155012Y72781D01*
X155512Y72464D01*
Y69537D01*
X155012Y69219D01*
X154427Y69461D01*
X153500Y69583D01*
X152573Y69461D01*
X151708Y69103D01*
X151512Y68952D01*
X151404Y68929D01*
X150685Y68436D01*
X150377Y68243D01*
X149807Y67928D01*
X149575Y67821D01*
X149366Y67740D01*
X149190Y67686D01*
X149051Y67659D01*
X148902Y67648D01*
X148850Y67622D01*
X117131D01*
X116939Y68084D01*
X117645Y68789D01*
X118967D01*
X119494Y68894D01*
X119940Y69192D01*
X122473Y71726D01*
X122473Y71726D01*
X122772Y72172D01*
X122877Y72699D01*
X122876Y72699D01*
Y78491D01*
X122899Y78542D01*
X122906Y78807D01*
X122925Y79017D01*
X122930Y79047D01*
X125453D01*
Y81571D01*
X125478Y81575D01*
X125690Y81594D01*
X125958Y81601D01*
X126009Y81624D01*
X126792D01*
X126838Y81602D01*
X127050Y81590D01*
X127232Y81561D01*
X127419Y81511D01*
X127613Y81440D01*
X127815Y81344D01*
X127936Y81275D01*
X128047Y81007D01*
X128681Y80181D01*
X129507Y79547D01*
X130468Y79149D01*
X131000Y79079D01*
Y83000D01*
Y86921D01*
X130468Y86851D01*
X129507Y86453D01*
X128681Y85819D01*
X128047Y84993D01*
X127936Y84724D01*
X127816Y84655D01*
X127613Y84560D01*
X127419Y84488D01*
X127232Y84439D01*
X127050Y84410D01*
X126838Y84399D01*
X126792Y84376D01*
X126009D01*
X125958Y84399D01*
X125690Y84406D01*
X125478Y84425D01*
X125453Y84429D01*
Y86953D01*
X122000D01*
Y83000D01*
X121500D01*
Y82500D01*
X117547D01*
Y79047D01*
X120070D01*
X120075Y79017D01*
X120094Y78807D01*
X120101Y78542D01*
X120124Y78491D01*
Y73569D01*
X119854Y73349D01*
X119272Y73448D01*
X119142Y73642D01*
X118618Y73992D01*
X118000Y74115D01*
X117382Y73992D01*
X117208Y73876D01*
X116056D01*
X116005Y73899D01*
X115738Y73906D01*
X115525Y73925D01*
X115354Y73953D01*
X115227Y73987D01*
X115146Y74020D01*
X115126Y74032D01*
X115122Y74068D01*
X115100Y74109D01*
Y76100D01*
X114249D01*
X113968Y76493D01*
X113986Y76559D01*
X114223Y76900D01*
X115100D01*
Y84100D01*
X114224D01*
X113973Y84469D01*
X113964Y84500D01*
X113973Y84531D01*
X114224Y84900D01*
X115100D01*
Y90300D01*
X115562Y90491D01*
X117921Y88133D01*
Y87496D01*
X117898Y87441D01*
X117899Y87438D01*
X117898Y87436D01*
X117899Y87307D01*
X117547Y86953D01*
X117547D01*
Y83500D01*
X121000D01*
Y86953D01*
X120726D01*
X120722Y86979D01*
X120703Y87191D01*
X120696Y87458D01*
X120674Y87509D01*
Y88703D01*
X120609Y89030D01*
X120913Y89438D01*
X120989Y89484D01*
X121500Y89417D01*
X122427Y89539D01*
X123292Y89897D01*
X124034Y90466D01*
X124603Y91208D01*
X124961Y92073D01*
X125083Y93000D01*
X124961Y93927D01*
X124603Y94792D01*
X124034Y95534D01*
X123292Y96103D01*
X122427Y96461D01*
X121500Y96583D01*
X120573Y96461D01*
X119708Y96103D01*
X118966Y95534D01*
X118397Y94792D01*
X118039Y93927D01*
X117917Y93000D01*
X117956Y92697D01*
X117483Y92464D01*
X116043Y93903D01*
X116025Y93954D01*
X115500Y94519D01*
Y96000D01*
X109500D01*
Y92500D01*
X109659D01*
X109900Y92100D01*
Y84900D01*
X110776D01*
X111027Y84531D01*
X111036Y84500D01*
X111027Y84469D01*
X110776Y84100D01*
X109900D01*
Y76900D01*
X110777D01*
X111014Y76559D01*
X111032Y76493D01*
X110751Y76100D01*
X109900D01*
Y69526D01*
X108420D01*
X108043Y69903D01*
X108025Y69954D01*
X107500Y70519D01*
Y72000D01*
X104500D01*
Y73000D01*
X107500D01*
Y76500D01*
X107341D01*
X107100Y76900D01*
Y84100D01*
X101900D01*
Y81285D01*
X101892Y81283D01*
X101795Y81267D01*
X101667Y81256D01*
X101495Y81252D01*
X101433Y81224D01*
X99429D01*
X99367Y81252D01*
X99195Y81256D01*
X99067Y81267D01*
X98971Y81283D01*
X98962Y81285D01*
Y84942D01*
X99093Y85038D01*
X99462Y85163D01*
X99882Y84883D01*
X100500Y84760D01*
X101118Y84883D01*
X101400Y85071D01*
X101900Y84900D01*
Y84900D01*
X107100D01*
Y92100D01*
X105956D01*
X105729Y92500D01*
X105956Y92900D01*
X107100D01*
Y99478D01*
X109500D01*
Y97000D01*
X115500D01*
Y99478D01*
X139935D01*
X142451Y96962D01*
D02*
G37*
G36*
X38512Y96512D02*
X38497Y96574D01*
X38452Y96630D01*
X38377Y96679D01*
X38272Y96722D01*
X38137Y96758D01*
X37972Y96787D01*
X37777Y96810D01*
X37297Y96836D01*
X37012Y96840D01*
Y98340D01*
X37299Y98347D01*
X37555Y98370D01*
X37782Y98407D01*
X37978Y98460D01*
X38144Y98527D01*
X38280Y98610D01*
X38386Y98707D01*
X38462Y98820D01*
X38508Y98947D01*
X38524Y99090D01*
X38512Y96512D01*
D02*
G37*
G36*
X150704Y99525D02*
X150895Y99401D01*
X151114Y99292D01*
X151364Y99198D01*
X151642Y99120D01*
X151949Y99056D01*
X152286Y99007D01*
X153046Y98956D01*
X153471Y98953D01*
X150547Y96030D01*
X150544Y96454D01*
X150493Y97215D01*
X150444Y97551D01*
X150381Y97858D01*
X150302Y98137D01*
X150208Y98386D01*
X150099Y98605D01*
X149975Y98796D01*
X149836Y98957D01*
X150543Y99664D01*
X150704Y99525D01*
D02*
G37*
G36*
X102524Y95500D02*
X102514Y95595D01*
X102483Y95680D01*
X102433Y95755D01*
X102362Y95820D01*
X102271Y95875D01*
X102160Y95920D01*
X102028Y95955D01*
X101876Y95980D01*
X101704Y95995D01*
X101512Y96000D01*
Y97000D01*
X101704Y97005D01*
X101876Y97020D01*
X102028Y97045D01*
X102160Y97080D01*
X102271Y97125D01*
X102362Y97180D01*
X102433Y97245D01*
X102483Y97320D01*
X102514Y97405D01*
X102524Y97500D01*
Y95500D01*
D02*
G37*
G36*
X86905Y94960D02*
X86861Y94915D01*
X86764Y94800D01*
X86743Y94768D01*
X86729Y94740D01*
X86720Y94716D01*
X86717Y94694D01*
X86720Y94677D01*
X86728Y94662D01*
X85598Y94898D01*
X86198Y95667D01*
X86905Y94960D01*
D02*
G37*
G36*
X84321Y95471D02*
X84236Y95440D01*
X84161Y95390D01*
X84096Y95319D01*
X84041Y95228D01*
X83996Y95116D01*
X83961Y94985D01*
X83936Y94833D01*
X83921Y94661D01*
X83916Y94469D01*
X82916D01*
X82911Y94661D01*
X82896Y94833D01*
X82871Y94985D01*
X82836Y95116D01*
X82791Y95228D01*
X82736Y95319D01*
X82671Y95390D01*
X82596Y95440D01*
X82511Y95471D01*
X82416Y95481D01*
X84416D01*
X84321Y95471D01*
D02*
G37*
G36*
X80905Y95470D02*
X80820Y95439D01*
X80745Y95388D01*
X80680Y95317D01*
X80625Y95226D01*
X80580Y95115D01*
X80545Y94984D01*
X80520Y94832D01*
X80505Y94660D01*
X80500Y94469D01*
X79500D01*
X79496Y94659D01*
X79462Y94979D01*
X79433Y95109D01*
X79396Y95219D01*
X79350Y95309D01*
X79296Y95379D01*
X79233Y95429D01*
X79162Y95459D01*
X79083Y95469D01*
X81000Y95481D01*
X80905Y95470D01*
D02*
G37*
G36*
X78007Y95471D02*
X77922Y95440D01*
X77847Y95390D01*
X77782Y95319D01*
X77727Y95228D01*
X77682Y95116D01*
X77647Y94985D01*
X77622Y94833D01*
X77607Y94661D01*
X77602Y94469D01*
X76602D01*
X76597Y94661D01*
X76582Y94833D01*
X76557Y94985D01*
X76522Y95116D01*
X76477Y95228D01*
X76422Y95319D01*
X76357Y95390D01*
X76282Y95440D01*
X76197Y95471D01*
X76102Y95481D01*
X78102D01*
X78007Y95471D01*
D02*
G37*
G36*
X62505Y94678D02*
X62520Y94506D01*
X62545Y94354D01*
X62580Y94222D01*
X62625Y94111D01*
X62680Y94020D01*
X62745Y93949D01*
X62820Y93898D01*
X62905Y93868D01*
X63000Y93858D01*
X61000D01*
X61095Y93868D01*
X61180Y93898D01*
X61255Y93949D01*
X61320Y94020D01*
X61375Y94111D01*
X61420Y94222D01*
X61455Y94354D01*
X61480Y94506D01*
X61495Y94678D01*
X61500Y94870D01*
X62500D01*
X62505Y94678D01*
D02*
G37*
G36*
X80502Y93332D02*
X80517Y93141D01*
X80530Y93057D01*
X80547Y92979D01*
X80568Y92909D01*
X80593Y92847D01*
X80621Y92792D01*
X80653Y92744D01*
X80689Y92703D01*
X79311D01*
X79347Y92744D01*
X79379Y92792D01*
X79407Y92847D01*
X79432Y92909D01*
X79453Y92979D01*
X79470Y93057D01*
X79483Y93141D01*
X79492Y93233D01*
X79500Y93438D01*
X80500D01*
X80502Y93332D01*
D02*
G37*
G36*
X105405Y93502D02*
X105320Y93472D01*
X105245Y93422D01*
X105180Y93352D01*
X105125Y93262D01*
X105080Y93152D01*
X105045Y93022D01*
X105020Y92872D01*
X105005Y92702D01*
X105000Y92512D01*
X104000D01*
X103995Y92702D01*
X103980Y92872D01*
X103955Y93022D01*
X103920Y93152D01*
X103875Y93262D01*
X103820Y93352D01*
X103755Y93422D01*
X103680Y93472D01*
X103595Y93502D01*
X103500Y93512D01*
X105500D01*
X105405Y93502D01*
D02*
G37*
G36*
X114403Y95517D02*
X114361Y95379D01*
Y95220D01*
X114403Y95039D01*
X114488Y94838D01*
X114615Y94615D01*
X114785Y94371D01*
X114997Y94106D01*
X115549Y93512D01*
X114488Y92451D01*
X114180Y92748D01*
X113629Y93215D01*
X113385Y93385D01*
X113162Y93512D01*
X112961Y93597D01*
X112780Y93639D01*
X112621D01*
X112483Y93597D01*
X112367Y93512D01*
X114488Y95633D01*
X114403Y95517D01*
D02*
G37*
G36*
X83918Y92876D02*
X83935Y92687D01*
X83949Y92603D01*
X83968Y92527D01*
X83991Y92458D01*
X84019Y92397D01*
X84051Y92344D01*
X84086Y92298D01*
X84126Y92259D01*
X82753Y92141D01*
X82784Y92183D01*
X82812Y92232D01*
X82836Y92287D01*
X82857Y92351D01*
X82875Y92421D01*
X82890Y92499D01*
X82901Y92584D01*
X82914Y92776D01*
X82916Y92883D01*
X83916Y92983D01*
X83918Y92876D01*
D02*
G37*
G36*
X68653Y92756D02*
X68621Y92708D01*
X68593Y92653D01*
X68568Y92590D01*
X68547Y92521D01*
X68530Y92443D01*
X68517Y92359D01*
X68508Y92267D01*
X68500Y92062D01*
X67500D01*
X67498Y92168D01*
X67483Y92359D01*
X67470Y92443D01*
X67453Y92521D01*
X67432Y92590D01*
X67407Y92653D01*
X67379Y92708D01*
X67347Y92756D01*
X67311Y92797D01*
X68689D01*
X68653Y92756D01*
D02*
G37*
G36*
X105005Y92298D02*
X105020Y92128D01*
X105045Y91978D01*
X105080Y91848D01*
X105125Y91738D01*
X105180Y91648D01*
X105245Y91578D01*
X105320Y91528D01*
X105405Y91498D01*
X105500Y91488D01*
X103500D01*
X103595Y91498D01*
X103680Y91528D01*
X103755Y91578D01*
X103820Y91648D01*
X103875Y91738D01*
X103920Y91848D01*
X103955Y91978D01*
X103980Y92128D01*
X103995Y92298D01*
X104000Y92488D01*
X105000D01*
X105005Y92298D01*
D02*
G37*
G36*
X47024Y89238D02*
X47011Y89335D01*
X46973Y89422D01*
X46909Y89499D01*
X46820Y89566D01*
X46705Y89622D01*
X46565Y89668D01*
X46400Y89704D01*
X46209Y89729D01*
X45992Y89745D01*
X45750Y89750D01*
X45510Y89745D01*
X45106Y89704D01*
X44942Y89668D01*
X44804Y89622D01*
X44690Y89566D01*
X44602Y89499D01*
X44539Y89422D01*
X44501Y89335D01*
X44488Y89238D01*
Y91762D01*
X44501Y91665D01*
X44539Y91578D01*
X44602Y91501D01*
X44690Y91434D01*
X44804Y91378D01*
X44942Y91332D01*
X45106Y91296D01*
X45296Y91271D01*
X45510Y91255D01*
X45750Y91250D01*
X45992Y91255D01*
X46400Y91296D01*
X46565Y91332D01*
X46705Y91378D01*
X46820Y91434D01*
X46909Y91501D01*
X46973Y91578D01*
X47011Y91665D01*
X47024Y91762D01*
Y89238D01*
D02*
G37*
G36*
X100039Y91320D02*
X100252Y91140D01*
X100317Y91095D01*
X100379Y91057D01*
X100437Y91027D01*
X100493Y91004D01*
X100546Y90988D01*
X100596Y90979D01*
X99523Y90116D01*
X99525Y90171D01*
X99519Y90229D01*
X99504Y90290D01*
X99481Y90352D01*
X99450Y90417D01*
X99410Y90484D01*
X99361Y90554D01*
X99305Y90626D01*
X99240Y90700D01*
X99166Y90777D01*
X99963Y91395D01*
X100039Y91320D01*
D02*
G37*
G36*
X52996Y91254D02*
X53018Y91253D01*
X53743Y91250D01*
Y89750D01*
X52988Y89745D01*
Y91255D01*
X52996Y91254D01*
D02*
G37*
G36*
X38524Y89000D02*
X38509Y89143D01*
X38464Y89270D01*
X38388Y89382D01*
X38282Y89480D01*
X38146Y89562D01*
X37980Y89630D01*
X37783Y89683D01*
X37556Y89720D01*
X37299Y89742D01*
X37012Y89750D01*
Y91250D01*
X37299Y91258D01*
X37556Y91280D01*
X37783Y91317D01*
X37980Y91370D01*
X38146Y91438D01*
X38282Y91520D01*
X38388Y91618D01*
X38464Y91730D01*
X38509Y91857D01*
X38524Y92000D01*
Y89000D01*
D02*
G37*
G36*
X59016Y88564D02*
X59006Y88658D01*
X58976Y88744D01*
X58925Y88819D01*
X58854Y88884D01*
X58763Y88938D01*
X58652Y88984D01*
X58520Y89018D01*
X58368Y89043D01*
X58196Y89059D01*
X58004Y89064D01*
Y90064D01*
X58196Y90069D01*
X58368Y90083D01*
X58520Y90109D01*
X58652Y90144D01*
X58763Y90188D01*
X58854Y90244D01*
X58925Y90308D01*
X58976Y90383D01*
X59006Y90469D01*
X59016Y90563D01*
Y88564D01*
D02*
G37*
G36*
X64884Y90456D02*
X64914Y90371D01*
X64965Y90296D01*
X65036Y90231D01*
X65127Y90176D01*
X65238Y90131D01*
X65369Y90096D01*
X65521Y90071D01*
X65693Y90056D01*
X65886Y90051D01*
Y89051D01*
X65693Y89046D01*
X65521Y89031D01*
X65369Y89006D01*
X65238Y88971D01*
X65127Y88926D01*
X65036Y88871D01*
X64965Y88806D01*
X64914Y88731D01*
X64884Y88646D01*
X64874Y88551D01*
Y90551D01*
X64884Y90456D01*
D02*
G37*
G36*
X100912Y87269D02*
X99625Y86826D01*
X99643Y86873D01*
X99651Y86923D01*
X99649Y86977D01*
X99636Y87034D01*
X99614Y87094D01*
X99581Y87158D01*
X99537Y87225D01*
X99484Y87296D01*
X99420Y87370D01*
X99347Y87447D01*
X100127Y88081D01*
X100912Y87269D01*
D02*
G37*
G36*
X86002Y86832D02*
X86017Y86641D01*
X86030Y86557D01*
X86047Y86479D01*
X86068Y86409D01*
X86093Y86347D01*
X86121Y86292D01*
X86153Y86244D01*
X86189Y86203D01*
X84811D01*
X84847Y86244D01*
X84879Y86292D01*
X84907Y86347D01*
X84932Y86409D01*
X84953Y86479D01*
X84970Y86557D01*
X84983Y86641D01*
X84992Y86733D01*
X85000Y86938D01*
X86000D01*
X86002Y86832D01*
D02*
G37*
G36*
X150704Y89525D02*
X150895Y89401D01*
X151114Y89292D01*
X151364Y89198D01*
X151642Y89119D01*
X151949Y89056D01*
X152286Y89007D01*
X153046Y88956D01*
X153471Y88953D01*
X150547Y86029D01*
X150544Y86454D01*
X150493Y87214D01*
X150444Y87551D01*
X150381Y87858D01*
X150302Y88137D01*
X150208Y88385D01*
X150099Y88605D01*
X149975Y88796D01*
X149836Y88957D01*
X150543Y89664D01*
X150704Y89525D01*
D02*
G37*
G36*
X120055Y87154D02*
X120077Y86898D01*
X120115Y86671D01*
X120167Y86475D01*
X120235Y86309D01*
X120317Y86173D01*
X120415Y86067D01*
X120527Y85991D01*
X120655Y85945D01*
X120797Y85929D01*
X118559Y85941D01*
X118547Y87441D01*
X120047D01*
X120055Y87154D01*
D02*
G37*
G36*
X64901Y87491D02*
X64946Y87420D01*
X65021Y87357D01*
X65126Y87303D01*
X65261Y87256D01*
X65426Y87219D01*
X65621Y87189D01*
X65846Y87168D01*
X66386Y87152D01*
Y85652D01*
X66101Y85647D01*
X65621Y85614D01*
X65426Y85584D01*
X65261Y85547D01*
X65126Y85501D01*
X65021Y85446D01*
X64946Y85383D01*
X64901Y85312D01*
X64886Y85233D01*
Y87571D01*
X64901Y87491D01*
D02*
G37*
G36*
X84797Y84811D02*
X84756Y84847D01*
X84708Y84879D01*
X84653Y84907D01*
X84591Y84932D01*
X84521Y84953D01*
X84443Y84970D01*
X84359Y84983D01*
X84267Y84992D01*
X84062Y85000D01*
Y86000D01*
X84168Y86002D01*
X84359Y86017D01*
X84443Y86030D01*
X84521Y86047D01*
X84591Y86068D01*
X84653Y86093D01*
X84708Y86121D01*
X84756Y86153D01*
X84797Y86189D01*
Y84811D01*
D02*
G37*
G36*
X26836Y85287D02*
X26859Y85030D01*
X26896Y84803D01*
X26949Y84607D01*
X27016Y84441D01*
X27099Y84304D01*
X27196Y84199D01*
X27309Y84123D01*
X27436Y84078D01*
X27579Y84063D01*
X24579D01*
X24721Y84078D01*
X24849Y84123D01*
X24961Y84199D01*
X25059Y84304D01*
X25141Y84441D01*
X25209Y84607D01*
X25261Y84803D01*
X25299Y85030D01*
X25321Y85287D01*
X25329Y85575D01*
X26829D01*
X26836Y85287D01*
D02*
G37*
G36*
X113857Y85509D02*
X113730Y85464D01*
X113618Y85388D01*
X113520Y85282D01*
X113437Y85146D01*
X113370Y84980D01*
X113318Y84783D01*
X113280Y84556D01*
X113275Y84500D01*
X113280Y84444D01*
X113318Y84217D01*
X113370Y84020D01*
X113437Y83854D01*
X113520Y83718D01*
X113618Y83612D01*
X113730Y83536D01*
X113857Y83491D01*
X114000Y83476D01*
X111000D01*
X111143Y83491D01*
X111270Y83536D01*
X111382Y83612D01*
X111480Y83718D01*
X111563Y83854D01*
X111630Y84020D01*
X111682Y84217D01*
X111720Y84444D01*
X111725Y84500D01*
X111720Y84556D01*
X111682Y84783D01*
X111630Y84980D01*
X111563Y85146D01*
X111480Y85282D01*
X111382Y85388D01*
X111270Y85464D01*
X111143Y85509D01*
X111000Y85524D01*
X114000D01*
X113857Y85509D01*
D02*
G37*
G36*
X56783Y85292D02*
X57009Y85112D01*
X57243Y84953D01*
X57486Y84815D01*
X57737Y84698D01*
X57998Y84603D01*
X58267Y84528D01*
X58545Y84475D01*
X58832Y84444D01*
X59128Y84433D01*
X59567Y82933D01*
X59282Y82918D01*
X59027Y82873D01*
X59013Y82868D01*
X59016Y82183D01*
X59000Y82326D01*
X58954Y82453D01*
X58878Y82566D01*
X58772Y82663D01*
X58668Y82726D01*
X58607Y82693D01*
X58442Y82558D01*
X58307Y82393D01*
X58202Y82198D01*
X58127Y81973D01*
X58082Y81718D01*
X58067Y81433D01*
X56567Y81872D01*
X56556Y82168D01*
X56524Y82455D01*
X56472Y82733D01*
X56397Y83002D01*
X56302Y83263D01*
X56185Y83514D01*
X56047Y83757D01*
X55888Y83991D01*
X55708Y84216D01*
X55506Y84433D01*
X56567Y85494D01*
X56783Y85292D01*
D02*
G37*
G36*
X92469Y82083D02*
X92454Y82146D01*
X92409Y82203D01*
X92334Y82253D01*
X92229Y82296D01*
X92094Y82332D01*
X91929Y82363D01*
X91734Y82386D01*
X91254Y82412D01*
X90969Y82416D01*
Y83916D01*
X91254Y83921D01*
X91734Y83961D01*
X91929Y83997D01*
X92094Y84042D01*
X92229Y84098D01*
X92334Y84163D01*
X92409Y84239D01*
X92454Y84325D01*
X92469Y84421D01*
Y82083D01*
D02*
G37*
G36*
X87936Y82423D02*
X87900Y82415D01*
X87860Y82398D01*
X87815Y82374D01*
X87764Y82341D01*
X87708Y82301D01*
X87582Y82197D01*
X87435Y82061D01*
X87353Y81981D01*
X86646Y82689D01*
X86726Y82770D01*
X86966Y83043D01*
X87006Y83099D01*
X87039Y83150D01*
X87063Y83195D01*
X87080Y83236D01*
X87088Y83271D01*
X87936Y82423D01*
D02*
G37*
G36*
X124444Y84358D02*
X124489Y84230D01*
X124565Y84118D01*
X124671Y84020D01*
X124807Y83938D01*
X124973Y83870D01*
X125170Y83817D01*
X125396Y83780D01*
X125654Y83758D01*
X125941Y83750D01*
Y82250D01*
X125654Y82243D01*
X125396Y82220D01*
X125170Y82183D01*
X124973Y82130D01*
X124807Y82063D01*
X124671Y81980D01*
X124565Y81883D01*
X124489Y81770D01*
X124444Y81643D01*
X124429Y81500D01*
Y84500D01*
X124444Y84358D01*
D02*
G37*
G36*
X77631Y83926D02*
X77648Y83878D01*
X77812Y83696D01*
X77911Y83555D01*
X77970Y83436D01*
X78000Y83337D01*
X78008Y83252D01*
X78000Y83167D01*
X77970Y83068D01*
X77911Y82949D01*
X77812Y82808D01*
X77648Y82626D01*
X77631Y82577D01*
X76532Y81479D01*
X66456D01*
X66406Y81502D01*
X65898Y81517D01*
Y82752D01*
X61945D01*
Y83752D01*
X65898D01*
Y84982D01*
X66128Y84998D01*
X66395Y85002D01*
X66448Y85025D01*
X76532D01*
X77631Y83926D01*
D02*
G37*
G36*
X79719Y84861D02*
X79944Y84681D01*
X80178Y84522D01*
X80421Y84384D01*
X80673Y84267D01*
X80933Y84172D01*
X81202Y84097D01*
X81480Y84044D01*
X81767Y84013D01*
X82063Y84002D01*
Y82502D01*
X81767Y82491D01*
X81480Y82459D01*
X81202Y82407D01*
X80933Y82332D01*
X80673Y82237D01*
X80421Y82120D01*
X80178Y81982D01*
X79944Y81823D01*
X79719Y81643D01*
X79502Y81441D01*
X78131Y82191D01*
X78322Y82403D01*
X78470Y82616D01*
X78576Y82828D01*
X78640Y83040D01*
X78661Y83252D01*
X78640Y83464D01*
X78576Y83676D01*
X78470Y83888D01*
X78322Y84101D01*
X78131Y84313D01*
X79502Y85063D01*
X79719Y84861D01*
D02*
G37*
G36*
X129391Y80933D02*
X129134Y81183D01*
X128877Y81407D01*
X128622Y81605D01*
X128369Y81776D01*
X128116Y81921D01*
X127865Y82039D01*
X127615Y82131D01*
X127366Y82197D01*
X127119Y82237D01*
X126872Y82250D01*
Y83750D01*
X127119Y83763D01*
X127366Y83803D01*
X127615Y83868D01*
X127865Y83961D01*
X128116Y84079D01*
X128369Y84224D01*
X128622Y84395D01*
X128877Y84593D01*
X129134Y84817D01*
X129391Y85067D01*
Y80933D01*
D02*
G37*
G36*
X102524Y79102D02*
X102514Y79197D01*
X102483Y79282D01*
X102433Y79357D01*
X102362Y79422D01*
X102271Y79477D01*
X102160Y79522D01*
X102028Y79557D01*
X101876Y79582D01*
X101704Y79597D01*
X101512Y79602D01*
Y80602D01*
X101704Y80607D01*
X101876Y80622D01*
X102028Y80647D01*
X102160Y80682D01*
X102271Y80727D01*
X102362Y80782D01*
X102433Y80847D01*
X102483Y80922D01*
X102514Y81007D01*
X102524Y81102D01*
Y79102D01*
D02*
G37*
G36*
X98348Y81007D02*
X98379Y80922D01*
X98429Y80847D01*
X98500Y80782D01*
X98591Y80727D01*
X98703Y80682D01*
X98834Y80647D01*
X98986Y80622D01*
X99158Y80607D01*
X99350Y80602D01*
Y79602D01*
X99158Y79597D01*
X98986Y79582D01*
X98834Y79557D01*
X98703Y79522D01*
X98591Y79477D01*
X98500Y79422D01*
X98429Y79357D01*
X98379Y79282D01*
X98348Y79197D01*
X98338Y79102D01*
Y81102D01*
X98348Y81007D01*
D02*
G37*
G36*
X64901Y81192D02*
X64946Y81121D01*
X65021Y81058D01*
X65126Y81003D01*
X65261Y80957D01*
X65426Y80919D01*
X65621Y80890D01*
X65846Y80869D01*
X66386Y80852D01*
Y79352D01*
X66101Y79348D01*
X65621Y79315D01*
X65426Y79285D01*
X65261Y79248D01*
X65126Y79202D01*
X65021Y79147D01*
X64946Y79084D01*
X64901Y79013D01*
X64886Y78933D01*
Y81271D01*
X64901Y81192D01*
D02*
G37*
G36*
X122857Y80044D02*
X122730Y79999D01*
X122617Y79924D01*
X122520Y79819D01*
X122438Y79684D01*
X122370Y79519D01*
X122318Y79324D01*
X122280Y79099D01*
X122257Y78844D01*
X122250Y78559D01*
X120750D01*
X120742Y78844D01*
X120720Y79099D01*
X120683Y79324D01*
X120630Y79519D01*
X120563Y79684D01*
X120480Y79819D01*
X120382Y79924D01*
X120270Y79999D01*
X120142Y80044D01*
X120000Y80059D01*
X123000D01*
X122857Y80044D01*
D02*
G37*
G36*
X87502Y78332D02*
X87517Y78141D01*
X87530Y78057D01*
X87547Y77979D01*
X87568Y77909D01*
X87593Y77847D01*
X87621Y77792D01*
X87653Y77744D01*
X87689Y77703D01*
X86311D01*
X86347Y77744D01*
X86379Y77792D01*
X86407Y77847D01*
X86432Y77909D01*
X86453Y77979D01*
X86470Y78057D01*
X86483Y78141D01*
X86492Y78233D01*
X86500Y78438D01*
X87500D01*
X87502Y78332D01*
D02*
G37*
G36*
X53857Y78509D02*
X53730Y78464D01*
X53618Y78388D01*
X53520Y78282D01*
X53438Y78146D01*
X53370Y77980D01*
X53317Y77783D01*
X53280Y77556D01*
X53258Y77299D01*
X53250Y77012D01*
X51750D01*
X51743Y77299D01*
X51720Y77556D01*
X51683Y77783D01*
X51630Y77980D01*
X51562Y78146D01*
X51480Y78282D01*
X51382Y78388D01*
X51270Y78464D01*
X51143Y78509D01*
X51000Y78524D01*
X54000D01*
X53857Y78509D01*
D02*
G37*
G36*
X98348Y77881D02*
X98379Y77796D01*
X98429Y77721D01*
X98500Y77656D01*
X98591Y77601D01*
X98703Y77556D01*
X98834Y77521D01*
X98986Y77496D01*
X99158Y77481D01*
X99183Y77481D01*
X99345Y77494D01*
X99429Y77508D01*
X99506Y77525D01*
X99576Y77547D01*
X99638Y77572D01*
X99693Y77601D01*
X99741Y77635D01*
X99781Y77672D01*
X99814Y76294D01*
X99773Y76329D01*
X99724Y76360D01*
X99669Y76387D01*
X99606Y76411D01*
X99536Y76431D01*
X99458Y76447D01*
X99374Y76460D01*
X99207Y76473D01*
X99158Y76471D01*
X98986Y76456D01*
X98834Y76431D01*
X98703Y76396D01*
X98591Y76351D01*
X98500Y76296D01*
X98429Y76231D01*
X98379Y76156D01*
X98348Y76071D01*
X98338Y75976D01*
Y77976D01*
X98348Y77881D01*
D02*
G37*
G36*
X150704Y79525D02*
X150895Y79401D01*
X151114Y79292D01*
X151364Y79198D01*
X151642Y79119D01*
X151949Y79056D01*
X152286Y79007D01*
X153046Y78956D01*
X153471Y78953D01*
X150547Y76029D01*
X150544Y76454D01*
X150493Y77214D01*
X150444Y77551D01*
X150381Y77858D01*
X150302Y78136D01*
X150208Y78386D01*
X150099Y78605D01*
X149975Y78796D01*
X149836Y78957D01*
X150543Y79664D01*
X150704Y79525D01*
D02*
G37*
G36*
X64901Y78042D02*
X64946Y77971D01*
X65021Y77908D01*
X65126Y77854D01*
X65261Y77807D01*
X65426Y77770D01*
X65621Y77741D01*
X65846Y77719D01*
X66386Y77703D01*
Y76203D01*
X66101Y76199D01*
X65621Y76165D01*
X65426Y76136D01*
X65261Y76098D01*
X65126Y76052D01*
X65021Y75997D01*
X64946Y75934D01*
X64901Y75863D01*
X64886Y75784D01*
Y78122D01*
X64901Y78042D01*
D02*
G37*
G36*
X113857Y77497D02*
X113730Y77452D01*
X113618Y77377D01*
X113520Y77272D01*
X113437Y77137D01*
X113370Y76972D01*
X113318Y76777D01*
X113280Y76552D01*
X113275Y76498D01*
X113280Y76444D01*
X113318Y76217D01*
X113370Y76020D01*
X113437Y75854D01*
X113520Y75718D01*
X113618Y75612D01*
X113730Y75537D01*
X113857Y75491D01*
X114000Y75476D01*
X111000D01*
X111143Y75491D01*
X111270Y75537D01*
X111382Y75612D01*
X111480Y75718D01*
X111563Y75854D01*
X111630Y76020D01*
X111682Y76217D01*
X111720Y76444D01*
X111725Y76498D01*
X111720Y76552D01*
X111682Y76777D01*
X111630Y76972D01*
X111563Y77137D01*
X111480Y77272D01*
X111382Y77377D01*
X111270Y77452D01*
X111143Y77497D01*
X111000Y77512D01*
X114000D01*
X113857Y77497D01*
D02*
G37*
G36*
X53258Y76701D02*
X53280Y76444D01*
X53317Y76217D01*
X53370Y76020D01*
X53438Y75854D01*
X53520Y75718D01*
X53618Y75612D01*
X53730Y75537D01*
X53857Y75491D01*
X54000Y75476D01*
X51000D01*
X51143Y75491D01*
X51270Y75537D01*
X51382Y75612D01*
X51480Y75718D01*
X51562Y75854D01*
X51630Y76020D01*
X51683Y76217D01*
X51720Y76444D01*
X51743Y76701D01*
X51750Y76988D01*
X53250D01*
X53258Y76701D01*
D02*
G37*
G36*
X17664Y76457D02*
X17525Y76296D01*
X17401Y76105D01*
X17292Y75885D01*
X17198Y75637D01*
X17120Y75358D01*
X17056Y75051D01*
X17007Y74714D01*
X16956Y73954D01*
X16953Y73529D01*
X14029Y76453D01*
X14454Y76456D01*
X15214Y76507D01*
X15551Y76556D01*
X15858Y76619D01*
X16137Y76698D01*
X16386Y76792D01*
X16605Y76901D01*
X16796Y77025D01*
X16957Y77164D01*
X17664Y76457D01*
D02*
G37*
G36*
X98365Y74893D02*
X98410Y74821D01*
X98485Y74758D01*
X98590Y74704D01*
X98725Y74658D01*
X98890Y74620D01*
X99085Y74591D01*
X99310Y74570D01*
X99850Y74553D01*
Y73053D01*
X99565Y73049D01*
X99085Y73015D01*
X98890Y72986D01*
X98725Y72948D01*
X98590Y72902D01*
X98485Y72848D01*
X98410Y72785D01*
X98365Y72714D01*
X98350Y72634D01*
Y74972D01*
X98365Y74893D01*
D02*
G37*
G36*
X92469Y72634D02*
X92454Y72714D01*
X92409Y72785D01*
X92334Y72848D01*
X92229Y72902D01*
X92094Y72948D01*
X91929Y72986D01*
X91734Y73015D01*
X91509Y73036D01*
X90969Y73053D01*
Y74553D01*
X91254Y74557D01*
X91734Y74591D01*
X91929Y74620D01*
X92094Y74658D01*
X92229Y74704D01*
X92334Y74758D01*
X92409Y74821D01*
X92454Y74893D01*
X92469Y74972D01*
Y72634D01*
D02*
G37*
G36*
X59004D02*
X58989Y72714D01*
X58944Y72785D01*
X58869Y72848D01*
X58764Y72902D01*
X58629Y72948D01*
X58464Y72986D01*
X58269Y73015D01*
X58044Y73036D01*
X57504Y73053D01*
Y74553D01*
X57789Y74557D01*
X58269Y74591D01*
X58464Y74620D01*
X58629Y74658D01*
X58764Y74704D01*
X58869Y74758D01*
X58944Y74821D01*
X58989Y74893D01*
X59004Y74972D01*
Y72634D01*
D02*
G37*
G36*
X102524Y72303D02*
X102509Y72446D01*
X102463Y72573D01*
X102388Y72686D01*
X102282Y72783D01*
X102146Y72866D01*
X101980Y72933D01*
X101783Y72986D01*
X101556Y73023D01*
X101299Y73046D01*
X101012Y73053D01*
Y74553D01*
X101299Y74561D01*
X101556Y74583D01*
X101783Y74621D01*
X101980Y74673D01*
X102146Y74741D01*
X102282Y74823D01*
X102388Y74921D01*
X102463Y75033D01*
X102509Y75161D01*
X102524Y75303D01*
Y72303D01*
D02*
G37*
G36*
X54491Y75161D02*
X54536Y75033D01*
X54612Y74921D01*
X54718Y74823D01*
X54854Y74741D01*
X55020Y74673D01*
X55217Y74621D01*
X55444Y74583D01*
X55701Y74561D01*
X55988Y74553D01*
Y73053D01*
X55701Y73046D01*
X55444Y73023D01*
X55217Y72986D01*
X55020Y72933D01*
X54854Y72866D01*
X54718Y72783D01*
X54612Y72686D01*
X54536Y72573D01*
X54491Y72446D01*
X54476Y72303D01*
Y75303D01*
X54491Y75161D01*
D02*
G37*
G36*
X86500Y71576D02*
X86774Y71631D01*
X87431Y72069D01*
X87669Y72427D01*
X90898D01*
X90949Y72404D01*
X91457Y72388D01*
Y71622D01*
X91857D01*
Y68872D01*
X94618D01*
X94622Y68856D01*
X94638Y68762D01*
X94649Y68637D01*
X94653Y68467D01*
X94681Y68405D01*
Y59512D01*
X94181Y59342D01*
X94034Y59534D01*
X93292Y60103D01*
X92427Y60461D01*
X91500Y60583D01*
X91167Y60540D01*
X90861Y60899D01*
X91014Y61392D01*
X91482D01*
Y68498D01*
X84683D01*
X84681Y68506D01*
X84665Y68602D01*
X84654Y68730D01*
X84649Y68902D01*
X84622Y68965D01*
Y70093D01*
X84649Y70153D01*
X84656Y70337D01*
X84661Y70391D01*
X84669Y70439D01*
X84676Y70473D01*
X84683Y70494D01*
X84684Y70497D01*
X84693Y70510D01*
X84694Y70519D01*
X84699Y70527D01*
X84701Y70550D01*
X84703Y70562D01*
X84705Y70567D01*
X84992Y70997D01*
X85032Y71198D01*
X85214Y71604D01*
X85500Y71570D01*
Y73500D01*
X86500D01*
Y71576D01*
D02*
G37*
G36*
X114491Y73857D02*
X114536Y73730D01*
X114612Y73618D01*
X114718Y73520D01*
X114854Y73438D01*
X115020Y73370D01*
X115217Y73317D01*
X115444Y73280D01*
X115701Y73257D01*
X115988Y73250D01*
Y71750D01*
X115701Y71742D01*
X115444Y71720D01*
X115217Y71683D01*
X115020Y71630D01*
X114854Y71562D01*
X114718Y71480D01*
X114612Y71382D01*
X114536Y71270D01*
X114491Y71143D01*
X114476Y71000D01*
Y74000D01*
X114491Y73857D01*
D02*
G37*
G36*
X84153Y70872D02*
X84121Y70824D01*
X84093Y70768D01*
X84068Y70706D01*
X84047Y70636D01*
X84030Y70559D01*
X84017Y70474D01*
X84008Y70382D01*
X84000Y70177D01*
X83000D01*
X82998Y70283D01*
X82983Y70474D01*
X82970Y70559D01*
X82953Y70636D01*
X82932Y70706D01*
X82907Y70768D01*
X82879Y70824D01*
X82847Y70872D01*
X82811Y70912D01*
X84189D01*
X84153Y70872D01*
D02*
G37*
G36*
X96708Y69475D02*
X96623Y69444D01*
X96548Y69394D01*
X96483Y69324D01*
X96428Y69235D01*
X96383Y69125D01*
X96348Y68994D01*
X96323Y68844D01*
X96308Y68674D01*
X96303Y68484D01*
X95303D01*
X95298Y68674D01*
X95283Y68844D01*
X95258Y68994D01*
X95223Y69125D01*
X95178Y69235D01*
X95123Y69324D01*
X95058Y69394D01*
X94983Y69444D01*
X94898Y69475D01*
X94803Y69485D01*
X96803D01*
X96708Y69475D01*
D02*
G37*
G36*
X106403Y71517D02*
X106361Y71379D01*
Y71220D01*
X106403Y71039D01*
X106488Y70838D01*
X106615Y70615D01*
X106785Y70371D01*
X106997Y70106D01*
X107549Y69512D01*
X106488Y68451D01*
X106180Y68748D01*
X105629Y69215D01*
X105385Y69385D01*
X105162Y69512D01*
X104961Y69597D01*
X104780Y69639D01*
X104621D01*
X104483Y69597D01*
X104367Y69512D01*
X106488Y71633D01*
X106403Y71517D01*
D02*
G37*
G36*
X84005Y68693D02*
X84020Y68521D01*
X84045Y68370D01*
X84080Y68238D01*
X84125Y68127D01*
X84180Y68036D01*
X84245Y67965D01*
X84320Y67914D01*
X84405Y67884D01*
X84500Y67874D01*
X82500D01*
X82595Y67884D01*
X82680Y67914D01*
X82755Y67965D01*
X82820Y68036D01*
X82875Y68127D01*
X82920Y68238D01*
X82955Y68370D01*
X82980Y68521D01*
X82995Y68693D01*
X83000Y68886D01*
X84000D01*
X84005Y68693D01*
D02*
G37*
G36*
X74672Y69281D02*
X74635Y69241D01*
X74602Y69193D01*
X74572Y69138D01*
X74547Y69076D01*
X74525Y69006D01*
X74508Y68929D01*
X74494Y68845D01*
X74484Y68753D01*
X74482Y68689D01*
X74496Y68521D01*
X74521Y68370D01*
X74556Y68238D01*
X74601Y68127D01*
X74656Y68036D01*
X74721Y67965D01*
X74796Y67914D01*
X74881Y67884D01*
X74976Y67874D01*
X72976D01*
X73071Y67884D01*
X73156Y67914D01*
X73231Y67965D01*
X73296Y68036D01*
X73351Y68127D01*
X73396Y68238D01*
X73431Y68370D01*
X73456Y68521D01*
X73471Y68693D01*
X73472Y68716D01*
X73460Y68874D01*
X73447Y68958D01*
X73431Y69036D01*
X73411Y69106D01*
X73387Y69169D01*
X73360Y69224D01*
X73329Y69273D01*
X73294Y69314D01*
X74672Y69281D01*
D02*
G37*
G36*
X68555Y69187D02*
X68511Y69152D01*
X68472Y69109D01*
X68438Y69058D01*
X68409Y68999D01*
X68384Y68933D01*
X68363Y68858D01*
X68347Y68776D01*
X68336Y68685D01*
X68335Y68665D01*
X68347Y68526D01*
X68371Y68376D01*
X68406Y68246D01*
X68451Y68136D01*
X68505Y68046D01*
X68570Y67976D01*
X68644Y67926D01*
X68728Y67896D01*
X68823Y67886D01*
X66827Y67874D01*
X66922Y67884D01*
X67007Y67915D01*
X67082Y67966D01*
X67147Y68037D01*
X67202Y68128D01*
X67247Y68239D01*
X67282Y68371D01*
X67307Y68522D01*
X67322Y68694D01*
X67325Y68809D01*
X67306Y69077D01*
X67295Y69154D01*
X67264Y69287D01*
X67244Y69342D01*
X67222Y69389D01*
X67198Y69429D01*
X68555Y69187D01*
D02*
G37*
G36*
X98862Y66988D02*
X98904Y66948D01*
X98954Y66914D01*
X99012Y66883D01*
X99078Y66858D01*
X99152Y66837D01*
X99234Y66821D01*
X99324Y66809D01*
X99422Y66802D01*
X99528Y66800D01*
X99282Y65800D01*
X99174Y65799D01*
X98897Y65781D01*
X98819Y65771D01*
X98688Y65742D01*
X98634Y65725D01*
X98587Y65705D01*
X98548Y65683D01*
X98828Y67032D01*
X98862Y66988D01*
D02*
G37*
G36*
X151072Y64320D02*
X150840Y64639D01*
X150608Y64925D01*
X150377Y65177D01*
X150146Y65395D01*
X149917Y65580D01*
X149687Y65731D01*
X149459Y65849D01*
X149230Y65933D01*
X149003Y65983D01*
X148776Y66000D01*
X148950Y67000D01*
X149139Y67014D01*
X149348Y67056D01*
X149578Y67125D01*
X149829Y67223D01*
X150101Y67348D01*
X150707Y67683D01*
X151041Y67892D01*
X151772Y68394D01*
X151072Y64320D01*
D02*
G37*
G36*
X100744Y64153D02*
X100792Y64121D01*
X100847Y64093D01*
X100909Y64068D01*
X100979Y64047D01*
X101057Y64030D01*
X101141Y64017D01*
X101233Y64008D01*
X101438Y64000D01*
Y63000D01*
X101332Y62998D01*
X101141Y62983D01*
X101057Y62970D01*
X100979Y62953D01*
X100909Y62932D01*
X100847Y62907D01*
X100792Y62879D01*
X100744Y62847D01*
X100703Y62811D01*
Y64189D01*
X100744Y64153D01*
D02*
G37*
G36*
X90447Y62008D02*
X90395Y61984D01*
X90349Y61943D01*
X90310Y61886D01*
X90277Y61812D01*
X90249Y61723D01*
X90228Y61617D01*
X90213Y61494D01*
X90204Y61356D01*
X90201Y61201D01*
X89201D01*
X89198Y61356D01*
X89174Y61617D01*
X89152Y61723D01*
X89125Y61812D01*
X89092Y61886D01*
X89052Y61943D01*
X89007Y61984D01*
X88955Y62008D01*
X88897Y62016D01*
X90504D01*
X90447Y62008D01*
D02*
G37*
G36*
X80476Y62005D02*
X80391Y61974D01*
X80316Y61923D01*
X80251Y61852D01*
X80196Y61761D01*
X80151Y61650D01*
X80116Y61519D01*
X80091Y61367D01*
X80076Y61196D01*
X80071Y61004D01*
X79071D01*
X79083Y62004D01*
X80571Y62016D01*
X80476Y62005D01*
D02*
G37*
G36*
X77903Y62006D02*
X77818Y61976D01*
X77743Y61925D01*
X77678Y61854D01*
X77623Y61763D01*
X77578Y61652D01*
X77543Y61520D01*
X77518Y61369D01*
X77503Y61196D01*
X77498Y61004D01*
X76498D01*
X76493Y61196D01*
X76478Y61369D01*
X76453Y61520D01*
X76418Y61652D01*
X76373Y61763D01*
X76318Y61854D01*
X76253Y61925D01*
X76178Y61976D01*
X76093Y62006D01*
X75998Y62016D01*
X77998D01*
X77903Y62006D01*
D02*
G37*
G36*
X67877Y62005D02*
X67792Y61974D01*
X67717Y61923D01*
X67652Y61852D01*
X67598Y61761D01*
X67552Y61650D01*
X67517Y61519D01*
X67492Y61367D01*
X67477Y61196D01*
X67472Y61004D01*
X66473D01*
X66484Y62004D01*
X67972Y62016D01*
X67877Y62005D01*
D02*
G37*
G36*
X16967Y63932D02*
X17778Y61909D01*
X17890Y61712D01*
X17995Y61557D01*
X18093Y61441D01*
X17628Y60493D01*
X17449Y60647D01*
X17251Y60772D01*
X17033Y60868D01*
X16796Y60934D01*
X16539Y60970D01*
X16264Y60977D01*
X15968Y60954D01*
X15654Y60902D01*
X15320Y60821D01*
X14967Y60710D01*
X16809Y64411D01*
X16967Y63932D01*
D02*
G37*
G36*
X150704Y59525D02*
X150895Y59401D01*
X151114Y59292D01*
X151364Y59198D01*
X151642Y59119D01*
X151949Y59056D01*
X152286Y59007D01*
X153046Y58956D01*
X153471Y58953D01*
X150547Y56029D01*
X150544Y56454D01*
X150493Y57214D01*
X150444Y57551D01*
X150381Y57858D01*
X150302Y58136D01*
X150208Y58385D01*
X150099Y58605D01*
X149975Y58796D01*
X149836Y58957D01*
X150543Y59664D01*
X150704Y59525D01*
D02*
G37*
G36*
X82000Y53079D02*
X82532Y53149D01*
X83493Y53547D01*
X83931Y53883D01*
X84373Y53666D01*
X84416Y53175D01*
X77362Y46121D01*
X77168Y46158D01*
X76961Y46213D01*
X76749Y46284D01*
X76533Y46373D01*
X76319Y46477D01*
X75848Y46754D01*
X75608Y46921D01*
X75560Y46931D01*
X75527Y46968D01*
X75461Y46973D01*
X75292Y47103D01*
X74427Y47461D01*
X73500Y47583D01*
X72573Y47461D01*
X72020Y47232D01*
X71737Y47656D01*
X78142Y54062D01*
X78464Y54133D01*
X78796Y54092D01*
X79507Y53547D01*
X80468Y53149D01*
X81000Y53079D01*
Y57000D01*
X82000D01*
Y53079D01*
D02*
G37*
G36*
X134463Y56808D02*
X134496Y56638D01*
X134554Y56461D01*
X134634Y56276D01*
X134738Y56083D01*
X134866Y55884D01*
X135017Y55676D01*
X135192Y55461D01*
X135612Y55010D01*
X133491Y52888D01*
X133261Y53110D01*
X132824Y53483D01*
X132616Y53634D01*
X132417Y53762D01*
X132224Y53866D01*
X132039Y53946D01*
X131862Y54004D01*
X131692Y54037D01*
X131529Y54047D01*
X134453Y56971D01*
X134463Y56808D01*
D02*
G37*
G36*
X16833Y52640D02*
X16838Y52579D01*
X16857Y52512D01*
X16888Y52437D01*
X16933Y52356D01*
X16991Y52269D01*
X17062Y52175D01*
X17243Y51967D01*
X17354Y51854D01*
X16646Y51146D01*
X16567Y51222D01*
X16491Y51285D01*
X16420Y51337D01*
X16353Y51376D01*
X16289Y51403D01*
X16230Y51419D01*
X16175Y51422D01*
X16124Y51413D01*
X16077Y51392D01*
X16034Y51359D01*
X16841Y52695D01*
X16833Y52640D01*
D02*
G37*
G36*
X96304Y47751D02*
X96352Y47101D01*
X96370Y47031D01*
X96391Y46981D01*
X96415Y46951D01*
X96441Y46941D01*
X94803Y46929D01*
X94898Y46940D01*
X94983Y46970D01*
X95058Y47021D01*
X95123Y47092D01*
X95178Y47184D01*
X95223Y47295D01*
X95258Y47426D01*
X95283Y47578D01*
X95298Y47749D01*
X95303Y47941D01*
X96303D01*
X96304Y47751D01*
D02*
G37*
G36*
X87164Y46957D02*
X87025Y46796D01*
X86901Y46605D01*
X86792Y46385D01*
X86698Y46137D01*
X86620Y45858D01*
X86556Y45551D01*
X86507Y45215D01*
X86456Y44454D01*
X86453Y44030D01*
X83530Y46953D01*
X83954Y46956D01*
X84715Y47007D01*
X85051Y47056D01*
X85358Y47120D01*
X85637Y47198D01*
X85886Y47292D01*
X86105Y47401D01*
X86296Y47525D01*
X86457Y47664D01*
X87164Y46957D01*
D02*
G37*
G36*
X75498Y46207D02*
X76013Y45903D01*
X76268Y45780D01*
X76521Y45676D01*
X76773Y45590D01*
X77024Y45524D01*
X77273Y45477D01*
X77520Y45448D01*
X77766Y45439D01*
Y44439D01*
X77563Y44426D01*
X77373Y44387D01*
X77197Y44322D01*
X77033Y44231D01*
X76882Y44115D01*
X76745Y43972D01*
X76620Y43804D01*
X76509Y43609D01*
X76411Y43389D01*
X76326Y43143D01*
X75238Y46387D01*
X75498Y46207D01*
D02*
G37*
G36*
X94405Y41049D02*
X94320Y41019D01*
X94245Y40969D01*
X94180Y40899D01*
X94125Y40809D01*
X94080Y40699D01*
X94045Y40569D01*
X94020Y40419D01*
X94005Y40249D01*
X94000Y40059D01*
X93000D01*
X92995Y40249D01*
X92980Y40419D01*
X92955Y40569D01*
X92920Y40699D01*
X92875Y40809D01*
X92820Y40899D01*
X92755Y40969D01*
X92680Y41019D01*
X92595Y41049D01*
X92500Y41059D01*
X94500D01*
X94405Y41049D01*
D02*
G37*
G36*
X85269Y41589D02*
X84768Y41015D01*
X84564Y40742D01*
X84392Y40480D01*
X84251Y40228D01*
X84141Y39985D01*
X84063Y39753D01*
X84016Y39531D01*
X84000Y39318D01*
X83000D01*
X82984Y39531D01*
X82937Y39753D01*
X82859Y39985D01*
X82749Y40228D01*
X82608Y40480D01*
X82436Y40742D01*
X82232Y41015D01*
X81731Y41589D01*
X81433Y41891D01*
X85567D01*
X85269Y41589D01*
D02*
G37*
G36*
X75269D02*
X74768Y41015D01*
X74564Y40742D01*
X74392Y40480D01*
X74251Y40228D01*
X74141Y39985D01*
X74063Y39753D01*
X74016Y39531D01*
X74000Y39318D01*
X73000D01*
X72984Y39531D01*
X72937Y39753D01*
X72859Y39985D01*
X72749Y40228D01*
X72608Y40480D01*
X72436Y40742D01*
X72232Y41015D01*
X71731Y41589D01*
X71433Y41891D01*
X75567D01*
X75269Y41589D01*
D02*
G37*
G36*
X44005Y35249D02*
X44020Y35076D01*
X44045Y34925D01*
X44080Y34793D01*
X44125Y34682D01*
X44180Y34591D01*
X44245Y34520D01*
X44320Y34469D01*
X44405Y34439D01*
X44500Y34429D01*
X42500D01*
X42595Y34439D01*
X42680Y34469D01*
X42755Y34520D01*
X42820Y34591D01*
X42875Y34682D01*
X42920Y34793D01*
X42955Y34925D01*
X42980Y35076D01*
X42995Y35249D01*
X43000Y35441D01*
X44000D01*
X44005Y35249D01*
D02*
G37*
G36*
X94016Y35969D02*
X94063Y35747D01*
X94141Y35515D01*
X94251Y35272D01*
X94392Y35020D01*
X94564Y34758D01*
X94768Y34485D01*
X95269Y33911D01*
X95567Y33609D01*
X91433D01*
X91731Y33911D01*
X92232Y34485D01*
X92436Y34758D01*
X92608Y35020D01*
X92749Y35272D01*
X92859Y35515D01*
X92937Y35747D01*
X92984Y35969D01*
X93000Y36182D01*
X94000D01*
X94016Y35969D01*
D02*
G37*
G36*
X84016D02*
X84063Y35747D01*
X84141Y35515D01*
X84251Y35272D01*
X84392Y35020D01*
X84564Y34758D01*
X84768Y34485D01*
X85269Y33911D01*
X85567Y33609D01*
X81433D01*
X81731Y33911D01*
X82232Y34485D01*
X82436Y34758D01*
X82608Y35020D01*
X82749Y35272D01*
X82859Y35515D01*
X82937Y35747D01*
X82984Y35969D01*
X83000Y36182D01*
X84000D01*
X84016Y35969D01*
D02*
G37*
G36*
X74016D02*
X74063Y35747D01*
X74141Y35515D01*
X74251Y35272D01*
X74392Y35020D01*
X74564Y34758D01*
X74768Y34485D01*
X75269Y33911D01*
X75567Y33609D01*
X71433D01*
X71731Y33911D01*
X72232Y34485D01*
X72436Y34758D01*
X72608Y35020D01*
X72749Y35272D01*
X72859Y35515D01*
X72937Y35747D01*
X72984Y35969D01*
X73000Y36182D01*
X74000D01*
X74016Y35969D01*
D02*
G37*
G36*
X54500Y36050D02*
X54514Y35861D01*
X54556Y35652D01*
X54625Y35422D01*
X54723Y35171D01*
X54848Y34899D01*
X55183Y34293D01*
X55392Y33959D01*
X55894Y33228D01*
X51820Y33928D01*
X52139Y34160D01*
X52425Y34392D01*
X52677Y34623D01*
X52895Y34854D01*
X53080Y35083D01*
X53231Y35313D01*
X53349Y35541D01*
X53433Y35770D01*
X53483Y35997D01*
X53500Y36224D01*
X54500Y36050D01*
D02*
G37*
G36*
X102524Y30000D02*
X102509Y30143D01*
X102463Y30270D01*
X102388Y30382D01*
X102282Y30480D01*
X102146Y30562D01*
X101980Y30630D01*
X101783Y30683D01*
X101556Y30720D01*
X101299Y30742D01*
X101012Y30750D01*
Y32250D01*
X101299Y32258D01*
X101556Y32280D01*
X101783Y32318D01*
X101980Y32370D01*
X102146Y32438D01*
X102282Y32520D01*
X102388Y32618D01*
X102463Y32730D01*
X102509Y32857D01*
X102524Y33000D01*
Y30000D01*
D02*
G37*
G36*
X95866Y33317D02*
X96122Y33093D01*
X96377Y32895D01*
X96631Y32724D01*
X96884Y32579D01*
X97135Y32461D01*
X97385Y32368D01*
X97634Y32303D01*
X97881Y32263D01*
X98128Y32250D01*
Y30750D01*
X97881Y30737D01*
X97634Y30697D01*
X97385Y30632D01*
X97135Y30539D01*
X96884Y30421D01*
X96631Y30276D01*
X96377Y30105D01*
X96122Y29907D01*
X95866Y29683D01*
X95609Y29433D01*
Y33567D01*
X95866Y33317D01*
D02*
G37*
%LPC*%
G36*
X71953Y152453D02*
X68500D01*
Y149000D01*
X71953D01*
Y152453D01*
D02*
G37*
G36*
X67500D02*
X64047D01*
Y149000D01*
X67500D01*
Y152453D01*
D02*
G37*
G36*
X108000Y152083D02*
X107073Y151961D01*
X106208Y151603D01*
X105466Y151034D01*
X104897Y150292D01*
X104539Y149427D01*
X104417Y148500D01*
X104539Y147573D01*
X104897Y146708D01*
X105466Y145966D01*
X106208Y145397D01*
X107073Y145039D01*
X108000Y144917D01*
X108927Y145039D01*
X109792Y145397D01*
X110534Y145966D01*
X111103Y146708D01*
X111461Y147573D01*
X111583Y148500D01*
X111461Y149427D01*
X111103Y150292D01*
X110534Y151034D01*
X109792Y151603D01*
X108927Y151961D01*
X108000Y152083D01*
D02*
G37*
G36*
X98000D02*
X97073Y151961D01*
X96208Y151603D01*
X95466Y151034D01*
X94897Y150292D01*
X94539Y149427D01*
X94417Y148500D01*
X94539Y147573D01*
X94897Y146708D01*
X95466Y145966D01*
X96208Y145397D01*
X97073Y145039D01*
X98000Y144917D01*
X98927Y145039D01*
X99792Y145397D01*
X100534Y145966D01*
X101103Y146708D01*
X101461Y147573D01*
X101583Y148500D01*
X101461Y149427D01*
X101103Y150292D01*
X100534Y151034D01*
X99792Y151603D01*
X98927Y151961D01*
X98000Y152083D01*
D02*
G37*
G36*
X88000D02*
X87073Y151961D01*
X86208Y151603D01*
X85466Y151034D01*
X84897Y150292D01*
X84539Y149427D01*
X84417Y148500D01*
X84539Y147573D01*
X84897Y146708D01*
X85466Y145966D01*
X85702Y145785D01*
X85736Y145704D01*
X85767Y145691D01*
X85783Y145661D01*
X86016Y145471D01*
X86206Y145294D01*
X86369Y145120D01*
X86506Y144949D01*
X86617Y144783D01*
X86704Y144622D01*
X86769Y144464D01*
X86814Y144309D01*
X86841Y144156D01*
X86852Y143963D01*
X86910Y143843D01*
X86964Y143571D01*
X87207Y143207D01*
X89207Y141207D01*
X89207Y141207D01*
X89571Y140964D01*
X90000Y140878D01*
X90000Y140878D01*
X104978D01*
X105038Y140851D01*
X105222Y140844D01*
X105275Y140839D01*
X105323Y140831D01*
X105358Y140824D01*
X105379Y140817D01*
X105382Y140816D01*
X105395Y140807D01*
X105403Y140806D01*
X105412Y140801D01*
X105435Y140799D01*
X105446Y140797D01*
X105452Y140795D01*
X105882Y140508D01*
X106500Y140385D01*
X107118Y140508D01*
X107642Y140858D01*
X107992Y141382D01*
X108115Y142000D01*
X107992Y142618D01*
X107642Y143142D01*
X107118Y143492D01*
X106500Y143615D01*
X105882Y143492D01*
X105452Y143205D01*
X105446Y143203D01*
X105435Y143201D01*
X105412Y143199D01*
X105403Y143194D01*
X105395Y143193D01*
X105382Y143184D01*
X105379Y143183D01*
X105358Y143176D01*
X105323Y143169D01*
X105283Y143163D01*
X105137Y143151D01*
X105050Y143149D01*
X104986Y143122D01*
X90465D01*
X89206Y144380D01*
X89231Y144464D01*
X89296Y144622D01*
X89383Y144783D01*
X89494Y144949D01*
X89631Y145120D01*
X89794Y145294D01*
X89984Y145470D01*
X90217Y145661D01*
X90233Y145691D01*
X90264Y145704D01*
X90298Y145785D01*
X90534Y145966D01*
X91103Y146708D01*
X91461Y147573D01*
X91583Y148500D01*
X91461Y149427D01*
X91103Y150292D01*
X90534Y151034D01*
X89792Y151603D01*
X88927Y151961D01*
X88000Y152083D01*
D02*
G37*
G36*
X117718Y138553D02*
X106282D01*
Y137130D01*
X106248Y137068D01*
X106236Y136954D01*
X106228Y136933D01*
X106216Y136914D01*
X106180Y136880D01*
X106100Y136831D01*
X105966Y136776D01*
X105776Y136725D01*
X105532Y136685D01*
X105237Y136659D01*
X104877Y136649D01*
X104837Y136631D01*
X104045D01*
X104005Y136649D01*
X103645Y136659D01*
X103349Y136684D01*
X103105Y136725D01*
X102914Y136775D01*
X102779Y136830D01*
X102699Y136878D01*
X102664Y136911D01*
X102652Y136928D01*
X102646Y136946D01*
X102634Y137057D01*
X102600Y137119D01*
Y137600D01*
X102078D01*
X101988Y137637D01*
X101954Y137624D01*
X101919Y137634D01*
X101857Y137600D01*
X95400D01*
Y132400D01*
X101857D01*
X101919Y132366D01*
X101954Y132377D01*
X101988Y132363D01*
X102078Y132400D01*
X102600D01*
Y132881D01*
X102634Y132943D01*
X102646Y133054D01*
X102652Y133072D01*
X102664Y133089D01*
X102699Y133122D01*
X102779Y133170D01*
X102914Y133225D01*
X103105Y133275D01*
X103349Y133316D01*
X103645Y133341D01*
X104005Y133351D01*
X104045Y133369D01*
X104837D01*
X104877Y133351D01*
X105237Y133341D01*
X105532Y133315D01*
X105776Y133275D01*
X105966Y133223D01*
X106100Y133169D01*
X106180Y133120D01*
X106216Y133086D01*
X106228Y133067D01*
X106236Y133046D01*
X106248Y132932D01*
X106282Y132870D01*
Y131447D01*
X117718D01*
Y138553D01*
D02*
G37*
G36*
X22244Y149647D02*
X20969Y149522D01*
X19742Y149150D01*
X18612Y148546D01*
X17622Y147733D01*
X16809Y146742D01*
X16205Y145612D01*
X15833Y144386D01*
X15707Y143110D01*
X15833Y141835D01*
X16205Y140609D01*
X16809Y139479D01*
X17622Y138488D01*
X18612Y137675D01*
X19742Y137071D01*
X20969Y136699D01*
X22244Y136573D01*
X23519Y136699D01*
X24746Y137071D01*
X25876Y137675D01*
X26866Y138488D01*
X27679Y139479D01*
X28284Y140609D01*
X28655Y141835D01*
X28781Y143110D01*
X28655Y144386D01*
X28284Y145612D01*
X27679Y146742D01*
X26866Y147733D01*
X25876Y148546D01*
X24746Y149150D01*
X23519Y149522D01*
X22244Y149647D01*
D02*
G37*
G36*
X71953Y148000D02*
X64047D01*
Y144547D01*
X66570D01*
X66575Y144517D01*
X66594Y144307D01*
X66601Y144042D01*
X66624Y143991D01*
Y138202D01*
X66601Y138151D01*
X66594Y137883D01*
X66575Y137671D01*
X66571Y137646D01*
X64130D01*
Y127500D01*
X76146D01*
Y137646D01*
X69429D01*
X69425Y137671D01*
X69406Y137883D01*
X69399Y138151D01*
X69376Y138202D01*
Y143991D01*
X69399Y144042D01*
X69406Y144307D01*
X69425Y144517D01*
X69430Y144547D01*
X71953D01*
Y148000D01*
D02*
G37*
G36*
X142424Y127500D02*
X141000D01*
Y126076D01*
X141274Y126131D01*
X141931Y126569D01*
X142369Y127226D01*
X142424Y127500D01*
D02*
G37*
G36*
X14500Y131641D02*
X13681Y131478D01*
X12986Y131014D01*
X12522Y130319D01*
X12369Y129551D01*
X12351Y129512D01*
X12312Y128455D01*
X12268Y128050D01*
X12207Y127709D01*
X12136Y127445D01*
X12062Y127261D01*
X12001Y127161D01*
X11981Y127141D01*
X11909Y127129D01*
X11862Y127100D01*
X11400D01*
Y126578D01*
X11363Y126488D01*
X11383Y126438D01*
X11371Y126385D01*
X11400Y126338D01*
Y119900D01*
X16600D01*
Y123793D01*
X16641Y124000D01*
Y127413D01*
X16649Y129485D01*
X16649Y129487D01*
X16649Y129488D01*
X16638Y129516D01*
X16478Y130319D01*
X16014Y131014D01*
X15319Y131478D01*
X14500Y131641D01*
D02*
G37*
G36*
X14000Y117083D02*
X13073Y116961D01*
X12208Y116603D01*
X11466Y116034D01*
X10897Y115292D01*
X10539Y114427D01*
X10417Y113500D01*
X10539Y112573D01*
X10897Y111708D01*
X11466Y110966D01*
X12208Y110397D01*
X13073Y110039D01*
X14000Y109917D01*
X14927Y110039D01*
X15792Y110397D01*
X16534Y110966D01*
X17103Y111708D01*
X17461Y112573D01*
X17583Y113500D01*
X17461Y114427D01*
X17103Y115292D01*
X16534Y116034D01*
X15792Y116603D01*
X14927Y116961D01*
X14000Y117083D01*
D02*
G37*
G36*
Y107083D02*
X13073Y106961D01*
X12208Y106603D01*
X11466Y106034D01*
X10897Y105292D01*
X10539Y104427D01*
X10417Y103500D01*
X10539Y102573D01*
X10897Y101708D01*
X11466Y100966D01*
X12208Y100397D01*
X13073Y100039D01*
X14000Y99917D01*
X14927Y100039D01*
X15792Y100397D01*
X16534Y100966D01*
X17103Y101708D01*
X17461Y102573D01*
X17583Y103500D01*
X17461Y104427D01*
X17103Y105292D01*
X16534Y106034D01*
X15792Y106603D01*
X14927Y106961D01*
X14000Y107083D01*
D02*
G37*
G36*
X57424Y98000D02*
X56000D01*
Y96576D01*
X56274Y96631D01*
X56931Y97069D01*
X57369Y97726D01*
X57424Y98000D01*
D02*
G37*
G36*
X14000Y97083D02*
X13073Y96961D01*
X12208Y96603D01*
X11466Y96034D01*
X10897Y95292D01*
X10539Y94427D01*
X10417Y93500D01*
X10539Y92573D01*
X10897Y91708D01*
X11466Y90966D01*
X12208Y90397D01*
X13073Y90039D01*
X14000Y89917D01*
X14927Y90039D01*
X15792Y90397D01*
X16534Y90966D01*
X17103Y91708D01*
X17461Y92573D01*
X17583Y93500D01*
X17461Y94427D01*
X17103Y95292D01*
X16534Y96034D01*
X15792Y96603D01*
X14927Y96961D01*
X14000Y97083D01*
D02*
G37*
G36*
X47100Y85100D02*
X41900D01*
Y82939D01*
X41878Y82899D01*
X41874Y82863D01*
X41854Y82850D01*
X41773Y82818D01*
X41646Y82784D01*
X41475Y82756D01*
X41262Y82737D01*
X40995Y82730D01*
X40944Y82707D01*
X40627D01*
X40576Y82730D01*
X40308Y82737D01*
X40096Y82756D01*
X39925Y82784D01*
X39798Y82818D01*
X39717Y82850D01*
X39696Y82863D01*
X39693Y82899D01*
X39671Y82939D01*
Y84687D01*
X32172D01*
Y77975D01*
X39671D01*
Y79722D01*
X39693Y79762D01*
X39696Y79798D01*
X39717Y79811D01*
X39798Y79844D01*
X39925Y79878D01*
X40096Y79906D01*
X40308Y79924D01*
X40576Y79931D01*
X40627Y79954D01*
X40944D01*
X40995Y79931D01*
X41262Y79924D01*
X41475Y79906D01*
X41646Y79878D01*
X41773Y79844D01*
X41854Y79811D01*
X41874Y79798D01*
X41878Y79762D01*
X41900Y79722D01*
Y77900D01*
X47100D01*
Y85100D01*
D02*
G37*
G36*
X30228Y80831D02*
X26579D01*
Y77575D01*
X30228D01*
Y80831D01*
D02*
G37*
G36*
X25579D02*
X21929D01*
Y77575D01*
X25579D01*
Y80831D01*
D02*
G37*
G36*
X47100Y76100D02*
X41900D01*
Y73852D01*
X41892Y73850D01*
X41795Y73834D01*
X41668Y73823D01*
X41495Y73818D01*
X41433Y73791D01*
X40138D01*
X40076Y73818D01*
X39903Y73823D01*
X39776Y73834D01*
X39679Y73850D01*
X39671Y73852D01*
Y76025D01*
X32172D01*
Y69313D01*
X34736D01*
X34741Y69297D01*
X34756Y69203D01*
X34768Y69078D01*
X34772Y68908D01*
X34800Y68846D01*
Y68067D01*
X34772Y68005D01*
X34768Y67832D01*
X34756Y67705D01*
X34741Y67608D01*
X34738Y67600D01*
X32400D01*
Y60400D01*
X37600D01*
Y62817D01*
X37608Y62819D01*
X37705Y62835D01*
X37832Y62846D01*
X38005Y62851D01*
X38067Y62878D01*
X39478D01*
X39538Y62851D01*
X39722Y62844D01*
X39775Y62839D01*
X39823Y62831D01*
X39858Y62824D01*
X39879Y62817D01*
X39882Y62816D01*
X39895Y62807D01*
X39904Y62806D01*
X39912Y62801D01*
X39935Y62799D01*
X39946Y62797D01*
X39952Y62795D01*
X40382Y62508D01*
X41000Y62385D01*
X41618Y62508D01*
X42142Y62858D01*
X42492Y63382D01*
X42615Y64000D01*
X42492Y64618D01*
X42142Y65142D01*
X41618Y65492D01*
X41000Y65615D01*
X40382Y65492D01*
X39952Y65205D01*
X39946Y65203D01*
X39935Y65201D01*
X39912Y65199D01*
X39904Y65194D01*
X39895Y65193D01*
X39882Y65184D01*
X39879Y65183D01*
X39858Y65176D01*
X39823Y65169D01*
X39783Y65162D01*
X39637Y65151D01*
X39550Y65149D01*
X39486Y65122D01*
X38067D01*
X38005Y65149D01*
X37832Y65154D01*
X37705Y65165D01*
X37608Y65181D01*
X37600Y65183D01*
Y67600D01*
X37104D01*
X37102Y67608D01*
X37086Y67705D01*
X37075Y67832D01*
X37071Y68005D01*
X37043Y68067D01*
Y68846D01*
X37071Y68908D01*
X37075Y69078D01*
X37086Y69203D01*
X37102Y69297D01*
X37106Y69313D01*
X39671D01*
Y71486D01*
X39679Y71489D01*
X39776Y71504D01*
X39903Y71516D01*
X40076Y71520D01*
X40138Y71548D01*
X41433D01*
X41495Y71520D01*
X41668Y71516D01*
X41795Y71504D01*
X41892Y71489D01*
X41900Y71486D01*
Y68900D01*
X47100D01*
Y76100D01*
D02*
G37*
G36*
X30228Y76425D02*
X26579D01*
Y73169D01*
X30228D01*
Y76425D01*
D02*
G37*
G36*
X25579D02*
X21929D01*
Y73169D01*
X25579D01*
Y76425D01*
D02*
G37*
G36*
X30228Y72169D02*
X26579D01*
Y68913D01*
X30228D01*
Y72169D01*
D02*
G37*
G36*
X25579D02*
X21929D01*
Y68913D01*
X25579D01*
Y72169D01*
D02*
G37*
G36*
X30000Y68000D02*
X27500D01*
Y64500D01*
X30000D01*
Y68000D01*
D02*
G37*
G36*
X26500D02*
X24000D01*
Y64500D01*
X26500D01*
Y68000D01*
D02*
G37*
G36*
X30000Y63500D02*
X27500D01*
Y60000D01*
X30000D01*
Y63500D01*
D02*
G37*
G36*
X26500D02*
X24000D01*
Y60000D01*
X26500D01*
Y63500D01*
D02*
G37*
G36*
X121500Y60583D02*
X120573Y60461D01*
X119708Y60103D01*
X118966Y59534D01*
X118397Y58792D01*
X118039Y57927D01*
X117917Y57000D01*
X118039Y56073D01*
X118397Y55208D01*
X118966Y54466D01*
X119708Y53897D01*
X120573Y53539D01*
X121500Y53417D01*
X122427Y53539D01*
X123292Y53897D01*
X124034Y54466D01*
X124603Y55208D01*
X124961Y56073D01*
X125083Y57000D01*
X124961Y57927D01*
X124603Y58792D01*
X124034Y59534D01*
X123292Y60103D01*
X122427Y60461D01*
X121500Y60583D01*
D02*
G37*
G36*
X111500D02*
X110573Y60461D01*
X109708Y60103D01*
X108966Y59534D01*
X108397Y58792D01*
X108039Y57927D01*
X107917Y57000D01*
X108039Y56073D01*
X108397Y55208D01*
X108966Y54466D01*
X109708Y53897D01*
X110573Y53539D01*
X111500Y53417D01*
X112427Y53539D01*
X113292Y53897D01*
X114034Y54466D01*
X114603Y55208D01*
X114961Y56073D01*
X115083Y57000D01*
X114961Y57927D01*
X114603Y58792D01*
X114034Y59534D01*
X113292Y60103D01*
X112427Y60461D01*
X111500Y60583D01*
D02*
G37*
G36*
X101500D02*
X100573Y60461D01*
X99708Y60103D01*
X98966Y59534D01*
X98397Y58792D01*
X98039Y57927D01*
X97917Y57000D01*
X98039Y56073D01*
X98397Y55208D01*
X98966Y54466D01*
X99708Y53897D01*
X100573Y53539D01*
X101500Y53417D01*
X102427Y53539D01*
X103292Y53897D01*
X104034Y54466D01*
X104603Y55208D01*
X104961Y56073D01*
X105083Y57000D01*
X104961Y57927D01*
X104603Y58792D01*
X104034Y59534D01*
X103292Y60103D01*
X102427Y60461D01*
X101500Y60583D01*
D02*
G37*
G36*
X139553Y47553D02*
X132447D01*
Y40447D01*
X139553D01*
Y47553D01*
D02*
G37*
G36*
X126000Y47583D02*
X125073Y47461D01*
X124208Y47103D01*
X123466Y46534D01*
X122897Y45792D01*
X122539Y44927D01*
X122417Y44000D01*
X122539Y43073D01*
X122897Y42208D01*
X123466Y41466D01*
X124208Y40897D01*
X125073Y40539D01*
X126000Y40417D01*
X126927Y40539D01*
X127792Y40897D01*
X128534Y41466D01*
X129103Y42208D01*
X129461Y43073D01*
X129583Y44000D01*
X129461Y44927D01*
X129103Y45792D01*
X128534Y46534D01*
X127792Y47103D01*
X126927Y47461D01*
X126000Y47583D01*
D02*
G37*
G36*
X116000D02*
X115073Y47461D01*
X114208Y47103D01*
X113466Y46534D01*
X112897Y45792D01*
X112539Y44927D01*
X112417Y44000D01*
X112539Y43073D01*
X112897Y42208D01*
X113466Y41466D01*
X114208Y40897D01*
X115073Y40539D01*
X116000Y40417D01*
X116927Y40539D01*
X117792Y40897D01*
X118534Y41466D01*
X119103Y42208D01*
X119461Y43073D01*
X119583Y44000D01*
X119461Y44927D01*
X119103Y45792D01*
X118534Y46534D01*
X117792Y47103D01*
X116927Y47461D01*
X116000Y47583D01*
D02*
G37*
G36*
X106000D02*
X105073Y47461D01*
X104208Y47103D01*
X103466Y46534D01*
X102897Y45792D01*
X102539Y44927D01*
X102417Y44000D01*
X102539Y43073D01*
X102897Y42208D01*
X103466Y41466D01*
X104208Y40897D01*
X105073Y40539D01*
X106000Y40417D01*
X106927Y40539D01*
X107792Y40897D01*
X108534Y41466D01*
X109103Y42208D01*
X109461Y43073D01*
X109583Y44000D01*
X109461Y44927D01*
X109103Y45792D01*
X108534Y46534D01*
X107792Y47103D01*
X106927Y47461D01*
X106000Y47583D01*
D02*
G37*
G36*
X17553Y47053D02*
X10447D01*
Y39947D01*
X17553D01*
Y47053D01*
D02*
G37*
G36*
X63500Y35083D02*
X62573Y34961D01*
X61708Y34603D01*
X60966Y34034D01*
X60397Y33292D01*
X60039Y32427D01*
X59917Y31500D01*
X60039Y30573D01*
X60397Y29708D01*
X60966Y28966D01*
X61708Y28397D01*
X62573Y28039D01*
X63500Y27917D01*
X64427Y28039D01*
X65292Y28397D01*
X66034Y28966D01*
X66603Y29708D01*
X66961Y30573D01*
X67083Y31500D01*
X66961Y32427D01*
X66603Y33292D01*
X66034Y34034D01*
X65292Y34603D01*
X64427Y34961D01*
X63500Y35083D01*
D02*
G37*
G36*
X115100Y34600D02*
X109900D01*
Y27400D01*
X115100D01*
Y29628D01*
X115108Y29630D01*
X115205Y29646D01*
X115332Y29657D01*
X115505Y29662D01*
X115567Y29689D01*
X118315D01*
X118377Y29662D01*
X118547Y29657D01*
X118672Y29646D01*
X118766Y29631D01*
X118782Y29626D01*
Y27258D01*
X130218D01*
Y34364D01*
X118782D01*
Y31996D01*
X118766Y31991D01*
X118672Y31976D01*
X118547Y31965D01*
X118377Y31960D01*
X118315Y31933D01*
X115567D01*
X115505Y31960D01*
X115332Y31965D01*
X115205Y31976D01*
X115108Y31992D01*
X115100Y31994D01*
Y34600D01*
D02*
G37*
G36*
X130218Y22553D02*
X118782D01*
Y20185D01*
X118766Y20180D01*
X118672Y20165D01*
X118547Y20154D01*
X118377Y20149D01*
X118315Y20121D01*
X117022D01*
X116962Y20149D01*
X116778Y20156D01*
X116725Y20161D01*
X116677Y20169D01*
X116642Y20176D01*
X116621Y20183D01*
X116618Y20184D01*
X116605Y20193D01*
X116596Y20194D01*
X116588Y20199D01*
X116565Y20201D01*
X116554Y20203D01*
X116549Y20205D01*
X116118Y20492D01*
X115500Y20615D01*
X114882Y20492D01*
X114358Y20142D01*
X114008Y19618D01*
X113885Y19000D01*
X114008Y18382D01*
X114358Y17858D01*
X114882Y17508D01*
X115500Y17385D01*
X116118Y17508D01*
X116549Y17795D01*
X116554Y17797D01*
X116565Y17799D01*
X116588Y17801D01*
X116596Y17806D01*
X116605Y17807D01*
X116618Y17816D01*
X116621Y17817D01*
X116642Y17824D01*
X116677Y17831D01*
X116717Y17838D01*
X116863Y17849D01*
X116950Y17851D01*
X117014Y17878D01*
X118315D01*
X118377Y17851D01*
X118547Y17846D01*
X118672Y17835D01*
X118766Y17820D01*
X118782Y17815D01*
Y15447D01*
X130218D01*
Y22553D01*
D02*
G37*
G36*
X143110Y28781D02*
X141835Y28655D01*
X140609Y28284D01*
X139479Y27679D01*
X138488Y26866D01*
X137675Y25876D01*
X137071Y24746D01*
X136699Y23519D01*
X136573Y22244D01*
X136699Y20969D01*
X137071Y19742D01*
X137675Y18612D01*
X138488Y17622D01*
X139479Y16809D01*
X140609Y16205D01*
X141835Y15833D01*
X143110Y15707D01*
X144386Y15833D01*
X145612Y16205D01*
X146742Y16809D01*
X147733Y17622D01*
X148546Y18612D01*
X149150Y19742D01*
X149522Y20969D01*
X149647Y22244D01*
X149522Y23519D01*
X149150Y24746D01*
X148546Y25876D01*
X147733Y26866D01*
X146742Y27679D01*
X145612Y28284D01*
X144386Y28655D01*
X143110Y28781D01*
D02*
G37*
G36*
X22244D02*
X20969Y28655D01*
X19742Y28284D01*
X18612Y27679D01*
X17622Y26866D01*
X16809Y25876D01*
X16205Y24746D01*
X15833Y23519D01*
X15707Y22244D01*
X15833Y20969D01*
X16205Y19742D01*
X16809Y18612D01*
X17622Y17622D01*
X18612Y16809D01*
X19742Y16205D01*
X20969Y15833D01*
X22244Y15707D01*
X23519Y15833D01*
X24746Y16205D01*
X25876Y16809D01*
X26866Y17622D01*
X27679Y18612D01*
X28284Y19742D01*
X28655Y20969D01*
X28781Y22244D01*
X28655Y23519D01*
X28284Y24746D01*
X27679Y25876D01*
X26866Y26866D01*
X25876Y27679D01*
X24746Y28284D01*
X23519Y28655D01*
X22244Y28781D01*
D02*
G37*
G36*
X103309Y24721D02*
X63400D01*
Y16990D01*
X63900D01*
Y11308D01*
X95562D01*
Y16990D01*
X103309D01*
Y24721D01*
D02*
G37*
%LPD*%
G36*
X89557Y145960D02*
X89335Y145754D01*
X89139Y145545D01*
X88970Y145333D01*
X88826Y145118D01*
X88709Y144901D01*
X88617Y144680D01*
X88552Y144456D01*
X88513Y144229D01*
X88500Y144000D01*
X87500D01*
X87487Y144229D01*
X87448Y144456D01*
X87383Y144680D01*
X87291Y144901D01*
X87174Y145118D01*
X87030Y145333D01*
X86861Y145545D01*
X86665Y145754D01*
X86443Y145960D01*
X86195Y146163D01*
X89805D01*
X89557Y145960D01*
D02*
G37*
G36*
X105797Y141311D02*
X105756Y141347D01*
X105708Y141379D01*
X105653Y141407D01*
X105590Y141432D01*
X105521Y141453D01*
X105443Y141470D01*
X105359Y141483D01*
X105267Y141492D01*
X105062Y141500D01*
Y142500D01*
X105168Y142502D01*
X105359Y142517D01*
X105443Y142530D01*
X105521Y142547D01*
X105590Y142568D01*
X105653Y142593D01*
X105708Y142621D01*
X105756Y142653D01*
X105797Y142689D01*
Y141311D01*
D02*
G37*
G36*
X102008Y136800D02*
X102068Y136632D01*
X102168Y136484D01*
X102308Y136356D01*
X102488Y136247D01*
X102708Y136158D01*
X102968Y136089D01*
X103268Y136039D01*
X103608Y136010D01*
X103988Y136000D01*
Y134000D01*
X103608Y133990D01*
X103268Y133960D01*
X102968Y133911D01*
X102708Y133842D01*
X102488Y133753D01*
X102308Y133644D01*
X102168Y133516D01*
X102068Y133368D01*
X102008Y133200D01*
X101988Y133012D01*
Y136988D01*
X102008Y136800D01*
D02*
G37*
G36*
X106894Y133000D02*
X106874Y133190D01*
X106814Y133360D01*
X106714Y133510D01*
X106574Y133640D01*
X106394Y133750D01*
X106174Y133840D01*
X105914Y133910D01*
X105614Y133960D01*
X105274Y133990D01*
X104894Y134000D01*
Y136000D01*
X105274Y136010D01*
X105614Y136040D01*
X105914Y136090D01*
X106174Y136160D01*
X106394Y136250D01*
X106574Y136360D01*
X106714Y136490D01*
X106814Y136640D01*
X106874Y136810D01*
X106894Y137000D01*
Y133000D01*
D02*
G37*
G36*
X69358Y145544D02*
X69230Y145499D01*
X69117Y145424D01*
X69020Y145319D01*
X68937Y145184D01*
X68870Y145019D01*
X68818Y144824D01*
X68780Y144599D01*
X68757Y144344D01*
X68750Y144059D01*
X67250D01*
X67242Y144344D01*
X67220Y144599D01*
X67182Y144824D01*
X67130Y145019D01*
X67062Y145184D01*
X66980Y145319D01*
X66882Y145424D01*
X66770Y145499D01*
X66642Y145544D01*
X66500Y145559D01*
X69500D01*
X69358Y145544D01*
D02*
G37*
G36*
X68757Y137846D02*
X68780Y137589D01*
X68818Y137363D01*
X68870Y137166D01*
X68937Y137000D01*
X69020Y136864D01*
X69117Y136758D01*
X69230Y136682D01*
X69358Y136637D01*
X69500Y136622D01*
X66500D01*
X66642Y136637D01*
X66770Y136682D01*
X66882Y136758D01*
X66980Y136864D01*
X67062Y137000D01*
X67130Y137166D01*
X67182Y137363D01*
X67220Y137589D01*
X67242Y137846D01*
X67250Y138134D01*
X68750D01*
X68757Y137846D01*
D02*
G37*
G36*
X15988Y126488D02*
X12012D01*
X12200Y126518D01*
X12368Y126608D01*
X12516Y126758D01*
X12644Y126968D01*
X12753Y127238D01*
X12842Y127568D01*
X12911Y127958D01*
X12960Y128408D01*
X13000Y129488D01*
X16000D01*
X15988Y126488D01*
D02*
G37*
G36*
X42524Y79831D02*
X42509Y79973D01*
X42463Y80101D01*
X42388Y80213D01*
X42282Y80311D01*
X42146Y80393D01*
X41980Y80461D01*
X41783Y80513D01*
X41556Y80551D01*
X41299Y80573D01*
X41012Y80581D01*
Y82081D01*
X41299Y82088D01*
X41556Y82111D01*
X41783Y82148D01*
X41980Y82201D01*
X42146Y82268D01*
X42282Y82351D01*
X42388Y82448D01*
X42463Y82561D01*
X42509Y82688D01*
X42524Y82831D01*
Y79831D01*
D02*
G37*
G36*
X39062Y82688D02*
X39107Y82561D01*
X39183Y82448D01*
X39289Y82351D01*
X39425Y82268D01*
X39591Y82201D01*
X39788Y82148D01*
X40014Y82111D01*
X40272Y82088D01*
X40559Y82081D01*
Y80581D01*
X40272Y80573D01*
X40014Y80551D01*
X39788Y80513D01*
X39591Y80461D01*
X39425Y80393D01*
X39289Y80311D01*
X39183Y80213D01*
X39107Y80101D01*
X39062Y79973D01*
X39047Y79831D01*
Y82831D01*
X39062Y82688D01*
D02*
G37*
G36*
X42524Y71669D02*
X42514Y71764D01*
X42483Y71849D01*
X42433Y71924D01*
X42362Y71989D01*
X42271Y72044D01*
X42160Y72089D01*
X42028Y72124D01*
X41876Y72149D01*
X41704Y72164D01*
X41512Y72169D01*
Y73169D01*
X41704Y73174D01*
X41876Y73189D01*
X42028Y73214D01*
X42160Y73249D01*
X42271Y73294D01*
X42362Y73349D01*
X42433Y73414D01*
X42483Y73489D01*
X42514Y73574D01*
X42524Y73669D01*
Y71669D01*
D02*
G37*
G36*
X39057Y73574D02*
X39087Y73489D01*
X39138Y73414D01*
X39209Y73349D01*
X39300Y73294D01*
X39411Y73249D01*
X39543Y73214D01*
X39694Y73189D01*
X39867Y73174D01*
X40059Y73169D01*
Y72169D01*
X39867Y72164D01*
X39694Y72149D01*
X39543Y72124D01*
X39411Y72089D01*
X39300Y72044D01*
X39209Y71989D01*
X39138Y71924D01*
X39087Y71849D01*
X39057Y71764D01*
X39047Y71669D01*
Y73669D01*
X39057Y73574D01*
D02*
G37*
G36*
X36826Y69915D02*
X36741Y69885D01*
X36666Y69835D01*
X36601Y69765D01*
X36546Y69675D01*
X36501Y69565D01*
X36466Y69435D01*
X36441Y69285D01*
X36426Y69115D01*
X36421Y68925D01*
X35421D01*
X35416Y69115D01*
X35401Y69285D01*
X35376Y69435D01*
X35341Y69565D01*
X35296Y69675D01*
X35241Y69765D01*
X35176Y69835D01*
X35101Y69885D01*
X35016Y69915D01*
X34921Y69925D01*
X36921D01*
X36826Y69915D01*
D02*
G37*
G36*
X36426Y67796D02*
X36441Y67624D01*
X36466Y67472D01*
X36501Y67340D01*
X36546Y67229D01*
X36601Y67138D01*
X36666Y67067D01*
X36741Y67017D01*
X36826Y66986D01*
X36921Y66976D01*
X34921D01*
X35016Y66986D01*
X35101Y67017D01*
X35176Y67067D01*
X35241Y67138D01*
X35296Y67229D01*
X35341Y67340D01*
X35376Y67472D01*
X35401Y67624D01*
X35416Y67796D01*
X35421Y67988D01*
X36421D01*
X36426Y67796D01*
D02*
G37*
G36*
X40297Y63311D02*
X40256Y63347D01*
X40208Y63379D01*
X40153Y63407D01*
X40091Y63432D01*
X40021Y63453D01*
X39943Y63470D01*
X39859Y63483D01*
X39767Y63492D01*
X39562Y63500D01*
Y64500D01*
X39668Y64502D01*
X39859Y64517D01*
X39943Y64530D01*
X40021Y64547D01*
X40091Y64568D01*
X40153Y64593D01*
X40208Y64621D01*
X40256Y64653D01*
X40297Y64689D01*
Y63311D01*
D02*
G37*
G36*
X36986Y64905D02*
X37016Y64820D01*
X37067Y64745D01*
X37138Y64680D01*
X37229Y64625D01*
X37340Y64580D01*
X37472Y64545D01*
X37624Y64520D01*
X37796Y64505D01*
X37988Y64500D01*
Y63500D01*
X37796Y63495D01*
X37624Y63480D01*
X37472Y63455D01*
X37340Y63420D01*
X37229Y63375D01*
X37138Y63320D01*
X37067Y63255D01*
X37016Y63180D01*
X36986Y63095D01*
X36976Y63000D01*
Y65000D01*
X36986Y64905D01*
D02*
G37*
G36*
X119394Y29811D02*
X119384Y29906D01*
X119354Y29991D01*
X119304Y30066D01*
X119234Y30131D01*
X119144Y30186D01*
X119034Y30231D01*
X118904Y30266D01*
X118754Y30291D01*
X118584Y30306D01*
X118394Y30311D01*
Y31311D01*
X118584Y31316D01*
X118754Y31331D01*
X118904Y31356D01*
X119034Y31391D01*
X119144Y31436D01*
X119234Y31491D01*
X119304Y31556D01*
X119354Y31631D01*
X119384Y31716D01*
X119394Y31811D01*
Y29811D01*
D02*
G37*
G36*
X114486Y31716D02*
X114516Y31631D01*
X114567Y31556D01*
X114638Y31491D01*
X114729Y31436D01*
X114840Y31391D01*
X114972Y31356D01*
X115124Y31331D01*
X115296Y31316D01*
X115488Y31311D01*
Y30311D01*
X115296Y30306D01*
X115124Y30291D01*
X114972Y30266D01*
X114840Y30231D01*
X114729Y30186D01*
X114638Y30131D01*
X114567Y30066D01*
X114516Y29991D01*
X114486Y29906D01*
X114476Y29811D01*
Y31811D01*
X114486Y31716D01*
D02*
G37*
G36*
X116244Y19653D02*
X116292Y19621D01*
X116347Y19593D01*
X116410Y19568D01*
X116479Y19547D01*
X116557Y19530D01*
X116641Y19517D01*
X116733Y19508D01*
X116938Y19500D01*
Y18500D01*
X116832Y18498D01*
X116641Y18483D01*
X116557Y18470D01*
X116479Y18453D01*
X116410Y18432D01*
X116347Y18407D01*
X116292Y18379D01*
X116244Y18347D01*
X116203Y18311D01*
Y19689D01*
X116244Y19653D01*
D02*
G37*
G36*
X119394Y18000D02*
X119384Y18095D01*
X119354Y18180D01*
X119304Y18255D01*
X119234Y18320D01*
X119144Y18375D01*
X119034Y18420D01*
X118904Y18455D01*
X118754Y18480D01*
X118584Y18495D01*
X118394Y18500D01*
Y19500D01*
X118584Y19505D01*
X118754Y19520D01*
X118904Y19545D01*
X119034Y19580D01*
X119144Y19625D01*
X119234Y19680D01*
X119304Y19745D01*
X119354Y19820D01*
X119384Y19905D01*
X119394Y20000D01*
Y18000D01*
D02*
G37*
G36*
X84017Y23214D02*
X83037D01*
Y24121D01*
X84017D01*
Y23214D01*
D02*
G37*
G36*
X73683D02*
X72702D01*
Y24121D01*
X73683D01*
Y23214D01*
D02*
G37*
G36*
X76795Y22789D02*
X76839Y22785D01*
X76894Y22778D01*
X76961Y22767D01*
X77031Y22752D01*
X77113Y22730D01*
X77198Y22704D01*
X77283Y22670D01*
X77376Y22630D01*
X77468Y22578D01*
X77561Y22522D01*
X77653Y22452D01*
X77745Y22374D01*
X77831Y22286D01*
X77834Y22278D01*
X77849Y22263D01*
X77871Y22234D01*
X77901Y22193D01*
X77934Y22141D01*
X77975Y22078D01*
X78016Y22004D01*
X78056Y21919D01*
X78097Y21823D01*
X78138Y21720D01*
X78178Y21601D01*
X78212Y21475D01*
X78241Y21338D01*
X78263Y21194D01*
X78278Y21039D01*
X78282Y20872D01*
Y20868D01*
Y20861D01*
Y20850D01*
Y20831D01*
Y20809D01*
X78278Y20783D01*
Y20754D01*
X78275Y20720D01*
X78267Y20643D01*
X78260Y20550D01*
X78245Y20450D01*
X78227Y20343D01*
X78201Y20228D01*
X78171Y20114D01*
X78134Y19992D01*
X78090Y19873D01*
X78038Y19755D01*
X77979Y19640D01*
X77908Y19529D01*
X77827Y19429D01*
X77823Y19422D01*
X77805Y19407D01*
X77782Y19381D01*
X77745Y19348D01*
X77701Y19311D01*
X77649Y19266D01*
X77586Y19218D01*
X77520Y19174D01*
X77442Y19126D01*
X77357Y19078D01*
X77268Y19033D01*
X77168Y18996D01*
X77068Y18963D01*
X76957Y18937D01*
X76843Y18922D01*
X76724Y18915D01*
X76695D01*
X76673Y18919D01*
X76643D01*
X76613Y18922D01*
X76576Y18926D01*
X76539Y18930D01*
X76451Y18945D01*
X76354Y18967D01*
X76258Y18996D01*
X76162Y19037D01*
X76158D01*
X76151Y19044D01*
X76136Y19052D01*
X76117Y19059D01*
X76095Y19074D01*
X76069Y19093D01*
X76040Y19111D01*
X76003Y19137D01*
X75925Y19192D01*
X75884Y19226D01*
X75836Y19266D01*
X75792Y19307D01*
X75740Y19352D01*
X75692Y19403D01*
X75640Y19455D01*
Y17590D01*
X74660D01*
Y22711D01*
X75574D01*
Y22163D01*
X75577Y22167D01*
X75581Y22175D01*
X75592Y22189D01*
X75607Y22212D01*
X75625Y22234D01*
X75648Y22263D01*
X75670Y22293D01*
X75699Y22326D01*
X75770Y22397D01*
X75851Y22474D01*
X75947Y22548D01*
X76055Y22619D01*
X76058Y22622D01*
X76069Y22626D01*
X76084Y22633D01*
X76106Y22645D01*
X76136Y22659D01*
X76169Y22674D01*
X76210Y22689D01*
X76254Y22707D01*
X76302Y22722D01*
X76354Y22737D01*
X76469Y22767D01*
X76595Y22785D01*
X76661Y22793D01*
X76761D01*
X76795Y22789D01*
D02*
G37*
G36*
X97048D02*
X97108Y22785D01*
X97174Y22778D01*
X97248Y22767D01*
X97326Y22756D01*
X97411Y22741D01*
X97496Y22722D01*
X97589Y22696D01*
X97677Y22667D01*
X97766Y22633D01*
X97855Y22593D01*
X97936Y22548D01*
X98014Y22497D01*
X98018Y22493D01*
X98033Y22482D01*
X98051Y22467D01*
X98081Y22441D01*
X98114Y22411D01*
X98151Y22374D01*
X98192Y22326D01*
X98236Y22275D01*
X98284Y22219D01*
X98332Y22152D01*
X98380Y22078D01*
X98425Y21997D01*
X98473Y21912D01*
X98517Y21819D01*
X98554Y21716D01*
X98591Y21609D01*
X97626Y21435D01*
Y21438D01*
X97622Y21446D01*
X97618Y21461D01*
X97615Y21483D01*
X97607Y21505D01*
X97600Y21534D01*
X97578Y21597D01*
X97548Y21668D01*
X97507Y21742D01*
X97459Y21808D01*
X97400Y21871D01*
X97396D01*
X97392Y21879D01*
X97381Y21886D01*
X97370Y21893D01*
X97330Y21919D01*
X97278Y21945D01*
X97215Y21971D01*
X97137Y21997D01*
X97048Y22012D01*
X96952Y22019D01*
X96915D01*
X96889Y22016D01*
X96860Y22012D01*
X96823Y22004D01*
X96782Y21997D01*
X96741Y21986D01*
X96693Y21975D01*
X96645Y21956D01*
X96597Y21938D01*
X96549Y21912D01*
X96501Y21882D01*
X96453Y21849D01*
X96408Y21808D01*
X96364Y21764D01*
X96360Y21760D01*
X96353Y21753D01*
X96345Y21738D01*
X96331Y21716D01*
X96312Y21686D01*
X96294Y21653D01*
X96275Y21612D01*
X96257Y21564D01*
X96234Y21509D01*
X96216Y21446D01*
X96197Y21375D01*
X96179Y21301D01*
X96164Y21216D01*
X96157Y21124D01*
X96149Y21024D01*
X96146Y20917D01*
Y20909D01*
Y20887D01*
Y20854D01*
X96149Y20809D01*
X96153Y20754D01*
X96157Y20695D01*
X96164Y20624D01*
X96175Y20554D01*
X96201Y20399D01*
X96220Y20321D01*
X96238Y20247D01*
X96264Y20173D01*
X96294Y20103D01*
X96327Y20040D01*
X96368Y19984D01*
X96371Y19981D01*
X96379Y19973D01*
X96390Y19958D01*
X96408Y19943D01*
X96430Y19921D01*
X96456Y19899D01*
X96490Y19873D01*
X96527Y19851D01*
X96567Y19825D01*
X96612Y19799D01*
X96660Y19777D01*
X96712Y19755D01*
X96771Y19740D01*
X96830Y19725D01*
X96897Y19718D01*
X96963Y19714D01*
X96989D01*
X97011Y19718D01*
X97034D01*
X97060Y19722D01*
X97126Y19733D01*
X97196Y19755D01*
X97274Y19781D01*
X97348Y19821D01*
X97385Y19844D01*
X97418Y19873D01*
X97422Y19877D01*
X97426Y19881D01*
X97437Y19892D01*
X97448Y19903D01*
X97463Y19921D01*
X97481Y19943D01*
X97500Y19969D01*
X97518Y20003D01*
X97540Y20036D01*
X97559Y20077D01*
X97581Y20121D01*
X97603Y20173D01*
X97622Y20225D01*
X97640Y20288D01*
X97659Y20350D01*
X97674Y20421D01*
X98639Y20258D01*
Y20251D01*
X98632Y20228D01*
X98621Y20195D01*
X98610Y20147D01*
X98591Y20091D01*
X98569Y20029D01*
X98543Y19958D01*
X98510Y19884D01*
X98473Y19803D01*
X98432Y19722D01*
X98384Y19636D01*
X98332Y19551D01*
X98273Y19470D01*
X98210Y19392D01*
X98140Y19318D01*
X98062Y19252D01*
X98058Y19248D01*
X98044Y19237D01*
X98018Y19222D01*
X97984Y19200D01*
X97940Y19174D01*
X97888Y19144D01*
X97829Y19115D01*
X97759Y19085D01*
X97681Y19052D01*
X97596Y19022D01*
X97504Y18993D01*
X97400Y18967D01*
X97293Y18945D01*
X97174Y18930D01*
X97048Y18919D01*
X96919Y18915D01*
X96882D01*
X96863Y18919D01*
X96841D01*
X96786Y18922D01*
X96715Y18930D01*
X96638Y18941D01*
X96549Y18959D01*
X96453Y18978D01*
X96349Y19007D01*
X96245Y19041D01*
X96135Y19081D01*
X96027Y19129D01*
X95920Y19189D01*
X95816Y19255D01*
X95716Y19337D01*
X95620Y19425D01*
X95617Y19433D01*
X95598Y19448D01*
X95576Y19477D01*
X95546Y19522D01*
X95509Y19573D01*
X95468Y19636D01*
X95424Y19710D01*
X95380Y19795D01*
X95335Y19892D01*
X95291Y19999D01*
X95250Y20117D01*
X95213Y20243D01*
X95184Y20380D01*
X95161Y20528D01*
X95143Y20684D01*
X95139Y20850D01*
Y20854D01*
Y20861D01*
Y20872D01*
Y20891D01*
X95143Y20913D01*
Y20939D01*
Y20968D01*
X95147Y21002D01*
X95154Y21079D01*
X95165Y21168D01*
X95180Y21264D01*
X95198Y21372D01*
X95224Y21486D01*
X95258Y21601D01*
X95298Y21720D01*
X95343Y21842D01*
X95398Y21956D01*
X95465Y22071D01*
X95539Y22178D01*
X95624Y22278D01*
X95631Y22286D01*
X95646Y22300D01*
X95676Y22326D01*
X95713Y22360D01*
X95761Y22397D01*
X95820Y22441D01*
X95890Y22489D01*
X95972Y22537D01*
X96061Y22582D01*
X96157Y22630D01*
X96264Y22674D01*
X96382Y22711D01*
X96508Y22744D01*
X96641Y22770D01*
X96786Y22785D01*
X96937Y22793D01*
X97004D01*
X97048Y22789D01*
D02*
G37*
G36*
X100312Y22234D02*
X100319Y22241D01*
X100334Y22260D01*
X100360Y22286D01*
X100397Y22323D01*
X100441Y22363D01*
X100497Y22411D01*
X100560Y22459D01*
X100630Y22515D01*
X100711Y22567D01*
X100796Y22615D01*
X100893Y22663D01*
X100993Y22704D01*
X101096Y22741D01*
X101207Y22770D01*
X101326Y22785D01*
X101448Y22793D01*
X101503D01*
X101533Y22789D01*
X101570Y22785D01*
X101607Y22781D01*
X101651Y22778D01*
X101744Y22763D01*
X101847Y22741D01*
X101951Y22707D01*
X102055Y22667D01*
X102058D01*
X102066Y22659D01*
X102080Y22656D01*
X102099Y22645D01*
X102121Y22633D01*
X102147Y22615D01*
X102210Y22578D01*
X102277Y22534D01*
X102343Y22478D01*
X102410Y22415D01*
X102465Y22345D01*
Y22341D01*
X102473Y22337D01*
X102480Y22326D01*
X102487Y22311D01*
X102498Y22293D01*
X102513Y22271D01*
X102543Y22215D01*
X102573Y22152D01*
X102606Y22078D01*
X102635Y21997D01*
X102658Y21908D01*
Y21904D01*
X102661Y21897D01*
Y21882D01*
X102665Y21864D01*
X102669Y21838D01*
X102672Y21808D01*
X102680Y21771D01*
X102683Y21727D01*
X102687Y21679D01*
X102695Y21627D01*
X102698Y21564D01*
X102702Y21501D01*
X102706Y21427D01*
Y21350D01*
X102709Y21264D01*
Y21176D01*
Y19000D01*
X101729D01*
Y20957D01*
Y20965D01*
Y20983D01*
Y21013D01*
Y21050D01*
Y21098D01*
X101725Y21150D01*
Y21209D01*
X101722Y21268D01*
X101714Y21394D01*
X101710Y21457D01*
X101703Y21516D01*
X101696Y21572D01*
X101688Y21620D01*
X101681Y21664D01*
X101670Y21697D01*
X101666Y21705D01*
X101659Y21723D01*
X101644Y21753D01*
X101625Y21786D01*
X101599Y21827D01*
X101562Y21868D01*
X101522Y21908D01*
X101474Y21945D01*
X101466Y21949D01*
X101448Y21960D01*
X101418Y21975D01*
X101377Y21993D01*
X101326Y22012D01*
X101266Y22027D01*
X101196Y22038D01*
X101118Y22041D01*
X101078D01*
X101056Y22038D01*
X101030Y22034D01*
X100974Y22027D01*
X100904Y22012D01*
X100830Y21990D01*
X100756Y21960D01*
X100682Y21919D01*
X100678D01*
X100674Y21916D01*
X100652Y21897D01*
X100615Y21868D01*
X100575Y21831D01*
X100530Y21779D01*
X100482Y21720D01*
X100438Y21645D01*
X100401Y21560D01*
Y21557D01*
X100397Y21549D01*
X100393Y21534D01*
X100386Y21516D01*
X100378Y21490D01*
X100371Y21461D01*
X100364Y21423D01*
X100356Y21383D01*
X100349Y21338D01*
X100341Y21287D01*
X100334Y21227D01*
X100327Y21165D01*
X100319Y21094D01*
X100315Y21020D01*
X100312Y20943D01*
Y20857D01*
Y19000D01*
X99331D01*
Y24121D01*
X100312D01*
Y22234D01*
D02*
G37*
G36*
X90725Y23255D02*
X89208D01*
Y19000D01*
X88176D01*
Y23255D01*
X86655D01*
Y24121D01*
X90725D01*
Y23255D01*
D02*
G37*
G36*
X84017Y19000D02*
X83037D01*
Y22711D01*
X84017D01*
Y19000D01*
D02*
G37*
G36*
X73683D02*
X72702D01*
Y22711D01*
X73683D01*
Y19000D01*
D02*
G37*
G36*
X70283Y22789D02*
X70338D01*
X70401Y22785D01*
X70471Y22781D01*
X70545Y22774D01*
X70623Y22767D01*
X70704Y22756D01*
X70867Y22726D01*
X70945Y22711D01*
X71023Y22689D01*
X71093Y22663D01*
X71156Y22637D01*
X71159D01*
X71171Y22630D01*
X71185Y22622D01*
X71208Y22607D01*
X71233Y22593D01*
X71263Y22574D01*
X71333Y22530D01*
X71407Y22471D01*
X71481Y22404D01*
X71552Y22326D01*
X71581Y22286D01*
X71607Y22241D01*
Y22238D01*
X71615Y22230D01*
X71618Y22215D01*
X71629Y22193D01*
X71637Y22167D01*
X71648Y22130D01*
X71663Y22090D01*
X71674Y22041D01*
X71685Y21986D01*
X71700Y21919D01*
X71711Y21849D01*
X71718Y21768D01*
X71729Y21679D01*
X71733Y21583D01*
X71740Y21475D01*
Y21361D01*
X71726Y20217D01*
Y20214D01*
Y20195D01*
Y20169D01*
Y20136D01*
Y20095D01*
X71729Y20051D01*
Y19999D01*
X71733Y19943D01*
X71737Y19825D01*
X71744Y19707D01*
X71748Y19647D01*
X71755Y19592D01*
X71763Y19544D01*
X71770Y19496D01*
Y19492D01*
X71774Y19485D01*
Y19474D01*
X71781Y19455D01*
X71785Y19433D01*
X71792Y19407D01*
X71811Y19348D01*
X71833Y19274D01*
X71866Y19189D01*
X71903Y19096D01*
X71948Y19000D01*
X70978D01*
Y19004D01*
X70971Y19018D01*
X70963Y19041D01*
X70952Y19074D01*
X70938Y19115D01*
X70919Y19163D01*
X70900Y19222D01*
X70882Y19289D01*
Y19292D01*
X70878Y19303D01*
X70875Y19318D01*
X70867Y19337D01*
X70856Y19374D01*
X70852Y19388D01*
X70849Y19403D01*
X70845Y19400D01*
X70838Y19392D01*
X70823Y19381D01*
X70804Y19363D01*
X70782Y19344D01*
X70753Y19318D01*
X70723Y19292D01*
X70686Y19266D01*
X70608Y19207D01*
X70516Y19144D01*
X70416Y19089D01*
X70309Y19037D01*
X70305D01*
X70297Y19033D01*
X70279Y19026D01*
X70260Y19018D01*
X70231Y19007D01*
X70201Y19000D01*
X70164Y18989D01*
X70127Y18978D01*
X70083Y18963D01*
X70035Y18952D01*
X69931Y18933D01*
X69816Y18919D01*
X69698Y18915D01*
X69672D01*
X69643Y18919D01*
X69602D01*
X69554Y18926D01*
X69498Y18930D01*
X69439Y18941D01*
X69369Y18956D01*
X69298Y18970D01*
X69224Y18993D01*
X69150Y19015D01*
X69076Y19044D01*
X69002Y19081D01*
X68928Y19122D01*
X68858Y19170D01*
X68795Y19226D01*
X68792Y19229D01*
X68780Y19241D01*
X68766Y19259D01*
X68743Y19281D01*
X68717Y19311D01*
X68692Y19348D01*
X68662Y19392D01*
X68632Y19440D01*
X68599Y19496D01*
X68569Y19555D01*
X68544Y19618D01*
X68518Y19688D01*
X68496Y19762D01*
X68481Y19840D01*
X68470Y19925D01*
X68466Y20010D01*
Y20014D01*
Y20025D01*
Y20040D01*
X68470Y20062D01*
Y20091D01*
X68473Y20121D01*
X68477Y20158D01*
X68484Y20199D01*
X68503Y20284D01*
X68529Y20380D01*
X68566Y20476D01*
X68614Y20569D01*
X68618Y20572D01*
X68621Y20580D01*
X68629Y20591D01*
X68643Y20609D01*
X68677Y20654D01*
X68725Y20709D01*
X68784Y20769D01*
X68854Y20831D01*
X68940Y20894D01*
X69036Y20946D01*
X69039D01*
X69047Y20954D01*
X69065Y20961D01*
X69087Y20968D01*
X69113Y20979D01*
X69147Y20994D01*
X69187Y21009D01*
X69235Y21024D01*
X69287Y21042D01*
X69346Y21061D01*
X69409Y21079D01*
X69480Y21098D01*
X69554Y21120D01*
X69635Y21139D01*
X69724Y21157D01*
X69816Y21176D01*
X69824D01*
X69846Y21183D01*
X69883Y21187D01*
X69927Y21198D01*
X69983Y21209D01*
X70050Y21224D01*
X70120Y21238D01*
X70194Y21253D01*
X70353Y21294D01*
X70508Y21335D01*
X70582Y21353D01*
X70653Y21375D01*
X70715Y21398D01*
X70771Y21420D01*
Y21516D01*
Y21520D01*
Y21527D01*
Y21542D01*
X70767Y21560D01*
Y21586D01*
X70764Y21612D01*
X70753Y21671D01*
X70738Y21738D01*
X70712Y21805D01*
X70679Y21868D01*
X70656Y21893D01*
X70630Y21919D01*
X70623Y21923D01*
X70616Y21930D01*
X70601Y21938D01*
X70586Y21949D01*
X70564Y21956D01*
X70542Y21967D01*
X70512Y21982D01*
X70479Y21993D01*
X70438Y22004D01*
X70397Y22012D01*
X70349Y22023D01*
X70294Y22030D01*
X70235Y22038D01*
X70172Y22041D01*
X70057D01*
X70035Y22038D01*
X70009D01*
X69953Y22030D01*
X69887Y22016D01*
X69816Y21997D01*
X69750Y21971D01*
X69691Y21938D01*
X69683Y21934D01*
X69668Y21919D01*
X69639Y21890D01*
X69609Y21853D01*
X69572Y21805D01*
X69532Y21742D01*
X69494Y21664D01*
X69458Y21575D01*
X68566Y21734D01*
X68569Y21742D01*
X68573Y21757D01*
X68581Y21786D01*
X68595Y21823D01*
X68610Y21868D01*
X68632Y21919D01*
X68658Y21975D01*
X68684Y22034D01*
X68717Y22101D01*
X68758Y22163D01*
X68799Y22230D01*
X68847Y22297D01*
X68895Y22360D01*
X68954Y22422D01*
X69014Y22478D01*
X69080Y22530D01*
X69084Y22534D01*
X69099Y22541D01*
X69121Y22556D01*
X69150Y22570D01*
X69187Y22589D01*
X69235Y22611D01*
X69291Y22637D01*
X69358Y22663D01*
X69428Y22685D01*
X69509Y22711D01*
X69602Y22733D01*
X69698Y22752D01*
X69805Y22767D01*
X69920Y22781D01*
X70042Y22789D01*
X70175Y22793D01*
X70238D01*
X70283Y22789D01*
D02*
G37*
G36*
X68070Y23255D02*
X66553D01*
Y19000D01*
X65521D01*
Y23255D01*
X64000D01*
Y24121D01*
X68070D01*
Y23255D01*
D02*
G37*
G36*
X92849Y22789D02*
X92871D01*
X92930Y22785D01*
X93001Y22778D01*
X93078Y22763D01*
X93171Y22748D01*
X93267Y22726D01*
X93367Y22696D01*
X93474Y22659D01*
X93581Y22615D01*
X93692Y22563D01*
X93800Y22500D01*
X93903Y22426D01*
X94003Y22341D01*
X94096Y22245D01*
X94099Y22238D01*
X94118Y22219D01*
X94140Y22186D01*
X94170Y22141D01*
X94207Y22082D01*
X94248Y22012D01*
X94288Y21927D01*
X94333Y21831D01*
X94377Y21720D01*
X94421Y21594D01*
X94458Y21457D01*
X94495Y21305D01*
X94521Y21142D01*
X94543Y20965D01*
X94555Y20772D01*
X94558Y20569D01*
X92098D01*
Y20565D01*
Y20550D01*
X92102Y20528D01*
Y20498D01*
X92105Y20461D01*
X92113Y20417D01*
X92120Y20373D01*
X92131Y20321D01*
X92157Y20210D01*
X92176Y20154D01*
X92198Y20099D01*
X92227Y20043D01*
X92257Y19988D01*
X92290Y19936D01*
X92331Y19888D01*
X92335Y19884D01*
X92342Y19877D01*
X92353Y19866D01*
X92372Y19851D01*
X92394Y19832D01*
X92423Y19810D01*
X92453Y19792D01*
X92490Y19770D01*
X92527Y19744D01*
X92571Y19725D01*
X92668Y19684D01*
X92723Y19670D01*
X92779Y19659D01*
X92838Y19651D01*
X92901Y19647D01*
X92923D01*
X92941Y19651D01*
X92982Y19655D01*
X93038Y19662D01*
X93097Y19677D01*
X93163Y19699D01*
X93226Y19729D01*
X93289Y19770D01*
X93293D01*
X93297Y19777D01*
X93315Y19795D01*
X93345Y19825D01*
X93378Y19870D01*
X93419Y19925D01*
X93459Y19995D01*
X93496Y20077D01*
X93530Y20177D01*
X94507Y20014D01*
X94503Y20006D01*
X94499Y19992D01*
X94488Y19962D01*
X94469Y19925D01*
X94451Y19881D01*
X94425Y19829D01*
X94396Y19770D01*
X94358Y19710D01*
X94322Y19644D01*
X94277Y19577D01*
X94225Y19507D01*
X94174Y19440D01*
X94114Y19374D01*
X94051Y19307D01*
X93981Y19248D01*
X93907Y19192D01*
X93903Y19189D01*
X93889Y19181D01*
X93866Y19166D01*
X93833Y19148D01*
X93792Y19129D01*
X93748Y19104D01*
X93689Y19081D01*
X93626Y19056D01*
X93556Y19030D01*
X93482Y19004D01*
X93397Y18978D01*
X93308Y18959D01*
X93212Y18941D01*
X93108Y18926D01*
X93001Y18919D01*
X92890Y18915D01*
X92849D01*
X92823Y18919D01*
X92797D01*
X92768Y18922D01*
X92730Y18926D01*
X92649Y18933D01*
X92560Y18948D01*
X92457Y18967D01*
X92346Y18993D01*
X92231Y19026D01*
X92113Y19070D01*
X91994Y19118D01*
X91876Y19181D01*
X91761Y19252D01*
X91654Y19337D01*
X91550Y19433D01*
X91458Y19544D01*
X91454Y19551D01*
X91443Y19566D01*
X91424Y19596D01*
X91402Y19636D01*
X91373Y19684D01*
X91343Y19744D01*
X91310Y19814D01*
X91276Y19895D01*
X91239Y19984D01*
X91206Y20080D01*
X91176Y20184D01*
X91151Y20299D01*
X91125Y20417D01*
X91106Y20547D01*
X91095Y20684D01*
X91091Y20824D01*
Y20828D01*
Y20835D01*
Y20846D01*
Y20865D01*
X91095Y20887D01*
Y20913D01*
Y20943D01*
X91099Y20976D01*
X91106Y21054D01*
X91117Y21142D01*
X91132Y21242D01*
X91151Y21350D01*
X91176Y21464D01*
X91210Y21583D01*
X91247Y21701D01*
X91295Y21823D01*
X91350Y21941D01*
X91413Y22056D01*
X91487Y22163D01*
X91572Y22267D01*
X91580Y22275D01*
X91595Y22289D01*
X91620Y22315D01*
X91658Y22348D01*
X91706Y22389D01*
X91765Y22434D01*
X91831Y22482D01*
X91905Y22530D01*
X91991Y22578D01*
X92083Y22626D01*
X92183Y22670D01*
X92290Y22711D01*
X92405Y22744D01*
X92527Y22770D01*
X92656Y22785D01*
X92793Y22793D01*
X92830D01*
X92849Y22789D01*
D02*
G37*
G36*
X80528D02*
X80550D01*
X80609Y22785D01*
X80680Y22778D01*
X80757Y22763D01*
X80850Y22748D01*
X80946Y22726D01*
X81046Y22696D01*
X81153Y22659D01*
X81261Y22615D01*
X81371Y22563D01*
X81479Y22500D01*
X81582Y22426D01*
X81682Y22341D01*
X81775Y22245D01*
X81779Y22238D01*
X81797Y22219D01*
X81819Y22186D01*
X81849Y22141D01*
X81886Y22082D01*
X81927Y22012D01*
X81967Y21927D01*
X82012Y21831D01*
X82056Y21720D01*
X82100Y21594D01*
X82137Y21457D01*
X82174Y21305D01*
X82200Y21142D01*
X82222Y20965D01*
X82234Y20772D01*
X82237Y20569D01*
X79777D01*
Y20565D01*
Y20550D01*
X79781Y20528D01*
Y20498D01*
X79784Y20461D01*
X79792Y20417D01*
X79799Y20373D01*
X79810Y20321D01*
X79836Y20210D01*
X79855Y20154D01*
X79877Y20099D01*
X79906Y20043D01*
X79936Y19988D01*
X79969Y19936D01*
X80010Y19888D01*
X80014Y19884D01*
X80021Y19877D01*
X80032Y19866D01*
X80051Y19851D01*
X80073Y19832D01*
X80102Y19810D01*
X80132Y19792D01*
X80169Y19770D01*
X80206Y19744D01*
X80250Y19725D01*
X80347Y19684D01*
X80402Y19670D01*
X80458Y19659D01*
X80517Y19651D01*
X80580Y19647D01*
X80602D01*
X80620Y19651D01*
X80661Y19655D01*
X80717Y19662D01*
X80776Y19677D01*
X80842Y19699D01*
X80905Y19729D01*
X80968Y19770D01*
X80972D01*
X80976Y19777D01*
X80994Y19795D01*
X81024Y19825D01*
X81057Y19870D01*
X81098Y19925D01*
X81138Y19995D01*
X81175Y20077D01*
X81209Y20177D01*
X82186Y20014D01*
X82182Y20006D01*
X82178Y19992D01*
X82167Y19962D01*
X82148Y19925D01*
X82130Y19881D01*
X82104Y19829D01*
X82074Y19770D01*
X82038Y19710D01*
X82000Y19644D01*
X81956Y19577D01*
X81904Y19507D01*
X81853Y19440D01*
X81793Y19374D01*
X81730Y19307D01*
X81660Y19248D01*
X81586Y19192D01*
X81582Y19189D01*
X81568Y19181D01*
X81545Y19166D01*
X81512Y19148D01*
X81471Y19129D01*
X81427Y19104D01*
X81368Y19081D01*
X81305Y19056D01*
X81235Y19030D01*
X81161Y19004D01*
X81076Y18978D01*
X80987Y18959D01*
X80891Y18941D01*
X80787Y18926D01*
X80680Y18919D01*
X80569Y18915D01*
X80528D01*
X80502Y18919D01*
X80476D01*
X80446Y18922D01*
X80409Y18926D01*
X80328Y18933D01*
X80239Y18948D01*
X80136Y18967D01*
X80025Y18993D01*
X79910Y19026D01*
X79792Y19070D01*
X79673Y19118D01*
X79555Y19181D01*
X79440Y19252D01*
X79333Y19337D01*
X79229Y19433D01*
X79137Y19544D01*
X79133Y19551D01*
X79122Y19566D01*
X79103Y19596D01*
X79081Y19636D01*
X79052Y19684D01*
X79022Y19744D01*
X78989Y19814D01*
X78955Y19895D01*
X78918Y19984D01*
X78885Y20080D01*
X78856Y20184D01*
X78830Y20299D01*
X78804Y20417D01*
X78785Y20547D01*
X78774Y20684D01*
X78770Y20824D01*
Y20828D01*
Y20835D01*
Y20846D01*
Y20865D01*
X78774Y20887D01*
Y20913D01*
Y20943D01*
X78778Y20976D01*
X78785Y21054D01*
X78796Y21142D01*
X78811Y21242D01*
X78830Y21350D01*
X78856Y21464D01*
X78889Y21583D01*
X78926Y21701D01*
X78974Y21823D01*
X79029Y21941D01*
X79092Y22056D01*
X79166Y22163D01*
X79251Y22267D01*
X79259Y22275D01*
X79274Y22289D01*
X79299Y22315D01*
X79337Y22348D01*
X79385Y22389D01*
X79444Y22434D01*
X79510Y22482D01*
X79584Y22530D01*
X79669Y22578D01*
X79762Y22626D01*
X79862Y22670D01*
X79969Y22711D01*
X80084Y22744D01*
X80206Y22770D01*
X80335Y22785D01*
X80472Y22793D01*
X80509D01*
X80528Y22789D01*
D02*
G37*
G36*
X66642Y17202D02*
X66672D01*
X66709Y17199D01*
X66790Y17195D01*
X66883Y17184D01*
X66983Y17169D01*
X67094Y17154D01*
X67208Y17132D01*
X67327Y17102D01*
X67449Y17069D01*
X67571Y17028D01*
X67686Y16976D01*
X67800Y16921D01*
X67904Y16854D01*
X68000Y16780D01*
X68008Y16777D01*
X68022Y16762D01*
X68045Y16736D01*
X68078Y16703D01*
X68115Y16662D01*
X68156Y16610D01*
X68200Y16551D01*
X68248Y16481D01*
X68296Y16407D01*
X68341Y16322D01*
X68385Y16229D01*
X68422Y16129D01*
X68459Y16022D01*
X68485Y15907D01*
X68503Y15785D01*
X68515Y15656D01*
X67482Y15611D01*
Y15615D01*
X67479Y15630D01*
X67475Y15648D01*
X67467Y15674D01*
X67460Y15707D01*
X67449Y15744D01*
X67438Y15785D01*
X67423Y15830D01*
X67382Y15922D01*
X67334Y16014D01*
X67271Y16103D01*
X67238Y16144D01*
X67197Y16177D01*
X67194Y16181D01*
X67186Y16185D01*
X67175Y16192D01*
X67157Y16203D01*
X67134Y16218D01*
X67105Y16233D01*
X67071Y16248D01*
X67035Y16266D01*
X66990Y16281D01*
X66942Y16296D01*
X66887Y16310D01*
X66827Y16325D01*
X66764Y16336D01*
X66698Y16344D01*
X66620Y16351D01*
X66498D01*
X66468Y16348D01*
X66431Y16344D01*
X66387Y16340D01*
X66339Y16336D01*
X66283Y16329D01*
X66172Y16307D01*
X66054Y16274D01*
X65995Y16251D01*
X65939Y16225D01*
X65887Y16196D01*
X65836Y16162D01*
X65828Y16159D01*
X65810Y16140D01*
X65784Y16114D01*
X65754Y16077D01*
X65725Y16033D01*
X65699Y15981D01*
X65680Y15918D01*
X65677Y15885D01*
X65673Y15848D01*
Y15844D01*
Y15841D01*
X65677Y15818D01*
X65680Y15785D01*
X65691Y15741D01*
X65710Y15693D01*
X65736Y15641D01*
X65773Y15589D01*
X65825Y15537D01*
X65828D01*
X65836Y15530D01*
X65847Y15522D01*
X65869Y15508D01*
X65895Y15493D01*
X65928Y15474D01*
X65969Y15456D01*
X66017Y15434D01*
X66076Y15408D01*
X66143Y15382D01*
X66220Y15352D01*
X66309Y15323D01*
X66409Y15289D01*
X66517Y15260D01*
X66642Y15226D01*
X66776Y15193D01*
X66779D01*
X66783Y15189D01*
X66794D01*
X66809Y15186D01*
X66846Y15175D01*
X66898Y15164D01*
X66961Y15145D01*
X67035Y15126D01*
X67112Y15104D01*
X67197Y15082D01*
X67286Y15053D01*
X67379Y15027D01*
X67564Y14964D01*
X67652Y14930D01*
X67738Y14893D01*
X67819Y14860D01*
X67889Y14823D01*
X67893Y14819D01*
X67904Y14816D01*
X67923Y14805D01*
X67948Y14790D01*
X67978Y14768D01*
X68015Y14745D01*
X68052Y14719D01*
X68096Y14686D01*
X68141Y14653D01*
X68185Y14612D01*
X68233Y14571D01*
X68281Y14523D01*
X68374Y14420D01*
X68415Y14361D01*
X68455Y14301D01*
X68459Y14298D01*
X68463Y14287D01*
X68474Y14268D01*
X68489Y14242D01*
X68503Y14209D01*
X68522Y14172D01*
X68540Y14128D01*
X68559Y14076D01*
X68577Y14020D01*
X68596Y13957D01*
X68614Y13891D01*
X68629Y13820D01*
X68644Y13743D01*
X68655Y13661D01*
X68659Y13576D01*
X68663Y13487D01*
Y13484D01*
Y13469D01*
Y13443D01*
X68659Y13413D01*
X68655Y13373D01*
X68648Y13328D01*
X68640Y13276D01*
X68633Y13221D01*
X68618Y13158D01*
X68603Y13092D01*
X68581Y13025D01*
X68559Y12955D01*
X68529Y12881D01*
X68496Y12807D01*
X68459Y12736D01*
X68415Y12662D01*
X68411Y12659D01*
X68404Y12648D01*
X68389Y12625D01*
X68370Y12599D01*
X68344Y12570D01*
X68315Y12533D01*
X68278Y12492D01*
X68237Y12448D01*
X68189Y12403D01*
X68137Y12355D01*
X68082Y12307D01*
X68019Y12263D01*
X67952Y12215D01*
X67882Y12170D01*
X67804Y12129D01*
X67723Y12093D01*
X67719Y12089D01*
X67704Y12085D01*
X67678Y12074D01*
X67641Y12063D01*
X67601Y12048D01*
X67549Y12033D01*
X67486Y12019D01*
X67419Y12000D01*
X67342Y11981D01*
X67256Y11967D01*
X67164Y11952D01*
X67068Y11937D01*
X66964Y11926D01*
X66853Y11915D01*
X66735Y11911D01*
X66613Y11908D01*
X66546D01*
X66520Y11911D01*
X66487D01*
X66454Y11915D01*
X66372Y11922D01*
X66276Y11930D01*
X66172Y11945D01*
X66061Y11963D01*
X65943Y11989D01*
X65821Y12019D01*
X65695Y12052D01*
X65573Y12096D01*
X65451Y12148D01*
X65333Y12207D01*
X65222Y12278D01*
X65118Y12355D01*
X65110Y12359D01*
X65096Y12377D01*
X65070Y12403D01*
X65036Y12440D01*
X64996Y12485D01*
X64948Y12544D01*
X64900Y12610D01*
X64848Y12688D01*
X64792Y12773D01*
X64741Y12873D01*
X64689Y12980D01*
X64641Y13095D01*
X64592Y13225D01*
X64556Y13362D01*
X64522Y13510D01*
X64500Y13665D01*
X65506Y13761D01*
Y13754D01*
X65510Y13739D01*
X65517Y13713D01*
X65525Y13680D01*
X65536Y13635D01*
X65551Y13587D01*
X65566Y13535D01*
X65584Y13480D01*
X65636Y13358D01*
X65666Y13295D01*
X65699Y13232D01*
X65736Y13173D01*
X65776Y13117D01*
X65825Y13066D01*
X65873Y13017D01*
X65876Y13014D01*
X65887Y13006D01*
X65902Y12995D01*
X65925Y12980D01*
X65950Y12962D01*
X65987Y12944D01*
X66024Y12921D01*
X66072Y12899D01*
X66121Y12877D01*
X66180Y12855D01*
X66239Y12836D01*
X66306Y12818D01*
X66380Y12803D01*
X66457Y12792D01*
X66539Y12784D01*
X66624Y12781D01*
X66672D01*
X66705Y12784D01*
X66746Y12788D01*
X66794Y12792D01*
X66849Y12799D01*
X66905Y12807D01*
X67027Y12833D01*
X67090Y12851D01*
X67153Y12869D01*
X67212Y12895D01*
X67271Y12921D01*
X67327Y12955D01*
X67375Y12992D01*
X67379Y12995D01*
X67386Y13003D01*
X67397Y13014D01*
X67416Y13029D01*
X67434Y13051D01*
X67456Y13073D01*
X67479Y13103D01*
X67504Y13132D01*
X67549Y13206D01*
X67589Y13288D01*
X67608Y13336D01*
X67619Y13380D01*
X67627Y13432D01*
X67630Y13484D01*
Y13487D01*
Y13491D01*
Y13513D01*
X67627Y13547D01*
X67615Y13591D01*
X67604Y13639D01*
X67586Y13691D01*
X67560Y13743D01*
X67523Y13791D01*
X67519Y13798D01*
X67501Y13813D01*
X67475Y13835D01*
X67438Y13869D01*
X67386Y13902D01*
X67319Y13942D01*
X67242Y13980D01*
X67197Y13998D01*
X67149Y14017D01*
X67146D01*
X67142Y14020D01*
X67127Y14024D01*
X67112Y14028D01*
X67086Y14035D01*
X67057Y14046D01*
X67020Y14057D01*
X66979Y14068D01*
X66927Y14083D01*
X66868Y14098D01*
X66801Y14116D01*
X66724Y14139D01*
X66639Y14161D01*
X66542Y14183D01*
X66435Y14209D01*
X66320Y14239D01*
X66317D01*
X66309Y14242D01*
X66298D01*
X66283Y14250D01*
X66265Y14253D01*
X66243Y14261D01*
X66187Y14276D01*
X66117Y14294D01*
X66039Y14320D01*
X65954Y14349D01*
X65865Y14379D01*
X65769Y14416D01*
X65673Y14453D01*
X65573Y14494D01*
X65481Y14538D01*
X65388Y14586D01*
X65303Y14638D01*
X65225Y14690D01*
X65155Y14745D01*
X65151Y14749D01*
X65136Y14764D01*
X65110Y14790D01*
X65081Y14819D01*
X65048Y14860D01*
X65007Y14912D01*
X64963Y14967D01*
X64922Y15034D01*
X64877Y15104D01*
X64833Y15182D01*
X64792Y15267D01*
X64759Y15356D01*
X64729Y15452D01*
X64704Y15556D01*
X64689Y15663D01*
X64685Y15774D01*
Y15778D01*
Y15792D01*
Y15811D01*
X64689Y15841D01*
X64692Y15874D01*
X64696Y15915D01*
X64704Y15963D01*
X64711Y16014D01*
X64726Y16066D01*
X64737Y16126D01*
X64755Y16185D01*
X64777Y16248D01*
X64803Y16314D01*
X64833Y16377D01*
X64866Y16444D01*
X64903Y16507D01*
X64907Y16510D01*
X64914Y16521D01*
X64925Y16540D01*
X64944Y16562D01*
X64966Y16592D01*
X64996Y16625D01*
X65029Y16658D01*
X65066Y16699D01*
X65110Y16740D01*
X65159Y16784D01*
X65210Y16825D01*
X65266Y16869D01*
X65329Y16910D01*
X65395Y16951D01*
X65466Y16991D01*
X65543Y17025D01*
X65547Y17028D01*
X65562Y17032D01*
X65588Y17043D01*
X65617Y17054D01*
X65658Y17065D01*
X65706Y17084D01*
X65762Y17099D01*
X65825Y17117D01*
X65895Y17132D01*
X65973Y17150D01*
X66054Y17165D01*
X66143Y17176D01*
X66239Y17191D01*
X66339Y17199D01*
X66443Y17202D01*
X66550Y17206D01*
X66616D01*
X66642Y17202D01*
D02*
G37*
G36*
X88964Y15789D02*
X89020D01*
X89083Y15785D01*
X89153Y15781D01*
X89227Y15774D01*
X89305Y15767D01*
X89386Y15755D01*
X89549Y15726D01*
X89627Y15711D01*
X89704Y15689D01*
X89775Y15663D01*
X89838Y15637D01*
X89841D01*
X89852Y15630D01*
X89867Y15622D01*
X89889Y15608D01*
X89915Y15593D01*
X89945Y15574D01*
X90015Y15530D01*
X90089Y15471D01*
X90163Y15404D01*
X90233Y15326D01*
X90263Y15286D01*
X90289Y15241D01*
Y15237D01*
X90296Y15230D01*
X90300Y15215D01*
X90311Y15193D01*
X90319Y15167D01*
X90330Y15130D01*
X90345Y15089D01*
X90356Y15041D01*
X90367Y14986D01*
X90381Y14919D01*
X90393Y14849D01*
X90400Y14768D01*
X90411Y14679D01*
X90415Y14583D01*
X90422Y14475D01*
Y14361D01*
X90407Y13217D01*
Y13214D01*
Y13195D01*
Y13169D01*
Y13136D01*
Y13095D01*
X90411Y13051D01*
Y12999D01*
X90415Y12944D01*
X90418Y12825D01*
X90426Y12707D01*
X90430Y12648D01*
X90437Y12592D01*
X90444Y12544D01*
X90452Y12496D01*
Y12492D01*
X90456Y12485D01*
Y12474D01*
X90463Y12455D01*
X90467Y12433D01*
X90474Y12407D01*
X90492Y12348D01*
X90515Y12274D01*
X90548Y12189D01*
X90585Y12096D01*
X90629Y12000D01*
X89660D01*
Y12004D01*
X89653Y12019D01*
X89645Y12041D01*
X89634Y12074D01*
X89619Y12115D01*
X89601Y12163D01*
X89582Y12222D01*
X89564Y12289D01*
Y12292D01*
X89560Y12303D01*
X89556Y12318D01*
X89549Y12337D01*
X89538Y12374D01*
X89534Y12388D01*
X89530Y12403D01*
X89527Y12400D01*
X89519Y12392D01*
X89505Y12381D01*
X89486Y12363D01*
X89464Y12344D01*
X89434Y12318D01*
X89405Y12292D01*
X89368Y12266D01*
X89290Y12207D01*
X89197Y12144D01*
X89098Y12089D01*
X88990Y12037D01*
X88987D01*
X88979Y12033D01*
X88961Y12026D01*
X88942Y12019D01*
X88913Y12007D01*
X88883Y12000D01*
X88846Y11989D01*
X88809Y11978D01*
X88765Y11963D01*
X88717Y11952D01*
X88613Y11933D01*
X88498Y11919D01*
X88380Y11915D01*
X88354D01*
X88324Y11919D01*
X88284D01*
X88235Y11926D01*
X88180Y11930D01*
X88121Y11941D01*
X88051Y11956D01*
X87980Y11970D01*
X87906Y11993D01*
X87832Y12015D01*
X87758Y12044D01*
X87684Y12081D01*
X87610Y12122D01*
X87540Y12170D01*
X87477Y12226D01*
X87473Y12229D01*
X87462Y12241D01*
X87447Y12259D01*
X87425Y12281D01*
X87399Y12311D01*
X87373Y12348D01*
X87344Y12392D01*
X87314Y12440D01*
X87281Y12496D01*
X87251Y12555D01*
X87225Y12618D01*
X87199Y12688D01*
X87177Y12762D01*
X87163Y12840D01*
X87151Y12925D01*
X87148Y13010D01*
Y13014D01*
Y13025D01*
Y13040D01*
X87151Y13062D01*
Y13092D01*
X87155Y13121D01*
X87159Y13158D01*
X87166Y13199D01*
X87185Y13284D01*
X87211Y13380D01*
X87248Y13476D01*
X87296Y13569D01*
X87299Y13573D01*
X87303Y13580D01*
X87310Y13591D01*
X87325Y13610D01*
X87359Y13654D01*
X87407Y13709D01*
X87466Y13769D01*
X87536Y13832D01*
X87621Y13894D01*
X87717Y13946D01*
X87721D01*
X87729Y13954D01*
X87747Y13961D01*
X87769Y13968D01*
X87795Y13980D01*
X87828Y13994D01*
X87869Y14009D01*
X87917Y14024D01*
X87969Y14042D01*
X88028Y14061D01*
X88091Y14079D01*
X88161Y14098D01*
X88235Y14120D01*
X88317Y14139D01*
X88406Y14157D01*
X88498Y14176D01*
X88506D01*
X88528Y14183D01*
X88565Y14187D01*
X88609Y14198D01*
X88665Y14209D01*
X88731Y14224D01*
X88802Y14239D01*
X88876Y14253D01*
X89035Y14294D01*
X89190Y14335D01*
X89264Y14353D01*
X89334Y14375D01*
X89397Y14398D01*
X89453Y14420D01*
Y14516D01*
Y14520D01*
Y14527D01*
Y14542D01*
X89449Y14560D01*
Y14586D01*
X89445Y14612D01*
X89434Y14671D01*
X89420Y14738D01*
X89394Y14805D01*
X89360Y14867D01*
X89338Y14893D01*
X89312Y14919D01*
X89305Y14923D01*
X89297Y14930D01*
X89283Y14938D01*
X89268Y14949D01*
X89246Y14956D01*
X89223Y14967D01*
X89194Y14982D01*
X89161Y14993D01*
X89120Y15004D01*
X89079Y15012D01*
X89031Y15023D01*
X88976Y15030D01*
X88916Y15038D01*
X88853Y15041D01*
X88739D01*
X88717Y15038D01*
X88691D01*
X88635Y15030D01*
X88569Y15015D01*
X88498Y14997D01*
X88432Y14971D01*
X88372Y14938D01*
X88365Y14934D01*
X88350Y14919D01*
X88321Y14890D01*
X88291Y14853D01*
X88254Y14805D01*
X88213Y14742D01*
X88176Y14664D01*
X88139Y14575D01*
X87248Y14734D01*
X87251Y14742D01*
X87255Y14757D01*
X87262Y14786D01*
X87277Y14823D01*
X87292Y14867D01*
X87314Y14919D01*
X87340Y14975D01*
X87366Y15034D01*
X87399Y15101D01*
X87440Y15164D01*
X87481Y15230D01*
X87529Y15297D01*
X87577Y15360D01*
X87636Y15423D01*
X87695Y15478D01*
X87762Y15530D01*
X87766Y15533D01*
X87780Y15541D01*
X87803Y15556D01*
X87832Y15571D01*
X87869Y15589D01*
X87917Y15611D01*
X87973Y15637D01*
X88039Y15663D01*
X88110Y15685D01*
X88191Y15711D01*
X88284Y15733D01*
X88380Y15752D01*
X88487Y15767D01*
X88602Y15781D01*
X88724Y15789D01*
X88857Y15792D01*
X88920D01*
X88964Y15789D01*
D02*
G37*
G36*
X84103Y12866D02*
X86674D01*
Y12000D01*
X83070D01*
Y17076D01*
X84103D01*
Y12866D01*
D02*
G37*
G36*
X80084Y16255D02*
X77320D01*
Y15119D01*
X79892D01*
Y14253D01*
X77320D01*
Y12866D01*
X80181D01*
Y12000D01*
X76288D01*
Y17121D01*
X80084D01*
Y16255D01*
D02*
G37*
G36*
X75300Y12000D02*
X74268D01*
Y17121D01*
X75300D01*
Y12000D01*
D02*
G37*
G36*
X71415Y17117D02*
X71500D01*
X71593Y17113D01*
X71693Y17110D01*
X71900Y17102D01*
X72004Y17095D01*
X72104Y17087D01*
X72196Y17080D01*
X72281Y17069D01*
X72355Y17058D01*
X72385Y17051D01*
X72414Y17043D01*
X72418D01*
X72433Y17036D01*
X72459Y17028D01*
X72488Y17021D01*
X72525Y17006D01*
X72570Y16988D01*
X72618Y16965D01*
X72673Y16936D01*
X72729Y16906D01*
X72788Y16869D01*
X72847Y16828D01*
X72910Y16784D01*
X72973Y16732D01*
X73036Y16673D01*
X73095Y16610D01*
X73151Y16540D01*
X73154Y16536D01*
X73165Y16521D01*
X73180Y16499D01*
X73199Y16470D01*
X73221Y16433D01*
X73247Y16385D01*
X73273Y16333D01*
X73302Y16270D01*
X73328Y16203D01*
X73354Y16129D01*
X73380Y16048D01*
X73402Y15959D01*
X73424Y15863D01*
X73439Y15763D01*
X73447Y15656D01*
X73450Y15545D01*
Y15541D01*
Y15522D01*
Y15500D01*
X73447Y15467D01*
Y15426D01*
X73443Y15378D01*
X73435Y15326D01*
X73428Y15267D01*
X73421Y15208D01*
X73410Y15141D01*
X73376Y15008D01*
X73336Y14875D01*
X73306Y14812D01*
X73276Y14749D01*
X73273Y14745D01*
X73269Y14734D01*
X73258Y14719D01*
X73247Y14697D01*
X73228Y14671D01*
X73210Y14638D01*
X73158Y14568D01*
X73095Y14486D01*
X73021Y14401D01*
X72936Y14320D01*
X72843Y14246D01*
X72840Y14242D01*
X72832Y14239D01*
X72818Y14227D01*
X72799Y14216D01*
X72773Y14201D01*
X72747Y14183D01*
X72714Y14164D01*
X72677Y14146D01*
X72596Y14105D01*
X72507Y14065D01*
X72411Y14028D01*
X72307Y14002D01*
X72303D01*
X72289Y13998D01*
X72270Y13994D01*
X72237Y13991D01*
X72200Y13987D01*
X72152Y13980D01*
X72100Y13972D01*
X72033Y13968D01*
X71963Y13961D01*
X71885Y13954D01*
X71796Y13946D01*
X71700Y13942D01*
X71597Y13939D01*
X71486Y13935D01*
X71364Y13931D01*
X70564D01*
Y12000D01*
X69532D01*
Y17121D01*
X71338D01*
X71415Y17117D01*
D02*
G37*
G36*
X92320Y15274D02*
X92324Y15282D01*
X92343Y15297D01*
X92365Y15323D01*
X92402Y15356D01*
X92442Y15397D01*
X92494Y15437D01*
X92557Y15485D01*
X92624Y15533D01*
X92698Y15582D01*
X92779Y15630D01*
X92868Y15674D01*
X92964Y15711D01*
X93064Y15744D01*
X93168Y15770D01*
X93279Y15785D01*
X93393Y15792D01*
X93423D01*
X93460Y15789D01*
X93508Y15785D01*
X93563Y15778D01*
X93634Y15767D01*
X93708Y15752D01*
X93789Y15730D01*
X93878Y15704D01*
X93967Y15674D01*
X94059Y15633D01*
X94156Y15585D01*
X94248Y15530D01*
X94344Y15463D01*
X94433Y15385D01*
X94518Y15300D01*
X94522Y15293D01*
X94537Y15278D01*
X94559Y15249D01*
X94588Y15208D01*
X94622Y15160D01*
X94659Y15097D01*
X94699Y15023D01*
X94740Y14942D01*
X94781Y14845D01*
X94822Y14742D01*
X94858Y14623D01*
X94892Y14498D01*
X94921Y14361D01*
X94944Y14216D01*
X94958Y14057D01*
X94962Y13891D01*
Y13887D01*
Y13880D01*
Y13869D01*
Y13850D01*
Y13828D01*
X94958Y13798D01*
Y13769D01*
X94955Y13735D01*
X94947Y13654D01*
X94940Y13561D01*
X94925Y13462D01*
X94907Y13351D01*
X94881Y13236D01*
X94851Y13114D01*
X94814Y12992D01*
X94770Y12873D01*
X94718Y12751D01*
X94659Y12636D01*
X94588Y12525D01*
X94507Y12426D01*
X94503Y12418D01*
X94485Y12403D01*
X94463Y12377D01*
X94426Y12344D01*
X94381Y12307D01*
X94329Y12263D01*
X94270Y12218D01*
X94200Y12170D01*
X94126Y12122D01*
X94041Y12078D01*
X93948Y12033D01*
X93852Y11996D01*
X93748Y11963D01*
X93641Y11937D01*
X93527Y11922D01*
X93408Y11915D01*
X93379D01*
X93353Y11919D01*
X93327D01*
X93290Y11922D01*
X93253Y11930D01*
X93212Y11933D01*
X93116Y11956D01*
X93009Y11981D01*
X92894Y12022D01*
X92838Y12044D01*
X92779Y12074D01*
X92775Y12078D01*
X92764Y12081D01*
X92750Y12093D01*
X92727Y12104D01*
X92701Y12122D01*
X92672Y12141D01*
X92635Y12167D01*
X92598Y12192D01*
X92516Y12259D01*
X92428Y12340D01*
X92335Y12433D01*
X92250Y12544D01*
Y12000D01*
X91340D01*
Y17121D01*
X92320D01*
Y15274D01*
D02*
G37*
%LPC*%
G36*
X76462Y22016D02*
X76428D01*
X76402Y22012D01*
X76373Y22008D01*
X76336Y22001D01*
X76295Y21993D01*
X76251Y21982D01*
X76206Y21967D01*
X76158Y21945D01*
X76106Y21923D01*
X76058Y21897D01*
X76007Y21864D01*
X75958Y21827D01*
X75910Y21782D01*
X75862Y21734D01*
X75858Y21731D01*
X75851Y21723D01*
X75840Y21705D01*
X75825Y21682D01*
X75807Y21653D01*
X75788Y21620D01*
X75766Y21575D01*
X75744Y21527D01*
X75722Y21472D01*
X75699Y21412D01*
X75681Y21346D01*
X75662Y21272D01*
X75648Y21190D01*
X75637Y21105D01*
X75629Y21013D01*
X75625Y20913D01*
Y20906D01*
Y20887D01*
Y20854D01*
X75629Y20809D01*
X75633Y20757D01*
X75640Y20698D01*
X75648Y20635D01*
X75655Y20561D01*
X75685Y20413D01*
X75707Y20336D01*
X75729Y20258D01*
X75759Y20184D01*
X75792Y20114D01*
X75829Y20047D01*
X75873Y19988D01*
X75877Y19984D01*
X75884Y19977D01*
X75899Y19962D01*
X75918Y19943D01*
X75944Y19918D01*
X75969Y19895D01*
X76003Y19866D01*
X76043Y19840D01*
X76084Y19814D01*
X76132Y19784D01*
X76180Y19762D01*
X76232Y19740D01*
X76291Y19718D01*
X76351Y19703D01*
X76414Y19696D01*
X76480Y19692D01*
X76495D01*
X76513Y19696D01*
X76539D01*
X76565Y19699D01*
X76602Y19707D01*
X76639Y19714D01*
X76680Y19725D01*
X76724Y19740D01*
X76772Y19759D01*
X76820Y19781D01*
X76869Y19807D01*
X76917Y19840D01*
X76965Y19877D01*
X77009Y19918D01*
X77054Y19966D01*
X77057Y19969D01*
X77065Y19981D01*
X77076Y19995D01*
X77091Y20018D01*
X77105Y20047D01*
X77128Y20084D01*
X77146Y20129D01*
X77168Y20180D01*
X77191Y20240D01*
X77209Y20306D01*
X77231Y20380D01*
X77246Y20461D01*
X77261Y20550D01*
X77272Y20647D01*
X77279Y20750D01*
X77283Y20865D01*
Y20872D01*
Y20891D01*
Y20920D01*
X77279Y20961D01*
X77276Y21009D01*
X77272Y21065D01*
X77264Y21127D01*
X77253Y21194D01*
X77224Y21335D01*
X77205Y21405D01*
X77183Y21475D01*
X77157Y21546D01*
X77124Y21612D01*
X77087Y21675D01*
X77046Y21731D01*
X77043Y21734D01*
X77035Y21742D01*
X77024Y21757D01*
X77005Y21775D01*
X76980Y21797D01*
X76954Y21819D01*
X76920Y21845D01*
X76883Y21875D01*
X76843Y21901D01*
X76798Y21927D01*
X76750Y21949D01*
X76698Y21971D01*
X76647Y21990D01*
X76587Y22004D01*
X76525Y22012D01*
X76462Y22016D01*
D02*
G37*
G36*
X70771Y20780D02*
X70767D01*
X70764Y20776D01*
X70753Y20772D01*
X70734Y20769D01*
X70715Y20761D01*
X70690Y20754D01*
X70660Y20746D01*
X70623Y20739D01*
X70582Y20728D01*
X70538Y20717D01*
X70490Y20702D01*
X70434Y20691D01*
X70375Y20676D01*
X70312Y20661D01*
X70242Y20643D01*
X70168Y20628D01*
X70164D01*
X70149Y20624D01*
X70131Y20621D01*
X70101Y20613D01*
X70068Y20606D01*
X70031Y20595D01*
X69950Y20572D01*
X69861Y20547D01*
X69772Y20521D01*
X69731Y20502D01*
X69694Y20487D01*
X69661Y20473D01*
X69635Y20458D01*
X69631D01*
X69628Y20450D01*
X69605Y20432D01*
X69576Y20402D01*
X69543Y20362D01*
X69506Y20313D01*
X69476Y20254D01*
X69454Y20184D01*
X69450Y20147D01*
X69446Y20110D01*
Y20106D01*
Y20103D01*
Y20091D01*
X69450Y20077D01*
X69454Y20036D01*
X69465Y19988D01*
X69483Y19932D01*
X69509Y19873D01*
X69546Y19814D01*
X69598Y19755D01*
X69605Y19747D01*
X69628Y19733D01*
X69661Y19707D01*
X69705Y19681D01*
X69761Y19655D01*
X69828Y19629D01*
X69905Y19614D01*
X69990Y19607D01*
X70016D01*
X70035Y19611D01*
X70061D01*
X70086Y19618D01*
X70153Y19629D01*
X70231Y19651D01*
X70316Y19681D01*
X70405Y19725D01*
X70453Y19751D01*
X70497Y19781D01*
X70501D01*
X70505Y19788D01*
X70527Y19803D01*
X70556Y19832D01*
X70593Y19870D01*
X70634Y19918D01*
X70671Y19973D01*
X70704Y20036D01*
X70730Y20103D01*
X70734Y20110D01*
X70738Y20129D01*
X70741Y20143D01*
X70745Y20162D01*
X70749Y20184D01*
X70753Y20210D01*
X70756Y20240D01*
X70760Y20277D01*
Y20313D01*
X70764Y20358D01*
X70767Y20406D01*
X70771Y20461D01*
Y20521D01*
Y20584D01*
Y20780D01*
D02*
G37*
G36*
X92853Y22041D02*
X92823D01*
X92801Y22038D01*
X92771Y22034D01*
X92738Y22030D01*
X92705Y22023D01*
X92664Y22012D01*
X92582Y21982D01*
X92538Y21964D01*
X92494Y21941D01*
X92446Y21916D01*
X92405Y21882D01*
X92361Y21845D01*
X92320Y21805D01*
X92316Y21801D01*
X92312Y21793D01*
X92301Y21779D01*
X92286Y21760D01*
X92272Y21738D01*
X92253Y21708D01*
X92235Y21675D01*
X92216Y21638D01*
X92194Y21594D01*
X92176Y21546D01*
X92161Y21494D01*
X92142Y21438D01*
X92131Y21375D01*
X92120Y21313D01*
X92113Y21242D01*
Y21168D01*
X93585D01*
Y21172D01*
Y21187D01*
X93581Y21209D01*
Y21238D01*
X93578Y21275D01*
X93570Y21316D01*
X93563Y21361D01*
X93552Y21409D01*
X93526Y21512D01*
X93485Y21620D01*
X93463Y21675D01*
X93433Y21723D01*
X93400Y21771D01*
X93363Y21816D01*
X93360Y21819D01*
X93352Y21827D01*
X93341Y21838D01*
X93326Y21853D01*
X93304Y21868D01*
X93282Y21886D01*
X93252Y21908D01*
X93219Y21930D01*
X93145Y21971D01*
X93060Y22008D01*
X93012Y22019D01*
X92960Y22030D01*
X92908Y22038D01*
X92853Y22041D01*
D02*
G37*
G36*
X80532D02*
X80502D01*
X80480Y22038D01*
X80450Y22034D01*
X80417Y22030D01*
X80384Y22023D01*
X80343Y22012D01*
X80261Y21982D01*
X80217Y21964D01*
X80173Y21941D01*
X80125Y21916D01*
X80084Y21882D01*
X80040Y21845D01*
X79999Y21805D01*
X79995Y21801D01*
X79991Y21793D01*
X79980Y21779D01*
X79966Y21760D01*
X79951Y21738D01*
X79932Y21708D01*
X79914Y21675D01*
X79895Y21638D01*
X79873Y21594D01*
X79855Y21546D01*
X79840Y21494D01*
X79821Y21438D01*
X79810Y21375D01*
X79799Y21313D01*
X79792Y21242D01*
Y21168D01*
X81264D01*
Y21172D01*
Y21187D01*
X81261Y21209D01*
Y21238D01*
X81257Y21275D01*
X81249Y21316D01*
X81242Y21361D01*
X81231Y21409D01*
X81205Y21512D01*
X81164Y21620D01*
X81142Y21675D01*
X81112Y21723D01*
X81079Y21771D01*
X81042Y21816D01*
X81038Y21819D01*
X81031Y21827D01*
X81020Y21838D01*
X81005Y21853D01*
X80983Y21868D01*
X80961Y21886D01*
X80931Y21908D01*
X80898Y21930D01*
X80824Y21971D01*
X80739Y22008D01*
X80691Y22019D01*
X80639Y22030D01*
X80587Y22038D01*
X80532Y22041D01*
D02*
G37*
G36*
X89453Y13780D02*
X89449D01*
X89445Y13776D01*
X89434Y13772D01*
X89416Y13769D01*
X89397Y13761D01*
X89371Y13754D01*
X89342Y13746D01*
X89305Y13739D01*
X89264Y13728D01*
X89220Y13717D01*
X89172Y13702D01*
X89116Y13691D01*
X89057Y13676D01*
X88994Y13661D01*
X88924Y13643D01*
X88850Y13628D01*
X88846D01*
X88831Y13624D01*
X88813Y13621D01*
X88783Y13613D01*
X88750Y13606D01*
X88713Y13595D01*
X88631Y13573D01*
X88543Y13547D01*
X88454Y13521D01*
X88413Y13502D01*
X88376Y13487D01*
X88343Y13473D01*
X88317Y13458D01*
X88313D01*
X88310Y13450D01*
X88287Y13432D01*
X88258Y13402D01*
X88224Y13362D01*
X88187Y13314D01*
X88158Y13254D01*
X88136Y13184D01*
X88132Y13147D01*
X88128Y13110D01*
Y13106D01*
Y13103D01*
Y13092D01*
X88132Y13077D01*
X88136Y13036D01*
X88147Y12988D01*
X88165Y12932D01*
X88191Y12873D01*
X88228Y12814D01*
X88280Y12755D01*
X88287Y12747D01*
X88310Y12733D01*
X88343Y12707D01*
X88387Y12681D01*
X88443Y12655D01*
X88509Y12629D01*
X88587Y12614D01*
X88672Y12607D01*
X88698D01*
X88717Y12610D01*
X88742D01*
X88768Y12618D01*
X88835Y12629D01*
X88913Y12651D01*
X88998Y12681D01*
X89087Y12725D01*
X89135Y12751D01*
X89179Y12781D01*
X89183D01*
X89186Y12788D01*
X89209Y12803D01*
X89238Y12833D01*
X89275Y12869D01*
X89316Y12918D01*
X89353Y12973D01*
X89386Y13036D01*
X89412Y13103D01*
X89416Y13110D01*
X89420Y13128D01*
X89423Y13143D01*
X89427Y13162D01*
X89431Y13184D01*
X89434Y13210D01*
X89438Y13239D01*
X89442Y13276D01*
Y13314D01*
X89445Y13358D01*
X89449Y13406D01*
X89453Y13462D01*
Y13521D01*
Y13584D01*
Y13780D01*
D02*
G37*
G36*
X71253Y16255D02*
X70564D01*
Y14797D01*
X71227D01*
X71275Y14801D01*
X71330D01*
X71393Y14805D01*
X71456Y14808D01*
X71593Y14816D01*
X71726Y14830D01*
X71789Y14838D01*
X71848Y14849D01*
X71896Y14860D01*
X71941Y14875D01*
X71944D01*
X71952Y14879D01*
X71959Y14882D01*
X71974Y14890D01*
X72011Y14908D01*
X72059Y14938D01*
X72111Y14971D01*
X72166Y15015D01*
X72218Y15067D01*
X72266Y15126D01*
Y15130D01*
X72270Y15134D01*
X72277Y15145D01*
X72285Y15156D01*
X72303Y15193D01*
X72325Y15241D01*
X72348Y15300D01*
X72366Y15367D01*
X72381Y15445D01*
X72385Y15526D01*
Y15530D01*
Y15537D01*
Y15552D01*
X72381Y15574D01*
Y15596D01*
X72377Y15626D01*
X72363Y15689D01*
X72344Y15763D01*
X72314Y15841D01*
X72274Y15918D01*
X72248Y15955D01*
X72218Y15989D01*
Y15992D01*
X72211Y15996D01*
X72189Y16018D01*
X72155Y16048D01*
X72107Y16089D01*
X72044Y16126D01*
X71974Y16162D01*
X71893Y16196D01*
X71804Y16218D01*
X71796D01*
X71782Y16222D01*
X71767Y16225D01*
X71745D01*
X71715Y16229D01*
X71682Y16233D01*
X71641Y16237D01*
X71593Y16240D01*
X71541Y16244D01*
X71482Y16248D01*
X71412D01*
X71338Y16251D01*
X71253Y16255D01*
D02*
G37*
G36*
X93134Y15041D02*
X93101D01*
X93075Y15038D01*
X93046Y15034D01*
X93009Y15027D01*
X92971Y15019D01*
X92927Y15008D01*
X92883Y14993D01*
X92835Y14975D01*
X92787Y14953D01*
X92735Y14923D01*
X92687Y14893D01*
X92638Y14856D01*
X92590Y14812D01*
X92546Y14764D01*
X92542Y14760D01*
X92535Y14753D01*
X92524Y14734D01*
X92509Y14712D01*
X92491Y14683D01*
X92472Y14649D01*
X92450Y14605D01*
X92431Y14557D01*
X92409Y14501D01*
X92387Y14442D01*
X92368Y14372D01*
X92350Y14298D01*
X92335Y14216D01*
X92324Y14128D01*
X92317Y14031D01*
X92313Y13931D01*
Y13924D01*
Y13905D01*
Y13876D01*
X92317Y13839D01*
X92320Y13791D01*
X92324Y13735D01*
X92328Y13676D01*
X92335Y13610D01*
X92357Y13473D01*
X92391Y13332D01*
X92409Y13262D01*
X92435Y13195D01*
X92461Y13136D01*
X92494Y13080D01*
X92498Y13077D01*
X92505Y13066D01*
X92520Y13043D01*
X92542Y13021D01*
X92568Y12992D01*
X92598Y12958D01*
X92635Y12921D01*
X92676Y12888D01*
X92720Y12851D01*
X92772Y12814D01*
X92827Y12781D01*
X92886Y12751D01*
X92953Y12729D01*
X93020Y12710D01*
X93094Y12696D01*
X93171Y12692D01*
X93186D01*
X93205Y12696D01*
X93227D01*
X93253Y12699D01*
X93286Y12707D01*
X93323Y12714D01*
X93364Y12725D01*
X93404Y12740D01*
X93449Y12758D01*
X93497Y12781D01*
X93541Y12810D01*
X93589Y12840D01*
X93638Y12877D01*
X93682Y12921D01*
X93726Y12969D01*
X93730Y12973D01*
X93737Y12984D01*
X93748Y12999D01*
X93763Y13021D01*
X93778Y13051D01*
X93800Y13088D01*
X93819Y13132D01*
X93841Y13184D01*
X93863Y13239D01*
X93882Y13306D01*
X93904Y13376D01*
X93919Y13454D01*
X93933Y13539D01*
X93945Y13635D01*
X93952Y13735D01*
X93956Y13843D01*
Y13846D01*
Y13850D01*
Y13872D01*
Y13902D01*
X93952Y13946D01*
X93948Y13998D01*
X93945Y14057D01*
X93937Y14124D01*
X93926Y14198D01*
X93900Y14346D01*
X93882Y14424D01*
X93856Y14498D01*
X93830Y14571D01*
X93800Y14642D01*
X93763Y14705D01*
X93723Y14760D01*
X93719Y14764D01*
X93712Y14771D01*
X93700Y14786D01*
X93682Y14805D01*
X93660Y14827D01*
X93630Y14849D01*
X93600Y14875D01*
X93563Y14901D01*
X93523Y14927D01*
X93478Y14953D01*
X93430Y14975D01*
X93379Y14997D01*
X93323Y15015D01*
X93264Y15030D01*
X93201Y15038D01*
X93134Y15041D01*
D02*
G37*
G36*
X131500Y96583D02*
X130573Y96461D01*
X129708Y96103D01*
X128966Y95534D01*
X128397Y94792D01*
X128039Y93927D01*
X127917Y93000D01*
X128039Y92073D01*
X128397Y91208D01*
X128966Y90466D01*
X129708Y89897D01*
X130573Y89539D01*
X131500Y89417D01*
X132427Y89539D01*
X133292Y89897D01*
X134034Y90466D01*
X134603Y91208D01*
X134961Y92073D01*
X135083Y93000D01*
X134961Y93927D01*
X134603Y94792D01*
X134034Y95534D01*
X133292Y96103D01*
X132427Y96461D01*
X131500Y96583D01*
D02*
G37*
G36*
X141000Y86921D02*
X140468Y86851D01*
X139507Y86453D01*
X138681Y85819D01*
X138047Y84993D01*
X137936Y84724D01*
X137816Y84655D01*
X137613Y84560D01*
X137419Y84488D01*
X137232Y84439D01*
X137050Y84410D01*
X136838Y84399D01*
X136792Y84376D01*
X136208D01*
X136162Y84399D01*
X135950Y84410D01*
X135768Y84439D01*
X135581Y84488D01*
X135387Y84560D01*
X135185Y84655D01*
X135064Y84724D01*
X134953Y84993D01*
X134319Y85819D01*
X133493Y86453D01*
X132532Y86851D01*
X132000Y86921D01*
Y83000D01*
Y79079D01*
X132532Y79149D01*
X133493Y79547D01*
X134319Y80181D01*
X134953Y81007D01*
X135064Y81275D01*
X135184Y81344D01*
X135387Y81440D01*
X135581Y81511D01*
X135768Y81561D01*
X135950Y81590D01*
X136162Y81602D01*
X136208Y81624D01*
X136792D01*
X136838Y81602D01*
X137050Y81590D01*
X137232Y81561D01*
X137419Y81511D01*
X137613Y81440D01*
X137815Y81344D01*
X137936Y81275D01*
X138047Y81007D01*
X138681Y80181D01*
X139507Y79547D01*
X140468Y79149D01*
X141000Y79079D01*
Y83000D01*
Y86921D01*
D02*
G37*
%LPD*%
G36*
X139391Y80933D02*
X139134Y81183D01*
X138877Y81407D01*
X138622Y81605D01*
X138369Y81776D01*
X138116Y81921D01*
X137865Y82039D01*
X137615Y82131D01*
X137366Y82197D01*
X137119Y82237D01*
X136872Y82250D01*
Y83750D01*
X137119Y83763D01*
X137366Y83803D01*
X137615Y83868D01*
X137865Y83961D01*
X138116Y84079D01*
X138369Y84224D01*
X138622Y84395D01*
X138877Y84593D01*
X139134Y84817D01*
X139391Y85067D01*
Y80933D01*
D02*
G37*
G36*
X133866Y84817D02*
X134123Y84593D01*
X134378Y84395D01*
X134631Y84224D01*
X134884Y84079D01*
X135135Y83961D01*
X135385Y83868D01*
X135634Y83803D01*
X135881Y83763D01*
X136128Y83750D01*
Y82250D01*
X135881Y82237D01*
X135634Y82197D01*
X135385Y82131D01*
X135135Y82039D01*
X134884Y81921D01*
X134631Y81776D01*
X134378Y81605D01*
X134123Y81407D01*
X133866Y81183D01*
X133609Y80933D01*
Y85067D01*
X133866Y84817D01*
D02*
G37*
D16*
X35000Y64000D02*
X35921Y64921D01*
Y72669D01*
X44331D02*
X44500Y72500D01*
X35921Y72669D02*
X44331D01*
X35000Y64000D02*
X41000D01*
X25500Y94000D02*
X53056D01*
X18829Y87329D02*
X25500Y94000D01*
X18829Y78329D02*
Y87329D01*
X115500Y19000D02*
X124500D01*
X112689Y30811D02*
X124500D01*
X112500Y31000D02*
X112689Y30811D01*
X93500Y32500D02*
X94000Y32000D01*
X59589Y53100D02*
X66973Y60483D01*
X25727Y53100D02*
X59589D01*
X66973Y60483D02*
Y62492D01*
X60252Y51500D02*
X70372Y61620D01*
X17000Y51500D02*
X60252D01*
X70372Y61620D02*
Y64514D01*
X67654Y63173D02*
Y64945D01*
X66973Y62492D02*
X67654Y63173D01*
X80916Y112916D02*
X146584D01*
X87816Y111316D02*
X144645D01*
X77447Y109447D02*
X80916Y112916D01*
X146584D02*
X153500Y106000D01*
X86500Y110000D02*
X87816Y111316D01*
X144645D02*
X149000Y106961D01*
X87000Y77000D02*
Y82335D01*
X87831Y83166D01*
X85500Y88481D02*
X93519Y96500D01*
X77102Y91950D02*
X83552Y85500D01*
X85500D01*
Y88481D01*
X83500Y65043D02*
Y71615D01*
X83402Y64945D02*
X83500Y65043D01*
X146000Y63500D02*
X153500Y56000D01*
X100000Y63500D02*
X146000D01*
X98200Y66300D02*
X115825D01*
X98000Y66500D02*
X98200Y66300D01*
X116025Y66500D02*
X152000D01*
X115825Y66300D02*
X116025Y66500D01*
X152000D02*
X153000Y65500D01*
X153500Y66000D01*
X100500Y86375D02*
Y87001D01*
X98630Y88870D02*
X100500Y87001D01*
X85500Y94262D02*
X86551Y95313D01*
Y98409D01*
X85762Y94000D02*
X86000D01*
X85500Y94262D02*
X85762Y94000D01*
X83416Y91584D02*
X83500Y91500D01*
X83416Y91584D02*
Y98395D01*
X83402Y98409D02*
X83416Y98395D01*
X77102Y91950D02*
Y98409D01*
X80000Y92000D02*
Y98158D01*
X146500Y83000D02*
X153500Y76000D01*
X146500Y83000D02*
Y94500D01*
X140400Y100600D02*
X146500Y94500D01*
X90382Y100600D02*
X140400D01*
X6000Y123500D02*
Y127500D01*
X3500Y130000D02*
X6000Y127500D01*
X95803Y46303D02*
Y70260D01*
X93500Y44000D02*
X95803Y46303D01*
X95410Y70653D02*
X95803Y70260D01*
X100500Y90000D02*
Y90150D01*
X98630Y92020D02*
X100500Y90150D01*
X96091Y92020D02*
X98630D01*
X95410Y92701D02*
X96091Y92020D01*
Y88870D02*
X98630D01*
X95410Y89551D02*
X96091Y88870D01*
X90000Y142000D02*
X106500D01*
X88000Y144000D02*
X90000Y142000D01*
X88000Y144000D02*
Y148500D01*
X68000Y90765D02*
Y93500D01*
X66786Y89551D02*
X68000Y90765D01*
X61945Y89551D02*
X66786D01*
X77447Y105053D02*
X79638Y102862D01*
Y99024D02*
Y102862D01*
Y99024D02*
X80252Y98409D01*
X86500Y105500D02*
Y110000D01*
X83402Y102402D02*
X86500Y105500D01*
X86551Y101551D02*
X87500Y102500D01*
X86551Y98409D02*
Y101551D01*
X77447Y105053D02*
Y109447D01*
X75553Y103553D02*
Y115447D01*
X73953Y101953D02*
X75553Y103553D01*
X67447Y105321D02*
Y113947D01*
Y105321D02*
X70122Y102647D01*
Y99090D02*
Y102647D01*
X64500Y103335D02*
Y107000D01*
X87500Y102500D02*
X140763D01*
X80000Y98158D02*
X80252Y98409D01*
X67827Y69827D02*
X68000Y70000D01*
X67827Y65118D02*
Y69827D01*
X67654Y64945D02*
X67827Y65118D01*
X64500Y103335D02*
X67654Y100181D01*
Y98409D02*
Y100181D01*
X70122Y99090D02*
X70803Y98409D01*
X14000Y73500D02*
X18829Y78329D01*
X53056Y94000D02*
X57492Y89564D01*
X61933D01*
X61945Y89551D01*
X73953Y98409D02*
Y101953D01*
X75500Y115500D02*
X75553Y115447D01*
X83402Y98409D02*
Y102402D01*
X77447Y54953D02*
Y58679D01*
X70547Y48053D02*
X77447Y54953D01*
X61553Y48053D02*
X70547D01*
X75847Y55616D02*
Y59341D01*
X69884Y49653D02*
X75847Y55616D01*
X52653Y49653D02*
X69884D01*
X100476Y76976D02*
X100500Y77000D01*
X95433Y76976D02*
X100476D01*
X95410Y76953D02*
X95433Y76976D01*
X93519Y96500D02*
X104500D01*
Y88500D02*
Y96500D01*
X140763Y102500D02*
X148100Y95163D01*
Y91400D02*
Y95163D01*
Y91400D02*
X153500Y86000D01*
X89701Y99919D02*
X90382Y100600D01*
X89701Y98409D02*
Y99919D01*
X149000Y100500D02*
X153500Y96000D01*
X149000Y100500D02*
Y106961D01*
X62000Y92756D02*
Y101000D01*
X61945Y92701D02*
X62000Y92756D01*
X104102Y80102D02*
X104500Y80500D01*
X95410Y80102D02*
X104102D01*
X73976Y69976D02*
X74000Y70000D01*
X73976Y64969D02*
Y69976D01*
X73953Y64945D02*
X73976Y64969D01*
X15327Y63500D02*
X25727Y53100D01*
X15000Y53500D02*
X17000Y51500D01*
X43500Y40500D02*
X52653Y49653D01*
X75847Y59341D02*
X76998Y60492D01*
Y64840D01*
X77102Y64945D01*
X54000Y40500D02*
X61553Y48053D01*
X43500Y31500D02*
Y40500D01*
X54000Y32000D02*
Y40500D01*
X53500Y31500D02*
X54000Y32000D01*
X77447Y58679D02*
X79571Y60802D01*
Y64264D01*
X80252Y64945D01*
X14000Y53500D02*
X15000D01*
X14000Y63500D02*
X15327D01*
X85553Y61407D02*
X85683Y61537D01*
X85553Y52725D02*
Y61407D01*
X83500Y44201D02*
X83701D01*
X89701Y61201D02*
Y64945D01*
X87447Y58947D02*
X89701Y61201D01*
X87447Y47947D02*
Y58947D01*
X70372Y64514D02*
X70803Y64945D01*
X77766Y44939D02*
X85553Y52725D01*
X74439Y44939D02*
X77766D01*
X73500Y44000D02*
X74439Y44939D01*
X83701Y44201D02*
X87447Y47947D01*
X83500Y44000D02*
Y44201D01*
Y31500D02*
Y44000D01*
X73500Y31500D02*
Y44000D01*
X93500Y32500D02*
Y44000D01*
D17*
X26079Y81331D02*
D03*
X35921D02*
D03*
Y72669D02*
D03*
X26079D02*
D03*
D18*
X104500Y31000D02*
D03*
X112500D02*
D03*
X52500Y81500D02*
D03*
X44500D02*
D03*
X14000Y123500D02*
D03*
X6000D02*
D03*
X112500Y96500D02*
D03*
X104500D02*
D03*
X48500Y108500D02*
D03*
X56500D02*
D03*
X104500Y88500D02*
D03*
X112500D02*
D03*
Y72500D02*
D03*
X104500D02*
D03*
X112500Y80500D02*
D03*
X104500D02*
D03*
X52500Y72500D02*
D03*
X44500D02*
D03*
X35000Y64000D02*
D03*
X27000D02*
D03*
D19*
X124500Y19000D02*
D03*
Y30811D02*
D03*
X112000Y123189D02*
D03*
Y135000D02*
D03*
D20*
X99000D02*
D03*
Y127000D02*
D03*
X41500Y90500D02*
D03*
Y98500D02*
D03*
X40000Y131500D02*
D03*
Y123500D02*
D03*
X50000Y98500D02*
D03*
Y90500D02*
D03*
D21*
X49874Y135976D02*
D03*
Y118024D02*
D03*
D22*
X76646Y127000D02*
D03*
D23*
X61945Y92701D02*
D03*
Y89551D02*
D03*
Y86402D02*
D03*
Y83252D02*
D03*
Y80102D02*
D03*
Y76953D02*
D03*
Y73803D02*
D03*
Y70653D02*
D03*
X95410D02*
D03*
Y73803D02*
D03*
Y76953D02*
D03*
Y80102D02*
D03*
Y83252D02*
D03*
Y86402D02*
D03*
Y89551D02*
D03*
Y92701D02*
D03*
D24*
X67654Y64945D02*
D03*
X70803D02*
D03*
X73953D02*
D03*
X77102D02*
D03*
X80252D02*
D03*
X83402D02*
D03*
X86551D02*
D03*
X89701D02*
D03*
Y98409D02*
D03*
X86551D02*
D03*
X83402D02*
D03*
X80252D02*
D03*
X77102D02*
D03*
X73953D02*
D03*
X70803D02*
D03*
X67654D02*
D03*
D38*
X32500Y126257D02*
Y141500D01*
Y126257D02*
X34757Y124000D01*
X32500Y141500D02*
X40000Y149000D01*
X118000Y156500D02*
X160000Y114500D01*
Y52705D02*
Y114500D01*
X75000Y156500D02*
X118000D01*
X113000Y117500D02*
Y122189D01*
X112000Y123189D02*
X113000Y122189D01*
X158243Y50947D02*
X160000Y52705D01*
X137553Y50947D02*
X158243D01*
X131500Y57000D02*
X137553Y50947D01*
X14500Y124000D02*
Y129500D01*
X14000Y123500D02*
X14500Y124000D01*
X75000Y156500D02*
X78000Y153500D01*
Y148500D02*
Y153500D01*
X63528Y156500D02*
X75000D01*
X56028Y149000D02*
X63528Y156500D01*
X50000Y149000D02*
X56028D01*
X49874Y135976D02*
X50000Y136102D01*
Y149000D01*
X48906Y135008D02*
X49874Y135976D01*
X44508Y135008D02*
X48906D01*
X41000Y131500D02*
X44508Y135008D01*
X40000Y131500D02*
X41000D01*
X49406Y118492D02*
X49874Y118024D01*
X46008Y118492D02*
X49406D01*
X41000Y123500D02*
X46008Y118492D01*
X40000Y123500D02*
X41000D01*
X34757Y124000D02*
X39500D01*
X40000Y123500D01*
D39*
X86000Y73803D02*
X95410D01*
X84613D02*
X86000D01*
X26079Y87700D02*
X28879Y90500D01*
X26079Y81331D02*
Y87700D01*
X28879Y90500D02*
X41500D01*
X52500Y72553D02*
Y81500D01*
Y72500D02*
Y72553D01*
X53750Y73803D01*
X61945D01*
X44331Y81331D02*
X44500Y81500D01*
X35921Y81331D02*
X44331D01*
X104000Y31500D02*
X104500Y31000D01*
X93500Y31500D02*
X104000D01*
X99500Y115000D02*
Y126500D01*
X99000Y127000D02*
X99500Y126500D01*
X87831Y83166D02*
X95323D01*
X84533D02*
X87831D01*
X80252Y83252D02*
X84447D01*
X84533Y83166D01*
X95323D02*
X95410Y83252D01*
X140410Y127910D02*
X140500Y128000D01*
X99910Y127910D02*
X140410D01*
X99000Y127000D02*
X99910Y127910D01*
X81464Y76953D02*
X84613Y73803D01*
X61945Y76953D02*
X81464D01*
X104500Y72500D02*
Y72553D01*
Y71500D02*
Y72500D01*
X45750Y90500D02*
X50000D01*
X41500D02*
X45750D01*
X118967Y70166D02*
X121500Y72699D01*
X117075Y70166D02*
X118967D01*
X115059Y68150D02*
X117075Y70166D01*
X107850Y68150D02*
X115059D01*
X104500Y71500D02*
X107850Y68150D01*
X121500Y72699D02*
Y83000D01*
X36000Y97500D02*
X36090Y97590D01*
X40590D01*
X41500Y98500D01*
X55500D02*
X55590Y98590D01*
Y107590D01*
X56500Y108500D01*
X112500Y72500D02*
X118000D01*
X119297Y85203D02*
X121500Y83000D01*
X119297Y85203D02*
Y88703D01*
X112500Y95500D02*
X119297Y88703D01*
X112500Y95500D02*
Y96500D01*
X52039Y135976D02*
X58000Y130016D01*
Y117500D02*
Y130016D01*
X49874Y135976D02*
X52039D01*
X53500Y113000D02*
X58000Y117500D01*
X52000Y113000D02*
X53500D01*
X48500Y109500D02*
X52000Y113000D01*
X48500Y108500D02*
Y109500D01*
X41500Y98500D02*
X49750D01*
X50000D01*
X48500Y99750D02*
X49750Y98500D01*
X48500Y99750D02*
Y108500D01*
X131500Y83000D02*
X141500D01*
X121500D02*
X131500D01*
X72000Y125000D02*
X74146D01*
X56500Y109500D02*
X72000Y125000D01*
X76646Y127000D02*
X99000D01*
X74146Y125000D02*
X76146Y127000D01*
X76646D01*
X56500Y108500D02*
Y109500D01*
X68000Y135146D02*
Y148500D01*
Y135146D02*
X76146Y127000D01*
X55743Y85257D02*
Y88500D01*
X53743Y90500D02*
X55743Y88500D01*
X50000Y90500D02*
X53743D01*
X55743Y85257D02*
X57317Y83683D01*
X61945Y86402D02*
X77102D01*
X80252Y83252D01*
X112500Y80500D02*
Y88500D01*
Y72500D02*
Y80500D01*
X103250Y73803D02*
X104500Y72553D01*
X95410Y73803D02*
X103250D01*
X61945Y80102D02*
X77102D01*
X80252Y83252D01*
X61514Y77384D02*
X61945Y76953D01*
X57317Y78687D02*
Y83683D01*
Y78687D02*
X58620Y77384D01*
X61514D01*
X57317Y83683D02*
X61514D01*
X61945Y83252D01*
X91500Y107000D02*
X101500D01*
D40*
X99000Y135000D02*
X112000D01*
D41*
X68000Y148500D02*
D03*
X40000Y149000D02*
D03*
X93500Y44000D02*
D03*
X121500Y83000D02*
D03*
X141500Y57000D02*
D03*
Y107000D02*
D03*
X136000Y44000D02*
D03*
X43500Y31500D02*
D03*
D42*
X78000Y148500D02*
D03*
X88000D02*
D03*
X98000D02*
D03*
X108000D02*
D03*
X118000D02*
D03*
X50000Y159000D02*
D03*
Y149000D02*
D03*
X40000Y159000D02*
D03*
X63500Y44000D02*
D03*
X73500D02*
D03*
X83500D02*
D03*
X141500Y93000D02*
D03*
Y83000D02*
D03*
X131500Y93000D02*
D03*
Y83000D02*
D03*
X121500Y93000D02*
D03*
X131500Y57000D02*
D03*
X121500D02*
D03*
X111500D02*
D03*
X101500D02*
D03*
X91500D02*
D03*
X81500D02*
D03*
X71500D02*
D03*
X131500Y107000D02*
D03*
X121500D02*
D03*
X111500D02*
D03*
X101500D02*
D03*
X91500D02*
D03*
X81500D02*
D03*
X71500D02*
D03*
X106000Y44000D02*
D03*
X116000D02*
D03*
X126000D02*
D03*
X53500Y31500D02*
D03*
X63500D02*
D03*
X73500D02*
D03*
X83500D02*
D03*
X93500D02*
D03*
X153500Y96000D02*
D03*
Y86000D02*
D03*
Y76000D02*
D03*
Y66000D02*
D03*
Y56000D02*
D03*
X14000Y53500D02*
D03*
Y63500D02*
D03*
Y73500D02*
D03*
Y83500D02*
D03*
Y93500D02*
D03*
Y103500D02*
D03*
Y113500D02*
D03*
D43*
X153500Y106000D02*
D03*
X14000Y43500D02*
D03*
D44*
X41000Y64000D02*
D03*
X115500Y19000D02*
D03*
X99500Y115000D02*
D03*
X87000Y77000D02*
D03*
X85500Y85500D02*
D03*
X140500Y128000D02*
D03*
X83500Y71615D02*
D03*
X45750Y90500D02*
D03*
X100000Y63500D02*
D03*
X98000Y66500D02*
D03*
X86000Y73500D02*
D03*
X36000Y97500D02*
D03*
X55500Y98500D02*
D03*
X118000Y72500D02*
D03*
X100500Y86375D02*
D03*
X113000Y117500D02*
D03*
X14500Y129500D02*
D03*
X86000Y94000D02*
D03*
X80000Y92000D02*
D03*
X83500Y91500D02*
D03*
X3500Y130000D02*
D03*
X100500Y90000D02*
D03*
X106500Y142000D02*
D03*
X68000Y93500D02*
D03*
X64500Y107000D02*
D03*
X67447Y113947D02*
D03*
X68000Y70000D02*
D03*
X75500Y115500D02*
D03*
X100500Y77000D02*
D03*
X62000Y101000D02*
D03*
X74000Y70000D02*
D03*
D45*
X143110Y143110D02*
D03*
Y22244D02*
D03*
X22244D02*
D03*
Y143110D02*
D03*
M02*
