G04*
G04 #@! TF.GenerationSoftware,Altium Limited,Altium Designer,19.1.8 (144)*
G04*
G04 Layer_Color=8388736*
%FSLAX25Y25*%
%MOIN*%
G70*
G01*
G75*
%ADD23R,0.04800X0.06800*%
%ADD24R,0.10249X0.08674*%
%ADD25R,0.09068X0.04737*%
%ADD26R,0.23832X0.20091*%
%ADD27R,0.06706X0.03162*%
%ADD28R,0.03162X0.06706*%
%ADD29R,0.06800X0.04800*%
%ADD30C,0.06706*%
%ADD31R,0.06706X0.06706*%
%ADD32R,0.06706X0.06706*%
%ADD33C,0.02769*%
%ADD34C,0.05800*%
%ADD35C,0.12611*%
G36*
X120517Y156214D02*
X119536D01*
Y157121D01*
X120517D01*
Y156214D01*
D02*
G37*
G36*
X110183D02*
X109202D01*
Y157121D01*
X110183D01*
Y156214D01*
D02*
G37*
G36*
X113295Y155789D02*
X113339Y155785D01*
X113394Y155778D01*
X113461Y155767D01*
X113531Y155752D01*
X113613Y155730D01*
X113698Y155704D01*
X113783Y155670D01*
X113875Y155630D01*
X113968Y155578D01*
X114060Y155522D01*
X114153Y155452D01*
X114245Y155374D01*
X114331Y155286D01*
X114334Y155278D01*
X114349Y155263D01*
X114371Y155234D01*
X114401Y155193D01*
X114434Y155141D01*
X114475Y155078D01*
X114516Y155004D01*
X114556Y154919D01*
X114597Y154823D01*
X114638Y154719D01*
X114678Y154601D01*
X114712Y154475D01*
X114741Y154338D01*
X114763Y154194D01*
X114778Y154039D01*
X114782Y153872D01*
Y153868D01*
Y153861D01*
Y153850D01*
Y153832D01*
Y153809D01*
X114778Y153783D01*
Y153754D01*
X114775Y153720D01*
X114767Y153643D01*
X114760Y153550D01*
X114745Y153450D01*
X114726Y153343D01*
X114701Y153228D01*
X114671Y153114D01*
X114634Y152992D01*
X114590Y152873D01*
X114538Y152755D01*
X114479Y152640D01*
X114408Y152529D01*
X114327Y152429D01*
X114323Y152422D01*
X114305Y152407D01*
X114283Y152381D01*
X114245Y152348D01*
X114201Y152311D01*
X114149Y152266D01*
X114086Y152218D01*
X114020Y152174D01*
X113942Y152126D01*
X113857Y152078D01*
X113768Y152033D01*
X113668Y151996D01*
X113568Y151963D01*
X113457Y151937D01*
X113343Y151922D01*
X113224Y151915D01*
X113195D01*
X113172Y151919D01*
X113143D01*
X113113Y151922D01*
X113076Y151926D01*
X113039Y151930D01*
X112951Y151944D01*
X112854Y151967D01*
X112758Y151996D01*
X112662Y152037D01*
X112658D01*
X112651Y152044D01*
X112636Y152052D01*
X112618Y152059D01*
X112595Y152074D01*
X112569Y152093D01*
X112540Y152111D01*
X112503Y152137D01*
X112425Y152192D01*
X112384Y152226D01*
X112336Y152266D01*
X112292Y152307D01*
X112240Y152351D01*
X112192Y152403D01*
X112140Y152455D01*
Y150590D01*
X111160D01*
Y155711D01*
X112074D01*
Y155164D01*
X112077Y155167D01*
X112081Y155175D01*
X112092Y155189D01*
X112107Y155212D01*
X112125Y155234D01*
X112148Y155263D01*
X112170Y155293D01*
X112199Y155326D01*
X112270Y155397D01*
X112351Y155474D01*
X112447Y155548D01*
X112555Y155619D01*
X112558Y155622D01*
X112569Y155626D01*
X112584Y155633D01*
X112606Y155645D01*
X112636Y155659D01*
X112669Y155674D01*
X112710Y155689D01*
X112754Y155707D01*
X112803Y155722D01*
X112854Y155737D01*
X112969Y155767D01*
X113095Y155785D01*
X113161Y155792D01*
X113261D01*
X113295Y155789D01*
D02*
G37*
G36*
X133548D02*
X133608Y155785D01*
X133674Y155778D01*
X133748Y155767D01*
X133826Y155755D01*
X133911Y155741D01*
X133996Y155722D01*
X134089Y155696D01*
X134177Y155667D01*
X134266Y155633D01*
X134355Y155593D01*
X134436Y155548D01*
X134514Y155497D01*
X134518Y155493D01*
X134533Y155482D01*
X134551Y155467D01*
X134581Y155441D01*
X134614Y155411D01*
X134651Y155374D01*
X134692Y155326D01*
X134736Y155274D01*
X134784Y155219D01*
X134832Y155152D01*
X134880Y155078D01*
X134925Y154997D01*
X134973Y154912D01*
X135017Y154819D01*
X135054Y154716D01*
X135091Y154609D01*
X134126Y154435D01*
Y154438D01*
X134122Y154446D01*
X134118Y154461D01*
X134115Y154483D01*
X134107Y154505D01*
X134100Y154534D01*
X134078Y154597D01*
X134048Y154668D01*
X134007Y154742D01*
X133959Y154808D01*
X133900Y154871D01*
X133896D01*
X133893Y154879D01*
X133881Y154886D01*
X133870Y154893D01*
X133830Y154919D01*
X133778Y154945D01*
X133715Y154971D01*
X133637Y154997D01*
X133548Y155012D01*
X133452Y155019D01*
X133415D01*
X133389Y155016D01*
X133360Y155012D01*
X133323Y155004D01*
X133282Y154997D01*
X133241Y154986D01*
X133193Y154975D01*
X133145Y154956D01*
X133097Y154938D01*
X133049Y154912D01*
X133001Y154882D01*
X132953Y154849D01*
X132908Y154808D01*
X132864Y154764D01*
X132860Y154760D01*
X132853Y154753D01*
X132845Y154738D01*
X132831Y154716D01*
X132812Y154686D01*
X132794Y154653D01*
X132775Y154612D01*
X132757Y154564D01*
X132734Y154509D01*
X132716Y154446D01*
X132697Y154375D01*
X132679Y154301D01*
X132664Y154216D01*
X132657Y154124D01*
X132649Y154024D01*
X132646Y153917D01*
Y153909D01*
Y153887D01*
Y153854D01*
X132649Y153809D01*
X132653Y153754D01*
X132657Y153695D01*
X132664Y153624D01*
X132675Y153554D01*
X132701Y153399D01*
X132720Y153321D01*
X132738Y153247D01*
X132764Y153173D01*
X132794Y153103D01*
X132827Y153040D01*
X132868Y152984D01*
X132871Y152980D01*
X132879Y152973D01*
X132890Y152958D01*
X132908Y152944D01*
X132931Y152921D01*
X132956Y152899D01*
X132990Y152873D01*
X133027Y152851D01*
X133067Y152825D01*
X133112Y152799D01*
X133160Y152777D01*
X133212Y152755D01*
X133271Y152740D01*
X133330Y152725D01*
X133397Y152718D01*
X133463Y152714D01*
X133489D01*
X133511Y152718D01*
X133534D01*
X133560Y152722D01*
X133626Y152733D01*
X133696Y152755D01*
X133774Y152781D01*
X133848Y152821D01*
X133885Y152844D01*
X133918Y152873D01*
X133922Y152877D01*
X133926Y152881D01*
X133937Y152892D01*
X133948Y152903D01*
X133963Y152921D01*
X133981Y152944D01*
X134000Y152969D01*
X134018Y153003D01*
X134040Y153036D01*
X134059Y153077D01*
X134081Y153121D01*
X134103Y153173D01*
X134122Y153225D01*
X134140Y153288D01*
X134159Y153350D01*
X134174Y153421D01*
X135139Y153258D01*
Y153251D01*
X135132Y153228D01*
X135121Y153195D01*
X135110Y153147D01*
X135091Y153092D01*
X135069Y153029D01*
X135043Y152958D01*
X135010Y152884D01*
X134973Y152803D01*
X134932Y152722D01*
X134884Y152636D01*
X134832Y152551D01*
X134773Y152470D01*
X134710Y152392D01*
X134640Y152318D01*
X134562Y152252D01*
X134558Y152248D01*
X134544Y152237D01*
X134518Y152222D01*
X134485Y152200D01*
X134440Y152174D01*
X134388Y152144D01*
X134329Y152115D01*
X134259Y152085D01*
X134181Y152052D01*
X134096Y152022D01*
X134003Y151993D01*
X133900Y151967D01*
X133793Y151944D01*
X133674Y151930D01*
X133548Y151919D01*
X133419Y151915D01*
X133382D01*
X133363Y151919D01*
X133341D01*
X133286Y151922D01*
X133215Y151930D01*
X133138Y151941D01*
X133049Y151959D01*
X132953Y151978D01*
X132849Y152007D01*
X132746Y152041D01*
X132634Y152081D01*
X132527Y152129D01*
X132420Y152189D01*
X132316Y152255D01*
X132216Y152337D01*
X132120Y152426D01*
X132116Y152433D01*
X132098Y152448D01*
X132076Y152477D01*
X132046Y152522D01*
X132009Y152574D01*
X131968Y152636D01*
X131924Y152710D01*
X131880Y152796D01*
X131835Y152892D01*
X131791Y152999D01*
X131750Y153117D01*
X131713Y153243D01*
X131684Y153380D01*
X131661Y153528D01*
X131643Y153683D01*
X131639Y153850D01*
Y153854D01*
Y153861D01*
Y153872D01*
Y153891D01*
X131643Y153913D01*
Y153939D01*
Y153968D01*
X131647Y154002D01*
X131654Y154079D01*
X131665Y154168D01*
X131680Y154264D01*
X131698Y154372D01*
X131724Y154486D01*
X131758Y154601D01*
X131798Y154719D01*
X131843Y154842D01*
X131898Y154956D01*
X131965Y155071D01*
X132039Y155178D01*
X132124Y155278D01*
X132131Y155286D01*
X132146Y155300D01*
X132176Y155326D01*
X132213Y155360D01*
X132261Y155397D01*
X132320Y155441D01*
X132390Y155489D01*
X132472Y155537D01*
X132561Y155582D01*
X132657Y155630D01*
X132764Y155674D01*
X132882Y155711D01*
X133008Y155744D01*
X133141Y155770D01*
X133286Y155785D01*
X133437Y155792D01*
X133504D01*
X133548Y155789D01*
D02*
G37*
G36*
X136812Y155234D02*
X136819Y155241D01*
X136834Y155260D01*
X136860Y155286D01*
X136897Y155323D01*
X136941Y155363D01*
X136997Y155411D01*
X137060Y155459D01*
X137130Y155515D01*
X137211Y155567D01*
X137296Y155615D01*
X137393Y155663D01*
X137493Y155704D01*
X137596Y155741D01*
X137707Y155770D01*
X137826Y155785D01*
X137948Y155792D01*
X138003D01*
X138033Y155789D01*
X138070Y155785D01*
X138107Y155781D01*
X138151Y155778D01*
X138244Y155763D01*
X138347Y155741D01*
X138451Y155707D01*
X138555Y155667D01*
X138558D01*
X138566Y155659D01*
X138580Y155656D01*
X138599Y155645D01*
X138621Y155633D01*
X138647Y155615D01*
X138710Y155578D01*
X138777Y155534D01*
X138843Y155478D01*
X138910Y155415D01*
X138965Y155345D01*
Y155341D01*
X138973Y155337D01*
X138980Y155326D01*
X138987Y155312D01*
X138998Y155293D01*
X139013Y155271D01*
X139043Y155215D01*
X139073Y155152D01*
X139106Y155078D01*
X139135Y154997D01*
X139158Y154908D01*
Y154904D01*
X139161Y154897D01*
Y154882D01*
X139165Y154864D01*
X139169Y154838D01*
X139172Y154808D01*
X139180Y154771D01*
X139183Y154727D01*
X139187Y154679D01*
X139195Y154627D01*
X139198Y154564D01*
X139202Y154501D01*
X139206Y154427D01*
Y154350D01*
X139209Y154264D01*
Y154176D01*
Y152000D01*
X138229D01*
Y153957D01*
Y153965D01*
Y153983D01*
Y154013D01*
Y154050D01*
Y154098D01*
X138225Y154150D01*
Y154209D01*
X138222Y154268D01*
X138214Y154394D01*
X138210Y154457D01*
X138203Y154516D01*
X138196Y154571D01*
X138188Y154620D01*
X138181Y154664D01*
X138170Y154697D01*
X138166Y154705D01*
X138159Y154723D01*
X138144Y154753D01*
X138125Y154786D01*
X138099Y154827D01*
X138062Y154867D01*
X138022Y154908D01*
X137974Y154945D01*
X137966Y154949D01*
X137948Y154960D01*
X137918Y154975D01*
X137877Y154993D01*
X137826Y155012D01*
X137766Y155027D01*
X137696Y155038D01*
X137618Y155041D01*
X137578D01*
X137556Y155038D01*
X137530Y155034D01*
X137474Y155027D01*
X137404Y155012D01*
X137330Y154990D01*
X137256Y154960D01*
X137182Y154919D01*
X137178D01*
X137174Y154916D01*
X137152Y154897D01*
X137115Y154867D01*
X137074Y154831D01*
X137030Y154779D01*
X136982Y154719D01*
X136938Y154646D01*
X136901Y154560D01*
Y154557D01*
X136897Y154549D01*
X136893Y154534D01*
X136886Y154516D01*
X136878Y154490D01*
X136871Y154461D01*
X136864Y154423D01*
X136856Y154383D01*
X136849Y154338D01*
X136841Y154287D01*
X136834Y154227D01*
X136827Y154165D01*
X136819Y154094D01*
X136816Y154020D01*
X136812Y153943D01*
Y153857D01*
Y152000D01*
X135831D01*
Y157121D01*
X136812D01*
Y155234D01*
D02*
G37*
G36*
X127225Y156255D02*
X125708D01*
Y152000D01*
X124676D01*
Y156255D01*
X123155D01*
Y157121D01*
X127225D01*
Y156255D01*
D02*
G37*
G36*
X120517Y152000D02*
X119536D01*
Y155711D01*
X120517D01*
Y152000D01*
D02*
G37*
G36*
X110183D02*
X109202D01*
Y155711D01*
X110183D01*
Y152000D01*
D02*
G37*
G36*
X106783Y155789D02*
X106838D01*
X106901Y155785D01*
X106971Y155781D01*
X107045Y155774D01*
X107123Y155767D01*
X107204Y155755D01*
X107367Y155726D01*
X107445Y155711D01*
X107523Y155689D01*
X107593Y155663D01*
X107656Y155637D01*
X107659D01*
X107671Y155630D01*
X107685Y155622D01*
X107708Y155607D01*
X107734Y155593D01*
X107763Y155574D01*
X107833Y155530D01*
X107907Y155471D01*
X107981Y155404D01*
X108052Y155326D01*
X108081Y155286D01*
X108107Y155241D01*
Y155237D01*
X108115Y155230D01*
X108118Y155215D01*
X108129Y155193D01*
X108137Y155167D01*
X108148Y155130D01*
X108163Y155089D01*
X108174Y155041D01*
X108185Y154986D01*
X108200Y154919D01*
X108211Y154849D01*
X108218Y154768D01*
X108229Y154679D01*
X108233Y154583D01*
X108240Y154475D01*
Y154361D01*
X108226Y153217D01*
Y153214D01*
Y153195D01*
Y153169D01*
Y153136D01*
Y153095D01*
X108229Y153051D01*
Y152999D01*
X108233Y152944D01*
X108237Y152825D01*
X108244Y152707D01*
X108248Y152647D01*
X108255Y152592D01*
X108263Y152544D01*
X108270Y152496D01*
Y152492D01*
X108274Y152485D01*
Y152474D01*
X108281Y152455D01*
X108285Y152433D01*
X108292Y152407D01*
X108311Y152348D01*
X108333Y152274D01*
X108366Y152189D01*
X108403Y152096D01*
X108448Y152000D01*
X107478D01*
Y152004D01*
X107471Y152018D01*
X107463Y152041D01*
X107452Y152074D01*
X107438Y152115D01*
X107419Y152163D01*
X107401Y152222D01*
X107382Y152289D01*
Y152292D01*
X107378Y152303D01*
X107375Y152318D01*
X107367Y152337D01*
X107356Y152374D01*
X107352Y152389D01*
X107349Y152403D01*
X107345Y152400D01*
X107338Y152392D01*
X107323Y152381D01*
X107304Y152363D01*
X107282Y152344D01*
X107253Y152318D01*
X107223Y152292D01*
X107186Y152266D01*
X107108Y152207D01*
X107016Y152144D01*
X106916Y152089D01*
X106808Y152037D01*
X106805D01*
X106797Y152033D01*
X106779Y152026D01*
X106760Y152018D01*
X106731Y152007D01*
X106701Y152000D01*
X106664Y151989D01*
X106627Y151978D01*
X106583Y151963D01*
X106535Y151952D01*
X106431Y151933D01*
X106316Y151919D01*
X106198Y151915D01*
X106172D01*
X106142Y151919D01*
X106102D01*
X106054Y151926D01*
X105998Y151930D01*
X105939Y151941D01*
X105869Y151956D01*
X105798Y151970D01*
X105724Y151993D01*
X105650Y152015D01*
X105576Y152044D01*
X105502Y152081D01*
X105428Y152122D01*
X105358Y152170D01*
X105295Y152226D01*
X105291Y152229D01*
X105280Y152241D01*
X105266Y152259D01*
X105243Y152281D01*
X105218Y152311D01*
X105192Y152348D01*
X105162Y152392D01*
X105132Y152440D01*
X105099Y152496D01*
X105069Y152555D01*
X105044Y152618D01*
X105018Y152688D01*
X104996Y152762D01*
X104981Y152840D01*
X104970Y152925D01*
X104966Y153010D01*
Y153014D01*
Y153025D01*
Y153040D01*
X104970Y153062D01*
Y153092D01*
X104973Y153121D01*
X104977Y153158D01*
X104984Y153199D01*
X105003Y153284D01*
X105029Y153380D01*
X105066Y153476D01*
X105114Y153569D01*
X105118Y153572D01*
X105121Y153580D01*
X105129Y153591D01*
X105143Y153610D01*
X105177Y153654D01*
X105225Y153709D01*
X105284Y153769D01*
X105354Y153832D01*
X105439Y153894D01*
X105536Y153946D01*
X105539D01*
X105547Y153954D01*
X105565Y153961D01*
X105587Y153968D01*
X105613Y153980D01*
X105647Y153994D01*
X105687Y154009D01*
X105736Y154024D01*
X105787Y154042D01*
X105847Y154061D01*
X105909Y154079D01*
X105980Y154098D01*
X106054Y154120D01*
X106135Y154139D01*
X106224Y154157D01*
X106316Y154176D01*
X106324D01*
X106346Y154183D01*
X106383Y154187D01*
X106427Y154198D01*
X106483Y154209D01*
X106550Y154224D01*
X106620Y154238D01*
X106694Y154253D01*
X106853Y154294D01*
X107008Y154335D01*
X107082Y154353D01*
X107153Y154375D01*
X107215Y154398D01*
X107271Y154420D01*
Y154516D01*
Y154520D01*
Y154527D01*
Y154542D01*
X107267Y154560D01*
Y154586D01*
X107264Y154612D01*
X107253Y154671D01*
X107238Y154738D01*
X107212Y154805D01*
X107178Y154867D01*
X107156Y154893D01*
X107130Y154919D01*
X107123Y154923D01*
X107116Y154930D01*
X107101Y154938D01*
X107086Y154949D01*
X107064Y154956D01*
X107042Y154967D01*
X107012Y154982D01*
X106979Y154993D01*
X106938Y155004D01*
X106897Y155012D01*
X106849Y155023D01*
X106794Y155030D01*
X106735Y155038D01*
X106672Y155041D01*
X106557D01*
X106535Y155038D01*
X106509D01*
X106453Y155030D01*
X106387Y155016D01*
X106316Y154997D01*
X106250Y154971D01*
X106191Y154938D01*
X106183Y154934D01*
X106168Y154919D01*
X106139Y154890D01*
X106109Y154853D01*
X106072Y154805D01*
X106032Y154742D01*
X105994Y154664D01*
X105957Y154575D01*
X105066Y154734D01*
X105069Y154742D01*
X105073Y154756D01*
X105081Y154786D01*
X105095Y154823D01*
X105110Y154867D01*
X105132Y154919D01*
X105158Y154975D01*
X105184Y155034D01*
X105218Y155101D01*
X105258Y155164D01*
X105299Y155230D01*
X105347Y155297D01*
X105395Y155360D01*
X105454Y155422D01*
X105514Y155478D01*
X105580Y155530D01*
X105584Y155534D01*
X105599Y155541D01*
X105621Y155556D01*
X105650Y155570D01*
X105687Y155589D01*
X105736Y155611D01*
X105791Y155637D01*
X105858Y155663D01*
X105928Y155685D01*
X106009Y155711D01*
X106102Y155733D01*
X106198Y155752D01*
X106305Y155767D01*
X106420Y155781D01*
X106542Y155789D01*
X106675Y155792D01*
X106738D01*
X106783Y155789D01*
D02*
G37*
G36*
X104570Y156255D02*
X103053D01*
Y152000D01*
X102021D01*
Y156255D01*
X100500D01*
Y157121D01*
X104570D01*
Y156255D01*
D02*
G37*
G36*
X129349Y155789D02*
X129371D01*
X129430Y155785D01*
X129501Y155778D01*
X129578Y155763D01*
X129671Y155748D01*
X129767Y155726D01*
X129867Y155696D01*
X129974Y155659D01*
X130081Y155615D01*
X130192Y155563D01*
X130300Y155500D01*
X130403Y155426D01*
X130503Y155341D01*
X130596Y155245D01*
X130599Y155237D01*
X130618Y155219D01*
X130640Y155186D01*
X130670Y155141D01*
X130707Y155082D01*
X130747Y155012D01*
X130788Y154927D01*
X130833Y154831D01*
X130877Y154719D01*
X130921Y154594D01*
X130958Y154457D01*
X130995Y154305D01*
X131021Y154142D01*
X131044Y153965D01*
X131055Y153772D01*
X131058Y153569D01*
X128598D01*
Y153565D01*
Y153550D01*
X128602Y153528D01*
Y153498D01*
X128605Y153462D01*
X128613Y153417D01*
X128620Y153373D01*
X128631Y153321D01*
X128657Y153210D01*
X128675Y153154D01*
X128698Y153099D01*
X128727Y153043D01*
X128757Y152988D01*
X128790Y152936D01*
X128831Y152888D01*
X128835Y152884D01*
X128842Y152877D01*
X128853Y152866D01*
X128872Y152851D01*
X128894Y152832D01*
X128923Y152810D01*
X128953Y152792D01*
X128990Y152770D01*
X129027Y152744D01*
X129071Y152725D01*
X129168Y152684D01*
X129223Y152670D01*
X129279Y152659D01*
X129338Y152651D01*
X129401Y152647D01*
X129423D01*
X129441Y152651D01*
X129482Y152655D01*
X129538Y152662D01*
X129597Y152677D01*
X129663Y152699D01*
X129726Y152729D01*
X129789Y152770D01*
X129793D01*
X129797Y152777D01*
X129815Y152796D01*
X129845Y152825D01*
X129878Y152869D01*
X129919Y152925D01*
X129959Y152995D01*
X129996Y153077D01*
X130030Y153177D01*
X131007Y153014D01*
X131003Y153006D01*
X130999Y152992D01*
X130988Y152962D01*
X130970Y152925D01*
X130951Y152881D01*
X130925Y152829D01*
X130895Y152770D01*
X130859Y152710D01*
X130822Y152644D01*
X130777Y152577D01*
X130725Y152507D01*
X130674Y152440D01*
X130614Y152374D01*
X130551Y152307D01*
X130481Y152248D01*
X130407Y152192D01*
X130403Y152189D01*
X130389Y152181D01*
X130366Y152166D01*
X130333Y152148D01*
X130292Y152129D01*
X130248Y152104D01*
X130189Y152081D01*
X130126Y152056D01*
X130056Y152030D01*
X129982Y152004D01*
X129896Y151978D01*
X129808Y151959D01*
X129711Y151941D01*
X129608Y151926D01*
X129501Y151919D01*
X129390Y151915D01*
X129349D01*
X129323Y151919D01*
X129297D01*
X129268Y151922D01*
X129230Y151926D01*
X129149Y151933D01*
X129060Y151948D01*
X128957Y151967D01*
X128846Y151993D01*
X128731Y152026D01*
X128613Y152070D01*
X128494Y152118D01*
X128376Y152181D01*
X128261Y152252D01*
X128154Y152337D01*
X128050Y152433D01*
X127958Y152544D01*
X127954Y152551D01*
X127943Y152566D01*
X127924Y152596D01*
X127902Y152636D01*
X127873Y152684D01*
X127843Y152744D01*
X127810Y152814D01*
X127776Y152895D01*
X127739Y152984D01*
X127706Y153080D01*
X127676Y153184D01*
X127651Y153299D01*
X127625Y153417D01*
X127606Y153547D01*
X127595Y153683D01*
X127591Y153824D01*
Y153828D01*
Y153835D01*
Y153846D01*
Y153865D01*
X127595Y153887D01*
Y153913D01*
Y153943D01*
X127599Y153976D01*
X127606Y154053D01*
X127617Y154142D01*
X127632Y154242D01*
X127651Y154350D01*
X127676Y154464D01*
X127710Y154583D01*
X127747Y154701D01*
X127795Y154823D01*
X127850Y154941D01*
X127913Y155056D01*
X127987Y155164D01*
X128072Y155267D01*
X128080Y155274D01*
X128095Y155289D01*
X128121Y155315D01*
X128157Y155349D01*
X128206Y155389D01*
X128265Y155434D01*
X128331Y155482D01*
X128405Y155530D01*
X128490Y155578D01*
X128583Y155626D01*
X128683Y155670D01*
X128790Y155711D01*
X128905Y155744D01*
X129027Y155770D01*
X129156Y155785D01*
X129293Y155792D01*
X129330D01*
X129349Y155789D01*
D02*
G37*
G36*
X117028D02*
X117050D01*
X117109Y155785D01*
X117180Y155778D01*
X117257Y155763D01*
X117350Y155748D01*
X117446Y155726D01*
X117546Y155696D01*
X117653Y155659D01*
X117761Y155615D01*
X117871Y155563D01*
X117979Y155500D01*
X118082Y155426D01*
X118182Y155341D01*
X118275Y155245D01*
X118279Y155237D01*
X118297Y155219D01*
X118319Y155186D01*
X118349Y155141D01*
X118386Y155082D01*
X118427Y155012D01*
X118467Y154927D01*
X118512Y154831D01*
X118556Y154719D01*
X118600Y154594D01*
X118637Y154457D01*
X118674Y154305D01*
X118700Y154142D01*
X118722Y153965D01*
X118734Y153772D01*
X118737Y153569D01*
X116277D01*
Y153565D01*
Y153550D01*
X116280Y153528D01*
Y153498D01*
X116284Y153462D01*
X116292Y153417D01*
X116299Y153373D01*
X116310Y153321D01*
X116336Y153210D01*
X116355Y153154D01*
X116377Y153099D01*
X116406Y153043D01*
X116436Y152988D01*
X116469Y152936D01*
X116510Y152888D01*
X116514Y152884D01*
X116521Y152877D01*
X116532Y152866D01*
X116551Y152851D01*
X116573Y152832D01*
X116602Y152810D01*
X116632Y152792D01*
X116669Y152770D01*
X116706Y152744D01*
X116750Y152725D01*
X116847Y152684D01*
X116902Y152670D01*
X116958Y152659D01*
X117017Y152651D01*
X117080Y152647D01*
X117102D01*
X117120Y152651D01*
X117161Y152655D01*
X117217Y152662D01*
X117276Y152677D01*
X117342Y152699D01*
X117405Y152729D01*
X117468Y152770D01*
X117472D01*
X117476Y152777D01*
X117494Y152796D01*
X117524Y152825D01*
X117557Y152869D01*
X117598Y152925D01*
X117638Y152995D01*
X117675Y153077D01*
X117709Y153177D01*
X118685Y153014D01*
X118682Y153006D01*
X118678Y152992D01*
X118667Y152962D01*
X118649Y152925D01*
X118630Y152881D01*
X118604Y152829D01*
X118575Y152770D01*
X118537Y152710D01*
X118500Y152644D01*
X118456Y152577D01*
X118404Y152507D01*
X118352Y152440D01*
X118293Y152374D01*
X118230Y152307D01*
X118160Y152248D01*
X118086Y152192D01*
X118082Y152189D01*
X118068Y152181D01*
X118045Y152166D01*
X118012Y152148D01*
X117971Y152129D01*
X117927Y152104D01*
X117868Y152081D01*
X117805Y152056D01*
X117735Y152030D01*
X117661Y152004D01*
X117576Y151978D01*
X117487Y151959D01*
X117391Y151941D01*
X117287Y151926D01*
X117180Y151919D01*
X117069Y151915D01*
X117028D01*
X117002Y151919D01*
X116976D01*
X116946Y151922D01*
X116910Y151926D01*
X116828Y151933D01*
X116739Y151948D01*
X116636Y151967D01*
X116525Y151993D01*
X116410Y152026D01*
X116292Y152070D01*
X116173Y152118D01*
X116055Y152181D01*
X115940Y152252D01*
X115833Y152337D01*
X115729Y152433D01*
X115637Y152544D01*
X115633Y152551D01*
X115622Y152566D01*
X115603Y152596D01*
X115581Y152636D01*
X115552Y152684D01*
X115522Y152744D01*
X115489Y152814D01*
X115455Y152895D01*
X115418Y152984D01*
X115385Y153080D01*
X115356Y153184D01*
X115330Y153299D01*
X115304Y153417D01*
X115285Y153547D01*
X115274Y153683D01*
X115270Y153824D01*
Y153828D01*
Y153835D01*
Y153846D01*
Y153865D01*
X115274Y153887D01*
Y153913D01*
Y153943D01*
X115278Y153976D01*
X115285Y154053D01*
X115296Y154142D01*
X115311Y154242D01*
X115330Y154350D01*
X115356Y154464D01*
X115389Y154583D01*
X115426Y154701D01*
X115474Y154823D01*
X115529Y154941D01*
X115592Y155056D01*
X115666Y155164D01*
X115751Y155267D01*
X115759Y155274D01*
X115774Y155289D01*
X115799Y155315D01*
X115837Y155349D01*
X115885Y155389D01*
X115944Y155434D01*
X116010Y155482D01*
X116084Y155530D01*
X116170Y155578D01*
X116262Y155626D01*
X116362Y155670D01*
X116469Y155711D01*
X116584Y155744D01*
X116706Y155770D01*
X116835Y155785D01*
X116972Y155792D01*
X117009D01*
X117028Y155789D01*
D02*
G37*
G36*
X103142Y150202D02*
X103172D01*
X103209Y150198D01*
X103290Y150195D01*
X103383Y150184D01*
X103483Y150169D01*
X103594Y150154D01*
X103708Y150132D01*
X103827Y150102D01*
X103949Y150069D01*
X104071Y150028D01*
X104186Y149977D01*
X104300Y149921D01*
X104404Y149854D01*
X104500Y149780D01*
X104508Y149777D01*
X104522Y149762D01*
X104545Y149736D01*
X104578Y149703D01*
X104615Y149662D01*
X104656Y149610D01*
X104700Y149551D01*
X104748Y149481D01*
X104796Y149407D01*
X104841Y149322D01*
X104885Y149229D01*
X104922Y149129D01*
X104959Y149022D01*
X104985Y148907D01*
X105003Y148785D01*
X105015Y148656D01*
X103982Y148611D01*
Y148615D01*
X103979Y148630D01*
X103975Y148648D01*
X103967Y148674D01*
X103960Y148707D01*
X103949Y148744D01*
X103938Y148785D01*
X103923Y148829D01*
X103882Y148922D01*
X103834Y149014D01*
X103771Y149103D01*
X103738Y149144D01*
X103697Y149177D01*
X103694Y149181D01*
X103686Y149185D01*
X103675Y149192D01*
X103657Y149203D01*
X103634Y149218D01*
X103605Y149233D01*
X103571Y149248D01*
X103534Y149266D01*
X103490Y149281D01*
X103442Y149296D01*
X103386Y149311D01*
X103327Y149325D01*
X103264Y149336D01*
X103198Y149344D01*
X103120Y149351D01*
X102998D01*
X102968Y149347D01*
X102931Y149344D01*
X102887Y149340D01*
X102839Y149336D01*
X102783Y149329D01*
X102672Y149307D01*
X102554Y149274D01*
X102495Y149251D01*
X102439Y149225D01*
X102387Y149196D01*
X102336Y149162D01*
X102328Y149159D01*
X102310Y149140D01*
X102284Y149114D01*
X102254Y149077D01*
X102225Y149033D01*
X102199Y148981D01*
X102180Y148918D01*
X102177Y148885D01*
X102173Y148848D01*
Y148844D01*
Y148841D01*
X102177Y148818D01*
X102180Y148785D01*
X102191Y148741D01*
X102210Y148693D01*
X102236Y148641D01*
X102273Y148589D01*
X102325Y148537D01*
X102328D01*
X102336Y148530D01*
X102347Y148522D01*
X102369Y148508D01*
X102395Y148493D01*
X102428Y148474D01*
X102469Y148456D01*
X102517Y148434D01*
X102576Y148408D01*
X102643Y148382D01*
X102720Y148352D01*
X102809Y148323D01*
X102909Y148289D01*
X103016Y148260D01*
X103142Y148226D01*
X103276Y148193D01*
X103279D01*
X103283Y148189D01*
X103294D01*
X103309Y148186D01*
X103346Y148175D01*
X103398Y148163D01*
X103461Y148145D01*
X103534Y148126D01*
X103612Y148104D01*
X103697Y148082D01*
X103786Y148053D01*
X103879Y148027D01*
X104064Y147964D01*
X104152Y147930D01*
X104237Y147893D01*
X104319Y147860D01*
X104389Y147823D01*
X104393Y147819D01*
X104404Y147816D01*
X104422Y147805D01*
X104448Y147790D01*
X104478Y147768D01*
X104515Y147745D01*
X104552Y147720D01*
X104596Y147686D01*
X104641Y147653D01*
X104685Y147612D01*
X104733Y147572D01*
X104781Y147523D01*
X104874Y147420D01*
X104915Y147361D01*
X104955Y147301D01*
X104959Y147298D01*
X104963Y147287D01*
X104974Y147268D01*
X104989Y147242D01*
X105003Y147209D01*
X105022Y147172D01*
X105040Y147127D01*
X105059Y147076D01*
X105077Y147020D01*
X105096Y146957D01*
X105114Y146891D01*
X105129Y146820D01*
X105144Y146743D01*
X105155Y146661D01*
X105159Y146576D01*
X105163Y146487D01*
Y146484D01*
Y146469D01*
Y146443D01*
X105159Y146413D01*
X105155Y146373D01*
X105148Y146328D01*
X105140Y146276D01*
X105133Y146221D01*
X105118Y146158D01*
X105103Y146091D01*
X105081Y146025D01*
X105059Y145955D01*
X105029Y145881D01*
X104996Y145807D01*
X104959Y145736D01*
X104915Y145662D01*
X104911Y145659D01*
X104903Y145648D01*
X104889Y145625D01*
X104870Y145599D01*
X104844Y145570D01*
X104815Y145533D01*
X104778Y145492D01*
X104737Y145448D01*
X104689Y145403D01*
X104637Y145355D01*
X104582Y145307D01*
X104519Y145263D01*
X104452Y145215D01*
X104382Y145170D01*
X104304Y145130D01*
X104223Y145092D01*
X104219Y145089D01*
X104204Y145085D01*
X104178Y145074D01*
X104141Y145063D01*
X104101Y145048D01*
X104049Y145033D01*
X103986Y145018D01*
X103919Y145000D01*
X103842Y144982D01*
X103756Y144967D01*
X103664Y144952D01*
X103568Y144937D01*
X103464Y144926D01*
X103353Y144915D01*
X103235Y144911D01*
X103113Y144907D01*
X103046D01*
X103020Y144911D01*
X102987D01*
X102954Y144915D01*
X102872Y144922D01*
X102776Y144930D01*
X102672Y144945D01*
X102561Y144963D01*
X102443Y144989D01*
X102321Y145018D01*
X102195Y145052D01*
X102073Y145096D01*
X101951Y145148D01*
X101832Y145207D01*
X101722Y145278D01*
X101618Y145355D01*
X101611Y145359D01*
X101596Y145377D01*
X101570Y145403D01*
X101537Y145440D01*
X101496Y145485D01*
X101448Y145544D01*
X101400Y145610D01*
X101348Y145688D01*
X101292Y145773D01*
X101241Y145873D01*
X101189Y145981D01*
X101141Y146095D01*
X101093Y146225D01*
X101056Y146362D01*
X101022Y146510D01*
X101000Y146665D01*
X102006Y146761D01*
Y146754D01*
X102010Y146739D01*
X102017Y146713D01*
X102025Y146680D01*
X102036Y146635D01*
X102051Y146587D01*
X102066Y146536D01*
X102084Y146480D01*
X102136Y146358D01*
X102165Y146295D01*
X102199Y146232D01*
X102236Y146173D01*
X102277Y146117D01*
X102325Y146066D01*
X102373Y146018D01*
X102376Y146014D01*
X102387Y146006D01*
X102402Y145995D01*
X102425Y145981D01*
X102450Y145962D01*
X102487Y145943D01*
X102524Y145921D01*
X102573Y145899D01*
X102621Y145877D01*
X102680Y145855D01*
X102739Y145836D01*
X102806Y145818D01*
X102880Y145803D01*
X102957Y145792D01*
X103039Y145784D01*
X103124Y145781D01*
X103172D01*
X103205Y145784D01*
X103246Y145788D01*
X103294Y145792D01*
X103349Y145799D01*
X103405Y145807D01*
X103527Y145833D01*
X103590Y145851D01*
X103653Y145870D01*
X103712Y145895D01*
X103771Y145921D01*
X103827Y145955D01*
X103875Y145992D01*
X103879Y145995D01*
X103886Y146003D01*
X103897Y146014D01*
X103916Y146029D01*
X103934Y146051D01*
X103956Y146073D01*
X103979Y146103D01*
X104004Y146132D01*
X104049Y146206D01*
X104089Y146288D01*
X104108Y146336D01*
X104119Y146380D01*
X104127Y146432D01*
X104130Y146484D01*
Y146487D01*
Y146491D01*
Y146513D01*
X104127Y146547D01*
X104115Y146591D01*
X104104Y146639D01*
X104086Y146691D01*
X104060Y146743D01*
X104023Y146791D01*
X104019Y146798D01*
X104001Y146813D01*
X103975Y146835D01*
X103938Y146869D01*
X103886Y146902D01*
X103819Y146942D01*
X103742Y146979D01*
X103697Y146998D01*
X103649Y147017D01*
X103646D01*
X103642Y147020D01*
X103627Y147024D01*
X103612Y147028D01*
X103586Y147035D01*
X103557Y147046D01*
X103520Y147057D01*
X103479Y147068D01*
X103427Y147083D01*
X103368Y147098D01*
X103301Y147116D01*
X103224Y147139D01*
X103139Y147161D01*
X103042Y147183D01*
X102935Y147209D01*
X102820Y147239D01*
X102817D01*
X102809Y147242D01*
X102798D01*
X102783Y147250D01*
X102765Y147253D01*
X102743Y147261D01*
X102687Y147275D01*
X102617Y147294D01*
X102539Y147320D01*
X102454Y147350D01*
X102365Y147379D01*
X102269Y147416D01*
X102173Y147453D01*
X102073Y147494D01*
X101980Y147538D01*
X101888Y147586D01*
X101803Y147638D01*
X101725Y147690D01*
X101655Y147745D01*
X101651Y147749D01*
X101636Y147764D01*
X101611Y147790D01*
X101581Y147819D01*
X101548Y147860D01*
X101507Y147912D01*
X101462Y147967D01*
X101422Y148034D01*
X101377Y148104D01*
X101333Y148182D01*
X101292Y148267D01*
X101259Y148356D01*
X101229Y148452D01*
X101204Y148556D01*
X101189Y148663D01*
X101185Y148774D01*
Y148778D01*
Y148793D01*
Y148811D01*
X101189Y148841D01*
X101192Y148874D01*
X101196Y148915D01*
X101204Y148963D01*
X101211Y149014D01*
X101226Y149066D01*
X101237Y149126D01*
X101255Y149185D01*
X101277Y149248D01*
X101303Y149314D01*
X101333Y149377D01*
X101366Y149444D01*
X101403Y149507D01*
X101407Y149510D01*
X101414Y149521D01*
X101426Y149540D01*
X101444Y149562D01*
X101466Y149592D01*
X101496Y149625D01*
X101529Y149658D01*
X101566Y149699D01*
X101611Y149740D01*
X101659Y149784D01*
X101710Y149825D01*
X101766Y149869D01*
X101829Y149910D01*
X101895Y149951D01*
X101966Y149991D01*
X102043Y150025D01*
X102047Y150028D01*
X102062Y150032D01*
X102088Y150043D01*
X102117Y150054D01*
X102158Y150065D01*
X102206Y150084D01*
X102262Y150099D01*
X102325Y150117D01*
X102395Y150132D01*
X102473Y150150D01*
X102554Y150165D01*
X102643Y150176D01*
X102739Y150191D01*
X102839Y150198D01*
X102943Y150202D01*
X103050Y150206D01*
X103116D01*
X103142Y150202D01*
D02*
G37*
G36*
X125464Y148789D02*
X125520D01*
X125583Y148785D01*
X125653Y148781D01*
X125727Y148774D01*
X125805Y148767D01*
X125886Y148756D01*
X126049Y148726D01*
X126127Y148711D01*
X126204Y148689D01*
X126275Y148663D01*
X126338Y148637D01*
X126341D01*
X126352Y148630D01*
X126367Y148622D01*
X126389Y148608D01*
X126415Y148593D01*
X126445Y148574D01*
X126515Y148530D01*
X126589Y148471D01*
X126663Y148404D01*
X126734Y148326D01*
X126763Y148286D01*
X126789Y148241D01*
Y148238D01*
X126796Y148230D01*
X126800Y148215D01*
X126811Y148193D01*
X126819Y148167D01*
X126830Y148130D01*
X126845Y148090D01*
X126856Y148041D01*
X126867Y147986D01*
X126882Y147919D01*
X126893Y147849D01*
X126900Y147768D01*
X126911Y147679D01*
X126915Y147583D01*
X126922Y147475D01*
Y147361D01*
X126907Y146217D01*
Y146214D01*
Y146195D01*
Y146169D01*
Y146136D01*
Y146095D01*
X126911Y146051D01*
Y145999D01*
X126915Y145943D01*
X126918Y145825D01*
X126926Y145707D01*
X126930Y145648D01*
X126937Y145592D01*
X126944Y145544D01*
X126952Y145496D01*
Y145492D01*
X126955Y145485D01*
Y145474D01*
X126963Y145455D01*
X126967Y145433D01*
X126974Y145407D01*
X126992Y145348D01*
X127015Y145274D01*
X127048Y145189D01*
X127085Y145096D01*
X127129Y145000D01*
X126160D01*
Y145004D01*
X126153Y145018D01*
X126145Y145041D01*
X126134Y145074D01*
X126119Y145115D01*
X126101Y145163D01*
X126082Y145222D01*
X126064Y145289D01*
Y145292D01*
X126060Y145303D01*
X126056Y145318D01*
X126049Y145337D01*
X126038Y145374D01*
X126034Y145388D01*
X126031Y145403D01*
X126027Y145400D01*
X126019Y145392D01*
X126005Y145381D01*
X125986Y145363D01*
X125964Y145344D01*
X125934Y145318D01*
X125905Y145292D01*
X125868Y145266D01*
X125790Y145207D01*
X125698Y145144D01*
X125598Y145089D01*
X125490Y145037D01*
X125487D01*
X125479Y145033D01*
X125461Y145026D01*
X125442Y145018D01*
X125413Y145007D01*
X125383Y145000D01*
X125346Y144989D01*
X125309Y144978D01*
X125265Y144963D01*
X125216Y144952D01*
X125113Y144933D01*
X124998Y144919D01*
X124880Y144915D01*
X124854D01*
X124824Y144919D01*
X124784D01*
X124735Y144926D01*
X124680Y144930D01*
X124621Y144941D01*
X124550Y144956D01*
X124480Y144970D01*
X124406Y144993D01*
X124332Y145015D01*
X124258Y145044D01*
X124184Y145081D01*
X124110Y145122D01*
X124040Y145170D01*
X123977Y145226D01*
X123973Y145229D01*
X123962Y145240D01*
X123947Y145259D01*
X123925Y145281D01*
X123899Y145311D01*
X123873Y145348D01*
X123844Y145392D01*
X123814Y145440D01*
X123781Y145496D01*
X123751Y145555D01*
X123725Y145618D01*
X123699Y145688D01*
X123677Y145762D01*
X123662Y145840D01*
X123651Y145925D01*
X123648Y146010D01*
Y146014D01*
Y146025D01*
Y146040D01*
X123651Y146062D01*
Y146091D01*
X123655Y146121D01*
X123659Y146158D01*
X123666Y146199D01*
X123685Y146284D01*
X123711Y146380D01*
X123748Y146476D01*
X123796Y146569D01*
X123799Y146572D01*
X123803Y146580D01*
X123811Y146591D01*
X123825Y146609D01*
X123859Y146654D01*
X123907Y146709D01*
X123966Y146769D01*
X124036Y146832D01*
X124121Y146894D01*
X124217Y146946D01*
X124221D01*
X124229Y146954D01*
X124247Y146961D01*
X124269Y146968D01*
X124295Y146979D01*
X124328Y146994D01*
X124369Y147009D01*
X124417Y147024D01*
X124469Y147042D01*
X124528Y147061D01*
X124591Y147079D01*
X124662Y147098D01*
X124735Y147120D01*
X124817Y147139D01*
X124906Y147157D01*
X124998Y147176D01*
X125006D01*
X125028Y147183D01*
X125065Y147187D01*
X125109Y147198D01*
X125165Y147209D01*
X125231Y147224D01*
X125302Y147239D01*
X125376Y147253D01*
X125535Y147294D01*
X125690Y147335D01*
X125764Y147353D01*
X125834Y147375D01*
X125897Y147398D01*
X125953Y147420D01*
Y147516D01*
Y147520D01*
Y147527D01*
Y147542D01*
X125949Y147560D01*
Y147586D01*
X125945Y147612D01*
X125934Y147671D01*
X125919Y147738D01*
X125894Y147805D01*
X125860Y147868D01*
X125838Y147893D01*
X125812Y147919D01*
X125805Y147923D01*
X125797Y147930D01*
X125783Y147938D01*
X125768Y147949D01*
X125746Y147956D01*
X125723Y147967D01*
X125694Y147982D01*
X125661Y147993D01*
X125620Y148004D01*
X125579Y148012D01*
X125531Y148023D01*
X125476Y148030D01*
X125416Y148038D01*
X125353Y148041D01*
X125239D01*
X125216Y148038D01*
X125191D01*
X125135Y148030D01*
X125068Y148015D01*
X124998Y147997D01*
X124932Y147971D01*
X124872Y147938D01*
X124865Y147934D01*
X124850Y147919D01*
X124821Y147890D01*
X124791Y147853D01*
X124754Y147805D01*
X124713Y147742D01*
X124676Y147664D01*
X124639Y147575D01*
X123748Y147734D01*
X123751Y147742D01*
X123755Y147757D01*
X123762Y147786D01*
X123777Y147823D01*
X123792Y147868D01*
X123814Y147919D01*
X123840Y147975D01*
X123866Y148034D01*
X123899Y148101D01*
X123940Y148163D01*
X123981Y148230D01*
X124029Y148297D01*
X124077Y148360D01*
X124136Y148423D01*
X124195Y148478D01*
X124262Y148530D01*
X124266Y148533D01*
X124280Y148541D01*
X124303Y148556D01*
X124332Y148571D01*
X124369Y148589D01*
X124417Y148611D01*
X124473Y148637D01*
X124539Y148663D01*
X124610Y148685D01*
X124691Y148711D01*
X124784Y148733D01*
X124880Y148752D01*
X124987Y148767D01*
X125102Y148781D01*
X125224Y148789D01*
X125357Y148793D01*
X125420D01*
X125464Y148789D01*
D02*
G37*
G36*
X120603Y145866D02*
X123174D01*
Y145000D01*
X119570D01*
Y150076D01*
X120603D01*
Y145866D01*
D02*
G37*
G36*
X116584Y149255D02*
X113821D01*
Y148119D01*
X116392D01*
Y147253D01*
X113821D01*
Y145866D01*
X116681D01*
Y145000D01*
X112788D01*
Y150121D01*
X116584D01*
Y149255D01*
D02*
G37*
G36*
X111800Y145000D02*
X110768D01*
Y150121D01*
X111800D01*
Y145000D01*
D02*
G37*
G36*
X107915Y150117D02*
X108000D01*
X108093Y150113D01*
X108193Y150110D01*
X108400Y150102D01*
X108504Y150095D01*
X108604Y150087D01*
X108696Y150080D01*
X108781Y150069D01*
X108855Y150058D01*
X108885Y150050D01*
X108914Y150043D01*
X108918D01*
X108933Y150036D01*
X108959Y150028D01*
X108988Y150021D01*
X109025Y150006D01*
X109070Y149988D01*
X109118Y149965D01*
X109173Y149936D01*
X109229Y149906D01*
X109288Y149869D01*
X109347Y149829D01*
X109410Y149784D01*
X109473Y149732D01*
X109536Y149673D01*
X109595Y149610D01*
X109651Y149540D01*
X109654Y149536D01*
X109665Y149521D01*
X109680Y149499D01*
X109699Y149470D01*
X109721Y149433D01*
X109747Y149384D01*
X109773Y149333D01*
X109802Y149270D01*
X109828Y149203D01*
X109854Y149129D01*
X109880Y149048D01*
X109902Y148959D01*
X109924Y148863D01*
X109939Y148763D01*
X109947Y148656D01*
X109950Y148545D01*
Y148541D01*
Y148522D01*
Y148500D01*
X109947Y148467D01*
Y148426D01*
X109943Y148378D01*
X109935Y148326D01*
X109928Y148267D01*
X109921Y148208D01*
X109910Y148141D01*
X109876Y148008D01*
X109836Y147875D01*
X109806Y147812D01*
X109776Y147749D01*
X109773Y147745D01*
X109769Y147734D01*
X109758Y147720D01*
X109747Y147697D01*
X109728Y147671D01*
X109710Y147638D01*
X109658Y147568D01*
X109595Y147486D01*
X109521Y147401D01*
X109436Y147320D01*
X109344Y147246D01*
X109340Y147242D01*
X109332Y147239D01*
X109318Y147227D01*
X109299Y147216D01*
X109273Y147202D01*
X109247Y147183D01*
X109214Y147164D01*
X109177Y147146D01*
X109096Y147105D01*
X109007Y147065D01*
X108911Y147028D01*
X108807Y147002D01*
X108803D01*
X108789Y146998D01*
X108770Y146994D01*
X108737Y146991D01*
X108700Y146987D01*
X108652Y146979D01*
X108600Y146972D01*
X108533Y146968D01*
X108463Y146961D01*
X108385Y146954D01*
X108296Y146946D01*
X108200Y146942D01*
X108097Y146939D01*
X107986Y146935D01*
X107863Y146931D01*
X107064D01*
Y145000D01*
X106032D01*
Y150121D01*
X107838D01*
X107915Y150117D01*
D02*
G37*
G36*
X128820Y148275D02*
X128824Y148282D01*
X128842Y148297D01*
X128865Y148323D01*
X128902Y148356D01*
X128942Y148397D01*
X128994Y148437D01*
X129057Y148485D01*
X129124Y148533D01*
X129198Y148582D01*
X129279Y148630D01*
X129368Y148674D01*
X129464Y148711D01*
X129564Y148744D01*
X129668Y148770D01*
X129779Y148785D01*
X129893Y148793D01*
X129923D01*
X129960Y148789D01*
X130008Y148785D01*
X130063Y148778D01*
X130134Y148767D01*
X130208Y148752D01*
X130289Y148730D01*
X130378Y148704D01*
X130467Y148674D01*
X130559Y148633D01*
X130656Y148585D01*
X130748Y148530D01*
X130844Y148463D01*
X130933Y148386D01*
X131018Y148300D01*
X131022Y148293D01*
X131037Y148278D01*
X131059Y148249D01*
X131088Y148208D01*
X131122Y148160D01*
X131159Y148097D01*
X131199Y148023D01*
X131240Y147942D01*
X131281Y147845D01*
X131322Y147742D01*
X131359Y147623D01*
X131392Y147497D01*
X131421Y147361D01*
X131444Y147216D01*
X131458Y147057D01*
X131462Y146891D01*
Y146887D01*
Y146880D01*
Y146869D01*
Y146850D01*
Y146828D01*
X131458Y146798D01*
Y146769D01*
X131455Y146735D01*
X131447Y146654D01*
X131440Y146561D01*
X131425Y146461D01*
X131407Y146351D01*
X131381Y146236D01*
X131351Y146114D01*
X131314Y145992D01*
X131270Y145873D01*
X131218Y145751D01*
X131159Y145636D01*
X131088Y145525D01*
X131007Y145425D01*
X131003Y145418D01*
X130985Y145403D01*
X130963Y145377D01*
X130926Y145344D01*
X130881Y145307D01*
X130829Y145263D01*
X130770Y145218D01*
X130700Y145170D01*
X130626Y145122D01*
X130541Y145078D01*
X130448Y145033D01*
X130352Y144996D01*
X130248Y144963D01*
X130141Y144937D01*
X130026Y144922D01*
X129908Y144915D01*
X129878D01*
X129853Y144919D01*
X129827D01*
X129790Y144922D01*
X129753Y144930D01*
X129712Y144933D01*
X129616Y144956D01*
X129508Y144982D01*
X129394Y145022D01*
X129338Y145044D01*
X129279Y145074D01*
X129275Y145078D01*
X129264Y145081D01*
X129250Y145092D01*
X129227Y145104D01*
X129201Y145122D01*
X129172Y145141D01*
X129135Y145167D01*
X129098Y145192D01*
X129016Y145259D01*
X128928Y145340D01*
X128835Y145433D01*
X128750Y145544D01*
Y145000D01*
X127840D01*
Y150121D01*
X128820D01*
Y148275D01*
D02*
G37*
%LPC*%
G36*
X112962Y155016D02*
X112928D01*
X112902Y155012D01*
X112873Y155008D01*
X112836Y155001D01*
X112795Y154993D01*
X112751Y154982D01*
X112706Y154967D01*
X112658Y154945D01*
X112606Y154923D01*
X112558Y154897D01*
X112506Y154864D01*
X112458Y154827D01*
X112410Y154782D01*
X112362Y154734D01*
X112358Y154731D01*
X112351Y154723D01*
X112340Y154705D01*
X112325Y154683D01*
X112307Y154653D01*
X112288Y154620D01*
X112266Y154575D01*
X112244Y154527D01*
X112222Y154472D01*
X112199Y154412D01*
X112181Y154346D01*
X112162Y154272D01*
X112148Y154190D01*
X112136Y154105D01*
X112129Y154013D01*
X112125Y153913D01*
Y153905D01*
Y153887D01*
Y153854D01*
X112129Y153809D01*
X112133Y153758D01*
X112140Y153698D01*
X112148Y153635D01*
X112155Y153561D01*
X112185Y153413D01*
X112207Y153336D01*
X112229Y153258D01*
X112259Y153184D01*
X112292Y153114D01*
X112329Y153047D01*
X112373Y152988D01*
X112377Y152984D01*
X112384Y152977D01*
X112399Y152962D01*
X112418Y152944D01*
X112444Y152918D01*
X112469Y152895D01*
X112503Y152866D01*
X112543Y152840D01*
X112584Y152814D01*
X112632Y152784D01*
X112680Y152762D01*
X112732Y152740D01*
X112791Y152718D01*
X112851Y152703D01*
X112914Y152696D01*
X112980Y152692D01*
X112995D01*
X113013Y152696D01*
X113039D01*
X113065Y152699D01*
X113102Y152707D01*
X113139Y152714D01*
X113180Y152725D01*
X113224Y152740D01*
X113272Y152759D01*
X113321Y152781D01*
X113369Y152807D01*
X113417Y152840D01*
X113465Y152877D01*
X113509Y152918D01*
X113554Y152966D01*
X113557Y152969D01*
X113565Y152980D01*
X113576Y152995D01*
X113591Y153017D01*
X113605Y153047D01*
X113628Y153084D01*
X113646Y153129D01*
X113668Y153180D01*
X113690Y153240D01*
X113709Y153306D01*
X113731Y153380D01*
X113746Y153462D01*
X113761Y153550D01*
X113772Y153647D01*
X113779Y153750D01*
X113783Y153865D01*
Y153872D01*
Y153891D01*
Y153920D01*
X113779Y153961D01*
X113776Y154009D01*
X113772Y154065D01*
X113765Y154128D01*
X113753Y154194D01*
X113724Y154335D01*
X113705Y154405D01*
X113683Y154475D01*
X113657Y154546D01*
X113624Y154612D01*
X113587Y154675D01*
X113546Y154731D01*
X113542Y154734D01*
X113535Y154742D01*
X113524Y154756D01*
X113505Y154775D01*
X113480Y154797D01*
X113454Y154819D01*
X113420Y154845D01*
X113383Y154875D01*
X113343Y154901D01*
X113298Y154927D01*
X113250Y154949D01*
X113198Y154971D01*
X113147Y154990D01*
X113087Y155004D01*
X113024Y155012D01*
X112962Y155016D01*
D02*
G37*
G36*
X107271Y153780D02*
X107267D01*
X107264Y153776D01*
X107253Y153772D01*
X107234Y153769D01*
X107215Y153761D01*
X107190Y153754D01*
X107160Y153746D01*
X107123Y153739D01*
X107082Y153728D01*
X107038Y153717D01*
X106990Y153702D01*
X106934Y153691D01*
X106875Y153676D01*
X106812Y153661D01*
X106742Y153643D01*
X106668Y153628D01*
X106664D01*
X106649Y153624D01*
X106631Y153621D01*
X106601Y153613D01*
X106568Y153606D01*
X106531Y153595D01*
X106450Y153572D01*
X106361Y153547D01*
X106272Y153521D01*
X106231Y153502D01*
X106194Y153487D01*
X106161Y153473D01*
X106135Y153458D01*
X106131D01*
X106128Y153450D01*
X106105Y153432D01*
X106076Y153402D01*
X106043Y153362D01*
X106006Y153314D01*
X105976Y153254D01*
X105954Y153184D01*
X105950Y153147D01*
X105946Y153110D01*
Y153106D01*
Y153103D01*
Y153092D01*
X105950Y153077D01*
X105954Y153036D01*
X105965Y152988D01*
X105983Y152932D01*
X106009Y152873D01*
X106046Y152814D01*
X106098Y152755D01*
X106105Y152747D01*
X106128Y152733D01*
X106161Y152707D01*
X106205Y152681D01*
X106261Y152655D01*
X106327Y152629D01*
X106405Y152614D01*
X106490Y152607D01*
X106516D01*
X106535Y152611D01*
X106561D01*
X106587Y152618D01*
X106653Y152629D01*
X106731Y152651D01*
X106816Y152681D01*
X106905Y152725D01*
X106953Y152751D01*
X106997Y152781D01*
X107001D01*
X107005Y152788D01*
X107027Y152803D01*
X107056Y152832D01*
X107093Y152869D01*
X107134Y152918D01*
X107171Y152973D01*
X107204Y153036D01*
X107230Y153103D01*
X107234Y153110D01*
X107238Y153129D01*
X107241Y153143D01*
X107245Y153162D01*
X107249Y153184D01*
X107253Y153210D01*
X107256Y153240D01*
X107260Y153277D01*
Y153314D01*
X107264Y153358D01*
X107267Y153406D01*
X107271Y153462D01*
Y153521D01*
Y153584D01*
Y153780D01*
D02*
G37*
G36*
X129353Y155041D02*
X129323D01*
X129301Y155038D01*
X129271Y155034D01*
X129238Y155030D01*
X129205Y155023D01*
X129164Y155012D01*
X129083Y154982D01*
X129038Y154964D01*
X128994Y154941D01*
X128946Y154916D01*
X128905Y154882D01*
X128860Y154845D01*
X128820Y154805D01*
X128816Y154801D01*
X128812Y154794D01*
X128801Y154779D01*
X128787Y154760D01*
X128772Y154738D01*
X128753Y154708D01*
X128735Y154675D01*
X128716Y154638D01*
X128694Y154594D01*
X128675Y154546D01*
X128661Y154494D01*
X128642Y154438D01*
X128631Y154375D01*
X128620Y154313D01*
X128613Y154242D01*
Y154168D01*
X130085D01*
Y154172D01*
Y154187D01*
X130081Y154209D01*
Y154238D01*
X130078Y154276D01*
X130070Y154316D01*
X130063Y154361D01*
X130052Y154409D01*
X130026Y154512D01*
X129985Y154620D01*
X129963Y154675D01*
X129934Y154723D01*
X129900Y154771D01*
X129863Y154816D01*
X129859Y154819D01*
X129852Y154827D01*
X129841Y154838D01*
X129826Y154853D01*
X129804Y154867D01*
X129782Y154886D01*
X129752Y154908D01*
X129719Y154930D01*
X129645Y154971D01*
X129560Y155008D01*
X129512Y155019D01*
X129460Y155030D01*
X129408Y155038D01*
X129353Y155041D01*
D02*
G37*
G36*
X117032D02*
X117002D01*
X116980Y155038D01*
X116950Y155034D01*
X116917Y155030D01*
X116884Y155023D01*
X116843Y155012D01*
X116762Y154982D01*
X116717Y154964D01*
X116673Y154941D01*
X116625Y154916D01*
X116584Y154882D01*
X116540Y154845D01*
X116499Y154805D01*
X116495Y154801D01*
X116491Y154794D01*
X116480Y154779D01*
X116465Y154760D01*
X116451Y154738D01*
X116432Y154708D01*
X116414Y154675D01*
X116395Y154638D01*
X116373Y154594D01*
X116355Y154546D01*
X116340Y154494D01*
X116321Y154438D01*
X116310Y154375D01*
X116299Y154313D01*
X116292Y154242D01*
Y154168D01*
X117764D01*
Y154172D01*
Y154187D01*
X117761Y154209D01*
Y154238D01*
X117757Y154276D01*
X117749Y154316D01*
X117742Y154361D01*
X117731Y154409D01*
X117705Y154512D01*
X117664Y154620D01*
X117642Y154675D01*
X117613Y154723D01*
X117579Y154771D01*
X117542Y154816D01*
X117538Y154819D01*
X117531Y154827D01*
X117520Y154838D01*
X117505Y154853D01*
X117483Y154867D01*
X117461Y154886D01*
X117431Y154908D01*
X117398Y154930D01*
X117324Y154971D01*
X117239Y155008D01*
X117191Y155019D01*
X117139Y155030D01*
X117087Y155038D01*
X117032Y155041D01*
D02*
G37*
G36*
X125953Y146780D02*
X125949D01*
X125945Y146776D01*
X125934Y146772D01*
X125916Y146769D01*
X125897Y146761D01*
X125871Y146754D01*
X125842Y146746D01*
X125805Y146739D01*
X125764Y146728D01*
X125720Y146717D01*
X125672Y146702D01*
X125616Y146691D01*
X125557Y146676D01*
X125494Y146661D01*
X125424Y146643D01*
X125350Y146628D01*
X125346D01*
X125331Y146624D01*
X125313Y146621D01*
X125283Y146613D01*
X125250Y146606D01*
X125213Y146595D01*
X125131Y146572D01*
X125043Y146547D01*
X124954Y146521D01*
X124913Y146502D01*
X124876Y146487D01*
X124843Y146473D01*
X124817Y146458D01*
X124813D01*
X124810Y146450D01*
X124787Y146432D01*
X124758Y146402D01*
X124724Y146362D01*
X124687Y146314D01*
X124658Y146254D01*
X124636Y146184D01*
X124632Y146147D01*
X124628Y146110D01*
Y146106D01*
Y146103D01*
Y146091D01*
X124632Y146077D01*
X124636Y146036D01*
X124647Y145988D01*
X124665Y145932D01*
X124691Y145873D01*
X124728Y145814D01*
X124780Y145755D01*
X124787Y145747D01*
X124810Y145733D01*
X124843Y145707D01*
X124887Y145681D01*
X124943Y145655D01*
X125009Y145629D01*
X125087Y145614D01*
X125172Y145607D01*
X125198D01*
X125216Y145610D01*
X125242D01*
X125268Y145618D01*
X125335Y145629D01*
X125413Y145651D01*
X125498Y145681D01*
X125586Y145725D01*
X125635Y145751D01*
X125679Y145781D01*
X125683D01*
X125686Y145788D01*
X125709Y145803D01*
X125738Y145833D01*
X125775Y145870D01*
X125816Y145918D01*
X125853Y145973D01*
X125886Y146036D01*
X125912Y146103D01*
X125916Y146110D01*
X125919Y146128D01*
X125923Y146143D01*
X125927Y146162D01*
X125931Y146184D01*
X125934Y146210D01*
X125938Y146239D01*
X125942Y146276D01*
Y146314D01*
X125945Y146358D01*
X125949Y146406D01*
X125953Y146461D01*
Y146521D01*
Y146584D01*
Y146780D01*
D02*
G37*
G36*
X107753Y149255D02*
X107064D01*
Y147797D01*
X107727D01*
X107775Y147801D01*
X107830D01*
X107893Y147805D01*
X107956Y147808D01*
X108093Y147816D01*
X108226Y147830D01*
X108289Y147838D01*
X108348Y147849D01*
X108396Y147860D01*
X108441Y147875D01*
X108444D01*
X108452Y147879D01*
X108459Y147882D01*
X108474Y147890D01*
X108511Y147908D01*
X108559Y147938D01*
X108611Y147971D01*
X108666Y148015D01*
X108718Y148067D01*
X108766Y148126D01*
Y148130D01*
X108770Y148134D01*
X108777Y148145D01*
X108785Y148156D01*
X108803Y148193D01*
X108826Y148241D01*
X108848Y148300D01*
X108866Y148367D01*
X108881Y148445D01*
X108885Y148526D01*
Y148530D01*
Y148537D01*
Y148552D01*
X108881Y148574D01*
Y148596D01*
X108877Y148626D01*
X108862Y148689D01*
X108844Y148763D01*
X108814Y148841D01*
X108774Y148918D01*
X108748Y148955D01*
X108718Y148989D01*
Y148992D01*
X108711Y148996D01*
X108689Y149018D01*
X108655Y149048D01*
X108607Y149089D01*
X108544Y149126D01*
X108474Y149162D01*
X108393Y149196D01*
X108304Y149218D01*
X108296D01*
X108282Y149222D01*
X108267Y149225D01*
X108245D01*
X108215Y149229D01*
X108182Y149233D01*
X108141Y149237D01*
X108093Y149240D01*
X108041Y149244D01*
X107982Y149248D01*
X107912D01*
X107838Y149251D01*
X107753Y149255D01*
D02*
G37*
G36*
X129634Y148041D02*
X129601D01*
X129575Y148038D01*
X129545Y148034D01*
X129508Y148027D01*
X129472Y148019D01*
X129427Y148008D01*
X129383Y147993D01*
X129335Y147975D01*
X129287Y147953D01*
X129235Y147923D01*
X129187Y147893D01*
X129139Y147856D01*
X129090Y147812D01*
X129046Y147764D01*
X129042Y147760D01*
X129035Y147753D01*
X129024Y147734D01*
X129009Y147712D01*
X128990Y147682D01*
X128972Y147649D01*
X128950Y147605D01*
X128931Y147557D01*
X128909Y147501D01*
X128887Y147442D01*
X128868Y147372D01*
X128850Y147298D01*
X128835Y147216D01*
X128824Y147127D01*
X128817Y147031D01*
X128813Y146931D01*
Y146924D01*
Y146906D01*
Y146876D01*
X128817Y146839D01*
X128820Y146791D01*
X128824Y146735D01*
X128828Y146676D01*
X128835Y146609D01*
X128857Y146473D01*
X128891Y146332D01*
X128909Y146262D01*
X128935Y146195D01*
X128961Y146136D01*
X128994Y146080D01*
X128998Y146077D01*
X129005Y146066D01*
X129020Y146043D01*
X129042Y146021D01*
X129068Y145992D01*
X129098Y145958D01*
X129135Y145921D01*
X129175Y145888D01*
X129220Y145851D01*
X129272Y145814D01*
X129327Y145781D01*
X129386Y145751D01*
X129453Y145729D01*
X129520Y145710D01*
X129594Y145696D01*
X129671Y145692D01*
X129686D01*
X129705Y145696D01*
X129727D01*
X129753Y145699D01*
X129786Y145707D01*
X129823Y145714D01*
X129864Y145725D01*
X129904Y145740D01*
X129949Y145758D01*
X129997Y145781D01*
X130041Y145810D01*
X130089Y145840D01*
X130138Y145877D01*
X130182Y145921D01*
X130226Y145969D01*
X130230Y145973D01*
X130237Y145984D01*
X130248Y145999D01*
X130263Y146021D01*
X130278Y146051D01*
X130300Y146088D01*
X130319Y146132D01*
X130341Y146184D01*
X130363Y146239D01*
X130382Y146306D01*
X130404Y146376D01*
X130419Y146454D01*
X130433Y146539D01*
X130445Y146635D01*
X130452Y146735D01*
X130456Y146843D01*
Y146846D01*
Y146850D01*
Y146872D01*
Y146902D01*
X130452Y146946D01*
X130448Y146998D01*
X130445Y147057D01*
X130437Y147124D01*
X130426Y147198D01*
X130400Y147346D01*
X130382Y147424D01*
X130356Y147497D01*
X130330Y147572D01*
X130300Y147642D01*
X130263Y147705D01*
X130223Y147760D01*
X130219Y147764D01*
X130211Y147771D01*
X130200Y147786D01*
X130182Y147805D01*
X130160Y147827D01*
X130130Y147849D01*
X130101Y147875D01*
X130063Y147901D01*
X130023Y147927D01*
X129978Y147953D01*
X129930Y147975D01*
X129878Y147997D01*
X129823Y148015D01*
X129764Y148030D01*
X129701Y148038D01*
X129634Y148041D01*
D02*
G37*
%LPD*%
D23*
X14000Y123500D02*
D03*
X6000D02*
D03*
X112500Y96500D02*
D03*
X104500D02*
D03*
X57000Y108000D02*
D03*
X65000D02*
D03*
X104500Y88500D02*
D03*
X112500D02*
D03*
Y72500D02*
D03*
X104500D02*
D03*
X112500Y80500D02*
D03*
X104500D02*
D03*
D24*
X35899Y65377D02*
D03*
Y81125D02*
D03*
D25*
X49874Y135976D02*
D03*
Y118024D02*
D03*
D26*
X76646Y127000D02*
D03*
D27*
X61945Y92701D02*
D03*
Y89551D02*
D03*
Y86402D02*
D03*
Y83252D02*
D03*
Y80102D02*
D03*
Y76953D02*
D03*
Y73803D02*
D03*
Y70653D02*
D03*
X95410D02*
D03*
Y73803D02*
D03*
Y76953D02*
D03*
Y80102D02*
D03*
Y83252D02*
D03*
Y86402D02*
D03*
Y89551D02*
D03*
Y92701D02*
D03*
D28*
X67654Y64945D02*
D03*
X70803D02*
D03*
X73953D02*
D03*
X77102D02*
D03*
X80252D02*
D03*
X83402D02*
D03*
X86551D02*
D03*
X89701D02*
D03*
Y98409D02*
D03*
X86551D02*
D03*
X83402D02*
D03*
X80252D02*
D03*
X77102D02*
D03*
X73953D02*
D03*
X70803D02*
D03*
X67654D02*
D03*
D29*
X41500Y90500D02*
D03*
Y98500D02*
D03*
X40000Y131500D02*
D03*
Y123500D02*
D03*
X50000Y98500D02*
D03*
Y90500D02*
D03*
Y84500D02*
D03*
Y76500D02*
D03*
Y61500D02*
D03*
Y69500D02*
D03*
D30*
X48000Y158500D02*
D03*
Y148500D02*
D03*
X38000Y158500D02*
D03*
X93000Y147500D02*
D03*
X83000D02*
D03*
X73000D02*
D03*
X84500Y44000D02*
D03*
X94500D02*
D03*
X104500D02*
D03*
X124000Y84000D02*
D03*
Y94000D02*
D03*
X134000Y84000D02*
D03*
Y94000D02*
D03*
X144000Y84000D02*
D03*
X144500Y106500D02*
D03*
X134500D02*
D03*
X124500D02*
D03*
X114500D02*
D03*
X104500D02*
D03*
X94500D02*
D03*
X84500D02*
D03*
X144500Y56500D02*
D03*
X134500D02*
D03*
X124500D02*
D03*
X114500D02*
D03*
X104500D02*
D03*
X94500D02*
D03*
X84500D02*
D03*
X104500Y120000D02*
D03*
X114500D02*
D03*
X124500D02*
D03*
X51500Y19000D02*
D03*
X61500D02*
D03*
X71500D02*
D03*
X81500D02*
D03*
X91500D02*
D03*
X52000Y32000D02*
D03*
X62000D02*
D03*
X72000D02*
D03*
X82000D02*
D03*
X92000D02*
D03*
X19000Y53500D02*
D03*
Y63500D02*
D03*
Y73500D02*
D03*
Y83500D02*
D03*
Y93500D02*
D03*
Y103500D02*
D03*
Y113500D02*
D03*
D31*
X38000Y148500D02*
D03*
X63000Y147500D02*
D03*
X114500Y44000D02*
D03*
X144000Y94000D02*
D03*
X154500Y106500D02*
D03*
Y56500D02*
D03*
X134500Y120000D02*
D03*
X41500Y19000D02*
D03*
X42000Y32000D02*
D03*
D32*
X19000Y43500D02*
D03*
D33*
X117000Y74500D02*
D03*
X154500Y89000D02*
D03*
X2500Y123000D02*
D03*
X17500Y123500D02*
D03*
X44500Y61500D02*
D03*
Y84500D02*
D03*
X100000Y83500D02*
D03*
X41500Y101500D02*
D03*
X50000Y102000D02*
D03*
X55500Y78000D02*
D03*
X94250Y65668D02*
D03*
X83500Y90000D02*
D03*
X86551Y92551D02*
D03*
X80500Y73000D02*
D03*
X83500D02*
D03*
X86500D02*
D03*
X89500D02*
D03*
X74500Y110000D02*
D03*
X72000Y107500D02*
D03*
X69000Y105500D02*
D03*
X100500Y77000D02*
D03*
X80500Y86000D02*
D03*
D34*
X58500Y101500D02*
D03*
D35*
X143110Y143110D02*
D03*
Y22244D02*
D03*
X22244D02*
D03*
Y143110D02*
D03*
M02*
