G04*
G04 #@! TF.GenerationSoftware,Altium Limited,Altium Designer,19.1.8 (144)*
G04*
G04 Layer_Color=65535*
%FSLAX25Y25*%
%MOIN*%
G70*
G01*
G75*
%ADD10C,0.00787*%
%ADD11C,0.00984*%
%ADD12C,0.01575*%
%ADD13C,0.00394*%
%ADD14C,0.00800*%
%ADD15C,0.01200*%
%ADD16C,0.01000*%
D10*
X26276Y67551D02*
X26669D01*
X26276D01*
X26669D01*
X117807Y27858D02*
Y35339D01*
X131193Y27858D02*
Y35339D01*
X117807D02*
X131193D01*
X119382Y13291D02*
X129618D01*
X117807Y15260D02*
Y21953D01*
X129618Y13291D02*
X131193Y15260D01*
X117807Y15260D02*
X119382Y13291D01*
X131193Y15260D02*
Y21953D01*
X105307Y132047D02*
Y139528D01*
X118693Y132047D02*
Y139528D01*
X105307D02*
X118693D01*
X106882Y117480D02*
X117118D01*
X105307Y119449D02*
Y126142D01*
X117118Y117480D02*
X118693Y119449D01*
X105307Y119449D02*
X106882Y117480D01*
X118693Y119449D02*
Y126142D01*
X123000Y143500D02*
Y153500D01*
X63000Y143500D02*
Y153500D01*
X123000D01*
X63000Y143500D02*
X123000D01*
X55386Y114205D02*
X63653D01*
X55386D02*
Y139795D01*
X63653D01*
X35000Y164000D02*
X55000D01*
X35000Y144000D02*
Y164000D01*
X55000Y144000D02*
Y164000D01*
X35000Y144000D02*
X55000D01*
X98500Y39000D02*
Y49000D01*
X58500Y39000D02*
X98500D01*
X58500Y49000D02*
X98500D01*
X58500Y39000D02*
Y49000D01*
X66276Y94079D02*
X91079D01*
Y69276D02*
Y94079D01*
X66276Y69276D02*
X91079D01*
X66276D02*
Y94079D01*
X127333Y78000D02*
X146500D01*
X116500D02*
X146500D01*
X116500Y98000D02*
X146500D01*
X116500Y78000D02*
Y98000D01*
X146500Y78000D02*
Y98000D01*
X66500Y52000D02*
Y62000D01*
Y52000D02*
X146500D01*
Y62000D01*
X66500D02*
X146500D01*
X66500Y102000D02*
Y112000D01*
Y102000D02*
X146500D01*
Y112000D01*
X66500D02*
X146500D01*
X141000Y39000D02*
Y49000D01*
X101000Y39000D02*
X141000D01*
X101000Y49000D02*
X141000D01*
X101000Y39000D02*
Y49000D01*
X98500Y26500D02*
Y36500D01*
X38500Y26500D02*
Y36500D01*
X98500D01*
X38500Y26500D02*
X98500D01*
X148500Y51000D02*
X158500D01*
X148500Y111000D02*
X158500D01*
Y51000D02*
Y111000D01*
X148500Y51000D02*
Y111000D01*
X9000Y118500D02*
X19000D01*
Y38500D02*
Y118500D01*
X9000Y38500D02*
X19000D01*
X9000D02*
Y118500D01*
D11*
X47216Y139992D02*
X46478Y140418D01*
Y139566D01*
X47216Y139992D01*
D12*
X61354Y97425D02*
X60810Y98174D01*
X59930Y97888D01*
Y96962D01*
X60810Y96676D01*
X61354Y97425D01*
D13*
X40843Y72079D02*
Y81921D01*
Y72079D02*
Y81921D01*
X21158Y72079D02*
Y81921D01*
Y72079D02*
Y81921D01*
D14*
X115000Y27500D02*
Y34500D01*
X102000Y27500D02*
X115000D01*
X102000D02*
Y34500D01*
X115000D01*
X42000Y78000D02*
Y85000D01*
X55000D01*
Y78000D02*
Y85000D01*
X42000Y78000D02*
X55000D01*
X95500Y124500D02*
X102500D01*
X95500D02*
Y137500D01*
X102500D01*
Y124500D02*
Y137500D01*
X102000Y100000D02*
X115000D01*
X102000Y93000D02*
Y100000D01*
Y93000D02*
X115000D01*
Y100000D01*
D15*
X9999Y121039D02*
Y125961D01*
X39039Y94499D02*
X43960D01*
X52501Y106040D02*
Y110960D01*
X37539Y127499D02*
X42461D01*
X108501Y86040D02*
Y90961D01*
X108499Y70039D02*
Y74961D01*
X47539Y94499D02*
X52460D01*
X108499Y78039D02*
Y82960D01*
X48499Y70039D02*
Y74961D01*
X30999Y61540D02*
Y66461D01*
D16*
X56500Y148999D02*
X60499D01*
X31499Y150500D02*
Y146501D01*
X33498Y148501D02*
X29500D01*
X22579Y93667D02*
Y92668D01*
X24578Y90668D01*
X26577Y92668D01*
Y93667D01*
X24578Y90668D02*
Y87669D01*
X28577D02*
X30576D01*
X29577D01*
Y93667D01*
X28577Y92668D01*
M02*
