G04*
G04 #@! TF.GenerationSoftware,Altium Limited,Altium Designer,19.1.8 (144)*
G04*
G04 Layer_Physical_Order=2*
G04 Layer_Color=8732672*
%FSLAX25Y25*%
%MOIN*%
G70*
G01*
G75*
%ADD15C,0.01000*%
%ADD16R,0.04000X0.06000*%
%ADD22R,0.06000X0.04000*%
%ADD36C,0.01500*%
%ADD37C,0.03000*%
%ADD40C,0.05906*%
%ADD41R,0.05906X0.05906*%
%ADD42R,0.05906X0.05906*%
%ADD43C,0.01968*%
%ADD44C,0.05000*%
%ADD45C,0.11811*%
%ADD46O,0.07480X0.02362*%
%ADD47C,0.02000*%
%ADD48C,0.00600*%
G36*
X157480Y110972D02*
X156999Y110535D01*
X156922Y110537D01*
X156849Y110722D01*
X156766Y111044D01*
X156703Y111440D01*
X156663Y111906D01*
X156649Y112457D01*
X156641Y112475D01*
Y119500D01*
X156478Y120319D01*
X156014Y121014D01*
X140583Y136445D01*
X140597Y136552D01*
X141148Y136907D01*
X141835Y136699D01*
X143110Y136573D01*
X144386Y136699D01*
X145612Y137071D01*
X146742Y137675D01*
X147733Y138488D01*
X148546Y139479D01*
X149150Y140609D01*
X149522Y141835D01*
X149647Y143110D01*
X149522Y144386D01*
X149150Y145612D01*
X148546Y146742D01*
X147733Y147733D01*
X146742Y148546D01*
X145612Y149150D01*
X144386Y149522D01*
X143110Y149647D01*
X141835Y149522D01*
X140609Y149150D01*
X139479Y148546D01*
X138488Y147733D01*
X137675Y146742D01*
X137071Y145612D01*
X136699Y144386D01*
X136573Y143110D01*
X136699Y141835D01*
X136907Y141148D01*
X136552Y140597D01*
X136445Y140583D01*
X122961Y154067D01*
X122267Y154531D01*
X121447Y154694D01*
X58000Y154694D01*
X57181Y154531D01*
X56486Y154067D01*
X53486Y151067D01*
X53022Y150372D01*
X52859Y149553D01*
Y145144D01*
X52356Y144641D01*
X50262D01*
X50116Y145141D01*
X50819Y145681D01*
X51453Y146507D01*
X51851Y147468D01*
X51921Y148000D01*
X44079D01*
X44149Y147468D01*
X44547Y146507D01*
X45181Y145681D01*
X45884Y145141D01*
X45737Y144641D01*
X44887D01*
X43545Y145984D01*
X43538Y146001D01*
X42451Y147171D01*
X42055Y147666D01*
X41745Y148113D01*
X41553Y148449D01*
Y149712D01*
X41590Y149802D01*
X41570Y149851D01*
X41582Y149903D01*
X41553Y149951D01*
Y152053D01*
X34447D01*
Y144947D01*
X36549D01*
X36597Y144918D01*
X36649Y144930D01*
X36698Y144910D01*
X36788Y144947D01*
X38051D01*
X38387Y144755D01*
X38826Y144450D01*
X39890Y143550D01*
X40490Y142971D01*
X40509Y142963D01*
X42486Y140986D01*
X43181Y140522D01*
X44000Y140359D01*
X53243D01*
X54062Y140522D01*
X54757Y140986D01*
X56514Y142743D01*
X56978Y143438D01*
X57141Y144257D01*
Y148666D01*
X58887Y150412D01*
X59447D01*
Y143947D01*
X64377D01*
X64425Y143918D01*
X64477Y143930D01*
X64526Y143910D01*
X64617Y143947D01*
X64819D01*
X64858Y143925D01*
X64972Y143846D01*
X65300Y143568D01*
X65490Y143385D01*
X65554Y143359D01*
X70207Y138707D01*
X70207Y138707D01*
X70571Y138464D01*
X71000Y138378D01*
X71000Y138378D01*
X92035D01*
X98378Y132035D01*
Y107727D01*
X97878Y107627D01*
X97603Y108292D01*
X97034Y109034D01*
X96292Y109603D01*
X95427Y109961D01*
X94500Y110083D01*
X93573Y109961D01*
X92708Y109603D01*
X91966Y109034D01*
X91397Y108292D01*
X91039Y107427D01*
X90917Y106500D01*
X91039Y105573D01*
X91397Y104708D01*
X91966Y103966D01*
X92708Y103397D01*
X93573Y103039D01*
X94353Y102936D01*
X94423Y102900D01*
X94542Y102891D01*
X94632Y102871D01*
X94744Y102833D01*
X94874Y102775D01*
X95022Y102693D01*
X95186Y102587D01*
X95358Y102460D01*
X95762Y102114D01*
X95978Y101906D01*
X95997Y101898D01*
X99909Y97986D01*
X100447Y97626D01*
X100295Y97126D01*
X99384D01*
X98857Y97022D01*
X98411Y96723D01*
X95256Y93569D01*
X95203Y93548D01*
X94923Y93278D01*
X94674Y93058D01*
X94450Y92880D01*
X94254Y92744D01*
X94124Y92670D01*
X89370D01*
X88675Y92532D01*
X88645Y92512D01*
X88597Y92516D01*
X88124Y92765D01*
X88043Y93169D01*
X87693Y93693D01*
X87169Y94043D01*
X86551Y94166D01*
X85933Y94043D01*
X85760Y93928D01*
X82750D01*
X82750Y93928D01*
X82223Y93823D01*
X81777Y93524D01*
X81777Y93524D01*
X80556Y92304D01*
X78389D01*
X78336Y92326D01*
X77800Y92334D01*
X77383Y92356D01*
X77074Y92391D01*
X76982Y92409D01*
X76925Y92423D01*
X76920Y92425D01*
X76903Y92435D01*
X76889Y92437D01*
X76868Y92445D01*
X76840Y92444D01*
X76803Y92449D01*
X76679Y92532D01*
X75984Y92670D01*
X70866D01*
X70171Y92532D01*
X69582Y92138D01*
X69188Y91549D01*
X69050Y90854D01*
X69182Y90192D01*
X69160Y90162D01*
X68667Y90000D01*
X67566Y91101D01*
X67545Y91155D01*
X67190Y91520D01*
X66620Y92170D01*
X66418Y92437D01*
X66262Y92674D01*
X66155Y92869D01*
X66100Y93007D01*
Y97100D01*
X60900D01*
Y92058D01*
X60883Y92030D01*
X60896Y91977D01*
X60875Y91926D01*
X60900Y91865D01*
Y91628D01*
X60884Y91600D01*
X60803Y91485D01*
X60523Y91154D01*
X60338Y90963D01*
X60312Y90898D01*
X57807Y88393D01*
X57224Y88420D01*
X57149Y88495D01*
X57159Y88855D01*
X57184Y89151D01*
X57225Y89395D01*
X57275Y89586D01*
X57330Y89721D01*
X57378Y89801D01*
X57411Y89837D01*
X57428Y89848D01*
X57446Y89854D01*
X57557Y89866D01*
X57619Y89900D01*
X58100D01*
Y90422D01*
X58137Y90512D01*
X58123Y90546D01*
X58134Y90581D01*
X58100Y90643D01*
Y93793D01*
X58141Y94000D01*
Y97093D01*
X58144Y97561D01*
X58869Y98264D01*
X59040Y98415D01*
X59076Y98443D01*
X59087Y98450D01*
X59309Y98480D01*
X60063Y98792D01*
X60711Y99289D01*
X61208Y99937D01*
X61520Y100691D01*
X61627Y101500D01*
X61520Y102309D01*
X61208Y103063D01*
X60711Y103711D01*
X60493Y103878D01*
X60662Y104378D01*
X67478D01*
X67538Y104351D01*
X67722Y104344D01*
X67775Y104339D01*
X67823Y104331D01*
X67858Y104324D01*
X67879Y104317D01*
X67882Y104316D01*
X67895Y104307D01*
X67904Y104306D01*
X67912Y104301D01*
X67935Y104299D01*
X67946Y104297D01*
X67952Y104295D01*
X68382Y104008D01*
X69000Y103885D01*
X69618Y104008D01*
X70142Y104358D01*
X70492Y104882D01*
X70615Y105500D01*
X70529Y105933D01*
X70557Y106031D01*
X71016Y106252D01*
X71382Y106008D01*
X72000Y105885D01*
X72618Y106008D01*
X73142Y106358D01*
X73492Y106882D01*
X73615Y107500D01*
X73492Y108118D01*
X73434Y108206D01*
X73794Y108566D01*
X73882Y108508D01*
X74500Y108385D01*
X75118Y108508D01*
X75642Y108858D01*
X75992Y109382D01*
X76115Y110000D01*
X75992Y110618D01*
X75642Y111142D01*
X75118Y111492D01*
X74500Y111615D01*
X73882Y111492D01*
X73452Y111205D01*
X73446Y111203D01*
X73435Y111201D01*
X73412Y111199D01*
X73404Y111194D01*
X73395Y111193D01*
X73382Y111184D01*
X73379Y111183D01*
X73358Y111176D01*
X73323Y111169D01*
X73283Y111162D01*
X73137Y111151D01*
X73050Y111149D01*
X72986Y111122D01*
X23028D01*
X22966Y111217D01*
X22888Y111374D01*
X22816Y111567D01*
X22751Y111796D01*
X22696Y112061D01*
X22654Y112354D01*
X22605Y113071D01*
X22602Y113475D01*
X22580Y113528D01*
X22461Y114427D01*
X22103Y115292D01*
X21534Y116034D01*
X20792Y116603D01*
X19927Y116961D01*
X19000Y117083D01*
X18073Y116961D01*
X17208Y116603D01*
X16466Y116034D01*
X15897Y115292D01*
X15539Y114427D01*
X15417Y113500D01*
X15539Y112573D01*
X15897Y111708D01*
X16466Y110966D01*
X17208Y110397D01*
X18073Y110039D01*
X18972Y109920D01*
X19025Y109898D01*
X19429Y109895D01*
X20146Y109846D01*
X20439Y109804D01*
X20704Y109749D01*
X20933Y109684D01*
X21126Y109612D01*
X21283Y109534D01*
X21405Y109455D01*
X21533Y109344D01*
X21588Y109326D01*
X21707Y109207D01*
X21707Y109207D01*
X22071Y108964D01*
X22500Y108878D01*
X22500Y108878D01*
X37141D01*
X37293Y108378D01*
X37291Y108377D01*
X37291Y108377D01*
X33535Y104622D01*
X23781D01*
X23730Y104648D01*
X23561Y104660D01*
X23418Y104690D01*
X23253Y104746D01*
X23065Y104831D01*
X22857Y104947D01*
X22631Y105096D01*
X22394Y105273D01*
X21853Y105746D01*
X21565Y106030D01*
X21511Y106051D01*
X20792Y106603D01*
X19927Y106961D01*
X19000Y107083D01*
X18073Y106961D01*
X17208Y106603D01*
X16466Y106034D01*
X15897Y105292D01*
X15539Y104427D01*
X15417Y103500D01*
X15539Y102573D01*
X15897Y101708D01*
X16466Y100966D01*
X17208Y100397D01*
X18073Y100039D01*
X19000Y99917D01*
X19927Y100039D01*
X20792Y100397D01*
X21511Y100949D01*
X21565Y100970D01*
X21853Y101254D01*
X22394Y101727D01*
X22631Y101904D01*
X22857Y102053D01*
X23065Y102169D01*
X23253Y102254D01*
X23418Y102310D01*
X23561Y102340D01*
X23730Y102352D01*
X23781Y102378D01*
X33139D01*
X33330Y101917D01*
X26035Y94622D01*
X23781D01*
X23730Y94648D01*
X23561Y94660D01*
X23418Y94690D01*
X23253Y94746D01*
X23065Y94831D01*
X22857Y94947D01*
X22631Y95096D01*
X22394Y95273D01*
X21853Y95746D01*
X21565Y96030D01*
X21511Y96051D01*
X20792Y96603D01*
X19927Y96961D01*
X19000Y97083D01*
X18073Y96961D01*
X17208Y96603D01*
X16466Y96034D01*
X15897Y95292D01*
X15655Y94709D01*
X15575Y94617D01*
X15575Y94616D01*
X15575Y94615D01*
X15419Y94145D01*
X14994Y92979D01*
X14752Y92420D01*
X14649Y92215D01*
X14559Y92056D01*
X14488Y91951D01*
X14413Y91863D01*
X14395Y91809D01*
X12311Y89725D01*
X11901Y89845D01*
X11811Y89912D01*
Y157480D01*
X34577D01*
X34897Y156708D01*
X35466Y155966D01*
X36208Y155397D01*
X37073Y155039D01*
X38000Y154917D01*
X38927Y155039D01*
X39792Y155397D01*
X40534Y155966D01*
X41103Y156708D01*
X41423Y157480D01*
X44577D01*
X44897Y156708D01*
X45466Y155966D01*
X46208Y155397D01*
X47073Y155039D01*
X48000Y154917D01*
X48927Y155039D01*
X49792Y155397D01*
X50534Y155966D01*
X51103Y156708D01*
X51423Y157480D01*
X157480D01*
Y110972D01*
D02*
G37*
G36*
X95366Y149317D02*
X95622Y149093D01*
X95877Y148895D01*
X96131Y148724D01*
X96384Y148579D01*
X96635Y148461D01*
X96885Y148369D01*
X97134Y148303D01*
X97381Y148263D01*
X97628Y148250D01*
Y146750D01*
X97381Y146737D01*
X97134Y146697D01*
X96885Y146632D01*
X96635Y146539D01*
X96384Y146421D01*
X96131Y146276D01*
X95877Y146105D01*
X95622Y145907D01*
X95366Y145683D01*
X95109Y145433D01*
Y149567D01*
X95366Y149317D01*
D02*
G37*
G36*
X90372Y149912D02*
X89897Y149292D01*
X89539Y148427D01*
X89417Y147500D01*
X89539Y146573D01*
X89897Y145708D01*
X90466Y144966D01*
X91208Y144397D01*
X92073Y144039D01*
X93000Y143917D01*
X93927Y144039D01*
X94792Y144397D01*
X95507Y144946D01*
X95561Y144967D01*
X95807Y145206D01*
X96035Y145405D01*
X96258Y145578D01*
X96475Y145724D01*
X96684Y145844D01*
X96886Y145940D01*
X97081Y146011D01*
X97268Y146061D01*
X97450Y146090D01*
X97662Y146101D01*
X97708Y146124D01*
X117930D01*
X148624Y115430D01*
Y108180D01*
X148124Y108081D01*
X147953Y108493D01*
X147319Y109319D01*
X146493Y109953D01*
X145532Y110351D01*
X145000Y110421D01*
Y106500D01*
Y102579D01*
X145532Y102649D01*
X146493Y103047D01*
X147319Y103681D01*
X147953Y104507D01*
X148124Y104919D01*
X148624Y104820D01*
Y93500D01*
X148688Y93176D01*
X148221Y92959D01*
X148056Y93166D01*
X147745Y93613D01*
X147553Y93949D01*
Y95211D01*
X147590Y95302D01*
X147570Y95351D01*
X147582Y95403D01*
X147553Y95451D01*
Y97553D01*
X140447D01*
Y90447D01*
X142549D01*
X142597Y90418D01*
X142649Y90430D01*
X142698Y90410D01*
X142789Y90447D01*
X144051D01*
X144387Y90255D01*
X144826Y89950D01*
X145890Y89050D01*
X146490Y88471D01*
X146509Y88463D01*
X147359Y87613D01*
Y86280D01*
X146859Y86110D01*
X146534Y86534D01*
X145792Y87103D01*
X144927Y87461D01*
X144000Y87583D01*
X143073Y87461D01*
X142208Y87103D01*
X141466Y86534D01*
X140897Y85792D01*
X140539Y84927D01*
X140417Y84000D01*
X140539Y83073D01*
X140897Y82208D01*
X141466Y81466D01*
X142208Y80897D01*
X143073Y80539D01*
X144000Y80417D01*
X144927Y80539D01*
X145792Y80897D01*
X146534Y81466D01*
X146859Y81890D01*
X147359Y81720D01*
Y80000D01*
X147522Y79181D01*
X147977Y78500D01*
X147935Y78281D01*
X147819Y78000D01*
X145000D01*
Y75500D01*
X148500D01*
Y77314D01*
X148577Y77356D01*
X149000Y77455D01*
X150086Y76292D01*
X150508Y75770D01*
X150835Y75309D01*
X150900Y75195D01*
Y73906D01*
X150892Y73895D01*
X150900Y73845D01*
Y73836D01*
X150876Y73787D01*
X150900Y73717D01*
Y72400D01*
X157480D01*
Y69600D01*
X150900D01*
Y64400D01*
X152891D01*
X152931Y64378D01*
X152968Y64374D01*
X152980Y64354D01*
X153013Y64273D01*
X153047Y64146D01*
X153075Y63975D01*
X153094Y63762D01*
X153101Y63495D01*
X153124Y63444D01*
Y61009D01*
X153101Y60958D01*
X153094Y60690D01*
X153075Y60478D01*
X153047Y60307D01*
X153013Y60180D01*
X152980Y60099D01*
X152968Y60078D01*
X152931Y60075D01*
X152891Y60053D01*
X150947D01*
Y52947D01*
X157480D01*
Y11811D01*
X11811D01*
Y40955D01*
X11901Y41021D01*
X12311Y41142D01*
X24604Y28849D01*
X24339Y28407D01*
X23519Y28655D01*
X22244Y28781D01*
X20969Y28655D01*
X19742Y28284D01*
X18612Y27679D01*
X17622Y26866D01*
X16809Y25876D01*
X16205Y24746D01*
X15833Y23519D01*
X15707Y22244D01*
X15833Y20969D01*
X16205Y19742D01*
X16809Y18612D01*
X17622Y17622D01*
X18612Y16809D01*
X19742Y16205D01*
X20969Y15833D01*
X22244Y15707D01*
X23519Y15833D01*
X24746Y16205D01*
X25876Y16809D01*
X26866Y17622D01*
X27679Y18612D01*
X28284Y19742D01*
X28655Y20969D01*
X28781Y22244D01*
X28655Y23519D01*
X28344Y24546D01*
X28436Y24691D01*
X28708Y24931D01*
X28729Y24940D01*
X29039Y24878D01*
X29039Y24879D01*
X93500D01*
X93500Y24878D01*
X93929Y24964D01*
X94293Y25207D01*
X97043Y27957D01*
X97043Y27957D01*
X97286Y28321D01*
X97372Y28750D01*
X97372Y28750D01*
Y35750D01*
X97372Y35750D01*
X97286Y36179D01*
X97043Y36543D01*
X97043Y36543D01*
X93549Y40038D01*
X93782Y40511D01*
X94500Y40417D01*
X95427Y40539D01*
X96292Y40897D01*
X97034Y41466D01*
X97603Y42208D01*
X97961Y43073D01*
X98083Y44000D01*
X97961Y44927D01*
X97603Y45792D01*
X97034Y46534D01*
X96292Y47103D01*
X95427Y47461D01*
X94500Y47583D01*
X93573Y47461D01*
X92708Y47103D01*
X91966Y46534D01*
X91397Y45792D01*
X91122Y45127D01*
X90622Y45227D01*
Y46500D01*
X90622Y46500D01*
X90536Y46929D01*
X90293Y47293D01*
X90293Y47293D01*
X85622Y51965D01*
Y53119D01*
X86292Y53397D01*
X87034Y53966D01*
X87603Y54708D01*
X87961Y55573D01*
X88083Y56500D01*
X87961Y57427D01*
X87603Y58292D01*
X87034Y59034D01*
X86292Y59603D01*
X85427Y59961D01*
X84500Y60083D01*
X83573Y59961D01*
X82708Y59603D01*
X81966Y59034D01*
X81622Y58585D01*
X81122Y58754D01*
Y65588D01*
X86657Y71123D01*
X86722Y71149D01*
X86930Y71350D01*
X87023Y71431D01*
X87085Y71480D01*
X87085Y71480D01*
X87098Y71488D01*
X87101Y71491D01*
X87106Y71494D01*
X87114Y71507D01*
X87118Y71508D01*
X87642Y71858D01*
X87699Y71943D01*
X88301D01*
X88358Y71858D01*
X88882Y71508D01*
X89500Y71385D01*
X90118Y71508D01*
X90642Y71858D01*
X90992Y72382D01*
X91115Y73000D01*
X91089Y73131D01*
X91429Y73545D01*
Y75354D01*
X87246D01*
X87315Y75003D01*
X87377Y74912D01*
X87229Y74672D01*
X87046Y74507D01*
X86500Y74615D01*
X85882Y74492D01*
X85358Y74142D01*
X85301Y74057D01*
X84699D01*
X84642Y74142D01*
X84118Y74492D01*
X83500Y74615D01*
X82882Y74492D01*
X82358Y74142D01*
X82301Y74057D01*
X81699D01*
X81642Y74142D01*
X81118Y74492D01*
X80841Y74547D01*
X80676Y75090D01*
X87194Y81608D01*
X87655Y81362D01*
X87554Y80854D01*
X87692Y80159D01*
X88086Y79570D01*
X88675Y79177D01*
X89370Y79038D01*
X94488D01*
X95183Y79177D01*
X95772Y79570D01*
X96166Y80159D01*
X96304Y80854D01*
X96166Y81549D01*
X95772Y82138D01*
X95183Y82532D01*
X94488Y82670D01*
X89370D01*
X88675Y82532D01*
X88103Y82150D01*
X88028Y82168D01*
X87636Y82364D01*
X87673Y82551D01*
X87673Y82551D01*
Y84291D01*
X87854Y84413D01*
X88173Y84512D01*
X88675Y84177D01*
X89370Y84038D01*
X94488D01*
X95183Y84177D01*
X95772Y84570D01*
X96166Y85159D01*
X96197Y85316D01*
X96261Y85406D01*
X96272Y85454D01*
X96283Y85484D01*
X96316Y85549D01*
X96372Y85640D01*
X96441Y85738D01*
X96996Y86379D01*
X97178Y86565D01*
X97200Y86619D01*
X98204Y87624D01*
X100944D01*
X100995Y87601D01*
X101262Y87594D01*
X101475Y87575D01*
X101646Y87547D01*
X101773Y87513D01*
X101854Y87480D01*
X101874Y87468D01*
X101878Y87432D01*
X101900Y87391D01*
Y86150D01*
X105297D01*
X105311Y86142D01*
X105533Y85840D01*
X105530Y85650D01*
X105470Y85617D01*
X105443Y85600D01*
X102400D01*
Y84168D01*
X101900Y84119D01*
X101869Y84274D01*
X101431Y84931D01*
X100774Y85369D01*
X100500Y85424D01*
Y83500D01*
Y81576D01*
X100774Y81631D01*
X101431Y82069D01*
X101869Y82726D01*
X101900Y82881D01*
X102400Y82832D01*
Y79219D01*
X102394Y79212D01*
X102400Y79138D01*
Y79102D01*
X102363Y79012D01*
X102400Y78922D01*
Y78400D01*
X102686D01*
X102693Y78374D01*
X102733Y78176D01*
X102758Y77820D01*
X102712Y77704D01*
X102479Y77634D01*
X101992Y77618D01*
X101642Y78142D01*
X101118Y78492D01*
X100500Y78615D01*
X99882Y78492D01*
X99358Y78142D01*
X99008Y77618D01*
X98885Y77000D01*
X99008Y76382D01*
X99358Y75858D01*
X99882Y75508D01*
X100389Y75407D01*
X100395Y75404D01*
X100404Y75398D01*
X100422Y75383D01*
X100431Y75380D01*
X100438Y75375D01*
X100454Y75372D01*
X100456Y75371D01*
X100476Y75361D01*
X100506Y75341D01*
X100539Y75317D01*
X100650Y75222D01*
X100713Y75162D01*
X100777Y75137D01*
X101464Y74450D01*
X101827Y74207D01*
X102108Y74151D01*
X102233Y74094D01*
X102400Y74088D01*
Y70969D01*
X102394Y70962D01*
X102400Y70888D01*
Y70852D01*
X102363Y70762D01*
X102400Y70672D01*
Y70150D01*
X102686D01*
X102693Y70124D01*
X102733Y69926D01*
X102782Y69225D01*
X102776Y69133D01*
X102737Y68844D01*
X102693Y68626D01*
X102686Y68600D01*
X102400D01*
Y68078D01*
X102363Y67988D01*
X102400Y67898D01*
Y67862D01*
X102394Y67788D01*
X102400Y67781D01*
Y61400D01*
X107600D01*
Y67781D01*
X107606Y67788D01*
X107600Y67862D01*
Y67898D01*
X107637Y67988D01*
X107600Y68078D01*
Y68600D01*
X107314D01*
X107307Y68626D01*
X107267Y68824D01*
X107218Y69525D01*
X107225Y69617D01*
X107263Y69906D01*
X107307Y70124D01*
X107314Y70150D01*
X107600D01*
Y70672D01*
X107637Y70762D01*
X107600Y70852D01*
Y70888D01*
X107606Y70962D01*
X107600Y70969D01*
Y76531D01*
X107606Y76538D01*
X107600Y76612D01*
Y76648D01*
X107637Y76738D01*
X107600Y76828D01*
Y77350D01*
X107314D01*
X107307Y77376D01*
X107267Y77574D01*
X107242Y77930D01*
X107426Y78400D01*
X107600D01*
Y78922D01*
X107637Y79012D01*
X107600Y79102D01*
Y79138D01*
X107606Y79212D01*
X107600Y79219D01*
Y83442D01*
X107617Y83470D01*
X107605Y83523D01*
X107625Y83574D01*
X107600Y83635D01*
Y83872D01*
X107616Y83900D01*
X107697Y84015D01*
X107977Y84346D01*
X108162Y84537D01*
X108188Y84602D01*
X109098Y85512D01*
X109500Y85750D01*
X109962D01*
X110400Y85600D01*
Y78400D01*
X115600D01*
Y82736D01*
X115617Y82764D01*
X115605Y82817D01*
X115625Y82867D01*
X115600Y82928D01*
Y83431D01*
X115659Y83533D01*
X115796Y83729D01*
X116232Y84243D01*
X116516Y84537D01*
X116537Y84590D01*
X121644Y89697D01*
X121692Y89714D01*
X121850Y89856D01*
X121999Y89964D01*
X122167Y90062D01*
X122355Y90149D01*
X122565Y90224D01*
X122798Y90287D01*
X123055Y90337D01*
X123335Y90373D01*
X123638Y90393D01*
X123980Y90398D01*
X124033Y90421D01*
X124927Y90539D01*
X125792Y90897D01*
X126534Y91466D01*
X127103Y92208D01*
X127461Y93073D01*
X127583Y94000D01*
X127461Y94927D01*
X127103Y95792D01*
X126534Y96534D01*
X125792Y97103D01*
X124927Y97461D01*
X124000Y97583D01*
X123073Y97461D01*
X122208Y97103D01*
X121466Y96534D01*
X120897Y95792D01*
X120539Y94927D01*
X120421Y94033D01*
X120398Y93980D01*
X120393Y93638D01*
X120373Y93335D01*
X120337Y93055D01*
X120287Y92798D01*
X120224Y92565D01*
X120149Y92355D01*
X120062Y92167D01*
X119964Y91999D01*
X119856Y91850D01*
X119714Y91692D01*
X119697Y91644D01*
X115962Y87909D01*
X115500Y88100D01*
Y89250D01*
X112500D01*
Y90250D01*
X115500D01*
Y93500D01*
X115500Y93750D01*
X115500D01*
Y94000D01*
X115500D01*
Y97500D01*
X112500D01*
Y98000D01*
X112000D01*
Y102000D01*
X109500D01*
Y101420D01*
X109033Y101213D01*
X108728Y101451D01*
X108721Y101460D01*
X108636Y101885D01*
X108393Y102249D01*
X108393Y102249D01*
X107749Y102893D01*
X107385Y103136D01*
X106956Y103222D01*
X106956Y103222D01*
X106885D01*
X106715Y103722D01*
X107034Y103966D01*
X107603Y104708D01*
X107961Y105573D01*
X108083Y106500D01*
X107961Y107427D01*
X107603Y108292D01*
X107034Y109034D01*
X106292Y109603D01*
X105427Y109961D01*
X104500Y110083D01*
X103573Y109961D01*
X102708Y109603D01*
X101966Y109034D01*
X101397Y108292D01*
X101122Y107627D01*
X100622Y107727D01*
Y118773D01*
X101122Y118872D01*
X101397Y118208D01*
X101966Y117466D01*
X102708Y116897D01*
X103573Y116539D01*
X104500Y116417D01*
X105427Y116539D01*
X106292Y116897D01*
X107034Y117466D01*
X107603Y118208D01*
X107961Y119073D01*
X108083Y120000D01*
X107961Y120927D01*
X107603Y121792D01*
X107034Y122534D01*
X106292Y123103D01*
X105427Y123461D01*
X104500Y123583D01*
X103573Y123461D01*
X102708Y123103D01*
X101966Y122534D01*
X101397Y121792D01*
X101122Y121127D01*
X100622Y121227D01*
Y132500D01*
X100536Y132929D01*
X100293Y133293D01*
X100293Y133293D01*
X93293Y140293D01*
X92929Y140536D01*
X92500Y140622D01*
X92500Y140622D01*
X71465D01*
X67147Y144939D01*
X67124Y145001D01*
X66772Y145379D01*
X66659Y145521D01*
X66575Y145642D01*
X66553Y145681D01*
Y145883D01*
X66590Y145974D01*
X66570Y146023D01*
X66582Y146075D01*
X66553Y146123D01*
Y150412D01*
X70197D01*
X70372Y149912D01*
X69897Y149292D01*
X69539Y148427D01*
X69417Y147500D01*
X69539Y146573D01*
X69897Y145708D01*
X70466Y144966D01*
X71208Y144397D01*
X72073Y144039D01*
X73000Y143917D01*
X73927Y144039D01*
X74792Y144397D01*
X75534Y144966D01*
X76103Y145708D01*
X76461Y146573D01*
X76583Y147500D01*
X76461Y148427D01*
X76103Y149292D01*
X75628Y149912D01*
X75803Y150412D01*
X80197D01*
X80372Y149912D01*
X79897Y149292D01*
X79539Y148427D01*
X79417Y147500D01*
X79539Y146573D01*
X79897Y145708D01*
X80466Y144966D01*
X81208Y144397D01*
X82073Y144039D01*
X83000Y143917D01*
X83927Y144039D01*
X84792Y144397D01*
X85534Y144966D01*
X86103Y145708D01*
X86461Y146573D01*
X86583Y147500D01*
X86461Y148427D01*
X86103Y149292D01*
X85628Y149912D01*
X85803Y150412D01*
X90197Y150412D01*
X90372Y149912D01*
D02*
G37*
G36*
X65884Y145896D02*
X65856Y145804D01*
Y145698D01*
X65884Y145578D01*
X65941Y145443D01*
X66026Y145295D01*
X66139Y145132D01*
X66280Y144955D01*
X66648Y144559D01*
X65941Y143852D01*
X65736Y144050D01*
X65368Y144361D01*
X65205Y144474D01*
X65057Y144559D01*
X64922Y144616D01*
X64802Y144644D01*
X64696D01*
X64604Y144616D01*
X64526Y144559D01*
X65941Y145974D01*
X65884Y145896D01*
D02*
G37*
G36*
X40771Y149569D02*
X40686Y149293D01*
Y148975D01*
X40771Y148614D01*
X40941Y148211D01*
X41195Y147765D01*
X41535Y147277D01*
X41959Y146747D01*
X43062Y145559D01*
X40941Y143438D01*
X40326Y144032D01*
X39222Y144965D01*
X38735Y145305D01*
X38289Y145559D01*
X37886Y145729D01*
X37525Y145814D01*
X37207D01*
X36931Y145729D01*
X36698Y145559D01*
X40941Y149802D01*
X40771Y149569D01*
D02*
G37*
G36*
X21956Y113046D02*
X22007Y112285D01*
X22056Y111949D01*
X22119Y111642D01*
X22198Y111363D01*
X22292Y111115D01*
X22401Y110895D01*
X22525Y110704D01*
X22664Y110543D01*
X21957Y109836D01*
X21796Y109975D01*
X21605Y110099D01*
X21385Y110208D01*
X21136Y110302D01*
X20858Y110380D01*
X20551Y110444D01*
X20214Y110493D01*
X19454Y110544D01*
X19029Y110547D01*
X21953Y113470D01*
X21956Y113046D01*
D02*
G37*
G36*
X156014Y111871D02*
X156058Y111361D01*
X156130Y110911D01*
X156230Y110521D01*
X156360Y110191D01*
X156519Y109921D01*
X156706Y109711D01*
X156922Y109561D01*
X157167Y109471D01*
X157441Y109441D01*
X151559D01*
X151833Y109471D01*
X152078Y109561D01*
X152294Y109711D01*
X152481Y109921D01*
X152640Y110191D01*
X152769Y110521D01*
X152870Y110911D01*
X152942Y111361D01*
X152986Y111871D01*
X153000Y112441D01*
X156000D01*
X156014Y111871D01*
D02*
G37*
G36*
X73797Y109311D02*
X73756Y109347D01*
X73708Y109379D01*
X73653Y109407D01*
X73590Y109432D01*
X73521Y109453D01*
X73443Y109470D01*
X73359Y109483D01*
X73267Y109492D01*
X73062Y109500D01*
Y110500D01*
X73168Y110502D01*
X73359Y110517D01*
X73443Y110530D01*
X73521Y110547D01*
X73590Y110568D01*
X73653Y110593D01*
X73708Y110621D01*
X73756Y110653D01*
X73797Y110689D01*
Y109311D01*
D02*
G37*
G36*
X71241Y106874D02*
X71202Y106914D01*
X71156Y106949D01*
X71103Y106981D01*
X71042Y107009D01*
X70973Y107032D01*
X70897Y107051D01*
X70813Y107065D01*
X70722Y107076D01*
X70517Y107084D01*
X70617Y108084D01*
X70724Y108086D01*
X70916Y108099D01*
X71001Y108110D01*
X71079Y108125D01*
X71149Y108143D01*
X71213Y108164D01*
X71268Y108188D01*
X71317Y108216D01*
X71359Y108247D01*
X71241Y106874D01*
D02*
G37*
G36*
X68297Y104811D02*
X68256Y104847D01*
X68208Y104879D01*
X68153Y104907D01*
X68090Y104932D01*
X68021Y104953D01*
X67943Y104970D01*
X67859Y104983D01*
X67767Y104992D01*
X67562Y105000D01*
Y106000D01*
X67668Y106002D01*
X67859Y106017D01*
X67943Y106030D01*
X68021Y106047D01*
X68090Y106068D01*
X68153Y106093D01*
X68208Y106121D01*
X68256Y106153D01*
X68297Y106189D01*
Y104811D01*
D02*
G37*
G36*
X56507Y103878D02*
X56289Y103711D01*
X55792Y103063D01*
X55480Y102309D01*
X55373Y101500D01*
X55426Y101101D01*
X55419Y101091D01*
X55411Y101059D01*
X55404Y101042D01*
X55370Y100982D01*
X55318Y100905D01*
X54787Y100289D01*
X54604Y100103D01*
X54596Y100083D01*
X54486Y99973D01*
X54022Y99278D01*
X53869Y98510D01*
X53851Y98467D01*
X53846Y98108D01*
X53811Y97514D01*
X53783Y97301D01*
X53751Y97134D01*
X53741Y97100D01*
X52900D01*
Y90643D01*
X52866Y90581D01*
X52877Y90546D01*
X52863Y90512D01*
X52900Y90422D01*
Y89900D01*
X53381D01*
X53443Y89866D01*
X53554Y89854D01*
X53572Y89848D01*
X53589Y89837D01*
X53622Y89801D01*
X53670Y89721D01*
X53725Y89586D01*
X53775Y89395D01*
X53816Y89151D01*
X53841Y88855D01*
X53851Y88495D01*
X53869Y88455D01*
Y87795D01*
X53851Y87755D01*
X53841Y87395D01*
X53816Y87099D01*
X53775Y86855D01*
X53725Y86664D01*
X53670Y86529D01*
X53622Y86449D01*
X53589Y86414D01*
X53572Y86402D01*
X53554Y86396D01*
X53443Y86384D01*
X53381Y86350D01*
X52900D01*
Y85828D01*
X52863Y85738D01*
X52877Y85704D01*
X52866Y85669D01*
X52900Y85607D01*
Y79150D01*
X53623D01*
X53659Y79129D01*
X53683Y79126D01*
X53712Y79071D01*
X53753Y78954D01*
X53793Y78785D01*
X53824Y78568D01*
X53843Y78305D01*
X53851Y77985D01*
X53889Y77899D01*
X53993Y77376D01*
X54347Y76846D01*
X54876Y76493D01*
X54790Y76000D01*
X52500D01*
Y72500D01*
X55500D01*
Y72000D01*
X56000D01*
Y68000D01*
X57478D01*
Y48065D01*
X45268Y35854D01*
X45206Y35831D01*
X45061Y35697D01*
X45015Y35659D01*
X44971Y35628D01*
X44936Y35605D01*
X44912Y35592D01*
X44905Y35589D01*
X44896Y35589D01*
X44888Y35585D01*
X44873Y35582D01*
X44848Y35565D01*
X44824Y35553D01*
X38447D01*
Y28447D01*
X45553D01*
Y32440D01*
X45577Y32490D01*
X45583Y32598D01*
X45595Y32675D01*
X45616Y32756D01*
X45647Y32843D01*
X45690Y32935D01*
X45745Y33034D01*
X45814Y33138D01*
X45897Y33248D01*
X45994Y33363D01*
X46118Y33493D01*
X46143Y33557D01*
X58617Y46030D01*
X59078Y45839D01*
Y41665D01*
X53936Y36522D01*
X53881Y36504D01*
X53778Y36416D01*
X53674Y36346D01*
X53285Y36149D01*
X53057Y36056D01*
X51614Y35614D01*
X51167Y35504D01*
X51166Y35504D01*
X51166Y35504D01*
X51115Y35467D01*
X51073Y35461D01*
X50208Y35103D01*
X49466Y34534D01*
X48897Y33792D01*
X48539Y32927D01*
X48417Y32000D01*
X48539Y31073D01*
X48897Y30208D01*
X49466Y29466D01*
X50208Y28897D01*
X51073Y28539D01*
X52000Y28417D01*
X52927Y28539D01*
X53792Y28897D01*
X54534Y29466D01*
X55103Y30208D01*
X55461Y31073D01*
X55583Y32000D01*
X55479Y32797D01*
X55493Y32881D01*
X55411Y33236D01*
X55359Y33547D01*
X55330Y33830D01*
X55325Y34082D01*
X55340Y34305D01*
X55374Y34497D01*
X55423Y34661D01*
X55485Y34800D01*
X55560Y34918D01*
X55681Y35058D01*
X55699Y35113D01*
X55700Y35114D01*
X55746Y35148D01*
X55748Y35162D01*
X60993Y40407D01*
X60993Y40407D01*
X61236Y40771D01*
X61322Y41200D01*
X61322Y41200D01*
Y68400D01*
X66100D01*
Y70391D01*
X66122Y70432D01*
X66126Y70468D01*
X66146Y70480D01*
X66227Y70513D01*
X66354Y70547D01*
X66525Y70575D01*
X66738Y70594D01*
X67005Y70601D01*
X67092Y70639D01*
X67538Y70728D01*
X67985Y71027D01*
X70098Y73140D01*
X70151Y73161D01*
X70431Y73430D01*
X70680Y73651D01*
X70904Y73829D01*
X71101Y73964D01*
X71231Y74038D01*
X75745D01*
X75952Y73538D01*
X74407Y71993D01*
X74164Y71629D01*
X74078Y71200D01*
X74078Y71200D01*
Y45665D01*
X64588Y36174D01*
X64533Y36156D01*
X64405Y36045D01*
X64283Y35966D01*
X64126Y35888D01*
X63933Y35816D01*
X63704Y35751D01*
X63439Y35696D01*
X63146Y35654D01*
X62429Y35605D01*
X62025Y35602D01*
X61972Y35580D01*
X61073Y35461D01*
X60208Y35103D01*
X59466Y34534D01*
X58897Y33792D01*
X58539Y32927D01*
X58417Y32000D01*
X58539Y31073D01*
X58897Y30208D01*
X59466Y29466D01*
X60208Y28897D01*
X61073Y28539D01*
X62000Y28417D01*
X62927Y28539D01*
X63792Y28897D01*
X64534Y29466D01*
X65103Y30208D01*
X65461Y31073D01*
X65580Y31972D01*
X65602Y32025D01*
X65605Y32429D01*
X65654Y33146D01*
X65696Y33439D01*
X65751Y33704D01*
X65816Y33933D01*
X65888Y34126D01*
X65966Y34283D01*
X66045Y34405D01*
X66156Y34533D01*
X66174Y34588D01*
X75217Y43630D01*
X75678Y43439D01*
Y37265D01*
X74588Y36174D01*
X74533Y36156D01*
X74405Y36045D01*
X74283Y35966D01*
X74126Y35888D01*
X73933Y35816D01*
X73704Y35751D01*
X73439Y35696D01*
X73146Y35654D01*
X72429Y35605D01*
X72025Y35602D01*
X71972Y35580D01*
X71073Y35461D01*
X70208Y35103D01*
X69466Y34534D01*
X68897Y33792D01*
X68539Y32927D01*
X68417Y32000D01*
X68539Y31073D01*
X68897Y30208D01*
X69466Y29466D01*
X70208Y28897D01*
X71073Y28539D01*
X72000Y28417D01*
X72927Y28539D01*
X73792Y28897D01*
X74534Y29466D01*
X75103Y30208D01*
X75461Y31073D01*
X75580Y31972D01*
X75602Y32025D01*
X75605Y32429D01*
X75654Y33146D01*
X75696Y33439D01*
X75751Y33704D01*
X75816Y33933D01*
X75888Y34126D01*
X75966Y34283D01*
X76045Y34405D01*
X76156Y34533D01*
X76174Y34588D01*
X77412Y35826D01*
X77607Y35807D01*
X78252Y35162D01*
X78254Y35148D01*
X78300Y35114D01*
X78301Y35113D01*
X78319Y35058D01*
X78439Y34918D01*
X78514Y34800D01*
X78577Y34661D01*
X78626Y34497D01*
X78660Y34305D01*
X78675Y34082D01*
X78670Y33830D01*
X78641Y33547D01*
X78589Y33236D01*
X78507Y32881D01*
X78522Y32797D01*
X78417Y32000D01*
X78539Y31073D01*
X78897Y30208D01*
X79466Y29466D01*
X80208Y28897D01*
X81073Y28539D01*
X82000Y28417D01*
X82927Y28539D01*
X83792Y28897D01*
X84534Y29466D01*
X85103Y30208D01*
X85461Y31073D01*
X85583Y32000D01*
X85461Y32927D01*
X85103Y33792D01*
X84534Y34534D01*
X83792Y35103D01*
X82927Y35461D01*
X82892Y35466D01*
X82846Y35501D01*
X81579Y35839D01*
X81257Y35942D01*
X80699Y36155D01*
X80497Y36250D01*
X80335Y36339D01*
X80222Y36416D01*
X80119Y36504D01*
X80064Y36522D01*
X79522Y37065D01*
Y40739D01*
X79984Y40930D01*
X87359Y33555D01*
X87376Y33502D01*
X87441Y33425D01*
X87488Y33355D01*
X88449Y31206D01*
X88626Y30737D01*
X88628Y30735D01*
X88628Y30734D01*
X88719Y30638D01*
X88897Y30208D01*
X89466Y29466D01*
X90208Y28897D01*
X91073Y28539D01*
X92000Y28417D01*
X92927Y28539D01*
X93792Y28897D01*
X94301Y29287D01*
X94857Y29103D01*
X94887Y28973D01*
X93035Y27122D01*
X29503D01*
X17140Y39485D01*
X17331Y39947D01*
X22553D01*
Y47053D01*
X15447D01*
Y41831D01*
X14985Y41640D01*
X14121Y42503D01*
Y88363D01*
X15742Y89983D01*
X15797Y90001D01*
X15939Y90124D01*
X16055Y90197D01*
X16186Y90254D01*
X16338Y90297D01*
X16515Y90322D01*
X16720Y90327D01*
X16954Y90309D01*
X17216Y90266D01*
X17506Y90195D01*
X17839Y90090D01*
X17929Y90098D01*
X18073Y90039D01*
X19000Y89917D01*
X19927Y90039D01*
X20792Y90397D01*
X21511Y90949D01*
X21565Y90970D01*
X21853Y91254D01*
X22394Y91727D01*
X22631Y91904D01*
X22857Y92053D01*
X23065Y92169D01*
X23253Y92254D01*
X23418Y92310D01*
X23561Y92340D01*
X23730Y92352D01*
X23781Y92378D01*
X26500D01*
X26500Y92378D01*
X26929Y92464D01*
X27293Y92707D01*
X38965Y104378D01*
X49223D01*
X49273Y103878D01*
X49226Y103869D01*
X48569Y103431D01*
X48131Y102774D01*
X48076Y102500D01*
X51924D01*
X51869Y102774D01*
X51431Y103431D01*
X50774Y103869D01*
X50727Y103878D01*
X50777Y104378D01*
X56338D01*
X56507Y103878D01*
D02*
G37*
G36*
X97459Y106252D02*
X97490Y106081D01*
X97545Y105903D01*
X97624Y105717D01*
X97726Y105524D01*
X97852Y105324D01*
X98002Y105116D01*
X98176Y104901D01*
X98595Y104449D01*
X96429Y102373D01*
X96199Y102595D01*
X95762Y102969D01*
X95556Y103121D01*
X95357Y103250D01*
X95165Y103356D01*
X94981Y103439D01*
X94805Y103498D01*
X94636Y103534D01*
X94475Y103547D01*
X97452Y106416D01*
X97459Y106252D01*
D02*
G37*
G36*
X21411Y105269D02*
X21985Y104768D01*
X22258Y104564D01*
X22520Y104392D01*
X22772Y104251D01*
X23015Y104141D01*
X23247Y104063D01*
X23469Y104016D01*
X23682Y104000D01*
Y103000D01*
X23469Y102984D01*
X23247Y102937D01*
X23015Y102859D01*
X22772Y102749D01*
X22520Y102608D01*
X22258Y102436D01*
X21985Y102232D01*
X21411Y101731D01*
X21109Y101433D01*
Y105567D01*
X21411Y105269D01*
D02*
G37*
G36*
X58775Y99015D02*
X58743Y99002D01*
X58693Y98968D01*
X58624Y98914D01*
X58428Y98742D01*
X57608Y97945D01*
X57497Y98019D01*
X57488Y96488D01*
X54029D01*
X54119Y96508D01*
X54199Y96567D01*
X54269Y96665D01*
X54330Y96803D01*
X54382Y96981D01*
X54425Y97198D01*
X54458Y97454D01*
X54495Y98084D01*
X54500Y98459D01*
X56841D01*
X55068Y99648D01*
X55266Y99850D01*
X55835Y100511D01*
X55922Y100639D01*
X55987Y100754D01*
X56030Y100854D01*
X56050Y100939D01*
X56049Y101010D01*
X58775Y99015D01*
D02*
G37*
G36*
X102512Y95012D02*
X101012Y95000D01*
Y96500D01*
X101299Y96508D01*
X101555Y96530D01*
X101781Y96567D01*
X101978Y96620D01*
X102144Y96688D01*
X102280Y96770D01*
X102386Y96868D01*
X102462Y96980D01*
X102508Y97107D01*
X102524Y97250D01*
X102512Y95012D01*
D02*
G37*
G36*
X64001Y93419D02*
X64015Y93212D01*
X64023Y93155D01*
X64045Y93059D01*
X64059Y93020D01*
X64074Y92988D01*
X64091Y92961D01*
X62909D01*
X62926Y92988D01*
X62941Y93020D01*
X62955Y93059D01*
X62967Y93104D01*
X62977Y93155D01*
X62992Y93274D01*
X62996Y93344D01*
X63000Y93500D01*
X64000D01*
X64001Y93419D01*
D02*
G37*
G36*
X114005Y95168D02*
X114016Y95012D01*
X114488D01*
X114395Y94982D01*
X114312Y94892D01*
X114239Y94742D01*
X114176Y94532D01*
X114122Y94262D01*
X114087Y93996D01*
X114122Y93488D01*
X114176Y93218D01*
X114239Y93008D01*
X114312Y92858D01*
X114395Y92768D01*
X114488Y92738D01*
X114013D01*
X114000Y92012D01*
X111000D01*
X110995Y92582D01*
X110984Y92738D01*
X110512D01*
X110605Y92768D01*
X110688Y92858D01*
X110761Y93008D01*
X110824Y93218D01*
X110878Y93488D01*
X110913Y93754D01*
X110878Y94262D01*
X110824Y94532D01*
X110761Y94742D01*
X110688Y94892D01*
X110605Y94982D01*
X110512Y95012D01*
X110987D01*
X111000Y95738D01*
X114000D01*
X114005Y95168D01*
D02*
G37*
G36*
X96714Y92020D02*
X96518Y91820D01*
X95928Y91138D01*
X95829Y90996D01*
X95749Y90867D01*
X95689Y90749D01*
X95649Y90643D01*
X95627Y90549D01*
X93546Y92022D01*
X93678Y91954D01*
X93827Y91925D01*
X93994Y91934D01*
X94178Y91982D01*
X94380Y92069D01*
X94600Y92194D01*
X94837Y92358D01*
X95091Y92560D01*
X95364Y92801D01*
X95654Y93080D01*
X96714Y92020D01*
D02*
G37*
G36*
X63500Y91750D02*
X63482Y91739D01*
X63442Y91708D01*
X63303Y91580D01*
X62580Y90870D01*
X62926Y90524D01*
X62849Y90579D01*
X62758Y90606D01*
X62653Y90605D01*
X62533Y90576D01*
X62399Y90518D01*
X62250Y90432D01*
X62087Y90318D01*
X61910Y90175D01*
X61512Y89805D01*
X60805Y90512D01*
X61004Y90718D01*
X61318Y91087D01*
X61432Y91250D01*
X61518Y91399D01*
X61576Y91533D01*
X61605Y91653D01*
X61606Y91758D01*
X61579Y91849D01*
X61524Y91926D01*
X61868Y91582D01*
X62750Y92501D01*
X63500Y91750D01*
D02*
G37*
G36*
X21411Y95269D02*
X21985Y94768D01*
X22258Y94564D01*
X22520Y94392D01*
X22772Y94251D01*
X23015Y94141D01*
X23247Y94063D01*
X23469Y94016D01*
X23682Y94000D01*
Y93000D01*
X23469Y92984D01*
X23247Y92937D01*
X23015Y92859D01*
X22772Y92749D01*
X22520Y92608D01*
X22258Y92436D01*
X21985Y92232D01*
X21411Y91731D01*
X21109Y91433D01*
Y95567D01*
X21411Y95269D01*
D02*
G37*
G36*
X18033Y90710D02*
X17680Y90821D01*
X17346Y90902D01*
X17032Y90955D01*
X16736Y90977D01*
X16461Y90970D01*
X16204Y90934D01*
X15967Y90868D01*
X15750Y90772D01*
X15551Y90647D01*
X15372Y90493D01*
X14907Y91441D01*
X15005Y91557D01*
X15110Y91712D01*
X15222Y91909D01*
X15341Y92145D01*
X15598Y92739D01*
X16033Y93932D01*
X16191Y94411D01*
X18033Y90710D01*
D02*
G37*
G36*
X87076Y92000D02*
X87071Y91950D01*
X87066Y91848D01*
X87240D01*
X87204Y91808D01*
X87172Y91760D01*
X87144Y91704D01*
X87119Y91642D01*
X87098Y91572D01*
X87081Y91495D01*
X87068Y91410D01*
X87059Y91318D01*
X87058Y91305D01*
X87051Y90492D01*
X86051D01*
X86033Y91420D01*
X86021Y91495D01*
X86004Y91572D01*
X85983Y91642D01*
X85959Y91704D01*
X85930Y91760D01*
X85898Y91808D01*
X85862Y91848D01*
X86024D01*
X86020Y92021D01*
X87082D01*
X87076Y92000D01*
D02*
G37*
G36*
X123970Y91047D02*
X123611Y91042D01*
X123272Y91019D01*
X122952Y90979D01*
X122651Y90920D01*
X122370Y90844D01*
X122109Y90750D01*
X121867Y90639D01*
X121644Y90509D01*
X121442Y90362D01*
X121258Y90197D01*
X120197Y91258D01*
X120362Y91442D01*
X120509Y91645D01*
X120639Y91867D01*
X120750Y92109D01*
X120844Y92370D01*
X120920Y92651D01*
X120979Y92952D01*
X121019Y93272D01*
X121042Y93611D01*
X121047Y93971D01*
X123970Y91047D01*
D02*
G37*
G36*
X76638Y91838D02*
X76727Y91804D01*
X76840Y91774D01*
X76978Y91749D01*
X77329Y91709D01*
X77778Y91685D01*
X78326Y91677D01*
X78438Y90177D01*
X78165Y90174D01*
X77460Y90122D01*
X77264Y90091D01*
X77087Y90053D01*
X76930Y90009D01*
X76792Y89957D01*
X76673Y89899D01*
X76574Y89833D01*
Y91875D01*
X76638Y91838D01*
D02*
G37*
G36*
X65430Y93201D02*
X65430Y93023D01*
X65475Y92820D01*
X65567Y92592D01*
X65704Y92339D01*
X65887Y92062D01*
X66116Y91759D01*
X66712Y91079D01*
X67079Y90702D01*
X66208Y89451D01*
X65868Y89782D01*
X65272Y90294D01*
X65017Y90475D01*
X64790Y90608D01*
X64592Y90690D01*
X64423Y90723D01*
X64282Y90706D01*
X64170Y90640D01*
X64087Y90524D01*
X65476Y93354D01*
X65430Y93201D01*
D02*
G37*
G36*
X146771Y95069D02*
X146686Y94793D01*
Y94475D01*
X146771Y94114D01*
X146941Y93711D01*
X147195Y93265D01*
X147535Y92778D01*
X147959Y92247D01*
X149062Y91059D01*
X146941Y88938D01*
X146326Y89532D01*
X145222Y90465D01*
X144735Y90805D01*
X144289Y91059D01*
X143886Y91229D01*
X143525Y91314D01*
X143207D01*
X142931Y91229D01*
X142698Y91059D01*
X146941Y95302D01*
X146771Y95069D01*
D02*
G37*
G36*
X56550Y92398D02*
X56539Y92298D01*
X56522Y91921D01*
X56510Y90512D01*
X57488D01*
X57300Y90492D01*
X57132Y90432D01*
X56984Y90332D01*
X56856Y90192D01*
X56747Y90012D01*
X56658Y89792D01*
X56589Y89532D01*
X56539Y89232D01*
X56510Y88892D01*
X56500Y88512D01*
X54500D01*
X54490Y88892D01*
X54461Y89232D01*
X54411Y89532D01*
X54342Y89792D01*
X54253Y90012D01*
X54144Y90192D01*
X54016Y90332D01*
X53868Y90432D01*
X53700Y90492D01*
X53512Y90512D01*
X54477D01*
X54439Y92440D01*
X56561D01*
X56550Y92398D01*
D02*
G37*
G36*
X102524Y87500D02*
X102509Y87643D01*
X102463Y87770D01*
X102388Y87883D01*
X102282Y87980D01*
X102146Y88063D01*
X101980Y88130D01*
X101783Y88182D01*
X101556Y88220D01*
X101299Y88243D01*
X101012Y88250D01*
Y89750D01*
X101299Y89758D01*
X101556Y89780D01*
X101783Y89818D01*
X101980Y89870D01*
X102146Y89938D01*
X102282Y90020D01*
X102388Y90118D01*
X102463Y90230D01*
X102509Y90358D01*
X102524Y90500D01*
Y87500D01*
D02*
G37*
G36*
X96714Y87020D02*
X96518Y86820D01*
X95928Y86138D01*
X95829Y85996D01*
X95749Y85867D01*
X95689Y85749D01*
X95649Y85643D01*
X95627Y85549D01*
X93546Y87021D01*
X93678Y86954D01*
X93827Y86925D01*
X93994Y86934D01*
X94178Y86982D01*
X94380Y87069D01*
X94600Y87194D01*
X94837Y87358D01*
X95091Y87560D01*
X95364Y87801D01*
X95654Y88080D01*
X96714Y87020D01*
D02*
G37*
G36*
X56510Y87358D02*
X56539Y87018D01*
X56589Y86718D01*
X56658Y86458D01*
X56747Y86238D01*
X56856Y86058D01*
X56984Y85918D01*
X57132Y85818D01*
X57300Y85758D01*
X57488Y85738D01*
X53512D01*
X53700Y85758D01*
X53868Y85818D01*
X54016Y85918D01*
X54144Y86058D01*
X54253Y86238D01*
X54342Y86458D01*
X54411Y86718D01*
X54461Y87018D01*
X54490Y87358D01*
X54500Y87738D01*
X56500D01*
X56510Y87358D01*
D02*
G37*
G36*
X69991Y87801D02*
X70518Y87358D01*
X70755Y87194D01*
X70974Y87069D01*
X71176Y86982D01*
X71361Y86934D01*
X71527Y86925D01*
X71677Y86954D01*
X71808Y87021D01*
X69727Y85549D01*
X69706Y85643D01*
X69665Y85749D01*
X69605Y85867D01*
X69525Y85996D01*
X69426Y86138D01*
X69170Y86455D01*
X68836Y86820D01*
X68640Y87020D01*
X69701Y88080D01*
X69991Y87801D01*
D02*
G37*
G36*
X107695Y84988D02*
X107496Y84782D01*
X107182Y84413D01*
X107068Y84250D01*
X106982Y84101D01*
X106924Y83967D01*
X106895Y83847D01*
X106894Y83742D01*
X106921Y83650D01*
X106976Y83574D01*
X105574Y84976D01*
X105650Y84921D01*
X105742Y84894D01*
X105847Y84895D01*
X105967Y84924D01*
X106101Y84982D01*
X106250Y85068D01*
X106413Y85182D01*
X106590Y85325D01*
X106988Y85695D01*
X107695Y84988D01*
D02*
G37*
G36*
X116049D02*
X115751Y84679D01*
X115281Y84126D01*
X115111Y83882D01*
X114982Y83659D01*
X114896Y83458D01*
X114852Y83278D01*
X114851Y83119D01*
X114892Y82982D01*
X114976Y82867D01*
X112867Y84976D01*
X112982Y84892D01*
X113119Y84851D01*
X113278Y84852D01*
X113458Y84896D01*
X113659Y84982D01*
X113882Y85110D01*
X114126Y85281D01*
X114392Y85495D01*
X114988Y86049D01*
X116049Y84988D01*
D02*
G37*
G36*
X76638Y86838D02*
X76727Y86804D01*
X76840Y86774D01*
X76978Y86749D01*
X77329Y86709D01*
X77778Y86685D01*
X78326Y86677D01*
X78438Y85177D01*
X78165Y85174D01*
X77460Y85122D01*
X77264Y85091D01*
X77087Y85053D01*
X76930Y85009D01*
X76792Y84957D01*
X76673Y84899D01*
X76574Y84833D01*
Y86875D01*
X76638Y86838D01*
D02*
G37*
G36*
X78210Y82020D02*
X78014Y81820D01*
X77424Y81138D01*
X77325Y80996D01*
X77245Y80867D01*
X77185Y80749D01*
X77145Y80643D01*
X77123Y80549D01*
X75042Y82021D01*
X75174Y81954D01*
X75323Y81925D01*
X75490Y81934D01*
X75674Y81982D01*
X75876Y82069D01*
X76096Y82194D01*
X76333Y82358D01*
X76587Y82560D01*
X76860Y82801D01*
X77150Y83080D01*
X78210Y82020D01*
D02*
G37*
G36*
X70276Y79833D02*
X70195Y79885D01*
X70091Y79931D01*
X69965Y79971D01*
X69818Y80007D01*
X69648Y80036D01*
X69242Y80080D01*
X68748Y80102D01*
X68468Y80104D01*
Y81604D01*
X68748Y81607D01*
X69648Y81672D01*
X69818Y81702D01*
X69965Y81737D01*
X70091Y81778D01*
X70195Y81824D01*
X70276Y81875D01*
Y79833D01*
D02*
G37*
G36*
X62926Y79774D02*
X62849Y79829D01*
X62758Y79856D01*
X62653Y79855D01*
X62533Y79826D01*
X62399Y79768D01*
X62250Y79682D01*
X62087Y79568D01*
X61910Y79425D01*
X61512Y79055D01*
X60805Y79762D01*
X61004Y79968D01*
X61318Y80337D01*
X61432Y80500D01*
X61518Y80649D01*
X61576Y80783D01*
X61605Y80903D01*
X61606Y81008D01*
X61579Y81099D01*
X61524Y81176D01*
X62926Y79774D01*
D02*
G37*
G36*
X65492Y82212D02*
X65538Y82084D01*
X65614Y81972D01*
X65720Y81874D01*
X65856Y81792D01*
X66022Y81724D01*
X66218Y81672D01*
X66445Y81634D01*
X66701Y81612D01*
X66988Y81604D01*
Y80104D01*
X66703Y80101D01*
X66028Y80050D01*
X65863Y80019D01*
X65728Y79981D01*
X65623Y79937D01*
X65548Y79885D01*
X65503Y79827D01*
X65488Y79762D01*
X65476Y82354D01*
X65492Y82212D01*
D02*
G37*
G36*
X57117Y79756D02*
X56988Y79703D01*
X56873Y79614D01*
X56774Y79490D01*
X56691Y79330D01*
X56622Y79135D01*
X56569Y78905D01*
X56530Y78639D01*
X56508Y78337D01*
X56500Y78000D01*
X54500D01*
X54492Y78337D01*
X54470Y78639D01*
X54431Y78905D01*
X54378Y79135D01*
X54309Y79330D01*
X54226Y79490D01*
X54127Y79614D01*
X54012Y79703D01*
X53883Y79756D01*
X53738Y79774D01*
X57262D01*
X57117Y79756D01*
D02*
G37*
G36*
X106505Y79168D02*
X106516Y79012D01*
X106988D01*
X106895Y78982D01*
X106812Y78892D01*
X106739Y78742D01*
X106676Y78532D01*
X106622Y78262D01*
X106587Y77996D01*
X106622Y77488D01*
X106676Y77218D01*
X106739Y77008D01*
X106812Y76858D01*
X106895Y76768D01*
X106988Y76738D01*
X106513D01*
X106500Y76012D01*
X103500D01*
X103495Y76582D01*
X103484Y76738D01*
X103012D01*
X103105Y76768D01*
X103188Y76858D01*
X103261Y77008D01*
X103324Y77218D01*
X103378Y77488D01*
X103413Y77754D01*
X103378Y78262D01*
X103324Y78532D01*
X103261Y78742D01*
X103188Y78892D01*
X103105Y78982D01*
X103012Y79012D01*
X103487D01*
X103500Y79738D01*
X106500D01*
X106505Y79168D01*
D02*
G37*
G36*
X101488Y76936D02*
X101499Y76879D01*
X101518Y76820D01*
X101545Y76759D01*
X101579Y76694D01*
X101622Y76628D01*
X101672Y76559D01*
X101731Y76487D01*
X101871Y76336D01*
X101163Y75629D01*
X101087Y75703D01*
X100941Y75828D01*
X100872Y75878D01*
X100806Y75920D01*
X100741Y75955D01*
X100680Y75982D01*
X100621Y76001D01*
X100564Y76012D01*
X100510Y76016D01*
X101484Y76990D01*
X101488Y76936D01*
D02*
G37*
G36*
X71808Y74687D02*
X71677Y74755D01*
X71527Y74784D01*
X71361Y74774D01*
X71176Y74726D01*
X70974Y74640D01*
X70755Y74515D01*
X70518Y74351D01*
X70263Y74148D01*
X69991Y73908D01*
X69701Y73628D01*
X68640Y74689D01*
X68836Y74889D01*
X69426Y75571D01*
X69525Y75712D01*
X69605Y75842D01*
X69665Y75959D01*
X69706Y76065D01*
X69727Y76160D01*
X71808Y74687D01*
D02*
G37*
G36*
X103024Y74488D02*
X103016Y74537D01*
X102993Y74580D01*
X102955Y74618D01*
X102901Y74651D01*
X102832Y74679D01*
X102748Y74703D01*
X102648Y74720D01*
X102533Y74733D01*
X102257Y74743D01*
Y75743D01*
X102402Y75746D01*
X102648Y75766D01*
X102748Y75784D01*
X102832Y75807D01*
X102901Y75835D01*
X102955Y75868D01*
X102993Y75907D01*
X103016Y75950D01*
X103024Y75999D01*
Y74488D01*
D02*
G37*
G36*
X153083Y78559D02*
X154128Y77683D01*
X154601Y77357D01*
X155042Y77107D01*
X155450Y76931D01*
X155825Y76830D01*
X156168Y76804D01*
X156477Y76852D01*
X156755Y76976D01*
X151524Y73745D01*
X151737Y73933D01*
X151856Y74173D01*
X151880Y74465D01*
X151809Y74811D01*
X151643Y75209D01*
X151382Y75659D01*
X151026Y76162D01*
X150576Y76718D01*
X149391Y77988D01*
X152512Y79109D01*
X153083Y78559D01*
D02*
G37*
G36*
X103912Y75555D02*
X103981Y75515D01*
X104069Y75476D01*
X104175Y75438D01*
X104300Y75401D01*
X104604Y75332D01*
X104980Y75267D01*
X105196Y75237D01*
X103513Y73554D01*
X103483Y73770D01*
X103349Y74450D01*
X103312Y74575D01*
X103274Y74681D01*
X103235Y74769D01*
X103195Y74838D01*
X103153Y74890D01*
X103860Y75597D01*
X103912Y75555D01*
D02*
G37*
G36*
X83844Y72078D02*
X83822Y72067D01*
X83794Y72049D01*
X83759Y72023D01*
X83671Y71949D01*
X83418Y71711D01*
X83339Y71632D01*
X82291Y71998D01*
X82364Y72075D01*
X82482Y72220D01*
X82526Y72288D01*
X82560Y72354D01*
X82585Y72416D01*
X82600Y72476D01*
X82605Y72533D01*
X82600Y72586D01*
X82585Y72637D01*
X83844Y72078D01*
D02*
G37*
G36*
X80490Y72016D02*
X80436Y72012D01*
X80379Y72001D01*
X80320Y71982D01*
X80259Y71955D01*
X80194Y71921D01*
X80128Y71878D01*
X80059Y71828D01*
X79987Y71769D01*
X79836Y71629D01*
X79129Y72337D01*
X79203Y72413D01*
X79328Y72559D01*
X79378Y72628D01*
X79421Y72694D01*
X79455Y72759D01*
X79482Y72820D01*
X79501Y72879D01*
X79512Y72936D01*
X79516Y72990D01*
X80490Y72016D01*
D02*
G37*
G36*
X86807Y72065D02*
X86778Y72053D01*
X86744Y72033D01*
X86704Y72007D01*
X86608Y71931D01*
X86490Y71827D01*
X86271Y71616D01*
X85269Y72028D01*
X85342Y72105D01*
X85461Y72251D01*
X85505Y72320D01*
X85540Y72386D01*
X85566Y72449D01*
X85581Y72509D01*
X85588Y72567D01*
X85584Y72622D01*
X85571Y72674D01*
X86807Y72065D01*
D02*
G37*
G36*
X65491Y73357D02*
X65536Y73230D01*
X65612Y73118D01*
X65718Y73020D01*
X65854Y72938D01*
X66020Y72870D01*
X66217Y72817D01*
X66444Y72780D01*
X66701Y72758D01*
X66988Y72750D01*
Y71250D01*
X66701Y71242D01*
X66444Y71220D01*
X66217Y71183D01*
X66020Y71130D01*
X65854Y71062D01*
X65718Y70980D01*
X65612Y70882D01*
X65536Y70770D01*
X65491Y70643D01*
X65476Y70500D01*
Y73500D01*
X65491Y73357D01*
D02*
G37*
G36*
X106502Y70762D02*
X106988D01*
X106895Y70732D01*
X106812Y70642D01*
X106739Y70492D01*
X106676Y70282D01*
X106622Y70012D01*
X106578Y69682D01*
X106567Y69525D01*
X106622Y68738D01*
X106676Y68468D01*
X106739Y68258D01*
X106812Y68108D01*
X106895Y68018D01*
X106988Y67988D01*
X106504D01*
X106500Y67762D01*
X103500D01*
X103498Y67988D01*
X103012D01*
X103105Y68018D01*
X103188Y68108D01*
X103261Y68258D01*
X103324Y68468D01*
X103378Y68738D01*
X103422Y69068D01*
X103433Y69225D01*
X103378Y70012D01*
X103324Y70282D01*
X103261Y70492D01*
X103188Y70642D01*
X103105Y70732D01*
X103012Y70762D01*
X103496D01*
X103500Y70988D01*
X106500D01*
X106502Y70762D01*
D02*
G37*
G36*
X155858Y65009D02*
X155730Y64964D01*
X155617Y64888D01*
X155520Y64782D01*
X155438Y64646D01*
X155370Y64480D01*
X155317Y64283D01*
X155280Y64056D01*
X155257Y63799D01*
X155250Y63512D01*
X153750D01*
X153743Y63799D01*
X153720Y64056D01*
X153682Y64283D01*
X153630Y64480D01*
X153562Y64646D01*
X153480Y64782D01*
X153383Y64888D01*
X153270Y64964D01*
X153142Y65009D01*
X153000Y65024D01*
X156000D01*
X155858Y65009D01*
D02*
G37*
G36*
X155257Y60654D02*
X155280Y60396D01*
X155317Y60170D01*
X155370Y59973D01*
X155438Y59807D01*
X155520Y59671D01*
X155617Y59565D01*
X155730Y59489D01*
X155858Y59444D01*
X156000Y59429D01*
X153000D01*
X153142Y59444D01*
X153270Y59489D01*
X153383Y59565D01*
X153480Y59671D01*
X153562Y59807D01*
X153630Y59973D01*
X153682Y60170D01*
X153720Y60396D01*
X153743Y60654D01*
X153750Y60941D01*
X155250D01*
X155257Y60654D01*
D02*
G37*
G36*
X79827Y35898D02*
X79996Y35785D01*
X80202Y35671D01*
X80445Y35557D01*
X81042Y35329D01*
X81396Y35216D01*
X82678Y34874D01*
X79140Y32736D01*
X79226Y33109D01*
X79286Y33461D01*
X79318Y33790D01*
X79325Y34098D01*
X79305Y34383D01*
X79259Y34647D01*
X79187Y34889D01*
X79088Y35108D01*
X78962Y35306D01*
X78811Y35482D01*
X79695Y36012D01*
X79827Y35898D01*
D02*
G37*
G36*
X55189Y35482D02*
X55037Y35306D01*
X54912Y35108D01*
X54813Y34889D01*
X54741Y34647D01*
X54695Y34383D01*
X54675Y34098D01*
X54682Y33790D01*
X54715Y33461D01*
X54774Y33109D01*
X54860Y32736D01*
X51322Y34874D01*
X51786Y34988D01*
X53275Y35443D01*
X53555Y35557D01*
X54004Y35785D01*
X54173Y35898D01*
X54305Y36012D01*
X55189Y35482D01*
D02*
G37*
G36*
X45648Y33941D02*
X45512Y33798D01*
X45390Y33655D01*
X45283Y33513D01*
X45189Y33371D01*
X45110Y33229D01*
X45046Y33088D01*
X44995Y32947D01*
X44959Y32807D01*
X44937Y32666D01*
X44929Y32526D01*
X44941Y34941D01*
X45000Y34945D01*
X45063Y34957D01*
X45127Y34978D01*
X45195Y35007D01*
X45264Y35044D01*
X45336Y35090D01*
X45410Y35144D01*
X45487Y35206D01*
X45648Y35355D01*
Y33941D01*
D02*
G37*
G36*
X75664Y34957D02*
X75525Y34796D01*
X75401Y34605D01*
X75292Y34385D01*
X75198Y34137D01*
X75120Y33858D01*
X75056Y33551D01*
X75007Y33215D01*
X74956Y32454D01*
X74953Y32030D01*
X72030Y34953D01*
X72454Y34956D01*
X73215Y35007D01*
X73551Y35056D01*
X73858Y35120D01*
X74137Y35198D01*
X74385Y35292D01*
X74605Y35401D01*
X74796Y35525D01*
X74957Y35664D01*
X75664Y34957D01*
D02*
G37*
G36*
X65664D02*
X65525Y34796D01*
X65401Y34605D01*
X65292Y34385D01*
X65198Y34137D01*
X65119Y33858D01*
X65056Y33551D01*
X65007Y33215D01*
X64956Y32454D01*
X64953Y32030D01*
X62029Y34953D01*
X62454Y34956D01*
X63214Y35007D01*
X63551Y35056D01*
X63858Y35120D01*
X64136Y35198D01*
X64385Y35292D01*
X64605Y35401D01*
X64796Y35525D01*
X64957Y35664D01*
X65664Y34957D01*
D02*
G37*
G36*
X88481Y34750D02*
X88679Y34626D01*
X88896Y34532D01*
X89130Y34469D01*
X89382Y34438D01*
X89652Y34437D01*
X89940Y34467D01*
X90246Y34529D01*
X90570Y34621D01*
X90912Y34745D01*
X89234Y30967D01*
X89049Y31454D01*
X88058Y33671D01*
X87959Y33818D01*
X87871Y33922D01*
X88301Y34906D01*
X88481Y34750D01*
D02*
G37*
G36*
X165000Y165000D02*
Y164000D01*
X165500D01*
Y1000D01*
X165000D01*
Y0D01*
X500D01*
Y500D01*
X0D01*
Y78500D01*
X7500D01*
Y7000D01*
X160500D01*
Y160500D01*
X51448Y160500D01*
X50819Y161319D01*
X49993Y161953D01*
X49032Y162351D01*
X48500Y162421D01*
Y158500D01*
X47500D01*
Y162421D01*
X46968Y162351D01*
X46007Y161953D01*
X45181Y161319D01*
X44552Y160500D01*
X41448D01*
X40819Y161319D01*
X39993Y161953D01*
X39032Y162351D01*
X38500Y162421D01*
Y158500D01*
X37500D01*
Y162421D01*
X36968Y162351D01*
X36007Y161953D01*
X35181Y161319D01*
X34552Y160500D01*
X7500D01*
Y85000D01*
X0D01*
Y122835D01*
X500Y122884D01*
X547Y122648D01*
X631Y122226D01*
X1069Y121569D01*
X1726Y121131D01*
X2000Y121076D01*
Y123000D01*
Y124924D01*
X1726Y124869D01*
X1069Y124431D01*
X631Y123774D01*
X547Y123352D01*
X500Y123116D01*
X0Y123166D01*
Y164500D01*
X500D01*
Y165000D01*
X165000Y165000D01*
D02*
G37*
%LPC*%
G36*
X48500Y152421D02*
Y149000D01*
X51921D01*
X51851Y149532D01*
X51453Y150493D01*
X50819Y151319D01*
X49993Y151953D01*
X49032Y152351D01*
X48500Y152421D01*
D02*
G37*
G36*
X47500D02*
X46968Y152351D01*
X46007Y151953D01*
X45181Y151319D01*
X44547Y150493D01*
X44149Y149532D01*
X44079Y149000D01*
X47500D01*
Y152421D01*
D02*
G37*
G36*
X22244Y149647D02*
X20969Y149522D01*
X19742Y149150D01*
X18612Y148546D01*
X17622Y147733D01*
X16809Y146742D01*
X16205Y145612D01*
X15833Y144386D01*
X15707Y143110D01*
X15833Y141835D01*
X16205Y140609D01*
X16809Y139479D01*
X17622Y138488D01*
X18612Y137675D01*
X19742Y137071D01*
X20969Y136699D01*
X22244Y136573D01*
X23519Y136699D01*
X24746Y137071D01*
X25876Y137675D01*
X26866Y138488D01*
X27679Y139479D01*
X28284Y140609D01*
X28655Y141835D01*
X28781Y143110D01*
X28655Y144386D01*
X28284Y145612D01*
X27679Y146742D01*
X26866Y147733D01*
X25876Y148546D01*
X24746Y149150D01*
X23519Y149522D01*
X22244Y149647D01*
D02*
G37*
G36*
X18000Y125424D02*
Y124000D01*
X19424D01*
X19369Y124274D01*
X18931Y124931D01*
X18274Y125369D01*
X18000Y125424D01*
D02*
G37*
G36*
X17000D02*
X16726Y125369D01*
X16069Y124931D01*
X15631Y124274D01*
X15576Y124000D01*
X17000D01*
Y125424D01*
D02*
G37*
G36*
X19424Y123000D02*
X18000D01*
Y121576D01*
X18274Y121631D01*
X18931Y122069D01*
X19369Y122726D01*
X19424Y123000D01*
D02*
G37*
G36*
X17000D02*
X15576D01*
X15631Y122726D01*
X16069Y122069D01*
X16726Y121631D01*
X17000Y121576D01*
Y123000D01*
D02*
G37*
G36*
X85000Y110421D02*
Y107000D01*
X88421D01*
X88351Y107532D01*
X87953Y108493D01*
X87319Y109319D01*
X86493Y109953D01*
X85532Y110351D01*
X85000Y110421D01*
D02*
G37*
G36*
X84000D02*
X83468Y110351D01*
X82507Y109953D01*
X81681Y109319D01*
X81047Y108493D01*
X80649Y107532D01*
X80579Y107000D01*
X84000D01*
Y110421D01*
D02*
G37*
G36*
X88421Y106000D02*
X85000D01*
Y102579D01*
X85532Y102649D01*
X86493Y103047D01*
X87319Y103681D01*
X87953Y104507D01*
X88351Y105468D01*
X88421Y106000D01*
D02*
G37*
G36*
X84000D02*
X80579D01*
X80649Y105468D01*
X81047Y104507D01*
X81681Y103681D01*
X82507Y103047D01*
X83468Y102649D01*
X84000Y102579D01*
Y106000D01*
D02*
G37*
G36*
X138053Y123553D02*
X130947D01*
Y116447D01*
X138053D01*
Y123553D01*
D02*
G37*
G36*
X124500Y123583D02*
X123573Y123461D01*
X122708Y123103D01*
X121966Y122534D01*
X121397Y121792D01*
X121039Y120927D01*
X120917Y120000D01*
X121039Y119073D01*
X121397Y118208D01*
X121966Y117466D01*
X122708Y116897D01*
X123573Y116539D01*
X124500Y116417D01*
X125427Y116539D01*
X126292Y116897D01*
X127034Y117466D01*
X127603Y118208D01*
X127961Y119073D01*
X128083Y120000D01*
X127961Y120927D01*
X127603Y121792D01*
X127034Y122534D01*
X126292Y123103D01*
X125427Y123461D01*
X124500Y123583D01*
D02*
G37*
G36*
X114500D02*
X113573Y123461D01*
X112708Y123103D01*
X111966Y122534D01*
X111397Y121792D01*
X111039Y120927D01*
X110917Y120000D01*
X111039Y119073D01*
X111397Y118208D01*
X111966Y117466D01*
X112708Y116897D01*
X113573Y116539D01*
X114500Y116417D01*
X115427Y116539D01*
X116292Y116897D01*
X117034Y117466D01*
X117603Y118208D01*
X117961Y119073D01*
X118083Y120000D01*
X117961Y120927D01*
X117603Y121792D01*
X117034Y122534D01*
X116292Y123103D01*
X115427Y123461D01*
X114500Y123583D01*
D02*
G37*
G36*
X144000Y110421D02*
X143468Y110351D01*
X142507Y109953D01*
X141681Y109319D01*
X141047Y108493D01*
X140649Y107532D01*
X140579Y107000D01*
X144000D01*
Y110421D01*
D02*
G37*
G36*
X134500Y110083D02*
X133573Y109961D01*
X132708Y109603D01*
X131966Y109034D01*
X131397Y108292D01*
X131039Y107427D01*
X130917Y106500D01*
X131039Y105573D01*
X131397Y104708D01*
X131966Y103966D01*
X132708Y103397D01*
X133573Y103039D01*
X134500Y102917D01*
X135427Y103039D01*
X136292Y103397D01*
X137034Y103966D01*
X137603Y104708D01*
X137961Y105573D01*
X138083Y106500D01*
X137961Y107427D01*
X137603Y108292D01*
X137034Y109034D01*
X136292Y109603D01*
X135427Y109961D01*
X134500Y110083D01*
D02*
G37*
G36*
X124500D02*
X123573Y109961D01*
X122708Y109603D01*
X121966Y109034D01*
X121397Y108292D01*
X121039Y107427D01*
X120917Y106500D01*
X121039Y105573D01*
X121397Y104708D01*
X121966Y103966D01*
X122708Y103397D01*
X123573Y103039D01*
X124500Y102917D01*
X125427Y103039D01*
X126292Y103397D01*
X127034Y103966D01*
X127603Y104708D01*
X127961Y105573D01*
X128083Y106500D01*
X127961Y107427D01*
X127603Y108292D01*
X127034Y109034D01*
X126292Y109603D01*
X125427Y109961D01*
X124500Y110083D01*
D02*
G37*
G36*
X114500D02*
X113573Y109961D01*
X112708Y109603D01*
X111966Y109034D01*
X111397Y108292D01*
X111039Y107427D01*
X110917Y106500D01*
X111039Y105573D01*
X111397Y104708D01*
X111966Y103966D01*
X112708Y103397D01*
X113573Y103039D01*
X114500Y102917D01*
X115427Y103039D01*
X116292Y103397D01*
X117034Y103966D01*
X117603Y104708D01*
X117961Y105573D01*
X118083Y106500D01*
X117961Y107427D01*
X117603Y108292D01*
X117034Y109034D01*
X116292Y109603D01*
X115427Y109961D01*
X114500Y110083D01*
D02*
G37*
G36*
X144000Y106000D02*
X140579D01*
X140649Y105468D01*
X141047Y104507D01*
X141681Y103681D01*
X142507Y103047D01*
X143468Y102649D01*
X144000Y102579D01*
Y106000D01*
D02*
G37*
G36*
X115500Y102000D02*
X113000D01*
Y98500D01*
X115500D01*
Y102000D01*
D02*
G37*
G36*
X134000Y97583D02*
X133073Y97461D01*
X132208Y97103D01*
X131466Y96534D01*
X130897Y95792D01*
X130539Y94927D01*
X130417Y94000D01*
X130539Y93073D01*
X130897Y92208D01*
X131466Y91466D01*
X132208Y90897D01*
X133073Y90539D01*
X134000Y90417D01*
X134927Y90539D01*
X135792Y90897D01*
X136534Y91466D01*
X137103Y92208D01*
X137461Y93073D01*
X137583Y94000D01*
X137461Y94927D01*
X137103Y95792D01*
X136534Y96534D01*
X135792Y97103D01*
X134927Y97461D01*
X134000Y97583D01*
D02*
G37*
G36*
X99500Y85424D02*
X99226Y85369D01*
X98569Y84931D01*
X98131Y84274D01*
X98076Y84000D01*
X99500D01*
Y85424D01*
D02*
G37*
G36*
Y83000D02*
X98076D01*
X98131Y82726D01*
X98569Y82069D01*
X99226Y81631D01*
X99500Y81576D01*
Y83000D01*
D02*
G37*
G36*
X134000Y87583D02*
X133073Y87461D01*
X132208Y87103D01*
X131466Y86534D01*
X130897Y85792D01*
X130539Y84927D01*
X130417Y84000D01*
X130539Y83073D01*
X130897Y82208D01*
X131466Y81466D01*
X132208Y80897D01*
X133073Y80539D01*
X134000Y80417D01*
X134927Y80539D01*
X135792Y80897D01*
X136534Y81466D01*
X137103Y82208D01*
X137461Y83073D01*
X137583Y84000D01*
X137461Y84927D01*
X137103Y85792D01*
X136534Y86534D01*
X135792Y87103D01*
X134927Y87461D01*
X134000Y87583D01*
D02*
G37*
G36*
X124000D02*
X123073Y87461D01*
X122208Y87103D01*
X121466Y86534D01*
X120897Y85792D01*
X120539Y84927D01*
X120417Y84000D01*
X120539Y83073D01*
X120897Y82208D01*
X121466Y81466D01*
X122208Y80897D01*
X123073Y80539D01*
X124000Y80417D01*
X124927Y80539D01*
X125792Y80897D01*
X126534Y81466D01*
X127103Y82208D01*
X127461Y83073D01*
X127583Y84000D01*
X127461Y84927D01*
X127103Y85792D01*
X126534Y86534D01*
X125792Y87103D01*
X124927Y87461D01*
X124000Y87583D01*
D02*
G37*
G36*
X144000Y78000D02*
X140500D01*
Y76849D01*
X140291Y76793D01*
X139959Y76734D01*
X139050Y76659D01*
X138501Y76649D01*
X138482Y76641D01*
X116000D01*
Y77750D01*
X113500D01*
Y73750D01*
X113000D01*
Y73250D01*
X110000D01*
Y69750D01*
X110326D01*
X110467Y69463D01*
X110156Y69000D01*
X110000D01*
Y65500D01*
X116000D01*
Y69000D01*
X115674D01*
X115533Y69287D01*
X115844Y69750D01*
X116000D01*
Y72359D01*
X138492D01*
X138512Y72351D01*
X138513Y72351D01*
X138514Y72351D01*
X140146Y72355D01*
X140500Y72002D01*
Y72000D01*
X144000D01*
Y75000D01*
Y78000D01*
D02*
G37*
G36*
X94488Y78078D02*
X92429D01*
Y76354D01*
X96613D01*
X96543Y76705D01*
X96061Y77427D01*
X95339Y77909D01*
X94488Y78078D01*
D02*
G37*
G36*
X91429D02*
X89370D01*
X88519Y77909D01*
X87798Y77427D01*
X87315Y76705D01*
X87246Y76354D01*
X91429D01*
Y78078D01*
D02*
G37*
G36*
X112500Y77750D02*
X110000D01*
Y74250D01*
X112500D01*
Y77750D01*
D02*
G37*
G36*
X96613Y75354D02*
X92429D01*
Y73630D01*
X94488D01*
X95339Y73800D01*
X96061Y74282D01*
X96543Y75003D01*
X96613Y75354D01*
D02*
G37*
G36*
X148500Y74500D02*
X145000D01*
Y72000D01*
X148500D01*
Y74500D01*
D02*
G37*
G36*
X116000Y64500D02*
X113500D01*
Y61000D01*
X116000D01*
Y64500D01*
D02*
G37*
G36*
X112500D02*
X110000D01*
Y61000D01*
X112500D01*
Y64500D01*
D02*
G37*
G36*
X114500Y60083D02*
X113573Y59961D01*
X112708Y59603D01*
X112017Y59073D01*
X111962Y59054D01*
X111872Y58975D01*
X111795Y58924D01*
X111692Y58871D01*
X111560Y58819D01*
X111399Y58771D01*
X111210Y58729D01*
X111001Y58697D01*
X110473Y58655D01*
X110173Y58649D01*
X110155Y58641D01*
X108856D01*
X108839Y58649D01*
X108244Y58671D01*
X108007Y58695D01*
X107790Y58729D01*
X107601Y58771D01*
X107440Y58819D01*
X107308Y58871D01*
X107205Y58924D01*
X107128Y58975D01*
X107038Y59054D01*
X106983Y59073D01*
X106292Y59603D01*
X105427Y59961D01*
X104500Y60083D01*
X103573Y59961D01*
X102708Y59603D01*
X101966Y59034D01*
X101397Y58292D01*
X101039Y57427D01*
X100917Y56500D01*
X101039Y55573D01*
X101397Y54708D01*
X101966Y53966D01*
X102708Y53397D01*
X103573Y53039D01*
X104500Y52917D01*
X105427Y53039D01*
X106292Y53397D01*
X106983Y53927D01*
X107038Y53946D01*
X107128Y54025D01*
X107205Y54076D01*
X107308Y54129D01*
X107440Y54181D01*
X107601Y54229D01*
X107790Y54271D01*
X107999Y54303D01*
X108527Y54345D01*
X108827Y54351D01*
X108845Y54359D01*
X110144D01*
X110161Y54351D01*
X110756Y54329D01*
X110993Y54305D01*
X111210Y54271D01*
X111399Y54229D01*
X111560Y54181D01*
X111692Y54129D01*
X111795Y54076D01*
X111872Y54025D01*
X111962Y53946D01*
X112017Y53927D01*
X112708Y53397D01*
X113573Y53039D01*
X114500Y52917D01*
X115427Y53039D01*
X116292Y53397D01*
X117034Y53966D01*
X117603Y54708D01*
X117961Y55573D01*
X118083Y56500D01*
X117961Y57427D01*
X117603Y58292D01*
X117034Y59034D01*
X116292Y59603D01*
X115427Y59961D01*
X114500Y60083D01*
D02*
G37*
G36*
X148100Y69600D02*
X140900D01*
Y64400D01*
X142891D01*
X142931Y64378D01*
X142968Y64374D01*
X142980Y64354D01*
X143013Y64273D01*
X143047Y64146D01*
X143075Y63975D01*
X143094Y63762D01*
X143101Y63495D01*
X143124Y63444D01*
Y61208D01*
X143102Y61162D01*
X143090Y60950D01*
X143061Y60769D01*
X143011Y60581D01*
X142940Y60387D01*
X142844Y60185D01*
X142724Y59975D01*
X142578Y59758D01*
X142405Y59535D01*
X142205Y59306D01*
X141967Y59061D01*
X141946Y59007D01*
X141397Y58292D01*
X141039Y57427D01*
X140917Y56500D01*
X141039Y55573D01*
X141397Y54708D01*
X141966Y53966D01*
X142708Y53397D01*
X143573Y53039D01*
X144500Y52917D01*
X145427Y53039D01*
X146292Y53397D01*
X147034Y53966D01*
X147603Y54708D01*
X147961Y55573D01*
X148083Y56500D01*
X147961Y57427D01*
X147603Y58292D01*
X147054Y59007D01*
X147033Y59061D01*
X146794Y59307D01*
X146595Y59535D01*
X146422Y59758D01*
X146276Y59975D01*
X146156Y60184D01*
X146060Y60387D01*
X145989Y60581D01*
X145939Y60769D01*
X145910Y60950D01*
X145898Y61162D01*
X145876Y61208D01*
Y63444D01*
X145899Y63495D01*
X145906Y63762D01*
X145925Y63975D01*
X145953Y64146D01*
X145987Y64273D01*
X146020Y64354D01*
X146032Y64374D01*
X146069Y64378D01*
X146109Y64400D01*
X148100D01*
Y69600D01*
D02*
G37*
G36*
X134500Y60083D02*
X133573Y59961D01*
X132708Y59603D01*
X131966Y59034D01*
X131397Y58292D01*
X131039Y57427D01*
X130917Y56500D01*
X131039Y55573D01*
X131397Y54708D01*
X131966Y53966D01*
X132708Y53397D01*
X133573Y53039D01*
X134500Y52917D01*
X135427Y53039D01*
X136292Y53397D01*
X137034Y53966D01*
X137603Y54708D01*
X137961Y55573D01*
X138083Y56500D01*
X137961Y57427D01*
X137603Y58292D01*
X137034Y59034D01*
X136292Y59603D01*
X135427Y59961D01*
X134500Y60083D01*
D02*
G37*
G36*
X124500D02*
X123573Y59961D01*
X122708Y59603D01*
X121966Y59034D01*
X121397Y58292D01*
X121039Y57427D01*
X120917Y56500D01*
X121039Y55573D01*
X121397Y54708D01*
X121966Y53966D01*
X122708Y53397D01*
X123573Y53039D01*
X124500Y52917D01*
X125427Y53039D01*
X126292Y53397D01*
X127034Y53966D01*
X127603Y54708D01*
X127961Y55573D01*
X128083Y56500D01*
X127961Y57427D01*
X127603Y58292D01*
X127034Y59034D01*
X126292Y59603D01*
X125427Y59961D01*
X124500Y60083D01*
D02*
G37*
G36*
X94250Y67283D02*
X93632Y67160D01*
X93108Y66810D01*
X92758Y66286D01*
X92635Y65668D01*
X92758Y65049D01*
X93108Y64525D01*
X93313Y64388D01*
X93314Y64381D01*
X93325Y64362D01*
X93327Y64354D01*
X93329Y64351D01*
X93331Y64343D01*
X93336Y64321D01*
X93349Y64191D01*
X93351Y64110D01*
X93378Y64048D01*
Y61282D01*
X93352Y61229D01*
X93340Y61061D01*
X93310Y60918D01*
X93254Y60753D01*
X93169Y60565D01*
X93053Y60357D01*
X92904Y60131D01*
X92727Y59894D01*
X92254Y59353D01*
X91970Y59065D01*
X91949Y59011D01*
X91397Y58292D01*
X91039Y57427D01*
X90917Y56500D01*
X91039Y55573D01*
X91397Y54708D01*
X91966Y53966D01*
X92708Y53397D01*
X93573Y53039D01*
X94500Y52917D01*
X95427Y53039D01*
X96292Y53397D01*
X97034Y53966D01*
X97603Y54708D01*
X97961Y55573D01*
X98083Y56500D01*
X97961Y57427D01*
X97603Y58292D01*
X97051Y59011D01*
X97030Y59065D01*
X96746Y59353D01*
X96273Y59894D01*
X96096Y60131D01*
X95947Y60357D01*
X95831Y60565D01*
X95746Y60753D01*
X95690Y60918D01*
X95660Y61061D01*
X95648Y61229D01*
X95622Y61282D01*
Y64364D01*
X95649Y64428D01*
X95653Y64622D01*
X95662Y64763D01*
X95675Y64863D01*
X95679Y64880D01*
X95680Y64885D01*
X95687Y64903D01*
X95686Y64908D01*
X95687Y64912D01*
X95686Y64923D01*
X95684Y64962D01*
X95742Y65049D01*
X95865Y65668D01*
X95742Y66286D01*
X95392Y66810D01*
X94868Y67160D01*
X94250Y67283D01*
D02*
G37*
G36*
X118053Y47553D02*
X110947D01*
Y40447D01*
X118053D01*
Y47553D01*
D02*
G37*
G36*
X104500Y47583D02*
X103573Y47461D01*
X102708Y47103D01*
X101966Y46534D01*
X101397Y45792D01*
X101039Y44927D01*
X100917Y44000D01*
X101039Y43073D01*
X101397Y42208D01*
X101966Y41466D01*
X102708Y40897D01*
X103573Y40539D01*
X104500Y40417D01*
X105427Y40539D01*
X106292Y40897D01*
X107034Y41466D01*
X107603Y42208D01*
X107961Y43073D01*
X108083Y44000D01*
X107961Y44927D01*
X107603Y45792D01*
X107034Y46534D01*
X106292Y47103D01*
X105427Y47461D01*
X104500Y47583D01*
D02*
G37*
G36*
X143110Y28781D02*
X141835Y28655D01*
X140609Y28284D01*
X139479Y27679D01*
X138488Y26866D01*
X137675Y25876D01*
X137071Y24746D01*
X136699Y23519D01*
X136573Y22244D01*
X136699Y20969D01*
X137071Y19742D01*
X137675Y18612D01*
X138488Y17622D01*
X139479Y16809D01*
X140609Y16205D01*
X141835Y15833D01*
X143110Y15707D01*
X144386Y15833D01*
X145612Y16205D01*
X146742Y16809D01*
X147733Y17622D01*
X148546Y18612D01*
X149150Y19742D01*
X149522Y20969D01*
X149647Y22244D01*
X149522Y23519D01*
X149150Y24746D01*
X148546Y25876D01*
X147733Y26866D01*
X146742Y27679D01*
X145612Y28284D01*
X144386Y28655D01*
X143110Y28781D01*
D02*
G37*
G36*
X45053Y22553D02*
X37947D01*
Y15447D01*
X45053D01*
Y22553D01*
D02*
G37*
G36*
X91500Y22583D02*
X90573Y22461D01*
X89708Y22103D01*
X88966Y21534D01*
X88397Y20792D01*
X88039Y19927D01*
X87917Y19000D01*
X88039Y18073D01*
X88397Y17208D01*
X88966Y16466D01*
X89708Y15897D01*
X90573Y15539D01*
X91500Y15417D01*
X92427Y15539D01*
X93292Y15897D01*
X94034Y16466D01*
X94603Y17208D01*
X94961Y18073D01*
X95083Y19000D01*
X94961Y19927D01*
X94603Y20792D01*
X94034Y21534D01*
X93292Y22103D01*
X92427Y22461D01*
X91500Y22583D01*
D02*
G37*
G36*
X81500D02*
X80573Y22461D01*
X79708Y22103D01*
X78966Y21534D01*
X78397Y20792D01*
X78039Y19927D01*
X77917Y19000D01*
X78039Y18073D01*
X78397Y17208D01*
X78966Y16466D01*
X79708Y15897D01*
X80573Y15539D01*
X81500Y15417D01*
X82427Y15539D01*
X83292Y15897D01*
X84034Y16466D01*
X84603Y17208D01*
X84961Y18073D01*
X85083Y19000D01*
X84961Y19927D01*
X84603Y20792D01*
X84034Y21534D01*
X83292Y22103D01*
X82427Y22461D01*
X81500Y22583D01*
D02*
G37*
G36*
X71500D02*
X70573Y22461D01*
X69708Y22103D01*
X68966Y21534D01*
X68397Y20792D01*
X68039Y19927D01*
X67917Y19000D01*
X68039Y18073D01*
X68397Y17208D01*
X68966Y16466D01*
X69708Y15897D01*
X70573Y15539D01*
X71500Y15417D01*
X72427Y15539D01*
X73292Y15897D01*
X74034Y16466D01*
X74603Y17208D01*
X74961Y18073D01*
X75083Y19000D01*
X74961Y19927D01*
X74603Y20792D01*
X74034Y21534D01*
X73292Y22103D01*
X72427Y22461D01*
X71500Y22583D01*
D02*
G37*
G36*
X61500D02*
X60573Y22461D01*
X59708Y22103D01*
X58966Y21534D01*
X58397Y20792D01*
X58039Y19927D01*
X57917Y19000D01*
X58039Y18073D01*
X58397Y17208D01*
X58966Y16466D01*
X59708Y15897D01*
X60573Y15539D01*
X61500Y15417D01*
X62427Y15539D01*
X63292Y15897D01*
X64034Y16466D01*
X64603Y17208D01*
X64961Y18073D01*
X65083Y19000D01*
X64961Y19927D01*
X64603Y20792D01*
X64034Y21534D01*
X63292Y22103D01*
X62427Y22461D01*
X61500Y22583D01*
D02*
G37*
G36*
X51500D02*
X50573Y22461D01*
X49708Y22103D01*
X48966Y21534D01*
X48397Y20792D01*
X48039Y19927D01*
X47917Y19000D01*
X48039Y18073D01*
X48397Y17208D01*
X48966Y16466D01*
X49708Y15897D01*
X50573Y15539D01*
X51500Y15417D01*
X52427Y15539D01*
X53292Y15897D01*
X54034Y16466D01*
X54603Y17208D01*
X54961Y18073D01*
X55083Y19000D01*
X54961Y19927D01*
X54603Y20792D01*
X54034Y21534D01*
X53292Y22103D01*
X52427Y22461D01*
X51500Y22583D01*
D02*
G37*
%LPD*%
G36*
X141512Y73012D02*
X141482Y73010D01*
X141392Y73008D01*
X138512Y73000D01*
Y76000D01*
X139082Y76010D01*
X140042Y76089D01*
X140432Y76158D01*
X140762Y76247D01*
X141032Y76356D01*
X141242Y76484D01*
X141392Y76632D01*
X141482Y76800D01*
X141512Y76988D01*
Y73012D01*
D02*
G37*
G36*
X114502Y70762D02*
X114988D01*
X114895Y70732D01*
X114812Y70642D01*
X114739Y70492D01*
X114676Y70282D01*
X114622Y70012D01*
X114578Y69682D01*
X114567Y69525D01*
X114622Y68738D01*
X114676Y68468D01*
X114739Y68258D01*
X114812Y68108D01*
X114895Y68018D01*
X114988Y67988D01*
X114504D01*
X114500Y67762D01*
X111500D01*
X111498Y67988D01*
X111012D01*
X111105Y68018D01*
X111188Y68108D01*
X111261Y68258D01*
X111324Y68468D01*
X111378Y68738D01*
X111422Y69068D01*
X111433Y69225D01*
X111378Y70012D01*
X111324Y70282D01*
X111261Y70492D01*
X111188Y70642D01*
X111105Y70732D01*
X111012Y70762D01*
X111496D01*
X111500Y70988D01*
X114500D01*
X114502Y70762D01*
D02*
G37*
G36*
X112391Y54433D02*
X112269Y54541D01*
X112125Y54637D01*
X111959Y54722D01*
X111772Y54796D01*
X111562Y54858D01*
X111330Y54909D01*
X111077Y54949D01*
X110801Y54977D01*
X110185Y55000D01*
Y58000D01*
X110504Y58006D01*
X111077Y58051D01*
X111330Y58091D01*
X111562Y58142D01*
X111772Y58204D01*
X111959Y58278D01*
X112125Y58363D01*
X112269Y58459D01*
X112391Y58567D01*
Y54433D01*
D02*
G37*
G36*
X106731Y58459D02*
X106875Y58363D01*
X107041Y58278D01*
X107228Y58204D01*
X107438Y58142D01*
X107670Y58091D01*
X107923Y58051D01*
X108199Y58023D01*
X108815Y58000D01*
Y55000D01*
X108496Y54994D01*
X107923Y54949D01*
X107670Y54909D01*
X107438Y54858D01*
X107228Y54796D01*
X107041Y54722D01*
X106875Y54637D01*
X106731Y54541D01*
X106609Y54433D01*
Y58567D01*
X106731Y58459D01*
D02*
G37*
G36*
X145858Y65009D02*
X145730Y64964D01*
X145617Y64888D01*
X145520Y64782D01*
X145438Y64646D01*
X145370Y64480D01*
X145317Y64283D01*
X145280Y64056D01*
X145257Y63799D01*
X145250Y63512D01*
X143750D01*
X143743Y63799D01*
X143720Y64056D01*
X143683Y64283D01*
X143630Y64480D01*
X143562Y64646D01*
X143480Y64782D01*
X143383Y64888D01*
X143270Y64964D01*
X143142Y65009D01*
X143000Y65024D01*
X146000D01*
X145858Y65009D01*
D02*
G37*
G36*
X145263Y60881D02*
X145303Y60634D01*
X145369Y60385D01*
X145461Y60135D01*
X145579Y59884D01*
X145724Y59631D01*
X145895Y59377D01*
X146093Y59123D01*
X146317Y58866D01*
X146567Y58609D01*
X142433D01*
X142683Y58866D01*
X142907Y59123D01*
X143105Y59377D01*
X143276Y59631D01*
X143421Y59884D01*
X143539Y60135D01*
X143631Y60385D01*
X143697Y60634D01*
X143737Y60881D01*
X143750Y61128D01*
X145250D01*
X145263Y60881D01*
D02*
G37*
G36*
X95077Y65127D02*
X95061Y65083D01*
X95047Y65031D01*
X95034Y64971D01*
X95015Y64826D01*
X95004Y64649D01*
X95000Y64440D01*
X94000Y64125D01*
X93998Y64231D01*
X93979Y64419D01*
X93962Y64500D01*
X93941Y64573D01*
X93914Y64638D01*
X93884Y64694D01*
X93848Y64742D01*
X93807Y64781D01*
X93762Y64813D01*
X95095Y65163D01*
X95077Y65127D01*
D02*
G37*
G36*
X95016Y60969D02*
X95063Y60747D01*
X95141Y60515D01*
X95251Y60272D01*
X95392Y60020D01*
X95564Y59758D01*
X95768Y59485D01*
X96269Y58911D01*
X96567Y58609D01*
X92433D01*
X92731Y58911D01*
X93232Y59485D01*
X93436Y59758D01*
X93608Y60020D01*
X93749Y60272D01*
X93859Y60515D01*
X93937Y60747D01*
X93984Y60969D01*
X94000Y61182D01*
X95000D01*
X95016Y60969D01*
D02*
G37*
%LPC*%
G36*
X42000Y103424D02*
Y102000D01*
X43424D01*
X43369Y102274D01*
X42931Y102931D01*
X42274Y103369D01*
X42000Y103424D01*
D02*
G37*
G36*
X41000D02*
X40726Y103369D01*
X40069Y102931D01*
X39631Y102274D01*
X39576Y102000D01*
X41000D01*
Y103424D01*
D02*
G37*
G36*
X51924Y101500D02*
X50500D01*
Y100076D01*
X50774Y100131D01*
X51431Y100569D01*
X51869Y101226D01*
X51924Y101500D01*
D02*
G37*
G36*
X49500D02*
X48076D01*
X48131Y101226D01*
X48569Y100569D01*
X49226Y100131D01*
X49500Y100076D01*
Y101500D01*
D02*
G37*
G36*
X43424Y101000D02*
X42000D01*
Y99576D01*
X42274Y99631D01*
X42931Y100069D01*
X43369Y100726D01*
X43424Y101000D01*
D02*
G37*
G36*
X41000D02*
X39576D01*
X39631Y100726D01*
X40069Y100069D01*
X40726Y99631D01*
X41000Y99576D01*
Y101000D01*
D02*
G37*
G36*
X45000Y86424D02*
Y85000D01*
X46424D01*
X46369Y85274D01*
X45931Y85931D01*
X45274Y86369D01*
X45000Y86424D01*
D02*
G37*
G36*
X44000D02*
X43726Y86369D01*
X43069Y85931D01*
X42631Y85274D01*
X42576Y85000D01*
X44000D01*
Y86424D01*
D02*
G37*
G36*
X46424Y84000D02*
X45000D01*
Y82576D01*
X45274Y82631D01*
X45931Y83069D01*
X46369Y83726D01*
X46424Y84000D01*
D02*
G37*
G36*
X44000D02*
X42576D01*
X42631Y83726D01*
X43069Y83069D01*
X43726Y82631D01*
X44000Y82576D01*
Y84000D01*
D02*
G37*
G36*
X19000Y87083D02*
X18073Y86961D01*
X17208Y86603D01*
X16466Y86034D01*
X15897Y85292D01*
X15539Y84427D01*
X15417Y83500D01*
X15539Y82573D01*
X15897Y81708D01*
X16466Y80966D01*
X17208Y80397D01*
X18073Y80039D01*
X19000Y79917D01*
X19927Y80039D01*
X20792Y80397D01*
X21534Y80966D01*
X22103Y81708D01*
X22461Y82573D01*
X22583Y83500D01*
X22461Y84427D01*
X22103Y85292D01*
X21534Y86034D01*
X20792Y86603D01*
X19927Y86961D01*
X19000Y87083D01*
D02*
G37*
G36*
Y77083D02*
X18073Y76961D01*
X17208Y76603D01*
X16466Y76034D01*
X15897Y75292D01*
X15539Y74427D01*
X15417Y73500D01*
X15539Y72573D01*
X15897Y71708D01*
X16466Y70966D01*
X17208Y70397D01*
X18073Y70039D01*
X19000Y69917D01*
X19927Y70039D01*
X20792Y70397D01*
X21534Y70966D01*
X22103Y71708D01*
X22461Y72573D01*
X22583Y73500D01*
X22461Y74427D01*
X22103Y75292D01*
X21534Y76034D01*
X20792Y76603D01*
X19927Y76961D01*
X19000Y77083D01*
D02*
G37*
G36*
X55000Y71500D02*
X52500D01*
Y68000D01*
X55000D01*
Y71500D01*
D02*
G37*
G36*
X45000Y63424D02*
Y62000D01*
X46424D01*
X46369Y62274D01*
X45931Y62931D01*
X45274Y63369D01*
X45000Y63424D01*
D02*
G37*
G36*
X44000D02*
X43726Y63369D01*
X43069Y62931D01*
X42631Y62274D01*
X42576Y62000D01*
X44000D01*
Y63424D01*
D02*
G37*
G36*
X19000Y67083D02*
X18073Y66961D01*
X17208Y66603D01*
X16466Y66034D01*
X15897Y65292D01*
X15539Y64427D01*
X15417Y63500D01*
X15539Y62573D01*
X15897Y61708D01*
X16466Y60966D01*
X17208Y60397D01*
X18073Y60039D01*
X19000Y59917D01*
X19927Y60039D01*
X20792Y60397D01*
X21534Y60966D01*
X22103Y61708D01*
X22461Y62573D01*
X22583Y63500D01*
X22461Y64427D01*
X22103Y65292D01*
X21534Y66034D01*
X20792Y66603D01*
X19927Y66961D01*
X19000Y67083D01*
D02*
G37*
G36*
X46424Y61000D02*
X45000D01*
Y59576D01*
X45274Y59631D01*
X45931Y60069D01*
X46369Y60726D01*
X46424Y61000D01*
D02*
G37*
G36*
X44000D02*
X42576D01*
X42631Y60726D01*
X43069Y60069D01*
X43726Y59631D01*
X44000Y59576D01*
Y61000D01*
D02*
G37*
G36*
X19000Y57083D02*
X18073Y56961D01*
X17208Y56603D01*
X16466Y56034D01*
X15897Y55292D01*
X15539Y54427D01*
X15417Y53500D01*
X15539Y52573D01*
X15897Y51708D01*
X16466Y50966D01*
X17208Y50397D01*
X18073Y50039D01*
X19000Y49917D01*
X19927Y50039D01*
X20792Y50397D01*
X21534Y50966D01*
X22103Y51708D01*
X22461Y52573D01*
X22583Y53500D01*
X22461Y54427D01*
X22103Y55292D01*
X21534Y56034D01*
X20792Y56603D01*
X19927Y56961D01*
X19000Y57083D01*
D02*
G37*
G36*
X3000Y124924D02*
Y123500D01*
X4424D01*
X4369Y123774D01*
X3931Y124431D01*
X3274Y124869D01*
X3000Y124924D01*
D02*
G37*
G36*
X4424Y122500D02*
X3000D01*
Y121076D01*
X3274Y121131D01*
X3931Y121569D01*
X4369Y122226D01*
X4424Y122500D01*
D02*
G37*
%LPD*%
D15*
X84500Y51500D02*
X89500Y46500D01*
Y42500D02*
Y46500D01*
Y42500D02*
X96250Y35750D01*
X93500Y26000D02*
X96250Y28750D01*
Y35750D01*
X29039Y26000D02*
X93500D01*
X71916Y107584D02*
X72000Y107500D01*
X38084Y107584D02*
X71916D01*
X34000Y103500D02*
X38084Y107584D01*
X94250Y65668D02*
X94500Y65418D01*
Y56500D02*
Y65418D01*
X13000Y88827D02*
X17673Y93500D01*
X13000Y42039D02*
Y88827D01*
Y42039D02*
X29039Y26000D01*
X17673Y93500D02*
X19000D01*
X84500Y51500D02*
Y56500D01*
X80000Y66052D02*
X86500Y72552D01*
Y73000D01*
X80000Y42500D02*
X90500Y32000D01*
X80000Y42500D02*
Y66052D01*
X58600Y47600D02*
Y87600D01*
X43000Y32000D02*
X58600Y47600D01*
X42000Y32000D02*
X43000D01*
X60200Y41200D02*
Y78450D01*
X52000Y33000D02*
X60200Y41200D01*
X52000Y32000D02*
Y33000D01*
X75200Y45200D02*
Y71200D01*
X62000Y32000D02*
X75200Y45200D01*
Y71200D02*
X86551Y82551D01*
X76800Y69300D02*
X80500Y73000D01*
X76800Y36800D02*
Y69300D01*
X72000Y32000D02*
X76800Y36800D01*
X78400Y36600D02*
Y67400D01*
X83500Y72500D01*
X78400Y36600D02*
X82000Y33000D01*
Y32000D02*
Y33000D01*
X86551Y82551D02*
Y92551D01*
X63500Y82104D02*
Y82750D01*
Y81750D02*
Y82104D01*
X60200Y78450D02*
X63500Y81750D01*
X58600Y87600D02*
X63500Y92500D01*
Y93500D01*
X83500Y72500D02*
Y73000D01*
X90500Y32000D02*
X92000D01*
X22500Y110000D02*
X74500D01*
X19000Y113500D02*
X22500Y110000D01*
X19000Y103500D02*
X34000D01*
X38500Y105500D02*
X69000D01*
X26500Y93500D02*
X38500Y105500D01*
X19000Y93500D02*
X26500D01*
X108500Y86500D02*
Y100000D01*
X105000Y83000D02*
X108500Y86500D01*
X105000Y82000D02*
Y83000D01*
X107600Y100900D02*
X108500Y100000D01*
X107600Y100900D02*
Y101456D01*
X106956Y102100D02*
X107600Y101456D01*
X102500Y102100D02*
X106956D01*
X99500Y105100D02*
X102500Y102100D01*
X99500Y105100D02*
Y132500D01*
X92500Y139500D02*
X99500Y132500D01*
X71000Y139500D02*
X92500D01*
X63000Y147500D02*
X71000Y139500D01*
X102257Y75243D02*
X103507D01*
X105000Y73750D01*
X100500Y77000D02*
X102257Y75243D01*
D16*
X113000Y65000D02*
D03*
X105000D02*
D03*
Y82000D02*
D03*
X113000D02*
D03*
Y73750D02*
D03*
X105000D02*
D03*
X63500Y72000D02*
D03*
X55500D02*
D03*
X104500Y89750D02*
D03*
X112500D02*
D03*
X55500Y82750D02*
D03*
X63500D02*
D03*
X55500Y93500D02*
D03*
X63500D02*
D03*
X104500Y98000D02*
D03*
X112500D02*
D03*
D22*
X144500Y75000D02*
D03*
Y67000D02*
D03*
X154500Y75000D02*
D03*
Y67000D02*
D03*
D36*
X150000Y93500D02*
X154500Y89000D01*
X150000Y93500D02*
Y116000D01*
X154500Y67000D02*
X155500D01*
X118500Y147500D02*
X150000Y116000D01*
X93000Y147500D02*
X118500D01*
X113000Y83000D02*
X124000Y94000D01*
X113000Y82000D02*
Y83000D01*
X81126Y90927D02*
X82750Y92551D01*
X86551D01*
X83500Y85699D02*
Y90000D01*
X73498Y90927D02*
X81126D01*
X81160Y83359D02*
X83500Y85699D01*
X73425Y80854D02*
X75984D01*
X64750D02*
X73425D01*
X78489Y83359D02*
X81160D01*
X75984Y80854D02*
X78489Y83359D01*
X80427Y85927D02*
X80500Y86000D01*
X73498Y85927D02*
X80427D01*
X73425Y85854D02*
X73498Y85927D01*
X94488Y85854D02*
X97634Y89000D01*
X91929Y85854D02*
X94488D01*
X70866D02*
X73425D01*
X144500Y56500D02*
Y67000D01*
X154500Y56500D02*
Y67000D01*
X104500Y97000D02*
Y98000D01*
X103250Y95750D02*
X104500Y97000D01*
X99384Y95750D02*
X103250D01*
X94488Y90854D02*
X99384Y95750D01*
X91929Y90854D02*
X94488D01*
X103750Y89000D02*
X104500Y89750D01*
X97634Y89000D02*
X103750D01*
X63500Y92500D02*
X64750Y91250D01*
X65470D01*
X70866Y85854D01*
X63500Y72000D02*
X67012D01*
X70866Y75854D01*
X73425D01*
X63500Y82104D02*
X64750Y80854D01*
D37*
X117000Y74500D02*
X144000D01*
X113500D02*
X117000D01*
X58000Y152553D02*
X121447Y152553D01*
X55000Y149553D02*
X58000Y152553D01*
X121447Y152553D02*
X154500Y119500D01*
X55000Y144257D02*
Y149553D01*
X144000Y94000D02*
X149500Y88500D01*
Y80000D02*
Y88500D01*
Y80000D02*
X154500Y75000D01*
X53243Y142500D02*
X55000Y144257D01*
X44000Y142500D02*
X53243D01*
X38000Y148500D02*
X44000Y142500D01*
X104500Y56500D02*
X114500D01*
X154500Y106500D02*
Y119500D01*
X104500Y98000D02*
Y99000D01*
X104000Y99500D02*
X104500Y99000D01*
X101423Y99500D02*
X104000D01*
X94500Y106423D02*
X101423Y99500D01*
X94500Y106423D02*
Y106500D01*
X113000Y73750D02*
Y74000D01*
X113500Y74500D01*
X144000D02*
X144500Y75000D01*
X105000Y73750D02*
Y82000D01*
X113000Y65000D02*
Y73750D01*
X105000Y65000D02*
Y73750D01*
X112500Y89750D02*
Y98000D01*
X58500Y100959D02*
Y101500D01*
X56000Y98459D02*
X58500Y100959D01*
X56000Y94000D02*
Y98459D01*
X55500Y93500D02*
X56000Y94000D01*
D40*
X48000Y158500D02*
D03*
Y148500D02*
D03*
X38000Y158500D02*
D03*
X93000Y147500D02*
D03*
X83000D02*
D03*
X73000D02*
D03*
X84500Y44000D02*
D03*
X94500D02*
D03*
X104500D02*
D03*
X124000Y84000D02*
D03*
Y94000D02*
D03*
X134000Y84000D02*
D03*
Y94000D02*
D03*
X144000Y84000D02*
D03*
X144500Y106500D02*
D03*
X134500D02*
D03*
X124500D02*
D03*
X114500D02*
D03*
X104500D02*
D03*
X94500D02*
D03*
X84500D02*
D03*
X144500Y56500D02*
D03*
X134500D02*
D03*
X124500D02*
D03*
X114500D02*
D03*
X104500D02*
D03*
X94500D02*
D03*
X84500D02*
D03*
X104500Y120000D02*
D03*
X114500D02*
D03*
X124500D02*
D03*
X51500Y19000D02*
D03*
X61500D02*
D03*
X71500D02*
D03*
X81500D02*
D03*
X91500D02*
D03*
X52000Y32000D02*
D03*
X62000D02*
D03*
X72000D02*
D03*
X82000D02*
D03*
X92000D02*
D03*
X19000Y53500D02*
D03*
Y63500D02*
D03*
Y73500D02*
D03*
Y83500D02*
D03*
Y93500D02*
D03*
Y103500D02*
D03*
Y113500D02*
D03*
D41*
X38000Y148500D02*
D03*
X63000Y147500D02*
D03*
X114500Y44000D02*
D03*
X144000Y94000D02*
D03*
X154500Y106500D02*
D03*
Y56500D02*
D03*
X134500Y120000D02*
D03*
X41500Y19000D02*
D03*
X42000Y32000D02*
D03*
D42*
X19000Y43500D02*
D03*
D43*
X117000Y74500D02*
D03*
X154500Y89000D02*
D03*
X2500Y123000D02*
D03*
X17500Y123500D02*
D03*
X44500Y61500D02*
D03*
Y84500D02*
D03*
X100000Y83500D02*
D03*
X41500Y101500D02*
D03*
X50000Y102000D02*
D03*
X55500Y78000D02*
D03*
X94250Y65668D02*
D03*
X83500Y90000D02*
D03*
X86551Y92551D02*
D03*
X80500Y73000D02*
D03*
X83500D02*
D03*
X86500D02*
D03*
X89500D02*
D03*
X74500Y110000D02*
D03*
X72000Y107500D02*
D03*
X69000Y105500D02*
D03*
X100500Y77000D02*
D03*
X80500Y86000D02*
D03*
D44*
X58500Y101500D02*
D03*
D45*
X143110Y143110D02*
D03*
Y22244D02*
D03*
X22244D02*
D03*
Y143110D02*
D03*
D46*
X73425Y75854D02*
D03*
Y80854D02*
D03*
Y85854D02*
D03*
Y90854D02*
D03*
X91929Y75854D02*
D03*
Y80854D02*
D03*
Y85854D02*
D03*
Y90854D02*
D03*
D47*
X55500Y78000D02*
Y82750D01*
Y93500D01*
D48*
X73425Y90854D02*
X73498Y90927D01*
M02*
