G04*
G04 #@! TF.GenerationSoftware,Altium Limited,Altium Designer,19.1.8 (144)*
G04*
G04 Layer_Color=32896*
%FSLAX25Y25*%
%MOIN*%
G70*
G01*
G75*
%ADD10C,0.00787*%
%ADD11C,0.00984*%
%ADD12C,0.01575*%
%ADD14C,0.00800*%
%ADD15C,0.01200*%
%ADD16C,0.01000*%
D10*
X78740Y73512D02*
X86614D01*
X78740Y93197D02*
X86614D01*
X78740Y73512D02*
Y93197D01*
X86614Y73512D02*
Y93197D01*
D11*
X92421Y94201D02*
X91683Y94627D01*
Y93775D01*
X92421Y94201D01*
D12*
X84252Y90047D02*
X83708Y90796D01*
X82828Y90510D01*
Y89584D01*
X83708Y89298D01*
X84252Y90047D01*
D14*
X115500Y78500D02*
Y85500D01*
X102500D02*
X115500D01*
X102500Y78500D02*
Y85500D01*
Y78500D02*
X115500D01*
X102500Y70250D02*
Y77250D01*
Y70250D02*
X115500D01*
Y77250D01*
X102500D02*
X115500D01*
X135000Y113000D02*
Y126000D01*
X128000Y113000D02*
X135000D01*
X128000D02*
Y126000D01*
X135000D01*
X145000Y113000D02*
Y126000D01*
X138000Y113000D02*
X145000D01*
X138000D02*
Y126000D01*
X145000D01*
X53000Y68500D02*
X66000D01*
X53000D02*
Y75500D01*
X66000D01*
Y68500D02*
Y75500D01*
X53000Y86250D02*
X66000D01*
Y79250D02*
Y86250D01*
X53000Y79250D02*
X66000D01*
X53000D02*
Y86250D01*
Y97000D02*
X66000D01*
Y90000D02*
Y97000D01*
X53000Y90000D02*
X66000D01*
X53000D02*
Y97000D01*
D15*
X108999Y62539D02*
Y67461D01*
X108499Y87290D02*
Y92211D01*
Y95539D02*
Y100461D01*
D16*
X95200Y104198D02*
Y99200D01*
X94200Y98200D01*
X92201D01*
X91201Y99200D01*
Y104198D01*
X89202Y98200D02*
X87203D01*
X88202D01*
Y104198D01*
X89202Y103198D01*
M02*
