M48
;Layer_Color=9474304
;FILE_FORMAT=2:5
INCH,TZ
;TYPE=PLATED
T1F00S00C0.01181
T2F00S00C0.03543
T3F00S00C0.11811
%
T01
X115500Y19000
X118000Y72500
X100500Y77000
Y86375
Y90000
X86000Y94000
X83500Y91500
X80000Y92000
X85500Y85500
X87000Y77000
X86000Y73500
X83500Y71615
X74000Y70000
X68000
Y93500
X62000Y101000
X64500Y107000
X67447Y113947
X75500Y115500
X99500Y115000
X113000Y117500
X106500Y142000
X140500Y128000
X98000Y66500
X100000Y63500
X41000Y64000
X45750Y90500
X36000Y97500
X55500Y98500
X14500Y129500
X3500Y130000
T02
X14000Y43500
Y53500
X43500Y31500
X53500
X63500
X73500
X83500
X93500
Y44000
X83500
X73500
X63500
X106000
X116000
X126000
X136000
X153500Y56000
Y66000
Y76000
Y86000
Y96000
Y106000
X141500Y107000
X131500
X121500
X111500
X101500
X91500
X81500
X71500
X68000Y148500
X78000
X88000
X98000
X108000
X118000
X121500Y93000
X131500
X141500
Y83000
X131500
X121500
Y57000
X131500
X141500
X111500
X101500
X91500
X81500
X71500
X14000Y63500
Y73500
Y83500
Y93500
Y103500
Y113500
X40000Y149000
X50000
Y159000
X40000
T03
X22244Y22244
X143110
Y143110
X22244
M30
