G04*
G04 #@! TF.GenerationSoftware,Altium Limited,Altium Designer,19.1.8 (144)*
G04*
G04 Layer_Color=12632256*
%FSLAX25Y25*%
%MOIN*%
G70*
G01*
G75*
%ADD41R,0.05906X0.05906*%
%ADD42C,0.05906*%
%ADD43R,0.05906X0.05906*%
D41*
X68000Y148500D02*
D03*
X40000Y149000D02*
D03*
X93500Y44000D02*
D03*
X121500Y83000D02*
D03*
X141500Y57000D02*
D03*
Y107000D02*
D03*
X136000Y44000D02*
D03*
X43500Y31500D02*
D03*
D42*
X78000Y148500D02*
D03*
X88000D02*
D03*
X98000D02*
D03*
X108000D02*
D03*
X118000D02*
D03*
X50000Y159000D02*
D03*
Y149000D02*
D03*
X40000Y159000D02*
D03*
X63500Y44000D02*
D03*
X73500D02*
D03*
X83500D02*
D03*
X141500Y93000D02*
D03*
Y83000D02*
D03*
X131500Y93000D02*
D03*
Y83000D02*
D03*
X121500Y93000D02*
D03*
X131500Y57000D02*
D03*
X121500D02*
D03*
X111500D02*
D03*
X101500D02*
D03*
X91500D02*
D03*
X81500D02*
D03*
X71500D02*
D03*
X131500Y107000D02*
D03*
X121500D02*
D03*
X111500D02*
D03*
X101500D02*
D03*
X91500D02*
D03*
X81500D02*
D03*
X71500D02*
D03*
X106000Y44000D02*
D03*
X116000D02*
D03*
X126000D02*
D03*
X53500Y31500D02*
D03*
X63500D02*
D03*
X73500D02*
D03*
X83500D02*
D03*
X93500D02*
D03*
X153500Y96000D02*
D03*
Y86000D02*
D03*
Y76000D02*
D03*
Y66000D02*
D03*
Y56000D02*
D03*
X14000Y53500D02*
D03*
Y63500D02*
D03*
Y73500D02*
D03*
Y83500D02*
D03*
Y93500D02*
D03*
Y103500D02*
D03*
Y113500D02*
D03*
D43*
X153500Y106000D02*
D03*
X14000Y43500D02*
D03*
M02*
