G04*
G04 #@! TF.GenerationSoftware,Altium Limited,Altium Designer,19.1.8 (144)*
G04*
G04 Layer_Physical_Order=1*
G04 Layer_Color=128*
%FSLAX25Y25*%
%MOIN*%
G70*
G01*
G75*
%ADD14C,0.00800*%
%ADD15C,0.01000*%
%ADD16R,0.04000X0.06000*%
%ADD17R,0.09449X0.07874*%
%ADD18R,0.08268X0.03937*%
%ADD19R,0.23032X0.19291*%
%ADD20R,0.05906X0.02362*%
%ADD21R,0.02362X0.05906*%
%ADD22R,0.06000X0.04000*%
%ADD36C,0.01500*%
%ADD37C,0.03000*%
%ADD38C,0.02500*%
%ADD39C,0.05000*%
%ADD40C,0.05906*%
%ADD41R,0.05906X0.05906*%
%ADD42R,0.05906X0.05906*%
%ADD43C,0.01968*%
%ADD44C,0.05000*%
%ADD45C,0.11811*%
G36*
X80204Y151025D02*
X80395Y150901D01*
X80615Y150792D01*
X80863Y150698D01*
X81142Y150619D01*
X81449Y150556D01*
X81786Y150507D01*
X82546Y150456D01*
X82970Y150453D01*
X80047Y147529D01*
X80044Y147954D01*
X79993Y148714D01*
X79944Y149051D01*
X79880Y149358D01*
X79802Y149636D01*
X79708Y149885D01*
X79599Y150105D01*
X79475Y150296D01*
X79336Y150457D01*
X80043Y151164D01*
X80204Y151025D01*
D02*
G37*
G36*
X70204D02*
X70395Y150901D01*
X70614Y150792D01*
X70863Y150698D01*
X71142Y150619D01*
X71449Y150556D01*
X71785Y150507D01*
X72546Y150456D01*
X72970Y150453D01*
X70047Y147529D01*
X70044Y147954D01*
X69993Y148714D01*
X69944Y149051D01*
X69880Y149358D01*
X69802Y149636D01*
X69708Y149885D01*
X69599Y150105D01*
X69475Y150296D01*
X69336Y150457D01*
X70043Y151164D01*
X70204Y151025D01*
D02*
G37*
G36*
X39178Y145559D02*
X39028Y145599D01*
X38842Y145583D01*
X38620Y145511D01*
X38363Y145382D01*
X38069Y145198D01*
X37739Y144958D01*
X36971Y144310D01*
X36059Y143438D01*
X33439Y145061D01*
X33866Y145497D01*
X34792Y146573D01*
X34984Y146854D01*
X35116Y147096D01*
X35190Y147300D01*
X35205Y147465D01*
X35162Y147591D01*
X35059Y147678D01*
X39178Y145559D01*
D02*
G37*
G36*
X50357Y146700D02*
X50293Y146558D01*
X50238Y146395D01*
X50190Y146208D01*
X50149Y145998D01*
X50089Y145511D01*
X50071Y145233D01*
X50056Y144609D01*
X47056Y143931D01*
X47049Y144249D01*
X46994Y144814D01*
X46946Y145061D01*
X46884Y145284D01*
X46808Y145483D01*
X46718Y145658D01*
X46615Y145809D01*
X46498Y145937D01*
X46367Y146040D01*
X50427Y146818D01*
X50357Y146700D01*
D02*
G37*
G36*
X50067Y140010D02*
X50152Y139185D01*
X50227Y138849D01*
X50323Y138566D01*
X50440Y138333D01*
X50579Y138153D01*
X50739Y138024D01*
X50920Y137947D01*
X51123Y137921D01*
X45989D01*
X46192Y137947D01*
X46373Y138024D01*
X46533Y138153D01*
X46672Y138333D01*
X46789Y138566D01*
X46885Y138849D01*
X46960Y139185D01*
X47013Y139571D01*
X47045Y140010D01*
X47056Y140500D01*
X50056D01*
X50067Y140010D01*
D02*
G37*
G36*
X45109Y133488D02*
X44706Y133066D01*
X44027Y132239D01*
X43752Y131834D01*
X43518Y131433D01*
X43327Y131038D01*
X43179Y130649D01*
X43073Y130264D01*
X43009Y129886D01*
X42988Y129512D01*
X38948Y133488D01*
X39163Y133338D01*
X39419Y133268D01*
X39718Y133279D01*
X40059Y133371D01*
X40442Y133543D01*
X40867Y133795D01*
X41334Y134128D01*
X41843Y134541D01*
X42988Y135609D01*
X45109Y133488D01*
D02*
G37*
G36*
X15991Y124857D02*
X16037Y124730D01*
X16112Y124618D01*
X16218Y124520D01*
X16354Y124437D01*
X16520Y124370D01*
X16717Y124318D01*
X16944Y124280D01*
X17201Y124258D01*
X17488Y124250D01*
Y122750D01*
X17201Y122742D01*
X16944Y122720D01*
X16717Y122682D01*
X16520Y122630D01*
X16354Y122563D01*
X16218Y122480D01*
X16112Y122382D01*
X16037Y122270D01*
X15991Y122143D01*
X15976Y122000D01*
Y125000D01*
X15991Y124857D01*
D02*
G37*
G36*
X4024Y121500D02*
X4009Y121642D01*
X3963Y121770D01*
X3888Y121882D01*
X3782Y121980D01*
X3646Y122063D01*
X3480Y122130D01*
X3283Y122183D01*
X3056Y122220D01*
X2799Y122242D01*
X2512Y122250D01*
Y123750D01*
X2799Y123758D01*
X3056Y123780D01*
X3283Y123818D01*
X3480Y123870D01*
X3646Y123937D01*
X3782Y124020D01*
X3888Y124118D01*
X3963Y124230D01*
X4009Y124357D01*
X4024Y124500D01*
Y121500D01*
D02*
G37*
G36*
X43020Y125338D02*
X43115Y125137D01*
X43274Y124884D01*
X43497Y124581D01*
X44133Y123820D01*
X45565Y122294D01*
X45848Y122009D01*
X46360Y121514D01*
X47454Y120589D01*
X47940Y120251D01*
X48385Y119996D01*
X48788Y119825D01*
X49151Y119736D01*
X49474Y119730D01*
X49755Y119808D01*
X49995Y119968D01*
X45752Y116067D01*
X45731Y116429D01*
X45667Y116797D01*
X45561Y117172D01*
X45413Y117553D01*
X45222Y117941D01*
X44989Y118336D01*
X44713Y118737D01*
X44394Y119145D01*
X44034Y119559D01*
X43882Y119718D01*
X43579Y120011D01*
X42440Y120980D01*
X41944Y121328D01*
X41495Y121585D01*
X41095Y121752D01*
X40743Y121828D01*
X40440Y121813D01*
X40185Y121708D01*
X39978Y121512D01*
X42988Y125488D01*
X43020Y125338D01*
D02*
G37*
G36*
X87980Y121376D02*
X87895Y121100D01*
Y120782D01*
X87980Y120421D01*
X88149Y120018D01*
X88404Y119572D01*
X88743Y119085D01*
X89168Y118554D01*
X90271Y117366D01*
X88149Y115245D01*
X87534Y115839D01*
X86431Y116772D01*
X85943Y117112D01*
X85498Y117366D01*
X85095Y117536D01*
X84734Y117621D01*
X84416D01*
X84140Y117536D01*
X83907Y117366D01*
X88149Y121609D01*
X87980Y121376D01*
D02*
G37*
G36*
X137357Y117009D02*
X137282Y116859D01*
X137216Y116609D01*
X137159Y116259D01*
X137110Y115809D01*
X137018Y113859D01*
X137000Y112059D01*
X132000D01*
X131996Y113009D01*
X131784Y116609D01*
X131718Y116859D01*
X131643Y117009D01*
X131559Y117059D01*
X137441D01*
X137357Y117009D01*
D02*
G37*
G36*
X66649Y113418D02*
X66769Y111468D01*
X66813Y111258D01*
X66865Y111108D01*
X66923Y111018D01*
X66988Y110988D01*
X63012D01*
X63132Y111018D01*
X63240Y111108D01*
X63335Y111258D01*
X63418Y111468D01*
X63487Y111738D01*
X63544Y112068D01*
X63589Y112458D01*
X63639Y113418D01*
X63646Y113988D01*
X66646D01*
X66649Y113418D01*
D02*
G37*
G36*
X58505D02*
X58622Y111738D01*
X58676Y111468D01*
X58739Y111258D01*
X58812Y111108D01*
X58895Y111018D01*
X58988Y110988D01*
X55012D01*
X55105Y111018D01*
X55188Y111108D01*
X55261Y111258D01*
X55324Y111468D01*
X55378Y111738D01*
X55422Y112068D01*
X55480Y112908D01*
X55500Y113988D01*
X58500D01*
X58505Y113418D01*
D02*
G37*
G36*
X146006Y110496D02*
X146051Y109923D01*
X146091Y109670D01*
X146142Y109438D01*
X146204Y109228D01*
X146278Y109041D01*
X146363Y108875D01*
X146459Y108731D01*
X146567Y108609D01*
X142433D01*
X142541Y108731D01*
X142637Y108875D01*
X142722Y109041D01*
X142796Y109228D01*
X142858Y109438D01*
X142909Y109670D01*
X142949Y109923D01*
X142977Y110199D01*
X143000Y110815D01*
X146000D01*
X146006Y110496D01*
D02*
G37*
G36*
X75044Y109180D02*
X75001Y109145D01*
X74962Y109103D01*
X74927Y109053D01*
X74897Y108994D01*
X74872Y108928D01*
X74851Y108854D01*
X74835Y108771D01*
X74824Y108681D01*
X74817Y108583D01*
X74815Y108477D01*
X73815Y108703D01*
X73813Y108811D01*
X73795Y109089D01*
X73784Y109166D01*
X73754Y109298D01*
X73735Y109353D01*
X73715Y109400D01*
X73691Y109439D01*
X75044Y109180D01*
D02*
G37*
G36*
X95451Y110751D02*
X95506Y110186D01*
X95554Y109939D01*
X95616Y109716D01*
X95692Y109517D01*
X95782Y109342D01*
X95885Y109191D01*
X96002Y109063D01*
X96133Y108960D01*
X92073Y108182D01*
X92143Y108300D01*
X92207Y108441D01*
X92262Y108606D01*
X92311Y108792D01*
X92351Y109002D01*
X92411Y109489D01*
X92429Y109767D01*
X92444Y110391D01*
X95444Y111069D01*
X95451Y110751D01*
D02*
G37*
G36*
X72058Y106518D02*
X72039Y106512D01*
X72014Y106499D01*
X71982Y106478D01*
X71943Y106448D01*
X71845Y106364D01*
X71567Y106098D01*
X70731Y106676D01*
X70802Y106749D01*
X70967Y106940D01*
X71004Y106994D01*
X71034Y107043D01*
X71054Y107087D01*
X71067Y107127D01*
X71070Y107161D01*
X71066Y107190D01*
X72058Y106518D01*
D02*
G37*
G36*
X57133Y105024D02*
X57018Y105108D01*
X56881Y105149D01*
X56722Y105148D01*
X56542Y105104D01*
X56341Y105018D01*
X56118Y104890D01*
X55874Y104719D01*
X55608Y104505D01*
X55012Y103951D01*
X53951Y105012D01*
X54250Y105321D01*
X54719Y105874D01*
X54890Y106118D01*
X55018Y106341D01*
X55104Y106542D01*
X55148Y106722D01*
X55149Y106881D01*
X55108Y107018D01*
X55024Y107133D01*
X57133Y105024D01*
D02*
G37*
G36*
X69176Y104532D02*
X69131Y104520D01*
X69083Y104502D01*
X69031Y104476D01*
X68976Y104444D01*
X68917Y104404D01*
X68788Y104303D01*
X68718Y104242D01*
X68568Y104098D01*
X67700Y104646D01*
X67774Y104722D01*
X67894Y104868D01*
X67941Y104938D01*
X67979Y105005D01*
X68008Y105070D01*
X68028Y105132D01*
X68039Y105192D01*
X68042Y105250D01*
X68035Y105305D01*
X69176Y104532D01*
D02*
G37*
G36*
X62817Y102696D02*
X60905Y100817D01*
X59231Y103891D01*
X59320Y103877D01*
X59421Y103887D01*
X59534Y103919D01*
X59660Y103975D01*
X59799Y104054D01*
X59949Y104157D01*
X60113Y104282D01*
X60476Y104603D01*
X60676Y104798D01*
X62817Y102696D01*
D02*
G37*
G36*
X66988Y105012D02*
X66614Y104991D01*
X66236Y104927D01*
X65851Y104821D01*
X65462Y104673D01*
X65067Y104482D01*
X64666Y104248D01*
X64261Y103973D01*
X63850Y103654D01*
X63434Y103294D01*
X63012Y102891D01*
X60891Y105012D01*
X61479Y105622D01*
X62407Y106718D01*
X62745Y107204D01*
X63000Y107649D01*
X63172Y108052D01*
X63260Y108415D01*
X63265Y108736D01*
X63186Y109016D01*
X63024Y109255D01*
X66988Y105012D01*
D02*
G37*
G36*
X97461Y106242D02*
X97492Y106015D01*
X97545Y105789D01*
X97619Y105564D01*
X97716Y105341D01*
X97834Y105118D01*
X97975Y104897D01*
X98137Y104677D01*
X98322Y104457D01*
X98528Y104239D01*
X96760Y102472D01*
X96543Y102678D01*
X96323Y102863D01*
X96103Y103025D01*
X95882Y103166D01*
X95659Y103284D01*
X95436Y103381D01*
X95211Y103455D01*
X94985Y103508D01*
X94758Y103539D01*
X94529Y103547D01*
X97453Y106471D01*
X97461Y106242D01*
D02*
G37*
G36*
X77506Y101996D02*
X77518Y101858D01*
X77538Y101736D01*
X77566Y101630D01*
X77602Y101541D01*
X77646Y101468D01*
X77698Y101411D01*
X77758Y101371D01*
X77826Y101346D01*
X77902Y101338D01*
X76302D01*
X76378Y101346D01*
X76446Y101371D01*
X76506Y101411D01*
X76558Y101468D01*
X76602Y101541D01*
X76638Y101630D01*
X76666Y101736D01*
X76686Y101858D01*
X76698Y101996D01*
X76702Y102150D01*
X77502D01*
X77506Y101996D01*
D02*
G37*
G36*
X74818Y102160D02*
X74842Y101840D01*
X74864Y101710D01*
X74892Y101600D01*
X74925Y101510D01*
X74965Y101440D01*
X75011Y101390D01*
X75064Y101360D01*
X75122Y101350D01*
X73315Y101338D01*
X73410Y101349D01*
X73495Y101380D01*
X73570Y101431D01*
X73635Y101502D01*
X73690Y101593D01*
X73735Y101704D01*
X73770Y101836D01*
X73795Y101987D01*
X73810Y102158D01*
X73815Y102350D01*
X74815D01*
X74818Y102160D01*
D02*
G37*
G36*
X71588D02*
X71619Y101840D01*
X71646Y101710D01*
X71681Y101600D01*
X71724Y101510D01*
X71774Y101440D01*
X71833Y101390D01*
X71899Y101360D01*
X71972Y101350D01*
X70084Y101338D01*
X70179Y101349D01*
X70264Y101380D01*
X70339Y101431D01*
X70404Y101502D01*
X70459Y101593D01*
X70504Y101704D01*
X70539Y101835D01*
X70564Y101987D01*
X70579Y102158D01*
X70584Y102350D01*
X71584D01*
X71588Y102160D01*
D02*
G37*
G36*
X68159Y102158D02*
X68174Y101986D01*
X68199Y101834D01*
X68234Y101702D01*
X68278Y101591D01*
X68334Y101500D01*
X68399Y101429D01*
X68474Y101379D01*
X68559Y101348D01*
X68654Y101338D01*
X66654D01*
X66749Y101348D01*
X66834Y101379D01*
X66909Y101429D01*
X66974Y101500D01*
X67028Y101591D01*
X67074Y101702D01*
X67109Y101834D01*
X67134Y101986D01*
X67149Y102158D01*
X67154Y102350D01*
X68154D01*
X68159Y102158D01*
D02*
G37*
G36*
X52988Y100488D02*
X51464Y100480D01*
X51500Y100476D01*
X48500D01*
X48643Y100491D01*
X48770Y100537D01*
X48882Y100612D01*
X48980Y100718D01*
X49062Y100854D01*
X49130Y101020D01*
X49183Y101217D01*
X49220Y101444D01*
X49242Y101701D01*
X49250Y101988D01*
X50750D01*
X50757Y101701D01*
X50780Y101444D01*
X50818Y101217D01*
X50870Y101020D01*
X50937Y100854D01*
X51020Y100718D01*
X51117Y100612D01*
X51124Y100608D01*
X51133Y100614D01*
X51230Y100720D01*
X51313Y100856D01*
X51380Y101022D01*
X51433Y101219D01*
X51470Y101445D01*
X51493Y101701D01*
X51500Y101988D01*
X53000D01*
X52988Y100488D01*
D02*
G37*
G36*
X42253Y101305D02*
X42292Y100845D01*
X42316Y100732D01*
X42344Y100640D01*
X42378Y100568D01*
X42418Y100517D01*
X42462Y100486D01*
X42512Y100476D01*
X40488D01*
X40538Y100486D01*
X40582Y100517D01*
X40622Y100568D01*
X40656Y100640D01*
X40685Y100732D01*
X40708Y100845D01*
X40726Y100978D01*
X40747Y101305D01*
X40750Y101500D01*
X42250D01*
X42253Y101305D01*
D02*
G37*
G36*
X47024Y97000D02*
X47009Y97142D01*
X46964Y97270D01*
X46888Y97382D01*
X46782Y97480D01*
X46646Y97562D01*
X46480Y97630D01*
X46283Y97682D01*
X46056Y97720D01*
X45799Y97742D01*
X45751Y97744D01*
X45703Y97742D01*
X45448Y97720D01*
X45223Y97682D01*
X45028Y97630D01*
X44863Y97562D01*
X44728Y97480D01*
X44623Y97382D01*
X44548Y97270D01*
X44503Y97142D01*
X44488Y97000D01*
Y100000D01*
X44503Y99857D01*
X44548Y99730D01*
X44623Y99617D01*
X44728Y99520D01*
X44863Y99437D01*
X45028Y99370D01*
X45223Y99318D01*
X45448Y99280D01*
X45703Y99257D01*
X45751Y99256D01*
X45799Y99257D01*
X46056Y99280D01*
X46283Y99318D01*
X46480Y99370D01*
X46646Y99437D01*
X46782Y99520D01*
X46888Y99617D01*
X46964Y99730D01*
X47009Y99857D01*
X47024Y100000D01*
Y97000D01*
D02*
G37*
G36*
X102524Y96901D02*
X102647Y96901D01*
X103864Y96984D01*
X103930Y97006D01*
X103970Y97031D01*
Y95969D01*
X103930Y95994D01*
X103864Y96016D01*
X103771Y96036D01*
X103650Y96053D01*
X103330Y96079D01*
X102647Y96099D01*
X102524Y96099D01*
Y95700D01*
X102516Y95776D01*
X102491Y95844D01*
X102451Y95904D01*
X102394Y95956D01*
X102321Y96000D01*
X102232Y96036D01*
X102126Y96064D01*
X102004Y96084D01*
X101866Y96096D01*
X101712Y96100D01*
Y96900D01*
X101866Y96904D01*
X102004Y96916D01*
X102126Y96936D01*
X102232Y96964D01*
X102321Y97000D01*
X102394Y97044D01*
X102451Y97096D01*
X102491Y97156D01*
X102516Y97224D01*
X102524Y97300D01*
Y96901D01*
D02*
G37*
G36*
X111026Y100760D02*
X111946Y99979D01*
X112353Y99695D01*
X112725Y99482D01*
X113060Y99339D01*
X113361Y99268D01*
X113625Y99266D01*
X113854Y99336D01*
X114048Y99476D01*
X110524Y95952D01*
X110664Y96146D01*
X110734Y96375D01*
X110732Y96639D01*
X110661Y96939D01*
X110518Y97275D01*
X110305Y97647D01*
X110021Y98054D01*
X109666Y98496D01*
X108744Y99488D01*
X110512Y101256D01*
X111026Y100760D01*
D02*
G37*
G36*
X141059Y91059D02*
X141029Y91333D01*
X140939Y91578D01*
X140789Y91794D01*
X140579Y91981D01*
X140309Y92140D01*
X139979Y92269D01*
X139589Y92370D01*
X139139Y92442D01*
X138629Y92486D01*
X138165Y92497D01*
X137996Y92494D01*
X137423Y92449D01*
X137170Y92409D01*
X136938Y92358D01*
X136728Y92296D01*
X136541Y92222D01*
X136375Y92137D01*
X136231Y92041D01*
X136109Y91933D01*
Y96067D01*
X136231Y95959D01*
X136375Y95863D01*
X136541Y95778D01*
X136728Y95704D01*
X136938Y95642D01*
X137170Y95591D01*
X137423Y95551D01*
X137699Y95523D01*
X138211Y95504D01*
X138629Y95514D01*
X139139Y95558D01*
X139589Y95630D01*
X139979Y95731D01*
X140309Y95860D01*
X140579Y96019D01*
X140789Y96206D01*
X140939Y96422D01*
X141029Y96667D01*
X141059Y96941D01*
Y91059D01*
D02*
G37*
G36*
X90606Y95471D02*
X90521Y95440D01*
X90446Y95390D01*
X90381Y95319D01*
X90326Y95228D01*
X90281Y95116D01*
X90246Y94985D01*
X90221Y94833D01*
X90206Y94661D01*
X90201Y94469D01*
X89201D01*
X89196Y94661D01*
X89181Y94833D01*
X89156Y94985D01*
X89121Y95116D01*
X89076Y95228D01*
X89021Y95319D01*
X88956Y95390D01*
X88881Y95440D01*
X88796Y95471D01*
X88701Y95481D01*
X90701D01*
X90606Y95471D01*
D02*
G37*
G36*
X87641Y95454D02*
X87569Y95409D01*
X87507Y95334D01*
X87452Y95229D01*
X87406Y95094D01*
X87368Y94929D01*
X87339Y94734D01*
X87318Y94509D01*
X87301Y93969D01*
X85801D01*
X85797Y94254D01*
X85764Y94734D01*
X85734Y94929D01*
X85696Y95094D01*
X85650Y95229D01*
X85596Y95334D01*
X85533Y95409D01*
X85462Y95454D01*
X85382Y95469D01*
X87720D01*
X87641Y95454D01*
D02*
G37*
G36*
X84510D02*
X84455Y95409D01*
X84407Y95334D01*
X84365Y95229D01*
X84330Y95094D01*
X84301Y94929D01*
X84279Y94734D01*
X84253Y94254D01*
X84250Y93969D01*
X82750D01*
X82745Y94254D01*
X82703Y94734D01*
X82667Y94929D01*
X82621Y95094D01*
X82564Y95229D01*
X82496Y95334D01*
X82419Y95409D01*
X82331Y95454D01*
X82232Y95469D01*
X84571D01*
X84510Y95454D01*
D02*
G37*
G36*
X81389D02*
X81359Y95409D01*
X81334Y95334D01*
X81312Y95229D01*
X81293Y95094D01*
X81265Y94734D01*
X81250Y93969D01*
X79750D01*
X79743Y94254D01*
X79723Y94509D01*
X79690Y94734D01*
X79643Y94929D01*
X79583Y95094D01*
X79510Y95229D01*
X79423Y95334D01*
X79323Y95409D01*
X79210Y95454D01*
X79083Y95469D01*
X81421D01*
X81389Y95454D01*
D02*
G37*
G36*
X114518Y99205D02*
X114608Y98952D01*
X114758Y98729D01*
X114968Y98536D01*
X115238Y98372D01*
X115568Y98238D01*
X115958Y98134D01*
X116408Y98059D01*
X116918Y98015D01*
X117488Y98000D01*
Y95000D01*
X116918Y94985D01*
X116408Y94941D01*
X115958Y94866D01*
X115568Y94762D01*
X115238Y94628D01*
X114968Y94464D01*
X114758Y94271D01*
X114608Y94048D01*
X114518Y93795D01*
X114488Y93512D01*
Y99488D01*
X114518Y99205D01*
D02*
G37*
G36*
X131891Y91933D02*
X131769Y92041D01*
X131625Y92137D01*
X131459Y92222D01*
X131272Y92296D01*
X131062Y92358D01*
X130830Y92409D01*
X130577Y92449D01*
X130301Y92477D01*
X129685Y92500D01*
Y95500D01*
X130004Y95506D01*
X130577Y95551D01*
X130830Y95591D01*
X131062Y95642D01*
X131272Y95704D01*
X131459Y95778D01*
X131625Y95863D01*
X131769Y95959D01*
X131891Y96067D01*
Y91933D01*
D02*
G37*
G36*
X126231Y95959D02*
X126375Y95863D01*
X126541Y95778D01*
X126728Y95704D01*
X126938Y95642D01*
X127170Y95591D01*
X127423Y95551D01*
X127699Y95523D01*
X128315Y95500D01*
Y92500D01*
X127996Y92494D01*
X127423Y92449D01*
X127170Y92409D01*
X126938Y92358D01*
X126728Y92296D01*
X126541Y92222D01*
X126375Y92137D01*
X126231Y92041D01*
X126109Y91933D01*
Y96067D01*
X126231Y95959D01*
D02*
G37*
G36*
X64884Y93606D02*
X64914Y93521D01*
X64965Y93446D01*
X65036Y93381D01*
X65127Y93326D01*
X65238Y93281D01*
X65369Y93246D01*
X65521Y93221D01*
X65693Y93206D01*
X65886Y93201D01*
Y92201D01*
X65693Y92196D01*
X65521Y92181D01*
X65369Y92156D01*
X65238Y92121D01*
X65127Y92076D01*
X65036Y92021D01*
X64965Y91956D01*
X64914Y91881D01*
X64884Y91796D01*
X64874Y91701D01*
Y93701D01*
X64884Y93606D01*
D02*
G37*
G36*
X59016Y91701D02*
X59006Y91796D01*
X58976Y91881D01*
X58925Y91956D01*
X58854Y92021D01*
X58763Y92076D01*
X58652Y92121D01*
X58520Y92156D01*
X58368Y92181D01*
X58196Y92196D01*
X58004Y92201D01*
Y93201D01*
X58196Y93206D01*
X58368Y93221D01*
X58520Y93246D01*
X58652Y93281D01*
X58763Y93326D01*
X58854Y93381D01*
X58925Y93446D01*
X58976Y93521D01*
X59006Y93606D01*
X59016Y93701D01*
Y91701D01*
D02*
G37*
G36*
X105858Y93497D02*
X105730Y93452D01*
X105617Y93377D01*
X105520Y93272D01*
X105438Y93137D01*
X105370Y92972D01*
X105317Y92777D01*
X105280Y92552D01*
X105275Y92500D01*
X105280Y92448D01*
X105317Y92223D01*
X105370Y92028D01*
X105438Y91863D01*
X105520Y91728D01*
X105617Y91623D01*
X105730Y91548D01*
X105858Y91503D01*
X106000Y91488D01*
X103000D01*
X103142Y91503D01*
X103270Y91548D01*
X103383Y91623D01*
X103480Y91728D01*
X103562Y91863D01*
X103630Y92028D01*
X103682Y92223D01*
X103720Y92448D01*
X103725Y92500D01*
X103720Y92552D01*
X103682Y92777D01*
X103630Y92972D01*
X103562Y93137D01*
X103480Y93272D01*
X103383Y93377D01*
X103270Y93452D01*
X103142Y93497D01*
X103000Y93512D01*
X106000D01*
X105858Y93497D01*
D02*
G37*
G36*
X47024Y89000D02*
X47009Y89143D01*
X46964Y89270D01*
X46888Y89382D01*
X46782Y89480D01*
X46646Y89562D01*
X46480Y89630D01*
X46283Y89683D01*
X46056Y89720D01*
X45799Y89742D01*
X45751Y89744D01*
X45703Y89742D01*
X45448Y89720D01*
X45223Y89683D01*
X45028Y89630D01*
X44863Y89562D01*
X44728Y89480D01*
X44623Y89382D01*
X44548Y89270D01*
X44503Y89143D01*
X44488Y89000D01*
Y92000D01*
X44503Y91857D01*
X44548Y91730D01*
X44623Y91618D01*
X44728Y91520D01*
X44863Y91438D01*
X45028Y91370D01*
X45223Y91317D01*
X45448Y91280D01*
X45703Y91258D01*
X45751Y91256D01*
X45799Y91258D01*
X46056Y91280D01*
X46283Y91317D01*
X46480Y91370D01*
X46646Y91438D01*
X46782Y91520D01*
X46888Y91618D01*
X46964Y91730D01*
X47009Y91857D01*
X47024Y92000D01*
Y89000D01*
D02*
G37*
G36*
X123970Y91047D02*
X123611Y91042D01*
X123272Y91019D01*
X122952Y90979D01*
X122651Y90920D01*
X122370Y90844D01*
X122109Y90750D01*
X121867Y90639D01*
X121644Y90509D01*
X121442Y90362D01*
X121258Y90197D01*
X120197Y91258D01*
X120362Y91442D01*
X120509Y91645D01*
X120639Y91867D01*
X120750Y92109D01*
X120844Y92370D01*
X120920Y92651D01*
X120979Y92952D01*
X121019Y93272D01*
X121042Y93611D01*
X121047Y93971D01*
X123970Y91047D01*
D02*
G37*
G36*
X59016Y88564D02*
X59006Y88658D01*
X58976Y88744D01*
X58925Y88819D01*
X58854Y88884D01*
X58763Y88938D01*
X58652Y88984D01*
X58520Y89018D01*
X58368Y89043D01*
X58196Y89059D01*
X58004Y89064D01*
Y90064D01*
X58196Y90069D01*
X58368Y90083D01*
X58520Y90109D01*
X58652Y90144D01*
X58763Y90188D01*
X58854Y90244D01*
X58925Y90308D01*
X58976Y90383D01*
X59006Y90469D01*
X59016Y90563D01*
Y88564D01*
D02*
G37*
G36*
X52903Y90517D02*
X52861Y90379D01*
Y90220D01*
X52903Y90039D01*
X52988Y89838D01*
X53115Y89615D01*
X53285Y89371D01*
X53497Y89106D01*
X54049Y88512D01*
X52988Y87451D01*
X52680Y87748D01*
X52129Y88215D01*
X51885Y88385D01*
X51662Y88512D01*
X51461Y88597D01*
X51280Y88639D01*
X51121D01*
X50983Y88597D01*
X50867Y88512D01*
X52988Y90633D01*
X52903Y90517D01*
D02*
G37*
G36*
X113254Y88373D02*
X113268Y88247D01*
X113290Y88122D01*
X113321Y87999D01*
X113360Y87877D01*
X113409Y87756D01*
X113466Y87636D01*
X113532Y87518D01*
X113607Y87401D01*
X113691Y87285D01*
X111309D01*
X111393Y87401D01*
X111468Y87518D01*
X111534Y87636D01*
X111591Y87756D01*
X111640Y87877D01*
X111679Y87999D01*
X111710Y88122D01*
X111732Y88247D01*
X111746Y88373D01*
X111750Y88500D01*
X113250D01*
X113254Y88373D01*
D02*
G37*
G36*
X43331Y88509D02*
X43203Y88463D01*
X43091Y88388D01*
X42993Y88282D01*
X42911Y88146D01*
X42843Y87980D01*
X42791Y87783D01*
X42753Y87556D01*
X42731Y87299D01*
X42723Y87012D01*
X41223D01*
X41216Y87299D01*
X41193Y87556D01*
X41156Y87783D01*
X41103Y87980D01*
X41036Y88146D01*
X40953Y88282D01*
X40856Y88388D01*
X40743Y88463D01*
X40616Y88509D01*
X40473Y88524D01*
X43473D01*
X43331Y88509D01*
D02*
G37*
G36*
X64890Y87328D02*
X64935Y87200D01*
X65011Y87088D01*
X65118Y86990D01*
X65254Y86908D01*
X65420Y86840D01*
X65616Y86788D01*
X65843Y86751D01*
X66099Y86728D01*
X66386Y86721D01*
Y85220D01*
X64886Y85233D01*
X64874Y87471D01*
X64890Y87328D01*
D02*
G37*
G36*
X47024Y83000D02*
X47009Y83143D01*
X46964Y83270D01*
X46888Y83382D01*
X46782Y83480D01*
X46646Y83562D01*
X46480Y83630D01*
X46283Y83683D01*
X46056Y83720D01*
X45799Y83742D01*
X45512Y83750D01*
Y85250D01*
X45799Y85258D01*
X46056Y85280D01*
X46283Y85317D01*
X46480Y85370D01*
X46646Y85438D01*
X46782Y85520D01*
X46888Y85618D01*
X46964Y85730D01*
X47009Y85857D01*
X47024Y86000D01*
Y83000D01*
D02*
G37*
G36*
X114005Y85825D02*
X114028Y85512D01*
X114488D01*
X114395Y85482D01*
X114312Y85392D01*
X114239Y85242D01*
X114176Y85032D01*
X114122Y84762D01*
X114096Y84567D01*
X114122Y84209D01*
X114176Y83950D01*
X114239Y83748D01*
X114312Y83603D01*
X114395Y83517D01*
X114488Y83488D01*
X114018D01*
X114000Y82512D01*
X111000D01*
X110995Y83082D01*
X110967Y83488D01*
X110512D01*
X110605Y83517D01*
X110688Y83603D01*
X110761Y83748D01*
X110824Y83950D01*
X110878Y84209D01*
X110904Y84395D01*
X110878Y84762D01*
X110824Y85032D01*
X110761Y85242D01*
X110688Y85392D01*
X110605Y85482D01*
X110512Y85512D01*
X110984D01*
X111000Y86373D01*
X114000D01*
X114005Y85825D01*
D02*
G37*
G36*
X59016Y82496D02*
X59009Y82497D01*
X58985Y82498D01*
X58248Y82502D01*
Y84002D01*
X59016Y84008D01*
Y82496D01*
D02*
G37*
G36*
X98365Y84389D02*
X98410Y84360D01*
X98485Y84334D01*
X98590Y84312D01*
X98725Y84293D01*
X99085Y84265D01*
X99850Y84250D01*
Y82750D01*
X99565Y82743D01*
X99310Y82723D01*
X99085Y82690D01*
X98890Y82643D01*
X98725Y82583D01*
X98590Y82510D01*
X98485Y82423D01*
X98410Y82323D01*
X98365Y82210D01*
X98350Y82083D01*
Y84421D01*
X98365Y84389D01*
D02*
G37*
G36*
X21411Y85269D02*
X21985Y84768D01*
X22258Y84564D01*
X22520Y84392D01*
X22772Y84251D01*
X23015Y84141D01*
X23247Y84063D01*
X23469Y84016D01*
X23682Y84000D01*
Y83000D01*
X23469Y82984D01*
X23247Y82937D01*
X23015Y82859D01*
X22772Y82749D01*
X22520Y82608D01*
X22258Y82436D01*
X21985Y82232D01*
X21411Y81731D01*
X21109Y81433D01*
Y85567D01*
X21411Y85269D01*
D02*
G37*
G36*
X146145Y81950D02*
X146062Y81804D01*
X145989Y81636D01*
X145926Y81446D01*
X145872Y81234D01*
X145828Y81001D01*
X145794Y80746D01*
X145755Y80171D01*
X145750Y79850D01*
X142750Y79553D01*
X142744Y79872D01*
X142693Y80441D01*
X142649Y80692D01*
X142592Y80920D01*
X142523Y81126D01*
X142441Y81309D01*
X142346Y81470D01*
X142239Y81608D01*
X142119Y81724D01*
X146238Y82074D01*
X146145Y81950D01*
D02*
G37*
G36*
X136145D02*
X136062Y81804D01*
X135989Y81636D01*
X135926Y81446D01*
X135872Y81234D01*
X135828Y81001D01*
X135794Y80746D01*
X135755Y80171D01*
X135750Y79850D01*
X132750Y79553D01*
X132744Y79872D01*
X132693Y80441D01*
X132649Y80692D01*
X132592Y80920D01*
X132523Y81126D01*
X132441Y81309D01*
X132346Y81470D01*
X132239Y81608D01*
X132119Y81724D01*
X136238Y82074D01*
X136145Y81950D01*
D02*
G37*
G36*
X126145D02*
X126062Y81804D01*
X125989Y81636D01*
X125926Y81446D01*
X125872Y81234D01*
X125828Y81001D01*
X125794Y80746D01*
X125755Y80171D01*
X125750Y79850D01*
X122750Y79553D01*
X122744Y79872D01*
X122693Y80441D01*
X122649Y80692D01*
X122592Y80920D01*
X122523Y81126D01*
X122441Y81309D01*
X122346Y81470D01*
X122239Y81608D01*
X122119Y81724D01*
X126238Y82074D01*
X126145Y81950D01*
D02*
G37*
G36*
X64901Y81267D02*
X64946Y81264D01*
X65261Y81255D01*
X66386Y81250D01*
Y79750D01*
X66099Y79742D01*
X65843Y79720D01*
X65616Y79682D01*
X65420Y79630D01*
X65254Y79562D01*
X65118Y79480D01*
X65011Y79382D01*
X64935Y79270D01*
X64890Y79142D01*
X64874Y79000D01*
X64886Y81271D01*
X64901Y81267D01*
D02*
G37*
G36*
X98365Y81192D02*
X98410Y81121D01*
X98485Y81058D01*
X98590Y81003D01*
X98725Y80957D01*
X98890Y80919D01*
X99085Y80890D01*
X99310Y80869D01*
X99850Y80852D01*
Y79352D01*
X99565Y79348D01*
X99085Y79315D01*
X98890Y79285D01*
X98725Y79248D01*
X98590Y79202D01*
X98485Y79147D01*
X98410Y79084D01*
X98365Y79013D01*
X98350Y78933D01*
Y81271D01*
X98365Y81192D01*
D02*
G37*
G36*
X59004Y78933D02*
X58989Y79057D01*
X58944Y79168D01*
X58869Y79265D01*
X58764Y79350D01*
X58629Y79422D01*
X58464Y79480D01*
X58269Y79526D01*
X58044Y79558D01*
X57789Y79578D01*
X57504Y79584D01*
Y81084D01*
X57789Y81086D01*
X58764Y81152D01*
X58869Y81176D01*
X58944Y81204D01*
X58989Y81236D01*
X59004Y81271D01*
Y78933D01*
D02*
G37*
G36*
X102524Y78602D02*
X102509Y78745D01*
X102463Y78872D01*
X102388Y78985D01*
X102282Y79082D01*
X102146Y79165D01*
X101980Y79232D01*
X101783Y79285D01*
X101556Y79322D01*
X101299Y79345D01*
X101012Y79352D01*
Y80852D01*
X101299Y80860D01*
X101556Y80882D01*
X101783Y80920D01*
X101980Y80972D01*
X102146Y81040D01*
X102282Y81122D01*
X102388Y81220D01*
X102463Y81332D01*
X102509Y81460D01*
X102524Y81602D01*
Y78602D01*
D02*
G37*
G36*
X40626Y79295D02*
X40671Y79168D01*
X40746Y79055D01*
X40851Y78958D01*
X40986Y78875D01*
X41151Y78808D01*
X41346Y78755D01*
X41571Y78718D01*
X41826Y78695D01*
X42111Y78688D01*
Y77188D01*
X40611Y77200D01*
Y79438D01*
X40626Y79295D01*
D02*
G37*
G36*
X98348Y77881D02*
X98379Y77796D01*
X98429Y77721D01*
X98500Y77656D01*
X98591Y77601D01*
X98703Y77556D01*
X98834Y77521D01*
X98986Y77496D01*
X99158Y77481D01*
X99183Y77481D01*
X99345Y77494D01*
X99429Y77508D01*
X99506Y77525D01*
X99576Y77547D01*
X99638Y77572D01*
X99693Y77601D01*
X99741Y77635D01*
X99781Y77672D01*
X99814Y76294D01*
X99773Y76329D01*
X99724Y76360D01*
X99669Y76387D01*
X99606Y76411D01*
X99536Y76431D01*
X99458Y76447D01*
X99374Y76460D01*
X99207Y76473D01*
X99158Y76471D01*
X98986Y76456D01*
X98834Y76431D01*
X98703Y76396D01*
X98591Y76351D01*
X98500Y76296D01*
X98429Y76231D01*
X98379Y76156D01*
X98348Y76071D01*
X98338Y75976D01*
Y77976D01*
X98348Y77881D01*
D02*
G37*
G36*
X59004Y78122D02*
X59016Y75884D01*
X59000Y76026D01*
X58954Y76154D01*
X58878Y76266D01*
X58772Y76364D01*
X58636Y76446D01*
X58470Y76514D01*
X58274Y76566D01*
X58047Y76604D01*
X57791Y76626D01*
X57504Y76634D01*
Y78134D01*
X59004Y78122D01*
D02*
G37*
G36*
X47024Y75000D02*
X47009Y75143D01*
X46964Y75270D01*
X46888Y75383D01*
X46782Y75480D01*
X46646Y75563D01*
X46480Y75630D01*
X46283Y75682D01*
X46056Y75720D01*
X45799Y75743D01*
X45512Y75750D01*
Y77250D01*
X45799Y77258D01*
X46056Y77280D01*
X46283Y77318D01*
X46480Y77370D01*
X46646Y77438D01*
X46782Y77520D01*
X46888Y77618D01*
X46964Y77730D01*
X47009Y77858D01*
X47024Y78000D01*
Y75000D01*
D02*
G37*
G36*
X53003Y76846D02*
X53048Y76718D01*
X53123Y76606D01*
X53228Y76508D01*
X53363Y76426D01*
X53528Y76358D01*
X53723Y76306D01*
X53948Y76268D01*
X54203Y76246D01*
X54488Y76238D01*
Y74738D01*
X54203Y74736D01*
X53363Y74682D01*
X53228Y74657D01*
X53123Y74627D01*
X53048Y74593D01*
X53003Y74555D01*
X52988Y74512D01*
Y76988D01*
X53003Y76846D01*
D02*
G37*
G36*
X90002Y74332D02*
X90017Y74141D01*
X90030Y74057D01*
X90047Y73979D01*
X90068Y73909D01*
X90093Y73847D01*
X90121Y73792D01*
X90153Y73744D01*
X90189Y73703D01*
X88811D01*
X88847Y73744D01*
X88879Y73792D01*
X88907Y73847D01*
X88932Y73909D01*
X88953Y73979D01*
X88970Y74057D01*
X88983Y74141D01*
X88992Y74233D01*
X89000Y74438D01*
X90000D01*
X90002Y74332D01*
D02*
G37*
G36*
X87002D02*
X87017Y74141D01*
X87030Y74057D01*
X87047Y73979D01*
X87068Y73909D01*
X87093Y73847D01*
X87121Y73792D01*
X87153Y73744D01*
X87189Y73703D01*
X85811D01*
X85847Y73744D01*
X85879Y73792D01*
X85907Y73847D01*
X85932Y73909D01*
X85953Y73979D01*
X85970Y74057D01*
X85983Y74141D01*
X85992Y74233D01*
X86000Y74438D01*
X87000D01*
X87002Y74332D01*
D02*
G37*
G36*
X84002D02*
X84017Y74141D01*
X84030Y74057D01*
X84047Y73979D01*
X84068Y73909D01*
X84093Y73847D01*
X84121Y73792D01*
X84153Y73744D01*
X84189Y73703D01*
X82811D01*
X82847Y73744D01*
X82879Y73792D01*
X82907Y73847D01*
X82932Y73909D01*
X82953Y73979D01*
X82970Y74057D01*
X82983Y74141D01*
X82992Y74233D01*
X83000Y74438D01*
X84000D01*
X84002Y74332D01*
D02*
G37*
G36*
X81002D02*
X81017Y74141D01*
X81030Y74057D01*
X81047Y73979D01*
X81068Y73909D01*
X81093Y73847D01*
X81121Y73792D01*
X81153Y73744D01*
X81189Y73703D01*
X79811D01*
X79847Y73744D01*
X79879Y73792D01*
X79907Y73847D01*
X79932Y73909D01*
X79953Y73979D01*
X79970Y74057D01*
X79983Y74141D01*
X79992Y74233D01*
X80000Y74438D01*
X81000D01*
X81002Y74332D01*
D02*
G37*
G36*
X114005Y77918D02*
X114033Y77512D01*
X114488D01*
X114395Y77482D01*
X114312Y77392D01*
X114239Y77242D01*
X114176Y77032D01*
X114122Y76762D01*
X114098Y76582D01*
X114122Y76238D01*
X114176Y75968D01*
X114239Y75758D01*
X114312Y75608D01*
X114395Y75518D01*
X114488Y75488D01*
X114018D01*
X114000Y74512D01*
X113738D01*
X114280Y73970D01*
X114237Y73920D01*
X114197Y73863D01*
X114160Y73797D01*
X114126Y73723D01*
X114095Y73641D01*
X114068Y73550D01*
X114045Y73452D01*
X114007Y73230D01*
X113993Y73107D01*
X112588Y74512D01*
X111000D01*
X110995Y75082D01*
X110967Y75488D01*
X110512D01*
X110605Y75518D01*
X110688Y75608D01*
X110761Y75758D01*
X110824Y75968D01*
X110878Y76238D01*
X110902Y76418D01*
X110878Y76762D01*
X110824Y77032D01*
X110761Y77242D01*
X110688Y77392D01*
X110605Y77482D01*
X110512Y77512D01*
X110982D01*
X111000Y78488D01*
X114000D01*
X114005Y77918D01*
D02*
G37*
G36*
X114503Y75443D02*
X114548Y75402D01*
X114623Y75367D01*
X114728Y75336D01*
X114863Y75309D01*
X115028Y75288D01*
X115448Y75260D01*
X115988Y75250D01*
Y73750D01*
X115701Y73743D01*
X115445Y73720D01*
X115218Y73682D01*
X115022Y73630D01*
X114856Y73563D01*
X114720Y73480D01*
X114614Y73383D01*
X114538Y73270D01*
X114492Y73142D01*
X114476Y73000D01*
X114488Y75488D01*
X114503Y75443D01*
D02*
G37*
G36*
X98365Y74893D02*
X98410Y74821D01*
X98485Y74758D01*
X98590Y74704D01*
X98725Y74658D01*
X98890Y74620D01*
X99085Y74591D01*
X99310Y74570D01*
X99850Y74553D01*
Y73053D01*
X99565Y73049D01*
X99085Y73015D01*
X98890Y72986D01*
X98725Y72948D01*
X98590Y72902D01*
X98485Y72848D01*
X98410Y72785D01*
X98365Y72714D01*
X98350Y72634D01*
Y74972D01*
X98365Y74893D01*
D02*
G37*
G36*
X59004Y72634D02*
X58989Y72750D01*
X58944Y72854D01*
X58869Y72946D01*
X58764Y73026D01*
X58629Y73093D01*
X58464Y73148D01*
X58269Y73191D01*
X58044Y73222D01*
X57789Y73240D01*
X57504Y73246D01*
Y74746D01*
X57789Y74748D01*
X58629Y74803D01*
X58764Y74827D01*
X58869Y74857D01*
X58944Y74891D01*
X58989Y74929D01*
X59004Y74972D01*
Y72634D01*
D02*
G37*
G36*
X15481Y76250D02*
X15679Y76126D01*
X15896Y76032D01*
X16130Y75969D01*
X16382Y75937D01*
X16652Y75937D01*
X16940Y75967D01*
X17246Y76029D01*
X17570Y76121D01*
X17912Y76245D01*
X16234Y72467D01*
X16049Y72954D01*
X15058Y75171D01*
X14959Y75318D01*
X14871Y75422D01*
X15301Y76406D01*
X15481Y76250D01*
D02*
G37*
G36*
X102524Y72303D02*
X102509Y72446D01*
X102463Y72573D01*
X102388Y72686D01*
X102282Y72783D01*
X102146Y72866D01*
X101980Y72933D01*
X101783Y72986D01*
X101556Y73023D01*
X101299Y73046D01*
X101012Y73053D01*
Y74553D01*
X101299Y74561D01*
X101556Y74583D01*
X101783Y74621D01*
X101980Y74673D01*
X102146Y74741D01*
X102282Y74823D01*
X102388Y74921D01*
X102463Y75033D01*
X102509Y75161D01*
X102524Y75303D01*
Y72303D01*
D02*
G37*
G36*
X21411Y75269D02*
X21985Y74768D01*
X22258Y74564D01*
X22520Y74392D01*
X22772Y74251D01*
X23015Y74141D01*
X23247Y74063D01*
X23469Y74016D01*
X23682Y74000D01*
Y73000D01*
X23469Y72984D01*
X23247Y72937D01*
X23015Y72859D01*
X22772Y72749D01*
X22520Y72608D01*
X22258Y72436D01*
X21985Y72232D01*
X21411Y71731D01*
X21109Y71433D01*
Y75567D01*
X21411Y75269D01*
D02*
G37*
G36*
X59004Y69485D02*
X57504Y69472D01*
Y70973D01*
X57791Y70980D01*
X58047Y71002D01*
X58274Y71040D01*
X58470Y71092D01*
X58636Y71160D01*
X58772Y71242D01*
X58878Y71340D01*
X58954Y71452D01*
X59000Y71580D01*
X59016Y71723D01*
X59004Y69485D01*
D02*
G37*
G36*
X53003Y71390D02*
X53048Y71302D01*
X53123Y71225D01*
X53228Y71158D01*
X53363Y71101D01*
X53528Y71055D01*
X53723Y71019D01*
X53948Y70993D01*
X54203Y70978D01*
X54488Y70973D01*
Y69472D01*
X54201Y69465D01*
X53945Y69442D01*
X53718Y69405D01*
X53522Y69352D01*
X53356Y69285D01*
X53219Y69202D01*
X53114Y69105D01*
X53038Y68992D01*
X52992Y68865D01*
X52976Y68722D01*
X52988Y71488D01*
X53003Y71390D01*
D02*
G37*
G36*
X106403Y71517D02*
X106361Y71379D01*
Y71220D01*
X106403Y71039D01*
X106488Y70838D01*
X106615Y70615D01*
X106785Y70371D01*
X106997Y70106D01*
X107549Y69512D01*
X106488Y68451D01*
X106180Y68748D01*
X105629Y69215D01*
X105385Y69385D01*
X105162Y69512D01*
X104961Y69597D01*
X104780Y69639D01*
X104621D01*
X104483Y69597D01*
X104367Y69512D01*
X106488Y71633D01*
X106403Y71517D01*
D02*
G37*
G36*
X98265Y71489D02*
X98223Y71351D01*
Y71192D01*
X98265Y71012D01*
X98350Y70810D01*
X98478Y70587D01*
X98647Y70344D01*
X98859Y70078D01*
X99411Y69485D01*
X98350Y68424D01*
X98043Y68721D01*
X97491Y69187D01*
X97247Y69357D01*
X97024Y69485D01*
X96823Y69569D01*
X96643Y69612D01*
X96483D01*
X96346Y69569D01*
X96229Y69485D01*
X98350Y71606D01*
X98265Y71489D01*
D02*
G37*
G36*
X47012Y68000D02*
X46997Y68142D01*
X46952Y68270D01*
X46877Y68383D01*
X46772Y68480D01*
X46637Y68563D01*
X46472Y68630D01*
X46277Y68682D01*
X46052Y68720D01*
X45797Y68743D01*
X45512Y68750D01*
Y70250D01*
X45797Y70258D01*
X46052Y70280D01*
X46277Y70318D01*
X46472Y70370D01*
X46637Y70438D01*
X46772Y70520D01*
X46877Y70618D01*
X46952Y70730D01*
X46997Y70858D01*
X47012Y71000D01*
Y68000D01*
D02*
G37*
G36*
X42111Y67814D02*
X41826Y67806D01*
X41571Y67784D01*
X41346Y67746D01*
X41151Y67694D01*
X40986Y67626D01*
X40851Y67544D01*
X40746Y67446D01*
X40671Y67334D01*
X40626Y67206D01*
X40611Y67064D01*
Y69302D01*
X40626Y69304D01*
X40671Y69306D01*
X42111Y69314D01*
Y67814D01*
D02*
G37*
G36*
X94063Y66980D02*
X94377Y66703D01*
X94424Y66669D01*
X94467Y66642D01*
X94504Y66622D01*
X94536Y66609D01*
X93314Y65972D01*
X93326Y66025D01*
X93329Y66081D01*
X93322Y66139D01*
X93305Y66200D01*
X93279Y66263D01*
X93244Y66330D01*
X93199Y66399D01*
X93144Y66470D01*
X93080Y66544D01*
X93007Y66621D01*
X93985Y67058D01*
X94063Y66980D01*
D02*
G37*
G36*
X18549Y62901D02*
X18517Y62919D01*
X18472Y62936D01*
X18415Y62951D01*
X18346Y62964D01*
X18170Y62984D01*
X17946Y62996D01*
X17673Y63000D01*
Y64000D01*
X17815Y64001D01*
X18346Y64036D01*
X18415Y64049D01*
X18472Y64064D01*
X18517Y64081D01*
X18549Y64099D01*
Y62901D01*
D02*
G37*
G36*
X15551Y66353D02*
X15750Y66228D01*
X15967Y66132D01*
X16204Y66066D01*
X16461Y66030D01*
X16736Y66023D01*
X17032Y66045D01*
X17346Y66098D01*
X17680Y66179D01*
X18033Y66290D01*
X16191Y62589D01*
X16033Y63068D01*
X15222Y65092D01*
X15110Y65288D01*
X15005Y65443D01*
X14907Y65559D01*
X15372Y66507D01*
X15551Y66353D01*
D02*
G37*
G36*
X90885Y64100D02*
X90930Y63972D01*
X91005Y63860D01*
X91110Y63762D01*
X91245Y63680D01*
X91410Y63612D01*
X91605Y63560D01*
X91830Y63522D01*
X92085Y63500D01*
X92370Y63492D01*
Y61992D01*
X90870Y62004D01*
Y64242D01*
X90885Y64100D01*
D02*
G37*
G36*
X83881Y62006D02*
X83848Y61977D01*
X83818Y61929D01*
X83792Y61862D01*
X83770Y61775D01*
X83752Y61670D01*
X83738Y61545D01*
X83723Y61238D01*
X83720Y61055D01*
X82221D01*
X82232Y62004D01*
X83919Y62016D01*
X83881Y62006D01*
D02*
G37*
G36*
X68743Y61989D02*
X68672Y61944D01*
X68609Y61869D01*
X68554Y61764D01*
X68508Y61629D01*
X68471Y61464D01*
X68441Y61269D01*
X68420Y61044D01*
X68404Y60504D01*
X66904D01*
X66899Y60789D01*
X66866Y61269D01*
X66837Y61464D01*
X66799Y61629D01*
X66753Y61764D01*
X66698Y61869D01*
X66635Y61944D01*
X66564Y61989D01*
X66484Y62004D01*
X68823D01*
X68743Y61989D01*
D02*
G37*
G36*
X47012Y60000D02*
X46997Y60142D01*
X46952Y60270D01*
X46877Y60382D01*
X46772Y60480D01*
X46637Y60562D01*
X46472Y60630D01*
X46277Y60682D01*
X46052Y60720D01*
X45797Y60742D01*
X45512Y60750D01*
Y62250D01*
X45797Y62257D01*
X46052Y62280D01*
X46277Y62318D01*
X46472Y62370D01*
X46637Y62437D01*
X46772Y62520D01*
X46877Y62617D01*
X46952Y62730D01*
X46997Y62858D01*
X47012Y63000D01*
Y60000D01*
D02*
G37*
G36*
X21984Y63522D02*
X22132Y62843D01*
X22222Y62536D01*
X22324Y62252D01*
X22437Y61990D01*
X22561Y61750D01*
X22696Y61532D01*
X22842Y61336D01*
X22999Y61162D01*
X22098Y59942D01*
X21907Y60112D01*
X21701Y60259D01*
X21477Y60382D01*
X21238Y60481D01*
X20981Y60557D01*
X20709Y60609D01*
X20420Y60638D01*
X20114Y60643D01*
X19792Y60624D01*
X19454Y60582D01*
X21926Y63895D01*
X21984Y63522D01*
D02*
G37*
G36*
X155257Y60654D02*
X155280Y60396D01*
X155317Y60170D01*
X155370Y59973D01*
X155438Y59807D01*
X155520Y59671D01*
X155617Y59565D01*
X155730Y59489D01*
X155858Y59444D01*
X156000Y59429D01*
X153000D01*
X153142Y59444D01*
X153270Y59489D01*
X153383Y59565D01*
X153480Y59671D01*
X153562Y59807D01*
X153630Y59973D01*
X153682Y60170D01*
X153720Y60396D01*
X153743Y60654D01*
X153750Y60941D01*
X155250D01*
X155257Y60654D01*
D02*
G37*
G36*
X145756Y60628D02*
X145807Y60059D01*
X145851Y59808D01*
X145908Y59579D01*
X145977Y59374D01*
X146059Y59190D01*
X146154Y59030D01*
X146261Y58892D01*
X146381Y58776D01*
X142262Y58426D01*
X142355Y58550D01*
X142438Y58697D01*
X142511Y58864D01*
X142574Y59054D01*
X142628Y59266D01*
X142672Y59499D01*
X142706Y59754D01*
X142745Y60330D01*
X142750Y60650D01*
X145750Y60947D01*
X145756Y60628D01*
D02*
G37*
G36*
X135756D02*
X135807Y60059D01*
X135851Y59808D01*
X135908Y59579D01*
X135977Y59374D01*
X136059Y59190D01*
X136154Y59030D01*
X136261Y58892D01*
X136381Y58776D01*
X132262Y58426D01*
X132355Y58550D01*
X132438Y58697D01*
X132511Y58864D01*
X132574Y59054D01*
X132628Y59266D01*
X132672Y59499D01*
X132706Y59754D01*
X132745Y60330D01*
X132750Y60650D01*
X135750Y60947D01*
X135756Y60628D01*
D02*
G37*
G36*
X125756D02*
X125807Y60059D01*
X125851Y59808D01*
X125908Y59579D01*
X125977Y59374D01*
X126059Y59190D01*
X126154Y59030D01*
X126261Y58892D01*
X126381Y58776D01*
X122262Y58426D01*
X122355Y58550D01*
X122438Y58697D01*
X122511Y58864D01*
X122574Y59054D01*
X122628Y59266D01*
X122672Y59499D01*
X122706Y59754D01*
X122745Y60330D01*
X122750Y60650D01*
X125750Y60947D01*
X125756Y60628D01*
D02*
G37*
G36*
X21958Y53111D02*
X21981Y52772D01*
X22021Y52452D01*
X22080Y52151D01*
X22156Y51870D01*
X22250Y51609D01*
X22361Y51367D01*
X22491Y51144D01*
X22638Y50942D01*
X22803Y50758D01*
X21742Y49698D01*
X21558Y49862D01*
X21355Y50009D01*
X21133Y50139D01*
X20891Y50250D01*
X20630Y50344D01*
X20349Y50420D01*
X20048Y50479D01*
X19728Y50519D01*
X19389Y50542D01*
X19029Y50547D01*
X21953Y53470D01*
X21958Y53111D01*
D02*
G37*
G36*
X111868Y47703D02*
X112421Y47234D01*
X112665Y47063D01*
X112888Y46935D01*
X113090Y46849D01*
X113269Y46805D01*
X113428Y46804D01*
X113565Y46845D01*
X113681Y46929D01*
X111571Y44819D01*
X111655Y44935D01*
X111696Y45072D01*
X111695Y45231D01*
X111651Y45410D01*
X111565Y45612D01*
X111437Y45835D01*
X111266Y46079D01*
X111053Y46345D01*
X110499Y46941D01*
X111559Y48001D01*
X111868Y47703D01*
D02*
G37*
G36*
X101942Y47638D02*
X102145Y47491D01*
X102367Y47361D01*
X102609Y47250D01*
X102870Y47156D01*
X103151Y47080D01*
X103452Y47021D01*
X103772Y46981D01*
X104111Y46958D01*
X104471Y46953D01*
X101547Y44030D01*
X101542Y44389D01*
X101519Y44728D01*
X101479Y45048D01*
X101420Y45349D01*
X101344Y45630D01*
X101250Y45891D01*
X101139Y46133D01*
X101009Y46356D01*
X100862Y46558D01*
X100698Y46742D01*
X101758Y47802D01*
X101942Y47638D01*
D02*
G37*
G36*
X91942D02*
X92145Y47491D01*
X92367Y47361D01*
X92609Y47250D01*
X92870Y47156D01*
X93151Y47080D01*
X93452Y47021D01*
X93772Y46981D01*
X94111Y46958D01*
X94471Y46953D01*
X91547Y44030D01*
X91542Y44389D01*
X91519Y44728D01*
X91479Y45048D01*
X91420Y45349D01*
X91344Y45630D01*
X91250Y45891D01*
X91139Y46133D01*
X91009Y46356D01*
X90862Y46558D01*
X90697Y46742D01*
X91758Y47802D01*
X91942Y47638D01*
D02*
G37*
G36*
X21944Y44857D02*
X21989Y44730D01*
X22065Y44618D01*
X22171Y44520D01*
X22307Y44438D01*
X22473Y44370D01*
X22670Y44317D01*
X22896Y44280D01*
X23154Y44258D01*
X23441Y44250D01*
Y42750D01*
X23154Y42742D01*
X22896Y42720D01*
X22670Y42682D01*
X22473Y42630D01*
X22307Y42562D01*
X22171Y42480D01*
X22065Y42382D01*
X21989Y42270D01*
X21944Y42143D01*
X21929Y42000D01*
Y45000D01*
X21944Y44857D01*
D02*
G37*
G36*
X120517Y156214D02*
X119536D01*
Y157121D01*
X120517D01*
Y156214D01*
D02*
G37*
G36*
X110183D02*
X109202D01*
Y157121D01*
X110183D01*
Y156214D01*
D02*
G37*
G36*
X113295Y155789D02*
X113339Y155785D01*
X113394Y155778D01*
X113461Y155767D01*
X113531Y155752D01*
X113613Y155730D01*
X113698Y155704D01*
X113783Y155670D01*
X113875Y155630D01*
X113968Y155578D01*
X114060Y155522D01*
X114153Y155452D01*
X114245Y155374D01*
X114331Y155286D01*
X114334Y155278D01*
X114349Y155263D01*
X114371Y155234D01*
X114401Y155193D01*
X114434Y155141D01*
X114475Y155078D01*
X114516Y155004D01*
X114556Y154919D01*
X114597Y154823D01*
X114638Y154719D01*
X114678Y154601D01*
X114712Y154475D01*
X114741Y154338D01*
X114763Y154194D01*
X114778Y154039D01*
X114782Y153872D01*
Y153868D01*
Y153861D01*
Y153850D01*
Y153832D01*
Y153809D01*
X114778Y153783D01*
Y153754D01*
X114775Y153720D01*
X114767Y153643D01*
X114760Y153550D01*
X114745Y153450D01*
X114726Y153343D01*
X114701Y153228D01*
X114671Y153114D01*
X114634Y152992D01*
X114590Y152873D01*
X114538Y152755D01*
X114479Y152640D01*
X114408Y152529D01*
X114327Y152429D01*
X114323Y152422D01*
X114305Y152407D01*
X114283Y152381D01*
X114245Y152348D01*
X114201Y152311D01*
X114149Y152266D01*
X114086Y152218D01*
X114020Y152174D01*
X113942Y152126D01*
X113857Y152078D01*
X113768Y152033D01*
X113668Y151996D01*
X113568Y151963D01*
X113457Y151937D01*
X113343Y151922D01*
X113224Y151915D01*
X113195D01*
X113172Y151919D01*
X113143D01*
X113113Y151922D01*
X113076Y151926D01*
X113039Y151930D01*
X112951Y151944D01*
X112854Y151967D01*
X112758Y151996D01*
X112662Y152037D01*
X112658D01*
X112651Y152044D01*
X112636Y152052D01*
X112618Y152059D01*
X112595Y152074D01*
X112569Y152093D01*
X112540Y152111D01*
X112503Y152137D01*
X112425Y152192D01*
X112384Y152226D01*
X112336Y152266D01*
X112292Y152307D01*
X112240Y152351D01*
X112192Y152403D01*
X112140Y152455D01*
Y150590D01*
X111160D01*
Y155711D01*
X112074D01*
Y155164D01*
X112077Y155167D01*
X112081Y155175D01*
X112092Y155189D01*
X112107Y155212D01*
X112125Y155234D01*
X112148Y155263D01*
X112170Y155293D01*
X112199Y155326D01*
X112270Y155397D01*
X112351Y155474D01*
X112447Y155548D01*
X112555Y155619D01*
X112558Y155622D01*
X112569Y155626D01*
X112584Y155633D01*
X112606Y155645D01*
X112636Y155659D01*
X112669Y155674D01*
X112710Y155689D01*
X112754Y155707D01*
X112803Y155722D01*
X112854Y155737D01*
X112969Y155767D01*
X113095Y155785D01*
X113161Y155792D01*
X113261D01*
X113295Y155789D01*
D02*
G37*
G36*
X133548D02*
X133608Y155785D01*
X133674Y155778D01*
X133748Y155767D01*
X133826Y155755D01*
X133911Y155741D01*
X133996Y155722D01*
X134089Y155696D01*
X134177Y155667D01*
X134266Y155633D01*
X134355Y155593D01*
X134436Y155548D01*
X134514Y155497D01*
X134518Y155493D01*
X134533Y155482D01*
X134551Y155467D01*
X134581Y155441D01*
X134614Y155411D01*
X134651Y155374D01*
X134692Y155326D01*
X134736Y155274D01*
X134784Y155219D01*
X134832Y155152D01*
X134880Y155078D01*
X134925Y154997D01*
X134973Y154912D01*
X135017Y154819D01*
X135054Y154716D01*
X135091Y154609D01*
X134126Y154435D01*
Y154438D01*
X134122Y154446D01*
X134118Y154461D01*
X134115Y154483D01*
X134107Y154505D01*
X134100Y154534D01*
X134078Y154597D01*
X134048Y154668D01*
X134007Y154742D01*
X133959Y154808D01*
X133900Y154871D01*
X133896D01*
X133893Y154879D01*
X133881Y154886D01*
X133870Y154893D01*
X133830Y154919D01*
X133778Y154945D01*
X133715Y154971D01*
X133637Y154997D01*
X133548Y155012D01*
X133452Y155019D01*
X133415D01*
X133389Y155016D01*
X133360Y155012D01*
X133323Y155004D01*
X133282Y154997D01*
X133241Y154986D01*
X133193Y154975D01*
X133145Y154956D01*
X133097Y154938D01*
X133049Y154912D01*
X133001Y154882D01*
X132953Y154849D01*
X132908Y154808D01*
X132864Y154764D01*
X132860Y154760D01*
X132853Y154753D01*
X132845Y154738D01*
X132831Y154716D01*
X132812Y154686D01*
X132794Y154653D01*
X132775Y154612D01*
X132757Y154564D01*
X132734Y154509D01*
X132716Y154446D01*
X132697Y154375D01*
X132679Y154301D01*
X132664Y154216D01*
X132657Y154124D01*
X132649Y154024D01*
X132646Y153917D01*
Y153909D01*
Y153887D01*
Y153854D01*
X132649Y153809D01*
X132653Y153754D01*
X132657Y153695D01*
X132664Y153624D01*
X132675Y153554D01*
X132701Y153399D01*
X132720Y153321D01*
X132738Y153247D01*
X132764Y153173D01*
X132794Y153103D01*
X132827Y153040D01*
X132868Y152984D01*
X132871Y152980D01*
X132879Y152973D01*
X132890Y152958D01*
X132908Y152944D01*
X132931Y152921D01*
X132956Y152899D01*
X132990Y152873D01*
X133027Y152851D01*
X133067Y152825D01*
X133112Y152799D01*
X133160Y152777D01*
X133212Y152755D01*
X133271Y152740D01*
X133330Y152725D01*
X133397Y152718D01*
X133463Y152714D01*
X133489D01*
X133511Y152718D01*
X133534D01*
X133560Y152722D01*
X133626Y152733D01*
X133696Y152755D01*
X133774Y152781D01*
X133848Y152821D01*
X133885Y152844D01*
X133918Y152873D01*
X133922Y152877D01*
X133926Y152881D01*
X133937Y152892D01*
X133948Y152903D01*
X133963Y152921D01*
X133981Y152944D01*
X134000Y152969D01*
X134018Y153003D01*
X134040Y153036D01*
X134059Y153077D01*
X134081Y153121D01*
X134103Y153173D01*
X134122Y153225D01*
X134140Y153288D01*
X134159Y153350D01*
X134174Y153421D01*
X135139Y153258D01*
Y153251D01*
X135132Y153228D01*
X135121Y153195D01*
X135110Y153147D01*
X135091Y153092D01*
X135069Y153029D01*
X135043Y152958D01*
X135010Y152884D01*
X134973Y152803D01*
X134932Y152722D01*
X134884Y152636D01*
X134832Y152551D01*
X134773Y152470D01*
X134710Y152392D01*
X134640Y152318D01*
X134562Y152252D01*
X134558Y152248D01*
X134544Y152237D01*
X134518Y152222D01*
X134485Y152200D01*
X134440Y152174D01*
X134388Y152144D01*
X134329Y152115D01*
X134259Y152085D01*
X134181Y152052D01*
X134096Y152022D01*
X134003Y151993D01*
X133900Y151967D01*
X133793Y151944D01*
X133674Y151930D01*
X133548Y151919D01*
X133419Y151915D01*
X133382D01*
X133363Y151919D01*
X133341D01*
X133286Y151922D01*
X133215Y151930D01*
X133138Y151941D01*
X133049Y151959D01*
X132953Y151978D01*
X132849Y152007D01*
X132746Y152041D01*
X132634Y152081D01*
X132527Y152129D01*
X132420Y152189D01*
X132316Y152255D01*
X132216Y152337D01*
X132120Y152426D01*
X132116Y152433D01*
X132098Y152448D01*
X132076Y152477D01*
X132046Y152522D01*
X132009Y152574D01*
X131968Y152636D01*
X131924Y152710D01*
X131880Y152796D01*
X131835Y152892D01*
X131791Y152999D01*
X131750Y153117D01*
X131713Y153243D01*
X131684Y153380D01*
X131661Y153528D01*
X131643Y153683D01*
X131639Y153850D01*
Y153854D01*
Y153861D01*
Y153872D01*
Y153891D01*
X131643Y153913D01*
Y153939D01*
Y153968D01*
X131647Y154002D01*
X131654Y154079D01*
X131665Y154168D01*
X131680Y154264D01*
X131698Y154372D01*
X131724Y154486D01*
X131758Y154601D01*
X131798Y154719D01*
X131843Y154842D01*
X131898Y154956D01*
X131965Y155071D01*
X132039Y155178D01*
X132124Y155278D01*
X132131Y155286D01*
X132146Y155300D01*
X132176Y155326D01*
X132213Y155360D01*
X132261Y155397D01*
X132320Y155441D01*
X132390Y155489D01*
X132472Y155537D01*
X132561Y155582D01*
X132657Y155630D01*
X132764Y155674D01*
X132882Y155711D01*
X133008Y155744D01*
X133141Y155770D01*
X133286Y155785D01*
X133437Y155792D01*
X133504D01*
X133548Y155789D01*
D02*
G37*
G36*
X136812Y155234D02*
X136819Y155241D01*
X136834Y155260D01*
X136860Y155286D01*
X136897Y155323D01*
X136941Y155363D01*
X136997Y155411D01*
X137060Y155459D01*
X137130Y155515D01*
X137211Y155567D01*
X137296Y155615D01*
X137393Y155663D01*
X137493Y155704D01*
X137596Y155741D01*
X137707Y155770D01*
X137826Y155785D01*
X137948Y155792D01*
X138003D01*
X138033Y155789D01*
X138070Y155785D01*
X138107Y155781D01*
X138151Y155778D01*
X138244Y155763D01*
X138347Y155741D01*
X138451Y155707D01*
X138555Y155667D01*
X138558D01*
X138566Y155659D01*
X138580Y155656D01*
X138599Y155645D01*
X138621Y155633D01*
X138647Y155615D01*
X138710Y155578D01*
X138777Y155534D01*
X138843Y155478D01*
X138910Y155415D01*
X138965Y155345D01*
Y155341D01*
X138973Y155337D01*
X138980Y155326D01*
X138987Y155312D01*
X138998Y155293D01*
X139013Y155271D01*
X139043Y155215D01*
X139073Y155152D01*
X139106Y155078D01*
X139135Y154997D01*
X139158Y154908D01*
Y154904D01*
X139161Y154897D01*
Y154882D01*
X139165Y154864D01*
X139169Y154838D01*
X139172Y154808D01*
X139180Y154771D01*
X139183Y154727D01*
X139187Y154679D01*
X139195Y154627D01*
X139198Y154564D01*
X139202Y154501D01*
X139206Y154427D01*
Y154350D01*
X139209Y154264D01*
Y154176D01*
Y152000D01*
X138229D01*
Y153957D01*
Y153965D01*
Y153983D01*
Y154013D01*
Y154050D01*
Y154098D01*
X138225Y154150D01*
Y154209D01*
X138222Y154268D01*
X138214Y154394D01*
X138210Y154457D01*
X138203Y154516D01*
X138196Y154571D01*
X138188Y154620D01*
X138181Y154664D01*
X138170Y154697D01*
X138166Y154705D01*
X138159Y154723D01*
X138144Y154753D01*
X138125Y154786D01*
X138099Y154827D01*
X138062Y154867D01*
X138022Y154908D01*
X137974Y154945D01*
X137966Y154949D01*
X137948Y154960D01*
X137918Y154975D01*
X137877Y154993D01*
X137826Y155012D01*
X137766Y155027D01*
X137696Y155038D01*
X137618Y155041D01*
X137578D01*
X137556Y155038D01*
X137530Y155034D01*
X137474Y155027D01*
X137404Y155012D01*
X137330Y154990D01*
X137256Y154960D01*
X137182Y154919D01*
X137178D01*
X137174Y154916D01*
X137152Y154897D01*
X137115Y154867D01*
X137074Y154831D01*
X137030Y154779D01*
X136982Y154719D01*
X136938Y154646D01*
X136901Y154560D01*
Y154557D01*
X136897Y154549D01*
X136893Y154534D01*
X136886Y154516D01*
X136878Y154490D01*
X136871Y154461D01*
X136864Y154423D01*
X136856Y154383D01*
X136849Y154338D01*
X136841Y154287D01*
X136834Y154227D01*
X136827Y154165D01*
X136819Y154094D01*
X136816Y154020D01*
X136812Y153943D01*
Y153857D01*
Y152000D01*
X135831D01*
Y157121D01*
X136812D01*
Y155234D01*
D02*
G37*
G36*
X127225Y156255D02*
X125708D01*
Y152000D01*
X124676D01*
Y156255D01*
X123155D01*
Y157121D01*
X127225D01*
Y156255D01*
D02*
G37*
G36*
X120517Y152000D02*
X119536D01*
Y155711D01*
X120517D01*
Y152000D01*
D02*
G37*
G36*
X110183D02*
X109202D01*
Y155711D01*
X110183D01*
Y152000D01*
D02*
G37*
G36*
X106783Y155789D02*
X106838D01*
X106901Y155785D01*
X106971Y155781D01*
X107045Y155774D01*
X107123Y155767D01*
X107204Y155755D01*
X107367Y155726D01*
X107445Y155711D01*
X107523Y155689D01*
X107593Y155663D01*
X107656Y155637D01*
X107659D01*
X107671Y155630D01*
X107685Y155622D01*
X107708Y155607D01*
X107734Y155593D01*
X107763Y155574D01*
X107833Y155530D01*
X107907Y155471D01*
X107981Y155404D01*
X108052Y155326D01*
X108081Y155286D01*
X108107Y155241D01*
Y155237D01*
X108115Y155230D01*
X108118Y155215D01*
X108129Y155193D01*
X108137Y155167D01*
X108148Y155130D01*
X108163Y155089D01*
X108174Y155041D01*
X108185Y154986D01*
X108200Y154919D01*
X108211Y154849D01*
X108218Y154768D01*
X108229Y154679D01*
X108233Y154583D01*
X108240Y154475D01*
Y154361D01*
X108226Y153217D01*
Y153214D01*
Y153195D01*
Y153169D01*
Y153136D01*
Y153095D01*
X108229Y153051D01*
Y152999D01*
X108233Y152944D01*
X108237Y152825D01*
X108244Y152707D01*
X108248Y152647D01*
X108255Y152592D01*
X108263Y152544D01*
X108270Y152496D01*
Y152492D01*
X108274Y152485D01*
Y152474D01*
X108281Y152455D01*
X108285Y152433D01*
X108292Y152407D01*
X108311Y152348D01*
X108333Y152274D01*
X108366Y152189D01*
X108403Y152096D01*
X108448Y152000D01*
X107478D01*
Y152004D01*
X107471Y152018D01*
X107463Y152041D01*
X107452Y152074D01*
X107438Y152115D01*
X107419Y152163D01*
X107401Y152222D01*
X107382Y152289D01*
Y152292D01*
X107378Y152303D01*
X107375Y152318D01*
X107367Y152337D01*
X107356Y152374D01*
X107352Y152389D01*
X107349Y152403D01*
X107345Y152400D01*
X107338Y152392D01*
X107323Y152381D01*
X107304Y152363D01*
X107282Y152344D01*
X107253Y152318D01*
X107223Y152292D01*
X107186Y152266D01*
X107108Y152207D01*
X107016Y152144D01*
X106916Y152089D01*
X106808Y152037D01*
X106805D01*
X106797Y152033D01*
X106779Y152026D01*
X106760Y152018D01*
X106731Y152007D01*
X106701Y152000D01*
X106664Y151989D01*
X106627Y151978D01*
X106583Y151963D01*
X106535Y151952D01*
X106431Y151933D01*
X106316Y151919D01*
X106198Y151915D01*
X106172D01*
X106142Y151919D01*
X106102D01*
X106054Y151926D01*
X105998Y151930D01*
X105939Y151941D01*
X105869Y151956D01*
X105798Y151970D01*
X105724Y151993D01*
X105650Y152015D01*
X105576Y152044D01*
X105502Y152081D01*
X105428Y152122D01*
X105358Y152170D01*
X105295Y152226D01*
X105291Y152229D01*
X105280Y152241D01*
X105266Y152259D01*
X105243Y152281D01*
X105218Y152311D01*
X105192Y152348D01*
X105162Y152392D01*
X105132Y152440D01*
X105099Y152496D01*
X105069Y152555D01*
X105044Y152618D01*
X105018Y152688D01*
X104996Y152762D01*
X104981Y152840D01*
X104970Y152925D01*
X104966Y153010D01*
Y153014D01*
Y153025D01*
Y153040D01*
X104970Y153062D01*
Y153092D01*
X104973Y153121D01*
X104977Y153158D01*
X104984Y153199D01*
X105003Y153284D01*
X105029Y153380D01*
X105066Y153476D01*
X105114Y153569D01*
X105118Y153572D01*
X105121Y153580D01*
X105129Y153591D01*
X105143Y153610D01*
X105177Y153654D01*
X105225Y153709D01*
X105284Y153769D01*
X105354Y153832D01*
X105439Y153894D01*
X105536Y153946D01*
X105539D01*
X105547Y153954D01*
X105565Y153961D01*
X105587Y153968D01*
X105613Y153980D01*
X105647Y153994D01*
X105687Y154009D01*
X105736Y154024D01*
X105787Y154042D01*
X105847Y154061D01*
X105909Y154079D01*
X105980Y154098D01*
X106054Y154120D01*
X106135Y154139D01*
X106224Y154157D01*
X106316Y154176D01*
X106324D01*
X106346Y154183D01*
X106383Y154187D01*
X106427Y154198D01*
X106483Y154209D01*
X106550Y154224D01*
X106620Y154238D01*
X106694Y154253D01*
X106853Y154294D01*
X107008Y154335D01*
X107082Y154353D01*
X107153Y154375D01*
X107215Y154398D01*
X107271Y154420D01*
Y154516D01*
Y154520D01*
Y154527D01*
Y154542D01*
X107267Y154560D01*
Y154586D01*
X107264Y154612D01*
X107253Y154671D01*
X107238Y154738D01*
X107212Y154805D01*
X107178Y154867D01*
X107156Y154893D01*
X107130Y154919D01*
X107123Y154923D01*
X107116Y154930D01*
X107101Y154938D01*
X107086Y154949D01*
X107064Y154956D01*
X107042Y154967D01*
X107012Y154982D01*
X106979Y154993D01*
X106938Y155004D01*
X106897Y155012D01*
X106849Y155023D01*
X106794Y155030D01*
X106735Y155038D01*
X106672Y155041D01*
X106557D01*
X106535Y155038D01*
X106509D01*
X106453Y155030D01*
X106387Y155016D01*
X106316Y154997D01*
X106250Y154971D01*
X106191Y154938D01*
X106183Y154934D01*
X106168Y154919D01*
X106139Y154890D01*
X106109Y154853D01*
X106072Y154805D01*
X106032Y154742D01*
X105994Y154664D01*
X105957Y154575D01*
X105066Y154734D01*
X105069Y154742D01*
X105073Y154756D01*
X105081Y154786D01*
X105095Y154823D01*
X105110Y154867D01*
X105132Y154919D01*
X105158Y154975D01*
X105184Y155034D01*
X105218Y155101D01*
X105258Y155164D01*
X105299Y155230D01*
X105347Y155297D01*
X105395Y155360D01*
X105454Y155422D01*
X105514Y155478D01*
X105580Y155530D01*
X105584Y155534D01*
X105599Y155541D01*
X105621Y155556D01*
X105650Y155570D01*
X105687Y155589D01*
X105736Y155611D01*
X105791Y155637D01*
X105858Y155663D01*
X105928Y155685D01*
X106009Y155711D01*
X106102Y155733D01*
X106198Y155752D01*
X106305Y155767D01*
X106420Y155781D01*
X106542Y155789D01*
X106675Y155792D01*
X106738D01*
X106783Y155789D01*
D02*
G37*
G36*
X104570Y156255D02*
X103053D01*
Y152000D01*
X102021D01*
Y156255D01*
X100500D01*
Y157121D01*
X104570D01*
Y156255D01*
D02*
G37*
G36*
X129349Y155789D02*
X129371D01*
X129430Y155785D01*
X129501Y155778D01*
X129578Y155763D01*
X129671Y155748D01*
X129767Y155726D01*
X129867Y155696D01*
X129974Y155659D01*
X130081Y155615D01*
X130192Y155563D01*
X130300Y155500D01*
X130403Y155426D01*
X130503Y155341D01*
X130596Y155245D01*
X130599Y155237D01*
X130618Y155219D01*
X130640Y155186D01*
X130670Y155141D01*
X130707Y155082D01*
X130747Y155012D01*
X130788Y154927D01*
X130833Y154831D01*
X130877Y154719D01*
X130921Y154594D01*
X130958Y154457D01*
X130995Y154305D01*
X131021Y154142D01*
X131044Y153965D01*
X131055Y153772D01*
X131058Y153569D01*
X128598D01*
Y153565D01*
Y153550D01*
X128602Y153528D01*
Y153498D01*
X128605Y153462D01*
X128613Y153417D01*
X128620Y153373D01*
X128631Y153321D01*
X128657Y153210D01*
X128675Y153154D01*
X128698Y153099D01*
X128727Y153043D01*
X128757Y152988D01*
X128790Y152936D01*
X128831Y152888D01*
X128835Y152884D01*
X128842Y152877D01*
X128853Y152866D01*
X128872Y152851D01*
X128894Y152832D01*
X128923Y152810D01*
X128953Y152792D01*
X128990Y152770D01*
X129027Y152744D01*
X129071Y152725D01*
X129168Y152684D01*
X129223Y152670D01*
X129279Y152659D01*
X129338Y152651D01*
X129401Y152647D01*
X129423D01*
X129441Y152651D01*
X129482Y152655D01*
X129538Y152662D01*
X129597Y152677D01*
X129663Y152699D01*
X129726Y152729D01*
X129789Y152770D01*
X129793D01*
X129797Y152777D01*
X129815Y152796D01*
X129845Y152825D01*
X129878Y152869D01*
X129919Y152925D01*
X129959Y152995D01*
X129996Y153077D01*
X130030Y153177D01*
X131007Y153014D01*
X131003Y153006D01*
X130999Y152992D01*
X130988Y152962D01*
X130970Y152925D01*
X130951Y152881D01*
X130925Y152829D01*
X130895Y152770D01*
X130859Y152710D01*
X130822Y152644D01*
X130777Y152577D01*
X130725Y152507D01*
X130674Y152440D01*
X130614Y152374D01*
X130551Y152307D01*
X130481Y152248D01*
X130407Y152192D01*
X130403Y152189D01*
X130389Y152181D01*
X130366Y152166D01*
X130333Y152148D01*
X130292Y152129D01*
X130248Y152104D01*
X130189Y152081D01*
X130126Y152056D01*
X130056Y152030D01*
X129982Y152004D01*
X129896Y151978D01*
X129808Y151959D01*
X129711Y151941D01*
X129608Y151926D01*
X129501Y151919D01*
X129390Y151915D01*
X129349D01*
X129323Y151919D01*
X129297D01*
X129268Y151922D01*
X129230Y151926D01*
X129149Y151933D01*
X129060Y151948D01*
X128957Y151967D01*
X128846Y151993D01*
X128731Y152026D01*
X128613Y152070D01*
X128494Y152118D01*
X128376Y152181D01*
X128261Y152252D01*
X128154Y152337D01*
X128050Y152433D01*
X127958Y152544D01*
X127954Y152551D01*
X127943Y152566D01*
X127924Y152596D01*
X127902Y152636D01*
X127873Y152684D01*
X127843Y152744D01*
X127810Y152814D01*
X127776Y152895D01*
X127739Y152984D01*
X127706Y153080D01*
X127676Y153184D01*
X127651Y153299D01*
X127625Y153417D01*
X127606Y153547D01*
X127595Y153683D01*
X127591Y153824D01*
Y153828D01*
Y153835D01*
Y153846D01*
Y153865D01*
X127595Y153887D01*
Y153913D01*
Y153943D01*
X127599Y153976D01*
X127606Y154053D01*
X127617Y154142D01*
X127632Y154242D01*
X127651Y154350D01*
X127676Y154464D01*
X127710Y154583D01*
X127747Y154701D01*
X127795Y154823D01*
X127850Y154941D01*
X127913Y155056D01*
X127987Y155164D01*
X128072Y155267D01*
X128080Y155274D01*
X128095Y155289D01*
X128121Y155315D01*
X128157Y155349D01*
X128206Y155389D01*
X128265Y155434D01*
X128331Y155482D01*
X128405Y155530D01*
X128490Y155578D01*
X128583Y155626D01*
X128683Y155670D01*
X128790Y155711D01*
X128905Y155744D01*
X129027Y155770D01*
X129156Y155785D01*
X129293Y155792D01*
X129330D01*
X129349Y155789D01*
D02*
G37*
G36*
X117028D02*
X117050D01*
X117109Y155785D01*
X117180Y155778D01*
X117257Y155763D01*
X117350Y155748D01*
X117446Y155726D01*
X117546Y155696D01*
X117653Y155659D01*
X117761Y155615D01*
X117871Y155563D01*
X117979Y155500D01*
X118082Y155426D01*
X118182Y155341D01*
X118275Y155245D01*
X118279Y155237D01*
X118297Y155219D01*
X118319Y155186D01*
X118349Y155141D01*
X118386Y155082D01*
X118427Y155012D01*
X118467Y154927D01*
X118512Y154831D01*
X118556Y154719D01*
X118600Y154594D01*
X118637Y154457D01*
X118674Y154305D01*
X118700Y154142D01*
X118722Y153965D01*
X118734Y153772D01*
X118737Y153569D01*
X116277D01*
Y153565D01*
Y153550D01*
X116280Y153528D01*
Y153498D01*
X116284Y153462D01*
X116292Y153417D01*
X116299Y153373D01*
X116310Y153321D01*
X116336Y153210D01*
X116355Y153154D01*
X116377Y153099D01*
X116406Y153043D01*
X116436Y152988D01*
X116469Y152936D01*
X116510Y152888D01*
X116514Y152884D01*
X116521Y152877D01*
X116532Y152866D01*
X116551Y152851D01*
X116573Y152832D01*
X116602Y152810D01*
X116632Y152792D01*
X116669Y152770D01*
X116706Y152744D01*
X116750Y152725D01*
X116847Y152684D01*
X116902Y152670D01*
X116958Y152659D01*
X117017Y152651D01*
X117080Y152647D01*
X117102D01*
X117120Y152651D01*
X117161Y152655D01*
X117217Y152662D01*
X117276Y152677D01*
X117342Y152699D01*
X117405Y152729D01*
X117468Y152770D01*
X117472D01*
X117476Y152777D01*
X117494Y152796D01*
X117524Y152825D01*
X117557Y152869D01*
X117598Y152925D01*
X117638Y152995D01*
X117675Y153077D01*
X117709Y153177D01*
X118685Y153014D01*
X118682Y153006D01*
X118678Y152992D01*
X118667Y152962D01*
X118649Y152925D01*
X118630Y152881D01*
X118604Y152829D01*
X118575Y152770D01*
X118537Y152710D01*
X118500Y152644D01*
X118456Y152577D01*
X118404Y152507D01*
X118352Y152440D01*
X118293Y152374D01*
X118230Y152307D01*
X118160Y152248D01*
X118086Y152192D01*
X118082Y152189D01*
X118068Y152181D01*
X118045Y152166D01*
X118012Y152148D01*
X117971Y152129D01*
X117927Y152104D01*
X117868Y152081D01*
X117805Y152056D01*
X117735Y152030D01*
X117661Y152004D01*
X117576Y151978D01*
X117487Y151959D01*
X117391Y151941D01*
X117287Y151926D01*
X117180Y151919D01*
X117069Y151915D01*
X117028D01*
X117002Y151919D01*
X116976D01*
X116946Y151922D01*
X116910Y151926D01*
X116828Y151933D01*
X116739Y151948D01*
X116636Y151967D01*
X116525Y151993D01*
X116410Y152026D01*
X116292Y152070D01*
X116173Y152118D01*
X116055Y152181D01*
X115940Y152252D01*
X115833Y152337D01*
X115729Y152433D01*
X115637Y152544D01*
X115633Y152551D01*
X115622Y152566D01*
X115603Y152596D01*
X115581Y152636D01*
X115552Y152684D01*
X115522Y152744D01*
X115489Y152814D01*
X115455Y152895D01*
X115418Y152984D01*
X115385Y153080D01*
X115356Y153184D01*
X115330Y153299D01*
X115304Y153417D01*
X115285Y153547D01*
X115274Y153683D01*
X115270Y153824D01*
Y153828D01*
Y153835D01*
Y153846D01*
Y153865D01*
X115274Y153887D01*
Y153913D01*
Y153943D01*
X115278Y153976D01*
X115285Y154053D01*
X115296Y154142D01*
X115311Y154242D01*
X115330Y154350D01*
X115356Y154464D01*
X115389Y154583D01*
X115426Y154701D01*
X115474Y154823D01*
X115529Y154941D01*
X115592Y155056D01*
X115666Y155164D01*
X115751Y155267D01*
X115759Y155274D01*
X115774Y155289D01*
X115799Y155315D01*
X115837Y155349D01*
X115885Y155389D01*
X115944Y155434D01*
X116010Y155482D01*
X116084Y155530D01*
X116170Y155578D01*
X116262Y155626D01*
X116362Y155670D01*
X116469Y155711D01*
X116584Y155744D01*
X116706Y155770D01*
X116835Y155785D01*
X116972Y155792D01*
X117009D01*
X117028Y155789D01*
D02*
G37*
G36*
X103142Y150202D02*
X103172D01*
X103209Y150198D01*
X103290Y150195D01*
X103383Y150184D01*
X103483Y150169D01*
X103594Y150154D01*
X103708Y150132D01*
X103827Y150102D01*
X103949Y150069D01*
X104071Y150028D01*
X104186Y149977D01*
X104300Y149921D01*
X104404Y149854D01*
X104500Y149780D01*
X104508Y149777D01*
X104522Y149762D01*
X104545Y149736D01*
X104578Y149703D01*
X104615Y149662D01*
X104656Y149610D01*
X104700Y149551D01*
X104748Y149481D01*
X104796Y149407D01*
X104841Y149322D01*
X104885Y149229D01*
X104922Y149129D01*
X104959Y149022D01*
X104985Y148907D01*
X105003Y148785D01*
X105015Y148656D01*
X103982Y148611D01*
Y148615D01*
X103979Y148630D01*
X103975Y148648D01*
X103967Y148674D01*
X103960Y148707D01*
X103949Y148744D01*
X103938Y148785D01*
X103923Y148829D01*
X103882Y148922D01*
X103834Y149014D01*
X103771Y149103D01*
X103738Y149144D01*
X103697Y149177D01*
X103694Y149181D01*
X103686Y149185D01*
X103675Y149192D01*
X103657Y149203D01*
X103634Y149218D01*
X103605Y149233D01*
X103571Y149248D01*
X103534Y149266D01*
X103490Y149281D01*
X103442Y149296D01*
X103386Y149311D01*
X103327Y149325D01*
X103264Y149336D01*
X103198Y149344D01*
X103120Y149351D01*
X102998D01*
X102968Y149347D01*
X102931Y149344D01*
X102887Y149340D01*
X102839Y149336D01*
X102783Y149329D01*
X102672Y149307D01*
X102554Y149274D01*
X102495Y149251D01*
X102439Y149225D01*
X102387Y149196D01*
X102336Y149162D01*
X102328Y149159D01*
X102310Y149140D01*
X102284Y149114D01*
X102254Y149077D01*
X102225Y149033D01*
X102199Y148981D01*
X102180Y148918D01*
X102177Y148885D01*
X102173Y148848D01*
Y148844D01*
Y148841D01*
X102177Y148818D01*
X102180Y148785D01*
X102191Y148741D01*
X102210Y148693D01*
X102236Y148641D01*
X102273Y148589D01*
X102325Y148537D01*
X102328D01*
X102336Y148530D01*
X102347Y148522D01*
X102369Y148508D01*
X102395Y148493D01*
X102428Y148474D01*
X102469Y148456D01*
X102517Y148434D01*
X102576Y148408D01*
X102643Y148382D01*
X102720Y148352D01*
X102809Y148323D01*
X102909Y148289D01*
X103016Y148260D01*
X103142Y148226D01*
X103276Y148193D01*
X103279D01*
X103283Y148189D01*
X103294D01*
X103309Y148186D01*
X103346Y148175D01*
X103398Y148163D01*
X103461Y148145D01*
X103534Y148126D01*
X103612Y148104D01*
X103697Y148082D01*
X103786Y148053D01*
X103879Y148027D01*
X104064Y147964D01*
X104152Y147930D01*
X104237Y147893D01*
X104319Y147860D01*
X104389Y147823D01*
X104393Y147819D01*
X104404Y147816D01*
X104422Y147805D01*
X104448Y147790D01*
X104478Y147768D01*
X104515Y147745D01*
X104552Y147720D01*
X104596Y147686D01*
X104641Y147653D01*
X104685Y147612D01*
X104733Y147572D01*
X104781Y147523D01*
X104874Y147420D01*
X104915Y147361D01*
X104955Y147301D01*
X104959Y147298D01*
X104963Y147287D01*
X104974Y147268D01*
X104989Y147242D01*
X105003Y147209D01*
X105022Y147172D01*
X105040Y147127D01*
X105059Y147076D01*
X105077Y147020D01*
X105096Y146957D01*
X105114Y146891D01*
X105129Y146820D01*
X105144Y146743D01*
X105155Y146661D01*
X105159Y146576D01*
X105163Y146487D01*
Y146484D01*
Y146469D01*
Y146443D01*
X105159Y146413D01*
X105155Y146373D01*
X105148Y146328D01*
X105140Y146276D01*
X105133Y146221D01*
X105118Y146158D01*
X105103Y146091D01*
X105081Y146025D01*
X105059Y145955D01*
X105029Y145881D01*
X104996Y145807D01*
X104959Y145736D01*
X104915Y145662D01*
X104911Y145659D01*
X104903Y145648D01*
X104889Y145625D01*
X104870Y145599D01*
X104844Y145570D01*
X104815Y145533D01*
X104778Y145492D01*
X104737Y145448D01*
X104689Y145403D01*
X104637Y145355D01*
X104582Y145307D01*
X104519Y145263D01*
X104452Y145215D01*
X104382Y145170D01*
X104304Y145130D01*
X104223Y145092D01*
X104219Y145089D01*
X104204Y145085D01*
X104178Y145074D01*
X104141Y145063D01*
X104101Y145048D01*
X104049Y145033D01*
X103986Y145018D01*
X103919Y145000D01*
X103842Y144982D01*
X103756Y144967D01*
X103664Y144952D01*
X103568Y144937D01*
X103464Y144926D01*
X103353Y144915D01*
X103235Y144911D01*
X103113Y144907D01*
X103046D01*
X103020Y144911D01*
X102987D01*
X102954Y144915D01*
X102872Y144922D01*
X102776Y144930D01*
X102672Y144945D01*
X102561Y144963D01*
X102443Y144989D01*
X102321Y145018D01*
X102195Y145052D01*
X102073Y145096D01*
X101951Y145148D01*
X101832Y145207D01*
X101722Y145278D01*
X101618Y145355D01*
X101611Y145359D01*
X101596Y145377D01*
X101570Y145403D01*
X101537Y145440D01*
X101496Y145485D01*
X101448Y145544D01*
X101400Y145610D01*
X101348Y145688D01*
X101292Y145773D01*
X101241Y145873D01*
X101189Y145981D01*
X101141Y146095D01*
X101093Y146225D01*
X101056Y146362D01*
X101022Y146510D01*
X101000Y146665D01*
X102006Y146761D01*
Y146754D01*
X102010Y146739D01*
X102017Y146713D01*
X102025Y146680D01*
X102036Y146635D01*
X102051Y146587D01*
X102066Y146536D01*
X102084Y146480D01*
X102136Y146358D01*
X102165Y146295D01*
X102199Y146232D01*
X102236Y146173D01*
X102277Y146117D01*
X102325Y146066D01*
X102373Y146018D01*
X102376Y146014D01*
X102387Y146006D01*
X102402Y145995D01*
X102425Y145981D01*
X102450Y145962D01*
X102487Y145943D01*
X102524Y145921D01*
X102573Y145899D01*
X102621Y145877D01*
X102680Y145855D01*
X102739Y145836D01*
X102806Y145818D01*
X102880Y145803D01*
X102957Y145792D01*
X103039Y145784D01*
X103124Y145781D01*
X103172D01*
X103205Y145784D01*
X103246Y145788D01*
X103294Y145792D01*
X103349Y145799D01*
X103405Y145807D01*
X103527Y145833D01*
X103590Y145851D01*
X103653Y145870D01*
X103712Y145895D01*
X103771Y145921D01*
X103827Y145955D01*
X103875Y145992D01*
X103879Y145995D01*
X103886Y146003D01*
X103897Y146014D01*
X103916Y146029D01*
X103934Y146051D01*
X103956Y146073D01*
X103979Y146103D01*
X104004Y146132D01*
X104049Y146206D01*
X104089Y146288D01*
X104108Y146336D01*
X104119Y146380D01*
X104127Y146432D01*
X104130Y146484D01*
Y146487D01*
Y146491D01*
Y146513D01*
X104127Y146547D01*
X104115Y146591D01*
X104104Y146639D01*
X104086Y146691D01*
X104060Y146743D01*
X104023Y146791D01*
X104019Y146798D01*
X104001Y146813D01*
X103975Y146835D01*
X103938Y146869D01*
X103886Y146902D01*
X103819Y146942D01*
X103742Y146979D01*
X103697Y146998D01*
X103649Y147017D01*
X103646D01*
X103642Y147020D01*
X103627Y147024D01*
X103612Y147028D01*
X103586Y147035D01*
X103557Y147046D01*
X103520Y147057D01*
X103479Y147068D01*
X103427Y147083D01*
X103368Y147098D01*
X103301Y147116D01*
X103224Y147139D01*
X103139Y147161D01*
X103042Y147183D01*
X102935Y147209D01*
X102820Y147239D01*
X102817D01*
X102809Y147242D01*
X102798D01*
X102783Y147250D01*
X102765Y147253D01*
X102743Y147261D01*
X102687Y147275D01*
X102617Y147294D01*
X102539Y147320D01*
X102454Y147350D01*
X102365Y147379D01*
X102269Y147416D01*
X102173Y147453D01*
X102073Y147494D01*
X101980Y147538D01*
X101888Y147586D01*
X101803Y147638D01*
X101725Y147690D01*
X101655Y147745D01*
X101651Y147749D01*
X101636Y147764D01*
X101611Y147790D01*
X101581Y147819D01*
X101548Y147860D01*
X101507Y147912D01*
X101462Y147967D01*
X101422Y148034D01*
X101377Y148104D01*
X101333Y148182D01*
X101292Y148267D01*
X101259Y148356D01*
X101229Y148452D01*
X101204Y148556D01*
X101189Y148663D01*
X101185Y148774D01*
Y148778D01*
Y148793D01*
Y148811D01*
X101189Y148841D01*
X101192Y148874D01*
X101196Y148915D01*
X101204Y148963D01*
X101211Y149014D01*
X101226Y149066D01*
X101237Y149126D01*
X101255Y149185D01*
X101277Y149248D01*
X101303Y149314D01*
X101333Y149377D01*
X101366Y149444D01*
X101403Y149507D01*
X101407Y149510D01*
X101414Y149521D01*
X101426Y149540D01*
X101444Y149562D01*
X101466Y149592D01*
X101496Y149625D01*
X101529Y149658D01*
X101566Y149699D01*
X101611Y149740D01*
X101659Y149784D01*
X101710Y149825D01*
X101766Y149869D01*
X101829Y149910D01*
X101895Y149951D01*
X101966Y149991D01*
X102043Y150025D01*
X102047Y150028D01*
X102062Y150032D01*
X102088Y150043D01*
X102117Y150054D01*
X102158Y150065D01*
X102206Y150084D01*
X102262Y150099D01*
X102325Y150117D01*
X102395Y150132D01*
X102473Y150150D01*
X102554Y150165D01*
X102643Y150176D01*
X102739Y150191D01*
X102839Y150198D01*
X102943Y150202D01*
X103050Y150206D01*
X103116D01*
X103142Y150202D01*
D02*
G37*
G36*
X125464Y148789D02*
X125520D01*
X125583Y148785D01*
X125653Y148781D01*
X125727Y148774D01*
X125805Y148767D01*
X125886Y148756D01*
X126049Y148726D01*
X126127Y148711D01*
X126204Y148689D01*
X126275Y148663D01*
X126338Y148637D01*
X126341D01*
X126352Y148630D01*
X126367Y148622D01*
X126389Y148608D01*
X126415Y148593D01*
X126445Y148574D01*
X126515Y148530D01*
X126589Y148471D01*
X126663Y148404D01*
X126734Y148326D01*
X126763Y148286D01*
X126789Y148241D01*
Y148238D01*
X126796Y148230D01*
X126800Y148215D01*
X126811Y148193D01*
X126819Y148167D01*
X126830Y148130D01*
X126845Y148090D01*
X126856Y148041D01*
X126867Y147986D01*
X126882Y147919D01*
X126893Y147849D01*
X126900Y147768D01*
X126911Y147679D01*
X126915Y147583D01*
X126922Y147475D01*
Y147361D01*
X126907Y146217D01*
Y146214D01*
Y146195D01*
Y146169D01*
Y146136D01*
Y146095D01*
X126911Y146051D01*
Y145999D01*
X126915Y145943D01*
X126918Y145825D01*
X126926Y145707D01*
X126930Y145648D01*
X126937Y145592D01*
X126944Y145544D01*
X126952Y145496D01*
Y145492D01*
X126955Y145485D01*
Y145474D01*
X126963Y145455D01*
X126967Y145433D01*
X126974Y145407D01*
X126992Y145348D01*
X127015Y145274D01*
X127048Y145189D01*
X127085Y145096D01*
X127129Y145000D01*
X126160D01*
Y145004D01*
X126153Y145018D01*
X126145Y145041D01*
X126134Y145074D01*
X126119Y145115D01*
X126101Y145163D01*
X126082Y145222D01*
X126064Y145289D01*
Y145292D01*
X126060Y145303D01*
X126056Y145318D01*
X126049Y145337D01*
X126038Y145374D01*
X126034Y145388D01*
X126031Y145403D01*
X126027Y145400D01*
X126019Y145392D01*
X126005Y145381D01*
X125986Y145363D01*
X125964Y145344D01*
X125934Y145318D01*
X125905Y145292D01*
X125868Y145266D01*
X125790Y145207D01*
X125698Y145144D01*
X125598Y145089D01*
X125490Y145037D01*
X125487D01*
X125479Y145033D01*
X125461Y145026D01*
X125442Y145018D01*
X125413Y145007D01*
X125383Y145000D01*
X125346Y144989D01*
X125309Y144978D01*
X125265Y144963D01*
X125216Y144952D01*
X125113Y144933D01*
X124998Y144919D01*
X124880Y144915D01*
X124854D01*
X124824Y144919D01*
X124784D01*
X124735Y144926D01*
X124680Y144930D01*
X124621Y144941D01*
X124550Y144956D01*
X124480Y144970D01*
X124406Y144993D01*
X124332Y145015D01*
X124258Y145044D01*
X124184Y145081D01*
X124110Y145122D01*
X124040Y145170D01*
X123977Y145226D01*
X123973Y145229D01*
X123962Y145240D01*
X123947Y145259D01*
X123925Y145281D01*
X123899Y145311D01*
X123873Y145348D01*
X123844Y145392D01*
X123814Y145440D01*
X123781Y145496D01*
X123751Y145555D01*
X123725Y145618D01*
X123699Y145688D01*
X123677Y145762D01*
X123662Y145840D01*
X123651Y145925D01*
X123648Y146010D01*
Y146014D01*
Y146025D01*
Y146040D01*
X123651Y146062D01*
Y146091D01*
X123655Y146121D01*
X123659Y146158D01*
X123666Y146199D01*
X123685Y146284D01*
X123711Y146380D01*
X123748Y146476D01*
X123796Y146569D01*
X123799Y146572D01*
X123803Y146580D01*
X123811Y146591D01*
X123825Y146609D01*
X123859Y146654D01*
X123907Y146709D01*
X123966Y146769D01*
X124036Y146832D01*
X124121Y146894D01*
X124217Y146946D01*
X124221D01*
X124229Y146954D01*
X124247Y146961D01*
X124269Y146968D01*
X124295Y146979D01*
X124328Y146994D01*
X124369Y147009D01*
X124417Y147024D01*
X124469Y147042D01*
X124528Y147061D01*
X124591Y147079D01*
X124662Y147098D01*
X124735Y147120D01*
X124817Y147139D01*
X124906Y147157D01*
X124998Y147176D01*
X125006D01*
X125028Y147183D01*
X125065Y147187D01*
X125109Y147198D01*
X125165Y147209D01*
X125231Y147224D01*
X125302Y147239D01*
X125376Y147253D01*
X125535Y147294D01*
X125690Y147335D01*
X125764Y147353D01*
X125834Y147375D01*
X125897Y147398D01*
X125953Y147420D01*
Y147516D01*
Y147520D01*
Y147527D01*
Y147542D01*
X125949Y147560D01*
Y147586D01*
X125945Y147612D01*
X125934Y147671D01*
X125919Y147738D01*
X125894Y147805D01*
X125860Y147868D01*
X125838Y147893D01*
X125812Y147919D01*
X125805Y147923D01*
X125797Y147930D01*
X125783Y147938D01*
X125768Y147949D01*
X125746Y147956D01*
X125723Y147967D01*
X125694Y147982D01*
X125661Y147993D01*
X125620Y148004D01*
X125579Y148012D01*
X125531Y148023D01*
X125476Y148030D01*
X125416Y148038D01*
X125353Y148041D01*
X125239D01*
X125216Y148038D01*
X125191D01*
X125135Y148030D01*
X125068Y148015D01*
X124998Y147997D01*
X124932Y147971D01*
X124872Y147938D01*
X124865Y147934D01*
X124850Y147919D01*
X124821Y147890D01*
X124791Y147853D01*
X124754Y147805D01*
X124713Y147742D01*
X124676Y147664D01*
X124639Y147575D01*
X123748Y147734D01*
X123751Y147742D01*
X123755Y147757D01*
X123762Y147786D01*
X123777Y147823D01*
X123792Y147868D01*
X123814Y147919D01*
X123840Y147975D01*
X123866Y148034D01*
X123899Y148101D01*
X123940Y148163D01*
X123981Y148230D01*
X124029Y148297D01*
X124077Y148360D01*
X124136Y148423D01*
X124195Y148478D01*
X124262Y148530D01*
X124266Y148533D01*
X124280Y148541D01*
X124303Y148556D01*
X124332Y148571D01*
X124369Y148589D01*
X124417Y148611D01*
X124473Y148637D01*
X124539Y148663D01*
X124610Y148685D01*
X124691Y148711D01*
X124784Y148733D01*
X124880Y148752D01*
X124987Y148767D01*
X125102Y148781D01*
X125224Y148789D01*
X125357Y148793D01*
X125420D01*
X125464Y148789D01*
D02*
G37*
G36*
X120603Y145866D02*
X123174D01*
Y145000D01*
X119570D01*
Y150076D01*
X120603D01*
Y145866D01*
D02*
G37*
G36*
X116584Y149255D02*
X113821D01*
Y148119D01*
X116392D01*
Y147253D01*
X113821D01*
Y145866D01*
X116681D01*
Y145000D01*
X112788D01*
Y150121D01*
X116584D01*
Y149255D01*
D02*
G37*
G36*
X111800Y145000D02*
X110768D01*
Y150121D01*
X111800D01*
Y145000D01*
D02*
G37*
G36*
X107915Y150117D02*
X108000D01*
X108093Y150113D01*
X108193Y150110D01*
X108400Y150102D01*
X108504Y150095D01*
X108604Y150087D01*
X108696Y150080D01*
X108781Y150069D01*
X108855Y150058D01*
X108885Y150050D01*
X108914Y150043D01*
X108918D01*
X108933Y150036D01*
X108959Y150028D01*
X108988Y150021D01*
X109025Y150006D01*
X109070Y149988D01*
X109118Y149965D01*
X109173Y149936D01*
X109229Y149906D01*
X109288Y149869D01*
X109347Y149829D01*
X109410Y149784D01*
X109473Y149732D01*
X109536Y149673D01*
X109595Y149610D01*
X109651Y149540D01*
X109654Y149536D01*
X109665Y149521D01*
X109680Y149499D01*
X109699Y149470D01*
X109721Y149433D01*
X109747Y149384D01*
X109773Y149333D01*
X109802Y149270D01*
X109828Y149203D01*
X109854Y149129D01*
X109880Y149048D01*
X109902Y148959D01*
X109924Y148863D01*
X109939Y148763D01*
X109947Y148656D01*
X109950Y148545D01*
Y148541D01*
Y148522D01*
Y148500D01*
X109947Y148467D01*
Y148426D01*
X109943Y148378D01*
X109935Y148326D01*
X109928Y148267D01*
X109921Y148208D01*
X109910Y148141D01*
X109876Y148008D01*
X109836Y147875D01*
X109806Y147812D01*
X109776Y147749D01*
X109773Y147745D01*
X109769Y147734D01*
X109758Y147720D01*
X109747Y147697D01*
X109728Y147671D01*
X109710Y147638D01*
X109658Y147568D01*
X109595Y147486D01*
X109521Y147401D01*
X109436Y147320D01*
X109344Y147246D01*
X109340Y147242D01*
X109332Y147239D01*
X109318Y147227D01*
X109299Y147216D01*
X109273Y147202D01*
X109247Y147183D01*
X109214Y147164D01*
X109177Y147146D01*
X109096Y147105D01*
X109007Y147065D01*
X108911Y147028D01*
X108807Y147002D01*
X108803D01*
X108789Y146998D01*
X108770Y146994D01*
X108737Y146991D01*
X108700Y146987D01*
X108652Y146979D01*
X108600Y146972D01*
X108533Y146968D01*
X108463Y146961D01*
X108385Y146954D01*
X108296Y146946D01*
X108200Y146942D01*
X108097Y146939D01*
X107986Y146935D01*
X107863Y146931D01*
X107064D01*
Y145000D01*
X106032D01*
Y150121D01*
X107838D01*
X107915Y150117D01*
D02*
G37*
G36*
X128820Y148275D02*
X128824Y148282D01*
X128842Y148297D01*
X128865Y148323D01*
X128902Y148356D01*
X128942Y148397D01*
X128994Y148437D01*
X129057Y148485D01*
X129124Y148533D01*
X129198Y148582D01*
X129279Y148630D01*
X129368Y148674D01*
X129464Y148711D01*
X129564Y148744D01*
X129668Y148770D01*
X129779Y148785D01*
X129893Y148793D01*
X129923D01*
X129960Y148789D01*
X130008Y148785D01*
X130063Y148778D01*
X130134Y148767D01*
X130208Y148752D01*
X130289Y148730D01*
X130378Y148704D01*
X130467Y148674D01*
X130559Y148633D01*
X130656Y148585D01*
X130748Y148530D01*
X130844Y148463D01*
X130933Y148386D01*
X131018Y148300D01*
X131022Y148293D01*
X131037Y148278D01*
X131059Y148249D01*
X131088Y148208D01*
X131122Y148160D01*
X131159Y148097D01*
X131199Y148023D01*
X131240Y147942D01*
X131281Y147845D01*
X131322Y147742D01*
X131359Y147623D01*
X131392Y147497D01*
X131421Y147361D01*
X131444Y147216D01*
X131458Y147057D01*
X131462Y146891D01*
Y146887D01*
Y146880D01*
Y146869D01*
Y146850D01*
Y146828D01*
X131458Y146798D01*
Y146769D01*
X131455Y146735D01*
X131447Y146654D01*
X131440Y146561D01*
X131425Y146461D01*
X131407Y146351D01*
X131381Y146236D01*
X131351Y146114D01*
X131314Y145992D01*
X131270Y145873D01*
X131218Y145751D01*
X131159Y145636D01*
X131088Y145525D01*
X131007Y145425D01*
X131003Y145418D01*
X130985Y145403D01*
X130963Y145377D01*
X130926Y145344D01*
X130881Y145307D01*
X130829Y145263D01*
X130770Y145218D01*
X130700Y145170D01*
X130626Y145122D01*
X130541Y145078D01*
X130448Y145033D01*
X130352Y144996D01*
X130248Y144963D01*
X130141Y144937D01*
X130026Y144922D01*
X129908Y144915D01*
X129878D01*
X129853Y144919D01*
X129827D01*
X129790Y144922D01*
X129753Y144930D01*
X129712Y144933D01*
X129616Y144956D01*
X129508Y144982D01*
X129394Y145022D01*
X129338Y145044D01*
X129279Y145074D01*
X129275Y145078D01*
X129264Y145081D01*
X129250Y145092D01*
X129227Y145104D01*
X129201Y145122D01*
X129172Y145141D01*
X129135Y145167D01*
X129098Y145192D01*
X129016Y145259D01*
X128928Y145340D01*
X128835Y145433D01*
X128750Y145544D01*
Y145000D01*
X127840D01*
Y150121D01*
X128820D01*
Y148275D01*
D02*
G37*
%LPC*%
G36*
X112962Y155016D02*
X112928D01*
X112902Y155012D01*
X112873Y155008D01*
X112836Y155001D01*
X112795Y154993D01*
X112751Y154982D01*
X112706Y154967D01*
X112658Y154945D01*
X112606Y154923D01*
X112558Y154897D01*
X112506Y154864D01*
X112458Y154827D01*
X112410Y154782D01*
X112362Y154734D01*
X112358Y154731D01*
X112351Y154723D01*
X112340Y154705D01*
X112325Y154683D01*
X112307Y154653D01*
X112288Y154620D01*
X112266Y154575D01*
X112244Y154527D01*
X112222Y154472D01*
X112199Y154412D01*
X112181Y154346D01*
X112162Y154272D01*
X112148Y154190D01*
X112136Y154105D01*
X112129Y154013D01*
X112125Y153913D01*
Y153905D01*
Y153887D01*
Y153854D01*
X112129Y153809D01*
X112133Y153758D01*
X112140Y153698D01*
X112148Y153635D01*
X112155Y153561D01*
X112185Y153413D01*
X112207Y153336D01*
X112229Y153258D01*
X112259Y153184D01*
X112292Y153114D01*
X112329Y153047D01*
X112373Y152988D01*
X112377Y152984D01*
X112384Y152977D01*
X112399Y152962D01*
X112418Y152944D01*
X112444Y152918D01*
X112469Y152895D01*
X112503Y152866D01*
X112543Y152840D01*
X112584Y152814D01*
X112632Y152784D01*
X112680Y152762D01*
X112732Y152740D01*
X112791Y152718D01*
X112851Y152703D01*
X112914Y152696D01*
X112980Y152692D01*
X112995D01*
X113013Y152696D01*
X113039D01*
X113065Y152699D01*
X113102Y152707D01*
X113139Y152714D01*
X113180Y152725D01*
X113224Y152740D01*
X113272Y152759D01*
X113321Y152781D01*
X113369Y152807D01*
X113417Y152840D01*
X113465Y152877D01*
X113509Y152918D01*
X113554Y152966D01*
X113557Y152969D01*
X113565Y152980D01*
X113576Y152995D01*
X113591Y153017D01*
X113605Y153047D01*
X113628Y153084D01*
X113646Y153129D01*
X113668Y153180D01*
X113690Y153240D01*
X113709Y153306D01*
X113731Y153380D01*
X113746Y153462D01*
X113761Y153550D01*
X113772Y153647D01*
X113779Y153750D01*
X113783Y153865D01*
Y153872D01*
Y153891D01*
Y153920D01*
X113779Y153961D01*
X113776Y154009D01*
X113772Y154065D01*
X113765Y154128D01*
X113753Y154194D01*
X113724Y154335D01*
X113705Y154405D01*
X113683Y154475D01*
X113657Y154546D01*
X113624Y154612D01*
X113587Y154675D01*
X113546Y154731D01*
X113542Y154734D01*
X113535Y154742D01*
X113524Y154756D01*
X113505Y154775D01*
X113480Y154797D01*
X113454Y154819D01*
X113420Y154845D01*
X113383Y154875D01*
X113343Y154901D01*
X113298Y154927D01*
X113250Y154949D01*
X113198Y154971D01*
X113147Y154990D01*
X113087Y155004D01*
X113024Y155012D01*
X112962Y155016D01*
D02*
G37*
G36*
X107271Y153780D02*
X107267D01*
X107264Y153776D01*
X107253Y153772D01*
X107234Y153769D01*
X107215Y153761D01*
X107190Y153754D01*
X107160Y153746D01*
X107123Y153739D01*
X107082Y153728D01*
X107038Y153717D01*
X106990Y153702D01*
X106934Y153691D01*
X106875Y153676D01*
X106812Y153661D01*
X106742Y153643D01*
X106668Y153628D01*
X106664D01*
X106649Y153624D01*
X106631Y153621D01*
X106601Y153613D01*
X106568Y153606D01*
X106531Y153595D01*
X106450Y153572D01*
X106361Y153547D01*
X106272Y153521D01*
X106231Y153502D01*
X106194Y153487D01*
X106161Y153473D01*
X106135Y153458D01*
X106131D01*
X106128Y153450D01*
X106105Y153432D01*
X106076Y153402D01*
X106043Y153362D01*
X106006Y153314D01*
X105976Y153254D01*
X105954Y153184D01*
X105950Y153147D01*
X105946Y153110D01*
Y153106D01*
Y153103D01*
Y153092D01*
X105950Y153077D01*
X105954Y153036D01*
X105965Y152988D01*
X105983Y152932D01*
X106009Y152873D01*
X106046Y152814D01*
X106098Y152755D01*
X106105Y152747D01*
X106128Y152733D01*
X106161Y152707D01*
X106205Y152681D01*
X106261Y152655D01*
X106327Y152629D01*
X106405Y152614D01*
X106490Y152607D01*
X106516D01*
X106535Y152611D01*
X106561D01*
X106587Y152618D01*
X106653Y152629D01*
X106731Y152651D01*
X106816Y152681D01*
X106905Y152725D01*
X106953Y152751D01*
X106997Y152781D01*
X107001D01*
X107005Y152788D01*
X107027Y152803D01*
X107056Y152832D01*
X107093Y152869D01*
X107134Y152918D01*
X107171Y152973D01*
X107204Y153036D01*
X107230Y153103D01*
X107234Y153110D01*
X107238Y153129D01*
X107241Y153143D01*
X107245Y153162D01*
X107249Y153184D01*
X107253Y153210D01*
X107256Y153240D01*
X107260Y153277D01*
Y153314D01*
X107264Y153358D01*
X107267Y153406D01*
X107271Y153462D01*
Y153521D01*
Y153584D01*
Y153780D01*
D02*
G37*
G36*
X129353Y155041D02*
X129323D01*
X129301Y155038D01*
X129271Y155034D01*
X129238Y155030D01*
X129205Y155023D01*
X129164Y155012D01*
X129083Y154982D01*
X129038Y154964D01*
X128994Y154941D01*
X128946Y154916D01*
X128905Y154882D01*
X128860Y154845D01*
X128820Y154805D01*
X128816Y154801D01*
X128812Y154794D01*
X128801Y154779D01*
X128787Y154760D01*
X128772Y154738D01*
X128753Y154708D01*
X128735Y154675D01*
X128716Y154638D01*
X128694Y154594D01*
X128675Y154546D01*
X128661Y154494D01*
X128642Y154438D01*
X128631Y154375D01*
X128620Y154313D01*
X128613Y154242D01*
Y154168D01*
X130085D01*
Y154172D01*
Y154187D01*
X130081Y154209D01*
Y154238D01*
X130078Y154276D01*
X130070Y154316D01*
X130063Y154361D01*
X130052Y154409D01*
X130026Y154512D01*
X129985Y154620D01*
X129963Y154675D01*
X129934Y154723D01*
X129900Y154771D01*
X129863Y154816D01*
X129859Y154819D01*
X129852Y154827D01*
X129841Y154838D01*
X129826Y154853D01*
X129804Y154867D01*
X129782Y154886D01*
X129752Y154908D01*
X129719Y154930D01*
X129645Y154971D01*
X129560Y155008D01*
X129512Y155019D01*
X129460Y155030D01*
X129408Y155038D01*
X129353Y155041D01*
D02*
G37*
G36*
X117032D02*
X117002D01*
X116980Y155038D01*
X116950Y155034D01*
X116917Y155030D01*
X116884Y155023D01*
X116843Y155012D01*
X116762Y154982D01*
X116717Y154964D01*
X116673Y154941D01*
X116625Y154916D01*
X116584Y154882D01*
X116540Y154845D01*
X116499Y154805D01*
X116495Y154801D01*
X116491Y154794D01*
X116480Y154779D01*
X116465Y154760D01*
X116451Y154738D01*
X116432Y154708D01*
X116414Y154675D01*
X116395Y154638D01*
X116373Y154594D01*
X116355Y154546D01*
X116340Y154494D01*
X116321Y154438D01*
X116310Y154375D01*
X116299Y154313D01*
X116292Y154242D01*
Y154168D01*
X117764D01*
Y154172D01*
Y154187D01*
X117761Y154209D01*
Y154238D01*
X117757Y154276D01*
X117749Y154316D01*
X117742Y154361D01*
X117731Y154409D01*
X117705Y154512D01*
X117664Y154620D01*
X117642Y154675D01*
X117613Y154723D01*
X117579Y154771D01*
X117542Y154816D01*
X117538Y154819D01*
X117531Y154827D01*
X117520Y154838D01*
X117505Y154853D01*
X117483Y154867D01*
X117461Y154886D01*
X117431Y154908D01*
X117398Y154930D01*
X117324Y154971D01*
X117239Y155008D01*
X117191Y155019D01*
X117139Y155030D01*
X117087Y155038D01*
X117032Y155041D01*
D02*
G37*
G36*
X125953Y146780D02*
X125949D01*
X125945Y146776D01*
X125934Y146772D01*
X125916Y146769D01*
X125897Y146761D01*
X125871Y146754D01*
X125842Y146746D01*
X125805Y146739D01*
X125764Y146728D01*
X125720Y146717D01*
X125672Y146702D01*
X125616Y146691D01*
X125557Y146676D01*
X125494Y146661D01*
X125424Y146643D01*
X125350Y146628D01*
X125346D01*
X125331Y146624D01*
X125313Y146621D01*
X125283Y146613D01*
X125250Y146606D01*
X125213Y146595D01*
X125131Y146572D01*
X125043Y146547D01*
X124954Y146521D01*
X124913Y146502D01*
X124876Y146487D01*
X124843Y146473D01*
X124817Y146458D01*
X124813D01*
X124810Y146450D01*
X124787Y146432D01*
X124758Y146402D01*
X124724Y146362D01*
X124687Y146314D01*
X124658Y146254D01*
X124636Y146184D01*
X124632Y146147D01*
X124628Y146110D01*
Y146106D01*
Y146103D01*
Y146091D01*
X124632Y146077D01*
X124636Y146036D01*
X124647Y145988D01*
X124665Y145932D01*
X124691Y145873D01*
X124728Y145814D01*
X124780Y145755D01*
X124787Y145747D01*
X124810Y145733D01*
X124843Y145707D01*
X124887Y145681D01*
X124943Y145655D01*
X125009Y145629D01*
X125087Y145614D01*
X125172Y145607D01*
X125198D01*
X125216Y145610D01*
X125242D01*
X125268Y145618D01*
X125335Y145629D01*
X125413Y145651D01*
X125498Y145681D01*
X125586Y145725D01*
X125635Y145751D01*
X125679Y145781D01*
X125683D01*
X125686Y145788D01*
X125709Y145803D01*
X125738Y145833D01*
X125775Y145870D01*
X125816Y145918D01*
X125853Y145973D01*
X125886Y146036D01*
X125912Y146103D01*
X125916Y146110D01*
X125919Y146128D01*
X125923Y146143D01*
X125927Y146162D01*
X125931Y146184D01*
X125934Y146210D01*
X125938Y146239D01*
X125942Y146276D01*
Y146314D01*
X125945Y146358D01*
X125949Y146406D01*
X125953Y146461D01*
Y146521D01*
Y146584D01*
Y146780D01*
D02*
G37*
G36*
X107753Y149255D02*
X107064D01*
Y147797D01*
X107727D01*
X107775Y147801D01*
X107830D01*
X107893Y147805D01*
X107956Y147808D01*
X108093Y147816D01*
X108226Y147830D01*
X108289Y147838D01*
X108348Y147849D01*
X108396Y147860D01*
X108441Y147875D01*
X108444D01*
X108452Y147879D01*
X108459Y147882D01*
X108474Y147890D01*
X108511Y147908D01*
X108559Y147938D01*
X108611Y147971D01*
X108666Y148015D01*
X108718Y148067D01*
X108766Y148126D01*
Y148130D01*
X108770Y148134D01*
X108777Y148145D01*
X108785Y148156D01*
X108803Y148193D01*
X108826Y148241D01*
X108848Y148300D01*
X108866Y148367D01*
X108881Y148445D01*
X108885Y148526D01*
Y148530D01*
Y148537D01*
Y148552D01*
X108881Y148574D01*
Y148596D01*
X108877Y148626D01*
X108862Y148689D01*
X108844Y148763D01*
X108814Y148841D01*
X108774Y148918D01*
X108748Y148955D01*
X108718Y148989D01*
Y148992D01*
X108711Y148996D01*
X108689Y149018D01*
X108655Y149048D01*
X108607Y149089D01*
X108544Y149126D01*
X108474Y149162D01*
X108393Y149196D01*
X108304Y149218D01*
X108296D01*
X108282Y149222D01*
X108267Y149225D01*
X108245D01*
X108215Y149229D01*
X108182Y149233D01*
X108141Y149237D01*
X108093Y149240D01*
X108041Y149244D01*
X107982Y149248D01*
X107912D01*
X107838Y149251D01*
X107753Y149255D01*
D02*
G37*
G36*
X129634Y148041D02*
X129601D01*
X129575Y148038D01*
X129545Y148034D01*
X129508Y148027D01*
X129472Y148019D01*
X129427Y148008D01*
X129383Y147993D01*
X129335Y147975D01*
X129287Y147953D01*
X129235Y147923D01*
X129187Y147893D01*
X129139Y147856D01*
X129090Y147812D01*
X129046Y147764D01*
X129042Y147760D01*
X129035Y147753D01*
X129024Y147734D01*
X129009Y147712D01*
X128990Y147682D01*
X128972Y147649D01*
X128950Y147605D01*
X128931Y147557D01*
X128909Y147501D01*
X128887Y147442D01*
X128868Y147372D01*
X128850Y147298D01*
X128835Y147216D01*
X128824Y147127D01*
X128817Y147031D01*
X128813Y146931D01*
Y146924D01*
Y146906D01*
Y146876D01*
X128817Y146839D01*
X128820Y146791D01*
X128824Y146735D01*
X128828Y146676D01*
X128835Y146609D01*
X128857Y146473D01*
X128891Y146332D01*
X128909Y146262D01*
X128935Y146195D01*
X128961Y146136D01*
X128994Y146080D01*
X128998Y146077D01*
X129005Y146066D01*
X129020Y146043D01*
X129042Y146021D01*
X129068Y145992D01*
X129098Y145958D01*
X129135Y145921D01*
X129175Y145888D01*
X129220Y145851D01*
X129272Y145814D01*
X129327Y145781D01*
X129386Y145751D01*
X129453Y145729D01*
X129520Y145710D01*
X129594Y145696D01*
X129671Y145692D01*
X129686D01*
X129705Y145696D01*
X129727D01*
X129753Y145699D01*
X129786Y145707D01*
X129823Y145714D01*
X129864Y145725D01*
X129904Y145740D01*
X129949Y145758D01*
X129997Y145781D01*
X130041Y145810D01*
X130089Y145840D01*
X130138Y145877D01*
X130182Y145921D01*
X130226Y145969D01*
X130230Y145973D01*
X130237Y145984D01*
X130248Y145999D01*
X130263Y146021D01*
X130278Y146051D01*
X130300Y146088D01*
X130319Y146132D01*
X130341Y146184D01*
X130363Y146239D01*
X130382Y146306D01*
X130404Y146376D01*
X130419Y146454D01*
X130433Y146539D01*
X130445Y146635D01*
X130452Y146735D01*
X130456Y146843D01*
Y146846D01*
Y146850D01*
Y146872D01*
Y146902D01*
X130452Y146946D01*
X130448Y146998D01*
X130445Y147057D01*
X130437Y147124D01*
X130426Y147198D01*
X130400Y147346D01*
X130382Y147424D01*
X130356Y147497D01*
X130330Y147572D01*
X130300Y147642D01*
X130263Y147705D01*
X130223Y147760D01*
X130219Y147764D01*
X130211Y147771D01*
X130200Y147786D01*
X130182Y147805D01*
X130160Y147827D01*
X130130Y147849D01*
X130101Y147875D01*
X130063Y147901D01*
X130023Y147927D01*
X129978Y147953D01*
X129930Y147975D01*
X129878Y147997D01*
X129823Y148015D01*
X129764Y148030D01*
X129701Y148038D01*
X129634Y148041D01*
D02*
G37*
%LPD*%
D14*
X90547Y103453D02*
X97500Y96500D01*
X90547Y103453D02*
Y109453D01*
X88500Y111500D02*
X90547Y109453D01*
X80000Y111500D02*
X88500D01*
X77102Y108602D02*
X80000Y111500D01*
X77102Y98409D02*
Y108602D01*
X97500Y96500D02*
X104500D01*
X77102Y98409D02*
X77883Y99190D01*
D15*
X30000Y150763D02*
X33685Y154447D01*
X30000Y93263D02*
Y150763D01*
X25927Y89189D02*
X30000Y93263D01*
X76053Y154447D02*
X83000Y147500D01*
X33685Y154447D02*
X76053D01*
X13347Y67825D02*
X17673Y63500D01*
X13347Y67825D02*
Y85841D01*
X17673Y63500D02*
X19000D01*
X13347Y85841D02*
X16695Y89189D01*
X25927D01*
X34347Y152847D02*
X67653D01*
X31900Y150400D02*
X34347Y152847D01*
X67653D02*
X73000Y147500D01*
X31900Y92900D02*
Y150400D01*
X26589Y87589D02*
X31900Y92900D01*
X16531Y74469D02*
X18092D01*
X14947Y76053D02*
X16531Y74469D01*
X14947Y76053D02*
Y85179D01*
X18061Y74439D02*
X19000Y73500D01*
X14947Y85179D02*
X17358Y87589D01*
X26589D01*
X94250Y65668D02*
Y66085D01*
X89835Y70500D02*
X94250Y66085D01*
X57492Y89564D02*
X61933D01*
X53456Y93600D02*
X57492Y89564D01*
X61933D02*
X61945Y89551D01*
X56618Y92701D02*
X61945D01*
X54118Y95200D02*
X56618Y92701D01*
X37600Y93600D02*
X53456D01*
X36937Y95200D02*
X54118D01*
X71799Y92701D02*
X75000Y89500D01*
X61945Y92701D02*
X71799D01*
X75000Y74500D02*
Y89500D01*
Y74500D02*
X79000Y70500D01*
X89835D01*
X25237Y83500D02*
X36937Y95200D01*
X29000Y85000D02*
X37600Y93600D01*
X89701Y92201D02*
Y98409D01*
X80500Y83000D02*
X89701Y92201D01*
X80500Y73000D02*
Y83000D01*
X83500Y73000D02*
Y83331D01*
X92189Y92020D01*
X86500Y73000D02*
Y83182D01*
X92189Y88870D01*
X89500Y73000D02*
Y83032D01*
X92189Y85720D01*
X92189Y92020D02*
X94728D01*
X95410Y92701D01*
X92189Y88870D02*
X94728D01*
X95410Y89551D01*
X92189Y85720D02*
X94728D01*
X95410Y86402D01*
X74315Y109815D02*
X74500Y110000D01*
X74315Y98771D02*
Y109815D01*
X73953Y98409D02*
X74315Y98771D01*
X72000Y107238D02*
Y107500D01*
X71084Y106322D02*
X72000Y107238D01*
X71084Y98690D02*
Y106322D01*
X70803Y98409D02*
X71084Y98690D01*
X69000Y105238D02*
Y105500D01*
X67654Y103892D02*
X69000Y105238D01*
X67654Y98409D02*
Y103892D01*
X19000Y83500D02*
X25237D01*
X26000Y73500D02*
X29000Y76500D01*
X19000Y73500D02*
X26000D01*
X29000Y76500D02*
Y85000D01*
X58500Y101500D02*
X58835D01*
X100476Y76976D02*
X100500Y77000D01*
X95433Y76976D02*
X100476D01*
X95410Y76953D02*
X95433Y76976D01*
D16*
X14000Y123500D02*
D03*
X6000D02*
D03*
X112500Y96500D02*
D03*
X104500D02*
D03*
X57000Y108000D02*
D03*
X65000D02*
D03*
X104500Y88500D02*
D03*
X112500D02*
D03*
Y72500D02*
D03*
X104500D02*
D03*
X112500Y80500D02*
D03*
X104500D02*
D03*
D17*
X35899Y65377D02*
D03*
Y81125D02*
D03*
D18*
X49874Y135976D02*
D03*
Y118024D02*
D03*
D19*
X76646Y127000D02*
D03*
D20*
X61945Y92701D02*
D03*
Y89551D02*
D03*
Y86402D02*
D03*
Y83252D02*
D03*
Y80102D02*
D03*
Y76953D02*
D03*
Y73803D02*
D03*
Y70653D02*
D03*
X95410D02*
D03*
Y73803D02*
D03*
Y76953D02*
D03*
Y80102D02*
D03*
Y83252D02*
D03*
Y86402D02*
D03*
Y89551D02*
D03*
Y92701D02*
D03*
D21*
X67654Y64945D02*
D03*
X70803D02*
D03*
X73953D02*
D03*
X77102D02*
D03*
X80252D02*
D03*
X83402D02*
D03*
X86551D02*
D03*
X89701D02*
D03*
Y98409D02*
D03*
X86551D02*
D03*
X83402D02*
D03*
X80252D02*
D03*
X77102D02*
D03*
X73953D02*
D03*
X70803D02*
D03*
X67654D02*
D03*
D22*
X41500Y90500D02*
D03*
Y98500D02*
D03*
X40000Y131500D02*
D03*
Y123500D02*
D03*
X50000Y98500D02*
D03*
Y90500D02*
D03*
Y84500D02*
D03*
Y76500D02*
D03*
Y61500D02*
D03*
Y69500D02*
D03*
D36*
X63600Y49600D02*
X67654Y53654D01*
X33500Y49600D02*
X63600D01*
X67654Y53654D02*
Y64945D01*
X113750Y74500D02*
X117000D01*
X119697Y72788D02*
Y89697D01*
X115059Y68150D02*
X119697Y72788D01*
X91500Y19000D02*
X92343Y19843D01*
Y21843D01*
X114500Y44000D01*
X86500Y32585D02*
X90218Y36303D01*
X86500Y23500D02*
Y32585D01*
X82000Y19000D02*
X86500Y23500D01*
X81500Y19000D02*
X82000D01*
X90218Y36303D02*
X96803D01*
X104500Y44000D01*
X79000Y49500D02*
X84500Y44000D01*
X79000Y49500D02*
Y57085D01*
X76500Y32585D02*
X80415Y36500D01*
X76500Y22808D02*
Y32585D01*
X72692Y19000D02*
X76500Y22808D01*
X71500Y19000D02*
X72692D01*
X80415Y36500D02*
X87000D01*
X94500Y44000D01*
X70364Y36864D02*
X77364D01*
X66500Y33000D02*
X70364Y36864D01*
X66500Y24000D02*
Y33000D01*
X77364Y36864D02*
X84500Y44000D01*
X61500Y19000D02*
X66500Y24000D01*
X56303Y23803D02*
Y35303D01*
X51500Y19000D02*
X56303Y23803D01*
Y35303D02*
X59964Y38964D01*
X72464D01*
X76900Y43400D01*
Y58700D01*
X74800Y46000D02*
Y59749D01*
X72700Y47200D02*
Y60619D01*
X69000Y43500D02*
X72700Y47200D01*
X19000Y43500D02*
X69000D01*
X70600Y49479D02*
Y64742D01*
X68621Y47500D02*
X70600Y49479D01*
X25000Y47500D02*
X68621D01*
X70200Y41400D02*
X74800Y46000D01*
X53900Y41400D02*
X70200D01*
X47601Y35101D02*
X53900Y41400D01*
X47601Y25101D02*
Y35101D01*
X41500Y19000D02*
X47601Y25101D01*
X61713Y80334D02*
X61912Y80533D01*
X49000Y61500D02*
X49500Y61000D01*
X154500Y56500D02*
Y89000D01*
X123214Y93214D02*
Y94000D01*
X104500Y72500D02*
Y72553D01*
Y71500D02*
Y72500D01*
X52627Y81000D02*
X56243Y77384D01*
X2500Y123000D02*
X5500D01*
X6000Y123500D01*
X14000D02*
X17500D01*
X66434Y85970D02*
X67500Y84904D01*
X62376Y85970D02*
X66434D01*
X61945Y86402D02*
X62376Y85970D01*
X67500Y81379D02*
Y84904D01*
X66621Y80500D02*
X67500Y81379D01*
X62343Y80500D02*
X66621D01*
X61945Y80102D02*
X62343Y80500D01*
X61945Y86402D02*
X62043Y86500D01*
X44500Y81000D02*
X52627D01*
X41973Y83527D02*
X44500Y81000D01*
X41973Y83527D02*
Y90027D01*
X41500Y90500D02*
X41973Y90027D01*
X57166Y80334D02*
X61713D01*
X53000Y84500D02*
X57166Y80334D01*
X50000Y84500D02*
X53000D01*
X44500D02*
X50000D01*
X112500Y73250D02*
X113750Y74500D01*
X112500Y72500D02*
Y73250D01*
X119697Y89697D02*
X123214Y93214D01*
X112500Y86373D02*
Y88500D01*
X107850Y68150D02*
X115059D01*
X104500Y71500D02*
X107850Y68150D01*
X44500Y61500D02*
X49000D01*
X49500Y61000D02*
X50000Y61500D01*
X95657Y83500D02*
X100000D01*
X95410Y83252D02*
X95657Y83500D01*
X41500Y98500D02*
Y101500D01*
X50000Y98500D02*
Y102000D01*
X41500Y98500D02*
X50000D01*
X51000D01*
X56243Y77384D02*
X61514D01*
X61945Y76953D01*
X50000Y90500D02*
X51000D01*
X41500D02*
X50000D01*
X61945Y76953D02*
X62376Y77384D01*
X51000Y90500D02*
X58248Y83252D01*
X61945D01*
X56742Y73996D02*
X61752D01*
X61945Y73803D01*
X55250Y75488D02*
X56742Y73996D01*
X94343Y62742D02*
X99000Y58085D01*
X90132Y62742D02*
X94343D01*
X89701Y63173D02*
X90132Y62742D01*
X83500Y90000D02*
Y98311D01*
X86551Y92551D02*
Y98409D01*
X51000Y98500D02*
X52250Y99750D01*
Y102250D01*
X57000Y107000D01*
Y108000D01*
X70600Y64742D02*
X70803Y64945D01*
X72700Y60619D02*
X73953Y61872D01*
X74800Y59749D02*
X77102Y62051D01*
X76900Y58700D02*
X80252Y62051D01*
X79000Y57085D02*
X82970Y61055D01*
X73953Y61872D02*
Y64945D01*
X19600Y63500D02*
X33500Y49600D01*
X19000Y63500D02*
X19600D01*
X19000Y53500D02*
X25000Y47500D01*
X80252Y62051D02*
Y64945D01*
X77102Y62051D02*
Y64945D01*
X86982Y61620D02*
X89500Y59103D01*
Y49000D02*
Y59103D01*
Y49000D02*
X94500Y44000D01*
X82970Y61055D02*
Y64514D01*
X83402Y64945D01*
X86982Y61620D02*
Y64514D01*
X97181Y70653D02*
X109500Y58335D01*
Y49000D02*
Y58335D01*
Y49000D02*
X114500Y44000D01*
X95410Y70653D02*
X97181D01*
X99000Y49500D02*
X104500Y44000D01*
X99000Y49500D02*
Y58085D01*
X89701Y63173D02*
Y64945D01*
X86551D02*
X86982Y64514D01*
X104500Y44000D02*
X105470D01*
X104500Y88500D02*
Y96500D01*
X95410Y73803D02*
X103250D01*
X104500Y72553D01*
X95410Y80102D02*
X104102D01*
X104500Y80500D01*
X80500Y86000D02*
Y97658D01*
X51012Y75488D02*
X55250D01*
X50000Y76500D02*
X51012Y75488D01*
X61514Y70223D02*
X61945Y70653D01*
X50722Y70223D02*
X61514D01*
X50000Y69500D02*
X50722Y70223D01*
X43814Y68564D02*
X44750Y69500D01*
X39086Y68564D02*
X43814D01*
X35899Y65377D02*
X39086Y68564D01*
X44750Y69500D02*
X50000D01*
X43312Y77938D02*
X44750Y76500D01*
X39086Y77938D02*
X43312D01*
X35899Y81125D02*
X39086Y77938D01*
X44750Y76500D02*
X50000D01*
D37*
X34500Y144000D02*
X38000Y147500D01*
X34500Y125000D02*
Y144000D01*
Y125000D02*
X36000Y123500D01*
X48556Y140500D02*
X125000D01*
X48000Y147500D02*
X48434D01*
X125000Y140500D02*
X144500Y121000D01*
X48556Y136445D02*
Y140500D01*
X47619Y135508D02*
X48556Y136445D01*
X45008Y135508D02*
X47619D01*
X41000Y131500D02*
X45008Y135508D01*
X48556Y141694D02*
Y146944D01*
X144500Y106500D02*
Y121000D01*
X112500Y73250D02*
Y80500D01*
Y86373D01*
X57000Y108000D02*
Y128850D01*
X52508Y133343D02*
X57000Y128850D01*
X52508Y133343D02*
Y135508D01*
X52039Y135976D02*
X52508Y135508D01*
X49874Y135976D02*
X52039D01*
X65000Y107000D02*
Y108000D01*
X59883Y101883D02*
X65000Y107000D01*
X124250Y56750D02*
X124500Y56500D01*
X124250Y56750D02*
Y83750D01*
X124000Y84000D02*
X124250Y83750D01*
X134250Y56750D02*
X134500Y56500D01*
X134250Y56750D02*
Y83750D01*
X134000Y84000D02*
X134250Y83750D01*
X144250Y56750D02*
X144500Y56500D01*
X144250Y56750D02*
Y83750D01*
X144000Y84000D02*
X144250Y83750D01*
X134000Y94000D02*
X144000D01*
X124000D02*
X134000D01*
X123214D02*
X124000D01*
X120714Y96500D02*
X123214Y94000D01*
X112500Y96500D02*
X120714D01*
X93944Y107056D02*
Y111572D01*
X78516Y127000D02*
X93944Y111572D01*
X76646Y127000D02*
X78516D01*
X40000Y131500D02*
X41000D01*
X48000Y147500D02*
X48556Y146944D01*
X36000Y123500D02*
X40000D01*
X40500Y123000D01*
X42732D01*
X47709Y118024D01*
X49874D01*
X65000Y108000D02*
X65146Y108146D01*
Y115500D01*
X66630Y116984D01*
Y118854D01*
X74776Y127000D01*
X76646D01*
X58500Y101500D02*
X58883Y101883D01*
X59883D01*
D38*
X94500Y106500D02*
X99303Y101697D01*
X93944Y107056D02*
X94500Y106500D01*
X99303Y101697D02*
X108303D01*
X112500Y97500D01*
Y96500D02*
Y97500D01*
D39*
X134500Y106500D02*
Y120000D01*
X124500Y106500D02*
Y120000D01*
X114500Y106500D02*
Y120000D01*
X104500Y106500D02*
Y120000D01*
D40*
X48000Y158500D02*
D03*
Y148500D02*
D03*
X38000Y158500D02*
D03*
X93000Y147500D02*
D03*
X83000D02*
D03*
X73000D02*
D03*
X84500Y44000D02*
D03*
X94500D02*
D03*
X104500D02*
D03*
X124000Y84000D02*
D03*
Y94000D02*
D03*
X134000Y84000D02*
D03*
Y94000D02*
D03*
X144000Y84000D02*
D03*
X144500Y106500D02*
D03*
X134500D02*
D03*
X124500D02*
D03*
X114500D02*
D03*
X104500D02*
D03*
X94500D02*
D03*
X84500D02*
D03*
X144500Y56500D02*
D03*
X134500D02*
D03*
X124500D02*
D03*
X114500D02*
D03*
X104500D02*
D03*
X94500D02*
D03*
X84500D02*
D03*
X104500Y120000D02*
D03*
X114500D02*
D03*
X124500D02*
D03*
X51500Y19000D02*
D03*
X61500D02*
D03*
X71500D02*
D03*
X81500D02*
D03*
X91500D02*
D03*
X52000Y32000D02*
D03*
X62000D02*
D03*
X72000D02*
D03*
X82000D02*
D03*
X92000D02*
D03*
X19000Y53500D02*
D03*
Y63500D02*
D03*
Y73500D02*
D03*
Y83500D02*
D03*
Y93500D02*
D03*
Y103500D02*
D03*
Y113500D02*
D03*
D41*
X38000Y148500D02*
D03*
X63000Y147500D02*
D03*
X114500Y44000D02*
D03*
X144000Y94000D02*
D03*
X154500Y106500D02*
D03*
Y56500D02*
D03*
X134500Y120000D02*
D03*
X41500Y19000D02*
D03*
X42000Y32000D02*
D03*
D42*
X19000Y43500D02*
D03*
D43*
X117000Y74500D02*
D03*
X154500Y89000D02*
D03*
X2500Y123000D02*
D03*
X17500Y123500D02*
D03*
X44500Y61500D02*
D03*
Y84500D02*
D03*
X100000Y83500D02*
D03*
X41500Y101500D02*
D03*
X50000Y102000D02*
D03*
X55500Y78000D02*
D03*
X94250Y65668D02*
D03*
X83500Y90000D02*
D03*
X86551Y92551D02*
D03*
X80500Y73000D02*
D03*
X83500D02*
D03*
X86500D02*
D03*
X89500D02*
D03*
X74500Y110000D02*
D03*
X72000Y107500D02*
D03*
X69000Y105500D02*
D03*
X100500Y77000D02*
D03*
X80500Y86000D02*
D03*
D44*
X58500Y101500D02*
D03*
D45*
X143110Y143110D02*
D03*
Y22244D02*
D03*
X22244D02*
D03*
Y143110D02*
D03*
M02*
