G04*
G04 #@! TF.GenerationSoftware,Altium Limited,Altium Designer,19.1.8 (144)*
G04*
G04 Layer_Color=255*
%FSLAX25Y25*%
%MOIN*%
G70*
G01*
G75*
%ADD16R,0.04000X0.06000*%
%ADD17R,0.09449X0.07874*%
%ADD18R,0.08268X0.03937*%
%ADD19R,0.23032X0.19291*%
%ADD20R,0.05906X0.02362*%
%ADD21R,0.02362X0.05906*%
%ADD22R,0.06000X0.04000*%
%ADD40C,0.05906*%
%ADD41R,0.05906X0.05906*%
%ADD42R,0.05906X0.05906*%
D16*
X14000Y123500D02*
D03*
X6000D02*
D03*
X112500Y96500D02*
D03*
X104500D02*
D03*
X57000Y108000D02*
D03*
X65000D02*
D03*
X104500Y88500D02*
D03*
X112500D02*
D03*
Y72500D02*
D03*
X104500D02*
D03*
X112500Y80500D02*
D03*
X104500D02*
D03*
D17*
X35899Y65377D02*
D03*
Y81125D02*
D03*
D18*
X49874Y135976D02*
D03*
Y118024D02*
D03*
D19*
X76646Y127000D02*
D03*
D20*
X61945Y92701D02*
D03*
Y89551D02*
D03*
Y86402D02*
D03*
Y83252D02*
D03*
Y80102D02*
D03*
Y76953D02*
D03*
Y73803D02*
D03*
Y70653D02*
D03*
X95410D02*
D03*
Y73803D02*
D03*
Y76953D02*
D03*
Y80102D02*
D03*
Y83252D02*
D03*
Y86402D02*
D03*
Y89551D02*
D03*
Y92701D02*
D03*
D21*
X67654Y64945D02*
D03*
X70803D02*
D03*
X73953D02*
D03*
X77102D02*
D03*
X80252D02*
D03*
X83402D02*
D03*
X86551D02*
D03*
X89701D02*
D03*
Y98409D02*
D03*
X86551D02*
D03*
X83402D02*
D03*
X80252D02*
D03*
X77102D02*
D03*
X73953D02*
D03*
X70803D02*
D03*
X67654D02*
D03*
D22*
X41500Y90500D02*
D03*
Y98500D02*
D03*
X40000Y131500D02*
D03*
Y123500D02*
D03*
X50000Y98500D02*
D03*
Y90500D02*
D03*
Y84500D02*
D03*
Y76500D02*
D03*
Y61500D02*
D03*
Y69500D02*
D03*
D40*
X48000Y158500D02*
D03*
Y148500D02*
D03*
X38000Y158500D02*
D03*
X93000Y147500D02*
D03*
X83000D02*
D03*
X73000D02*
D03*
X84500Y44000D02*
D03*
X94500D02*
D03*
X104500D02*
D03*
X124000Y84000D02*
D03*
Y94000D02*
D03*
X134000Y84000D02*
D03*
Y94000D02*
D03*
X144000Y84000D02*
D03*
X144500Y106500D02*
D03*
X134500D02*
D03*
X124500D02*
D03*
X114500D02*
D03*
X104500D02*
D03*
X94500D02*
D03*
X84500D02*
D03*
X144500Y56500D02*
D03*
X134500D02*
D03*
X124500D02*
D03*
X114500D02*
D03*
X104500D02*
D03*
X94500D02*
D03*
X84500D02*
D03*
X104500Y120000D02*
D03*
X114500D02*
D03*
X124500D02*
D03*
X51500Y19000D02*
D03*
X61500D02*
D03*
X71500D02*
D03*
X81500D02*
D03*
X91500D02*
D03*
X52000Y32000D02*
D03*
X62000D02*
D03*
X72000D02*
D03*
X82000D02*
D03*
X92000D02*
D03*
X19000Y53500D02*
D03*
Y63500D02*
D03*
Y73500D02*
D03*
Y83500D02*
D03*
Y93500D02*
D03*
Y103500D02*
D03*
Y113500D02*
D03*
D41*
X38000Y148500D02*
D03*
X63000Y147500D02*
D03*
X114500Y44000D02*
D03*
X144000Y94000D02*
D03*
X154500Y106500D02*
D03*
Y56500D02*
D03*
X134500Y120000D02*
D03*
X41500Y19000D02*
D03*
X42000Y32000D02*
D03*
D42*
X19000Y43500D02*
D03*
M02*
