M48
;Layer_Color=9474304
;FILE_FORMAT=2:5
INCH,TZ
;TYPE=PLATED
T1F00S00C0.00787
T2F00S00C0.01181
T3F00S00C0.02800
T4F00S00C0.03543
T5F00S00C0.11811
%
T01
X80500Y73000
X83500
X86500
X89500
X94250Y65668
X100500Y77000
X100000Y83500
X117000Y74500
X154500Y89000
X74500Y110000
X72000Y107500
X69000Y105500
X50000Y102000
X41500Y101500
X44500Y84500
X55500Y78000
X44500Y61500
X17500Y123500
X2500Y123000
T02
X80500Y86000
X83500Y90000
X86551Y92551
T03
X58500Y101500
T04
X41500Y19000
X51500
X52000Y32000
X42000
X19000Y43500
Y53500
X62000Y32000
X72000
X82000
X92000
X91500Y19000
X81500
X71500
X61500
X84500Y44000
X94500
X104500
X114500
Y56500
X124500
X134500
X144500
X154500
X144000Y84000
X134000
X124000
Y94000
X134000
X144000
X144500Y106500
X154500
X134500
X124500
X114500
X104500
X94500
X84500
X104500Y120000
X114500
X124500
X134500
X93000Y147500
X83000
X73000
X63000
X84500Y56500
X94500
X104500
X19000Y63500
Y73500
Y83500
Y93500
Y103500
Y113500
X38000Y148500
X48000
Y158500
X38000
T05
X22244Y22244
X143110
Y143110
X22244
M30
