M48
;Layer_Color=9474304
;FILE_FORMAT=2:5
INCH,TZ
;TYPE=PLATED
T1F00S00C0.01181
T2F00S00C0.03543
T3F00S00C0.11811
%
T01
X78500Y4000
X70252Y62303
X71000Y79500
X66000
X60000Y80500
X61500Y102500
X85000Y86500
X90376Y71876
X90953Y65453
X97500Y107000
T02
X10500Y31500
Y41500
Y51500
X33500Y26500
X43500
X53500
X54000Y45500
X64000
X74000
X84000
X94000
X104000
X114000
X124000
X105500Y26500
X95500
X85500
X75500
X63500
X64000Y95500
X74000
X84000
X94000
X104000
X114000
X124000
Y80500
X114000
Y70500
X124000
Y60500
X114000
X54000Y95500
X10500Y93500
Y103500
Y81500
Y71500
Y61500
T03
X17717Y17717
X120079
Y120079
X17717
M30
