G04*
G04 #@! TF.GenerationSoftware,Altium Limited,Altium Designer,19.1.8 (144)*
G04*
G04 Layer_Physical_Order=2*
G04 Layer_Color=8732672*
%FSLAX25Y25*%
%MOIN*%
G70*
G01*
G75*
%ADD15C,0.01000*%
%ADD21R,0.04000X0.06000*%
%ADD22R,0.06000X0.04000*%
%ADD36C,0.03000*%
%ADD37C,0.01500*%
%ADD39R,0.05906X0.05906*%
%ADD40C,0.05906*%
%ADD41R,0.05906X0.05906*%
%ADD42C,0.01968*%
%ADD43C,0.04000*%
%ADD44C,0.11811*%
%ADD45O,0.07480X0.02362*%
%ADD46C,0.03500*%
%ADD47C,0.04000*%
G36*
X137402Y394D02*
X394D01*
Y137402D01*
X137402D01*
Y394D01*
D02*
G37*
%LPC*%
G36*
X65000Y117000D02*
X61500D01*
Y114500D01*
X65000D01*
Y117000D01*
D02*
G37*
G36*
X60500D02*
X57000D01*
Y114500D01*
X60500D01*
Y117000D01*
D02*
G37*
G36*
X120079Y126616D02*
X118803Y126490D01*
X117577Y126118D01*
X116447Y125514D01*
X115456Y124701D01*
X114643Y123711D01*
X114039Y122580D01*
X113667Y121354D01*
X113542Y120079D01*
X113667Y118803D01*
X114039Y117577D01*
X114643Y116447D01*
X115456Y115456D01*
X116447Y114643D01*
X117577Y114039D01*
X118803Y113667D01*
X120079Y113542D01*
X121354Y113667D01*
X122580Y114039D01*
X123711Y114643D01*
X124701Y115456D01*
X125514Y116447D01*
X126118Y117577D01*
X126490Y118803D01*
X126616Y120079D01*
X126490Y121354D01*
X126118Y122580D01*
X125514Y123711D01*
X124701Y124701D01*
X123711Y125514D01*
X122580Y126118D01*
X121354Y126490D01*
X120079Y126616D01*
D02*
G37*
G36*
X17717D02*
X16441Y126490D01*
X15215Y126118D01*
X14085Y125514D01*
X13094Y124701D01*
X12281Y123711D01*
X11677Y122580D01*
X11305Y121354D01*
X11180Y120079D01*
X11305Y118803D01*
X11677Y117577D01*
X12281Y116447D01*
X13094Y115456D01*
X14085Y114643D01*
X15215Y114039D01*
X16441Y113667D01*
X17717Y113542D01*
X18992Y113667D01*
X20218Y114039D01*
X21348Y114643D01*
X22339Y115456D01*
X23152Y116447D01*
X23756Y117577D01*
X24128Y118803D01*
X24253Y120079D01*
X24128Y121354D01*
X23756Y122580D01*
X23152Y123711D01*
X22339Y124701D01*
X21348Y125514D01*
X20218Y126118D01*
X18992Y126490D01*
X17717Y126616D01*
D02*
G37*
G36*
X65000Y113500D02*
X61500D01*
Y111000D01*
X65000D01*
Y113500D01*
D02*
G37*
G36*
X18000Y110921D02*
Y107500D01*
X21421D01*
X21351Y108032D01*
X20953Y108993D01*
X20319Y109819D01*
X19493Y110453D01*
X18532Y110851D01*
X18000Y110921D01*
D02*
G37*
G36*
X17000D02*
X16468Y110851D01*
X15507Y110453D01*
X14681Y109819D01*
X14047Y108993D01*
X13649Y108032D01*
X13579Y107500D01*
X17000D01*
Y110921D01*
D02*
G37*
G36*
X21421Y106500D02*
X18000D01*
Y103079D01*
X18532Y103149D01*
X19493Y103547D01*
X20319Y104181D01*
X20953Y105007D01*
X21351Y105968D01*
X21421Y106500D01*
D02*
G37*
G36*
X17000D02*
X13579D01*
X13625Y106153D01*
X3136Y95664D01*
X2672Y94969D01*
X2509Y94150D01*
Y46905D01*
X2672Y46086D01*
X3136Y45391D01*
X13391Y35136D01*
X14086Y34672D01*
X14905Y34509D01*
X52150D01*
X52969Y34672D01*
X53664Y35136D01*
X60153Y41625D01*
X60500Y41579D01*
Y45000D01*
X57079D01*
X57125Y44653D01*
X55015Y42543D01*
X54553Y42734D01*
Y49053D01*
X47447D01*
Y45336D01*
X45008Y42896D01*
X17492D01*
X10896Y49492D01*
Y87007D01*
X17336Y93447D01*
X21053D01*
Y100553D01*
X14734D01*
X14543Y101015D01*
X16653Y103125D01*
X17000Y103079D01*
Y106500D01*
D02*
G37*
G36*
X121000Y99083D02*
X120073Y98961D01*
X119208Y98603D01*
X118466Y98034D01*
X117897Y97292D01*
X117539Y96427D01*
X117417Y95500D01*
X117539Y94573D01*
X117897Y93708D01*
X118466Y92966D01*
X119208Y92397D01*
X120073Y92039D01*
X121000Y91917D01*
X121927Y92039D01*
X122792Y92397D01*
X123534Y92966D01*
X124103Y93708D01*
X124461Y94573D01*
X124583Y95500D01*
X124461Y96427D01*
X124103Y97292D01*
X123534Y98034D01*
X122792Y98603D01*
X121927Y98961D01*
X121000Y99083D01*
D02*
G37*
G36*
X111000D02*
X110073Y98961D01*
X109208Y98603D01*
X108466Y98034D01*
X107897Y97292D01*
X107539Y96427D01*
X107417Y95500D01*
X107539Y94573D01*
X107897Y93708D01*
X108466Y92966D01*
X109208Y92397D01*
X110073Y92039D01*
X111000Y91917D01*
X111927Y92039D01*
X112792Y92397D01*
X113534Y92966D01*
X114103Y93708D01*
X114461Y94573D01*
X114583Y95500D01*
X114461Y96427D01*
X114103Y97292D01*
X113534Y98034D01*
X112792Y98603D01*
X111927Y98961D01*
X111000Y99083D01*
D02*
G37*
G36*
X122000Y84083D02*
X121073Y83961D01*
X120208Y83603D01*
X119466Y83034D01*
X118897Y82292D01*
X118539Y81427D01*
X118417Y80500D01*
X118539Y79573D01*
X118897Y78708D01*
X119466Y77966D01*
X120208Y77397D01*
X121073Y77039D01*
X122000Y76917D01*
X122927Y77039D01*
X123792Y77397D01*
X124534Y77966D01*
X125103Y78708D01*
X125461Y79573D01*
X125583Y80500D01*
X125461Y81427D01*
X125103Y82292D01*
X124534Y83034D01*
X123792Y83603D01*
X122927Y83961D01*
X122000Y84083D01*
D02*
G37*
G36*
X55100Y116600D02*
X47900D01*
Y111400D01*
X53153D01*
X54474Y110080D01*
Y108600D01*
X47900D01*
Y103400D01*
X49624D01*
Y99053D01*
X47447D01*
Y96876D01*
X29500D01*
X28973Y96772D01*
X28527Y96473D01*
X18343Y86289D01*
X17927Y86461D01*
X17000Y86583D01*
X16073Y86461D01*
X15208Y86103D01*
X14466Y85534D01*
X13897Y84792D01*
X13539Y83927D01*
X13417Y83000D01*
X13539Y82073D01*
X13897Y81208D01*
X14466Y80466D01*
X15208Y79897D01*
X16073Y79539D01*
X17000Y79417D01*
X17927Y79539D01*
X18792Y79897D01*
X19534Y80466D01*
X20103Y81208D01*
X20461Y82073D01*
X20583Y83000D01*
X20461Y83927D01*
X20289Y84343D01*
X30070Y94124D01*
X47447D01*
Y91947D01*
X47139Y91575D01*
X46821Y91533D01*
X46189Y91271D01*
X45646Y90854D01*
X45279Y90376D01*
X44500D01*
X43973Y90272D01*
X43527Y89973D01*
X43527Y89973D01*
X39653Y86100D01*
X36400D01*
Y78900D01*
X37624D01*
Y75350D01*
X36400D01*
Y68150D01*
X41600D01*
Y74413D01*
X42274Y74547D01*
X42931Y74985D01*
X43369Y75642D01*
X43424Y75916D01*
X41500D01*
Y76916D01*
X43424D01*
X43369Y77190D01*
X42931Y77846D01*
X42274Y78285D01*
X41782Y78383D01*
X41631Y78413D01*
X41600Y78900D01*
X41600D01*
X41600Y79227D01*
Y84153D01*
X44858Y87411D01*
X45468Y87377D01*
X45646Y87146D01*
X46189Y86729D01*
X46500Y86600D01*
X46400Y86100D01*
X44400D01*
Y78900D01*
X48014D01*
X55371Y71542D01*
X55371Y71542D01*
X55377Y71539D01*
X55409Y71380D01*
X55803Y70791D01*
X56392Y70397D01*
X57087Y70259D01*
X62205D01*
X62900Y70397D01*
X63489Y70791D01*
X63597Y70953D01*
X66167D01*
X66374Y70453D01*
X64118Y68196D01*
X63597D01*
X63489Y68359D01*
X62900Y68753D01*
X62205Y68891D01*
X57087D01*
X56392Y68753D01*
X55803Y68359D01*
X55694Y68196D01*
X52140D01*
X50293Y70043D01*
X49929Y70286D01*
X49600Y70352D01*
Y75350D01*
X44400D01*
Y68150D01*
X48392D01*
X48500Y68128D01*
X48500Y68128D01*
X49035D01*
X50882Y66282D01*
X50882Y66282D01*
X51246Y66039D01*
X51675Y65953D01*
X51675Y65953D01*
X55694D01*
X55803Y65791D01*
X56392Y65397D01*
X57087Y65259D01*
X62205D01*
X62900Y65397D01*
X63489Y65791D01*
X63597Y65953D01*
X64582D01*
X64582Y65953D01*
X65011Y66039D01*
X65375Y66282D01*
X74102Y75009D01*
X74102Y75009D01*
X74249Y75228D01*
X74830Y75441D01*
X74896Y75397D01*
X75591Y75259D01*
X80709D01*
X81404Y75397D01*
X81855Y75698D01*
X85575D01*
X86102Y75803D01*
X86548Y76101D01*
X91438Y80992D01*
X91900Y80800D01*
Y77807D01*
X91723Y77772D01*
X91277Y77473D01*
X87255Y73451D01*
X81855D01*
X81404Y73753D01*
X80709Y73891D01*
X75591D01*
X74896Y73753D01*
X74306Y73359D01*
X73913Y72770D01*
X73775Y72075D01*
X73913Y71380D01*
X74306Y70791D01*
X74896Y70397D01*
X75591Y70259D01*
X80709D01*
X81404Y70397D01*
X81855Y70698D01*
X87825D01*
X88352Y70803D01*
X88798Y71101D01*
X91900Y74203D01*
X92400Y73996D01*
Y67400D01*
X93878D01*
Y66725D01*
X93500Y66372D01*
X93500Y66372D01*
X92761D01*
X92435Y66436D01*
X92435Y66436D01*
X91780D01*
X91642Y66642D01*
X91118Y66992D01*
X90500Y67115D01*
X89882Y66992D01*
X89358Y66642D01*
X89008Y66118D01*
X88885Y65500D01*
X89008Y64882D01*
X89358Y64358D01*
X89882Y64008D01*
X90500Y63885D01*
X91118Y64008D01*
X91396Y64193D01*
X92175D01*
X92400Y64148D01*
Y59150D01*
X93878D01*
Y57600D01*
X92400D01*
Y54037D01*
X53818D01*
X53523Y54537D01*
X53615Y55000D01*
X53492Y55618D01*
X53142Y56142D01*
X52618Y56492D01*
X52000Y56615D01*
X51382Y56492D01*
X50858Y56142D01*
X50844Y56122D01*
X35465D01*
X20184Y71402D01*
X20461Y72073D01*
X20583Y73000D01*
X20461Y73927D01*
X20103Y74792D01*
X19534Y75534D01*
X18792Y76103D01*
X17927Y76461D01*
X17000Y76583D01*
X16073Y76461D01*
X15208Y76103D01*
X14466Y75534D01*
X13897Y74792D01*
X13539Y73927D01*
X13417Y73000D01*
X13539Y72073D01*
X13897Y71208D01*
X14466Y70466D01*
X15208Y69897D01*
X16073Y69539D01*
X17000Y69417D01*
X17927Y69539D01*
X18598Y69816D01*
X33877Y54537D01*
X33669Y54037D01*
X20553D01*
Y56553D01*
X13447D01*
Y49447D01*
X20553D01*
Y51794D01*
X92400D01*
Y50400D01*
X97600D01*
Y57600D01*
X96122D01*
Y59150D01*
X97600D01*
Y66350D01*
X96122D01*
Y67400D01*
X97600D01*
Y72800D01*
X98062Y72992D01*
X100400Y70653D01*
Y67400D01*
X105600D01*
Y74600D01*
X105600D01*
X105500Y74750D01*
Y78250D01*
X102500D01*
Y79250D01*
X105500D01*
Y82750D01*
X105500D01*
Y83000D01*
X105500D01*
Y86500D01*
X102500D01*
Y87500D01*
X105500D01*
Y89261D01*
X105962Y89452D01*
X106826Y88588D01*
Y68821D01*
X106826Y68821D01*
X106911Y68392D01*
X107154Y68028D01*
X110694Y64488D01*
Y63805D01*
X110208Y63603D01*
X109466Y63034D01*
X108897Y62292D01*
X108539Y61427D01*
X108417Y60500D01*
X108539Y59573D01*
X108897Y58708D01*
X109466Y57966D01*
X110208Y57397D01*
X111073Y57039D01*
X112000Y56917D01*
X112927Y57039D01*
X113792Y57397D01*
X114534Y57966D01*
X115103Y58708D01*
X115461Y59573D01*
X115583Y60500D01*
X115461Y61427D01*
X115103Y62292D01*
X114534Y63034D01*
X113792Y63603D01*
X112937Y63957D01*
Y64953D01*
X112852Y65382D01*
X112609Y65746D01*
X112609Y65746D01*
X111886Y66469D01*
X112128Y66934D01*
X112927Y67039D01*
X113792Y67397D01*
X114534Y67966D01*
X115103Y68708D01*
X115461Y69573D01*
X115583Y70500D01*
X115461Y71427D01*
X115103Y72292D01*
X114534Y73034D01*
X113792Y73603D01*
X112927Y73961D01*
X112000Y74083D01*
X111073Y73961D01*
X110208Y73603D01*
X109569Y73113D01*
X109069Y73269D01*
Y77731D01*
X109569Y77887D01*
X110208Y77397D01*
X111073Y77039D01*
X112000Y76917D01*
X112927Y77039D01*
X113792Y77397D01*
X114534Y77966D01*
X115103Y78708D01*
X115461Y79573D01*
X115583Y80500D01*
X115461Y81427D01*
X115103Y82292D01*
X114534Y83034D01*
X113792Y83603D01*
X112927Y83961D01*
X112000Y84083D01*
X111073Y83961D01*
X110208Y83603D01*
X109569Y83113D01*
X109069Y83270D01*
Y89053D01*
X108983Y89482D01*
X108740Y89846D01*
X108740Y89846D01*
X106543Y92043D01*
X106179Y92286D01*
X105750Y92372D01*
X105750Y92371D01*
X103580D01*
X103411Y92871D01*
X103534Y92966D01*
X104103Y93708D01*
X104461Y94573D01*
X104583Y95500D01*
X104461Y96427D01*
X104103Y97292D01*
X103534Y98034D01*
X102792Y98603D01*
X101927Y98961D01*
X101000Y99083D01*
X100073Y98961D01*
X99208Y98603D01*
X98466Y98034D01*
X97897Y97292D01*
X97619Y96622D01*
X94381D01*
X94103Y97292D01*
X93534Y98034D01*
X92792Y98603D01*
X91927Y98961D01*
X91000Y99083D01*
X90073Y98961D01*
X89208Y98603D01*
X88466Y98034D01*
X87897Y97292D01*
X87539Y96427D01*
X87417Y95500D01*
X87539Y94573D01*
X87897Y93708D01*
X88466Y92966D01*
X88589Y92871D01*
X88420Y92371D01*
X83580D01*
X83411Y92871D01*
X83534Y92966D01*
X84103Y93708D01*
X84461Y94573D01*
X84583Y95500D01*
X84461Y96427D01*
X84103Y97292D01*
X83534Y98034D01*
X82792Y98603D01*
X81927Y98961D01*
X81000Y99083D01*
X80073Y98961D01*
X79208Y98603D01*
X78466Y98034D01*
X77897Y97292D01*
X77539Y96427D01*
X77417Y95500D01*
X77539Y94573D01*
X77897Y93708D01*
X78466Y92966D01*
X78589Y92871D01*
X78420Y92371D01*
X73580D01*
X73411Y92871D01*
X73534Y92966D01*
X74103Y93708D01*
X74461Y94573D01*
X74583Y95500D01*
X74461Y96427D01*
X74103Y97292D01*
X73534Y98034D01*
X72792Y98603D01*
X71927Y98961D01*
X71000Y99083D01*
X70073Y98961D01*
X69208Y98603D01*
X68466Y98034D01*
X67897Y97292D01*
X67539Y96427D01*
X67417Y95500D01*
X67539Y94573D01*
X67897Y93708D01*
X68466Y92966D01*
X68589Y92871D01*
X68420Y92371D01*
X65715D01*
X64184Y93902D01*
X64461Y94573D01*
X64583Y95500D01*
X64461Y96427D01*
X64103Y97292D01*
X63534Y98034D01*
X62792Y98603D01*
X62122Y98881D01*
Y103400D01*
X64600D01*
Y108600D01*
X57400D01*
X57226Y109028D01*
Y110650D01*
X57227Y110650D01*
X57514Y111000D01*
X60500D01*
Y113500D01*
X57000D01*
Y112154D01*
X56500Y111947D01*
X55100Y113347D01*
Y116600D01*
D02*
G37*
G36*
X71000Y69924D02*
X70726Y69869D01*
X70069Y69431D01*
X69631Y68774D01*
X69576Y68500D01*
X71000D01*
Y69924D01*
D02*
G37*
G36*
X122000Y74083D02*
X121073Y73961D01*
X120208Y73603D01*
X119466Y73034D01*
X118897Y72292D01*
X118539Y71427D01*
X118417Y70500D01*
X118539Y69573D01*
X118897Y68708D01*
X119466Y67966D01*
X120208Y67397D01*
X121073Y67039D01*
X122000Y66917D01*
X122927Y67039D01*
X123792Y67397D01*
X124534Y67966D01*
X125103Y68708D01*
X125461Y69573D01*
X125583Y70500D01*
X125461Y71427D01*
X125103Y72292D01*
X124534Y73034D01*
X123792Y73603D01*
X122927Y73961D01*
X122000Y74083D01*
D02*
G37*
G36*
X72000Y69924D02*
Y68000D01*
X71500D01*
Y67500D01*
X69576D01*
X69631Y67226D01*
X70069Y66569D01*
X70468Y66303D01*
Y66076D01*
X70468Y66076D01*
X70553Y65647D01*
X70797Y65283D01*
X73473Y62607D01*
X73466Y62575D01*
X77650D01*
Y64299D01*
X75591D01*
X75059Y64193D01*
X72908Y66343D01*
X72931Y66569D01*
X73295Y67116D01*
X73458Y67102D01*
X73792Y66986D01*
X73913Y66380D01*
X74306Y65791D01*
X74896Y65397D01*
X75591Y65259D01*
X80709D01*
X81404Y65397D01*
X81993Y65791D01*
X82386Y66380D01*
X82525Y67075D01*
X82386Y67770D01*
X81993Y68359D01*
X81404Y68753D01*
X80709Y68891D01*
X75591D01*
X74896Y68753D01*
X74306Y68359D01*
X74011Y67916D01*
X73713Y67967D01*
X73510Y68067D01*
X73369Y68774D01*
X72931Y69431D01*
X72274Y69869D01*
X72000Y69924D01*
D02*
G37*
G36*
X106000Y66750D02*
X103500D01*
Y63250D01*
X106000D01*
Y66750D01*
D02*
G37*
G36*
X102500D02*
X100000D01*
Y63250D01*
X102500D01*
Y66750D01*
D02*
G37*
G36*
X80709Y64299D02*
X78650D01*
Y62575D01*
X82833D01*
X82763Y62926D01*
X82281Y63647D01*
X81560Y64129D01*
X80709Y64299D01*
D02*
G37*
G36*
X42000Y65000D02*
X39500D01*
Y61500D01*
X42000D01*
Y65000D01*
D02*
G37*
G36*
X38500D02*
X36000D01*
Y61500D01*
X38500D01*
Y65000D01*
D02*
G37*
G36*
X49600Y64600D02*
X44400D01*
Y57400D01*
X49600D01*
Y60953D01*
X55694D01*
X55803Y60791D01*
X56392Y60397D01*
X57087Y60259D01*
X62205D01*
X62900Y60397D01*
X63489Y60791D01*
X63882Y61380D01*
X64021Y62075D01*
X63882Y62770D01*
X63489Y63359D01*
X62900Y63753D01*
X62205Y63891D01*
X57087D01*
X56392Y63753D01*
X55803Y63359D01*
X55694Y63196D01*
X49600D01*
Y64600D01*
D02*
G37*
G36*
X82833Y61575D02*
X78650D01*
Y59851D01*
X80709D01*
X81560Y60020D01*
X82281Y60502D01*
X82763Y61224D01*
X82833Y61575D01*
D02*
G37*
G36*
X77650D02*
X73466D01*
X73536Y61224D01*
X74018Y60502D01*
X74740Y60020D01*
X75591Y59851D01*
X77650D01*
Y61575D01*
D02*
G37*
G36*
X17000Y66583D02*
X16073Y66461D01*
X15208Y66103D01*
X14466Y65534D01*
X13897Y64792D01*
X13539Y63927D01*
X13417Y63000D01*
X13539Y62073D01*
X13897Y61208D01*
X14466Y60466D01*
X15208Y59897D01*
X16073Y59539D01*
X17000Y59417D01*
X17927Y59539D01*
X18792Y59897D01*
X19534Y60466D01*
X20103Y61208D01*
X20461Y62073D01*
X20583Y63000D01*
X20461Y63927D01*
X20103Y64792D01*
X19534Y65534D01*
X18792Y66103D01*
X17927Y66461D01*
X17000Y66583D01*
D02*
G37*
G36*
X106000Y62250D02*
X103500D01*
Y58750D01*
X106000D01*
Y62250D01*
D02*
G37*
G36*
X102500D02*
X100000D01*
Y58750D01*
X102500D01*
Y62250D01*
D02*
G37*
G36*
X42000Y60500D02*
X39500D01*
Y57000D01*
X42000D01*
Y60500D01*
D02*
G37*
G36*
X38500D02*
X36000D01*
Y57000D01*
X38500D01*
Y60500D01*
D02*
G37*
G36*
X125553Y64053D02*
X118447D01*
Y56947D01*
X125553D01*
Y64053D01*
D02*
G37*
G36*
X109500Y56924D02*
Y55500D01*
X110924D01*
X110869Y55774D01*
X110431Y56431D01*
X109774Y56869D01*
X109500Y56924D01*
D02*
G37*
G36*
X108500D02*
X108226Y56869D01*
X107569Y56431D01*
X107131Y55774D01*
X107076Y55500D01*
X108500D01*
Y56924D01*
D02*
G37*
G36*
X106000Y58000D02*
X103500D01*
Y54500D01*
X106000D01*
Y58000D01*
D02*
G37*
G36*
X102500D02*
X100000D01*
Y54500D01*
X102500D01*
Y58000D01*
D02*
G37*
G36*
X110924Y54500D02*
X109500D01*
Y53076D01*
X109774Y53131D01*
X110431Y53569D01*
X110869Y54226D01*
X110924Y54500D01*
D02*
G37*
G36*
X108500D02*
X107076D01*
X107131Y54226D01*
X107569Y53569D01*
X108226Y53131D01*
X108500Y53076D01*
Y54500D01*
D02*
G37*
G36*
X106000Y53500D02*
X103500D01*
Y50000D01*
X106000D01*
Y53500D01*
D02*
G37*
G36*
X102500D02*
X100000D01*
Y50000D01*
X102500D01*
Y53500D01*
D02*
G37*
G36*
X42000Y50424D02*
Y49000D01*
X43424D01*
X43369Y49274D01*
X42931Y49931D01*
X42274Y50369D01*
X42000Y50424D01*
D02*
G37*
G36*
X41000D02*
X40726Y50369D01*
X40069Y49931D01*
X39631Y49274D01*
X39576Y49000D01*
X41000D01*
Y50424D01*
D02*
G37*
G36*
X43424Y48000D02*
X42000D01*
Y46576D01*
X42274Y46631D01*
X42931Y47069D01*
X43369Y47726D01*
X43424Y48000D01*
D02*
G37*
G36*
X41000D02*
X39576D01*
X39631Y47726D01*
X40069Y47069D01*
X40726Y46631D01*
X41000Y46576D01*
Y48000D01*
D02*
G37*
G36*
X121500Y49421D02*
Y46000D01*
X124921D01*
X124851Y46532D01*
X124453Y47493D01*
X123819Y48319D01*
X122993Y48953D01*
X122032Y49351D01*
X121500Y49421D01*
D02*
G37*
G36*
X120500D02*
X119968Y49351D01*
X119007Y48953D01*
X118181Y48319D01*
X117547Y47493D01*
X117149Y46532D01*
X117079Y46000D01*
X120500D01*
Y49421D01*
D02*
G37*
G36*
X61500D02*
Y46000D01*
X64921D01*
X64851Y46532D01*
X64453Y47493D01*
X63819Y48319D01*
X62993Y48953D01*
X62032Y49351D01*
X61500Y49421D01*
D02*
G37*
G36*
X60500D02*
X59968Y49351D01*
X59007Y48953D01*
X58181Y48319D01*
X57547Y47493D01*
X57149Y46532D01*
X57079Y46000D01*
X60500D01*
Y49421D01*
D02*
G37*
G36*
X111000Y49083D02*
X110073Y48961D01*
X109208Y48603D01*
X108466Y48034D01*
X107897Y47292D01*
X107539Y46427D01*
X107417Y45500D01*
X107539Y44573D01*
X107897Y43708D01*
X108466Y42966D01*
X109208Y42397D01*
X110073Y42039D01*
X111000Y41917D01*
X111927Y42039D01*
X112792Y42397D01*
X113534Y42966D01*
X114103Y43708D01*
X114461Y44573D01*
X114583Y45500D01*
X114461Y46427D01*
X114103Y47292D01*
X113534Y48034D01*
X112792Y48603D01*
X111927Y48961D01*
X111000Y49083D01*
D02*
G37*
G36*
X124921Y45000D02*
X121500D01*
Y41579D01*
X122032Y41649D01*
X122993Y42047D01*
X123819Y42681D01*
X124453Y43507D01*
X124851Y44468D01*
X124921Y45000D01*
D02*
G37*
G36*
X120500D02*
X117079D01*
X117149Y44468D01*
X117547Y43507D01*
X118181Y42681D01*
X119007Y42047D01*
X119968Y41649D01*
X120500Y41579D01*
Y45000D01*
D02*
G37*
G36*
X64921D02*
X61500D01*
Y41579D01*
X62032Y41649D01*
X62993Y42047D01*
X63819Y42681D01*
X64453Y43507D01*
X64851Y44468D01*
X64921Y45000D01*
D02*
G37*
G36*
X71000Y49083D02*
X70073Y48961D01*
X69208Y48603D01*
X68466Y48034D01*
X67897Y47292D01*
X67539Y46427D01*
X67417Y45500D01*
X67539Y44573D01*
X67897Y43708D01*
X68378Y43082D01*
Y29553D01*
X67447D01*
Y22447D01*
X74553D01*
Y29553D01*
X73622D01*
Y43082D01*
X74103Y43708D01*
X74461Y44573D01*
X74583Y45500D01*
X74461Y46427D01*
X74103Y47292D01*
X73534Y48034D01*
X72792Y48603D01*
X71927Y48961D01*
X71000Y49083D01*
D02*
G37*
G36*
X61553Y29553D02*
X54447D01*
Y22447D01*
X61553D01*
Y29553D01*
D02*
G37*
G36*
X101000Y49083D02*
X100073Y48961D01*
X99208Y48603D01*
X98466Y48034D01*
X97897Y47292D01*
X97539Y46427D01*
X97417Y45500D01*
X97539Y44573D01*
X97897Y43708D01*
X98378Y43082D01*
Y28418D01*
X97897Y27792D01*
X97539Y26927D01*
X97417Y26000D01*
X97539Y25073D01*
X97897Y24208D01*
X98466Y23466D01*
X99208Y22897D01*
X100073Y22539D01*
X101000Y22417D01*
X101927Y22539D01*
X102792Y22897D01*
X103534Y23466D01*
X104103Y24208D01*
X104461Y25073D01*
X104583Y26000D01*
X104461Y26927D01*
X104103Y27792D01*
X103622Y28418D01*
Y43082D01*
X104103Y43708D01*
X104461Y44573D01*
X104583Y45500D01*
X104461Y46427D01*
X104103Y47292D01*
X103534Y48034D01*
X102792Y48603D01*
X101927Y48961D01*
X101000Y49083D01*
D02*
G37*
G36*
X91000D02*
X90073Y48961D01*
X89208Y48603D01*
X88466Y48034D01*
X87897Y47292D01*
X87539Y46427D01*
X87417Y45500D01*
X87539Y44573D01*
X87897Y43708D01*
X88378Y43082D01*
Y28418D01*
X87897Y27792D01*
X87539Y26927D01*
X87417Y26000D01*
X87539Y25073D01*
X87897Y24208D01*
X88466Y23466D01*
X89208Y22897D01*
X90073Y22539D01*
X91000Y22417D01*
X91927Y22539D01*
X92792Y22897D01*
X93534Y23466D01*
X94103Y24208D01*
X94461Y25073D01*
X94583Y26000D01*
X94461Y26927D01*
X94103Y27792D01*
X93622Y28418D01*
Y43082D01*
X94103Y43708D01*
X94461Y44573D01*
X94583Y45500D01*
X94461Y46427D01*
X94103Y47292D01*
X93534Y48034D01*
X92792Y48603D01*
X91927Y48961D01*
X91000Y49083D01*
D02*
G37*
G36*
X81000D02*
X80073Y48961D01*
X79208Y48603D01*
X78466Y48034D01*
X77897Y47292D01*
X77539Y46427D01*
X77417Y45500D01*
X77539Y44573D01*
X77897Y43708D01*
X78378Y43082D01*
Y28418D01*
X77897Y27792D01*
X77539Y26927D01*
X77417Y26000D01*
X77539Y25073D01*
X77897Y24208D01*
X78466Y23466D01*
X79208Y22897D01*
X80073Y22539D01*
X81000Y22417D01*
X81927Y22539D01*
X82792Y22897D01*
X83534Y23466D01*
X84103Y24208D01*
X84461Y25073D01*
X84583Y26000D01*
X84461Y26927D01*
X84103Y27792D01*
X83622Y28418D01*
Y43082D01*
X84103Y43708D01*
X84461Y44573D01*
X84583Y45500D01*
X84461Y46427D01*
X84103Y47292D01*
X83534Y48034D01*
X82792Y48603D01*
X81927Y48961D01*
X81000Y49083D01*
D02*
G37*
G36*
X48000Y29583D02*
X47073Y29461D01*
X46208Y29103D01*
X45466Y28534D01*
X44897Y27792D01*
X44539Y26927D01*
X44417Y26000D01*
X44539Y25073D01*
X44897Y24208D01*
X45466Y23466D01*
X46208Y22897D01*
X47073Y22539D01*
X48000Y22417D01*
X48927Y22539D01*
X49792Y22897D01*
X50534Y23466D01*
X51103Y24208D01*
X51461Y25073D01*
X51583Y26000D01*
X51461Y26927D01*
X51103Y27792D01*
X50534Y28534D01*
X49792Y29103D01*
X48927Y29461D01*
X48000Y29583D01*
D02*
G37*
G36*
X38000D02*
X37073Y29461D01*
X36208Y29103D01*
X35466Y28534D01*
X34897Y27792D01*
X34539Y26927D01*
X34417Y26000D01*
X34539Y25073D01*
X34897Y24208D01*
X35466Y23466D01*
X36208Y22897D01*
X37073Y22539D01*
X38000Y22417D01*
X38927Y22539D01*
X39792Y22897D01*
X40534Y23466D01*
X41103Y24208D01*
X41461Y25073D01*
X41583Y26000D01*
X41461Y26927D01*
X41103Y27792D01*
X40534Y28534D01*
X39792Y29103D01*
X38927Y29461D01*
X38000Y29583D01*
D02*
G37*
G36*
X28000D02*
X27073Y29461D01*
X26208Y29103D01*
X25466Y28534D01*
X24897Y27792D01*
X24539Y26927D01*
X24417Y26000D01*
X24539Y25073D01*
X24897Y24208D01*
X25466Y23466D01*
X26208Y22897D01*
X27073Y22539D01*
X28000Y22417D01*
X28927Y22539D01*
X29792Y22897D01*
X30534Y23466D01*
X31103Y24208D01*
X31461Y25073D01*
X31583Y26000D01*
X31461Y26927D01*
X31103Y27792D01*
X30534Y28534D01*
X29792Y29103D01*
X28927Y29461D01*
X28000Y29583D01*
D02*
G37*
G36*
X120079Y24253D02*
X118803Y24128D01*
X117577Y23756D01*
X116447Y23152D01*
X115456Y22339D01*
X114643Y21348D01*
X114039Y20218D01*
X113667Y18992D01*
X113542Y17717D01*
X113667Y16441D01*
X114039Y15215D01*
X114643Y14085D01*
X115456Y13094D01*
X116447Y12281D01*
X117577Y11677D01*
X118803Y11305D01*
X120079Y11180D01*
X121354Y11305D01*
X122580Y11677D01*
X123711Y12281D01*
X124701Y13094D01*
X125514Y14085D01*
X126118Y15215D01*
X126490Y16441D01*
X126616Y17717D01*
X126490Y18992D01*
X126118Y20218D01*
X125514Y21348D01*
X124701Y22339D01*
X123711Y23152D01*
X122580Y23756D01*
X121354Y24128D01*
X120079Y24253D01*
D02*
G37*
G36*
X17717D02*
X16441Y24128D01*
X15215Y23756D01*
X14085Y23152D01*
X13094Y22339D01*
X12281Y21348D01*
X11677Y20218D01*
X11305Y18992D01*
X11180Y17717D01*
X11305Y16441D01*
X11677Y15215D01*
X12281Y14085D01*
X13094Y13094D01*
X14085Y12281D01*
X15215Y11677D01*
X16441Y11305D01*
X17717Y11180D01*
X18992Y11305D01*
X20218Y11677D01*
X21348Y12281D01*
X22339Y13094D01*
X23152Y14085D01*
X23756Y15215D01*
X24128Y16441D01*
X24253Y17717D01*
X24128Y18992D01*
X23756Y20218D01*
X23152Y21348D01*
X22339Y22339D01*
X21348Y23152D01*
X20218Y23756D01*
X18992Y24128D01*
X17717Y24253D01*
D02*
G37*
%LPD*%
D15*
X71500Y68000D02*
X71590Y67910D01*
Y66076D02*
Y67910D01*
Y66076D02*
X75591Y62075D01*
X78150D01*
X70500Y76000D02*
Y79500D01*
X66575Y72075D02*
X70500Y76000D01*
X59646Y72075D02*
X66575D01*
X73309Y75802D02*
Y79309D01*
X64582Y67075D02*
X73309Y75802D01*
X59646Y67075D02*
X64582D01*
X73309Y79309D02*
X73500Y79500D01*
X67498Y82000D02*
X76500D01*
X62573Y77075D02*
X67498Y82000D01*
X51675Y67075D02*
X59646D01*
Y77075D02*
X62573D01*
X107947Y68821D02*
Y89053D01*
Y68821D02*
X111816Y64953D01*
Y60684D02*
Y64953D01*
Y60684D02*
X112000Y60500D01*
X105750Y91250D02*
X107947Y89053D01*
X65250Y91250D02*
X105750D01*
X17000Y73000D02*
X35000Y55000D01*
X52000D01*
X93916Y52916D02*
X95000Y54000D01*
X17084Y52916D02*
X93916D01*
X17000Y53000D02*
X17084Y52916D01*
X61000Y95500D02*
Y106000D01*
Y95500D02*
X65250Y91250D01*
X95000Y63750D02*
Y71000D01*
X90500Y65500D02*
X90685Y65315D01*
X92435D01*
X92500Y65250D01*
X93500D01*
X95000Y63750D01*
Y62750D02*
Y63750D01*
X91000Y95500D02*
X101000D01*
X95000Y54000D02*
Y62750D01*
X48075Y62075D02*
X59646D01*
X49500Y69250D02*
X51675Y67075D01*
X48500Y69250D02*
X49500D01*
X47000Y70750D02*
X48500Y69250D01*
X47000Y70750D02*
Y71750D01*
X59385Y72335D02*
X59646Y72075D01*
X56165Y72335D02*
X59385D01*
X47000Y81500D02*
X56165Y72335D01*
X47000Y81500D02*
Y82500D01*
D21*
X103000Y54000D02*
D03*
X95000D02*
D03*
Y71000D02*
D03*
X103000D02*
D03*
Y62750D02*
D03*
X95000D02*
D03*
X47000Y61000D02*
D03*
X39000D02*
D03*
X94500Y78750D02*
D03*
X102500D02*
D03*
X39000Y71750D02*
D03*
X47000D02*
D03*
X39000Y82500D02*
D03*
X47000D02*
D03*
X94500Y87000D02*
D03*
X102500D02*
D03*
D22*
X61000Y114000D02*
D03*
Y106000D02*
D03*
X51500Y114000D02*
D03*
Y106000D02*
D03*
D36*
X14905Y36650D02*
X52150D01*
X4650Y46905D02*
Y94150D01*
Y46905D02*
X14905Y36650D01*
X52150D02*
X61000Y45500D01*
X4650Y94150D02*
X17500Y107000D01*
D37*
X17000Y83000D02*
X29500Y95500D01*
X51000D01*
X98500Y74500D02*
Y83000D01*
X94500Y87000D02*
X98500Y83000D01*
X92500Y89000D02*
X94500Y87000D01*
X55583Y89000D02*
X92500D01*
X78150Y77075D02*
X85575D01*
X47500Y89000D02*
X55583D01*
X55850Y89267D01*
Y110650D01*
X52500Y114000D02*
X55850Y110650D01*
X51500Y114000D02*
X52500D01*
X51000Y105500D02*
X51500Y106000D01*
X51000Y95500D02*
Y105500D01*
X44500Y89000D02*
X47500D01*
X39000Y83500D02*
X44500Y89000D01*
X102000Y71000D02*
X103000D01*
X98500Y74500D02*
X102000Y71000D01*
X85575Y77075D02*
X94500Y86000D01*
X78150Y72075D02*
X87825D01*
X92250Y76500D01*
X93250D01*
X94500Y77750D01*
Y78750D01*
X39000Y71750D02*
Y82500D01*
Y83500D01*
X47000Y61000D02*
X48075Y62075D01*
D39*
X17500Y97000D02*
D03*
X17000Y53000D02*
D03*
X122000Y60500D02*
D03*
D40*
X17500Y107000D02*
D03*
X17000Y83000D02*
D03*
Y73000D02*
D03*
Y63000D02*
D03*
X28000Y26000D02*
D03*
X38000D02*
D03*
X48000D02*
D03*
X112000Y80500D02*
D03*
X122000D02*
D03*
X112000Y70500D02*
D03*
X122000D02*
D03*
X112000Y60500D02*
D03*
X61000Y45500D02*
D03*
X71000D02*
D03*
X81000D02*
D03*
X91000D02*
D03*
X101000D02*
D03*
X111000D02*
D03*
X121000D02*
D03*
X61000Y95500D02*
D03*
X71000D02*
D03*
X81000D02*
D03*
X91000D02*
D03*
X101000D02*
D03*
X111000D02*
D03*
X121000D02*
D03*
X101000Y26000D02*
D03*
X91000D02*
D03*
X81000D02*
D03*
D41*
X58000D02*
D03*
X51000Y45500D02*
D03*
Y95500D02*
D03*
X71000Y26000D02*
D03*
D42*
X109000Y55000D02*
D03*
X71500Y68000D02*
D03*
X41500Y48500D02*
D03*
Y76416D02*
D03*
X70500Y79500D02*
D03*
X73500D02*
D03*
X76500Y82000D02*
D03*
X52000Y55000D02*
D03*
X90500Y65500D02*
D03*
D43*
X47500Y89000D02*
D03*
D44*
X120079Y120079D02*
D03*
Y17717D02*
D03*
X17717D02*
D03*
Y120079D02*
D03*
D45*
X59646Y62075D02*
D03*
Y67075D02*
D03*
Y72075D02*
D03*
Y77075D02*
D03*
X78150Y62075D02*
D03*
Y67075D02*
D03*
Y72075D02*
D03*
Y77075D02*
D03*
D46*
X46000Y40500D02*
X51000Y45500D01*
X16500Y40500D02*
X46000D01*
X8500Y48500D02*
X16500Y40500D01*
X8500Y48500D02*
Y88000D01*
X17500Y97000D01*
D47*
X71000Y26000D02*
Y45500D01*
X81000Y26000D02*
Y45500D01*
X91000Y26000D02*
Y45500D01*
X101000Y26000D02*
Y45500D01*
M02*
