G04*
G04 #@! TF.GenerationSoftware,Altium Limited,Altium Designer,19.1.8 (144)*
G04*
G04 Layer_Color=255*
%FSLAX25Y25*%
%MOIN*%
G70*
G01*
G75*
%ADD21R,0.04000X0.06000*%
%ADD22R,0.06000X0.04000*%
%ADD39R,0.05906X0.05906*%
%ADD40C,0.05906*%
%ADD41R,0.05906X0.05906*%
%ADD45O,0.07480X0.02362*%
D21*
X103000Y54000D02*
D03*
X95000D02*
D03*
Y71000D02*
D03*
X103000D02*
D03*
Y62750D02*
D03*
X95000D02*
D03*
X47000Y61000D02*
D03*
X39000D02*
D03*
X94500Y78750D02*
D03*
X102500D02*
D03*
X39000Y71750D02*
D03*
X47000D02*
D03*
X39000Y82500D02*
D03*
X47000D02*
D03*
X94500Y87000D02*
D03*
X102500D02*
D03*
D22*
X61000Y114000D02*
D03*
Y106000D02*
D03*
X51500Y114000D02*
D03*
Y106000D02*
D03*
D39*
X17500Y97000D02*
D03*
X17000Y53000D02*
D03*
X122000Y60500D02*
D03*
D40*
X17500Y107000D02*
D03*
X17000Y83000D02*
D03*
Y73000D02*
D03*
Y63000D02*
D03*
X28000Y26000D02*
D03*
X38000D02*
D03*
X48000D02*
D03*
X112000Y80500D02*
D03*
X122000D02*
D03*
X112000Y70500D02*
D03*
X122000D02*
D03*
X112000Y60500D02*
D03*
X61000Y45500D02*
D03*
X71000D02*
D03*
X81000D02*
D03*
X91000D02*
D03*
X101000D02*
D03*
X111000D02*
D03*
X121000D02*
D03*
X61000Y95500D02*
D03*
X71000D02*
D03*
X81000D02*
D03*
X91000D02*
D03*
X101000D02*
D03*
X111000D02*
D03*
X121000D02*
D03*
X101000Y26000D02*
D03*
X91000D02*
D03*
X81000D02*
D03*
D41*
X58000D02*
D03*
X51000Y45500D02*
D03*
Y95500D02*
D03*
X71000Y26000D02*
D03*
D45*
X59646Y62075D02*
D03*
Y67075D02*
D03*
Y72075D02*
D03*
Y77075D02*
D03*
X78150Y62075D02*
D03*
Y67075D02*
D03*
Y72075D02*
D03*
Y77075D02*
D03*
M02*
