G04*
G04 #@! TF.GenerationSoftware,Altium Limited,Altium Designer,19.1.8 (144)*
G04*
G04 Layer_Color=32896*
%FSLAX25Y25*%
%MOIN*%
G70*
G01*
G75*
%ADD10C,0.00984*%
%ADD11C,0.01575*%
%ADD12C,0.00787*%
%ADD13C,0.00800*%
%ADD14C,0.01200*%
%ADD15C,0.01000*%
D10*
X78642Y80421D02*
X77903Y80848D01*
Y79995D01*
X78642Y80421D01*
D11*
X70472Y76268D02*
X69928Y77017D01*
X69048Y76731D01*
Y75805D01*
X69928Y75519D01*
X70472Y76268D01*
D12*
X64961Y59732D02*
X72835D01*
X64961Y79417D02*
X72835D01*
X64961Y59732D02*
Y79417D01*
X72835Y59732D02*
Y79417D01*
D13*
X105500Y67500D02*
Y74500D01*
X92500D02*
X105500D01*
X92500Y67500D02*
Y74500D01*
Y67500D02*
X105500D01*
X92500Y59250D02*
Y66250D01*
Y59250D02*
X105500D01*
Y66250D01*
X92500D02*
X105500D01*
X64500Y103500D02*
Y116500D01*
X57500Y103500D02*
X64500D01*
X57500D02*
Y116500D01*
X64500D01*
X55000Y103500D02*
Y116500D01*
X48000Y103500D02*
X55000D01*
X48000D02*
Y116500D01*
X55000D01*
X36500Y57500D02*
X49500D01*
X36500D02*
Y64500D01*
X49500D01*
Y57500D02*
Y64500D01*
X36500Y75250D02*
X49500D01*
Y68250D02*
Y75250D01*
X36500Y68250D02*
X49500D01*
X36500D02*
Y75250D01*
Y86000D02*
X49500D01*
Y79000D02*
Y86000D01*
X36500Y79000D02*
X49500D01*
X36500D02*
Y86000D01*
D14*
X98999Y51539D02*
Y56460D01*
X98499Y76289D02*
Y81211D01*
Y84540D02*
Y89460D01*
D15*
X81400Y90398D02*
Y85400D01*
X80400Y84400D01*
X78401D01*
X77401Y85400D01*
Y90398D01*
X75402Y84400D02*
X73403D01*
X74402D01*
Y90398D01*
X75402Y89398D01*
M02*
