G04*
G04 #@! TF.GenerationSoftware,Altium Limited,Altium Designer,19.1.8 (144)*
G04*
G04 Layer_Color=65535*
%FSLAX25Y25*%
%MOIN*%
G70*
G01*
G75*
%ADD10C,0.00787*%
%ADD11C,0.00984*%
%ADD12C,0.01575*%
%ADD13C,0.00394*%
%ADD14C,0.00800*%
%ADD15C,0.01200*%
%ADD16C,0.01000*%
D10*
X18551Y60224D02*
Y59831D01*
Y60224D01*
Y59831D01*
X73972Y5307D02*
X81453D01*
X73972Y18693D02*
X81453D01*
X73972Y5307D02*
Y18693D01*
X96020Y6882D02*
Y17118D01*
X87358Y5307D02*
X94051D01*
X94051Y18693D02*
X96020Y17118D01*
X94051Y5307D02*
X96020Y6882D01*
X87358Y18693D02*
X94051D01*
X97807Y118953D02*
Y126433D01*
X111193Y118953D02*
Y126433D01*
X97807D02*
X111193D01*
X99382Y104386D02*
X109618D01*
X97807Y106354D02*
Y113047D01*
X109618Y104386D02*
X111193Y106354D01*
X97807Y106354D02*
X99382Y104386D01*
X111193Y106354D02*
Y113047D01*
X129000Y66333D02*
Y85500D01*
Y55500D02*
Y85500D01*
X109000Y55500D02*
Y85500D01*
Y55500D02*
X129000D01*
X109000Y85500D02*
X129000D01*
X28500Y21500D02*
Y31500D01*
Y21500D02*
X68500D01*
X28500Y31500D02*
X68500D01*
Y21500D02*
Y31500D01*
X70500Y21500D02*
Y31500D01*
Y21500D02*
X110500D01*
X70500Y31500D02*
X110500D01*
Y21500D02*
Y31500D01*
X5500Y108500D02*
X15500D01*
X5500Y88500D02*
X15500D01*
X5500D02*
Y108500D01*
X15500Y88500D02*
Y108500D01*
X49000Y40500D02*
X129000D01*
Y50500D01*
X49000D02*
X129000D01*
X49000Y40500D02*
Y50500D01*
Y90500D02*
X129000D01*
Y100500D01*
X49000D02*
X129000D01*
X49000Y90500D02*
Y100500D01*
X15500Y26500D02*
Y86500D01*
X5500Y26500D02*
Y86500D01*
Y26500D02*
X15500D01*
X5500Y86500D02*
X15500D01*
X50240Y104205D02*
X58508D01*
X50240D02*
Y129795D01*
X58508D01*
X56276Y82579D02*
X81079D01*
Y57776D02*
Y82579D01*
X56276Y57776D02*
X81079D01*
X56276D02*
Y82579D01*
D11*
X42071Y129992D02*
X41333Y130418D01*
Y129566D01*
X42071Y129992D01*
D12*
X51354Y85925D02*
X50810Y86674D01*
X49930Y86388D01*
Y85462D01*
X50810Y85176D01*
X51354Y85925D01*
D13*
X23079Y45658D02*
X32921D01*
X23079D02*
X32921D01*
X23079Y65342D02*
X32921D01*
X23079D02*
X32921D01*
D14*
X38000Y47500D02*
X45000D01*
X38000D02*
Y60500D01*
X45000D01*
Y47500D02*
Y60500D01*
X86500Y117000D02*
X93500D01*
Y104000D02*
Y117000D01*
X86500Y104000D02*
X93500D01*
X86500D02*
Y117000D01*
X92000Y89000D02*
X105000D01*
X92000Y82000D02*
Y89000D01*
Y82000D02*
X105000D01*
Y89000D01*
D15*
X27540Y83999D02*
X32460D01*
X87539Y124999D02*
X92461D01*
X30040Y98999D02*
X34960D01*
X98501Y75039D02*
Y79961D01*
X98499Y59039D02*
Y63960D01*
X36540Y83999D02*
X41460D01*
X98499Y67040D02*
Y71961D01*
X27499Y69039D02*
Y73961D01*
X39039Y68501D02*
X43960D01*
D16*
X18000Y92999D02*
X21999D01*
X19999Y94998D02*
Y91000D01*
X18000Y103999D02*
X21999D01*
X22500Y42998D02*
Y41998D01*
X24499Y39999D01*
X26499Y41998D01*
Y42998D01*
X24499Y39999D02*
Y37000D01*
X28498D02*
X30497D01*
X29498D01*
Y42998D01*
X28498Y41998D01*
M02*
