G04*
G04 #@! TF.GenerationSoftware,Altium Limited,Altium Designer,19.1.8 (144)*
G04*
G04 Layer_Color=16711935*
%FSLAX25Y25*%
%MOIN*%
G70*
G01*
G75*
%ADD28R,0.04800X0.06800*%
%ADD29R,0.06800X0.04800*%
%ADD30R,0.06706X0.06706*%
%ADD31C,0.06706*%
%ADD32R,0.06706X0.06706*%
%ADD33C,0.02769*%
%ADD34C,0.04800*%
%ADD35C,0.12611*%
%ADD48O,0.08280X0.03162*%
D28*
X103000Y54000D02*
D03*
X95000D02*
D03*
Y71000D02*
D03*
X103000D02*
D03*
Y62750D02*
D03*
X95000D02*
D03*
X47000Y61000D02*
D03*
X39000D02*
D03*
X94500Y78750D02*
D03*
X102500D02*
D03*
X39000Y71750D02*
D03*
X47000D02*
D03*
X39000Y82500D02*
D03*
X47000D02*
D03*
X94500Y87000D02*
D03*
X102500D02*
D03*
D29*
X61000Y114000D02*
D03*
Y106000D02*
D03*
X51500Y114000D02*
D03*
Y106000D02*
D03*
D30*
X17500Y97000D02*
D03*
X17000Y53000D02*
D03*
X122000Y60500D02*
D03*
D31*
X17500Y107000D02*
D03*
X17000Y83000D02*
D03*
Y73000D02*
D03*
Y63000D02*
D03*
X28000Y26000D02*
D03*
X38000D02*
D03*
X48000D02*
D03*
X112000Y80500D02*
D03*
X122000D02*
D03*
X112000Y70500D02*
D03*
X122000D02*
D03*
X112000Y60500D02*
D03*
X61000Y45500D02*
D03*
X71000D02*
D03*
X81000D02*
D03*
X91000D02*
D03*
X101000D02*
D03*
X111000D02*
D03*
X121000D02*
D03*
X61000Y95500D02*
D03*
X71000D02*
D03*
X81000D02*
D03*
X91000D02*
D03*
X101000D02*
D03*
X111000D02*
D03*
X121000D02*
D03*
X101000Y26000D02*
D03*
X91000D02*
D03*
X81000D02*
D03*
D32*
X58000D02*
D03*
X51000Y45500D02*
D03*
Y95500D02*
D03*
X71000Y26000D02*
D03*
D33*
X109000Y55000D02*
D03*
X71500Y68000D02*
D03*
X41500Y48500D02*
D03*
Y76416D02*
D03*
X70500Y79500D02*
D03*
X73500D02*
D03*
X76500Y82000D02*
D03*
X52000Y55000D02*
D03*
X90500Y65500D02*
D03*
D34*
X47500Y89000D02*
D03*
D35*
X120079Y120079D02*
D03*
Y17717D02*
D03*
X17717D02*
D03*
Y120079D02*
D03*
D48*
X59646Y62075D02*
D03*
Y67075D02*
D03*
Y72075D02*
D03*
Y77075D02*
D03*
X78150Y62075D02*
D03*
Y67075D02*
D03*
Y72075D02*
D03*
Y77075D02*
D03*
M02*
