G04*
G04 #@! TF.GenerationSoftware,Altium Limited,Altium Designer,19.1.8 (144)*
G04*
G04 Layer_Color=16711935*
%FSLAX25Y25*%
%MOIN*%
G70*
G01*
G75*
%ADD29R,0.06800X0.04800*%
%ADD34R,0.04800X0.06800*%
%ADD35C,0.06706*%
%ADD36R,0.06706X0.06706*%
%ADD37R,0.06706X0.06706*%
%ADD38C,0.02769*%
%ADD39C,0.12611*%
%ADD50O,0.08280X0.03162*%
D29*
X65000Y8500D02*
D03*
Y16500D02*
D03*
D34*
X103000Y54000D02*
D03*
X95000D02*
D03*
Y71000D02*
D03*
X103000D02*
D03*
Y62750D02*
D03*
X95000D02*
D03*
X106000Y107000D02*
D03*
X114000D02*
D03*
X131500D02*
D03*
X123500D02*
D03*
X47000Y61000D02*
D03*
X39000D02*
D03*
X94500Y78750D02*
D03*
X102500D02*
D03*
X39000Y71750D02*
D03*
X47000D02*
D03*
X39000Y82500D02*
D03*
X47000D02*
D03*
X94500Y87000D02*
D03*
X102500D02*
D03*
D35*
X114000Y80500D02*
D03*
X124000D02*
D03*
X114000Y70500D02*
D03*
X124000D02*
D03*
X114000Y60500D02*
D03*
X43500Y26500D02*
D03*
X33500D02*
D03*
X53500D02*
D03*
X85500D02*
D03*
X75500D02*
D03*
X95500D02*
D03*
X10500Y103500D02*
D03*
X54000Y45500D02*
D03*
X64000D02*
D03*
X74000D02*
D03*
X84000D02*
D03*
X94000D02*
D03*
X104000D02*
D03*
X114000D02*
D03*
X54000Y95500D02*
D03*
X64000D02*
D03*
X74000D02*
D03*
X84000D02*
D03*
X94000D02*
D03*
X104000D02*
D03*
X114000D02*
D03*
X10500Y81500D02*
D03*
Y71500D02*
D03*
Y61500D02*
D03*
Y51500D02*
D03*
Y41500D02*
D03*
D36*
X124000Y60500D02*
D03*
X10500Y93500D02*
D03*
Y31500D02*
D03*
D37*
X63500Y26500D02*
D03*
X105500D02*
D03*
X124000Y45500D02*
D03*
Y95500D02*
D03*
D38*
X70252Y62303D02*
D03*
X78500Y4000D02*
D03*
X85000Y86500D02*
D03*
X71000Y79500D02*
D03*
X97500Y107000D02*
D03*
X90376Y71876D02*
D03*
X60000Y80500D02*
D03*
X90953Y65453D02*
D03*
X61500Y102500D02*
D03*
X66000Y79500D02*
D03*
D39*
X120079Y120079D02*
D03*
Y17717D02*
D03*
X17717D02*
D03*
Y120079D02*
D03*
D50*
X59646Y62075D02*
D03*
Y67075D02*
D03*
Y72075D02*
D03*
Y77075D02*
D03*
X78150Y62075D02*
D03*
Y67075D02*
D03*
Y72075D02*
D03*
Y77075D02*
D03*
M02*
