G04*
G04 #@! TF.GenerationSoftware,Altium Limited,Altium Designer,19.1.8 (144)*
G04*
G04 Layer_Physical_Order=2*
G04 Layer_Color=8732672*
%FSLAX25Y25*%
%MOIN*%
G70*
G01*
G75*
%ADD16C,0.01000*%
%ADD20R,0.06000X0.04000*%
%ADD25R,0.04000X0.06000*%
%ADD40C,0.01500*%
%ADD43C,0.04000*%
%ADD44C,0.05906*%
%ADD45R,0.05906X0.05906*%
%ADD46R,0.05906X0.05906*%
%ADD47C,0.01968*%
%ADD48C,0.11811*%
%ADD49O,0.07480X0.02362*%
G36*
X137500Y122343D02*
Y15453D01*
X122047Y-0D01*
X15748D01*
X-0Y15748D01*
Y122047D01*
X15953Y138000D01*
X121843Y138000D01*
X137500Y122343D01*
D02*
G37*
%LPC*%
G36*
X120079Y126616D02*
X118803Y126490D01*
X117577Y126118D01*
X116447Y125514D01*
X115456Y124701D01*
X114643Y123711D01*
X114039Y122580D01*
X113667Y121354D01*
X113542Y120079D01*
X113667Y118803D01*
X114039Y117577D01*
X114643Y116447D01*
X115456Y115456D01*
X116447Y114643D01*
X117577Y114039D01*
X118114Y113876D01*
X118040Y113376D01*
X51530D01*
X51003Y113272D01*
X50557Y112973D01*
X35927Y98343D01*
X35628Y97897D01*
X35524Y97370D01*
Y89470D01*
X28930Y82876D01*
X15208D01*
X15162Y82898D01*
X14950Y82910D01*
X14769Y82939D01*
X14581Y82989D01*
X14387Y83060D01*
X14185Y83156D01*
X13975Y83276D01*
X13758Y83422D01*
X13535Y83595D01*
X13306Y83795D01*
X13061Y84033D01*
X13007Y84054D01*
X12292Y84603D01*
X11428Y84961D01*
X10500Y85083D01*
X9572Y84961D01*
X8708Y84603D01*
X7966Y84034D01*
X7397Y83292D01*
X7039Y82427D01*
X6917Y81500D01*
X7039Y80573D01*
X7397Y79708D01*
X7966Y78966D01*
X8708Y78397D01*
X9572Y78039D01*
X10500Y77917D01*
X11428Y78039D01*
X12292Y78397D01*
X13007Y78946D01*
X13061Y78967D01*
X13307Y79206D01*
X13535Y79405D01*
X13758Y79578D01*
X13975Y79724D01*
X14184Y79844D01*
X14387Y79940D01*
X14581Y80011D01*
X14769Y80061D01*
X14950Y80090D01*
X15162Y80102D01*
X15208Y80124D01*
X29500D01*
X30027Y80228D01*
X30473Y80527D01*
X35900Y85953D01*
X36400Y85746D01*
Y81847D01*
X36220Y81667D01*
X35521Y81000D01*
X35518Y80993D01*
X35510Y80989D01*
X35466Y80883D01*
X35228Y80527D01*
X35124Y80000D01*
Y74250D01*
X35228Y73723D01*
X35466Y73367D01*
X35510Y73260D01*
X35511Y73260D01*
X35512Y73259D01*
X35891Y72882D01*
X35897Y72879D01*
X35899Y72874D01*
X36400Y72392D01*
Y70807D01*
X36223Y70772D01*
X35777Y70473D01*
X23680Y58376D01*
X13087D01*
X12917Y58876D01*
X13034Y58966D01*
X13603Y59708D01*
X13961Y60573D01*
X14083Y61500D01*
X13961Y62427D01*
X13603Y63292D01*
X13034Y64034D01*
X12292Y64603D01*
X11428Y64961D01*
X10500Y65083D01*
X9572Y64961D01*
X8708Y64603D01*
X7966Y64034D01*
X7397Y63292D01*
X7039Y62427D01*
X6917Y61500D01*
X7039Y60573D01*
X7397Y59708D01*
X7966Y58966D01*
X8500Y58557D01*
X8525Y57999D01*
X8502Y57949D01*
X3027Y52473D01*
X2728Y52027D01*
X2623Y51500D01*
Y38000D01*
X2728Y37473D01*
X3027Y37027D01*
X6004Y34049D01*
X6023Y33999D01*
X6561Y33420D01*
X6746Y33189D01*
X6888Y32986D01*
X6947Y32884D01*
Y32381D01*
X6922Y32319D01*
X6943Y32269D01*
X6930Y32217D01*
X6947Y32189D01*
Y27947D01*
X14053D01*
Y35053D01*
X9811D01*
X9783Y35070D01*
X9731Y35058D01*
X9681Y35078D01*
X9619Y35053D01*
X9116D01*
X9014Y35112D01*
X8818Y35249D01*
X8304Y35685D01*
X8010Y35969D01*
X7957Y35990D01*
X5376Y38570D01*
Y50930D01*
X6483Y52036D01*
X6956Y51803D01*
X6917Y51500D01*
X7039Y50573D01*
X7397Y49708D01*
X7966Y48966D01*
X8708Y48397D01*
X9572Y48039D01*
X10500Y47917D01*
X11428Y48039D01*
X12292Y48397D01*
X13007Y48946D01*
X13061Y48967D01*
X13307Y49206D01*
X13535Y49406D01*
X13758Y49578D01*
X13975Y49724D01*
X14184Y49845D01*
X14387Y49940D01*
X14581Y50011D01*
X14769Y50061D01*
X14950Y50090D01*
X15162Y50102D01*
X15208Y50124D01*
X16430D01*
X31027Y35527D01*
X31027Y35527D01*
X31473Y35228D01*
X32000Y35124D01*
X64000D01*
X64527Y35228D01*
X64973Y35527D01*
X69973Y40527D01*
X70272Y40973D01*
X70376Y41500D01*
X70376Y41500D01*
Y43658D01*
X70876Y43757D01*
X70897Y43708D01*
X71290Y43195D01*
X71351Y41532D01*
X71378Y41474D01*
Y30834D01*
X71353Y30756D01*
X71371Y30723D01*
X71363Y30687D01*
X71378Y30616D01*
Y28516D01*
X71377Y28516D01*
X71467Y27837D01*
X71729Y27204D01*
X71968Y26893D01*
X71917Y26500D01*
X72039Y25573D01*
X72397Y24708D01*
X72966Y23966D01*
X73708Y23397D01*
X74573Y23039D01*
X75500Y22917D01*
X76427Y23039D01*
X77292Y23397D01*
X78034Y23966D01*
X78603Y24708D01*
X78961Y25573D01*
X79083Y26500D01*
X78961Y27427D01*
X78603Y28292D01*
X78034Y29034D01*
X77292Y29603D01*
X76716Y29842D01*
X76651Y30869D01*
X76649Y31186D01*
X76638Y31213D01*
X76647Y31241D01*
X76622Y31287D01*
Y41487D01*
X76649Y41550D01*
X76660Y42682D01*
X76681Y43151D01*
X76682Y43159D01*
X77103Y43708D01*
X77461Y44573D01*
X77583Y45500D01*
X77461Y46427D01*
X77103Y47292D01*
X76534Y48034D01*
X75792Y48603D01*
X74927Y48961D01*
X74000Y49083D01*
X73073Y48961D01*
X72208Y48603D01*
X71466Y48034D01*
X70897Y47292D01*
X70876Y47243D01*
X70376Y47342D01*
Y49430D01*
X73570Y52624D01*
X91444D01*
X91495Y52601D01*
X91762Y52594D01*
X91975Y52575D01*
X92146Y52547D01*
X92273Y52513D01*
X92354Y52480D01*
X92374Y52468D01*
X92378Y52431D01*
X92400Y52391D01*
Y50400D01*
X97600D01*
Y57600D01*
X96609D01*
X96569Y57622D01*
X96532Y57626D01*
X96520Y57646D01*
X96487Y57727D01*
X96453Y57854D01*
X96425Y58025D01*
X96406Y58238D01*
X96403Y58375D01*
X96406Y58512D01*
X96425Y58725D01*
X96453Y58896D01*
X96487Y59023D01*
X96520Y59104D01*
X96532Y59124D01*
X96569Y59128D01*
X96609Y59150D01*
X97600D01*
X98000Y58908D01*
X98027Y58868D01*
X99467Y57427D01*
X99914Y57128D01*
X100000Y57111D01*
Y54500D01*
X106000D01*
Y57024D01*
X106530D01*
X110027Y53527D01*
X110473Y53228D01*
X111000Y53124D01*
X118000D01*
X118527Y53228D01*
X118973Y53527D01*
X121450Y56004D01*
X121501Y56023D01*
X122078Y56558D01*
X122307Y56742D01*
X122510Y56882D01*
X122623Y56947D01*
X123090D01*
X123181Y56910D01*
X123230Y56930D01*
X123282Y56918D01*
X123330Y56947D01*
X127553D01*
Y64053D01*
X120447D01*
Y59830D01*
X120418Y59782D01*
X120430Y59730D01*
X120410Y59681D01*
X120447Y59590D01*
Y59123D01*
X120382Y59010D01*
X120247Y58814D01*
X119814Y58302D01*
X119531Y58010D01*
X119510Y57957D01*
X117430Y55876D01*
X111570D01*
X108073Y59373D01*
X107627Y59672D01*
X107100Y59776D01*
X106000D01*
Y62250D01*
X103000D01*
Y63250D01*
X106000D01*
Y65119D01*
X106162Y65287D01*
X106188Y65352D01*
X106761Y65925D01*
X107304Y65760D01*
X107311Y65724D01*
X107554Y65360D01*
X109826Y63088D01*
X109844Y63033D01*
X109955Y62905D01*
X110034Y62783D01*
X110112Y62626D01*
X110184Y62433D01*
X110249Y62204D01*
X110304Y61939D01*
X110346Y61646D01*
X110395Y60929D01*
X110398Y60525D01*
X110420Y60472D01*
X110539Y59573D01*
X110897Y58708D01*
X111466Y57966D01*
X112208Y57397D01*
X113073Y57039D01*
X114000Y56917D01*
X114927Y57039D01*
X115792Y57397D01*
X116534Y57966D01*
X117103Y58708D01*
X117461Y59573D01*
X117583Y60500D01*
X117461Y61427D01*
X117103Y62292D01*
X116534Y63034D01*
X115792Y63603D01*
X114927Y63961D01*
X114028Y64080D01*
X113975Y64102D01*
X113571Y64105D01*
X112854Y64154D01*
X112561Y64196D01*
X112296Y64251D01*
X112067Y64316D01*
X111874Y64388D01*
X111717Y64466D01*
X111595Y64545D01*
X111467Y64656D01*
X111412Y64674D01*
X109469Y66617D01*
Y70255D01*
X109953Y70380D01*
X110781Y68885D01*
X110845Y68834D01*
X110897Y68708D01*
X111466Y67966D01*
X112208Y67397D01*
X113073Y67039D01*
X114000Y66917D01*
X114927Y67039D01*
X115792Y67397D01*
X116534Y67966D01*
X117103Y68708D01*
X117461Y69573D01*
X117583Y70500D01*
X117461Y71427D01*
X117103Y72292D01*
X116534Y73034D01*
X115792Y73603D01*
X114927Y73961D01*
X114000Y74083D01*
X113073Y73961D01*
X112243Y73618D01*
X112186Y73612D01*
X112184Y73609D01*
X112181Y73609D01*
X111916Y73463D01*
X111691Y73359D01*
X111569Y73314D01*
X111338Y73411D01*
X111133Y73579D01*
X111069Y73694D01*
Y77731D01*
X111569Y77887D01*
X112208Y77397D01*
X113073Y77039D01*
X114000Y76917D01*
X114927Y77039D01*
X115792Y77397D01*
X116534Y77966D01*
X117103Y78708D01*
X117461Y79573D01*
X117583Y80500D01*
X117461Y81427D01*
X117103Y82292D01*
X116551Y83011D01*
X116530Y83065D01*
X116246Y83353D01*
X115773Y83894D01*
X115596Y84131D01*
X115447Y84357D01*
X115331Y84565D01*
X115246Y84753D01*
X115190Y84918D01*
X115160Y85061D01*
X115148Y85229D01*
X115122Y85281D01*
Y90719D01*
X115148Y90771D01*
X115160Y90939D01*
X115190Y91082D01*
X115246Y91247D01*
X115331Y91435D01*
X115447Y91643D01*
X115596Y91869D01*
X115773Y92106D01*
X116246Y92647D01*
X116530Y92936D01*
X116551Y92989D01*
X117103Y93708D01*
X117461Y94573D01*
X117583Y95500D01*
X117461Y96427D01*
X117103Y97292D01*
X116554Y98007D01*
X116533Y98061D01*
X116294Y98307D01*
X116095Y98535D01*
X115922Y98758D01*
X115776Y98975D01*
X115656Y99184D01*
X115560Y99387D01*
X115489Y99581D01*
X115439Y99769D01*
X115410Y99950D01*
X115399Y100162D01*
X115376Y100208D01*
Y102444D01*
X115399Y102495D01*
X115406Y102762D01*
X115425Y102975D01*
X115453Y103146D01*
X115487Y103273D01*
X115520Y103354D01*
X115532Y103374D01*
X115568Y103378D01*
X115609Y103400D01*
X116600D01*
Y110600D01*
X117090Y110624D01*
X117930D01*
X120277Y108277D01*
X120723Y107978D01*
X120900Y107943D01*
Y103400D01*
X121870D01*
X121932Y103366D01*
X121969Y103362D01*
X121981Y103343D01*
X122013Y103264D01*
X122047Y103139D01*
X122075Y102970D01*
X122094Y102760D01*
X122101Y102495D01*
X122124Y102444D01*
Y100009D01*
X122101Y99958D01*
X122094Y99690D01*
X122075Y99478D01*
X122047Y99307D01*
X122013Y99180D01*
X121980Y99099D01*
X121968Y99078D01*
X121932Y99075D01*
X121891Y99053D01*
X120447D01*
Y91947D01*
X127553D01*
Y99053D01*
X125109D01*
X125068Y99075D01*
X125032Y99078D01*
X125020Y99099D01*
X124987Y99180D01*
X124953Y99307D01*
X124925Y99478D01*
X124906Y99690D01*
X124899Y99958D01*
X124876Y100009D01*
Y102444D01*
X124899Y102495D01*
X124906Y102760D01*
X124925Y102970D01*
X124953Y103139D01*
X124987Y103264D01*
X125019Y103343D01*
X125031Y103362D01*
X125068Y103366D01*
X125130Y103400D01*
X126100D01*
Y110600D01*
X122383D01*
X122250Y110626D01*
X121820D01*
X119473Y112973D01*
X119253Y113121D01*
X119426Y113606D01*
X120079Y113542D01*
X121354Y113667D01*
X122580Y114039D01*
X123711Y114643D01*
X124701Y115456D01*
X125514Y116447D01*
X126118Y117577D01*
X126490Y118803D01*
X126616Y120079D01*
X126490Y121354D01*
X126118Y122580D01*
X125514Y123711D01*
X124701Y124701D01*
X123711Y125514D01*
X122580Y126118D01*
X121354Y126490D01*
X120079Y126616D01*
D02*
G37*
G36*
X17717D02*
X16441Y126490D01*
X15215Y126118D01*
X14085Y125514D01*
X13094Y124701D01*
X12281Y123711D01*
X11677Y122580D01*
X11305Y121354D01*
X11180Y120079D01*
X11305Y118803D01*
X11677Y117577D01*
X12281Y116447D01*
X13094Y115456D01*
X14085Y114643D01*
X15215Y114039D01*
X16441Y113667D01*
X17717Y113542D01*
X18992Y113667D01*
X20218Y114039D01*
X21348Y114643D01*
X22339Y115456D01*
X23152Y116447D01*
X23756Y117577D01*
X24128Y118803D01*
X24253Y120079D01*
X24128Y121354D01*
X23756Y122580D01*
X23152Y123711D01*
X22339Y124701D01*
X21348Y125514D01*
X20218Y126118D01*
X18992Y126490D01*
X17717Y126616D01*
D02*
G37*
G36*
X11000Y107421D02*
Y104000D01*
X14421D01*
X14351Y104532D01*
X13953Y105493D01*
X13319Y106319D01*
X12493Y106953D01*
X11532Y107351D01*
X11000Y107421D01*
D02*
G37*
G36*
X10000D02*
X9468Y107351D01*
X8507Y106953D01*
X7681Y106319D01*
X7047Y105493D01*
X6649Y104532D01*
X6579Y104000D01*
X10000D01*
Y107421D01*
D02*
G37*
G36*
X14421Y103000D02*
X11000D01*
Y99579D01*
X11532Y99649D01*
X12493Y100047D01*
X13319Y100681D01*
X13953Y101507D01*
X14351Y102468D01*
X14421Y103000D01*
D02*
G37*
G36*
X10000D02*
X6579D01*
X6649Y102468D01*
X7047Y101507D01*
X7681Y100681D01*
X8507Y100047D01*
X9468Y99649D01*
X10000Y99579D01*
Y103000D01*
D02*
G37*
G36*
X14053Y97053D02*
X6947D01*
Y89947D01*
X14053D01*
Y97053D01*
D02*
G37*
G36*
X134100Y110600D02*
X128900D01*
Y103400D01*
X129870D01*
X129932Y103366D01*
X129969Y103362D01*
X129981Y103343D01*
X130014Y103264D01*
X130047Y103139D01*
X130075Y102970D01*
X130094Y102760D01*
X130101Y102495D01*
X130124Y102444D01*
Y88570D01*
X126356Y84803D01*
X126308Y84786D01*
X126150Y84644D01*
X126001Y84536D01*
X125833Y84438D01*
X125645Y84351D01*
X125435Y84276D01*
X125202Y84213D01*
X124945Y84163D01*
X124665Y84127D01*
X124362Y84107D01*
X124020Y84102D01*
X123967Y84079D01*
X123073Y83961D01*
X122208Y83603D01*
X121466Y83034D01*
X120897Y82292D01*
X120539Y81427D01*
X120417Y80500D01*
X120539Y79573D01*
X120897Y78708D01*
X121466Y77966D01*
X122208Y77397D01*
X123073Y77039D01*
X124000Y76917D01*
X124927Y77039D01*
X125792Y77397D01*
X126534Y77966D01*
X127103Y78708D01*
X127461Y79573D01*
X127579Y80467D01*
X127602Y80520D01*
X127607Y80862D01*
X127627Y81165D01*
X127663Y81445D01*
X127713Y81702D01*
X127776Y81935D01*
X127851Y82145D01*
X127938Y82333D01*
X128036Y82501D01*
X128144Y82650D01*
X128286Y82808D01*
X128303Y82856D01*
X132473Y87027D01*
X132772Y87473D01*
X132876Y88000D01*
Y102444D01*
X132899Y102495D01*
X132906Y102760D01*
X132925Y102970D01*
X132953Y103139D01*
X132986Y103264D01*
X133019Y103343D01*
X133031Y103362D01*
X133068Y103366D01*
X133130Y103400D01*
X134100D01*
Y110600D01*
D02*
G37*
G36*
X10500Y75083D02*
X9572Y74961D01*
X8708Y74603D01*
X7966Y74034D01*
X7397Y73292D01*
X7039Y72427D01*
X6917Y71500D01*
X7039Y70573D01*
X7397Y69708D01*
X7966Y68966D01*
X8708Y68397D01*
X9572Y68039D01*
X10500Y67917D01*
X11428Y68039D01*
X12292Y68397D01*
X13034Y68966D01*
X13603Y69708D01*
X13961Y70573D01*
X14083Y71500D01*
X13961Y72427D01*
X13603Y73292D01*
X13034Y74034D01*
X12292Y74603D01*
X11428Y74961D01*
X10500Y75083D01*
D02*
G37*
G36*
X124000Y74083D02*
X123073Y73961D01*
X122208Y73603D01*
X121466Y73034D01*
X120897Y72292D01*
X120539Y71427D01*
X120417Y70500D01*
X120539Y69573D01*
X120897Y68708D01*
X121466Y67966D01*
X122208Y67397D01*
X123073Y67039D01*
X124000Y66917D01*
X124927Y67039D01*
X125792Y67397D01*
X126534Y67966D01*
X127103Y68708D01*
X127461Y69573D01*
X127583Y70500D01*
X127461Y71427D01*
X127103Y72292D01*
X126534Y73034D01*
X125792Y73603D01*
X124927Y73961D01*
X124000Y74083D01*
D02*
G37*
G36*
X106000Y53500D02*
X103500D01*
Y50000D01*
X106000D01*
Y53500D01*
D02*
G37*
G36*
X102500D02*
X100000D01*
Y50000D01*
X102500D01*
Y53500D01*
D02*
G37*
G36*
X114500Y49421D02*
Y46000D01*
X117921D01*
X117851Y46532D01*
X117453Y47493D01*
X116819Y48319D01*
X115993Y48953D01*
X115032Y49351D01*
X114500Y49421D01*
D02*
G37*
G36*
X113500D02*
X112968Y49351D01*
X112007Y48953D01*
X111181Y48319D01*
X110547Y47493D01*
X110149Y46532D01*
X110079Y46000D01*
X113500D01*
Y49421D01*
D02*
G37*
G36*
X11000Y45421D02*
Y42000D01*
X14421D01*
X14351Y42532D01*
X13953Y43493D01*
X13319Y44319D01*
X12493Y44953D01*
X11532Y45351D01*
X11000Y45421D01*
D02*
G37*
G36*
X10000D02*
X9468Y45351D01*
X8507Y44953D01*
X7681Y44319D01*
X7047Y43493D01*
X6649Y42532D01*
X6579Y42000D01*
X10000D01*
Y45421D01*
D02*
G37*
G36*
X127553Y49053D02*
X120447D01*
Y41947D01*
X127553D01*
Y49053D01*
D02*
G37*
G36*
X117921Y45000D02*
X114500D01*
Y41579D01*
X115032Y41649D01*
X115993Y42047D01*
X116819Y42681D01*
X117453Y43507D01*
X117851Y44468D01*
X117921Y45000D01*
D02*
G37*
G36*
X113500D02*
X110079D01*
X110149Y44468D01*
X110547Y43507D01*
X111181Y42681D01*
X112007Y42047D01*
X112968Y41649D01*
X113500Y41579D01*
Y45000D01*
D02*
G37*
G36*
X14421Y41000D02*
X11000D01*
Y37579D01*
X11532Y37649D01*
X12493Y38047D01*
X13319Y38681D01*
X13953Y39507D01*
X14351Y40468D01*
X14421Y41000D01*
D02*
G37*
G36*
X10000D02*
X6579D01*
X6649Y40468D01*
X7047Y39507D01*
X7681Y38681D01*
X8507Y38047D01*
X9468Y37649D01*
X10000Y37579D01*
Y41000D01*
D02*
G37*
G36*
X104000Y49083D02*
X103073Y48961D01*
X102208Y48603D01*
X101466Y48034D01*
X100897Y47292D01*
X100539Y46427D01*
X100417Y45500D01*
X100539Y44573D01*
X100897Y43708D01*
X101290Y43195D01*
X101351Y41532D01*
X101378Y41474D01*
Y33506D01*
X101351Y33441D01*
X101369Y33397D01*
X101357Y33351D01*
X101378Y33202D01*
Y28000D01*
X101377Y28000D01*
X101467Y27321D01*
X101729Y26689D01*
X101947Y26404D01*
Y22947D01*
X109053D01*
Y30053D01*
X108109D01*
X108070Y30075D01*
X107766Y30107D01*
X107574Y30175D01*
X107405Y30289D01*
X107241Y30466D01*
X107082Y30727D01*
X106937Y31083D01*
X106815Y31534D01*
X106725Y32080D01*
X106669Y32716D01*
X106649Y33458D01*
X106622Y33518D01*
Y41487D01*
X106649Y41550D01*
X106660Y42682D01*
X106681Y43151D01*
X106682Y43159D01*
X107103Y43708D01*
X107461Y44573D01*
X107583Y45500D01*
X107461Y46427D01*
X107103Y47292D01*
X106534Y48034D01*
X105792Y48603D01*
X104927Y48961D01*
X104000Y49083D01*
D02*
G37*
G36*
X94000D02*
X93073Y48961D01*
X92208Y48603D01*
X91466Y48034D01*
X90897Y47292D01*
X90539Y46427D01*
X90417Y45500D01*
X90539Y44573D01*
X90897Y43708D01*
X91290Y43195D01*
X91351Y41532D01*
X91378Y41474D01*
Y30834D01*
X91353Y30756D01*
X91370Y30723D01*
X91363Y30687D01*
X91378Y30616D01*
Y28516D01*
X91378Y28516D01*
X91467Y27837D01*
X91729Y27204D01*
X91968Y26893D01*
X91917Y26500D01*
X92039Y25573D01*
X92397Y24708D01*
X92966Y23966D01*
X93708Y23397D01*
X94573Y23039D01*
X95500Y22917D01*
X96427Y23039D01*
X97292Y23397D01*
X98034Y23966D01*
X98603Y24708D01*
X98961Y25573D01*
X99083Y26500D01*
X98961Y27427D01*
X98603Y28292D01*
X98034Y29034D01*
X97292Y29603D01*
X96716Y29842D01*
X96651Y30869D01*
X96649Y31186D01*
X96638Y31213D01*
X96647Y31241D01*
X96622Y31287D01*
Y41487D01*
X96649Y41550D01*
X96660Y42682D01*
X96681Y43151D01*
X96681Y43159D01*
X97103Y43708D01*
X97461Y44573D01*
X97583Y45500D01*
X97461Y46427D01*
X97103Y47292D01*
X96534Y48034D01*
X95792Y48603D01*
X94927Y48961D01*
X94000Y49083D01*
D02*
G37*
G36*
X84000D02*
X83073Y48961D01*
X82208Y48603D01*
X81466Y48034D01*
X80897Y47292D01*
X80539Y46427D01*
X80417Y45500D01*
X80539Y44573D01*
X80897Y43708D01*
X81290Y43195D01*
X81351Y41532D01*
X81378Y41474D01*
Y30834D01*
X81353Y30756D01*
X81371Y30723D01*
X81363Y30687D01*
X81378Y30616D01*
Y28516D01*
X81378Y28516D01*
X81467Y27837D01*
X81729Y27204D01*
X81968Y26893D01*
X81917Y26500D01*
X82039Y25573D01*
X82397Y24708D01*
X82966Y23966D01*
X83708Y23397D01*
X84573Y23039D01*
X85500Y22917D01*
X86427Y23039D01*
X87292Y23397D01*
X88034Y23966D01*
X88603Y24708D01*
X88961Y25573D01*
X89083Y26500D01*
X88961Y27427D01*
X88603Y28292D01*
X88034Y29034D01*
X87292Y29603D01*
X86716Y29842D01*
X86651Y30869D01*
X86649Y31186D01*
X86638Y31213D01*
X86647Y31241D01*
X86622Y31287D01*
Y41487D01*
X86649Y41550D01*
X86660Y42682D01*
X86681Y43151D01*
X86681Y43159D01*
X87103Y43708D01*
X87461Y44573D01*
X87583Y45500D01*
X87461Y46427D01*
X87103Y47292D01*
X86534Y48034D01*
X85792Y48603D01*
X84927Y48961D01*
X84000Y49083D01*
D02*
G37*
G36*
X53500Y30083D02*
X52573Y29961D01*
X51708Y29603D01*
X50966Y29034D01*
X50397Y28292D01*
X50039Y27427D01*
X49917Y26500D01*
X50039Y25573D01*
X50397Y24708D01*
X50966Y23966D01*
X51708Y23397D01*
X52573Y23039D01*
X53500Y22917D01*
X54427Y23039D01*
X55292Y23397D01*
X56034Y23966D01*
X56603Y24708D01*
X56961Y25573D01*
X57083Y26500D01*
X56961Y27427D01*
X56603Y28292D01*
X56034Y29034D01*
X55292Y29603D01*
X54427Y29961D01*
X53500Y30083D01*
D02*
G37*
G36*
X43500D02*
X42573Y29961D01*
X41708Y29603D01*
X40966Y29034D01*
X40397Y28292D01*
X40039Y27427D01*
X39917Y26500D01*
X40039Y25573D01*
X40397Y24708D01*
X40966Y23966D01*
X41708Y23397D01*
X42573Y23039D01*
X43500Y22917D01*
X44427Y23039D01*
X45292Y23397D01*
X46034Y23966D01*
X46603Y24708D01*
X46961Y25573D01*
X47083Y26500D01*
X46961Y27427D01*
X46603Y28292D01*
X46034Y29034D01*
X45292Y29603D01*
X44427Y29961D01*
X43500Y30083D01*
D02*
G37*
G36*
X33500D02*
X32573Y29961D01*
X31708Y29603D01*
X30966Y29034D01*
X30397Y28292D01*
X30039Y27427D01*
X29917Y26500D01*
X30039Y25573D01*
X30397Y24708D01*
X30966Y23966D01*
X31708Y23397D01*
X32573Y23039D01*
X33500Y22917D01*
X34427Y23039D01*
X35292Y23397D01*
X36034Y23966D01*
X36603Y24708D01*
X36961Y25573D01*
X37083Y26500D01*
X36961Y27427D01*
X36603Y28292D01*
X36034Y29034D01*
X35292Y29603D01*
X34427Y29961D01*
X33500Y30083D01*
D02*
G37*
G36*
X67053Y30053D02*
X59947D01*
Y22947D01*
X62315D01*
X62320Y22931D01*
X62335Y22837D01*
X62346Y22712D01*
X62351Y22542D01*
X62378Y22480D01*
Y19567D01*
X62351Y19505D01*
X62346Y19332D01*
X62335Y19205D01*
X62319Y19108D01*
X62317Y19100D01*
X61400D01*
Y13900D01*
X68600D01*
Y19100D01*
X64683D01*
X64681Y19108D01*
X64665Y19205D01*
X64654Y19332D01*
X64649Y19505D01*
X64622Y19567D01*
Y22480D01*
X64649Y22542D01*
X64654Y22712D01*
X64665Y22837D01*
X64680Y22931D01*
X64685Y22947D01*
X67053D01*
Y30053D01*
D02*
G37*
G36*
X120079Y24253D02*
X118803Y24128D01*
X117577Y23756D01*
X116447Y23152D01*
X115456Y22339D01*
X114643Y21348D01*
X114039Y20218D01*
X113667Y18992D01*
X113542Y17717D01*
X113667Y16441D01*
X114039Y15215D01*
X114643Y14085D01*
X115456Y13094D01*
X116447Y12281D01*
X117577Y11677D01*
X118803Y11305D01*
X120079Y11180D01*
X121354Y11305D01*
X122580Y11677D01*
X123711Y12281D01*
X124701Y13094D01*
X125514Y14085D01*
X126118Y15215D01*
X126490Y16441D01*
X126616Y17717D01*
X126490Y18992D01*
X126118Y20218D01*
X125514Y21348D01*
X124701Y22339D01*
X123711Y23152D01*
X122580Y23756D01*
X121354Y24128D01*
X120079Y24253D01*
D02*
G37*
G36*
X17717D02*
X16441Y24128D01*
X15215Y23756D01*
X14085Y23152D01*
X13094Y22339D01*
X12281Y21348D01*
X11677Y20218D01*
X11305Y18992D01*
X11180Y17717D01*
X11305Y16441D01*
X11677Y15215D01*
X12281Y14085D01*
X13094Y13094D01*
X14085Y12281D01*
X15215Y11677D01*
X16441Y11305D01*
X17717Y11180D01*
X18992Y11305D01*
X20218Y11677D01*
X21348Y12281D01*
X22339Y13094D01*
X23152Y14085D01*
X23756Y15215D01*
X24128Y16441D01*
X24253Y17717D01*
X24128Y18992D01*
X23756Y20218D01*
X23152Y21348D01*
X22339Y22339D01*
X21348Y23152D01*
X20218Y23756D01*
X18992Y24128D01*
X17717Y24253D01*
D02*
G37*
G36*
X68600Y11100D02*
X61400D01*
Y5900D01*
X68600D01*
Y7315D01*
X68616Y7320D01*
X68710Y7335D01*
X68835Y7346D01*
X69005Y7351D01*
X69067Y7378D01*
X70243D01*
X74414Y3207D01*
X74414Y3207D01*
X74778Y2964D01*
X75207Y2878D01*
X75207Y2878D01*
X76978D01*
X77038Y2851D01*
X77222Y2844D01*
X77276Y2839D01*
X77323Y2831D01*
X77358Y2824D01*
X77379Y2817D01*
X77382Y2816D01*
X77395Y2807D01*
X77403Y2806D01*
X77412Y2801D01*
X77435Y2799D01*
X77446Y2797D01*
X77451Y2795D01*
X77882Y2508D01*
X78500Y2385D01*
X79118Y2508D01*
X79642Y2858D01*
X79992Y3382D01*
X80115Y4000D01*
X79992Y4618D01*
X79642Y5142D01*
X79118Y5492D01*
X78500Y5615D01*
X77882Y5492D01*
X77451Y5205D01*
X77446Y5203D01*
X77435Y5201D01*
X77412Y5199D01*
X77403Y5194D01*
X77395Y5193D01*
X77382Y5184D01*
X77379Y5183D01*
X77358Y5176D01*
X77323Y5169D01*
X77283Y5162D01*
X77137Y5151D01*
X77050Y5149D01*
X76986Y5122D01*
X75672D01*
X71500Y9293D01*
X71136Y9536D01*
X70707Y9622D01*
X70707Y9622D01*
X69067D01*
X69005Y9649D01*
X68835Y9654D01*
X68710Y9665D01*
X68616Y9680D01*
X68600Y9685D01*
Y11100D01*
D02*
G37*
%LPD*%
G36*
X111400Y110600D02*
Y103400D01*
X112391D01*
X112432Y103378D01*
X112468Y103374D01*
X112480Y103354D01*
X112513Y103273D01*
X112547Y103146D01*
X112575Y102975D01*
X112594Y102762D01*
X112601Y102495D01*
X112624Y102444D01*
Y100208D01*
X112601Y100162D01*
X112590Y99950D01*
X112561Y99769D01*
X112512Y99581D01*
X112440Y99387D01*
X112345Y99185D01*
X112224Y98975D01*
X112078Y98758D01*
X111905Y98535D01*
X111705Y98306D01*
X111467Y98061D01*
X111446Y98007D01*
X110897Y97292D01*
X110539Y96427D01*
X110417Y95500D01*
X110539Y94573D01*
X110897Y93708D01*
X111449Y92989D01*
X111470Y92936D01*
X111754Y92647D01*
X112227Y92106D01*
X112404Y91869D01*
X112553Y91643D01*
X112669Y91435D01*
X112754Y91247D01*
X112810Y91082D01*
X112840Y90939D01*
X112852Y90771D01*
X112878Y90719D01*
Y85281D01*
X112852Y85229D01*
X112840Y85061D01*
X112810Y84918D01*
X112754Y84753D01*
X112669Y84565D01*
X112553Y84357D01*
X112404Y84131D01*
X112227Y83894D01*
X111754Y83353D01*
X111569Y83164D01*
X111103Y83294D01*
X111069Y83315D01*
Y89553D01*
X111069Y89553D01*
X110983Y89982D01*
X110740Y90346D01*
X110740Y90346D01*
X107184Y93902D01*
X107461Y94573D01*
X107583Y95500D01*
X107461Y96427D01*
X107103Y97292D01*
X106534Y98034D01*
X105792Y98603D01*
X104927Y98961D01*
X104000Y99083D01*
X103073Y98961D01*
X102208Y98603D01*
X101466Y98034D01*
X100897Y97292D01*
X100539Y96427D01*
X100417Y95500D01*
X100539Y94573D01*
X100897Y93708D01*
X101113Y93426D01*
X100916Y92862D01*
X100789Y92831D01*
X98735Y94885D01*
X98729Y94913D01*
X97058Y97403D01*
X97054Y97406D01*
X97053Y97411D01*
X96972Y97463D01*
X96534Y98034D01*
X95792Y98603D01*
X94927Y98961D01*
X94000Y99083D01*
X93073Y98961D01*
X92208Y98603D01*
X91466Y98034D01*
X91122Y97585D01*
X90622Y97755D01*
Y100535D01*
X95693Y105606D01*
X96069Y105569D01*
X96726Y105131D01*
X97000Y105076D01*
Y107000D01*
Y108924D01*
X96726Y108869D01*
X96069Y108431D01*
X95863Y108122D01*
X95500D01*
X95500Y108122D01*
X95071Y108036D01*
X94707Y107793D01*
X94707Y107793D01*
X88707Y101793D01*
X88464Y101429D01*
X88378Y101000D01*
X88378Y101000D01*
Y93000D01*
X88378Y93000D01*
X88464Y92571D01*
X88597Y92371D01*
X88626Y92259D01*
X88564Y91790D01*
X88557Y91781D01*
X88535Y91721D01*
X85500Y88686D01*
Y87810D01*
X85504Y87814D01*
X85581Y87888D01*
X86347Y87240D01*
X86274Y87164D01*
X86151Y87018D01*
X86102Y86948D01*
X86061Y86881D01*
X86029Y86816D01*
X86005Y86754D01*
X85988Y86694D01*
X85981Y86636D01*
X85981Y86580D01*
X85500Y86997D01*
Y86500D01*
Y84576D01*
X85571Y84590D01*
X85817Y84130D01*
X81477Y79789D01*
X81423Y79769D01*
X81144Y79499D01*
X80895Y79278D01*
X80670Y79100D01*
X80474Y78965D01*
X80344Y78891D01*
X75591D01*
X74896Y78753D01*
X74306Y78359D01*
X73913Y77770D01*
X73882Y77613D01*
X73818Y77523D01*
X73807Y77475D01*
X73796Y77445D01*
X73763Y77381D01*
X73707Y77290D01*
X73638Y77191D01*
X73083Y76550D01*
X72901Y76364D01*
X72416Y76498D01*
X72376Y76514D01*
Y78708D01*
X72492Y78882D01*
X72615Y79500D01*
X72492Y80118D01*
X72142Y80642D01*
X71618Y80992D01*
X71000Y81115D01*
X70382Y80992D01*
X69858Y80642D01*
X69508Y80118D01*
X69385Y79500D01*
X69508Y78882D01*
X69624Y78708D01*
Y76440D01*
X64596Y71413D01*
X64129Y71505D01*
X64029Y71762D01*
X64033Y71769D01*
X64088Y71860D01*
X64157Y71958D01*
X64713Y72600D01*
X64894Y72786D01*
X64916Y72840D01*
X66973Y74897D01*
X66973Y74897D01*
X67272Y75343D01*
X67376Y75870D01*
Y78708D01*
X67492Y78882D01*
X67615Y79500D01*
X67492Y80118D01*
X67142Y80642D01*
X66618Y80992D01*
X66000Y81115D01*
X65382Y80992D01*
X64858Y80642D01*
X64508Y80118D01*
X64385Y79500D01*
X64508Y78882D01*
X64624Y78708D01*
Y76610D01*
X64224Y76310D01*
X63903Y76393D01*
X63889Y76413D01*
X64021Y77075D01*
X63882Y77770D01*
X63489Y78359D01*
X62900Y78753D01*
X62205Y78891D01*
X61540D01*
X61532Y78892D01*
X61520Y78912D01*
X61487Y78993D01*
X61453Y79120D01*
X61425Y79291D01*
X61406Y79504D01*
X61400Y79744D01*
X61492Y79882D01*
X61615Y80500D01*
X61492Y81118D01*
X61142Y81642D01*
X60618Y81992D01*
X60000Y82115D01*
X59382Y81992D01*
X58858Y81642D01*
X58508Y81118D01*
X58385Y80500D01*
X58508Y79882D01*
X58600Y79744D01*
X58594Y79504D01*
X58575Y79291D01*
X58547Y79120D01*
X58513Y78993D01*
X58480Y78912D01*
X58468Y78892D01*
X58460Y78891D01*
X57087D01*
X56392Y78753D01*
X55803Y78359D01*
X55409Y77770D01*
X55271Y77075D01*
X55409Y76380D01*
X55803Y75791D01*
X56392Y75397D01*
X57087Y75259D01*
X62205D01*
X62550Y75327D01*
X62938Y74895D01*
X62919Y74768D01*
X62640Y74499D01*
X62391Y74278D01*
X62166Y74100D01*
X61970Y73965D01*
X61840Y73891D01*
X57370D01*
X57369Y73891D01*
X57367Y73891D01*
X57087D01*
X56791Y73832D01*
X56788Y73833D01*
X56616Y73950D01*
X56142Y74346D01*
X55869Y74610D01*
X55860Y74614D01*
X55855Y74623D01*
X55806Y74641D01*
X50543Y79903D01*
X50524Y79954D01*
X49986Y80533D01*
X49801Y80764D01*
X49659Y80967D01*
X49600Y81069D01*
Y81572D01*
X49625Y81633D01*
X49605Y81683D01*
X49617Y81736D01*
X49600Y81764D01*
Y86100D01*
X44400D01*
Y78900D01*
X46736D01*
X46764Y78883D01*
X46817Y78895D01*
X46867Y78875D01*
X46928Y78900D01*
X47431D01*
X47533Y78841D01*
X47729Y78704D01*
X48243Y78268D01*
X48537Y77984D01*
X48590Y77963D01*
X53930Y72623D01*
X53954Y72566D01*
X55113Y71441D01*
X55191Y71362D01*
X55191Y71362D01*
X55199Y71357D01*
X55385Y71176D01*
X55429Y71059D01*
X55430Y71033D01*
X54963Y70616D01*
X54911Y70626D01*
X50556D01*
X50505Y70649D01*
X50238Y70656D01*
X50027Y70675D01*
X49856Y70703D01*
X49729Y70737D01*
X49648Y70770D01*
X49626Y70784D01*
X49621Y70822D01*
X49600Y70861D01*
Y75350D01*
X44400D01*
Y68150D01*
X47716D01*
X47973Y67978D01*
X48500Y67874D01*
X50300D01*
X50376Y67860D01*
X50434Y67873D01*
X50488Y67851D01*
X50543Y67874D01*
X54341D01*
X54375Y67840D01*
X54397Y67786D01*
X54585Y67594D01*
X54898Y67252D01*
X55128Y66967D01*
X55203Y66860D01*
X55259Y66769D01*
X55292Y66705D01*
X55303Y66675D01*
X55314Y66626D01*
X55378Y66536D01*
X55409Y66380D01*
X55803Y65791D01*
X56392Y65397D01*
X57087Y65259D01*
X62205D01*
X62859Y65389D01*
X62979Y65377D01*
X63359Y65174D01*
Y63976D01*
X62979Y63772D01*
X62859Y63761D01*
X62205Y63891D01*
X57087D01*
X56392Y63753D01*
X56259Y63664D01*
X56151Y63645D01*
X56109Y63619D01*
X56079Y63606D01*
X56010Y63583D01*
X55906Y63559D01*
X55788Y63538D01*
X54942Y63477D01*
X54682Y63474D01*
X54628Y63451D01*
X50556D01*
X50505Y63474D01*
X50238Y63481D01*
X50025Y63500D01*
X49854Y63528D01*
X49727Y63562D01*
X49646Y63595D01*
X49626Y63607D01*
X49622Y63643D01*
X49600Y63683D01*
Y64600D01*
X44400D01*
Y57400D01*
X49600D01*
Y60466D01*
X49622Y60506D01*
X49626Y60543D01*
X49646Y60555D01*
X49727Y60588D01*
X49854Y60622D01*
X50025Y60650D01*
X50238Y60669D01*
X50505Y60676D01*
X50556Y60698D01*
X54628D01*
X54682Y60675D01*
X54951Y60673D01*
X55414Y60653D01*
X55777Y60614D01*
X55906Y60591D01*
X56010Y60566D01*
X56079Y60544D01*
X56109Y60531D01*
X56151Y60504D01*
X56259Y60486D01*
X56392Y60397D01*
X57087Y60259D01*
X62205D01*
X62859Y60389D01*
X62979Y60377D01*
X63359Y60174D01*
Y50393D01*
X63358Y50392D01*
X63359Y50385D01*
Y50306D01*
X63337Y50261D01*
X63325Y50039D01*
X63294Y49865D01*
X63244Y49700D01*
X63174Y49541D01*
X63081Y49384D01*
X62963Y49229D01*
X62817Y49074D01*
X62642Y48920D01*
X62436Y48768D01*
X62180Y48608D01*
X62138Y48549D01*
X61466Y48034D01*
X60897Y47292D01*
X60539Y46427D01*
X60417Y45500D01*
X60539Y44573D01*
X60897Y43708D01*
X61466Y42966D01*
X62208Y42397D01*
X63073Y42039D01*
X64000Y41917D01*
X64927Y42039D01*
X65792Y42397D01*
X66534Y42966D01*
X67103Y43708D01*
X67124Y43757D01*
X67624Y43658D01*
Y42070D01*
X63430Y37876D01*
X32570D01*
X17973Y52473D01*
X17527Y52772D01*
X17000Y52876D01*
X15208D01*
X15162Y52899D01*
X14950Y52910D01*
X14769Y52939D01*
X14581Y52988D01*
X14387Y53060D01*
X14185Y53155D01*
X13975Y53276D01*
X13758Y53422D01*
X13535Y53595D01*
X13306Y53795D01*
X13061Y54033D01*
X13007Y54054D01*
X12292Y54603D01*
X11428Y54961D01*
X10705Y55056D01*
X10452Y55479D01*
X10440Y55578D01*
X10469Y55624D01*
X24250D01*
X24777Y55728D01*
X25223Y56027D01*
X37320Y68124D01*
X37750D01*
X37883Y68150D01*
X41600D01*
Y75350D01*
X37876D01*
Y78900D01*
X41600D01*
Y86100D01*
X40630D01*
X40568Y86134D01*
X40531Y86138D01*
X40519Y86157D01*
X40486Y86236D01*
X40453Y86361D01*
X40425Y86530D01*
X40406Y86740D01*
X40399Y87005D01*
X40376Y87056D01*
Y95930D01*
X45570Y101124D01*
X60708D01*
X60882Y101008D01*
X61500Y100885D01*
X62118Y101008D01*
X62642Y101358D01*
X62992Y101882D01*
X63115Y102500D01*
X62992Y103118D01*
X62642Y103642D01*
X62118Y103992D01*
X61500Y104115D01*
X60882Y103992D01*
X60708Y103876D01*
X46007D01*
X45815Y104338D01*
X52100Y110624D01*
X103000D01*
Y108149D01*
X102995Y108149D01*
X102933Y108122D01*
X99137D01*
X98931Y108431D01*
X98274Y108869D01*
X98000Y108924D01*
Y107000D01*
Y105076D01*
X98274Y105131D01*
X98931Y105569D01*
X99137Y105878D01*
X102933D01*
X102995Y105851D01*
X103000Y105851D01*
Y103000D01*
X105500D01*
Y107000D01*
X106000D01*
Y107500D01*
X109000D01*
Y110624D01*
X110910D01*
X111400Y110600D01*
D02*
G37*
G36*
X98244Y107653D02*
X98292Y107621D01*
X98347Y107593D01*
X98409Y107568D01*
X98479Y107547D01*
X98557Y107530D01*
X98641Y107517D01*
X98733Y107508D01*
X98938Y107500D01*
Y106500D01*
X98832Y106498D01*
X98641Y106483D01*
X98557Y106470D01*
X98479Y106453D01*
X98409Y106432D01*
X98347Y106407D01*
X98292Y106379D01*
X98244Y106347D01*
X98203Y106311D01*
Y107689D01*
X98244Y107653D01*
D02*
G37*
G36*
X96797Y106311D02*
X96756Y106347D01*
X96708Y106379D01*
X96653Y106407D01*
X96591Y106432D01*
X96521Y106453D01*
X96443Y106470D01*
X96359Y106483D01*
X96267Y106492D01*
X96062Y106500D01*
Y107500D01*
X96168Y107502D01*
X96359Y107517D01*
X96443Y107530D01*
X96521Y107547D01*
X96591Y107568D01*
X96653Y107593D01*
X96708Y107621D01*
X96756Y107653D01*
X96797Y107689D01*
Y106311D01*
D02*
G37*
G36*
X104024Y106000D02*
X104014Y106095D01*
X103983Y106180D01*
X103933Y106255D01*
X103862Y106320D01*
X103771Y106375D01*
X103660Y106420D01*
X103528Y106455D01*
X103376Y106480D01*
X103204Y106495D01*
X103012Y106500D01*
Y107500D01*
X103204Y107505D01*
X103376Y107520D01*
X103528Y107545D01*
X103660Y107580D01*
X103771Y107625D01*
X103862Y107680D01*
X103933Y107745D01*
X103983Y107820D01*
X104014Y107905D01*
X104024Y108000D01*
Y106000D01*
D02*
G37*
G36*
X124857Y103997D02*
X124730Y103952D01*
X124618Y103877D01*
X124520Y103772D01*
X124437Y103637D01*
X124370Y103472D01*
X124318Y103277D01*
X124280Y103052D01*
X124258Y102797D01*
X124250Y102512D01*
X122750D01*
X122742Y102797D01*
X122720Y103052D01*
X122682Y103277D01*
X122630Y103472D01*
X122563Y103637D01*
X122480Y103772D01*
X122382Y103877D01*
X122270Y103952D01*
X122143Y103997D01*
X122000Y104012D01*
X125000D01*
X124857Y103997D01*
D02*
G37*
G36*
X115357Y104009D02*
X115230Y103963D01*
X115118Y103888D01*
X115020Y103782D01*
X114937Y103646D01*
X114870Y103480D01*
X114818Y103283D01*
X114780Y103056D01*
X114758Y102799D01*
X114750Y102512D01*
X113250D01*
X113242Y102799D01*
X113220Y103056D01*
X113182Y103283D01*
X113130Y103480D01*
X113063Y103646D01*
X112980Y103782D01*
X112882Y103888D01*
X112770Y103963D01*
X112643Y104009D01*
X112500Y104024D01*
X115500D01*
X115357Y104009D01*
D02*
G37*
G36*
X124258Y99654D02*
X124280Y99396D01*
X124318Y99170D01*
X124370Y98973D01*
X124437Y98807D01*
X124520Y98671D01*
X124618Y98565D01*
X124730Y98489D01*
X124857Y98444D01*
X125000Y98429D01*
X122000D01*
X122143Y98444D01*
X122270Y98489D01*
X122382Y98565D01*
X122480Y98671D01*
X122563Y98807D01*
X122630Y98973D01*
X122682Y99170D01*
X122720Y99396D01*
X122742Y99654D01*
X122750Y99941D01*
X124250D01*
X124258Y99654D01*
D02*
G37*
G36*
X114763Y99881D02*
X114803Y99634D01*
X114868Y99385D01*
X114961Y99135D01*
X115079Y98884D01*
X115224Y98631D01*
X115395Y98378D01*
X115593Y98123D01*
X115817Y97866D01*
X116067Y97609D01*
X111933D01*
X112183Y97866D01*
X112407Y98123D01*
X112605Y98378D01*
X112776Y98631D01*
X112921Y98884D01*
X113039Y99135D01*
X113131Y99385D01*
X113197Y99634D01*
X113237Y99881D01*
X113250Y100128D01*
X114750D01*
X114763Y99881D01*
D02*
G37*
G36*
X114525Y94949D02*
X114520Y94899D01*
X114511Y94711D01*
X114500Y93441D01*
X113500D01*
X113469Y94970D01*
X114531D01*
X114525Y94949D01*
D02*
G37*
G36*
X98190Y94551D02*
X98044Y93283D01*
X97857Y93446D01*
X97662Y93571D01*
X97460Y93656D01*
X97249Y93703D01*
X97030Y93712D01*
X96803Y93681D01*
X96568Y93612D01*
X96325Y93503D01*
X96074Y93357D01*
X95815Y93171D01*
X96519Y97041D01*
X98190Y94551D01*
D02*
G37*
G36*
X115769Y93089D02*
X115268Y92515D01*
X115064Y92242D01*
X114892Y91980D01*
X114751Y91728D01*
X114641Y91485D01*
X114563Y91253D01*
X114516Y91031D01*
X114500Y90818D01*
X113500D01*
X113484Y91031D01*
X113437Y91253D01*
X113359Y91485D01*
X113249Y91728D01*
X113108Y91980D01*
X112936Y92242D01*
X112732Y92515D01*
X112231Y93089D01*
X111933Y93391D01*
X116067D01*
X115769Y93089D01*
D02*
G37*
G36*
X90803Y92404D02*
X91047Y90746D01*
X90926Y90853D01*
X90803Y90933D01*
X90679Y90987D01*
X90552Y91015D01*
X90422Y91017D01*
X90291Y90993D01*
X90157Y90943D01*
X90021Y90867D01*
X89883Y90764D01*
X89743Y90636D01*
X89036Y91343D01*
X89164Y91483D01*
X89267Y91621D01*
X89343Y91757D01*
X89393Y91891D01*
X89417Y92022D01*
X89415Y92152D01*
X89387Y92279D01*
X89333Y92403D01*
X89253Y92526D01*
X89147Y92646D01*
X90803Y92404D01*
D02*
G37*
G36*
X100512Y89988D02*
X100524Y88500D01*
X100513Y88595D01*
X100482Y88680D01*
X100431Y88755D01*
X100360Y88820D01*
X100269Y88875D01*
X100158Y88920D01*
X100026Y88955D01*
X99875Y88980D01*
X99704Y88995D01*
X99512Y89000D01*
Y90000D01*
X100512Y89988D01*
D02*
G37*
G36*
X92524Y85500D02*
X92509Y85642D01*
X92463Y85770D01*
X92388Y85883D01*
X92282Y85980D01*
X92146Y86063D01*
X91980Y86130D01*
X91783Y86182D01*
X91556Y86220D01*
X91299Y86243D01*
X91012Y86250D01*
Y87750D01*
X91299Y87757D01*
X91556Y87780D01*
X91783Y87818D01*
X91980Y87870D01*
X92146Y87937D01*
X92282Y88020D01*
X92388Y88117D01*
X92463Y88230D01*
X92509Y88358D01*
X92524Y88500D01*
Y85500D01*
D02*
G37*
G36*
X39757Y86703D02*
X39780Y86448D01*
X39818Y86223D01*
X39870Y86028D01*
X39937Y85863D01*
X40020Y85728D01*
X40117Y85623D01*
X40230Y85548D01*
X40358Y85503D01*
X40500Y85488D01*
X37500D01*
X37642Y85503D01*
X37770Y85548D01*
X37883Y85623D01*
X37980Y85728D01*
X38063Y85863D01*
X38130Y86028D01*
X38183Y86223D01*
X38220Y86448D01*
X38243Y86703D01*
X38250Y86988D01*
X39750D01*
X39757Y86703D01*
D02*
G37*
G36*
X103405Y84002D02*
X103320Y83972D01*
X103245Y83922D01*
X103180Y83852D01*
X103125Y83762D01*
X103080Y83652D01*
X103045Y83522D01*
X103020Y83372D01*
X103005Y83202D01*
X103000Y83012D01*
X102000D01*
X101995Y83202D01*
X101980Y83372D01*
X101955Y83522D01*
X101920Y83652D01*
X101875Y83762D01*
X101820Y83852D01*
X101755Y83922D01*
X101680Y83972D01*
X101595Y84002D01*
X101500Y84012D01*
X103500D01*
X103405Y84002D01*
D02*
G37*
G36*
X96415Y86495D02*
X96391Y86341D01*
X96404Y86170D01*
X96456Y85983D01*
X96544Y85779D01*
X96670Y85558D01*
X96834Y85321D01*
X97035Y85068D01*
X97273Y84798D01*
X97549Y84512D01*
X96988Y82951D01*
X96657Y83272D01*
X96074Y83771D01*
X95822Y83949D01*
X95597Y84080D01*
X95398Y84164D01*
X95226Y84200D01*
X95079Y84189D01*
X94960Y84130D01*
X94867Y84024D01*
X96476Y86633D01*
X96415Y86495D01*
D02*
G37*
G36*
X114516Y84969D02*
X114563Y84747D01*
X114641Y84515D01*
X114751Y84272D01*
X114892Y84020D01*
X115064Y83758D01*
X115268Y83485D01*
X115769Y82911D01*
X116067Y82609D01*
X111933D01*
X112231Y82911D01*
X112732Y83485D01*
X112936Y83758D01*
X113108Y84020D01*
X113249Y84272D01*
X113359Y84515D01*
X113437Y84747D01*
X113484Y84969D01*
X113500Y85182D01*
X114500D01*
X114516Y84969D01*
D02*
G37*
G36*
X103005Y82546D02*
X103020Y82374D01*
X103045Y82222D01*
X103080Y82090D01*
X103125Y81979D01*
X103180Y81888D01*
X103245Y81817D01*
X103320Y81766D01*
X103405Y81736D01*
X103500Y81726D01*
X101500D01*
X101595Y81736D01*
X101680Y81766D01*
X101755Y81817D01*
X101820Y81888D01*
X101875Y81979D01*
X101920Y82090D01*
X101955Y82222D01*
X101980Y82374D01*
X101995Y82546D01*
X102000Y82738D01*
X103000D01*
X103005Y82546D01*
D02*
G37*
G36*
X37012Y79512D02*
X37023Y79512D01*
X37032Y79510D01*
X37039Y79508D01*
X37044Y79505D01*
X37047Y79501D01*
X37048Y79497D01*
X37047Y79491D01*
X37043Y79485D01*
X37038Y79478D01*
X37030Y79470D01*
X35970Y80530D01*
X37024Y81536D01*
X37012Y79512D01*
D02*
G37*
G36*
X12866Y83317D02*
X13123Y83093D01*
X13377Y82895D01*
X13631Y82724D01*
X13884Y82579D01*
X14135Y82461D01*
X14385Y82368D01*
X14634Y82303D01*
X14881Y82263D01*
X15128Y82250D01*
Y80750D01*
X14881Y80737D01*
X14634Y80697D01*
X14385Y80632D01*
X14135Y80539D01*
X13884Y80421D01*
X13631Y80276D01*
X13377Y80105D01*
X13123Y79907D01*
X12866Y79683D01*
X12609Y79433D01*
Y83567D01*
X12866Y83317D01*
D02*
G37*
G36*
X48892Y81518D02*
X48851Y81381D01*
X48852Y81222D01*
X48896Y81042D01*
X48982Y80841D01*
X49110Y80618D01*
X49281Y80374D01*
X49495Y80108D01*
X50049Y79512D01*
X48988Y78451D01*
X48679Y78750D01*
X48126Y79219D01*
X47882Y79390D01*
X47659Y79518D01*
X47458Y79604D01*
X47278Y79648D01*
X47119Y79649D01*
X46982Y79608D01*
X46867Y79524D01*
X48976Y81633D01*
X48892Y81518D01*
D02*
G37*
G36*
X60757Y79467D02*
X60780Y79210D01*
X60817Y78983D01*
X60870Y78786D01*
X60938Y78620D01*
X61020Y78484D01*
X61118Y78378D01*
X61230Y78303D01*
X61357Y78257D01*
X61500Y78242D01*
X58500D01*
X58643Y78257D01*
X58770Y78303D01*
X58882Y78378D01*
X58980Y78484D01*
X59062Y78620D01*
X59130Y78786D01*
X59183Y78983D01*
X59220Y79210D01*
X59242Y79467D01*
X59250Y79754D01*
X60750D01*
X60757Y79467D01*
D02*
G37*
G36*
X82935Y78240D02*
X82739Y78040D01*
X82148Y77358D01*
X82050Y77217D01*
X81970Y77087D01*
X81910Y76970D01*
X81869Y76864D01*
X81848Y76770D01*
X79767Y78242D01*
X79898Y78174D01*
X80047Y78145D01*
X80214Y78155D01*
X80399Y78203D01*
X80601Y78289D01*
X80820Y78415D01*
X81057Y78578D01*
X81312Y78781D01*
X81584Y79022D01*
X81874Y79301D01*
X82935Y78240D01*
D02*
G37*
G36*
X76533Y75908D02*
X76401Y75975D01*
X76252Y76004D01*
X76085Y75995D01*
X75901Y75947D01*
X75699Y75860D01*
X75479Y75735D01*
X75242Y75571D01*
X74987Y75369D01*
X74715Y75128D01*
X74425Y74849D01*
X73365Y75909D01*
X73561Y76109D01*
X74151Y76792D01*
X74250Y76933D01*
X74329Y77062D01*
X74389Y77180D01*
X74430Y77286D01*
X74452Y77380D01*
X76533Y75908D01*
D02*
G37*
G36*
X92512Y75762D02*
X91012Y75750D01*
Y77250D01*
X91299Y77258D01*
X91555Y77280D01*
X91781Y77318D01*
X91978Y77370D01*
X92144Y77438D01*
X92280Y77520D01*
X92386Y77618D01*
X92462Y77730D01*
X92508Y77858D01*
X92524Y78000D01*
X92512Y75762D01*
D02*
G37*
G36*
X97774Y81050D02*
Y75028D01*
X97600Y74600D01*
X92400D01*
Y73318D01*
X91900Y73167D01*
X91807Y73307D01*
X91150Y73745D01*
X90876Y73800D01*
Y71876D01*
Y69952D01*
X91150Y70007D01*
X91807Y70445D01*
X91900Y70585D01*
X92400Y70434D01*
Y67400D01*
X93370D01*
X93432Y67366D01*
X93469Y67362D01*
X93481Y67343D01*
X93514Y67264D01*
X93547Y67139D01*
X93575Y66970D01*
X93584Y66875D01*
X93575Y66780D01*
X93547Y66611D01*
X93514Y66486D01*
X93506Y66467D01*
X93019Y66387D01*
X93017Y66387D01*
X92229Y66394D01*
X92095Y66595D01*
X91571Y66945D01*
X90953Y67068D01*
X90335Y66945D01*
X89811Y66595D01*
X89460Y66071D01*
X89337Y65453D01*
X89460Y64835D01*
X89811Y64311D01*
X90335Y63960D01*
X90795Y63869D01*
X91006Y63728D01*
X91409Y63648D01*
X91515Y63601D01*
X91779Y63594D01*
X91988Y63576D01*
X92156Y63548D01*
X92281Y63516D01*
X92360Y63484D01*
X92376Y63474D01*
X92379Y63447D01*
X92400Y63409D01*
Y59150D01*
X93391D01*
X93432Y59128D01*
X93468Y59124D01*
X93480Y59104D01*
X93513Y59023D01*
X93547Y58896D01*
X93575Y58725D01*
X93594Y58512D01*
X93597Y58375D01*
X93594Y58238D01*
X93575Y58025D01*
X93547Y57854D01*
X93513Y57727D01*
X93480Y57646D01*
X93468Y57626D01*
X93432Y57622D01*
X93391Y57600D01*
X92400D01*
Y55609D01*
X92378Y55568D01*
X92374Y55532D01*
X92354Y55520D01*
X92273Y55487D01*
X92146Y55453D01*
X91975Y55425D01*
X91762Y55406D01*
X91495Y55399D01*
X91444Y55376D01*
X73000D01*
X72473Y55272D01*
X72027Y54973D01*
X72027Y54973D01*
X68027Y50973D01*
X67728Y50527D01*
X67624Y50000D01*
Y47825D01*
X67124Y47346D01*
X67093Y47347D01*
X66726Y47996D01*
X66586Y48276D01*
X66353Y48821D01*
X66273Y49054D01*
X66211Y49276D01*
X66168Y49478D01*
X66144Y49661D01*
X66135Y49854D01*
X66112Y49901D01*
Y65650D01*
X68375Y67913D01*
X68875Y67706D01*
Y63095D01*
X68760Y62921D01*
X68637Y62303D01*
X68760Y61685D01*
X69110Y61161D01*
X69634Y60811D01*
X70252Y60688D01*
X70870Y60811D01*
X71394Y61161D01*
X71744Y61685D01*
X71867Y62303D01*
X71744Y62921D01*
X71628Y63095D01*
Y69853D01*
X71651Y69902D01*
X71661Y70174D01*
X71687Y70411D01*
X71731Y70639D01*
X71791Y70857D01*
X71868Y71067D01*
X71962Y71270D01*
X72074Y71467D01*
X72204Y71658D01*
X72353Y71845D01*
X72538Y72044D01*
X72545Y72062D01*
X72563Y72072D01*
X72575Y72113D01*
X73392Y72929D01*
X73884Y72767D01*
X73906Y72737D01*
X73775Y72075D01*
X73913Y71380D01*
X74306Y70791D01*
X74896Y70397D01*
X75591Y70259D01*
X80709D01*
X81404Y70397D01*
X81993Y70791D01*
X82386Y71380D01*
X82418Y71536D01*
X82481Y71626D01*
X82492Y71675D01*
X82504Y71705D01*
X82537Y71769D01*
X82592Y71860D01*
X82661Y71958D01*
X83217Y72600D01*
X83398Y72786D01*
X83420Y72840D01*
X85704Y75124D01*
X90956D01*
X91012Y75101D01*
X91015Y75102D01*
X91017Y75101D01*
X92517Y75113D01*
X92543Y75124D01*
X93250D01*
X93383Y75150D01*
X97100D01*
Y80931D01*
X97600Y81180D01*
X97774Y81050D01*
D02*
G37*
G36*
X82935Y73240D02*
X82739Y73040D01*
X82148Y72358D01*
X82050Y72217D01*
X81970Y72088D01*
X81910Y71970D01*
X81869Y71864D01*
X81848Y71770D01*
X79767Y73242D01*
X79898Y73174D01*
X80047Y73145D01*
X80214Y73155D01*
X80399Y73203D01*
X80601Y73289D01*
X80820Y73415D01*
X81057Y73578D01*
X81312Y73781D01*
X81584Y74022D01*
X81874Y74301D01*
X82935Y73240D01*
D02*
G37*
G36*
X64431D02*
X64235Y73040D01*
X63644Y72358D01*
X63546Y72217D01*
X63466Y72088D01*
X63406Y71970D01*
X63365Y71864D01*
X63344Y71770D01*
X61263Y73242D01*
X61394Y73174D01*
X61543Y73145D01*
X61710Y73155D01*
X61895Y73203D01*
X62097Y73289D01*
X62316Y73415D01*
X62553Y73578D01*
X62808Y73781D01*
X63080Y74022D01*
X63370Y74301D01*
X64431Y73240D01*
D02*
G37*
G36*
X37038Y74772D02*
X37043Y74765D01*
X37047Y74759D01*
X37048Y74753D01*
X37047Y74749D01*
X37044Y74745D01*
X37039Y74742D01*
X37032Y74740D01*
X37023Y74738D01*
X37012Y74738D01*
X37024Y72714D01*
X37014Y72715D01*
X36982Y72739D01*
X36929Y72784D01*
X36349Y73342D01*
X35970Y73720D01*
X37030Y74780D01*
X37038Y74772D01*
D02*
G37*
G36*
X111349Y69200D02*
X109804Y71989D01*
X110301Y72906D01*
X110454Y72776D01*
X110623Y72677D01*
X110806Y72611D01*
X111003Y72576D01*
X111215Y72574D01*
X111442Y72603D01*
X111683Y72664D01*
X111939Y72758D01*
X112210Y72883D01*
X112495Y73040D01*
X111349Y69200D01*
D02*
G37*
G36*
X55708Y73863D02*
X56225Y73430D01*
X56451Y73277D01*
X56657Y73166D01*
X56841Y73097D01*
X57004Y73070D01*
X57147Y73085D01*
X57267Y73143D01*
X57367Y73242D01*
X56065Y71485D01*
X56063Y71466D01*
X56024Y71486D01*
X55949Y71545D01*
X55838Y71642D01*
X54407Y73032D01*
X55418Y74143D01*
X55708Y73863D01*
D02*
G37*
G36*
X48992Y70608D02*
X49038Y70480D01*
X49114Y70367D01*
X49220Y70270D01*
X49356Y70187D01*
X49523Y70120D01*
X49719Y70068D01*
X49945Y70030D01*
X50201Y70007D01*
X50488Y70000D01*
Y68500D01*
X48988Y68762D01*
X48976Y70750D01*
X48992Y70608D01*
D02*
G37*
G36*
X71861Y72270D02*
X71681Y72044D01*
X71522Y71810D01*
X71384Y71567D01*
X71267Y71316D01*
X71172Y71055D01*
X71097Y70786D01*
X71044Y70508D01*
X71013Y70221D01*
X71002Y69925D01*
X69502Y68426D01*
X69491Y68700D01*
X69460Y68923D01*
X69406Y69095D01*
X69332Y69216D01*
X69237Y69285D01*
X69120Y69304D01*
X68982Y69271D01*
X68823Y69187D01*
X68643Y69051D01*
X68441Y68865D01*
X69722Y72267D01*
X72063Y72486D01*
X71861Y72270D01*
D02*
G37*
G36*
X101024Y68391D02*
X101013Y68584D01*
X100981Y68734D01*
X100927Y68841D01*
X100852Y68906D01*
X100756Y68927D01*
X100638Y68906D01*
X100498Y68841D01*
X100338Y68734D01*
X100155Y68584D01*
X99951Y68391D01*
X99421Y69982D01*
X99726Y70297D01*
X100239Y70894D01*
X100447Y71175D01*
X100623Y71446D01*
X100768Y71706D01*
X100880Y71954D01*
X100960Y72192D01*
X101008Y72418D01*
X101024Y72633D01*
Y68391D01*
D02*
G37*
G36*
X64431Y68240D02*
X64235Y68040D01*
X63644Y67358D01*
X63546Y67217D01*
X63466Y67088D01*
X63406Y66970D01*
X63365Y66864D01*
X63344Y66770D01*
X61263Y68242D01*
X61394Y68174D01*
X61543Y68145D01*
X61710Y68155D01*
X61895Y68203D01*
X62097Y68289D01*
X62316Y68415D01*
X62553Y68578D01*
X62808Y68781D01*
X63080Y69021D01*
X63370Y69301D01*
X64431Y68240D01*
D02*
G37*
G36*
X56211Y69021D02*
X56738Y68578D01*
X56975Y68415D01*
X57195Y68289D01*
X57397Y68203D01*
X57581Y68155D01*
X57748Y68145D01*
X57897Y68174D01*
X58029Y68242D01*
X55948Y66770D01*
X55926Y66864D01*
X55885Y66970D01*
X55825Y67088D01*
X55746Y67217D01*
X55647Y67358D01*
X55391Y67676D01*
X55057Y68040D01*
X54861Y68240D01*
X55921Y69301D01*
X56211Y69021D01*
D02*
G37*
G36*
X96358Y67997D02*
X96230Y67952D01*
X96118Y67877D01*
X96020Y67772D01*
X95938Y67637D01*
X95870Y67472D01*
X95818Y67277D01*
X95780Y67052D01*
X95764Y66875D01*
X95780Y66698D01*
X95818Y66473D01*
X95870Y66278D01*
X95938Y66113D01*
X96020Y65978D01*
X96118Y65873D01*
X96230Y65798D01*
X96358Y65753D01*
X96500Y65738D01*
X93500D01*
X93642Y65753D01*
X93770Y65798D01*
X93883Y65873D01*
X93980Y65978D01*
X94063Y66113D01*
X94130Y66278D01*
X94182Y66473D01*
X94220Y66698D01*
X94236Y66875D01*
X94220Y67052D01*
X94182Y67277D01*
X94130Y67472D01*
X94063Y67637D01*
X93980Y67772D01*
X93883Y67877D01*
X93770Y67952D01*
X93642Y67997D01*
X93500Y68012D01*
X96500D01*
X96358Y67997D01*
D02*
G37*
G36*
X105695Y65738D02*
X105497Y65533D01*
X105186Y65165D01*
X105073Y65003D01*
X104988Y64854D01*
X104931Y64720D01*
X104903Y64600D01*
Y64494D01*
X104931Y64402D01*
X104988Y64324D01*
X103574Y65738D01*
X103652Y65681D01*
X103744Y65653D01*
X103850D01*
X103970Y65681D01*
X104104Y65738D01*
X104253Y65823D01*
X104415Y65936D01*
X104592Y66077D01*
X104988Y66445D01*
X105695Y65738D01*
D02*
G37*
G36*
X93012D02*
X93024Y63520D01*
X93008Y63659D01*
X92963Y63783D01*
X92888Y63892D01*
X92783Y63987D01*
X92649Y64068D01*
X92485Y64133D01*
X92291Y64184D01*
X92068Y64221D01*
X91815Y64243D01*
X91532Y64250D01*
Y65750D01*
X93012Y65738D01*
D02*
G37*
G36*
X56497Y61054D02*
X56415Y61105D01*
X56312Y61151D01*
X56186Y61192D01*
X56038Y61227D01*
X55868Y61257D01*
X55462Y61300D01*
X54969Y61322D01*
X54689Y61325D01*
Y62825D01*
X54969Y62827D01*
X55868Y62893D01*
X56038Y62922D01*
X56186Y62958D01*
X56312Y62998D01*
X56415Y63045D01*
X56497Y63096D01*
Y61054D01*
D02*
G37*
G36*
X48991Y63432D02*
X49036Y63305D01*
X49112Y63192D01*
X49218Y63095D01*
X49354Y63012D01*
X49520Y62945D01*
X49717Y62892D01*
X49944Y62855D01*
X50201Y62832D01*
X50488Y62825D01*
Y61325D01*
X50201Y61317D01*
X49944Y61295D01*
X49717Y61257D01*
X49520Y61205D01*
X49354Y61137D01*
X49218Y61055D01*
X49112Y60957D01*
X49036Y60845D01*
X48991Y60717D01*
X48976Y60575D01*
Y63575D01*
X48991Y63432D01*
D02*
G37*
G36*
X111204Y64025D02*
X111395Y63901D01*
X111615Y63792D01*
X111864Y63698D01*
X112142Y63620D01*
X112449Y63556D01*
X112785Y63507D01*
X113546Y63456D01*
X113970Y63453D01*
X111047Y60530D01*
X111044Y60954D01*
X110993Y61715D01*
X110944Y62051D01*
X110880Y62358D01*
X110802Y62637D01*
X110708Y62885D01*
X110599Y63105D01*
X110475Y63296D01*
X110336Y63457D01*
X111043Y64164D01*
X111204Y64025D01*
D02*
G37*
G36*
X123181Y57559D02*
X123064Y57644D01*
X122926Y57687D01*
X122767D01*
X122587Y57644D01*
X122385Y57559D01*
X122162Y57432D01*
X121918Y57262D01*
X121653Y57050D01*
X121059Y56499D01*
X119999Y57559D01*
X120296Y57867D01*
X120762Y58418D01*
X120932Y58662D01*
X121059Y58885D01*
X121144Y59087D01*
X121186Y59267D01*
Y59426D01*
X121144Y59564D01*
X121059Y59681D01*
X123181Y57559D01*
D02*
G37*
G36*
X96358Y59759D02*
X96230Y59714D01*
X96118Y59638D01*
X96020Y59532D01*
X95938Y59396D01*
X95870Y59230D01*
X95818Y59033D01*
X95780Y58806D01*
X95758Y58549D01*
X95753Y58375D01*
X95758Y58201D01*
X95780Y57944D01*
X95818Y57717D01*
X95870Y57520D01*
X95938Y57354D01*
X96020Y57218D01*
X96118Y57112D01*
X96230Y57037D01*
X96358Y56991D01*
X96500Y56976D01*
X93500D01*
X93642Y56991D01*
X93770Y57037D01*
X93883Y57112D01*
X93980Y57218D01*
X94063Y57354D01*
X94130Y57520D01*
X94182Y57717D01*
X94220Y57944D01*
X94243Y58201D01*
X94247Y58375D01*
X94243Y58549D01*
X94220Y58806D01*
X94182Y59033D01*
X94130Y59230D01*
X94063Y59396D01*
X93980Y59532D01*
X93883Y59638D01*
X93770Y59714D01*
X93642Y59759D01*
X93500Y59774D01*
X96500D01*
X96358Y59759D01*
D02*
G37*
G36*
X93024Y52500D02*
X93009Y52643D01*
X92963Y52770D01*
X92888Y52882D01*
X92782Y52980D01*
X92646Y53062D01*
X92480Y53130D01*
X92283Y53183D01*
X92056Y53220D01*
X91799Y53242D01*
X91512Y53250D01*
Y54750D01*
X91799Y54757D01*
X92056Y54780D01*
X92283Y54817D01*
X92480Y54870D01*
X92646Y54937D01*
X92782Y55020D01*
X92888Y55117D01*
X92963Y55230D01*
X93009Y55357D01*
X93024Y55500D01*
Y52500D01*
D02*
G37*
G36*
X12866Y53317D02*
X13123Y53093D01*
X13377Y52895D01*
X13631Y52724D01*
X13884Y52579D01*
X14135Y52461D01*
X14385Y52368D01*
X14634Y52303D01*
X14881Y52263D01*
X15128Y52250D01*
Y50750D01*
X14881Y50737D01*
X14634Y50697D01*
X14385Y50631D01*
X14135Y50539D01*
X13884Y50421D01*
X13631Y50276D01*
X13377Y50105D01*
X13123Y49907D01*
X12866Y49683D01*
X12609Y49433D01*
Y53567D01*
X12866Y53317D01*
D02*
G37*
G36*
X65486Y49823D02*
X65496Y49602D01*
X65527Y49368D01*
X65579Y49121D01*
X65652Y48861D01*
X65746Y48588D01*
X65996Y48003D01*
X66152Y47690D01*
X66527Y47027D01*
X62524Y48057D01*
X62801Y48231D01*
X63050Y48414D01*
X63269Y48607D01*
X63459Y48809D01*
X63620Y49021D01*
X63752Y49242D01*
X63854Y49474D01*
X63927Y49714D01*
X63971Y49964D01*
X63986Y50224D01*
X65486Y49823D01*
D02*
G37*
G36*
X76054Y43361D02*
X76043Y43297D01*
X76033Y43199D01*
X76011Y42699D01*
X76000Y41556D01*
X72000D01*
X71933Y43391D01*
X76067D01*
X76054Y43361D01*
D02*
G37*
G36*
X7868Y35203D02*
X8421Y34734D01*
X8665Y34563D01*
X8888Y34435D01*
X9089Y34349D01*
X9269Y34305D01*
X9428Y34304D01*
X9565Y34345D01*
X9681Y34429D01*
X7571Y32319D01*
X7655Y32435D01*
X7696Y32572D01*
X7695Y32731D01*
X7651Y32910D01*
X7565Y33112D01*
X7437Y33335D01*
X7266Y33579D01*
X7052Y33845D01*
X6499Y34441D01*
X7559Y35501D01*
X7868Y35203D01*
D02*
G37*
G36*
X76002Y30846D02*
X76075Y29682D01*
X76103Y29552D01*
X76134Y29456D01*
X76169Y29394D01*
X76209Y29366D01*
X72689Y27404D01*
X72000Y30815D01*
X76000Y31182D01*
X76002Y30846D01*
D02*
G37*
%LPC*%
G36*
X109000Y106500D02*
X106500D01*
Y103000D01*
X109000D01*
Y106500D01*
D02*
G37*
G36*
X84000Y99083D02*
X83073Y98961D01*
X82208Y98603D01*
X81466Y98034D01*
X80897Y97292D01*
X80539Y96427D01*
X80417Y95500D01*
X80539Y94573D01*
X80897Y93708D01*
X81466Y92966D01*
X82208Y92397D01*
X83073Y92039D01*
X84000Y91917D01*
X84927Y92039D01*
X85792Y92397D01*
X86534Y92966D01*
X87103Y93708D01*
X87461Y94573D01*
X87583Y95500D01*
X87461Y96427D01*
X87103Y97292D01*
X86534Y98034D01*
X85792Y98603D01*
X84927Y98961D01*
X84000Y99083D01*
D02*
G37*
G36*
X74000D02*
X73073Y98961D01*
X72208Y98603D01*
X71466Y98034D01*
X70897Y97292D01*
X70539Y96427D01*
X70417Y95500D01*
X70539Y94573D01*
X70897Y93708D01*
X71466Y92966D01*
X72208Y92397D01*
X73073Y92039D01*
X74000Y91917D01*
X74927Y92039D01*
X75792Y92397D01*
X76534Y92966D01*
X77103Y93708D01*
X77461Y94573D01*
X77583Y95500D01*
X77461Y96427D01*
X77103Y97292D01*
X76534Y98034D01*
X75792Y98603D01*
X74927Y98961D01*
X74000Y99083D01*
D02*
G37*
G36*
X64000D02*
X63073Y98961D01*
X62208Y98603D01*
X61466Y98034D01*
X60897Y97292D01*
X60539Y96427D01*
X60417Y95500D01*
X60539Y94573D01*
X60897Y93708D01*
X61466Y92966D01*
X62208Y92397D01*
X63073Y92039D01*
X64000Y91917D01*
X64927Y92039D01*
X65792Y92397D01*
X66534Y92966D01*
X67103Y93708D01*
X67461Y94573D01*
X67583Y95500D01*
X67461Y96427D01*
X67103Y97292D01*
X66534Y98034D01*
X65792Y98603D01*
X64927Y98961D01*
X64000Y99083D01*
D02*
G37*
G36*
X54000D02*
X53073Y98961D01*
X52208Y98603D01*
X51466Y98034D01*
X50897Y97292D01*
X50539Y96427D01*
X50417Y95500D01*
X50539Y94573D01*
X50897Y93708D01*
X51466Y92966D01*
X52208Y92397D01*
X53073Y92039D01*
X54000Y91917D01*
X54927Y92039D01*
X55792Y92397D01*
X56534Y92966D01*
X57103Y93708D01*
X57461Y94573D01*
X57583Y95500D01*
X57461Y96427D01*
X57103Y97292D01*
X56534Y98034D01*
X55792Y98603D01*
X54927Y98961D01*
X54000Y99083D01*
D02*
G37*
G36*
X84500Y88424D02*
X84226Y88369D01*
X83569Y87931D01*
X83131Y87274D01*
X83076Y87000D01*
X84500D01*
Y88424D01*
D02*
G37*
G36*
Y86000D02*
X83076D01*
X83131Y85726D01*
X83569Y85069D01*
X84226Y84631D01*
X84500Y84576D01*
Y86000D01*
D02*
G37*
G36*
X42000Y65000D02*
X39500D01*
Y61500D01*
X42000D01*
Y65000D01*
D02*
G37*
G36*
X38500D02*
X36000D01*
Y61500D01*
X38500D01*
Y65000D01*
D02*
G37*
G36*
X42000Y60500D02*
X39500D01*
Y57000D01*
X42000D01*
Y60500D01*
D02*
G37*
G36*
X38500D02*
X36000D01*
Y57000D01*
X38500D01*
Y60500D01*
D02*
G37*
G36*
X54500Y49421D02*
Y46000D01*
X57921D01*
X57851Y46532D01*
X57453Y47493D01*
X56819Y48319D01*
X55993Y48953D01*
X55032Y49351D01*
X54500Y49421D01*
D02*
G37*
G36*
X53500D02*
X52968Y49351D01*
X52007Y48953D01*
X51181Y48319D01*
X50547Y47493D01*
X50149Y46532D01*
X50079Y46000D01*
X53500D01*
Y49421D01*
D02*
G37*
G36*
X57921Y45000D02*
X54500D01*
Y41579D01*
X55032Y41649D01*
X55993Y42047D01*
X56819Y42681D01*
X57453Y43507D01*
X57851Y44468D01*
X57921Y45000D01*
D02*
G37*
G36*
X53500D02*
X50079D01*
X50149Y44468D01*
X50547Y43507D01*
X51181Y42681D01*
X52007Y42047D01*
X52968Y41649D01*
X53500Y41579D01*
Y45000D01*
D02*
G37*
G36*
X89876Y73800D02*
X89602Y73745D01*
X88945Y73307D01*
X88507Y72650D01*
X88452Y72376D01*
X89876D01*
Y73800D01*
D02*
G37*
G36*
Y71376D02*
X88452D01*
X88507Y71102D01*
X88945Y70445D01*
X89602Y70007D01*
X89876Y69952D01*
Y71376D01*
D02*
G37*
G36*
X80709Y68891D02*
X75591D01*
X74896Y68753D01*
X74306Y68359D01*
X73913Y67770D01*
X73775Y67075D01*
X73913Y66380D01*
X74306Y65791D01*
X74896Y65397D01*
X75591Y65259D01*
X80709D01*
X81404Y65397D01*
X81993Y65791D01*
X82386Y66380D01*
X82525Y67075D01*
X82386Y67770D01*
X81993Y68359D01*
X81404Y68753D01*
X80709Y68891D01*
D02*
G37*
G36*
Y64299D02*
X78650D01*
Y62575D01*
X82833D01*
X82763Y62926D01*
X82281Y63647D01*
X81560Y64129D01*
X80709Y64299D01*
D02*
G37*
G36*
X77650D02*
X75591D01*
X74740Y64129D01*
X74018Y63647D01*
X73536Y62926D01*
X73466Y62575D01*
X77650D01*
Y64299D01*
D02*
G37*
G36*
X82833Y61575D02*
X78650D01*
Y59851D01*
X80709D01*
X81560Y60020D01*
X82281Y60502D01*
X82763Y61224D01*
X82833Y61575D01*
D02*
G37*
G36*
X77650D02*
X73466D01*
X73536Y61224D01*
X74018Y60502D01*
X74740Y60020D01*
X75591Y59851D01*
X77650D01*
Y61575D01*
D02*
G37*
%LPD*%
G36*
X132858Y103997D02*
X132730Y103952D01*
X132617Y103877D01*
X132520Y103772D01*
X132438Y103637D01*
X132370Y103472D01*
X132317Y103277D01*
X132280Y103052D01*
X132257Y102797D01*
X132250Y102512D01*
X130750D01*
X130743Y102797D01*
X130720Y103052D01*
X130683Y103277D01*
X130630Y103472D01*
X130562Y103637D01*
X130480Y103772D01*
X130383Y103877D01*
X130270Y103952D01*
X130142Y103997D01*
X130000Y104012D01*
X133000D01*
X132858Y103997D01*
D02*
G37*
G36*
X127803Y83242D02*
X127638Y83058D01*
X127491Y82855D01*
X127361Y82633D01*
X127250Y82391D01*
X127156Y82130D01*
X127080Y81849D01*
X127021Y81548D01*
X126981Y81228D01*
X126958Y80889D01*
X126953Y80529D01*
X124030Y83453D01*
X124389Y83458D01*
X124728Y83481D01*
X125048Y83521D01*
X125349Y83580D01*
X125630Y83656D01*
X125891Y83750D01*
X126133Y83861D01*
X126356Y83991D01*
X126558Y84138D01*
X126742Y84303D01*
X127803Y83242D01*
D02*
G37*
G36*
X106054Y43361D02*
X106043Y43297D01*
X106033Y43199D01*
X106011Y42699D01*
X106000Y41556D01*
X102000D01*
X101933Y43391D01*
X106067D01*
X106054Y43361D01*
D02*
G37*
G36*
X106020Y32679D02*
X106080Y31998D01*
X106180Y31396D01*
X106320Y30875D01*
X106500Y30434D01*
X106720Y30073D01*
X106980Y29792D01*
X107280Y29591D01*
X107620Y29470D01*
X108000Y29429D01*
X102559Y29441D01*
X102000Y33441D01*
X106000D01*
X106020Y32679D01*
D02*
G37*
G36*
X96054Y43361D02*
X96043Y43297D01*
X96033Y43199D01*
X96011Y42699D01*
X96000Y41556D01*
X92000D01*
X91933Y43391D01*
X96067D01*
X96054Y43361D01*
D02*
G37*
G36*
X96002Y30846D02*
X96075Y29682D01*
X96102Y29552D01*
X96134Y29456D01*
X96169Y29394D01*
X96209Y29366D01*
X92689Y27404D01*
X92000Y30815D01*
X96000Y31182D01*
X96002Y30846D01*
D02*
G37*
G36*
X86054Y43361D02*
X86043Y43297D01*
X86033Y43199D01*
X86011Y42699D01*
X86000Y41556D01*
X82000D01*
X81933Y43391D01*
X86067D01*
X86054Y43361D01*
D02*
G37*
G36*
X86002Y30846D02*
X86075Y29682D01*
X86102Y29552D01*
X86134Y29456D01*
X86169Y29394D01*
X86209Y29366D01*
X82689Y27404D01*
X82000Y30815D01*
X86000Y31182D01*
X86002Y30846D01*
D02*
G37*
G36*
X64405Y23549D02*
X64320Y23519D01*
X64245Y23469D01*
X64180Y23399D01*
X64125Y23309D01*
X64080Y23199D01*
X64045Y23069D01*
X64020Y22919D01*
X64005Y22749D01*
X64000Y22559D01*
X63000D01*
X62995Y22749D01*
X62980Y22919D01*
X62955Y23069D01*
X62920Y23199D01*
X62875Y23309D01*
X62820Y23399D01*
X62755Y23469D01*
X62680Y23519D01*
X62595Y23549D01*
X62500Y23559D01*
X64500D01*
X64405Y23549D01*
D02*
G37*
G36*
X64005Y19296D02*
X64020Y19124D01*
X64045Y18972D01*
X64080Y18840D01*
X64125Y18729D01*
X64180Y18638D01*
X64245Y18567D01*
X64320Y18517D01*
X64405Y18486D01*
X64500Y18476D01*
X62500D01*
X62595Y18486D01*
X62680Y18517D01*
X62755Y18567D01*
X62820Y18638D01*
X62875Y18729D01*
X62920Y18840D01*
X62955Y18972D01*
X62980Y19124D01*
X62995Y19296D01*
X63000Y19488D01*
X64000D01*
X64005Y19296D01*
D02*
G37*
G36*
X67998Y9405D02*
X68028Y9320D01*
X68078Y9245D01*
X68148Y9180D01*
X68238Y9125D01*
X68348Y9080D01*
X68478Y9045D01*
X68628Y9020D01*
X68798Y9005D01*
X68988Y9000D01*
Y8000D01*
X68798Y7995D01*
X68628Y7980D01*
X68478Y7955D01*
X68348Y7920D01*
X68238Y7875D01*
X68148Y7820D01*
X68078Y7755D01*
X68028Y7680D01*
X67998Y7595D01*
X67988Y7500D01*
Y9500D01*
X67998Y9405D01*
D02*
G37*
G36*
X77797Y3311D02*
X77756Y3347D01*
X77708Y3379D01*
X77653Y3407D01*
X77591Y3432D01*
X77521Y3453D01*
X77443Y3470D01*
X77359Y3483D01*
X77267Y3492D01*
X77062Y3500D01*
Y4500D01*
X77168Y4502D01*
X77359Y4517D01*
X77443Y4530D01*
X77521Y4547D01*
X77591Y4568D01*
X77653Y4593D01*
X77708Y4621D01*
X77756Y4653D01*
X77797Y4689D01*
Y3311D01*
D02*
G37*
D16*
X70707Y8500D02*
X75207Y4000D01*
X78500D01*
X65000Y8500D02*
X70707D01*
X63500Y18000D02*
X65000Y16500D01*
X63500Y18000D02*
Y26500D01*
X85000Y86600D02*
X90450Y92050D01*
X85000Y86500D02*
Y86600D01*
X90450Y92050D02*
X91400Y91100D01*
X89500Y93000D02*
X90450Y92050D01*
X95500Y107000D02*
X97500D01*
X106000D01*
X89500Y101000D02*
X95500Y107000D01*
X89500Y93000D02*
Y101000D01*
X91400Y91100D02*
X97400D01*
X99000Y89500D01*
X101000D01*
X102500Y88000D01*
Y87000D02*
Y88000D01*
X100587Y91447D02*
X104608D01*
X96534Y95500D02*
X100587Y91447D01*
X94000Y95500D02*
X96534D01*
X104608Y91447D02*
X108347Y87708D01*
X104500Y79000D02*
X106500Y77000D01*
Y67250D02*
Y77000D01*
X103000Y63750D02*
X106500Y67250D01*
X103000Y62750D02*
Y63750D01*
X102750Y79000D02*
X104500D01*
X102500Y78750D02*
X102750Y79000D01*
X108347Y66153D02*
Y87708D01*
Y66153D02*
X114000Y60500D01*
X109947Y72553D02*
Y89553D01*
Y72553D02*
X112000Y70500D01*
X104000Y95500D02*
X109947Y89553D01*
X102500Y78750D02*
Y87000D01*
X114000Y80500D02*
Y95500D01*
D20*
X65000Y8500D02*
D03*
Y16500D02*
D03*
D25*
X103000Y54000D02*
D03*
X95000D02*
D03*
Y71000D02*
D03*
X103000D02*
D03*
Y62750D02*
D03*
X95000D02*
D03*
X106000Y107000D02*
D03*
X114000D02*
D03*
X131500D02*
D03*
X123500D02*
D03*
X47000Y61000D02*
D03*
X39000D02*
D03*
X94500Y78750D02*
D03*
X102500D02*
D03*
X39000Y71750D02*
D03*
X47000D02*
D03*
X39000Y82500D02*
D03*
X47000D02*
D03*
X94500Y87000D02*
D03*
X102500D02*
D03*
D40*
X4000Y38000D02*
X10500Y31500D01*
X4000Y51500D02*
X9500Y57000D01*
X4000Y38000D02*
Y51500D01*
X64736Y66220D02*
X70252Y71736D01*
X75591Y77075D01*
X70252Y62303D02*
Y71736D01*
X48075Y62075D02*
X59646D01*
X57087Y67075D02*
X59646D01*
X54911Y69250D02*
X57087Y67075D01*
X48500Y69250D02*
X54911D01*
X47000Y70750D02*
X48500Y69250D01*
X47000Y61000D02*
X48075Y62075D01*
X47000Y70750D02*
Y71750D01*
X59646Y67075D02*
X62205D01*
X64736Y46236D02*
Y66220D01*
X78150Y77075D02*
X80709D01*
X99000Y68500D02*
X101500Y71000D01*
X75591Y77075D02*
X78150D01*
X17000Y51500D02*
X32000Y36500D01*
X10500Y51500D02*
X17000D01*
X10500Y81500D02*
X29500D01*
X24250Y57000D02*
X36750Y69500D01*
X9500Y57000D02*
X24250D01*
X36750Y69500D02*
X37750D01*
X39000Y70750D01*
Y71750D01*
X29500Y81500D02*
X36900Y88900D01*
X32000Y36500D02*
X64000D01*
X71000Y75870D02*
Y79500D01*
X62205Y67075D02*
X71000Y75870D01*
X51530Y112000D02*
X118500D01*
X36900Y97370D02*
X51530Y112000D01*
X118500D02*
X121250Y109250D01*
X122250D01*
X123500Y108000D01*
X101500Y71000D02*
X103000D01*
X100500D02*
X101500D01*
X99000Y59841D02*
Y68500D01*
Y59841D02*
X100441Y58400D01*
X107100D01*
X111000Y54500D02*
X118000D01*
X124000Y60500D01*
X107100Y58400D02*
X111000Y54500D01*
X36500Y80000D02*
X39000Y82500D01*
X36500Y74250D02*
Y80000D01*
Y74250D02*
X39000Y71750D01*
Y82500D02*
Y96500D01*
X47000Y81500D02*
X56165Y72335D01*
X60000Y77429D02*
Y80500D01*
X59646Y77075D02*
X60000Y77429D01*
X124000Y80500D02*
X131500Y88000D01*
Y107000D01*
X64000Y45500D02*
X64736Y46236D01*
X64000Y36500D02*
X69000Y41500D01*
Y50000D01*
X95000Y63750D02*
Y71000D01*
Y62750D02*
Y63750D01*
X69000Y50000D02*
X73000Y54000D01*
X95000D01*
X90953Y65453D02*
X91079D01*
X91532Y65000D01*
X93750D01*
X95000Y63750D01*
Y54000D02*
Y62750D01*
X36900Y88900D02*
Y97370D01*
X123500Y107000D02*
Y108000D01*
X39000Y96500D02*
X45000Y102500D01*
X61500D01*
X66000Y75870D02*
Y79500D01*
X62205Y72075D02*
X66000Y75870D01*
X78150Y72075D02*
X80709D01*
X85134Y76500D01*
X93250D01*
X94500Y77750D01*
Y78750D01*
X59646Y72075D02*
X62205D01*
X59385Y72335D02*
X59646Y72075D01*
X56165Y72335D02*
X59385D01*
X47000Y81500D02*
Y82500D01*
X90634Y87000D02*
X94500D01*
X80709Y77075D02*
X90634Y87000D01*
X94500Y86500D02*
Y87000D01*
Y86500D02*
X99150Y81850D01*
Y72350D02*
Y81850D01*
Y72350D02*
X100500Y71000D01*
X123500Y96000D02*
X124000Y95500D01*
X123500Y96000D02*
Y107000D01*
X114000Y95500D02*
Y107000D01*
D43*
X75500Y26500D02*
Y27016D01*
X74000Y28516D02*
X75500Y27016D01*
X74000Y28516D02*
Y45500D01*
X85500Y26500D02*
Y27016D01*
X84000Y28516D02*
X85500Y27016D01*
X84000Y28516D02*
Y45500D01*
X95500Y26500D02*
Y27016D01*
X94000Y28516D02*
X95500Y27016D01*
X94000Y28516D02*
Y45500D01*
X104000Y28000D02*
X105500Y26500D01*
X104000Y28000D02*
Y45500D01*
D44*
X114000Y80500D02*
D03*
X124000D02*
D03*
X114000Y70500D02*
D03*
X124000D02*
D03*
X114000Y60500D02*
D03*
X43500Y26500D02*
D03*
X33500D02*
D03*
X53500D02*
D03*
X85500D02*
D03*
X75500D02*
D03*
X95500D02*
D03*
X10500Y103500D02*
D03*
X54000Y45500D02*
D03*
X64000D02*
D03*
X74000D02*
D03*
X84000D02*
D03*
X94000D02*
D03*
X104000D02*
D03*
X114000D02*
D03*
X54000Y95500D02*
D03*
X64000D02*
D03*
X74000D02*
D03*
X84000D02*
D03*
X94000D02*
D03*
X104000D02*
D03*
X114000D02*
D03*
X10500Y81500D02*
D03*
Y71500D02*
D03*
Y61500D02*
D03*
Y51500D02*
D03*
Y41500D02*
D03*
D45*
X124000Y60500D02*
D03*
X10500Y93500D02*
D03*
Y31500D02*
D03*
D46*
X63500Y26500D02*
D03*
X105500D02*
D03*
X124000Y45500D02*
D03*
Y95500D02*
D03*
D47*
X70252Y62303D02*
D03*
X78500Y4000D02*
D03*
X85000Y86500D02*
D03*
X71000Y79500D02*
D03*
X97500Y107000D02*
D03*
X90376Y71876D02*
D03*
X60000Y80500D02*
D03*
X90953Y65453D02*
D03*
X61500Y102500D02*
D03*
X66000Y79500D02*
D03*
D48*
X120079Y120079D02*
D03*
Y17717D02*
D03*
X17717D02*
D03*
Y120079D02*
D03*
D49*
X59646Y62075D02*
D03*
Y67075D02*
D03*
Y72075D02*
D03*
Y77075D02*
D03*
X78150Y62075D02*
D03*
Y67075D02*
D03*
Y72075D02*
D03*
Y77075D02*
D03*
M02*
