M48
;Layer_Color=9474304
;FILE_FORMAT=2:5
INCH,TZ
;TYPE=PLATED
T1F00S00C0.00787
T2F00S00C0.00800
T3F00S00C0.03543
T4F00S00C0.11811
%
T01
X41500Y48500
X52000Y55000
X109000
X90500Y65500
X71500Y68000
X70500Y79500
X73500
X76500Y82000
X41500Y76416
T02
X47500Y89000
T03
X28000Y26000
X38000
X48000
X51000Y45500
X17000Y53000
X61000Y45500
X71000
X81000
X91000
X101000
X111000
X121000
X101000Y26000
X91000
X81000
X71000
X58000
X61000Y95500
X71000
X81000
X91000
X101000
X111000
X121000
X122000Y80500
X112000
Y70500
X122000
Y60500
X112000
X51000Y95500
X17500Y97000
Y107000
X17000Y83000
Y73000
Y63000
T04
X17717Y17717
X120079
Y120079
X17717
M30
