G04*
G04 #@! TF.GenerationSoftware,Altium Limited,Altium Designer,18.0.12 (696)*
G04*
G04 Layer_Color=255*
%FSLAX25Y25*%
%MOIN*%
G70*
G01*
G75*
%ADD14R,0.05512X0.05906*%
%ADD15R,0.05906X0.05512*%
%ADD16R,0.05315X0.18110*%
%ADD17R,0.44882X0.37008*%
%ADD18R,0.09173X0.06142*%
%ADD19R,0.04646X0.06969*%
%ADD20R,0.06969X0.04646*%
%ADD48C,0.06496*%
%ADD49R,0.06496X0.06496*%
%ADD50C,0.07087*%
%ADD51R,0.06000X0.06000*%
%ADD52C,0.06000*%
%ADD53R,0.05906X0.05906*%
%ADD54C,0.05906*%
%ADD55R,0.05906X0.05906*%
%ADD56R,0.10000X0.10000*%
%ADD57C,0.10000*%
%ADD58R,0.05500X0.05500*%
%ADD59R,0.06000X0.06000*%
D14*
X-174800Y90600D02*
D03*
X-182900D02*
D03*
X-254100Y69100D02*
D03*
X-262200D02*
D03*
X-173000Y183400D02*
D03*
X-181100D02*
D03*
X-243600Y164500D02*
D03*
X-235500D02*
D03*
X-26400Y27400D02*
D03*
X-18300D02*
D03*
X-348500Y153500D02*
D03*
X-340400D02*
D03*
X-350500Y7400D02*
D03*
X-342400D02*
D03*
X-338600Y230400D02*
D03*
X-346700D02*
D03*
X-183000Y155300D02*
D03*
X-174900D02*
D03*
X-265400Y154700D02*
D03*
X-257300D02*
D03*
X-233700Y79400D02*
D03*
X-241800D02*
D03*
X-152400Y163700D02*
D03*
X-160500D02*
D03*
X-178300Y69900D02*
D03*
X-170200D02*
D03*
X-151400Y79200D02*
D03*
X-159500D02*
D03*
D15*
X-254100Y90900D02*
D03*
Y99000D02*
D03*
X-243600Y175300D02*
D03*
Y183400D02*
D03*
X-50900Y8800D02*
D03*
Y16900D02*
D03*
X-8600Y35500D02*
D03*
Y27400D02*
D03*
X-339200Y97700D02*
D03*
Y89600D02*
D03*
X-277100Y97700D02*
D03*
Y89600D02*
D03*
D16*
X-298200Y161542D02*
D03*
X-318200D02*
D03*
X-298200Y17542D02*
D03*
X-318200D02*
D03*
X-298100Y89842D02*
D03*
X-318100D02*
D03*
D17*
X-308200Y198000D02*
D03*
Y54000D02*
D03*
X-308100Y126300D02*
D03*
D18*
X-254275Y25500D02*
D03*
X-271125D02*
D03*
X-254275Y11400D02*
D03*
X-271125D02*
D03*
D19*
X-365522Y80100D02*
D03*
X-376900D02*
D03*
D20*
X-343600Y80578D02*
D03*
Y69200D02*
D03*
D48*
X-153000Y142300D02*
D03*
Y192300D02*
D03*
X-143000Y142300D02*
D03*
X-133000D02*
D03*
X-123000D02*
D03*
X-113000D02*
D03*
X-163000D02*
D03*
X-173000D02*
D03*
X-163000Y192300D02*
D03*
X-173000D02*
D03*
X-183000D02*
D03*
X-143000D02*
D03*
X-133000D02*
D03*
X-123000D02*
D03*
X-113000D02*
D03*
X-196200Y107200D02*
D03*
X-206200D02*
D03*
X-216200D02*
D03*
X-226200D02*
D03*
X-266200D02*
D03*
X-256200D02*
D03*
X-246200D02*
D03*
X-256200Y57200D02*
D03*
X-246200D02*
D03*
X-196200D02*
D03*
X-206200D02*
D03*
X-216200D02*
D03*
X-226200D02*
D03*
X-236200Y107200D02*
D03*
Y57200D02*
D03*
X-197000Y192200D02*
D03*
X-207000D02*
D03*
X-217000D02*
D03*
X-227000D02*
D03*
X-267000D02*
D03*
X-257000D02*
D03*
X-247000D02*
D03*
X-257000Y142200D02*
D03*
X-247000D02*
D03*
X-197000D02*
D03*
X-207000D02*
D03*
X-217000D02*
D03*
X-227000D02*
D03*
X-237000Y192200D02*
D03*
Y142200D02*
D03*
X-112800Y107300D02*
D03*
X-122800D02*
D03*
X-132800D02*
D03*
X-142800D02*
D03*
X-182800D02*
D03*
X-172800D02*
D03*
X-162800D02*
D03*
X-172800Y57300D02*
D03*
X-162800D02*
D03*
X-112800D02*
D03*
X-122800D02*
D03*
X-132800D02*
D03*
X-142800D02*
D03*
X-152800Y107300D02*
D03*
Y57300D02*
D03*
D49*
X-183000Y142300D02*
D03*
X-266200Y57200D02*
D03*
X-267000Y142200D02*
D03*
X-182800Y57300D02*
D03*
D50*
X-211746Y16043D02*
D03*
X-237337D02*
D03*
X-215290Y6200D02*
D03*
X-233400D02*
D03*
D51*
X-141100Y8200D02*
D03*
X-167100D02*
D03*
D52*
X-131100D02*
D03*
X-157100D02*
D03*
X-72600Y152900D02*
D03*
Y142900D02*
D03*
Y132900D02*
D03*
X-86100Y152900D02*
D03*
Y142900D02*
D03*
Y132900D02*
D03*
D53*
X-193700Y8100D02*
D03*
X-9100Y16950D02*
D03*
X-235200Y227450D02*
D03*
X-219200Y37450D02*
D03*
X-91100Y170500D02*
D03*
X-149200Y227450D02*
D03*
X-199200Y37450D02*
D03*
X-59200Y227450D02*
D03*
X-109200Y37450D02*
D03*
X-220900Y79400D02*
D03*
X-137000Y163600D02*
D03*
X-221500Y164600D02*
D03*
X-246200Y127200D02*
D03*
X-163000Y210600D02*
D03*
X-247000Y210700D02*
D03*
X-100400Y107600D02*
D03*
Y97500D02*
D03*
Y87400D02*
D03*
Y67300D02*
D03*
Y57300D02*
D03*
X-136400Y79300D02*
D03*
X-162800Y127200D02*
D03*
D54*
X-183700Y8100D02*
D03*
X-39100Y6950D02*
D03*
Y16950D02*
D03*
X-29100Y6950D02*
D03*
Y16950D02*
D03*
X-19100Y6950D02*
D03*
Y16950D02*
D03*
X-9100Y6950D02*
D03*
X-19200Y57450D02*
D03*
X-29200D02*
D03*
X-19200Y67450D02*
D03*
X-29200D02*
D03*
X-19200Y77450D02*
D03*
X-29200D02*
D03*
X-19200Y87450D02*
D03*
X-29200D02*
D03*
X-19200Y97450D02*
D03*
X-29200D02*
D03*
X-19200Y107450D02*
D03*
X-29200D02*
D03*
X-19200Y117450D02*
D03*
X-29200D02*
D03*
X-19200Y127450D02*
D03*
X-29200D02*
D03*
X-19200Y137450D02*
D03*
X-29200D02*
D03*
X-19200Y147450D02*
D03*
X-29200D02*
D03*
X-19200Y157450D02*
D03*
X-29200D02*
D03*
X-19200Y167450D02*
D03*
X-29200D02*
D03*
X-19200Y177450D02*
D03*
X-29200D02*
D03*
X-19200Y187450D02*
D03*
X-29200D02*
D03*
X-19200Y197450D02*
D03*
X-29200D02*
D03*
X-19200Y207450D02*
D03*
X-29200D02*
D03*
X-19200Y217450D02*
D03*
X-29200D02*
D03*
X-19200Y227450D02*
D03*
X-9200D02*
D03*
Y217450D02*
D03*
Y207450D02*
D03*
Y197450D02*
D03*
Y187450D02*
D03*
Y177450D02*
D03*
Y167450D02*
D03*
Y157450D02*
D03*
Y147450D02*
D03*
Y137450D02*
D03*
Y127450D02*
D03*
Y117450D02*
D03*
Y107450D02*
D03*
Y97450D02*
D03*
Y87450D02*
D03*
Y77450D02*
D03*
Y67450D02*
D03*
X-109400Y16200D02*
D03*
Y26200D02*
D03*
X-96800Y16200D02*
D03*
Y26200D02*
D03*
X-84200Y16100D02*
D03*
Y26100D02*
D03*
X-71600Y16200D02*
D03*
Y26200D02*
D03*
X-40600Y203200D02*
D03*
X-52500Y203100D02*
D03*
X-64300D02*
D03*
X-76000Y203000D02*
D03*
X-87700Y202900D02*
D03*
X-99400D02*
D03*
X-245200Y227450D02*
D03*
X-255200D02*
D03*
X-265200D02*
D03*
X-275200D02*
D03*
X-285200D02*
D03*
X-295200D02*
D03*
X-305200D02*
D03*
X-229200Y37450D02*
D03*
X-239200D02*
D03*
X-249200D02*
D03*
X-259200D02*
D03*
X-269200D02*
D03*
X-47200Y180900D02*
D03*
Y170900D02*
D03*
Y160900D02*
D03*
X-91100Y180500D02*
D03*
X-81100Y170500D02*
D03*
Y180500D02*
D03*
X-71100Y170500D02*
D03*
Y180500D02*
D03*
X-159200Y227450D02*
D03*
X-169200D02*
D03*
X-179200D02*
D03*
X-189200D02*
D03*
X-199200D02*
D03*
X-209200D02*
D03*
X-219200D02*
D03*
X-189200Y37450D02*
D03*
X-179200D02*
D03*
X-169200D02*
D03*
X-159200D02*
D03*
X-149200D02*
D03*
X-139200D02*
D03*
X-129200D02*
D03*
X-69200Y227450D02*
D03*
X-79200D02*
D03*
X-89200D02*
D03*
X-99200D02*
D03*
X-109200D02*
D03*
X-119200D02*
D03*
X-129200D02*
D03*
X-99200Y37450D02*
D03*
X-89200D02*
D03*
X-79200D02*
D03*
X-69200D02*
D03*
X-59200D02*
D03*
X-49200D02*
D03*
X-39200D02*
D03*
X-220900Y89400D02*
D03*
X-210900Y79400D02*
D03*
Y89400D02*
D03*
X-200900Y79400D02*
D03*
Y89400D02*
D03*
X-137000Y173600D02*
D03*
X-127000Y163600D02*
D03*
Y173600D02*
D03*
X-117000Y163600D02*
D03*
Y173600D02*
D03*
X-221500Y174600D02*
D03*
X-211500Y164600D02*
D03*
Y174600D02*
D03*
X-201500Y164600D02*
D03*
Y174600D02*
D03*
X-216200Y127200D02*
D03*
X-226200D02*
D03*
X-236200D02*
D03*
X-133000Y210600D02*
D03*
X-143000D02*
D03*
X-153000D02*
D03*
X-217000Y210700D02*
D03*
X-227000D02*
D03*
X-237000D02*
D03*
X-90400Y107600D02*
D03*
X-80400D02*
D03*
X-70400D02*
D03*
X-60400D02*
D03*
X-50400D02*
D03*
X-90400Y97500D02*
D03*
X-80400D02*
D03*
X-70400D02*
D03*
X-60400D02*
D03*
X-50400D02*
D03*
X-90400Y87400D02*
D03*
X-80400D02*
D03*
X-70400D02*
D03*
X-60400D02*
D03*
X-50400D02*
D03*
X-90400Y77300D02*
D03*
X-80400D02*
D03*
X-70400D02*
D03*
X-60400D02*
D03*
X-50400D02*
D03*
X-90400Y67300D02*
D03*
X-80400D02*
D03*
X-70400D02*
D03*
X-60400D02*
D03*
X-50400D02*
D03*
X-90400Y57300D02*
D03*
X-80400D02*
D03*
X-70400D02*
D03*
X-60400D02*
D03*
X-50400D02*
D03*
X-136400Y89300D02*
D03*
X-126400Y79300D02*
D03*
Y89300D02*
D03*
X-116400Y79300D02*
D03*
Y89300D02*
D03*
X-132800Y127200D02*
D03*
X-142800D02*
D03*
X-152800D02*
D03*
D55*
X-29200Y227450D02*
D03*
X-9200Y57450D02*
D03*
X-109400Y6200D02*
D03*
X-96800D02*
D03*
X-84200Y6100D02*
D03*
X-71600Y6200D02*
D03*
X-40600Y193200D02*
D03*
X-52500Y193100D02*
D03*
X-64300D02*
D03*
X-76000Y193000D02*
D03*
X-87700Y192900D02*
D03*
X-99400D02*
D03*
X-47200Y150900D02*
D03*
D56*
X-372700Y177400D02*
D03*
X-372600Y32300D02*
D03*
Y108500D02*
D03*
D57*
X-372700Y197085D02*
D03*
X-372600Y51985D02*
D03*
Y128185D02*
D03*
D58*
X-100400Y77300D02*
D03*
D59*
X-72600Y122900D02*
D03*
X-86100D02*
D03*
M02*
