M48
;Layer_Color=9474304
;FILE_FORMAT=2:5
INCH,TZ
;TYPE=PLATED
T1F00S00C0.01181
T2F00S00C0.02000
T3F00S00C0.03937
T4F00S00C0.04724
%
T01
X-78000Y11400
X-81000Y21100
X-84800Y54400
X-38400Y61300
X-36200Y66900
X-40000Y72100
X-27000Y43700
X-21300Y46400
X-15000Y43800
X-13200Y22300
X-59800Y2300
X-149100Y28100
X-152400Y27800
X-171400Y27300
X-176900Y27100
X-182200Y30450
X-167600Y50100
X-164100Y48500
X-160600Y47100
X-157300Y45600
X-163300Y69800
X-246300Y21000
X-250700Y16800
X-390000Y7400
X-269700Y101900
X-247900Y154800
X-277100Y174500
X-290400Y161900
X-272900Y199300
X-356700Y233200
X-163200Y155200
X-137900Y137400
X-135400Y134800
X-125500Y132200
X-113200Y96700
X-120353Y85353
X-197000Y86300
X-54300Y90900
X-54600Y110900
X-44600Y115100
X-39000Y130800
X-38300Y135700
X-40100Y145100
X-59400Y146500
X-56800Y137000
X-58400Y199400
X-6200Y172500
X-31900Y82300
X-40200Y83100
T02
X-197400Y70900
X-249400Y79800
X-279200Y78200
X-290500Y68100
X-297500
X-304500
X-311500
X-318500
X-325500
Y61100
X-318500
X-311500
X-304500
X-297500
X-290500
Y54100
X-297500
X-304500
X-311500
X-318500
X-325500
Y47100
X-318500
X-311500
X-304500
X-297500
X-290500
Y40100
X-297500
X-304500
X-311500
X-318500
X-325500
X-288500Y28600
X-287300Y11100
X-267500Y48100
X-258000Y83600
X-290100Y87800
X-290200Y112400
X-297200
X-304200
X-311200
X-318200
X-325200
Y119400
X-318200
X-311200
X-304200
X-297200
X-290200
Y126400
X-297200
X-304200
X-311200
X-318200
X-325200
Y133400
X-318200
X-311200
X-304200
X-297200
X-290200
Y140400
X-297200
X-304200
X-311200
X-318200
X-325200
X-341500Y122600
X-351800Y89600
X-339200Y175600
X-325300Y184200
X-318300
X-311300
X-304300
X-297300
X-290300
Y191200
X-297300
X-304300
X-311300
X-318300
X-325300
Y198200
X-318300
X-311300
X-304300
X-297300
X-290300
Y205200
X-297300
X-304300
X-311300
X-318300
X-325300
Y212200
X-318300
X-311300
X-304300
X-297300
X-290300
X-271700Y219100
X-257000Y174400
T03
X-84200Y6100
Y16100
Y26100
X-71600Y26200
Y16200
Y6200
X-39100Y6950
Y16950
X-29100
Y6950
X-19100
Y16950
X-9100
Y6950
X-9200Y57450
X-19200
X-29200
Y67450
X-19200
Y77450
X-29200
X-9200
Y67450
X-50400Y67300
Y77300
X-60400
X-70400
X-80400
Y67300
X-70400
X-60400
Y57300
X-70400
X-80400
X-79200Y37450
X-69200
X-59200
X-49200
X-39200
X-50400Y57300
X-90400
Y67300
Y77300
X-100400
Y67300
Y57300
X-112800
X-122800
X-132800
X-142800
X-152800
X-162800
X-172800
X-182800
X-196200Y57200
X-206200
X-216200
X-226200
X-236200
X-239200Y37450
X-229200
X-219200
X-199200
X-189200
X-179200
X-169200
X-159200
X-149200
X-139200
X-129200
X-109200
X-99200
X-89200
X-96800Y26200
Y16200
Y6200
X-109400
Y16200
Y26200
X-131100Y8200
X-141100
X-157100
X-167100
X-183700Y8100
X-193700
X-215290Y6200
X-211746Y16043
X-237337
X-233400Y6200
X-220900Y79400
X-210900
X-200900
X-136400Y79300
X-126400
X-116400
X-246200Y57200
X-256200
X-266200
X-269200Y37450
X-259200
X-249200
X-246200Y107200
X-256200
X-266200
X-267000Y142200
X-257000
X-247000
X-246200Y127200
X-247000Y192200
X-257000
X-267000
X-265200Y227450
X-255200
X-245200
X-247000Y210700
X-275200Y227450
X-285200
X-295200
X-305200
X-235200
X-219200
X-209200
X-199200
X-189200
X-179200
X-169200
X-159200
X-149200
X-129200
X-119200
X-109200
X-99200
X-89200
X-99400Y202900
Y192900
X-113000Y192300
X-123000
X-133000
X-143000
X-153000
X-163000
X-173000
X-183000
X-197000Y192200
X-207000
X-217000
X-227000
X-237000
Y210700
X-227000
X-217000
X-221500Y174600
Y164600
X-211500
Y174600
X-201500
Y164600
X-197000Y142200
X-207000
X-217000
X-227000
X-237000
X-236200Y127200
X-226200
X-216200
Y107200
X-206200
X-196200
X-182800Y107300
X-172800
X-162800
X-152800
X-142800
X-132800
X-122800
X-112800
X-100400Y107600
X-90400
Y97500
X-100400
Y87400
X-90400
X-116400Y89300
X-126400
X-136400
X-132800Y127200
X-142800
X-152800
X-162800
X-163000Y142300
X-153000
X-143000
X-133000
X-123000
X-113000
X-117000Y163600
X-127000
X-137000
Y173600
X-127000
X-117000
X-91100Y170500
Y180500
X-133000Y210600
X-143000
X-153000
X-163000
X-173000Y142300
X-183000
X-200900Y89400
X-210900
X-220900
X-226200Y107200
X-236200
X-80400Y107600
X-70400
X-60400
X-50400
Y97500
X-60400
X-70400
X-80400
Y87400
X-70400
X-60400
X-50400
X-29200Y87450
X-19200
Y97450
X-29200
Y107450
X-19200
Y117450
X-29200
Y127450
X-19200
Y137450
X-29200
Y147450
X-19200
Y157450
X-29200
Y167450
X-19200
Y177450
X-29200
Y187450
X-19200
Y197450
X-29200
Y207450
X-19200
Y217450
X-29200
Y227450
X-19200
X-9200
Y217450
Y207450
Y197450
Y187450
Y177450
Y167450
Y157450
Y147450
Y137450
Y127450
Y117450
Y107450
Y97450
Y87450
X-72600Y122900
Y132900
Y142900
Y152900
X-86100
Y142900
Y132900
Y122900
X-81100Y170500
Y180500
X-71100
Y170500
X-47200Y170900
Y180900
X-52500Y193100
Y203100
X-64300
Y193100
X-76000Y193000
Y203000
X-87700Y202900
Y192900
X-79200Y227450
X-69200
X-59200
X-40600Y203200
Y193200
X-47200Y160900
Y150900
T04
X-372600Y32300
Y51985
Y108500
Y128185
X-372700Y177400
Y197085
M30
