G04*
G04 #@! TF.GenerationSoftware,Altium Limited,Altium Designer,18.0.12 (696)*
G04*
G04 Layer_Color=32896*
%FSLAX25Y25*%
%MOIN*%
G70*
G01*
G75*
%ADD11C,0.00500*%
%ADD12C,0.01000*%
D11*
X-333861Y102961D02*
X-285042D01*
Y73039D02*
Y102961D01*
X-333861Y73039D02*
X-285042D01*
X-333861D02*
Y102961D01*
D12*
X-280400Y128900D02*
X-272400D01*
X-280400Y112800D02*
Y128900D01*
Y112800D02*
X-272400D01*
Y128900D01*
X-266100D02*
X-258100D01*
X-266100Y112800D02*
Y128900D01*
Y112800D02*
X-258100D01*
Y128900D01*
X-52700Y214800D02*
Y230900D01*
X-44700D01*
Y214800D02*
Y230900D01*
X-52700Y214800D02*
X-44700D01*
X-42900Y214900D02*
Y231000D01*
X-34900D01*
Y214900D02*
Y231000D01*
X-42900Y214900D02*
X-34900D01*
X-23300Y25400D02*
Y41500D01*
X-31300Y25400D02*
X-23300D01*
X-31300D02*
Y41500D01*
X-23300D01*
X-47700Y15100D02*
Y31200D01*
X-55700Y15100D02*
X-47700D01*
X-55700D02*
Y31200D01*
X-47700D01*
X-57400Y15200D02*
Y31300D01*
X-65400Y15200D02*
X-57400D01*
X-65400D02*
Y31300D01*
X-57400D01*
X-356500Y104900D02*
X-340400D01*
X-356500D02*
Y112900D01*
X-340400D01*
Y104900D02*
Y112900D01*
X-385500Y3200D02*
Y11200D01*
Y3200D02*
X-369400D01*
Y11200D01*
X-385500D02*
X-369400D01*
X-253500Y87200D02*
Y95200D01*
X-269600D02*
X-253500D01*
X-269600Y87200D02*
Y95200D01*
Y87200D02*
X-253500D01*
X-269800Y64100D02*
X-261800D01*
Y80200D01*
X-269800D02*
X-261800D01*
X-269800Y64100D02*
Y80200D01*
X-367000Y226600D02*
Y234600D01*
X-383100D02*
X-367000D01*
X-383100Y226600D02*
Y234600D01*
Y226600D02*
X-367000D01*
X-274300Y181600D02*
X-266300D01*
X-274300Y165500D02*
Y181600D01*
Y165500D02*
X-266300D01*
Y181600D01*
X-287900Y157700D02*
X-279900D01*
Y173800D01*
X-287900D02*
X-279900D01*
X-287900Y157700D02*
Y173800D01*
X-311700Y12500D02*
Y28600D01*
X-303700D01*
Y12500D02*
Y28600D01*
X-311700Y12500D02*
X-303700D01*
X-301000D02*
Y28600D01*
X-293000D01*
Y12500D02*
Y28600D01*
X-301000Y12500D02*
X-293000D01*
X-355800Y44500D02*
X-339700D01*
Y36500D02*
Y44500D01*
X-355800Y36500D02*
X-339700D01*
X-355800D02*
Y44500D01*
Y56100D02*
X-339700D01*
Y48100D02*
Y56100D01*
X-355800Y48100D02*
X-339700D01*
X-355800D02*
Y56100D01*
X-15000Y40700D02*
X-20998D01*
Y37701D01*
X-19998Y36701D01*
X-17999D01*
X-16999Y37701D01*
Y40700D01*
Y38701D02*
X-15000Y36701D01*
Y34702D02*
Y32703D01*
Y33702D01*
X-20998D01*
X-19998Y34702D01*
Y29704D02*
X-20998Y28704D01*
Y26704D01*
X-19998Y25705D01*
X-18999D01*
X-17999Y26704D01*
Y27704D01*
Y26704D01*
X-16999Y25705D01*
X-16000D01*
X-15000Y26704D01*
Y28704D01*
X-16000Y29704D01*
X-50100Y13200D02*
X-54099D01*
Y11201D01*
X-53432Y10534D01*
X-52099D01*
X-51433Y11201D01*
Y13200D01*
Y11867D02*
X-50100Y10534D01*
Y9201D02*
Y7868D01*
Y8535D01*
X-54099D01*
X-53432Y9201D01*
X-50100Y3203D02*
Y5869D01*
X-52766Y3203D01*
X-53432D01*
X-54099Y3870D01*
Y5203D01*
X-53432Y5869D01*
X-59100Y13100D02*
X-63099D01*
Y11101D01*
X-62432Y10434D01*
X-61099D01*
X-60433Y11101D01*
Y13100D01*
Y11767D02*
X-59100Y10434D01*
Y9101D02*
Y7768D01*
Y8435D01*
X-63099D01*
X-62432Y9101D01*
X-59100Y5769D02*
Y4436D01*
Y5103D01*
X-63099D01*
X-62432Y5769D01*
X-343800Y95700D02*
Y101698D01*
X-346799D01*
X-347799Y100698D01*
Y98699D01*
X-346799Y97699D01*
X-343800D01*
X-345799D02*
X-347799Y95700D01*
X-349798Y101698D02*
X-353797D01*
Y100698D01*
X-349798Y96700D01*
Y95700D01*
X-240900Y88400D02*
Y94398D01*
X-243899D01*
X-244899Y93398D01*
Y91399D01*
X-243899Y90399D01*
X-240900D01*
X-242899D02*
X-244899Y88400D01*
X-250897Y94398D02*
X-248897Y93398D01*
X-246898Y91399D01*
Y89400D01*
X-247898Y88400D01*
X-249897D01*
X-250897Y89400D01*
Y90399D01*
X-249897Y91399D01*
X-246898D01*
X-253000Y76700D02*
X-258998D01*
Y73701D01*
X-257998Y72701D01*
X-255999D01*
X-254999Y73701D01*
Y76700D01*
Y74701D02*
X-253000Y72701D01*
X-258998Y66703D02*
Y70702D01*
X-255999D01*
X-256999Y68703D01*
Y67703D01*
X-255999Y66703D01*
X-254000D01*
X-253000Y67703D01*
Y69702D01*
X-254000Y70702D01*
X-357100Y4100D02*
Y10098D01*
X-360099D01*
X-361099Y9098D01*
Y7099D01*
X-360099Y6099D01*
X-357100D01*
X-359099D02*
X-361099Y4100D01*
X-366097D02*
Y10098D01*
X-363098Y7099D01*
X-367097D01*
X-267800Y162900D02*
X-273798D01*
Y159901D01*
X-272798Y158901D01*
X-270799D01*
X-269799Y159901D01*
Y162900D01*
Y160901D02*
X-267800Y158901D01*
X-272798Y156902D02*
X-273798Y155902D01*
Y153903D01*
X-272798Y152903D01*
X-271799D01*
X-270799Y153903D01*
Y154903D01*
Y153903D01*
X-269799Y152903D01*
X-268800D01*
X-267800Y153903D01*
Y155902D01*
X-268800Y156902D01*
X-281200Y156200D02*
X-287198D01*
Y153201D01*
X-286198Y152201D01*
X-284199D01*
X-283199Y153201D01*
Y156200D01*
Y154201D02*
X-281200Y152201D01*
Y146203D02*
Y150202D01*
X-285199Y146203D01*
X-286198D01*
X-287198Y147203D01*
Y149202D01*
X-286198Y150202D01*
X-371200Y219000D02*
Y224998D01*
X-374199D01*
X-375199Y223998D01*
Y221999D01*
X-374199Y220999D01*
X-371200D01*
X-373199D02*
X-375199Y219000D01*
X-377198D02*
X-379197D01*
X-378198D01*
Y224998D01*
X-377198Y223998D01*
X-289298Y20601D02*
X-290298Y21601D01*
Y23600D01*
X-289298Y24600D01*
X-285300D01*
X-284300Y23600D01*
Y21601D01*
X-285300Y20601D01*
X-290298Y14603D02*
X-289298Y16603D01*
X-287299Y18602D01*
X-285300D01*
X-284300Y17602D01*
Y15603D01*
X-285300Y14603D01*
X-286299D01*
X-287299Y15603D01*
Y18602D01*
X-320498Y21801D02*
X-321498Y22801D01*
Y24800D01*
X-320498Y25800D01*
X-316500D01*
X-315500Y24800D01*
Y22801D01*
X-316500Y21801D01*
X-321498Y15803D02*
Y19802D01*
X-318499D01*
X-319499Y17803D01*
Y16803D01*
X-318499Y15803D01*
X-316500D01*
X-315500Y16803D01*
Y18802D01*
X-316500Y19802D01*
X-275099Y136098D02*
X-274099Y137098D01*
X-272100D01*
X-271100Y136098D01*
Y132100D01*
X-272100Y131100D01*
X-274099D01*
X-275099Y132100D01*
X-280097Y131100D02*
Y137098D01*
X-277098Y134099D01*
X-281097D01*
X-261099Y136498D02*
X-260099Y137498D01*
X-258100D01*
X-257100Y136498D01*
Y132500D01*
X-258100Y131500D01*
X-260099D01*
X-261099Y132500D01*
X-263098Y136498D02*
X-264098Y137498D01*
X-266097D01*
X-267097Y136498D01*
Y135499D01*
X-266097Y134499D01*
X-265097D01*
X-266097D01*
X-267097Y133499D01*
Y132500D01*
X-266097Y131500D01*
X-264098D01*
X-263098Y132500D01*
X-347199Y64598D02*
X-346199Y65598D01*
X-344200D01*
X-343200Y64598D01*
Y60600D01*
X-344200Y59600D01*
X-346199D01*
X-347199Y60600D01*
X-353197Y59600D02*
X-349198D01*
X-353197Y63599D01*
Y64598D01*
X-352197Y65598D01*
X-350198D01*
X-349198Y64598D01*
X-346399Y31498D02*
X-345399Y32498D01*
X-343400D01*
X-342400Y31498D01*
Y27500D01*
X-343400Y26500D01*
X-345399D01*
X-346399Y27500D01*
X-348398Y26500D02*
X-350397D01*
X-349398D01*
Y32498D01*
X-348398Y31498D01*
M02*
