G04*
G04 #@! TF.GenerationSoftware,Altium Limited,Altium Designer,18.0.12 (696)*
G04*
G04 Layer_Color=128*
%FSLAX25Y25*%
%MOIN*%
G70*
G01*
G75*
%ADD14R,0.05512X0.05906*%
%ADD15R,0.05906X0.05512*%
%ADD62R,0.11811X0.06299*%
%ADD63R,0.26378X0.26378*%
D14*
X-352500Y108900D02*
D03*
X-344400D02*
D03*
X-381500Y7200D02*
D03*
X-373400D02*
D03*
X-257500Y91200D02*
D03*
X-265600D02*
D03*
X-371000Y230600D02*
D03*
X-379100D02*
D03*
X-343700Y40500D02*
D03*
X-351800D02*
D03*
X-343700Y52100D02*
D03*
X-351800D02*
D03*
D15*
X-276400Y124900D02*
D03*
Y116800D02*
D03*
X-262100Y124900D02*
D03*
Y116800D02*
D03*
X-48700Y226900D02*
D03*
Y218800D02*
D03*
X-38900Y227000D02*
D03*
Y218900D02*
D03*
X-27300Y29400D02*
D03*
Y37500D02*
D03*
X-51700Y19100D02*
D03*
Y27200D02*
D03*
X-61400Y19200D02*
D03*
Y27300D02*
D03*
X-265800Y68100D02*
D03*
Y76200D02*
D03*
X-270300Y177600D02*
D03*
Y169500D02*
D03*
X-283900Y161700D02*
D03*
Y169800D02*
D03*
X-307700Y24600D02*
D03*
Y16500D02*
D03*
X-297000Y24600D02*
D03*
Y16500D02*
D03*
D62*
X-292719Y78945D02*
D03*
Y97055D02*
D03*
D63*
X-318900Y88000D02*
D03*
M02*
