G04*
G04 #@! TF.GenerationSoftware,Altium Limited,Altium Designer,18.0.12 (696)*
G04*
G04 Layer_Color=8388736*
%FSLAX25Y25*%
%MOIN*%
G70*
G01*
G75*
%ADD21R,0.06312X0.06706*%
%ADD22R,0.06706X0.06312*%
%ADD23R,0.06115X0.18910*%
%ADD24R,0.45682X0.37808*%
%ADD25R,0.09973X0.06942*%
%ADD26R,0.05446X0.07769*%
%ADD27R,0.07769X0.05446*%
%ADD28C,0.07296*%
%ADD29R,0.07296X0.07296*%
%ADD30C,0.07887*%
%ADD31R,0.06800X0.06800*%
%ADD32C,0.06800*%
%ADD33R,0.06706X0.06706*%
%ADD34C,0.06706*%
%ADD35R,0.06706X0.06706*%
%ADD36R,0.10800X0.10800*%
%ADD37C,0.10800*%
%ADD38R,0.06300X0.06300*%
%ADD39R,0.06800X0.06800*%
%ADD40C,0.02769*%
%ADD41C,0.05800*%
D21*
X-174800Y90600D02*
D03*
X-182900D02*
D03*
X-254100Y69100D02*
D03*
X-262200D02*
D03*
X-173000Y183400D02*
D03*
X-181100D02*
D03*
X-243600Y164500D02*
D03*
X-235500D02*
D03*
X-26400Y27400D02*
D03*
X-18300D02*
D03*
X-348500Y153500D02*
D03*
X-340400D02*
D03*
X-350500Y7400D02*
D03*
X-342400D02*
D03*
X-338600Y230400D02*
D03*
X-346700D02*
D03*
X-183000Y155300D02*
D03*
X-174900D02*
D03*
X-265400Y154700D02*
D03*
X-257300D02*
D03*
X-233700Y79400D02*
D03*
X-241800D02*
D03*
X-152400Y163700D02*
D03*
X-160500D02*
D03*
X-178300Y69900D02*
D03*
X-170200D02*
D03*
X-151400Y79200D02*
D03*
X-159500D02*
D03*
D22*
X-254100Y90900D02*
D03*
Y99000D02*
D03*
X-243600Y175300D02*
D03*
Y183400D02*
D03*
X-50900Y8800D02*
D03*
Y16900D02*
D03*
X-8600Y35500D02*
D03*
Y27400D02*
D03*
X-339200Y97700D02*
D03*
Y89600D02*
D03*
X-277100Y97700D02*
D03*
Y89600D02*
D03*
D23*
X-298200Y161542D02*
D03*
X-318200D02*
D03*
X-298200Y17542D02*
D03*
X-318200D02*
D03*
X-298100Y89842D02*
D03*
X-318100D02*
D03*
D24*
X-308200Y198000D02*
D03*
Y54000D02*
D03*
X-308100Y126300D02*
D03*
D25*
X-254275Y25500D02*
D03*
X-271125D02*
D03*
X-254275Y11400D02*
D03*
X-271125D02*
D03*
D26*
X-365522Y80100D02*
D03*
X-376900D02*
D03*
D27*
X-343600Y80578D02*
D03*
Y69200D02*
D03*
D28*
X-153000Y142300D02*
D03*
Y192300D02*
D03*
X-143000Y142300D02*
D03*
X-133000D02*
D03*
X-123000D02*
D03*
X-113000D02*
D03*
X-163000D02*
D03*
X-173000D02*
D03*
X-163000Y192300D02*
D03*
X-173000D02*
D03*
X-183000D02*
D03*
X-143000D02*
D03*
X-133000D02*
D03*
X-123000D02*
D03*
X-113000D02*
D03*
X-196200Y107200D02*
D03*
X-206200D02*
D03*
X-216200D02*
D03*
X-226200D02*
D03*
X-266200D02*
D03*
X-256200D02*
D03*
X-246200D02*
D03*
X-256200Y57200D02*
D03*
X-246200D02*
D03*
X-196200D02*
D03*
X-206200D02*
D03*
X-216200D02*
D03*
X-226200D02*
D03*
X-236200Y107200D02*
D03*
Y57200D02*
D03*
X-197000Y192200D02*
D03*
X-207000D02*
D03*
X-217000D02*
D03*
X-227000D02*
D03*
X-267000D02*
D03*
X-257000D02*
D03*
X-247000D02*
D03*
X-257000Y142200D02*
D03*
X-247000D02*
D03*
X-197000D02*
D03*
X-207000D02*
D03*
X-217000D02*
D03*
X-227000D02*
D03*
X-237000Y192200D02*
D03*
Y142200D02*
D03*
X-112800Y107300D02*
D03*
X-122800D02*
D03*
X-132800D02*
D03*
X-142800D02*
D03*
X-182800D02*
D03*
X-172800D02*
D03*
X-162800D02*
D03*
X-172800Y57300D02*
D03*
X-162800D02*
D03*
X-112800D02*
D03*
X-122800D02*
D03*
X-132800D02*
D03*
X-142800D02*
D03*
X-152800Y107300D02*
D03*
Y57300D02*
D03*
D29*
X-183000Y142300D02*
D03*
X-266200Y57200D02*
D03*
X-267000Y142200D02*
D03*
X-182800Y57300D02*
D03*
D30*
X-211746Y16043D02*
D03*
X-237337D02*
D03*
X-215290Y6200D02*
D03*
X-233400D02*
D03*
D31*
X-141100Y8200D02*
D03*
X-167100D02*
D03*
D32*
X-131100D02*
D03*
X-157100D02*
D03*
X-72600Y152900D02*
D03*
Y142900D02*
D03*
Y132900D02*
D03*
X-86100Y152900D02*
D03*
Y142900D02*
D03*
Y132900D02*
D03*
D33*
X-193700Y8100D02*
D03*
X-9100Y16950D02*
D03*
X-235200Y227450D02*
D03*
X-219200Y37450D02*
D03*
X-91100Y170500D02*
D03*
X-149200Y227450D02*
D03*
X-199200Y37450D02*
D03*
X-59200Y227450D02*
D03*
X-109200Y37450D02*
D03*
X-220900Y79400D02*
D03*
X-137000Y163600D02*
D03*
X-221500Y164600D02*
D03*
X-246200Y127200D02*
D03*
X-163000Y210600D02*
D03*
X-247000Y210700D02*
D03*
X-100400Y107600D02*
D03*
Y97500D02*
D03*
Y87400D02*
D03*
Y67300D02*
D03*
Y57300D02*
D03*
X-136400Y79300D02*
D03*
X-162800Y127200D02*
D03*
D34*
X-183700Y8100D02*
D03*
X-39100Y6950D02*
D03*
Y16950D02*
D03*
X-29100Y6950D02*
D03*
Y16950D02*
D03*
X-19100Y6950D02*
D03*
Y16950D02*
D03*
X-9100Y6950D02*
D03*
X-19200Y57450D02*
D03*
X-29200D02*
D03*
X-19200Y67450D02*
D03*
X-29200D02*
D03*
X-19200Y77450D02*
D03*
X-29200D02*
D03*
X-19200Y87450D02*
D03*
X-29200D02*
D03*
X-19200Y97450D02*
D03*
X-29200D02*
D03*
X-19200Y107450D02*
D03*
X-29200D02*
D03*
X-19200Y117450D02*
D03*
X-29200D02*
D03*
X-19200Y127450D02*
D03*
X-29200D02*
D03*
X-19200Y137450D02*
D03*
X-29200D02*
D03*
X-19200Y147450D02*
D03*
X-29200D02*
D03*
X-19200Y157450D02*
D03*
X-29200D02*
D03*
X-19200Y167450D02*
D03*
X-29200D02*
D03*
X-19200Y177450D02*
D03*
X-29200D02*
D03*
X-19200Y187450D02*
D03*
X-29200D02*
D03*
X-19200Y197450D02*
D03*
X-29200D02*
D03*
X-19200Y207450D02*
D03*
X-29200D02*
D03*
X-19200Y217450D02*
D03*
X-29200D02*
D03*
X-19200Y227450D02*
D03*
X-9200D02*
D03*
Y217450D02*
D03*
Y207450D02*
D03*
Y197450D02*
D03*
Y187450D02*
D03*
Y177450D02*
D03*
Y167450D02*
D03*
Y157450D02*
D03*
Y147450D02*
D03*
Y137450D02*
D03*
Y127450D02*
D03*
Y117450D02*
D03*
Y107450D02*
D03*
Y97450D02*
D03*
Y87450D02*
D03*
Y77450D02*
D03*
Y67450D02*
D03*
X-109400Y16200D02*
D03*
Y26200D02*
D03*
X-96800Y16200D02*
D03*
Y26200D02*
D03*
X-84200Y16100D02*
D03*
Y26100D02*
D03*
X-71600Y16200D02*
D03*
Y26200D02*
D03*
X-40600Y203200D02*
D03*
X-52500Y203100D02*
D03*
X-64300D02*
D03*
X-76000Y203000D02*
D03*
X-87700Y202900D02*
D03*
X-99400D02*
D03*
X-245200Y227450D02*
D03*
X-255200D02*
D03*
X-265200D02*
D03*
X-275200D02*
D03*
X-285200D02*
D03*
X-295200D02*
D03*
X-305200D02*
D03*
X-229200Y37450D02*
D03*
X-239200D02*
D03*
X-249200D02*
D03*
X-259200D02*
D03*
X-269200D02*
D03*
X-47200Y180900D02*
D03*
Y170900D02*
D03*
Y160900D02*
D03*
X-91100Y180500D02*
D03*
X-81100Y170500D02*
D03*
Y180500D02*
D03*
X-71100Y170500D02*
D03*
Y180500D02*
D03*
X-159200Y227450D02*
D03*
X-169200D02*
D03*
X-179200D02*
D03*
X-189200D02*
D03*
X-199200D02*
D03*
X-209200D02*
D03*
X-219200D02*
D03*
X-189200Y37450D02*
D03*
X-179200D02*
D03*
X-169200D02*
D03*
X-159200D02*
D03*
X-149200D02*
D03*
X-139200D02*
D03*
X-129200D02*
D03*
X-69200Y227450D02*
D03*
X-79200D02*
D03*
X-89200D02*
D03*
X-99200D02*
D03*
X-109200D02*
D03*
X-119200D02*
D03*
X-129200D02*
D03*
X-99200Y37450D02*
D03*
X-89200D02*
D03*
X-79200D02*
D03*
X-69200D02*
D03*
X-59200D02*
D03*
X-49200D02*
D03*
X-39200D02*
D03*
X-220900Y89400D02*
D03*
X-210900Y79400D02*
D03*
Y89400D02*
D03*
X-200900Y79400D02*
D03*
Y89400D02*
D03*
X-137000Y173600D02*
D03*
X-127000Y163600D02*
D03*
Y173600D02*
D03*
X-117000Y163600D02*
D03*
Y173600D02*
D03*
X-221500Y174600D02*
D03*
X-211500Y164600D02*
D03*
Y174600D02*
D03*
X-201500Y164600D02*
D03*
Y174600D02*
D03*
X-216200Y127200D02*
D03*
X-226200D02*
D03*
X-236200D02*
D03*
X-133000Y210600D02*
D03*
X-143000D02*
D03*
X-153000D02*
D03*
X-217000Y210700D02*
D03*
X-227000D02*
D03*
X-237000D02*
D03*
X-90400Y107600D02*
D03*
X-80400D02*
D03*
X-70400D02*
D03*
X-60400D02*
D03*
X-50400D02*
D03*
X-90400Y97500D02*
D03*
X-80400D02*
D03*
X-70400D02*
D03*
X-60400D02*
D03*
X-50400D02*
D03*
X-90400Y87400D02*
D03*
X-80400D02*
D03*
X-70400D02*
D03*
X-60400D02*
D03*
X-50400D02*
D03*
X-90400Y77300D02*
D03*
X-80400D02*
D03*
X-70400D02*
D03*
X-60400D02*
D03*
X-50400D02*
D03*
X-90400Y67300D02*
D03*
X-80400D02*
D03*
X-70400D02*
D03*
X-60400D02*
D03*
X-50400D02*
D03*
X-90400Y57300D02*
D03*
X-80400D02*
D03*
X-70400D02*
D03*
X-60400D02*
D03*
X-50400D02*
D03*
X-136400Y89300D02*
D03*
X-126400Y79300D02*
D03*
Y89300D02*
D03*
X-116400Y79300D02*
D03*
Y89300D02*
D03*
X-132800Y127200D02*
D03*
X-142800D02*
D03*
X-152800D02*
D03*
D35*
X-29200Y227450D02*
D03*
X-9200Y57450D02*
D03*
X-109400Y6200D02*
D03*
X-96800D02*
D03*
X-84200Y6100D02*
D03*
X-71600Y6200D02*
D03*
X-40600Y193200D02*
D03*
X-52500Y193100D02*
D03*
X-64300D02*
D03*
X-76000Y193000D02*
D03*
X-87700Y192900D02*
D03*
X-99400D02*
D03*
X-47200Y150900D02*
D03*
D36*
X-372700Y177400D02*
D03*
X-372600Y32300D02*
D03*
Y108500D02*
D03*
D37*
X-372700Y197085D02*
D03*
X-372600Y51985D02*
D03*
Y128185D02*
D03*
D38*
X-100400Y77300D02*
D03*
D39*
X-72600Y122900D02*
D03*
X-86100D02*
D03*
D40*
X-390000Y7400D02*
D03*
X-113200Y96700D02*
D03*
X-197000Y86300D02*
D03*
X-152400Y27800D02*
D03*
X-272900Y199300D02*
D03*
X-250700Y16800D02*
D03*
X-40200Y83100D02*
D03*
X-54300Y90900D02*
D03*
X-54600Y110900D02*
D03*
X-56800Y137000D02*
D03*
X-59400Y146500D02*
D03*
X-125500Y132200D02*
D03*
X-290400Y161900D02*
D03*
X-15000Y43800D02*
D03*
X-31900Y82300D02*
D03*
X-356700Y233200D02*
D03*
X-59800Y2300D02*
D03*
X-38400Y61300D02*
D03*
X-40000Y72100D02*
D03*
X-44600Y115100D02*
D03*
X-39000Y130800D02*
D03*
X-246300Y21000D02*
D03*
X-269700Y101900D02*
D03*
X-58400Y199400D02*
D03*
X-81000Y21100D02*
D03*
X-176900Y27100D02*
D03*
X-171400Y27300D02*
D03*
X-149100Y28100D02*
D03*
X-160600Y47100D02*
D03*
X-157300Y45600D02*
D03*
X-164100Y48500D02*
D03*
X-167600Y50100D02*
D03*
X-182200Y30450D02*
D03*
X-78000Y11400D02*
D03*
X-120353Y85353D02*
D03*
X-27000Y43700D02*
D03*
X-36200Y66900D02*
D03*
X-6200Y172500D02*
D03*
X-13200Y22300D02*
D03*
X-21300Y46400D02*
D03*
X-277100Y174500D02*
D03*
X-137900Y137400D02*
D03*
X-135400Y134800D02*
D03*
X-40100Y145100D02*
D03*
X-38300Y135700D02*
D03*
X-163200Y155200D02*
D03*
X-163300Y69800D02*
D03*
X-247900Y154800D02*
D03*
X-84800Y54400D02*
D03*
D41*
X-197400Y70900D02*
D03*
X-290300Y184200D02*
D03*
X-297300D02*
D03*
X-304300D02*
D03*
X-311300D02*
D03*
X-318300D02*
D03*
X-325300D02*
D03*
X-290300Y191200D02*
D03*
X-297300D02*
D03*
X-304300D02*
D03*
X-311300D02*
D03*
X-318300D02*
D03*
X-325300D02*
D03*
X-290300Y198200D02*
D03*
X-297300D02*
D03*
X-304300D02*
D03*
X-311300D02*
D03*
X-318300D02*
D03*
X-325300D02*
D03*
X-290300Y205200D02*
D03*
X-297300D02*
D03*
X-304300D02*
D03*
X-311300D02*
D03*
X-318300D02*
D03*
X-325300D02*
D03*
X-290300Y212200D02*
D03*
X-297300D02*
D03*
X-304300D02*
D03*
X-311300D02*
D03*
X-318300D02*
D03*
X-325300D02*
D03*
X-290200Y112400D02*
D03*
X-297200D02*
D03*
X-304200D02*
D03*
X-311200D02*
D03*
X-318200D02*
D03*
X-325200D02*
D03*
X-290200Y119400D02*
D03*
X-297200D02*
D03*
X-304200D02*
D03*
X-311200D02*
D03*
X-318200D02*
D03*
X-325200D02*
D03*
X-290200Y126400D02*
D03*
X-297200D02*
D03*
X-304200D02*
D03*
X-311200D02*
D03*
X-318200D02*
D03*
X-325200D02*
D03*
X-290200Y133400D02*
D03*
X-297200D02*
D03*
X-304200D02*
D03*
X-311200D02*
D03*
X-318200D02*
D03*
X-325200D02*
D03*
X-290200Y140400D02*
D03*
X-297200D02*
D03*
X-304200D02*
D03*
X-311200D02*
D03*
X-318200D02*
D03*
X-325200D02*
D03*
X-325500Y68100D02*
D03*
X-318500D02*
D03*
X-311500D02*
D03*
X-304500D02*
D03*
X-297500D02*
D03*
X-290500D02*
D03*
X-325500Y61100D02*
D03*
X-318500D02*
D03*
X-311500D02*
D03*
X-304500D02*
D03*
X-297500D02*
D03*
X-290500D02*
D03*
X-325500Y54100D02*
D03*
X-318500D02*
D03*
X-311500D02*
D03*
X-304500D02*
D03*
X-297500D02*
D03*
X-290500D02*
D03*
X-325500Y47100D02*
D03*
X-318500D02*
D03*
X-311500D02*
D03*
X-304500D02*
D03*
X-297500D02*
D03*
X-290500D02*
D03*
X-325500Y40100D02*
D03*
X-318500D02*
D03*
X-311500D02*
D03*
X-304500D02*
D03*
X-297500D02*
D03*
X-290500D02*
D03*
X-258000Y83600D02*
D03*
X-249400Y79800D02*
D03*
X-288500Y28600D02*
D03*
X-287300Y11100D02*
D03*
X-279200Y78200D02*
D03*
X-341500Y122600D02*
D03*
X-267500Y48100D02*
D03*
X-290100Y87800D02*
D03*
X-271700Y219100D02*
D03*
X-351800Y89600D02*
D03*
X-339200Y175600D02*
D03*
X-257000Y174400D02*
D03*
M02*
