G04*
G04 #@! TF.GenerationSoftware,Altium Limited,Altium Designer,18.0.12 (696)*
G04*
G04 Layer_Color=8421504*
%FSLAX25Y25*%
%MOIN*%
G70*
G01*
G75*
%ADD14R,0.05512X0.05906*%
%ADD15R,0.05906X0.05512*%
%ADD16R,0.05315X0.18110*%
%ADD17R,0.44882X0.37008*%
%ADD18R,0.09173X0.06142*%
%ADD19R,0.04646X0.06969*%
%ADD20R,0.06969X0.04646*%
D14*
X-174800Y90600D02*
D03*
X-182900D02*
D03*
X-254100Y69100D02*
D03*
X-262200D02*
D03*
X-173000Y183400D02*
D03*
X-181100D02*
D03*
X-243600Y164500D02*
D03*
X-235500D02*
D03*
X-26400Y27400D02*
D03*
X-18300D02*
D03*
X-348500Y153500D02*
D03*
X-340400D02*
D03*
X-350500Y7400D02*
D03*
X-342400D02*
D03*
X-338600Y230400D02*
D03*
X-346700D02*
D03*
X-183000Y155300D02*
D03*
X-174900D02*
D03*
X-265400Y154700D02*
D03*
X-257300D02*
D03*
X-233700Y79400D02*
D03*
X-241800D02*
D03*
X-152400Y163700D02*
D03*
X-160500D02*
D03*
X-178300Y69900D02*
D03*
X-170200D02*
D03*
X-151400Y79200D02*
D03*
X-159500D02*
D03*
D15*
X-254100Y90900D02*
D03*
Y99000D02*
D03*
X-243600Y175300D02*
D03*
Y183400D02*
D03*
X-50900Y8800D02*
D03*
Y16900D02*
D03*
X-8600Y35500D02*
D03*
Y27400D02*
D03*
X-339200Y97700D02*
D03*
Y89600D02*
D03*
X-277100Y97700D02*
D03*
Y89600D02*
D03*
D16*
X-298200Y161542D02*
D03*
X-318200D02*
D03*
X-298200Y17542D02*
D03*
X-318200D02*
D03*
X-298100Y89842D02*
D03*
X-318100D02*
D03*
D17*
X-308200Y198000D02*
D03*
Y54000D02*
D03*
X-308100Y126300D02*
D03*
D18*
X-254275Y25500D02*
D03*
X-271125D02*
D03*
X-254275Y11400D02*
D03*
X-271125D02*
D03*
D19*
X-365522Y80100D02*
D03*
X-376900D02*
D03*
D20*
X-343600Y80578D02*
D03*
Y69200D02*
D03*
M02*
